<?xml version="1.0" encoding="utf-8" standalone="no"?>
<!DOCTYPE svg PUBLIC "-//W3C//DTD SVG 1.1//EN"
  "http://www.w3.org/Graphics/SVG/1.1/DTD/svg11.dtd">
<svg xmlns:xlink="http://www.w3.org/1999/xlink" width="576pt" height="396pt" viewBox="0 0 576 396" xmlns="http://www.w3.org/2000/svg" version="1.1">
 <metadata>
  <rdf:RDF xmlns:dc="http://purl.org/dc/elements/1.1/" xmlns:cc="http://creativecommons.org/ns#" xmlns:rdf="http://www.w3.org/1999/02/22-rdf-syntax-ns#">
   <cc:Work>
    <dc:type rdf:resource="http://purl.org/dc/dcmitype/StillImage"/>
    <dc:date>2026-03-29T17:57:48.958466</dc:date>
    <dc:format>image/svg+xml</dc:format>
    <dc:creator>
     <cc:Agent>
      <dc:title>Matplotlib v3.10.8, https://matplotlib.org/</dc:title>
     </cc:Agent>
    </dc:creator>
   </cc:Work>
  </rdf:RDF>
 </metadata>
 <defs>
  <style type="text/css">*{stroke-linejoin: round; stroke-linecap: butt}</style>
 </defs>
 <g id="figure_1">
  <g id="patch_1">
   <path d="M 0 396 
L 576 396 
L 576 0 
L 0 0 
z
" style="fill: #ffffff"/>
  </g>
  <g id="axes_1">
   <g id="patch_2">
    <path d="M 48.01 311.24 
L 565.2 311.24 
L 565.2 112.7324 
L 48.01 112.7324 
z
" style="fill: #ffffff"/>
   </g>
   <g id="matplotlib.axis_1">
    <g id="xtick_1">
     <g id="line2d_1">
      <defs>
       <path id="m4d67df202f" d="M 0 0 
L 0 3.5 
" style="stroke: #000000; stroke-width: 0.8"/>
      </defs>
      <g>
       <use xlink:href="#m4d67df202f" x="144.983125" y="311.24" style="stroke: #000000; stroke-width: 0.8"/>
      </g>
     </g>
     <g id="text_1">
      <!-- R² -->
      <g transform="translate(138.652187 326.829375) scale(0.12 -0.12)">
       <defs>
        <path id="Arial-BoldMT-52" d="M 469 0 
L 469 4581 
L 2416 4581 
Q 3150 4581 3483 4457 
Q 3816 4334 4016 4018 
Q 4216 3703 4216 3297 
Q 4216 2781 3912 2445 
Q 3609 2109 3006 2022 
Q 3306 1847 3501 1637 
Q 3697 1428 4028 894 
L 4588 0 
L 3481 0 
L 2813 997 
Q 2456 1531 2325 1670 
Q 2194 1809 2047 1861 
Q 1900 1913 1581 1913 
L 1394 1913 
L 1394 0 
L 469 0 
z
M 1394 2644 
L 2078 2644 
Q 2744 2644 2909 2700 
Q 3075 2756 3169 2893 
Q 3263 3031 3263 3238 
Q 3263 3469 3139 3611 
Q 3016 3753 2791 3791 
Q 2678 3806 2116 3806 
L 1394 3806 
L 1394 2644 
z
" transform="scale(0.015625)"/>
        <path id="Arial-BoldMT-b2" d="M 1975 2766 
L 1975 2272 
L 78 2272 
Q 113 2538 248 2747 
Q 384 2956 856 3328 
Q 1213 3606 1284 3697 
Q 1381 3816 1381 3938 
Q 1381 4053 1303 4122 
Q 1225 4191 1066 4191 
Q 906 4191 828 4114 
Q 750 4038 731 3831 
L 141 3881 
Q 188 4247 375 4416 
Q 625 4638 1081 4638 
Q 1516 4638 1745 4438 
Q 1975 4238 1975 3966 
Q 1975 3797 1903 3645 
Q 1831 3494 1675 3331 
Q 1594 3250 1253 2981 
Q 1072 2841 994 2766 
L 1975 2766 
z
" transform="scale(0.015625)"/>
       </defs>
       <use xlink:href="#Arial-BoldMT-52"/>
       <use xlink:href="#Arial-BoldMT-b2" transform="translate(72.216797 0)"/>
      </g>
     </g>
    </g>
    <g id="xtick_2">
     <g id="line2d_2">
      <g>
       <use xlink:href="#m4d67df202f" x="306.605" y="311.24" style="stroke: #000000; stroke-width: 0.8"/>
      </g>
     </g>
     <g id="text_2">
      <!-- RMSE -->
      <g transform="translate(289.269688 326.829375) scale(0.12 -0.12)">
       <defs>
        <path id="Arial-BoldMT-4d" d="M 453 0 
L 453 4581 
L 1838 4581 
L 2669 1456 
L 3491 4581 
L 4878 4581 
L 4878 0 
L 4019 0 
L 4019 3606 
L 3109 0 
L 2219 0 
L 1313 3606 
L 1313 0 
L 453 0 
z
" transform="scale(0.015625)"/>
        <path id="Arial-BoldMT-53" d="M 231 1491 
L 1131 1578 
Q 1213 1125 1461 912 
Q 1709 700 2131 700 
Q 2578 700 2804 889 
Q 3031 1078 3031 1331 
Q 3031 1494 2936 1608 
Q 2841 1722 2603 1806 
Q 2441 1863 1863 2006 
Q 1119 2191 819 2459 
Q 397 2838 397 3381 
Q 397 3731 595 4036 
Q 794 4341 1167 4500 
Q 1541 4659 2069 4659 
Q 2931 4659 3367 4281 
Q 3803 3903 3825 3272 
L 2900 3231 
Q 2841 3584 2645 3739 
Q 2450 3894 2059 3894 
Q 1656 3894 1428 3728 
Q 1281 3622 1281 3444 
Q 1281 3281 1419 3166 
Q 1594 3019 2269 2859 
Q 2944 2700 3267 2529 
Q 3591 2359 3773 2064 
Q 3956 1769 3956 1334 
Q 3956 941 3737 597 
Q 3519 253 3119 86 
Q 2719 -81 2122 -81 
Q 1253 -81 787 320 
Q 322 722 231 1491 
z
" transform="scale(0.015625)"/>
        <path id="Arial-BoldMT-45" d="M 466 0 
L 466 4581 
L 3863 4581 
L 3863 3806 
L 1391 3806 
L 1391 2791 
L 3691 2791 
L 3691 2019 
L 1391 2019 
L 1391 772 
L 3950 772 
L 3950 0 
L 466 0 
z
" transform="scale(0.015625)"/>
       </defs>
       <use xlink:href="#Arial-BoldMT-52"/>
       <use xlink:href="#Arial-BoldMT-4d" transform="translate(72.216797 0)"/>
       <use xlink:href="#Arial-BoldMT-53" transform="translate(155.517578 0)"/>
       <use xlink:href="#Arial-BoldMT-45" transform="translate(222.216797 0)"/>
      </g>
     </g>
    </g>
    <g id="xtick_3">
     <g id="line2d_3">
      <g>
       <use xlink:href="#m4d67df202f" x="468.226875" y="311.24" style="stroke: #000000; stroke-width: 0.8"/>
      </g>
     </g>
     <g id="text_3">
      <!-- MAE -->
      <g transform="translate(454.89375 326.829375) scale(0.12 -0.12)">
       <defs>
        <path id="Arial-BoldMT-41" d="M 4597 0 
L 3591 0 
L 3191 1041 
L 1359 1041 
L 981 0 
L 0 0 
L 1784 4581 
L 2763 4581 
L 4597 0 
z
M 2894 1813 
L 2263 3513 
L 1644 1813 
L 2894 1813 
z
" transform="scale(0.015625)"/>
       </defs>
       <use xlink:href="#Arial-BoldMT-4d"/>
       <use xlink:href="#Arial-BoldMT-41" transform="translate(83.300781 0)"/>
       <use xlink:href="#Arial-BoldMT-45" transform="translate(155.517578 0)"/>
      </g>
     </g>
    </g>
    <g id="text_4">
     <!-- Performance Metric -->
     <g transform="translate(255.253906 343.071094) scale(0.11 -0.11)">
      <defs>
       <path id="Arial-BoldMT-50" d="M 466 0 
L 466 4581 
L 1950 4581 
Q 2794 4581 3050 4513 
Q 3444 4409 3709 4064 
Q 3975 3719 3975 3172 
Q 3975 2750 3822 2462 
Q 3669 2175 3433 2011 
Q 3197 1847 2953 1794 
Q 2622 1728 1994 1728 
L 1391 1728 
L 1391 0 
L 466 0 
z
M 1391 3806 
L 1391 2506 
L 1897 2506 
Q 2444 2506 2628 2578 
Q 2813 2650 2917 2803 
Q 3022 2956 3022 3159 
Q 3022 3409 2875 3571 
Q 2728 3734 2503 3775 
Q 2338 3806 1838 3806 
L 1391 3806 
z
" transform="scale(0.015625)"/>
       <path id="Arial-BoldMT-65" d="M 2381 1056 
L 3256 909 
Q 3088 428 2723 176 
Q 2359 -75 1813 -75 
Q 947 -75 531 491 
Q 203 944 203 1634 
Q 203 2459 634 2926 
Q 1066 3394 1725 3394 
Q 2466 3394 2894 2905 
Q 3322 2416 3303 1406 
L 1103 1406 
Q 1113 1016 1316 798 
Q 1519 581 1822 581 
Q 2028 581 2168 693 
Q 2309 806 2381 1056 
z
M 2431 1944 
Q 2422 2325 2234 2523 
Q 2047 2722 1778 2722 
Q 1491 2722 1303 2513 
Q 1116 2303 1119 1944 
L 2431 1944 
z
" transform="scale(0.015625)"/>
       <path id="Arial-BoldMT-72" d="M 1300 0 
L 422 0 
L 422 3319 
L 1238 3319 
L 1238 2847 
Q 1447 3181 1614 3287 
Q 1781 3394 1994 3394 
Q 2294 3394 2572 3228 
L 2300 2463 
Q 2078 2606 1888 2606 
Q 1703 2606 1575 2504 
Q 1447 2403 1373 2137 
Q 1300 1872 1300 1025 
L 1300 0 
z
" transform="scale(0.015625)"/>
       <path id="Arial-BoldMT-66" d="M 75 3319 
L 563 3319 
L 563 3569 
Q 563 3988 652 4194 
Q 741 4400 980 4529 
Q 1219 4659 1584 4659 
Q 1959 4659 2319 4547 
L 2200 3934 
Q 1991 3984 1797 3984 
Q 1606 3984 1523 3895 
Q 1441 3806 1441 3553 
L 1441 3319 
L 2097 3319 
L 2097 2628 
L 1441 2628 
L 1441 0 
L 563 0 
L 563 2628 
L 75 2628 
L 75 3319 
z
" transform="scale(0.015625)"/>
       <path id="Arial-BoldMT-6f" d="M 256 1706 
Q 256 2144 472 2553 
Q 688 2963 1083 3178 
Q 1478 3394 1966 3394 
Q 2719 3394 3200 2905 
Q 3681 2416 3681 1669 
Q 3681 916 3195 420 
Q 2709 -75 1972 -75 
Q 1516 -75 1102 131 
Q 688 338 472 736 
Q 256 1134 256 1706 
z
M 1156 1659 
Q 1156 1166 1390 903 
Q 1625 641 1969 641 
Q 2313 641 2545 903 
Q 2778 1166 2778 1666 
Q 2778 2153 2545 2415 
Q 2313 2678 1969 2678 
Q 1625 2678 1390 2415 
Q 1156 2153 1156 1659 
z
" transform="scale(0.015625)"/>
       <path id="Arial-BoldMT-6d" d="M 394 3319 
L 1203 3319 
L 1203 2866 
Q 1638 3394 2238 3394 
Q 2556 3394 2790 3262 
Q 3025 3131 3175 2866 
Q 3394 3131 3647 3262 
Q 3900 3394 4188 3394 
Q 4553 3394 4806 3245 
Q 5059 3097 5184 2809 
Q 5275 2597 5275 2122 
L 5275 0 
L 4397 0 
L 4397 1897 
Q 4397 2391 4306 2534 
Q 4184 2722 3931 2722 
Q 3747 2722 3584 2609 
Q 3422 2497 3350 2280 
Q 3278 2063 3278 1594 
L 3278 0 
L 2400 0 
L 2400 1819 
Q 2400 2303 2353 2443 
Q 2306 2584 2207 2653 
Q 2109 2722 1941 2722 
Q 1738 2722 1575 2612 
Q 1413 2503 1342 2297 
Q 1272 2091 1272 1613 
L 1272 0 
L 394 0 
L 394 3319 
z
" transform="scale(0.015625)"/>
       <path id="Arial-BoldMT-61" d="M 1116 2306 
L 319 2450 
Q 453 2931 781 3162 
Q 1109 3394 1756 3394 
Q 2344 3394 2631 3255 
Q 2919 3116 3036 2902 
Q 3153 2688 3153 2116 
L 3144 1091 
Q 3144 653 3186 445 
Q 3228 238 3344 0 
L 2475 0 
Q 2441 88 2391 259 
Q 2369 338 2359 363 
Q 2134 144 1878 34 
Q 1622 -75 1331 -75 
Q 819 -75 523 203 
Q 228 481 228 906 
Q 228 1188 362 1408 
Q 497 1628 739 1745 
Q 981 1863 1438 1950 
Q 2053 2066 2291 2166 
L 2291 2253 
Q 2291 2506 2166 2614 
Q 2041 2722 1694 2722 
Q 1459 2722 1328 2630 
Q 1197 2538 1116 2306 
z
M 2291 1594 
Q 2122 1538 1756 1459 
Q 1391 1381 1278 1306 
Q 1106 1184 1106 997 
Q 1106 813 1243 678 
Q 1381 544 1594 544 
Q 1831 544 2047 700 
Q 2206 819 2256 991 
Q 2291 1103 2291 1419 
L 2291 1594 
z
" transform="scale(0.015625)"/>
       <path id="Arial-BoldMT-6e" d="M 3478 0 
L 2600 0 
L 2600 1694 
Q 2600 2231 2544 2389 
Q 2488 2547 2361 2634 
Q 2234 2722 2056 2722 
Q 1828 2722 1647 2597 
Q 1466 2472 1398 2265 
Q 1331 2059 1331 1503 
L 1331 0 
L 453 0 
L 453 3319 
L 1269 3319 
L 1269 2831 
Q 1703 3394 2363 3394 
Q 2653 3394 2893 3289 
Q 3134 3184 3257 3021 
Q 3381 2859 3429 2653 
Q 3478 2447 3478 2063 
L 3478 0 
z
" transform="scale(0.015625)"/>
       <path id="Arial-BoldMT-63" d="M 3353 2338 
L 2488 2181 
Q 2444 2441 2289 2572 
Q 2134 2703 1888 2703 
Q 1559 2703 1364 2476 
Q 1169 2250 1169 1719 
Q 1169 1128 1367 884 
Q 1566 641 1900 641 
Q 2150 641 2309 783 
Q 2469 925 2534 1272 
L 3397 1125 
Q 3263 531 2881 228 
Q 2500 -75 1859 -75 
Q 1131 -75 698 384 
Q 266 844 266 1656 
Q 266 2478 700 2936 
Q 1134 3394 1875 3394 
Q 2481 3394 2839 3133 
Q 3197 2872 3353 2338 
z
" transform="scale(0.015625)"/>
       <path id="Arial-BoldMT-20" transform="scale(0.015625)"/>
       <path id="Arial-BoldMT-74" d="M 1981 3319 
L 1981 2619 
L 1381 2619 
L 1381 1281 
Q 1381 875 1398 808 
Q 1416 741 1477 697 
Q 1538 653 1625 653 
Q 1747 653 1978 738 
L 2053 56 
Q 1747 -75 1359 -75 
Q 1122 -75 931 4 
Q 741 84 652 211 
Q 563 338 528 553 
Q 500 706 500 1172 
L 500 2619 
L 97 2619 
L 97 3319 
L 500 3319 
L 500 3978 
L 1381 4491 
L 1381 3319 
L 1981 3319 
z
" transform="scale(0.015625)"/>
       <path id="Arial-BoldMT-69" d="M 459 3769 
L 459 4581 
L 1338 4581 
L 1338 3769 
L 459 3769 
z
M 459 0 
L 459 3319 
L 1338 3319 
L 1338 0 
L 459 0 
z
" transform="scale(0.015625)"/>
      </defs>
      <use xlink:href="#Arial-BoldMT-50"/>
      <use xlink:href="#Arial-BoldMT-65" transform="translate(66.699219 0)"/>
      <use xlink:href="#Arial-BoldMT-72" transform="translate(122.314453 0)"/>
      <use xlink:href="#Arial-BoldMT-66" transform="translate(161.230469 0)"/>
      <use xlink:href="#Arial-BoldMT-6f" transform="translate(194.53125 0)"/>
      <use xlink:href="#Arial-BoldMT-72" transform="translate(255.615234 0)"/>
      <use xlink:href="#Arial-BoldMT-6d" transform="translate(294.53125 0)"/>
      <use xlink:href="#Arial-BoldMT-61" transform="translate(383.447266 0)"/>
      <use xlink:href="#Arial-BoldMT-6e" transform="translate(439.0625 0)"/>
      <use xlink:href="#Arial-BoldMT-63" transform="translate(500.146484 0)"/>
      <use xlink:href="#Arial-BoldMT-65" transform="translate(555.761719 0)"/>
      <use xlink:href="#Arial-BoldMT-20" transform="translate(611.376953 0)"/>
      <use xlink:href="#Arial-BoldMT-4d" transform="translate(639.160156 0)"/>
      <use xlink:href="#Arial-BoldMT-65" transform="translate(722.460938 0)"/>
      <use xlink:href="#Arial-BoldMT-74" transform="translate(778.076172 0)"/>
      <use xlink:href="#Arial-BoldMT-72" transform="translate(811.376953 0)"/>
      <use xlink:href="#Arial-BoldMT-69" transform="translate(850.292969 0)"/>
      <use xlink:href="#Arial-BoldMT-63" transform="translate(878.076172 0)"/>
     </g>
    </g>
   </g>
   <g id="matplotlib.axis_2">
    <g id="ytick_1">
     <g id="line2d_4">
      <path d="M 48.01 311.24 
L 565.2 311.24 
" clip-path="url(#p2b029e3a96)" style="fill: none; stroke-dasharray: 2.96,1.28; stroke-dashoffset: 0; stroke: #cccccc; stroke-opacity: 0.6; stroke-width: 0.8"/>
     </g>
     <g id="line2d_5">
      <defs>
       <path id="m7277cdda5e" d="M 0 0 
L -3.5 0 
" style="stroke: #000000; stroke-width: 0.8"/>
      </defs>
      <g>
       <use xlink:href="#m7277cdda5e" x="48.01" y="311.24" style="stroke: #000000; stroke-width: 0.8"/>
      </g>
     </g>
     <g id="text_5">
      <!-- 0.0 -->
      <g transform="translate(27.11 314.818906) scale(0.1 -0.1)">
       <defs>
        <path id="ArialMT-30" d="M 266 2259 
Q 266 3072 433 3567 
Q 600 4063 929 4331 
Q 1259 4600 1759 4600 
Q 2128 4600 2406 4451 
Q 2684 4303 2865 4023 
Q 3047 3744 3150 3342 
Q 3253 2941 3253 2259 
Q 3253 1453 3087 958 
Q 2922 463 2592 192 
Q 2263 -78 1759 -78 
Q 1097 -78 719 397 
Q 266 969 266 2259 
z
M 844 2259 
Q 844 1131 1108 757 
Q 1372 384 1759 384 
Q 2147 384 2411 759 
Q 2675 1134 2675 2259 
Q 2675 3391 2411 3762 
Q 2147 4134 1753 4134 
Q 1366 4134 1134 3806 
Q 844 3388 844 2259 
z
" transform="scale(0.015625)"/>
        <path id="ArialMT-2e" d="M 581 0 
L 581 641 
L 1222 641 
L 1222 0 
L 581 0 
z
" transform="scale(0.015625)"/>
       </defs>
       <use xlink:href="#ArialMT-30"/>
       <use xlink:href="#ArialMT-2e" transform="translate(55.615234 0)"/>
       <use xlink:href="#ArialMT-30" transform="translate(83.398438 0)"/>
      </g>
     </g>
    </g>
    <g id="ytick_2">
     <g id="line2d_6">
      <path d="M 48.01 280.223187 
L 565.2 280.223187 
" clip-path="url(#p2b029e3a96)" style="fill: none; stroke-dasharray: 2.96,1.28; stroke-dashoffset: 0; stroke: #cccccc; stroke-opacity: 0.6; stroke-width: 0.8"/>
     </g>
     <g id="line2d_7">
      <g>
       <use xlink:href="#m7277cdda5e" x="48.01" y="280.223187" style="stroke: #000000; stroke-width: 0.8"/>
      </g>
     </g>
     <g id="text_6">
      <!-- 0.5 -->
      <g transform="translate(27.11 283.802094) scale(0.1 -0.1)">
       <defs>
        <path id="ArialMT-35" d="M 266 1200 
L 856 1250 
Q 922 819 1161 601 
Q 1400 384 1738 384 
Q 2144 384 2425 690 
Q 2706 997 2706 1503 
Q 2706 1984 2436 2262 
Q 2166 2541 1728 2541 
Q 1456 2541 1237 2417 
Q 1019 2294 894 2097 
L 366 2166 
L 809 4519 
L 3088 4519 
L 3088 3981 
L 1259 3981 
L 1013 2750 
Q 1425 3038 1878 3038 
Q 2478 3038 2890 2622 
Q 3303 2206 3303 1553 
Q 3303 931 2941 478 
Q 2500 -78 1738 -78 
Q 1113 -78 717 272 
Q 322 622 266 1200 
z
" transform="scale(0.015625)"/>
       </defs>
       <use xlink:href="#ArialMT-30"/>
       <use xlink:href="#ArialMT-2e" transform="translate(55.615234 0)"/>
       <use xlink:href="#ArialMT-35" transform="translate(83.398438 0)"/>
      </g>
     </g>
    </g>
    <g id="ytick_3">
     <g id="line2d_8">
      <path d="M 48.01 249.206375 
L 565.2 249.206375 
" clip-path="url(#p2b029e3a96)" style="fill: none; stroke-dasharray: 2.96,1.28; stroke-dashoffset: 0; stroke: #cccccc; stroke-opacity: 0.6; stroke-width: 0.8"/>
     </g>
     <g id="line2d_9">
      <g>
       <use xlink:href="#m7277cdda5e" x="48.01" y="249.206375" style="stroke: #000000; stroke-width: 0.8"/>
      </g>
     </g>
     <g id="text_7">
      <!-- 1.0 -->
      <g transform="translate(27.11 252.785281) scale(0.1 -0.1)">
       <defs>
        <path id="ArialMT-31" d="M 2384 0 
L 1822 0 
L 1822 3584 
Q 1619 3391 1289 3197 
Q 959 3003 697 2906 
L 697 3450 
Q 1169 3672 1522 3987 
Q 1875 4303 2022 4600 
L 2384 4600 
L 2384 0 
z
" transform="scale(0.015625)"/>
       </defs>
       <use xlink:href="#ArialMT-31"/>
       <use xlink:href="#ArialMT-2e" transform="translate(55.615234 0)"/>
       <use xlink:href="#ArialMT-30" transform="translate(83.398438 0)"/>
      </g>
     </g>
    </g>
    <g id="ytick_4">
     <g id="line2d_10">
      <path d="M 48.01 218.189562 
L 565.2 218.189562 
" clip-path="url(#p2b029e3a96)" style="fill: none; stroke-dasharray: 2.96,1.28; stroke-dashoffset: 0; stroke: #cccccc; stroke-opacity: 0.6; stroke-width: 0.8"/>
     </g>
     <g id="line2d_11">
      <g>
       <use xlink:href="#m7277cdda5e" x="48.01" y="218.189562" style="stroke: #000000; stroke-width: 0.8"/>
      </g>
     </g>
     <g id="text_8">
      <!-- 1.5 -->
      <g transform="translate(27.11 221.768469) scale(0.1 -0.1)">
       <use xlink:href="#ArialMT-31"/>
       <use xlink:href="#ArialMT-2e" transform="translate(55.615234 0)"/>
       <use xlink:href="#ArialMT-35" transform="translate(83.398438 0)"/>
      </g>
     </g>
    </g>
    <g id="ytick_5">
     <g id="line2d_12">
      <path d="M 48.01 187.17275 
L 565.2 187.17275 
" clip-path="url(#p2b029e3a96)" style="fill: none; stroke-dasharray: 2.96,1.28; stroke-dashoffset: 0; stroke: #cccccc; stroke-opacity: 0.6; stroke-width: 0.8"/>
     </g>
     <g id="line2d_13">
      <g>
       <use xlink:href="#m7277cdda5e" x="48.01" y="187.17275" style="stroke: #000000; stroke-width: 0.8"/>
      </g>
     </g>
     <g id="text_9">
      <!-- 2.0 -->
      <g transform="translate(27.11 190.751656) scale(0.1 -0.1)">
       <defs>
        <path id="ArialMT-32" d="M 3222 541 
L 3222 0 
L 194 0 
Q 188 203 259 391 
Q 375 700 629 1000 
Q 884 1300 1366 1694 
Q 2113 2306 2375 2664 
Q 2638 3022 2638 3341 
Q 2638 3675 2398 3904 
Q 2159 4134 1775 4134 
Q 1369 4134 1125 3890 
Q 881 3647 878 3216 
L 300 3275 
Q 359 3922 746 4261 
Q 1134 4600 1788 4600 
Q 2447 4600 2831 4234 
Q 3216 3869 3216 3328 
Q 3216 3053 3103 2787 
Q 2991 2522 2730 2228 
Q 2469 1934 1863 1422 
Q 1356 997 1212 845 
Q 1069 694 975 541 
L 3222 541 
z
" transform="scale(0.015625)"/>
       </defs>
       <use xlink:href="#ArialMT-32"/>
       <use xlink:href="#ArialMT-2e" transform="translate(55.615234 0)"/>
       <use xlink:href="#ArialMT-30" transform="translate(83.398438 0)"/>
      </g>
     </g>
    </g>
    <g id="ytick_6">
     <g id="line2d_14">
      <path d="M 48.01 156.155937 
L 565.2 156.155937 
" clip-path="url(#p2b029e3a96)" style="fill: none; stroke-dasharray: 2.96,1.28; stroke-dashoffset: 0; stroke: #cccccc; stroke-opacity: 0.6; stroke-width: 0.8"/>
     </g>
     <g id="line2d_15">
      <g>
       <use xlink:href="#m7277cdda5e" x="48.01" y="156.155937" style="stroke: #000000; stroke-width: 0.8"/>
      </g>
     </g>
     <g id="text_10">
      <!-- 2.5 -->
      <g transform="translate(27.11 159.734844) scale(0.1 -0.1)">
       <use xlink:href="#ArialMT-32"/>
       <use xlink:href="#ArialMT-2e" transform="translate(55.615234 0)"/>
       <use xlink:href="#ArialMT-35" transform="translate(83.398438 0)"/>
      </g>
     </g>
    </g>
    <g id="ytick_7">
     <g id="line2d_16">
      <path d="M 48.01 125.139125 
L 565.2 125.139125 
" clip-path="url(#p2b029e3a96)" style="fill: none; stroke-dasharray: 2.96,1.28; stroke-dashoffset: 0; stroke: #cccccc; stroke-opacity: 0.6; stroke-width: 0.8"/>
     </g>
     <g id="line2d_17">
      <g>
       <use xlink:href="#m7277cdda5e" x="48.01" y="125.139125" style="stroke: #000000; stroke-width: 0.8"/>
      </g>
     </g>
     <g id="text_11">
      <!-- 3.0 -->
      <g transform="translate(27.11 128.718031) scale(0.1 -0.1)">
       <defs>
        <path id="ArialMT-33" d="M 269 1209 
L 831 1284 
Q 928 806 1161 595 
Q 1394 384 1728 384 
Q 2125 384 2398 659 
Q 2672 934 2672 1341 
Q 2672 1728 2419 1979 
Q 2166 2231 1775 2231 
Q 1616 2231 1378 2169 
L 1441 2663 
Q 1497 2656 1531 2656 
Q 1891 2656 2178 2843 
Q 2466 3031 2466 3422 
Q 2466 3731 2256 3934 
Q 2047 4138 1716 4138 
Q 1388 4138 1169 3931 
Q 950 3725 888 3313 
L 325 3413 
Q 428 3978 793 4289 
Q 1159 4600 1703 4600 
Q 2078 4600 2393 4439 
Q 2709 4278 2876 4000 
Q 3044 3722 3044 3409 
Q 3044 3113 2884 2869 
Q 2725 2625 2413 2481 
Q 2819 2388 3044 2092 
Q 3269 1797 3269 1353 
Q 3269 753 2831 336 
Q 2394 -81 1725 -81 
Q 1122 -81 723 278 
Q 325 638 269 1209 
z
" transform="scale(0.015625)"/>
       </defs>
       <use xlink:href="#ArialMT-33"/>
       <use xlink:href="#ArialMT-2e" transform="translate(55.615234 0)"/>
       <use xlink:href="#ArialMT-30" transform="translate(83.398438 0)"/>
      </g>
     </g>
    </g>
    <g id="text_12">
     <!-- Value -->
     <g transform="translate(18.939219 226.356669) rotate(-90) scale(0.11 -0.11)">
      <defs>
       <path id="Arial-BoldMT-56" d="M 1634 0 
L -3 4581 
L 1000 4581 
L 2159 1191 
L 3281 4581 
L 4263 4581 
L 2622 0 
L 1634 0 
z
" transform="scale(0.015625)"/>
       <path id="Arial-BoldMT-6c" d="M 459 0 
L 459 4581 
L 1338 4581 
L 1338 0 
L 459 0 
z
" transform="scale(0.015625)"/>
       <path id="Arial-BoldMT-75" d="M 2644 0 
L 2644 497 
Q 2463 231 2167 78 
Q 1872 -75 1544 -75 
Q 1209 -75 943 72 
Q 678 219 559 484 
Q 441 750 441 1219 
L 441 3319 
L 1319 3319 
L 1319 1794 
Q 1319 1094 1367 936 
Q 1416 778 1544 686 
Q 1672 594 1869 594 
Q 2094 594 2272 717 
Q 2450 841 2515 1023 
Q 2581 1206 2581 1919 
L 2581 3319 
L 3459 3319 
L 3459 0 
L 2644 0 
z
" transform="scale(0.015625)"/>
      </defs>
      <use xlink:href="#Arial-BoldMT-56"/>
      <use xlink:href="#Arial-BoldMT-61" transform="translate(61.199219 0)"/>
      <use xlink:href="#Arial-BoldMT-6c" transform="translate(116.814453 0)"/>
      <use xlink:href="#Arial-BoldMT-75" transform="translate(144.597656 0)"/>
      <use xlink:href="#Arial-BoldMT-65" transform="translate(205.681641 0)"/>
     </g>
    </g>
   </g>
   <g id="patch_3">
    <path d="M 48.01 311.24 
L 48.01 112.7324 
" style="fill: none; stroke: #000000; stroke-width: 0.8; stroke-linejoin: miter; stroke-linecap: square"/>
   </g>
   <g id="patch_4">
    <path d="M 48.01 311.24 
L 565.2 311.24 
" style="fill: none; stroke: #000000; stroke-width: 0.8; stroke-linejoin: miter; stroke-linecap: square"/>
   </g>
   <g id="patch_5">
    <path d="M 74.02718 311.24 
L 109.505152 311.24 
L 109.505152 269.429337 
L 74.02718 269.429337 
z
" clip-path="url(#p2b029e3a96)" style="fill: #2e86ab; stroke: #000000; stroke-width: 0.7; stroke-linejoin: miter"/>
   </g>
   <g id="patch_6">
    <path d="M 235.649055 311.24 
L 271.127027 311.24 
L 271.127027 174.145689 
L 235.649055 174.145689 
z
" clip-path="url(#p2b029e3a96)" style="fill: #2e86ab; stroke: #000000; stroke-width: 0.7; stroke-linejoin: miter"/>
   </g>
   <g id="patch_7">
    <path d="M 397.27093 311.24 
L 432.748902 311.24 
L 432.748902 204.542165 
L 397.27093 204.542165 
z
" clip-path="url(#p2b029e3a96)" style="fill: #2e86ab; stroke: #000000; stroke-width: 0.7; stroke-linejoin: miter"/>
   </g>
   <g id="text_13">
    <!-- 0.674 -->
    <g style="fill: #333333" transform="translate(82.382963 266.387871) scale(0.075 -0.075)">
     <defs>
      <path id="ArialMT-36" d="M 3184 3459 
L 2625 3416 
Q 2550 3747 2413 3897 
Q 2184 4138 1850 4138 
Q 1581 4138 1378 3988 
Q 1113 3794 959 3422 
Q 806 3050 800 2363 
Q 1003 2672 1297 2822 
Q 1591 2972 1913 2972 
Q 2475 2972 2870 2558 
Q 3266 2144 3266 1488 
Q 3266 1056 3080 686 
Q 2894 316 2569 119 
Q 2244 -78 1831 -78 
Q 1128 -78 684 439 
Q 241 956 241 2144 
Q 241 3472 731 4075 
Q 1159 4600 1884 4600 
Q 2425 4600 2770 4297 
Q 3116 3994 3184 3459 
z
M 888 1484 
Q 888 1194 1011 928 
Q 1134 663 1356 523 
Q 1578 384 1822 384 
Q 2178 384 2434 671 
Q 2691 959 2691 1453 
Q 2691 1928 2437 2201 
Q 2184 2475 1800 2475 
Q 1419 2475 1153 2201 
Q 888 1928 888 1484 
z
" transform="scale(0.015625)"/>
      <path id="ArialMT-37" d="M 303 3981 
L 303 4522 
L 3269 4522 
L 3269 4084 
Q 2831 3619 2401 2847 
Q 1972 2075 1738 1259 
Q 1569 684 1522 0 
L 944 0 
Q 953 541 1156 1306 
Q 1359 2072 1739 2783 
Q 2119 3494 2547 3981 
L 303 3981 
z
" transform="scale(0.015625)"/>
      <path id="ArialMT-34" d="M 2069 0 
L 2069 1097 
L 81 1097 
L 81 1613 
L 2172 4581 
L 2631 4581 
L 2631 1613 
L 3250 1613 
L 3250 1097 
L 2631 1097 
L 2631 0 
L 2069 0 
z
M 2069 1613 
L 2069 3678 
L 634 1613 
L 2069 1613 
z
" transform="scale(0.015625)"/>
     </defs>
     <use xlink:href="#ArialMT-30"/>
     <use xlink:href="#ArialMT-2e" transform="translate(55.615234 0)"/>
     <use xlink:href="#ArialMT-36" transform="translate(83.398438 0)"/>
     <use xlink:href="#ArialMT-37" transform="translate(139.013672 0)"/>
     <use xlink:href="#ArialMT-34" transform="translate(194.628906 0)"/>
    </g>
   </g>
   <g id="text_14">
    <!-- 2.210 -->
    <g style="fill: #333333" transform="translate(244.004838 171.104223) scale(0.075 -0.075)">
     <use xlink:href="#ArialMT-32"/>
     <use xlink:href="#ArialMT-2e" transform="translate(55.615234 0)"/>
     <use xlink:href="#ArialMT-32" transform="translate(83.398438 0)"/>
     <use xlink:href="#ArialMT-31" transform="translate(139.013672 0)"/>
     <use xlink:href="#ArialMT-30" transform="translate(194.628906 0)"/>
    </g>
   </g>
   <g id="text_15">
    <!-- 1.720 -->
    <g style="fill: #333333" transform="translate(405.626713 201.500699) scale(0.075 -0.075)">
     <use xlink:href="#ArialMT-31"/>
     <use xlink:href="#ArialMT-2e" transform="translate(55.615234 0)"/>
     <use xlink:href="#ArialMT-37" transform="translate(83.398438 0)"/>
     <use xlink:href="#ArialMT-32" transform="translate(139.013672 0)"/>
     <use xlink:href="#ArialMT-30" transform="translate(194.628906 0)"/>
    </g>
   </g>
   <g id="patch_8">
    <path d="M 109.505152 311.24 
L 144.983125 311.24 
L 144.983125 264.52868 
L 109.505152 264.52868 
z
" clip-path="url(#p2b029e3a96)" style="fill: #6fb1d0; stroke: #000000; stroke-width: 0.7; stroke-linejoin: miter"/>
   </g>
   <g id="patch_9">
    <path d="M 271.127027 311.24 
L 306.605 311.24 
L 306.605 187.17275 
L 271.127027 187.17275 
z
" clip-path="url(#p2b029e3a96)" style="fill: #6fb1d0; stroke: #000000; stroke-width: 0.7; stroke-linejoin: miter"/>
   </g>
   <g id="patch_10">
    <path d="M 432.748902 311.24 
L 468.226875 311.24 
L 468.226875 215.708217 
L 432.748902 215.708217 
z
" clip-path="url(#p2b029e3a96)" style="fill: #6fb1d0; stroke: #000000; stroke-width: 0.7; stroke-linejoin: miter"/>
   </g>
   <g id="text_16">
    <!-- 0.753 -->
    <g style="fill: #333333" transform="translate(117.860936 261.487215) scale(0.075 -0.075)">
     <use xlink:href="#ArialMT-30"/>
     <use xlink:href="#ArialMT-2e" transform="translate(55.615234 0)"/>
     <use xlink:href="#ArialMT-37" transform="translate(83.398438 0)"/>
     <use xlink:href="#ArialMT-35" transform="translate(139.013672 0)"/>
     <use xlink:href="#ArialMT-33" transform="translate(194.628906 0)"/>
    </g>
   </g>
   <g id="text_17">
    <!-- 2.000 -->
    <g style="fill: #333333" transform="translate(279.482811 184.131284) scale(0.075 -0.075)">
     <use xlink:href="#ArialMT-32"/>
     <use xlink:href="#ArialMT-2e" transform="translate(55.615234 0)"/>
     <use xlink:href="#ArialMT-30" transform="translate(83.398438 0)"/>
     <use xlink:href="#ArialMT-30" transform="translate(139.013672 0)"/>
     <use xlink:href="#ArialMT-30" transform="translate(194.628906 0)"/>
    </g>
   </g>
   <g id="text_18">
    <!-- 1.540 -->
    <g style="fill: #333333" transform="translate(441.104686 212.666752) scale(0.075 -0.075)">
     <use xlink:href="#ArialMT-31"/>
     <use xlink:href="#ArialMT-2e" transform="translate(55.615234 0)"/>
     <use xlink:href="#ArialMT-35" transform="translate(83.398438 0)"/>
     <use xlink:href="#ArialMT-34" transform="translate(139.013672 0)"/>
     <use xlink:href="#ArialMT-30" transform="translate(194.628906 0)"/>
    </g>
   </g>
   <g id="patch_11">
    <path d="M 144.983125 311.24 
L 180.461098 311.24 
L 180.461098 270.235774 
L 144.983125 270.235774 
z
" clip-path="url(#p2b029e3a96)" style="fill: #d95f4c; stroke: #000000; stroke-width: 0.7; stroke-linejoin: miter"/>
   </g>
   <g id="patch_12">
    <path d="M 306.605 311.24 
L 342.082973 311.24 
L 342.082973 153.674592 
L 306.605 153.674592 
z
" clip-path="url(#p2b029e3a96)" style="fill: #d95f4c; stroke: #000000; stroke-width: 0.7; stroke-linejoin: miter"/>
   </g>
   <g id="patch_13">
    <path d="M 468.226875 311.24 
L 503.704848 311.24 
L 503.704848 188.413422 
L 468.226875 188.413422 
z
" clip-path="url(#p2b029e3a96)" style="fill: #d95f4c; stroke: #000000; stroke-width: 0.7; stroke-linejoin: miter"/>
   </g>
   <g id="text_19">
    <!-- 0.661 -->
    <g style="fill: #333333" transform="translate(153.338908 267.194308) scale(0.075 -0.075)">
     <use xlink:href="#ArialMT-30"/>
     <use xlink:href="#ArialMT-2e" transform="translate(55.615234 0)"/>
     <use xlink:href="#ArialMT-36" transform="translate(83.398438 0)"/>
     <use xlink:href="#ArialMT-36" transform="translate(139.013672 0)"/>
     <use xlink:href="#ArialMT-31" transform="translate(194.628906 0)"/>
    </g>
   </g>
   <g id="text_20">
    <!-- 2.540 -->
    <g style="fill: #333333" transform="translate(314.960783 150.633127) scale(0.075 -0.075)">
     <use xlink:href="#ArialMT-32"/>
     <use xlink:href="#ArialMT-2e" transform="translate(55.615234 0)"/>
     <use xlink:href="#ArialMT-35" transform="translate(83.398438 0)"/>
     <use xlink:href="#ArialMT-34" transform="translate(139.013672 0)"/>
     <use xlink:href="#ArialMT-30" transform="translate(194.628906 0)"/>
    </g>
   </g>
   <g id="text_21">
    <!-- 1.980 -->
    <g style="fill: #333333" transform="translate(476.582658 185.371957) scale(0.075 -0.075)">
     <defs>
      <path id="ArialMT-39" d="M 350 1059 
L 891 1109 
Q 959 728 1153 556 
Q 1347 384 1650 384 
Q 1909 384 2104 503 
Q 2300 622 2425 820 
Q 2550 1019 2634 1356 
Q 2719 1694 2719 2044 
Q 2719 2081 2716 2156 
Q 2547 1888 2255 1720 
Q 1963 1553 1622 1553 
Q 1053 1553 659 1965 
Q 266 2378 266 3053 
Q 266 3750 677 4175 
Q 1088 4600 1706 4600 
Q 2153 4600 2523 4359 
Q 2894 4119 3086 3673 
Q 3278 3228 3278 2384 
Q 3278 1506 3087 986 
Q 2897 466 2520 194 
Q 2144 -78 1638 -78 
Q 1100 -78 759 220 
Q 419 519 350 1059 
z
M 2653 3081 
Q 2653 3566 2395 3850 
Q 2138 4134 1775 4134 
Q 1400 4134 1122 3828 
Q 844 3522 844 3034 
Q 844 2597 1108 2323 
Q 1372 2050 1759 2050 
Q 2150 2050 2401 2323 
Q 2653 2597 2653 3081 
z
" transform="scale(0.015625)"/>
      <path id="ArialMT-38" d="M 1131 2484 
Q 781 2613 612 2850 
Q 444 3088 444 3419 
Q 444 3919 803 4259 
Q 1163 4600 1759 4600 
Q 2359 4600 2725 4251 
Q 3091 3903 3091 3403 
Q 3091 3084 2923 2848 
Q 2756 2613 2416 2484 
Q 2838 2347 3058 2040 
Q 3278 1734 3278 1309 
Q 3278 722 2862 322 
Q 2447 -78 1769 -78 
Q 1091 -78 675 323 
Q 259 725 259 1325 
Q 259 1772 486 2073 
Q 713 2375 1131 2484 
z
M 1019 3438 
Q 1019 3113 1228 2906 
Q 1438 2700 1772 2700 
Q 2097 2700 2305 2904 
Q 2513 3109 2513 3406 
Q 2513 3716 2298 3927 
Q 2084 4138 1766 4138 
Q 1444 4138 1231 3931 
Q 1019 3725 1019 3438 
z
M 838 1322 
Q 838 1081 952 856 
Q 1066 631 1291 507 
Q 1516 384 1775 384 
Q 2178 384 2440 643 
Q 2703 903 2703 1303 
Q 2703 1709 2433 1975 
Q 2163 2241 1756 2241 
Q 1359 2241 1098 1978 
Q 838 1716 838 1322 
z
" transform="scale(0.015625)"/>
     </defs>
     <use xlink:href="#ArialMT-31"/>
     <use xlink:href="#ArialMT-2e" transform="translate(55.615234 0)"/>
     <use xlink:href="#ArialMT-39" transform="translate(83.398438 0)"/>
     <use xlink:href="#ArialMT-38" transform="translate(139.013672 0)"/>
     <use xlink:href="#ArialMT-30" transform="translate(194.628906 0)"/>
    </g>
   </g>
   <g id="patch_14">
    <path d="M 180.461098 311.24 
L 215.93907 311.24 
L 215.93907 262.543604 
L 180.461098 262.543604 
z
" clip-path="url(#p2b029e3a96)" style="fill: #f4a261; stroke: #000000; stroke-width: 0.7; stroke-linejoin: miter"/>
   </g>
   <g id="patch_15">
    <path d="M 342.082973 311.24 
L 377.560945 311.24 
L 377.560945 182.21006 
L 342.082973 182.21006 
z
" clip-path="url(#p2b029e3a96)" style="fill: #f4a261; stroke: #000000; stroke-width: 0.7; stroke-linejoin: miter"/>
   </g>
   <g id="patch_16">
    <path d="M 503.704848 311.24 
L 539.18282 311.24 
L 539.18282 209.504855 
L 503.704848 209.504855 
z
" clip-path="url(#p2b029e3a96)" style="fill: #f4a261; stroke: #000000; stroke-width: 0.7; stroke-linejoin: miter"/>
   </g>
   <g id="text_22">
    <!-- 0.785 -->
    <g style="fill: #333333" transform="translate(188.816881 259.502139) scale(0.075 -0.075)">
     <use xlink:href="#ArialMT-30"/>
     <use xlink:href="#ArialMT-2e" transform="translate(55.615234 0)"/>
     <use xlink:href="#ArialMT-37" transform="translate(83.398438 0)"/>
     <use xlink:href="#ArialMT-38" transform="translate(139.013672 0)"/>
     <use xlink:href="#ArialMT-35" transform="translate(194.628906 0)"/>
    </g>
   </g>
   <g id="text_23">
    <!-- 2.080 -->
    <g style="fill: #333333" transform="translate(350.438756 179.168594) scale(0.075 -0.075)">
     <use xlink:href="#ArialMT-32"/>
     <use xlink:href="#ArialMT-2e" transform="translate(55.615234 0)"/>
     <use xlink:href="#ArialMT-30" transform="translate(83.398438 0)"/>
     <use xlink:href="#ArialMT-38" transform="translate(139.013672 0)"/>
     <use xlink:href="#ArialMT-30" transform="translate(194.628906 0)"/>
    </g>
   </g>
   <g id="text_24">
    <!-- 1.640 -->
    <g style="fill: #333333" transform="translate(512.060631 206.463389) scale(0.075 -0.075)">
     <use xlink:href="#ArialMT-31"/>
     <use xlink:href="#ArialMT-2e" transform="translate(55.615234 0)"/>
     <use xlink:href="#ArialMT-36" transform="translate(83.398438 0)"/>
     <use xlink:href="#ArialMT-34" transform="translate(139.013672 0)"/>
     <use xlink:href="#ArialMT-30" transform="translate(194.628906 0)"/>
    </g>
   </g>
   <g id="legend_1">
    <g id="patch_17">
     <path d="M 135.852891 84.41065 
L 149.152891 84.41065 
L 149.152891 77.76065 
L 135.852891 77.76065 
z
" style="fill: #2e86ab; stroke: #000000; stroke-width: 0.7; stroke-linejoin: miter"/>
    </g>
    <g id="text_25">
     <!-- Hong Kong Linear -->
     <g transform="translate(153.902891 84.41065) scale(0.095 -0.095)">
      <defs>
       <path id="ArialMT-48" d="M 513 0 
L 513 4581 
L 1119 4581 
L 1119 2700 
L 3500 2700 
L 3500 4581 
L 4106 4581 
L 4106 0 
L 3500 0 
L 3500 2159 
L 1119 2159 
L 1119 0 
L 513 0 
z
" transform="scale(0.015625)"/>
       <path id="ArialMT-6f" d="M 213 1659 
Q 213 2581 725 3025 
Q 1153 3394 1769 3394 
Q 2453 3394 2887 2945 
Q 3322 2497 3322 1706 
Q 3322 1066 3130 698 
Q 2938 331 2570 128 
Q 2203 -75 1769 -75 
Q 1072 -75 642 372 
Q 213 819 213 1659 
z
M 791 1659 
Q 791 1022 1069 705 
Q 1347 388 1769 388 
Q 2188 388 2466 706 
Q 2744 1025 2744 1678 
Q 2744 2294 2464 2611 
Q 2184 2928 1769 2928 
Q 1347 2928 1069 2612 
Q 791 2297 791 1659 
z
" transform="scale(0.015625)"/>
       <path id="ArialMT-6e" d="M 422 0 
L 422 3319 
L 928 3319 
L 928 2847 
Q 1294 3394 1984 3394 
Q 2284 3394 2536 3286 
Q 2788 3178 2913 3003 
Q 3038 2828 3088 2588 
Q 3119 2431 3119 2041 
L 3119 0 
L 2556 0 
L 2556 2019 
Q 2556 2363 2490 2533 
Q 2425 2703 2258 2804 
Q 2091 2906 1866 2906 
Q 1506 2906 1245 2678 
Q 984 2450 984 1813 
L 984 0 
L 422 0 
z
" transform="scale(0.015625)"/>
       <path id="ArialMT-67" d="M 319 -275 
L 866 -356 
Q 900 -609 1056 -725 
Q 1266 -881 1628 -881 
Q 2019 -881 2231 -725 
Q 2444 -569 2519 -288 
Q 2563 -116 2559 434 
Q 2191 0 1641 0 
Q 956 0 581 494 
Q 206 988 206 1678 
Q 206 2153 378 2554 
Q 550 2956 876 3175 
Q 1203 3394 1644 3394 
Q 2231 3394 2613 2919 
L 2613 3319 
L 3131 3319 
L 3131 450 
Q 3131 -325 2973 -648 
Q 2816 -972 2473 -1159 
Q 2131 -1347 1631 -1347 
Q 1038 -1347 672 -1080 
Q 306 -813 319 -275 
z
M 784 1719 
Q 784 1066 1043 766 
Q 1303 466 1694 466 
Q 2081 466 2343 764 
Q 2606 1063 2606 1700 
Q 2606 2309 2336 2618 
Q 2066 2928 1684 2928 
Q 1309 2928 1046 2623 
Q 784 2319 784 1719 
z
" transform="scale(0.015625)"/>
       <path id="ArialMT-20" transform="scale(0.015625)"/>
       <path id="ArialMT-4b" d="M 469 0 
L 469 4581 
L 1075 4581 
L 1075 2309 
L 3350 4581 
L 4172 4581 
L 2250 2725 
L 4256 0 
L 3456 0 
L 1825 2319 
L 1075 1588 
L 1075 0 
L 469 0 
z
" transform="scale(0.015625)"/>
       <path id="ArialMT-4c" d="M 469 0 
L 469 4581 
L 1075 4581 
L 1075 541 
L 3331 541 
L 3331 0 
L 469 0 
z
" transform="scale(0.015625)"/>
       <path id="ArialMT-69" d="M 425 3934 
L 425 4581 
L 988 4581 
L 988 3934 
L 425 3934 
z
M 425 0 
L 425 3319 
L 988 3319 
L 988 0 
L 425 0 
z
" transform="scale(0.015625)"/>
       <path id="ArialMT-65" d="M 2694 1069 
L 3275 997 
Q 3138 488 2766 206 
Q 2394 -75 1816 -75 
Q 1088 -75 661 373 
Q 234 822 234 1631 
Q 234 2469 665 2931 
Q 1097 3394 1784 3394 
Q 2450 3394 2872 2941 
Q 3294 2488 3294 1666 
Q 3294 1616 3291 1516 
L 816 1516 
Q 847 969 1125 678 
Q 1403 388 1819 388 
Q 2128 388 2347 550 
Q 2566 713 2694 1069 
z
M 847 1978 
L 2700 1978 
Q 2663 2397 2488 2606 
Q 2219 2931 1791 2931 
Q 1403 2931 1139 2672 
Q 875 2413 847 1978 
z
" transform="scale(0.015625)"/>
       <path id="ArialMT-61" d="M 2588 409 
Q 2275 144 1986 34 
Q 1697 -75 1366 -75 
Q 819 -75 525 192 
Q 231 459 231 875 
Q 231 1119 342 1320 
Q 453 1522 633 1644 
Q 813 1766 1038 1828 
Q 1203 1872 1538 1913 
Q 2219 1994 2541 2106 
Q 2544 2222 2544 2253 
Q 2544 2597 2384 2738 
Q 2169 2928 1744 2928 
Q 1347 2928 1158 2789 
Q 969 2650 878 2297 
L 328 2372 
Q 403 2725 575 2942 
Q 747 3159 1072 3276 
Q 1397 3394 1825 3394 
Q 2250 3394 2515 3294 
Q 2781 3194 2906 3042 
Q 3031 2891 3081 2659 
Q 3109 2516 3109 2141 
L 3109 1391 
Q 3109 606 3145 398 
Q 3181 191 3288 0 
L 2700 0 
Q 2613 175 2588 409 
z
M 2541 1666 
Q 2234 1541 1622 1453 
Q 1275 1403 1131 1340 
Q 988 1278 909 1158 
Q 831 1038 831 891 
Q 831 666 1001 516 
Q 1172 366 1500 366 
Q 1825 366 2078 508 
Q 2331 650 2450 897 
Q 2541 1088 2541 1459 
L 2541 1666 
z
" transform="scale(0.015625)"/>
       <path id="ArialMT-72" d="M 416 0 
L 416 3319 
L 922 3319 
L 922 2816 
Q 1116 3169 1280 3281 
Q 1444 3394 1641 3394 
Q 1925 3394 2219 3213 
L 2025 2691 
Q 1819 2813 1613 2813 
Q 1428 2813 1281 2702 
Q 1134 2591 1072 2394 
Q 978 2094 978 1738 
L 978 0 
L 416 0 
z
" transform="scale(0.015625)"/>
      </defs>
      <use xlink:href="#ArialMT-48"/>
      <use xlink:href="#ArialMT-6f" transform="translate(72.216797 0)"/>
      <use xlink:href="#ArialMT-6e" transform="translate(127.832031 0)"/>
      <use xlink:href="#ArialMT-67" transform="translate(183.447266 0)"/>
      <use xlink:href="#ArialMT-20" transform="translate(239.0625 0)"/>
      <use xlink:href="#ArialMT-4b" transform="translate(266.845703 0)"/>
      <use xlink:href="#ArialMT-6f" transform="translate(333.544922 0)"/>
      <use xlink:href="#ArialMT-6e" transform="translate(389.160156 0)"/>
      <use xlink:href="#ArialMT-67" transform="translate(444.775391 0)"/>
      <use xlink:href="#ArialMT-20" transform="translate(500.390625 0)"/>
      <use xlink:href="#ArialMT-4c" transform="translate(528.173828 0)"/>
      <use xlink:href="#ArialMT-69" transform="translate(583.789062 0)"/>
      <use xlink:href="#ArialMT-6e" transform="translate(606.005859 0)"/>
      <use xlink:href="#ArialMT-65" transform="translate(661.621094 0)"/>
      <use xlink:href="#ArialMT-61" transform="translate(717.236328 0)"/>
      <use xlink:href="#ArialMT-72" transform="translate(772.851562 0)"/>
     </g>
    </g>
    <g id="patch_18">
     <path d="M 239.981797 84.41065 
L 253.281797 84.41065 
L 253.281797 77.76065 
L 239.981797 77.76065 
z
" style="fill: #6fb1d0; stroke: #000000; stroke-width: 0.7; stroke-linejoin: miter"/>
    </g>
    <g id="text_26">
     <!-- Hong Kong V7 -->
     <g transform="translate(258.031797 84.41065) scale(0.095 -0.095)">
      <defs>
       <path id="ArialMT-56" d="M 1803 0 
L 28 4581 
L 684 4581 
L 1875 1253 
Q 2019 853 2116 503 
Q 2222 878 2363 1253 
L 3600 4581 
L 4219 4581 
L 2425 0 
L 1803 0 
z
" transform="scale(0.015625)"/>
      </defs>
      <use xlink:href="#ArialMT-48"/>
      <use xlink:href="#ArialMT-6f" transform="translate(72.216797 0)"/>
      <use xlink:href="#ArialMT-6e" transform="translate(127.832031 0)"/>
      <use xlink:href="#ArialMT-67" transform="translate(183.447266 0)"/>
      <use xlink:href="#ArialMT-20" transform="translate(239.0625 0)"/>
      <use xlink:href="#ArialMT-4b" transform="translate(266.845703 0)"/>
      <use xlink:href="#ArialMT-6f" transform="translate(333.544922 0)"/>
      <use xlink:href="#ArialMT-6e" transform="translate(389.160156 0)"/>
      <use xlink:href="#ArialMT-67" transform="translate(444.775391 0)"/>
      <use xlink:href="#ArialMT-20" transform="translate(500.390625 0)"/>
      <use xlink:href="#ArialMT-56" transform="translate(528.173828 0)"/>
      <use xlink:href="#ArialMT-37" transform="translate(594.873047 0)"/>
     </g>
    </g>
    <g id="patch_19">
     <path d="M 329.324844 84.41065 
L 342.624844 84.41065 
L 342.624844 77.76065 
L 329.324844 77.76065 
z
" style="fill: #d95f4c; stroke: #000000; stroke-width: 0.7; stroke-linejoin: miter"/>
    </g>
    <g id="text_27">
     <!-- France Linear -->
     <g transform="translate(347.374844 84.41065) scale(0.095 -0.095)">
      <defs>
       <path id="ArialMT-46" d="M 525 0 
L 525 4581 
L 3616 4581 
L 3616 4041 
L 1131 4041 
L 1131 2622 
L 3281 2622 
L 3281 2081 
L 1131 2081 
L 1131 0 
L 525 0 
z
" transform="scale(0.015625)"/>
       <path id="ArialMT-63" d="M 2588 1216 
L 3141 1144 
Q 3050 572 2676 248 
Q 2303 -75 1759 -75 
Q 1078 -75 664 370 
Q 250 816 250 1647 
Q 250 2184 428 2587 
Q 606 2991 970 3192 
Q 1334 3394 1763 3394 
Q 2303 3394 2647 3120 
Q 2991 2847 3088 2344 
L 2541 2259 
Q 2463 2594 2264 2762 
Q 2066 2931 1784 2931 
Q 1359 2931 1093 2626 
Q 828 2322 828 1663 
Q 828 994 1084 691 
Q 1341 388 1753 388 
Q 2084 388 2306 591 
Q 2528 794 2588 1216 
z
" transform="scale(0.015625)"/>
      </defs>
      <use xlink:href="#ArialMT-46"/>
      <use xlink:href="#ArialMT-72" transform="translate(61.083984 0)"/>
      <use xlink:href="#ArialMT-61" transform="translate(94.384766 0)"/>
      <use xlink:href="#ArialMT-6e" transform="translate(150 0)"/>
      <use xlink:href="#ArialMT-63" transform="translate(205.615234 0)"/>
      <use xlink:href="#ArialMT-65" transform="translate(255.615234 0)"/>
      <use xlink:href="#ArialMT-20" transform="translate(311.230469 0)"/>
      <use xlink:href="#ArialMT-4c" transform="translate(339.013672 0)"/>
      <use xlink:href="#ArialMT-69" transform="translate(394.628906 0)"/>
      <use xlink:href="#ArialMT-6e" transform="translate(416.845703 0)"/>
      <use xlink:href="#ArialMT-65" transform="translate(472.460938 0)"/>
      <use xlink:href="#ArialMT-61" transform="translate(528.076172 0)"/>
      <use xlink:href="#ArialMT-72" transform="translate(583.691406 0)"/>
     </g>
    </g>
    <g id="patch_20">
     <path d="M 415.483906 84.41065 
L 428.783906 84.41065 
L 428.783906 77.76065 
L 415.483906 77.76065 
z
" style="fill: #f4a261; stroke: #000000; stroke-width: 0.7; stroke-linejoin: miter"/>
    </g>
    <g id="text_28">
     <!-- France V7 -->
     <g transform="translate(433.533906 84.41065) scale(0.095 -0.095)">
      <use xlink:href="#ArialMT-46"/>
      <use xlink:href="#ArialMT-72" transform="translate(61.083984 0)"/>
      <use xlink:href="#ArialMT-61" transform="translate(94.384766 0)"/>
      <use xlink:href="#ArialMT-6e" transform="translate(150 0)"/>
      <use xlink:href="#ArialMT-63" transform="translate(205.615234 0)"/>
      <use xlink:href="#ArialMT-65" transform="translate(255.615234 0)"/>
      <use xlink:href="#ArialMT-20" transform="translate(311.230469 0)"/>
      <use xlink:href="#ArialMT-56" transform="translate(339.013672 0)"/>
      <use xlink:href="#ArialMT-37" transform="translate(405.712891 0)"/>
     </g>
    </g>
   </g>
  </g>
  <g id="text_29">
   <!-- Figure 6.  Model Performance Comparison: Linear Regression vs. V7 Ensemble -->
   <g style="fill: #111111" transform="translate(81.09 19.887656) scale(0.11 -0.11)">
    <defs>
     <path id="Arial-BoldMT-46" d="M 472 0 
L 472 4581 
L 3613 4581 
L 3613 3806 
L 1397 3806 
L 1397 2722 
L 3309 2722 
L 3309 1947 
L 1397 1947 
L 1397 0 
L 472 0 
z
" transform="scale(0.015625)"/>
     <path id="Arial-BoldMT-67" d="M 378 -219 
L 1381 -341 
Q 1406 -516 1497 -581 
Q 1622 -675 1891 -675 
Q 2234 -675 2406 -572 
Q 2522 -503 2581 -350 
Q 2622 -241 2622 53 
L 2622 538 
Q 2228 0 1628 0 
Q 959 0 569 566 
Q 263 1013 263 1678 
Q 263 2513 664 2953 
Q 1066 3394 1663 3394 
Q 2278 3394 2678 2853 
L 2678 3319 
L 3500 3319 
L 3500 341 
Q 3500 -247 3403 -537 
Q 3306 -828 3131 -993 
Q 2956 -1159 2664 -1253 
Q 2372 -1347 1925 -1347 
Q 1081 -1347 728 -1058 
Q 375 -769 375 -325 
Q 375 -281 378 -219 
z
M 1163 1728 
Q 1163 1200 1367 954 
Q 1572 709 1872 709 
Q 2194 709 2416 961 
Q 2638 1213 2638 1706 
Q 2638 2222 2425 2472 
Q 2213 2722 1888 2722 
Q 1572 2722 1367 2476 
Q 1163 2231 1163 1728 
z
" transform="scale(0.015625)"/>
     <path id="Arial-BoldMT-36" d="M 3247 3459 
L 2397 3366 
Q 2366 3628 2234 3753 
Q 2103 3878 1894 3878 
Q 1616 3878 1423 3628 
Q 1231 3378 1181 2588 
Q 1509 2975 1997 2975 
Q 2547 2975 2939 2556 
Q 3331 2138 3331 1475 
Q 3331 772 2918 347 
Q 2506 -78 1859 -78 
Q 1166 -78 719 461 
Q 272 1000 272 2228 
Q 272 3488 737 4044 
Q 1203 4600 1947 4600 
Q 2469 4600 2811 4308 
Q 3153 4016 3247 3459 
z
M 1256 1544 
Q 1256 1116 1453 883 
Q 1650 650 1903 650 
Q 2147 650 2309 840 
Q 2472 1031 2472 1466 
Q 2472 1913 2297 2120 
Q 2122 2328 1859 2328 
Q 1606 2328 1431 2129 
Q 1256 1931 1256 1544 
z
" transform="scale(0.015625)"/>
     <path id="Arial-BoldMT-2e" d="M 459 0 
L 459 878 
L 1338 878 
L 1338 0 
L 459 0 
z
" transform="scale(0.015625)"/>
     <path id="Arial-BoldMT-64" d="M 3503 0 
L 2688 0 
L 2688 488 
Q 2484 203 2207 64 
Q 1931 -75 1650 -75 
Q 1078 -75 670 386 
Q 263 847 263 1672 
Q 263 2516 659 2955 
Q 1056 3394 1663 3394 
Q 2219 3394 2625 2931 
L 2625 4581 
L 3503 4581 
L 3503 0 
z
M 1159 1731 
Q 1159 1200 1306 963 
Q 1519 619 1900 619 
Q 2203 619 2415 876 
Q 2628 1134 2628 1647 
Q 2628 2219 2422 2470 
Q 2216 2722 1894 2722 
Q 1581 2722 1370 2473 
Q 1159 2225 1159 1731 
z
" transform="scale(0.015625)"/>
     <path id="Arial-BoldMT-43" d="M 3397 1684 
L 4294 1400 
Q 4088 650 3608 286 
Q 3128 -78 2391 -78 
Q 1478 -78 890 545 
Q 303 1169 303 2250 
Q 303 3394 893 4026 
Q 1484 4659 2447 4659 
Q 3288 4659 3813 4163 
Q 4125 3869 4281 3319 
L 3366 3100 
Q 3284 3456 3026 3662 
Q 2769 3869 2400 3869 
Q 1891 3869 1573 3503 
Q 1256 3138 1256 2319 
Q 1256 1450 1568 1081 
Q 1881 713 2381 713 
Q 2750 713 3015 947 
Q 3281 1181 3397 1684 
z
" transform="scale(0.015625)"/>
     <path id="Arial-BoldMT-70" d="M 434 3319 
L 1253 3319 
L 1253 2831 
Q 1413 3081 1684 3237 
Q 1956 3394 2288 3394 
Q 2866 3394 3269 2941 
Q 3672 2488 3672 1678 
Q 3672 847 3265 386 
Q 2859 -75 2281 -75 
Q 2006 -75 1782 34 
Q 1559 144 1313 409 
L 1313 -1263 
L 434 -1263 
L 434 3319 
z
M 1303 1716 
Q 1303 1156 1525 889 
Q 1747 622 2066 622 
Q 2372 622 2575 867 
Q 2778 1113 2778 1672 
Q 2778 2194 2568 2447 
Q 2359 2700 2050 2700 
Q 1728 2700 1515 2451 
Q 1303 2203 1303 1716 
z
" transform="scale(0.015625)"/>
     <path id="Arial-BoldMT-73" d="M 150 947 
L 1031 1081 
Q 1088 825 1259 692 
Q 1431 559 1741 559 
Q 2081 559 2253 684 
Q 2369 772 2369 919 
Q 2369 1019 2306 1084 
Q 2241 1147 2013 1200 
Q 950 1434 666 1628 
Q 272 1897 272 2375 
Q 272 2806 612 3100 
Q 953 3394 1669 3394 
Q 2350 3394 2681 3172 
Q 3013 2950 3138 2516 
L 2309 2363 
Q 2256 2556 2107 2659 
Q 1959 2763 1684 2763 
Q 1338 2763 1188 2666 
Q 1088 2597 1088 2488 
Q 1088 2394 1175 2328 
Q 1294 2241 1995 2081 
Q 2697 1922 2975 1691 
Q 3250 1456 3250 1038 
Q 3250 581 2869 253 
Q 2488 -75 1741 -75 
Q 1063 -75 667 200 
Q 272 475 150 947 
z
" transform="scale(0.015625)"/>
     <path id="Arial-BoldMT-3a" d="M 628 2441 
L 628 3319 
L 1506 3319 
L 1506 2441 
L 628 2441 
z
M 628 0 
L 628 878 
L 1506 878 
L 1506 0 
L 628 0 
z
" transform="scale(0.015625)"/>
     <path id="Arial-BoldMT-4c" d="M 491 0 
L 491 4544 
L 1416 4544 
L 1416 772 
L 3716 772 
L 3716 0 
L 491 0 
z
" transform="scale(0.015625)"/>
     <path id="Arial-BoldMT-76" d="M 1372 0 
L 34 3319 
L 956 3319 
L 1581 1625 
L 1763 1059 
Q 1834 1275 1853 1344 
Q 1897 1484 1947 1625 
L 2578 3319 
L 3481 3319 
L 2163 0 
L 1372 0 
z
" transform="scale(0.015625)"/>
     <path id="Arial-BoldMT-37" d="M 272 3703 
L 272 4519 
L 3275 4519 
L 3275 3881 
Q 2903 3516 2518 2831 
Q 2134 2147 1932 1376 
Q 1731 606 1734 0 
L 888 0 
Q 909 950 1279 1937 
Q 1650 2925 2269 3703 
L 272 3703 
z
" transform="scale(0.015625)"/>
     <path id="Arial-BoldMT-62" d="M 422 0 
L 422 4581 
L 1300 4581 
L 1300 2931 
Q 1706 3394 2263 3394 
Q 2869 3394 3266 2955 
Q 3663 2516 3663 1694 
Q 3663 844 3258 384 
Q 2853 -75 2275 -75 
Q 1991 -75 1714 67 
Q 1438 209 1238 488 
L 1238 0 
L 422 0 
z
M 1294 1731 
Q 1294 1216 1456 969 
Q 1684 619 2063 619 
Q 2353 619 2558 867 
Q 2763 1116 2763 1650 
Q 2763 2219 2556 2470 
Q 2350 2722 2028 2722 
Q 1713 2722 1503 2476 
Q 1294 2231 1294 1731 
z
" transform="scale(0.015625)"/>
    </defs>
    <use xlink:href="#Arial-BoldMT-46"/>
    <use xlink:href="#Arial-BoldMT-69" transform="translate(61.083984 0)"/>
    <use xlink:href="#Arial-BoldMT-67" transform="translate(88.867188 0)"/>
    <use xlink:href="#Arial-BoldMT-75" transform="translate(149.951172 0)"/>
    <use xlink:href="#Arial-BoldMT-72" transform="translate(211.035156 0)"/>
    <use xlink:href="#Arial-BoldMT-65" transform="translate(249.951172 0)"/>
    <use xlink:href="#Arial-BoldMT-20" transform="translate(305.566406 0)"/>
    <use xlink:href="#Arial-BoldMT-36" transform="translate(333.349609 0)"/>
    <use xlink:href="#Arial-BoldMT-2e" transform="translate(388.964844 0)"/>
    <use xlink:href="#Arial-BoldMT-20" transform="translate(416.748047 0)"/>
    <use xlink:href="#Arial-BoldMT-20" transform="translate(444.53125 0)"/>
    <use xlink:href="#Arial-BoldMT-4d" transform="translate(472.314453 0)"/>
    <use xlink:href="#Arial-BoldMT-6f" transform="translate(555.615234 0)"/>
    <use xlink:href="#Arial-BoldMT-64" transform="translate(616.699219 0)"/>
    <use xlink:href="#Arial-BoldMT-65" transform="translate(677.783203 0)"/>
    <use xlink:href="#Arial-BoldMT-6c" transform="translate(733.398438 0)"/>
    <use xlink:href="#Arial-BoldMT-20" transform="translate(761.181641 0)"/>
    <use xlink:href="#Arial-BoldMT-50" transform="translate(788.964844 0)"/>
    <use xlink:href="#Arial-BoldMT-65" transform="translate(855.664062 0)"/>
    <use xlink:href="#Arial-BoldMT-72" transform="translate(911.279297 0)"/>
    <use xlink:href="#Arial-BoldMT-66" transform="translate(950.195312 0)"/>
    <use xlink:href="#Arial-BoldMT-6f" transform="translate(983.496094 0)"/>
    <use xlink:href="#Arial-BoldMT-72" transform="translate(1044.580078 0)"/>
    <use xlink:href="#Arial-BoldMT-6d" transform="translate(1083.496094 0)"/>
    <use xlink:href="#Arial-BoldMT-61" transform="translate(1172.412109 0)"/>
    <use xlink:href="#Arial-BoldMT-6e" transform="translate(1228.027344 0)"/>
    <use xlink:href="#Arial-BoldMT-63" transform="translate(1289.111328 0)"/>
    <use xlink:href="#Arial-BoldMT-65" transform="translate(1344.726562 0)"/>
    <use xlink:href="#Arial-BoldMT-20" transform="translate(1400.341797 0)"/>
    <use xlink:href="#Arial-BoldMT-43" transform="translate(1428.125 0)"/>
    <use xlink:href="#Arial-BoldMT-6f" transform="translate(1500.341797 0)"/>
    <use xlink:href="#Arial-BoldMT-6d" transform="translate(1561.425781 0)"/>
    <use xlink:href="#Arial-BoldMT-70" transform="translate(1650.341797 0)"/>
    <use xlink:href="#Arial-BoldMT-61" transform="translate(1711.425781 0)"/>
    <use xlink:href="#Arial-BoldMT-72" transform="translate(1767.041016 0)"/>
    <use xlink:href="#Arial-BoldMT-69" transform="translate(1805.957031 0)"/>
    <use xlink:href="#Arial-BoldMT-73" transform="translate(1833.740234 0)"/>
    <use xlink:href="#Arial-BoldMT-6f" transform="translate(1889.355469 0)"/>
    <use xlink:href="#Arial-BoldMT-6e" transform="translate(1950.439453 0)"/>
    <use xlink:href="#Arial-BoldMT-3a" transform="translate(2011.523438 0)"/>
    <use xlink:href="#Arial-BoldMT-20" transform="translate(2044.824219 0)"/>
    <use xlink:href="#Arial-BoldMT-4c" transform="translate(2072.607422 0)"/>
    <use xlink:href="#Arial-BoldMT-69" transform="translate(2133.691406 0)"/>
    <use xlink:href="#Arial-BoldMT-6e" transform="translate(2161.474609 0)"/>
    <use xlink:href="#Arial-BoldMT-65" transform="translate(2222.558594 0)"/>
    <use xlink:href="#Arial-BoldMT-61" transform="translate(2278.173828 0)"/>
    <use xlink:href="#Arial-BoldMT-72" transform="translate(2333.789062 0)"/>
    <use xlink:href="#Arial-BoldMT-20" transform="translate(2372.705078 0)"/>
    <use xlink:href="#Arial-BoldMT-52" transform="translate(2400.488281 0)"/>
    <use xlink:href="#Arial-BoldMT-65" transform="translate(2472.705078 0)"/>
    <use xlink:href="#Arial-BoldMT-67" transform="translate(2528.320312 0)"/>
    <use xlink:href="#Arial-BoldMT-72" transform="translate(2589.404297 0)"/>
    <use xlink:href="#Arial-BoldMT-65" transform="translate(2628.320312 0)"/>
    <use xlink:href="#Arial-BoldMT-73" transform="translate(2683.935547 0)"/>
    <use xlink:href="#Arial-BoldMT-73" transform="translate(2739.550781 0)"/>
    <use xlink:href="#Arial-BoldMT-69" transform="translate(2795.166016 0)"/>
    <use xlink:href="#Arial-BoldMT-6f" transform="translate(2822.949219 0)"/>
    <use xlink:href="#Arial-BoldMT-6e" transform="translate(2884.033203 0)"/>
    <use xlink:href="#Arial-BoldMT-20" transform="translate(2945.117188 0)"/>
    <use xlink:href="#Arial-BoldMT-76" transform="translate(2972.900391 0)"/>
    <use xlink:href="#Arial-BoldMT-73" transform="translate(3028.515625 0)"/>
    <use xlink:href="#Arial-BoldMT-2e" transform="translate(3084.130859 0)"/>
    <use xlink:href="#Arial-BoldMT-20" transform="translate(3111.914062 0)"/>
    <use xlink:href="#Arial-BoldMT-56" transform="translate(3139.697266 0)"/>
    <use xlink:href="#Arial-BoldMT-37" transform="translate(3206.396484 0)"/>
    <use xlink:href="#Arial-BoldMT-20" transform="translate(3262.011719 0)"/>
    <use xlink:href="#Arial-BoldMT-45" transform="translate(3289.794922 0)"/>
    <use xlink:href="#Arial-BoldMT-6e" transform="translate(3356.494141 0)"/>
    <use xlink:href="#Arial-BoldMT-73" transform="translate(3417.578125 0)"/>
    <use xlink:href="#Arial-BoldMT-65" transform="translate(3473.193359 0)"/>
    <use xlink:href="#Arial-BoldMT-6d" transform="translate(3528.808594 0)"/>
    <use xlink:href="#Arial-BoldMT-62" transform="translate(3617.724609 0)"/>
    <use xlink:href="#Arial-BoldMT-6c" transform="translate(3678.808594 0)"/>
    <use xlink:href="#Arial-BoldMT-65" transform="translate(3706.591797 0)"/>
   </g>
  </g>
  <g id="text_30">
   <!-- Note. R² = coefficient of determination; RMSE = root mean square error; MAE = mean absolute error. -->
   <g style="fill: #333333" transform="translate(86.963906 372.718687) scale(0.09 -0.09)">
    <defs>
     <path id="Arial-ItalicMT-4e" d="M 313 0 
L 1272 4581 
L 1866 4581 
L 2638 2863 
Q 2991 2075 3197 1538 
Q 3316 1225 3472 694 
Q 3556 1272 3684 1888 
L 4247 4581 
L 4844 4581 
L 3888 0 
L 3281 0 
L 2144 2647 
Q 1841 3347 1672 3881 
Q 1625 3434 1491 2784 
L 909 0 
L 313 0 
z
" transform="scale(0.015625)"/>
     <path id="Arial-ItalicMT-6f" d="M 313 1259 
Q 313 2231 884 2869 
Q 1356 3394 2122 3394 
Q 2722 3394 3089 3019 
Q 3456 2644 3456 2006 
Q 3456 1434 3225 942 
Q 2994 450 2567 187 
Q 2141 -75 1669 -75 
Q 1281 -75 964 90 
Q 647 256 480 559 
Q 313 863 313 1259 
z
M 878 1316 
Q 878 847 1103 605 
Q 1328 363 1675 363 
Q 1856 363 2034 436 
Q 2213 509 2366 659 
Q 2519 809 2626 1001 
Q 2734 1194 2800 1416 
Q 2897 1725 2897 2009 
Q 2897 2459 2670 2707 
Q 2444 2956 2100 2956 
Q 1834 2956 1615 2829 
Q 1397 2703 1220 2459 
Q 1044 2216 961 1892 
Q 878 1569 878 1316 
z
" transform="scale(0.015625)"/>
     <path id="Arial-ItalicMT-74" d="M 1534 459 
L 1441 -3 
Q 1238 -56 1047 -56 
Q 709 -56 509 109 
Q 359 234 359 450 
Q 359 559 441 953 
L 844 2881 
L 397 2881 
L 488 3319 
L 934 3319 
L 1106 4134 
L 1753 4525 
L 1500 3319 
L 2056 3319 
L 1963 2881 
L 1409 2881 
L 1025 1047 
Q 953 697 953 628 
Q 953 528 1011 475 
Q 1069 422 1200 422 
Q 1388 422 1534 459 
z
" transform="scale(0.015625)"/>
     <path id="Arial-ItalicMT-65" d="M 2650 1128 
L 3200 1072 
Q 3081 663 2654 294 
Q 2228 -75 1638 -75 
Q 1269 -75 961 95 
Q 653 266 492 591 
Q 331 916 331 1331 
Q 331 1875 582 2386 
Q 834 2897 1234 3145 
Q 1634 3394 2100 3394 
Q 2694 3394 3048 3025 
Q 3403 2656 3403 2019 
Q 3403 1775 3359 1519 
L 916 1519 
Q 903 1422 903 1344 
Q 903 878 1117 633 
Q 1331 388 1641 388 
Q 1931 388 2212 578 
Q 2494 769 2650 1128 
z
M 1006 1950 
L 2869 1950 
Q 2872 2038 2872 2075 
Q 2872 2500 2659 2726 
Q 2447 2953 2113 2953 
Q 1750 2953 1451 2703 
Q 1153 2453 1006 1950 
z
" transform="scale(0.015625)"/>
     <path id="Arial-ItalicMT-2e" d="M 369 0 
L 503 641 
L 1144 641 
L 1006 0 
L 369 0 
z
" transform="scale(0.015625)"/>
     <path id="Arial-ItalicMT-20" transform="scale(0.015625)"/>
     <path id="Arial-ItalicMT-52" d="M 300 0 
L 1259 4581 
L 3181 4581 
Q 3750 4581 4044 4486 
Q 4338 4391 4505 4128 
Q 4672 3866 4672 3466 
Q 4672 2906 4306 2537 
Q 3941 2169 3125 2059 
Q 3375 1875 3503 1697 
Q 3791 1294 3966 863 
L 4316 0 
L 3631 0 
L 3303 853 
Q 3125 1316 2897 1653 
Q 2741 1888 2578 1961 
Q 2416 2034 2050 2034 
L 1338 2034 
L 913 0 
L 300 0 
z
M 1441 2531 
L 2288 2531 
Q 2875 2531 3053 2547 
Q 3400 2581 3622 2703 
Q 3844 2825 3966 3031 
Q 4088 3238 4088 3475 
Q 4088 3675 3997 3823 
Q 3906 3972 3759 4025 
Q 3613 4078 3259 4078 
L 1766 4078 
L 1441 2531 
z
" transform="scale(0.015625)"/>
     <path id="Arial-ItalicMT-b2" d="M 475 2291 
Q 572 2616 809 2886 
Q 1047 3156 1594 3466 
Q 1909 3644 1984 3722 
Q 2094 3838 2094 3969 
Q 2094 4088 1995 4173 
Q 1897 4259 1706 4259 
Q 1481 4259 1359 4171 
Q 1238 4084 1178 3903 
L 700 3950 
Q 794 4284 1041 4461 
Q 1288 4638 1700 4638 
Q 2131 4638 2348 4448 
Q 2566 4259 2566 3981 
Q 2566 3728 2378 3516 
Q 2238 3363 1772 3081 
Q 1494 2916 1389 2834 
Q 1284 2753 1219 2669 
L 2403 2669 
L 2325 2291 
L 475 2291 
z
" transform="scale(0.015625)"/>
     <path id="Arial-ItalicMT-3d" d="M 3600 2694 
L 575 2694 
L 575 3219 
L 3600 3219 
L 3600 2694 
z
M 3600 1303 
L 575 1303 
L 575 1828 
L 3600 1828 
L 3600 1303 
z
" transform="scale(0.015625)"/>
     <path id="Arial-ItalicMT-63" d="M 2503 1209 
L 3069 1150 
Q 2856 528 2464 226 
Q 2072 -75 1572 -75 
Q 1031 -75 695 275 
Q 359 625 359 1253 
Q 359 1797 575 2322 
Q 791 2847 1192 3120 
Q 1594 3394 2109 3394 
Q 2644 3394 2956 3092 
Q 3269 2791 3269 2294 
L 2713 2256 
Q 2709 2572 2529 2750 
Q 2350 2928 2056 2928 
Q 1716 2928 1466 2712 
Q 1216 2497 1073 2058 
Q 931 1619 931 1213 
Q 931 788 1118 575 
Q 1306 363 1581 363 
Q 1856 363 2107 572 
Q 2359 781 2503 1209 
z
" transform="scale(0.015625)"/>
     <path id="Arial-ItalicMT-66" d="M 291 0 
L 894 2881 
L 388 2881 
L 478 3319 
L 984 3319 
L 1081 3791 
Q 1156 4144 1236 4300 
Q 1316 4456 1495 4557 
Q 1675 4659 1984 4659 
Q 2200 4659 2609 4569 
L 2506 4075 
Q 2219 4150 2025 4150 
Q 1859 4150 1773 4067 
Q 1688 3984 1625 3675 
L 1550 3319 
L 2181 3319 
L 2091 2881 
L 1459 2881 
L 856 0 
L 291 0 
z
" transform="scale(0.015625)"/>
     <path id="Arial-ItalicMT-69" d="M 1016 3941 
L 1150 4581 
L 1713 4581 
L 1578 3941 
L 1016 3941 
z
M 191 0 
L 884 3319 
L 1450 3319 
L 756 0 
L 191 0 
z
" transform="scale(0.015625)"/>
     <path id="Arial-ItalicMT-6e" d="M 213 0 
L 906 3319 
L 1419 3319 
L 1297 2741 
Q 1631 3081 1922 3237 
Q 2213 3394 2516 3394 
Q 2919 3394 3148 3175 
Q 3378 2956 3378 2591 
Q 3378 2406 3297 2009 
L 2875 0 
L 2309 0 
L 2750 2103 
Q 2816 2409 2816 2556 
Q 2816 2722 2702 2825 
Q 2588 2928 2372 2928 
Q 1938 2928 1598 2615 
Q 1259 2303 1100 1544 
L 778 0 
L 213 0 
z
" transform="scale(0.015625)"/>
     <path id="Arial-ItalicMT-64" d="M 2450 481 
Q 1966 -75 1438 -75 
Q 966 -75 652 273 
Q 338 622 338 1284 
Q 338 1891 586 2392 
Q 834 2894 1207 3144 
Q 1581 3394 1956 3394 
Q 2575 3394 2891 2797 
L 3266 4581 
L 3828 4581 
L 2872 0 
L 2350 0 
L 2450 481 
z
M 900 1391 
Q 900 1044 969 844 
Q 1038 644 1203 511 
Q 1369 378 1600 378 
Q 1984 378 2297 778 
Q 2716 1309 2716 2091 
Q 2716 2484 2509 2706 
Q 2303 2928 1991 2928 
Q 1788 2928 1620 2837 
Q 1453 2747 1289 2530 
Q 1125 2313 1012 1978 
Q 900 1644 900 1391 
z
" transform="scale(0.015625)"/>
     <path id="Arial-ItalicMT-72" d="M 213 0 
L 906 3319 
L 1406 3319 
L 1266 2641 
Q 1522 3025 1767 3209 
Q 2013 3394 2269 3394 
Q 2438 3394 2684 3272 
L 2453 2747 
Q 2306 2853 2131 2853 
Q 1834 2853 1521 2522 
Q 1209 2191 1031 1331 
L 750 0 
L 213 0 
z
" transform="scale(0.015625)"/>
     <path id="Arial-ItalicMT-6d" d="M 209 0 
L 903 3319 
L 1469 3319 
L 1353 2772 
Q 1669 3125 1917 3259 
Q 2166 3394 2456 3394 
Q 2766 3394 2973 3230 
Q 3181 3066 3247 2772 
Q 3500 3084 3779 3239 
Q 4059 3394 4369 3394 
Q 4784 3394 4992 3197 
Q 5200 3000 5200 2644 
Q 5200 2491 5128 2138 
L 4681 0 
L 4116 0 
L 4572 2194 
Q 4631 2463 4631 2578 
Q 4631 2741 4528 2834 
Q 4425 2928 4238 2928 
Q 3984 2928 3721 2775 
Q 3459 2622 3314 2373 
Q 3169 2125 3059 1609 
L 2722 0 
L 2156 0 
L 2625 2241 
Q 2675 2469 2675 2566 
Q 2675 2728 2573 2828 
Q 2472 2928 2309 2928 
Q 2069 2928 1805 2775 
Q 1541 2622 1375 2348 
Q 1209 2075 1103 1569 
L 775 0 
L 209 0 
z
" transform="scale(0.015625)"/>
     <path id="Arial-ItalicMT-61" d="M 2450 413 
Q 2156 159 1884 42 
Q 1613 -75 1303 -75 
Q 844 -75 562 195 
Q 281 466 281 888 
Q 281 1166 407 1380 
Q 534 1594 743 1723 
Q 953 1853 1256 1909 
Q 1447 1947 1980 1969 
Q 2513 1991 2744 2081 
Q 2809 2313 2809 2466 
Q 2809 2663 2666 2775 
Q 2469 2931 2091 2931 
Q 1734 2931 1507 2773 
Q 1281 2616 1178 2325 
L 606 2375 
Q 781 2869 1161 3131 
Q 1541 3394 2119 3394 
Q 2734 3394 3094 3100 
Q 3369 2881 3369 2531 
Q 3369 2266 3291 1916 
L 3106 1091 
Q 3019 697 3019 450 
Q 3019 294 3088 0 
L 2516 0 
Q 2469 163 2450 413 
z
M 2659 1681 
Q 2541 1634 2405 1609 
Q 2269 1584 1950 1556 
Q 1456 1513 1253 1445 
Q 1050 1378 947 1231 
Q 844 1084 844 906 
Q 844 669 1008 516 
Q 1172 363 1475 363 
Q 1756 363 2015 511 
Q 2275 659 2425 925 
Q 2575 1191 2659 1681 
z
" transform="scale(0.015625)"/>
     <path id="Arial-ItalicMT-3b" d="M 906 2678 
L 1041 3319 
L 1678 3319 
L 1544 2678 
L 906 2678 
z
M 347 0 
L 481 641 
L 1125 641 
L 1009 81 
Q 903 -422 679 -656 
Q 456 -891 153 -925 
L 206 -678 
Q 578 -575 697 0 
L 347 0 
z
" transform="scale(0.015625)"/>
     <path id="Arial-ItalicMT-4d" d="M 281 0 
L 1238 4581 
L 1991 4581 
L 2453 1613 
Q 2544 1028 2572 491 
Q 2763 953 3209 1744 
L 4816 4581 
L 5581 4581 
L 4625 0 
L 4022 0 
L 4500 2228 
Q 4666 3000 4975 3959 
Q 4778 3513 4488 2997 
L 2781 0 
L 2191 0 
L 1731 2938 
Q 1669 3341 1641 3878 
Q 1563 3275 1488 2922 
L 878 0 
L 281 0 
z
" transform="scale(0.015625)"/>
     <path id="Arial-ItalicMT-53" d="M 450 1481 
L 1050 1538 
L 1044 1378 
Q 1044 1113 1166 892 
Q 1288 672 1569 551 
Q 1850 431 2238 431 
Q 2788 431 3077 672 
Q 3366 913 3366 1222 
Q 3366 1438 3213 1616 
Q 3056 1791 2359 2091 
Q 1819 2325 1622 2450 
Q 1313 2653 1166 2892 
Q 1019 3131 1019 3438 
Q 1019 3791 1212 4075 
Q 1406 4359 1779 4509 
Q 2153 4659 2622 4659 
Q 3181 4659 3565 4471 
Q 3950 4284 4123 3971 
Q 4297 3659 4297 3375 
Q 4297 3347 4294 3281 
L 3703 3234 
Q 3703 3428 3669 3538 
Q 3606 3728 3475 3859 
Q 3344 3991 3114 4070 
Q 2884 4150 2600 4150 
Q 2100 4150 1822 3925 
Q 1609 3753 1609 3469 
Q 1609 3300 1696 3167 
Q 1784 3034 2013 2906 
Q 2175 2816 2784 2547 
Q 3278 2328 3466 2203 
Q 3716 2038 3850 1802 
Q 3984 1566 3984 1266 
Q 3984 894 3757 580 
Q 3531 266 3131 94 
Q 2731 -78 2216 -78 
Q 1438 -78 945 261 
Q 453 600 450 1481 
z
" transform="scale(0.015625)"/>
     <path id="Arial-ItalicMT-45" d="M 288 0 
L 1247 4581 
L 4553 4581 
L 4444 4059 
L 1750 4059 
L 1450 2634 
L 4075 2634 
L 3966 2113 
L 1341 2113 
L 1009 519 
L 3894 519 
L 3784 0 
L 288 0 
z
" transform="scale(0.015625)"/>
     <path id="Arial-ItalicMT-73" d="M 266 1134 
L 831 1169 
Q 831 925 906 753 
Q 981 581 1182 472 
Q 1384 363 1653 363 
Q 2028 363 2215 513 
Q 2403 663 2403 866 
Q 2403 1013 2291 1144 
Q 2175 1275 1726 1467 
Q 1278 1659 1153 1738 
Q 944 1866 837 2039 
Q 731 2213 731 2438 
Q 731 2831 1043 3112 
Q 1356 3394 1919 3394 
Q 2544 3394 2870 3105 
Q 3197 2816 3209 2344 
L 2656 2306 
Q 2644 2606 2444 2781 
Q 2244 2956 1878 2956 
Q 1584 2956 1421 2822 
Q 1259 2688 1259 2531 
Q 1259 2375 1400 2256 
Q 1494 2175 1884 2006 
Q 2534 1725 2703 1563 
Q 2972 1303 2972 931 
Q 2972 684 2820 446 
Q 2669 209 2358 67 
Q 2047 -75 1625 -75 
Q 1050 -75 647 209 
Q 244 494 266 1134 
z
" transform="scale(0.015625)"/>
     <path id="Arial-ItalicMT-71" d="M 2356 375 
Q 1872 -75 1428 -75 
Q 966 -75 647 276 
Q 328 628 328 1275 
Q 328 1894 570 2394 
Q 813 2894 1189 3144 
Q 1566 3394 1966 3394 
Q 2269 3394 2517 3223 
Q 2766 3053 2919 2709 
L 3047 3319 
L 3534 3319 
L 2578 -1272 
L 2013 -1272 
L 2356 375 
z
M 888 1350 
Q 888 859 1091 623 
Q 1294 388 1597 388 
Q 1853 388 2114 600 
Q 2375 813 2542 1238 
Q 2709 1663 2709 2059 
Q 2709 2466 2500 2697 
Q 2291 2928 1988 2928 
Q 1691 2928 1469 2734 
Q 1178 2484 1013 2013 
Q 888 1650 888 1350 
z
" transform="scale(0.015625)"/>
     <path id="Arial-ItalicMT-75" d="M 2478 600 
Q 1881 -75 1256 -75 
Q 872 -75 636 145 
Q 400 366 400 684 
Q 400 894 506 1403 
L 906 3319 
L 1472 3319 
L 1028 1197 
Q 972 931 972 784 
Q 972 597 1086 492 
Q 1200 388 1422 388 
Q 1659 388 1886 503 
Q 2113 619 2277 816 
Q 2441 1013 2544 1281 
Q 2613 1453 2703 1884 
L 3003 3319 
L 3569 3319 
L 2875 0 
L 2353 0 
L 2478 600 
z
" transform="scale(0.015625)"/>
     <path id="Arial-ItalicMT-41" d="M -128 0 
L 2469 4581 
L 3191 4581 
L 3947 0 
L 3353 0 
L 3131 1319 
L 1278 1319 
L 544 0 
L -128 0 
z
M 1541 1791 
L 3056 1791 
L 2878 2941 
Q 2775 3625 2750 4081 
Q 2594 3688 2294 3147 
L 1541 1791 
z
" transform="scale(0.015625)"/>
     <path id="Arial-ItalicMT-62" d="M 213 0 
L 1169 4581 
L 1734 4581 
L 1394 2944 
Q 1663 3191 1881 3292 
Q 2100 3394 2338 3394 
Q 2803 3394 3114 3047 
Q 3425 2700 3425 2038 
Q 3425 1597 3300 1231 
Q 3175 866 2990 617 
Q 2806 369 2609 220 
Q 2413 72 2206 -1 
Q 2000 -75 1809 -75 
Q 1481 -75 1231 98 
Q 981 272 841 628 
L 709 0 
L 213 0 
z
M 1050 1363 
L 1047 1256 
Q 1047 831 1250 609 
Q 1453 388 1756 388 
Q 2053 388 2301 595 
Q 2550 803 2709 1243 
Q 2869 1684 2869 2056 
Q 2869 2475 2667 2706 
Q 2466 2938 2169 2938 
Q 1863 2938 1606 2702 
Q 1350 2466 1178 1975 
Q 1050 1609 1050 1363 
z
" transform="scale(0.015625)"/>
     <path id="Arial-ItalicMT-6c" d="M 169 0 
L 1125 4581 
L 1691 4581 
L 734 0 
L 169 0 
z
" transform="scale(0.015625)"/>
    </defs>
    <use xlink:href="#Arial-ItalicMT-4e"/>
    <use xlink:href="#Arial-ItalicMT-6f" transform="translate(72.216797 0)"/>
    <use xlink:href="#Arial-ItalicMT-74" transform="translate(127.832031 0)"/>
    <use xlink:href="#Arial-ItalicMT-65" transform="translate(155.615234 0)"/>
    <use xlink:href="#Arial-ItalicMT-2e" transform="translate(211.230469 0)"/>
    <use xlink:href="#Arial-ItalicMT-20" transform="translate(239.013672 0)"/>
    <use xlink:href="#Arial-ItalicMT-52" transform="translate(266.796875 0)"/>
    <use xlink:href="#Arial-ItalicMT-b2" transform="translate(339.013672 0)"/>
    <use xlink:href="#Arial-ItalicMT-20" transform="translate(372.314453 0)"/>
    <use xlink:href="#Arial-ItalicMT-3d" transform="translate(400.097656 0)"/>
    <use xlink:href="#Arial-ItalicMT-20" transform="translate(458.496094 0)"/>
    <use xlink:href="#Arial-ItalicMT-63" transform="translate(486.279297 0)"/>
    <use xlink:href="#Arial-ItalicMT-6f" transform="translate(536.279297 0)"/>
    <use xlink:href="#Arial-ItalicMT-65" transform="translate(591.894531 0)"/>
    <use xlink:href="#Arial-ItalicMT-66" transform="translate(647.509766 0)"/>
    <use xlink:href="#Arial-ItalicMT-66" transform="translate(675.292969 0)"/>
    <use xlink:href="#Arial-ItalicMT-69" transform="translate(703.076172 0)"/>
    <use xlink:href="#Arial-ItalicMT-63" transform="translate(725.292969 0)"/>
    <use xlink:href="#Arial-ItalicMT-69" transform="translate(775.292969 0)"/>
    <use xlink:href="#Arial-ItalicMT-65" transform="translate(797.509766 0)"/>
    <use xlink:href="#Arial-ItalicMT-6e" transform="translate(853.125 0)"/>
    <use xlink:href="#Arial-ItalicMT-74" transform="translate(908.740234 0)"/>
    <use xlink:href="#Arial-ItalicMT-20" transform="translate(936.523438 0)"/>
    <use xlink:href="#Arial-ItalicMT-6f" transform="translate(964.306641 0)"/>
    <use xlink:href="#Arial-ItalicMT-66" transform="translate(1019.921875 0)"/>
    <use xlink:href="#Arial-ItalicMT-20" transform="translate(1047.705078 0)"/>
    <use xlink:href="#Arial-ItalicMT-64" transform="translate(1075.488281 0)"/>
    <use xlink:href="#Arial-ItalicMT-65" transform="translate(1131.103516 0)"/>
    <use xlink:href="#Arial-ItalicMT-74" transform="translate(1186.71875 0)"/>
    <use xlink:href="#Arial-ItalicMT-65" transform="translate(1214.501953 0)"/>
    <use xlink:href="#Arial-ItalicMT-72" transform="translate(1270.117188 0)"/>
    <use xlink:href="#Arial-ItalicMT-6d" transform="translate(1303.417969 0)"/>
    <use xlink:href="#Arial-ItalicMT-69" transform="translate(1386.71875 0)"/>
    <use xlink:href="#Arial-ItalicMT-6e" transform="translate(1408.935547 0)"/>
    <use xlink:href="#Arial-ItalicMT-61" transform="translate(1464.550781 0)"/>
    <use xlink:href="#Arial-ItalicMT-74" transform="translate(1520.166016 0)"/>
    <use xlink:href="#Arial-ItalicMT-69" transform="translate(1547.949219 0)"/>
    <use xlink:href="#Arial-ItalicMT-6f" transform="translate(1570.166016 0)"/>
    <use xlink:href="#Arial-ItalicMT-6e" transform="translate(1625.78125 0)"/>
    <use xlink:href="#Arial-ItalicMT-3b" transform="translate(1681.396484 0)"/>
    <use xlink:href="#Arial-ItalicMT-20" transform="translate(1709.179688 0)"/>
    <use xlink:href="#Arial-ItalicMT-52" transform="translate(1736.962891 0)"/>
    <use xlink:href="#Arial-ItalicMT-4d" transform="translate(1809.179688 0)"/>
    <use xlink:href="#Arial-ItalicMT-53" transform="translate(1892.480469 0)"/>
    <use xlink:href="#Arial-ItalicMT-45" transform="translate(1959.179688 0)"/>
    <use xlink:href="#Arial-ItalicMT-20" transform="translate(2025.878906 0)"/>
    <use xlink:href="#Arial-ItalicMT-3d" transform="translate(2053.662109 0)"/>
    <use xlink:href="#Arial-ItalicMT-20" transform="translate(2112.060547 0)"/>
    <use xlink:href="#Arial-ItalicMT-72" transform="translate(2139.84375 0)"/>
    <use xlink:href="#Arial-ItalicMT-6f" transform="translate(2173.144531 0)"/>
    <use xlink:href="#Arial-ItalicMT-6f" transform="translate(2228.759766 0)"/>
    <use xlink:href="#Arial-ItalicMT-74" transform="translate(2284.375 0)"/>
    <use xlink:href="#Arial-ItalicMT-20" transform="translate(2312.158203 0)"/>
    <use xlink:href="#Arial-ItalicMT-6d" transform="translate(2339.941406 0)"/>
    <use xlink:href="#Arial-ItalicMT-65" transform="translate(2423.242188 0)"/>
    <use xlink:href="#Arial-ItalicMT-61" transform="translate(2478.857422 0)"/>
    <use xlink:href="#Arial-ItalicMT-6e" transform="translate(2534.472656 0)"/>
    <use xlink:href="#Arial-ItalicMT-20" transform="translate(2590.087891 0)"/>
    <use xlink:href="#Arial-ItalicMT-73" transform="translate(2617.871094 0)"/>
    <use xlink:href="#Arial-ItalicMT-71" transform="translate(2667.871094 0)"/>
    <use xlink:href="#Arial-ItalicMT-75" transform="translate(2723.486328 0)"/>
    <use xlink:href="#Arial-ItalicMT-61" transform="translate(2779.101562 0)"/>
    <use xlink:href="#Arial-ItalicMT-72" transform="translate(2834.716797 0)"/>
    <use xlink:href="#Arial-ItalicMT-65" transform="translate(2868.017578 0)"/>
    <use xlink:href="#Arial-ItalicMT-20" transform="translate(2923.632812 0)"/>
    <use xlink:href="#Arial-ItalicMT-65" transform="translate(2951.416016 0)"/>
    <use xlink:href="#Arial-ItalicMT-72" transform="translate(3007.03125 0)"/>
    <use xlink:href="#Arial-ItalicMT-72" transform="translate(3040.332031 0)"/>
    <use xlink:href="#Arial-ItalicMT-6f" transform="translate(3073.632812 0)"/>
    <use xlink:href="#Arial-ItalicMT-72" transform="translate(3129.248047 0)"/>
    <use xlink:href="#Arial-ItalicMT-3b" transform="translate(3162.548828 0)"/>
    <use xlink:href="#Arial-ItalicMT-20" transform="translate(3190.332031 0)"/>
    <use xlink:href="#Arial-ItalicMT-4d" transform="translate(3218.115234 0)"/>
    <use xlink:href="#Arial-ItalicMT-41" transform="translate(3301.416016 0)"/>
    <use xlink:href="#Arial-ItalicMT-45" transform="translate(3368.115234 0)"/>
    <use xlink:href="#Arial-ItalicMT-20" transform="translate(3434.814453 0)"/>
    <use xlink:href="#Arial-ItalicMT-3d" transform="translate(3462.597656 0)"/>
    <use xlink:href="#Arial-ItalicMT-20" transform="translate(3520.996094 0)"/>
    <use xlink:href="#Arial-ItalicMT-6d" transform="translate(3548.779297 0)"/>
    <use xlink:href="#Arial-ItalicMT-65" transform="translate(3632.080078 0)"/>
    <use xlink:href="#Arial-ItalicMT-61" transform="translate(3687.695312 0)"/>
    <use xlink:href="#Arial-ItalicMT-6e" transform="translate(3743.310547 0)"/>
    <use xlink:href="#Arial-ItalicMT-20" transform="translate(3798.925781 0)"/>
    <use xlink:href="#Arial-ItalicMT-61" transform="translate(3826.708984 0)"/>
    <use xlink:href="#Arial-ItalicMT-62" transform="translate(3882.324219 0)"/>
    <use xlink:href="#Arial-ItalicMT-73" transform="translate(3937.939453 0)"/>
    <use xlink:href="#Arial-ItalicMT-6f" transform="translate(3987.939453 0)"/>
    <use xlink:href="#Arial-ItalicMT-6c" transform="translate(4043.554688 0)"/>
    <use xlink:href="#Arial-ItalicMT-75" transform="translate(4065.771484 0)"/>
    <use xlink:href="#Arial-ItalicMT-74" transform="translate(4121.386719 0)"/>
    <use xlink:href="#Arial-ItalicMT-65" transform="translate(4149.169922 0)"/>
    <use xlink:href="#Arial-ItalicMT-20" transform="translate(4204.785156 0)"/>
    <use xlink:href="#Arial-ItalicMT-65" transform="translate(4232.568359 0)"/>
    <use xlink:href="#Arial-ItalicMT-72" transform="translate(4288.183594 0)"/>
    <use xlink:href="#Arial-ItalicMT-72" transform="translate(4321.484375 0)"/>
    <use xlink:href="#Arial-ItalicMT-6f" transform="translate(4354.785156 0)"/>
    <use xlink:href="#Arial-ItalicMT-72" transform="translate(4410.400391 0)"/>
    <use xlink:href="#Arial-ItalicMT-2e" transform="translate(4439.951172 0)"/>
   </g>
   <!-- Hong Kong sample: N = 75; France sample: N = 249. The V7 ensemble consistently outperforms linear regression -->
   <g style="fill: #333333" transform="translate(60.898359 382.3695) scale(0.09 -0.09)">
    <defs>
     <path id="Arial-ItalicMT-48" d="M 269 0 
L 1228 4581 
L 1838 4581 
L 1441 2678 
L 3816 2678 
L 4213 4581 
L 4825 4581 
L 3869 0 
L 3256 0 
L 3706 2159 
L 1334 2159 
L 881 0 
L 269 0 
z
" transform="scale(0.015625)"/>
     <path id="Arial-ItalicMT-67" d="M 181 -300 
L 753 -353 
Q 747 -547 800 -644 
Q 853 -741 969 -794 
Q 1122 -863 1366 -863 
Q 1878 -863 2103 -597 
Q 2250 -419 2375 178 
L 2431 447 
Q 1991 0 1494 0 
Q 991 0 652 370 
Q 313 741 313 1419 
Q 313 1978 580 2447 
Q 847 2916 1215 3155 
Q 1584 3394 1975 3394 
Q 2628 3394 2981 2775 
L 3094 3319 
L 3613 3319 
L 2944 116 
Q 2834 -413 2656 -708 
Q 2478 -1003 2161 -1165 
Q 1844 -1328 1428 -1328 
Q 1028 -1328 739 -1225 
Q 450 -1122 308 -923 
Q 166 -725 166 -469 
Q 166 -391 181 -300 
z
M 888 1469 
Q 888 1128 953 956 
Q 1047 716 1220 589 
Q 1394 463 1606 463 
Q 1884 463 2159 658 
Q 2434 853 2604 1262 
Q 2775 1672 2775 2044 
Q 2775 2453 2548 2695 
Q 2322 2938 1988 2938 
Q 1781 2938 1587 2827 
Q 1394 2716 1226 2489 
Q 1059 2263 973 1947 
Q 888 1631 888 1469 
z
" transform="scale(0.015625)"/>
     <path id="Arial-ItalicMT-4b" d="M 284 0 
L 1241 4581 
L 1853 4581 
L 1394 2375 
L 3881 4581 
L 4744 4581 
L 2616 2716 
L 4175 0 
L 3491 0 
L 2169 2322 
L 1209 1488 
L 897 0 
L 284 0 
z
" transform="scale(0.015625)"/>
     <path id="Arial-ItalicMT-70" d="M -66 -1272 
L 894 3319 
L 1416 3319 
L 1319 2856 
Q 1609 3159 1839 3276 
Q 2069 3394 2325 3394 
Q 2800 3394 3112 3048 
Q 3425 2703 3425 2059 
Q 3425 1541 3253 1114 
Q 3081 688 2831 428 
Q 2581 169 2325 47 
Q 2069 -75 1800 -75 
Q 1203 -75 875 531 
L 500 -1272 
L -66 -1272 
z
M 1053 1356 
Q 1053 984 1106 841 
Q 1184 638 1362 513 
Q 1541 388 1775 388 
Q 2263 388 2563 936 
Q 2863 1484 2863 2056 
Q 2863 2478 2661 2708 
Q 2459 2938 2159 2938 
Q 1944 2938 1759 2823 
Q 1575 2709 1417 2482 
Q 1259 2256 1156 1928 
Q 1053 1600 1053 1356 
z
" transform="scale(0.015625)"/>
     <path id="Arial-ItalicMT-3a" d="M 925 2678 
L 1059 3319 
L 1697 3319 
L 1566 2678 
L 925 2678 
z
M 366 0 
L 500 641 
L 1141 641 
L 1003 0 
L 366 0 
z
" transform="scale(0.015625)"/>
     <path id="Arial-ItalicMT-37" d="M 928 0 
Q 1003 463 1247 1113 
Q 1538 1897 2009 2670 
Q 2481 3444 3059 4000 
L 775 4000 
L 884 4519 
L 3809 4519 
L 3703 4000 
Q 2959 3347 2403 2316 
Q 1756 1125 1519 0 
L 928 0 
z
" transform="scale(0.015625)"/>
     <path id="Arial-ItalicMT-35" d="M 447 1309 
L 1022 1366 
Q 1016 1244 1016 1219 
Q 1016 1013 1120 803 
Q 1225 594 1404 483 
Q 1584 372 1784 372 
Q 2047 372 2319 553 
Q 2591 734 2759 1081 
Q 2928 1428 2928 1769 
Q 2928 2153 2701 2384 
Q 2475 2616 2106 2616 
Q 1859 2616 1639 2497 
Q 1419 2378 1228 2141 
L 734 2175 
L 1425 4519 
L 3663 4519 
L 3553 4000 
L 1813 4000 
L 1469 2834 
Q 1663 2975 1867 3045 
Q 2072 3116 2288 3116 
Q 2813 3116 3150 2769 
Q 3488 2422 3488 1819 
Q 3488 1291 3256 845 
Q 3025 400 2620 161 
Q 2216 -78 1747 -78 
Q 1353 -78 1050 100 
Q 747 278 595 590 
Q 444 903 444 1216 
Q 444 1247 447 1309 
z
" transform="scale(0.015625)"/>
     <path id="Arial-ItalicMT-46" d="M 291 0 
L 1247 4581 
L 4225 4581 
L 4116 4059 
L 1750 4059 
L 1447 2600 
L 3856 2600 
L 3747 2078 
L 1338 2078 
L 903 0 
L 291 0 
z
" transform="scale(0.015625)"/>
     <path id="Arial-ItalicMT-32" d="M 375 0 
Q 463 409 617 686 
Q 772 963 1028 1211 
Q 1284 1459 2016 2044 
Q 2459 2397 2622 2566 
Q 2856 2809 2963 3044 
Q 3034 3203 3034 3391 
Q 3034 3706 2811 3926 
Q 2588 4147 2263 4147 
Q 1941 4147 1700 3923 
Q 1459 3700 1356 3206 
L 803 3288 
Q 884 3897 1276 4248 
Q 1669 4600 2253 4600 
Q 2644 4600 2961 4437 
Q 3278 4275 3437 3981 
Q 3597 3688 3597 3375 
Q 3597 2919 3272 2497 
Q 3072 2234 2097 1463 
Q 1678 1131 1473 918 
Q 1269 706 1166 519 
L 3216 519 
L 3106 0 
L 375 0 
z
" transform="scale(0.015625)"/>
     <path id="Arial-ItalicMT-34" d="M 1913 0 
L 2159 1169 
L 291 1169 
L 409 1728 
L 2975 4581 
L 3438 4581 
L 2828 1669 
L 3472 1669 
L 3369 1169 
L 2725 1169 
L 2478 0 
L 1913 0 
z
M 2263 1669 
L 2663 3581 
L 956 1669 
L 2263 1669 
z
" transform="scale(0.015625)"/>
     <path id="Arial-ItalicMT-39" d="M 431 1050 
L 963 1103 
Q 1016 719 1181 556 
Q 1347 394 1575 394 
Q 1900 394 2178 675 
Q 2588 1088 2781 1859 
Q 2497 1647 2276 1556 
Q 2056 1466 1825 1466 
Q 1406 1466 1075 1747 
Q 638 2113 638 2797 
Q 638 3572 1144 4125 
Q 1578 4600 2209 4600 
Q 2778 4600 3153 4179 
Q 3528 3759 3528 2991 
Q 3528 2244 3278 1516 
Q 2981 659 2475 253 
Q 2063 -78 1547 -78 
Q 1072 -78 770 217 
Q 469 513 431 1050 
z
M 1184 2863 
Q 1184 2431 1414 2175 
Q 1644 1919 1959 1919 
Q 2194 1919 2425 2078 
Q 2656 2238 2822 2555 
Q 2988 2872 2988 3206 
Q 2988 3469 2878 3694 
Q 2769 3919 2580 4033 
Q 2391 4147 2197 4147 
Q 2009 4147 1828 4047 
Q 1647 3947 1492 3753 
Q 1338 3559 1261 3307 
Q 1184 3056 1184 2863 
z
" transform="scale(0.015625)"/>
     <path id="Arial-ItalicMT-54" d="M 1453 0 
L 2300 4059 
L 797 4059 
L 906 4581 
L 4513 4581 
L 4403 4059 
L 2913 4059 
L 2066 0 
L 1453 0 
z
" transform="scale(0.015625)"/>
     <path id="Arial-ItalicMT-68" d="M 213 0 
L 1169 4581 
L 1734 4581 
L 1369 2822 
Q 1684 3128 1956 3261 
Q 2228 3394 2516 3394 
Q 2928 3394 3156 3176 
Q 3384 2959 3384 2603 
Q 3384 2428 3284 1959 
L 2875 0 
L 2309 0 
L 2731 2009 
Q 2822 2447 2822 2559 
Q 2822 2722 2709 2825 
Q 2597 2928 2384 2928 
Q 2078 2928 1800 2767 
Q 1522 2606 1364 2326 
Q 1206 2047 1075 1425 
L 778 0 
L 213 0 
z
" transform="scale(0.015625)"/>
     <path id="Arial-ItalicMT-56" d="M 1675 0 
L 794 4581 
L 1384 4581 
L 1916 1850 
Q 2063 1106 2106 650 
Q 2394 1238 2578 1581 
L 4213 4581 
L 4844 4581 
L 2331 0 
L 1675 0 
z
" transform="scale(0.015625)"/>
     <path id="Arial-ItalicMT-79" d="M 0 -1281 
L 34 -750 
Q 209 -800 375 -800 
Q 547 -800 653 -722 
Q 791 -619 953 -334 
L 1134 -9 
L 581 3319 
L 1138 3319 
L 1388 1641 
Q 1463 1144 1516 647 
L 3000 3319 
L 3591 3319 
L 1475 -441 
Q 1169 -991 931 -1169 
Q 694 -1347 384 -1347 
Q 188 -1347 0 -1281 
z
" transform="scale(0.015625)"/>
    </defs>
    <use xlink:href="#Arial-ItalicMT-48"/>
    <use xlink:href="#Arial-ItalicMT-6f" transform="translate(72.216797 0)"/>
    <use xlink:href="#Arial-ItalicMT-6e" transform="translate(127.832031 0)"/>
    <use xlink:href="#Arial-ItalicMT-67" transform="translate(183.447266 0)"/>
    <use xlink:href="#Arial-ItalicMT-20" transform="translate(239.0625 0)"/>
    <use xlink:href="#Arial-ItalicMT-4b" transform="translate(266.845703 0)"/>
    <use xlink:href="#Arial-ItalicMT-6f" transform="translate(333.544922 0)"/>
    <use xlink:href="#Arial-ItalicMT-6e" transform="translate(389.160156 0)"/>
    <use xlink:href="#Arial-ItalicMT-67" transform="translate(444.775391 0)"/>
    <use xlink:href="#Arial-ItalicMT-20" transform="translate(500.390625 0)"/>
    <use xlink:href="#Arial-ItalicMT-73" transform="translate(528.173828 0)"/>
    <use xlink:href="#Arial-ItalicMT-61" transform="translate(578.173828 0)"/>
    <use xlink:href="#Arial-ItalicMT-6d" transform="translate(633.789062 0)"/>
    <use xlink:href="#Arial-ItalicMT-70" transform="translate(717.089844 0)"/>
    <use xlink:href="#Arial-ItalicMT-6c" transform="translate(772.705078 0)"/>
    <use xlink:href="#Arial-ItalicMT-65" transform="translate(794.921875 0)"/>
    <use xlink:href="#Arial-ItalicMT-3a" transform="translate(850.537109 0)"/>
    <use xlink:href="#Arial-ItalicMT-20" transform="translate(878.320312 0)"/>
    <use xlink:href="#Arial-ItalicMT-4e" transform="translate(906.103516 0)"/>
    <use xlink:href="#Arial-ItalicMT-20" transform="translate(978.320312 0)"/>
    <use xlink:href="#Arial-ItalicMT-3d" transform="translate(1006.103516 0)"/>
    <use xlink:href="#Arial-ItalicMT-20" transform="translate(1064.501953 0)"/>
    <use xlink:href="#Arial-ItalicMT-37" transform="translate(1092.285156 0)"/>
    <use xlink:href="#Arial-ItalicMT-35" transform="translate(1147.900391 0)"/>
    <use xlink:href="#Arial-ItalicMT-3b" transform="translate(1203.515625 0)"/>
    <use xlink:href="#Arial-ItalicMT-20" transform="translate(1231.298828 0)"/>
    <use xlink:href="#Arial-ItalicMT-46" transform="translate(1259.082031 0)"/>
    <use xlink:href="#Arial-ItalicMT-72" transform="translate(1320.166016 0)"/>
    <use xlink:href="#Arial-ItalicMT-61" transform="translate(1353.466797 0)"/>
    <use xlink:href="#Arial-ItalicMT-6e" transform="translate(1409.082031 0)"/>
    <use xlink:href="#Arial-ItalicMT-63" transform="translate(1464.697266 0)"/>
    <use xlink:href="#Arial-ItalicMT-65" transform="translate(1514.697266 0)"/>
    <use xlink:href="#Arial-ItalicMT-20" transform="translate(1570.3125 0)"/>
    <use xlink:href="#Arial-ItalicMT-73" transform="translate(1598.095703 0)"/>
    <use xlink:href="#Arial-ItalicMT-61" transform="translate(1648.095703 0)"/>
    <use xlink:href="#Arial-ItalicMT-6d" transform="translate(1703.710938 0)"/>
    <use xlink:href="#Arial-ItalicMT-70" transform="translate(1787.011719 0)"/>
    <use xlink:href="#Arial-ItalicMT-6c" transform="translate(1842.626953 0)"/>
    <use xlink:href="#Arial-ItalicMT-65" transform="translate(1864.84375 0)"/>
    <use xlink:href="#Arial-ItalicMT-3a" transform="translate(1920.458984 0)"/>
    <use xlink:href="#Arial-ItalicMT-20" transform="translate(1948.242188 0)"/>
    <use xlink:href="#Arial-ItalicMT-4e" transform="translate(1976.025391 0)"/>
    <use xlink:href="#Arial-ItalicMT-20" transform="translate(2048.242188 0)"/>
    <use xlink:href="#Arial-ItalicMT-3d" transform="translate(2076.025391 0)"/>
    <use xlink:href="#Arial-ItalicMT-20" transform="translate(2134.423828 0)"/>
    <use xlink:href="#Arial-ItalicMT-32" transform="translate(2162.207031 0)"/>
    <use xlink:href="#Arial-ItalicMT-34" transform="translate(2217.822266 0)"/>
    <use xlink:href="#Arial-ItalicMT-39" transform="translate(2273.4375 0)"/>
    <use xlink:href="#Arial-ItalicMT-2e" transform="translate(2329.052734 0)"/>
    <use xlink:href="#Arial-ItalicMT-20" transform="translate(2356.835938 0)"/>
    <use xlink:href="#Arial-ItalicMT-54" transform="translate(2384.619141 0)"/>
    <use xlink:href="#Arial-ItalicMT-68" transform="translate(2445.703125 0)"/>
    <use xlink:href="#Arial-ItalicMT-65" transform="translate(2501.318359 0)"/>
    <use xlink:href="#Arial-ItalicMT-20" transform="translate(2556.933594 0)"/>
    <use xlink:href="#Arial-ItalicMT-56" transform="translate(2584.716797 0)"/>
    <use xlink:href="#Arial-ItalicMT-37" transform="translate(2651.416016 0)"/>
    <use xlink:href="#Arial-ItalicMT-20" transform="translate(2707.03125 0)"/>
    <use xlink:href="#Arial-ItalicMT-65" transform="translate(2734.814453 0)"/>
    <use xlink:href="#Arial-ItalicMT-6e" transform="translate(2790.429688 0)"/>
    <use xlink:href="#Arial-ItalicMT-73" transform="translate(2846.044922 0)"/>
    <use xlink:href="#Arial-ItalicMT-65" transform="translate(2896.044922 0)"/>
    <use xlink:href="#Arial-ItalicMT-6d" transform="translate(2951.660156 0)"/>
    <use xlink:href="#Arial-ItalicMT-62" transform="translate(3034.960938 0)"/>
    <use xlink:href="#Arial-ItalicMT-6c" transform="translate(3090.576172 0)"/>
    <use xlink:href="#Arial-ItalicMT-65" transform="translate(3112.792969 0)"/>
    <use xlink:href="#Arial-ItalicMT-20" transform="translate(3168.408203 0)"/>
    <use xlink:href="#Arial-ItalicMT-63" transform="translate(3196.191406 0)"/>
    <use xlink:href="#Arial-ItalicMT-6f" transform="translate(3246.191406 0)"/>
    <use xlink:href="#Arial-ItalicMT-6e" transform="translate(3301.806641 0)"/>
    <use xlink:href="#Arial-ItalicMT-73" transform="translate(3357.421875 0)"/>
    <use xlink:href="#Arial-ItalicMT-69" transform="translate(3407.421875 0)"/>
    <use xlink:href="#Arial-ItalicMT-73" transform="translate(3429.638672 0)"/>
    <use xlink:href="#Arial-ItalicMT-74" transform="translate(3479.638672 0)"/>
    <use xlink:href="#Arial-ItalicMT-65" transform="translate(3507.421875 0)"/>
    <use xlink:href="#Arial-ItalicMT-6e" transform="translate(3563.037109 0)"/>
    <use xlink:href="#Arial-ItalicMT-74" transform="translate(3618.652344 0)"/>
    <use xlink:href="#Arial-ItalicMT-6c" transform="translate(3646.435547 0)"/>
    <use xlink:href="#Arial-ItalicMT-79" transform="translate(3668.652344 0)"/>
    <use xlink:href="#Arial-ItalicMT-20" transform="translate(3718.652344 0)"/>
    <use xlink:href="#Arial-ItalicMT-6f" transform="translate(3746.435547 0)"/>
    <use xlink:href="#Arial-ItalicMT-75" transform="translate(3802.050781 0)"/>
    <use xlink:href="#Arial-ItalicMT-74" transform="translate(3857.666016 0)"/>
    <use xlink:href="#Arial-ItalicMT-70" transform="translate(3885.449219 0)"/>
    <use xlink:href="#Arial-ItalicMT-65" transform="translate(3941.064453 0)"/>
    <use xlink:href="#Arial-ItalicMT-72" transform="translate(3996.679688 0)"/>
    <use xlink:href="#Arial-ItalicMT-66" transform="translate(4029.980469 0)"/>
    <use xlink:href="#Arial-ItalicMT-6f" transform="translate(4057.763672 0)"/>
    <use xlink:href="#Arial-ItalicMT-72" transform="translate(4113.378906 0)"/>
    <use xlink:href="#Arial-ItalicMT-6d" transform="translate(4146.679688 0)"/>
    <use xlink:href="#Arial-ItalicMT-73" transform="translate(4229.980469 0)"/>
    <use xlink:href="#Arial-ItalicMT-20" transform="translate(4279.980469 0)"/>
    <use xlink:href="#Arial-ItalicMT-6c" transform="translate(4307.763672 0)"/>
    <use xlink:href="#Arial-ItalicMT-69" transform="translate(4329.980469 0)"/>
    <use xlink:href="#Arial-ItalicMT-6e" transform="translate(4352.197266 0)"/>
    <use xlink:href="#Arial-ItalicMT-65" transform="translate(4407.8125 0)"/>
    <use xlink:href="#Arial-ItalicMT-61" transform="translate(4463.427734 0)"/>
    <use xlink:href="#Arial-ItalicMT-72" transform="translate(4519.042969 0)"/>
    <use xlink:href="#Arial-ItalicMT-20" transform="translate(4552.34375 0)"/>
    <use xlink:href="#Arial-ItalicMT-72" transform="translate(4580.126953 0)"/>
    <use xlink:href="#Arial-ItalicMT-65" transform="translate(4613.427734 0)"/>
    <use xlink:href="#Arial-ItalicMT-67" transform="translate(4669.042969 0)"/>
    <use xlink:href="#Arial-ItalicMT-72" transform="translate(4724.658203 0)"/>
    <use xlink:href="#Arial-ItalicMT-65" transform="translate(4757.958984 0)"/>
    <use xlink:href="#Arial-ItalicMT-73" transform="translate(4813.574219 0)"/>
    <use xlink:href="#Arial-ItalicMT-73" transform="translate(4863.574219 0)"/>
    <use xlink:href="#Arial-ItalicMT-69" transform="translate(4913.574219 0)"/>
    <use xlink:href="#Arial-ItalicMT-6f" transform="translate(4935.791016 0)"/>
    <use xlink:href="#Arial-ItalicMT-6e" transform="translate(4991.40625 0)"/>
   </g>
   <!-- across both samples, with larger improvements in the France sample (17.8% vs. 11.8%). -->
   <g style="fill: #333333" transform="translate(111.76875 392.125781) scale(0.09 -0.09)">
    <defs>
     <path id="Arial-ItalicMT-2c" d="M 347 0 
L 481 641 
L 1125 641 
L 1009 81 
Q 903 -422 679 -656 
Q 456 -891 153 -925 
L 206 -678 
Q 578 -575 697 0 
L 347 0 
z
" transform="scale(0.015625)"/>
     <path id="Arial-ItalicMT-77" d="M 844 0 
L 497 3319 
L 1041 3319 
L 1191 1828 
L 1250 991 
Q 1256 897 1269 613 
Q 1363 931 1428 1101 
Q 1494 1272 1638 1588 
L 2428 3319 
L 3044 3319 
L 3153 1659 
Q 3178 1281 3184 650 
Q 3341 1069 3694 1813 
L 4406 3319 
L 4972 3319 
L 3350 0 
L 2763 0 
L 2638 1947 
Q 2625 2128 2619 2653 
Q 2491 2319 2316 1931 
L 1438 0 
L 844 0 
z
" transform="scale(0.015625)"/>
     <path id="Arial-ItalicMT-76" d="M 1050 0 
L 506 3319 
L 1056 3319 
L 1341 1491 
Q 1388 1191 1456 513 
Q 1619 866 1872 1322 
L 2981 3319 
L 3578 3319 
L 1678 0 
L 1050 0 
z
" transform="scale(0.015625)"/>
     <path id="Arial-ItalicMT-28" d="M 1031 -1347 
Q 541 -272 541 863 
Q 541 1619 739 2270 
Q 938 2922 1344 3559 
Q 1613 3984 2203 4659 
L 2644 4659 
Q 2278 4269 1870 3559 
Q 1463 2850 1278 2165 
Q 1094 1481 1094 791 
Q 1094 -241 1453 -1347 
L 1031 -1347 
z
" transform="scale(0.015625)"/>
     <path id="Arial-ItalicMT-31" d="M 1541 0 
L 2266 3459 
Q 1797 3091 947 2869 
L 1053 3381 
Q 1475 3550 1886 3822 
Q 2297 4094 2503 4297 
Q 2628 4422 2741 4600 
L 3069 4600 
L 2109 0 
L 1541 0 
z
" transform="scale(0.015625)"/>
     <path id="Arial-ItalicMT-38" d="M 1444 2519 
Q 1188 2659 1059 2879 
Q 931 3100 931 3353 
Q 931 3769 1231 4122 
Q 1631 4600 2316 4600 
Q 2919 4600 3266 4276 
Q 3613 3953 3613 3484 
Q 3613 3150 3425 2881 
Q 3238 2613 2838 2453 
Q 3113 2281 3231 2088 
Q 3384 1834 3384 1497 
Q 3384 881 2948 400 
Q 2513 -81 1788 -81 
Q 1209 -81 843 275 
Q 478 631 478 1166 
Q 478 1669 737 2030 
Q 997 2391 1444 2519 
z
M 1488 3328 
Q 1488 3034 1677 2854 
Q 1866 2675 2197 2675 
Q 2584 2675 2826 2911 
Q 3069 3147 3069 3491 
Q 3069 3781 2880 3964 
Q 2691 4147 2359 4147 
Q 2109 4147 1900 4031 
Q 1691 3916 1589 3717 
Q 1488 3519 1488 3328 
z
M 1047 1119 
Q 1047 928 1139 753 
Q 1231 578 1418 475 
Q 1606 372 1847 372 
Q 2306 372 2591 803 
Q 2816 1141 2816 1531 
Q 2816 1850 2608 2053 
Q 2400 2256 2063 2256 
Q 1638 2256 1342 1940 
Q 1047 1625 1047 1119 
z
" transform="scale(0.015625)"/>
     <path id="Arial-ItalicMT-25" d="M 894 -169 
L 4678 4659 
L 5191 4659 
L 1422 -169 
L 894 -169 
z
M 622 3172 
Q 622 3300 680 3565 
Q 738 3831 850 4040 
Q 963 4250 1100 4375 
Q 1238 4500 1400 4559 
Q 1563 4619 1769 4619 
Q 2209 4619 2436 4395 
Q 2663 4172 2663 3741 
Q 2663 3381 2511 2981 
Q 2359 2581 2095 2395 
Q 1831 2209 1463 2209 
Q 1053 2209 837 2442 
Q 622 2675 622 3172 
z
M 1103 3069 
Q 1103 2806 1201 2697 
Q 1300 2588 1466 2588 
Q 1663 2588 1823 2739 
Q 1984 2891 2076 3228 
Q 2169 3566 2169 3806 
Q 2169 4016 2062 4128 
Q 1956 4241 1784 4241 
Q 1603 4241 1450 4095 
Q 1297 3950 1200 3634 
Q 1103 3319 1103 3069 
z
M 3416 794 
Q 3416 922 3473 1187 
Q 3531 1453 3643 1662 
Q 3756 1872 3893 1997 
Q 4031 2122 4193 2181 
Q 4356 2241 4563 2241 
Q 5003 2241 5229 2017 
Q 5456 1794 5456 1363 
Q 5456 1003 5304 603 
Q 5153 203 4889 17 
Q 4625 -169 4256 -169 
Q 3847 -169 3631 62 
Q 3416 294 3416 794 
z
M 3897 688 
Q 3897 428 3995 317 
Q 4094 206 4259 206 
Q 4456 206 4615 357 
Q 4775 509 4869 845 
Q 4963 1181 4963 1425 
Q 4963 1638 4856 1750 
Q 4750 1863 4578 1863 
Q 4397 1863 4244 1717 
Q 4091 1572 3994 1256 
Q 3897 941 3897 688 
z
" transform="scale(0.015625)"/>
     <path id="Arial-ItalicMT-29" d="M 1269 4659 
Q 1763 3584 1763 2453 
Q 1763 1694 1564 1044 
Q 1366 394 959 -247 
Q 688 -672 100 -1347 
L -341 -1347 
Q 22 -953 431 -243 
Q 841 466 1023 1148 
Q 1206 1831 1206 2525 
Q 1206 3556 847 4659 
L 1269 4659 
z
" transform="scale(0.015625)"/>
    </defs>
    <use xlink:href="#Arial-ItalicMT-61"/>
    <use xlink:href="#Arial-ItalicMT-63" transform="translate(55.615234 0)"/>
    <use xlink:href="#Arial-ItalicMT-72" transform="translate(105.615234 0)"/>
    <use xlink:href="#Arial-ItalicMT-6f" transform="translate(138.916016 0)"/>
    <use xlink:href="#Arial-ItalicMT-73" transform="translate(194.53125 0)"/>
    <use xlink:href="#Arial-ItalicMT-73" transform="translate(244.53125 0)"/>
    <use xlink:href="#Arial-ItalicMT-20" transform="translate(294.53125 0)"/>
    <use xlink:href="#Arial-ItalicMT-62" transform="translate(322.314453 0)"/>
    <use xlink:href="#Arial-ItalicMT-6f" transform="translate(377.929688 0)"/>
    <use xlink:href="#Arial-ItalicMT-74" transform="translate(433.544922 0)"/>
    <use xlink:href="#Arial-ItalicMT-68" transform="translate(461.328125 0)"/>
    <use xlink:href="#Arial-ItalicMT-20" transform="translate(516.943359 0)"/>
    <use xlink:href="#Arial-ItalicMT-73" transform="translate(544.726562 0)"/>
    <use xlink:href="#Arial-ItalicMT-61" transform="translate(594.726562 0)"/>
    <use xlink:href="#Arial-ItalicMT-6d" transform="translate(650.341797 0)"/>
    <use xlink:href="#Arial-ItalicMT-70" transform="translate(733.642578 0)"/>
    <use xlink:href="#Arial-ItalicMT-6c" transform="translate(789.257812 0)"/>
    <use xlink:href="#Arial-ItalicMT-65" transform="translate(811.474609 0)"/>
    <use xlink:href="#Arial-ItalicMT-73" transform="translate(867.089844 0)"/>
    <use xlink:href="#Arial-ItalicMT-2c" transform="translate(917.089844 0)"/>
    <use xlink:href="#Arial-ItalicMT-20" transform="translate(944.873047 0)"/>
    <use xlink:href="#Arial-ItalicMT-77" transform="translate(972.65625 0)"/>
    <use xlink:href="#Arial-ItalicMT-69" transform="translate(1044.873047 0)"/>
    <use xlink:href="#Arial-ItalicMT-74" transform="translate(1067.089844 0)"/>
    <use xlink:href="#Arial-ItalicMT-68" transform="translate(1094.873047 0)"/>
    <use xlink:href="#Arial-ItalicMT-20" transform="translate(1150.488281 0)"/>
    <use xlink:href="#Arial-ItalicMT-6c" transform="translate(1178.271484 0)"/>
    <use xlink:href="#Arial-ItalicMT-61" transform="translate(1200.488281 0)"/>
    <use xlink:href="#Arial-ItalicMT-72" transform="translate(1256.103516 0)"/>
    <use xlink:href="#Arial-ItalicMT-67" transform="translate(1289.404297 0)"/>
    <use xlink:href="#Arial-ItalicMT-65" transform="translate(1345.019531 0)"/>
    <use xlink:href="#Arial-ItalicMT-72" transform="translate(1400.634766 0)"/>
    <use xlink:href="#Arial-ItalicMT-20" transform="translate(1433.935547 0)"/>
    <use xlink:href="#Arial-ItalicMT-69" transform="translate(1461.71875 0)"/>
    <use xlink:href="#Arial-ItalicMT-6d" transform="translate(1483.935547 0)"/>
    <use xlink:href="#Arial-ItalicMT-70" transform="translate(1567.236328 0)"/>
    <use xlink:href="#Arial-ItalicMT-72" transform="translate(1622.851562 0)"/>
    <use xlink:href="#Arial-ItalicMT-6f" transform="translate(1656.152344 0)"/>
    <use xlink:href="#Arial-ItalicMT-76" transform="translate(1711.767578 0)"/>
    <use xlink:href="#Arial-ItalicMT-65" transform="translate(1761.767578 0)"/>
    <use xlink:href="#Arial-ItalicMT-6d" transform="translate(1817.382812 0)"/>
    <use xlink:href="#Arial-ItalicMT-65" transform="translate(1900.683594 0)"/>
    <use xlink:href="#Arial-ItalicMT-6e" transform="translate(1956.298828 0)"/>
    <use xlink:href="#Arial-ItalicMT-74" transform="translate(2011.914062 0)"/>
    <use xlink:href="#Arial-ItalicMT-73" transform="translate(2039.697266 0)"/>
    <use xlink:href="#Arial-ItalicMT-20" transform="translate(2089.697266 0)"/>
    <use xlink:href="#Arial-ItalicMT-69" transform="translate(2117.480469 0)"/>
    <use xlink:href="#Arial-ItalicMT-6e" transform="translate(2139.697266 0)"/>
    <use xlink:href="#Arial-ItalicMT-20" transform="translate(2195.3125 0)"/>
    <use xlink:href="#Arial-ItalicMT-74" transform="translate(2223.095703 0)"/>
    <use xlink:href="#Arial-ItalicMT-68" transform="translate(2250.878906 0)"/>
    <use xlink:href="#Arial-ItalicMT-65" transform="translate(2306.494141 0)"/>
    <use xlink:href="#Arial-ItalicMT-20" transform="translate(2362.109375 0)"/>
    <use xlink:href="#Arial-ItalicMT-46" transform="translate(2389.892578 0)"/>
    <use xlink:href="#Arial-ItalicMT-72" transform="translate(2450.976562 0)"/>
    <use xlink:href="#Arial-ItalicMT-61" transform="translate(2484.277344 0)"/>
    <use xlink:href="#Arial-ItalicMT-6e" transform="translate(2539.892578 0)"/>
    <use xlink:href="#Arial-ItalicMT-63" transform="translate(2595.507812 0)"/>
    <use xlink:href="#Arial-ItalicMT-65" transform="translate(2645.507812 0)"/>
    <use xlink:href="#Arial-ItalicMT-20" transform="translate(2701.123047 0)"/>
    <use xlink:href="#Arial-ItalicMT-73" transform="translate(2728.90625 0)"/>
    <use xlink:href="#Arial-ItalicMT-61" transform="translate(2778.90625 0)"/>
    <use xlink:href="#Arial-ItalicMT-6d" transform="translate(2834.521484 0)"/>
    <use xlink:href="#Arial-ItalicMT-70" transform="translate(2917.822266 0)"/>
    <use xlink:href="#Arial-ItalicMT-6c" transform="translate(2973.4375 0)"/>
    <use xlink:href="#Arial-ItalicMT-65" transform="translate(2995.654297 0)"/>
    <use xlink:href="#Arial-ItalicMT-20" transform="translate(3051.269531 0)"/>
    <use xlink:href="#Arial-ItalicMT-28" transform="translate(3079.052734 0)"/>
    <use xlink:href="#Arial-ItalicMT-31" transform="translate(3112.353516 0)"/>
    <use xlink:href="#Arial-ItalicMT-37" transform="translate(3167.96875 0)"/>
    <use xlink:href="#Arial-ItalicMT-2e" transform="translate(3223.583984 0)"/>
    <use xlink:href="#Arial-ItalicMT-38" transform="translate(3251.367188 0)"/>
    <use xlink:href="#Arial-ItalicMT-25" transform="translate(3306.982422 0)"/>
    <use xlink:href="#Arial-ItalicMT-20" transform="translate(3395.898438 0)"/>
    <use xlink:href="#Arial-ItalicMT-76" transform="translate(3423.681641 0)"/>
    <use xlink:href="#Arial-ItalicMT-73" transform="translate(3473.681641 0)"/>
    <use xlink:href="#Arial-ItalicMT-2e" transform="translate(3523.681641 0)"/>
    <use xlink:href="#Arial-ItalicMT-20" transform="translate(3551.464844 0)"/>
    <use xlink:href="#Arial-ItalicMT-31" transform="translate(3579.248047 0)"/>
    <use xlink:href="#Arial-ItalicMT-31" transform="translate(3627.488281 0)"/>
    <use xlink:href="#Arial-ItalicMT-2e" transform="translate(3683.103516 0)"/>
    <use xlink:href="#Arial-ItalicMT-38" transform="translate(3710.886719 0)"/>
    <use xlink:href="#Arial-ItalicMT-25" transform="translate(3766.501953 0)"/>
    <use xlink:href="#Arial-ItalicMT-29" transform="translate(3855.417969 0)"/>
    <use xlink:href="#Arial-ItalicMT-2e" transform="translate(3888.71875 0)"/>
   </g>
  </g>
 </g>
 <defs>
  <clipPath id="p2b029e3a96">
   <rect x="48.01" y="112.7324" width="517.19" height="198.5076"/>
  </clipPath>
 </defs>
</svg>
