<?xml version="1.0" encoding="utf-8" standalone="no"?>
<!DOCTYPE svg PUBLIC "-//W3C//DTD SVG 1.1//EN"
  "http://www.w3.org/Graphics/SVG/1.1/DTD/svg11.dtd">
<svg xmlns:xlink="http://www.w3.org/1999/xlink" width="864pt" height="504pt" viewBox="0 0 864 504" xmlns="http://www.w3.org/2000/svg" version="1.1">
 <metadata>
  <rdf:RDF xmlns:dc="http://purl.org/dc/elements/1.1/" xmlns:cc="http://creativecommons.org/ns#" xmlns:rdf="http://www.w3.org/1999/02/22-rdf-syntax-ns#">
   <cc:Work>
    <dc:type rdf:resource="http://purl.org/dc/dcmitype/StillImage"/>
    <dc:date>2026-03-30T08:05:49.898097</dc:date>
    <dc:format>image/svg+xml</dc:format>
    <dc:creator>
     <cc:Agent>
      <dc:title>Matplotlib v3.10.8, https://matplotlib.org/</dc:title>
     </cc:Agent>
    </dc:creator>
   </cc:Work>
  </rdf:RDF>
 </metadata>
 <defs>
  <style type="text/css">*{stroke-linejoin: round; stroke-linecap: butt}</style>
 </defs>
 <g id="figure_1">
  <g id="patch_1">
   <path d="M 0 504 
L 864 504 
L 864 0 
L 0 0 
z
" style="fill: #ffffff"/>
  </g>
  <g id="axes_1">
   <g id="patch_2">
    <path d="M 218.7 228.204797 
Q 218.7 244.402867 218.7 258.588475 
" style="fill: none; stroke: #4dac26; stroke-width: 1.8; stroke-linecap: round"/>
    <path d="M 221.5 252.988475 
L 218.7 258.588475 
L 215.9 252.988475 
" style="fill: none; stroke: #4dac26; stroke-width: 1.8; stroke-linecap: round"/>
   </g>
   <g id="patch_3">
    <path d="M 132.781666 331.930285 
Q 153.4344 323.578821 172.221439 315.9818 
" style="fill: none; stroke: #4dac26; stroke-width: 1.8; stroke-linecap: round"/>
    <path d="M 165.980162 315.485357 
L 172.221439 315.9818 
L 168.079518 320.676956 
" style="fill: none; stroke: #4dac26; stroke-width: 1.8; stroke-linecap: round"/>
   </g>
   <g id="patch_4">
    <path d="M 304.618334 331.930285 
Q 283.9656 323.578821 265.178561 315.9818 
" style="fill: none; stroke: #4dac26; stroke-width: 1.8; stroke-linecap: round"/>
    <path d="M 269.320482 320.676956 
L 265.178561 315.9818 
L 271.419838 315.485357 
" style="fill: none; stroke: #4dac26; stroke-width: 1.8; stroke-linecap: round"/>
   </g>
   <g id="text_1">
    <!-- [+] Synergy -->
    <g style="fill: #4dac26" transform="translate(177.645703 109.951187) scale(0.15 -0.15)">
     <defs>
      <path id="Arial-BoldMT-5b" d="M 456 -1291 
L 456 4581 
L 2013 4581 
L 2013 3891 
L 1291 3891 
L 1291 -600 
L 2013 -600 
L 2013 -1291 
L 456 -1291 
z
" transform="scale(0.015625)"/>
      <path id="Arial-BoldMT-2b" d="M 1466 659 
L 1466 1850 
L 266 1850 
L 266 2672 
L 1466 2672 
L 1466 3863 
L 2266 3863 
L 2266 2672 
L 3469 2672 
L 3469 1850 
L 2266 1850 
L 2266 659 
L 1466 659 
z
" transform="scale(0.015625)"/>
      <path id="Arial-BoldMT-5d" d="M 1675 4581 
L 1675 -1291 
L 119 -1291 
L 119 -600 
L 841 -600 
L 841 3897 
L 119 3897 
L 119 4581 
L 1675 4581 
z
" transform="scale(0.015625)"/>
      <path id="Arial-BoldMT-20" transform="scale(0.015625)"/>
      <path id="Arial-BoldMT-53" d="M 231 1491 
L 1131 1578 
Q 1213 1125 1461 912 
Q 1709 700 2131 700 
Q 2578 700 2804 889 
Q 3031 1078 3031 1331 
Q 3031 1494 2936 1608 
Q 2841 1722 2603 1806 
Q 2441 1863 1863 2006 
Q 1119 2191 819 2459 
Q 397 2838 397 3381 
Q 397 3731 595 4036 
Q 794 4341 1167 4500 
Q 1541 4659 2069 4659 
Q 2931 4659 3367 4281 
Q 3803 3903 3825 3272 
L 2900 3231 
Q 2841 3584 2645 3739 
Q 2450 3894 2059 3894 
Q 1656 3894 1428 3728 
Q 1281 3622 1281 3444 
Q 1281 3281 1419 3166 
Q 1594 3019 2269 2859 
Q 2944 2700 3267 2529 
Q 3591 2359 3773 2064 
Q 3956 1769 3956 1334 
Q 3956 941 3737 597 
Q 3519 253 3119 86 
Q 2719 -81 2122 -81 
Q 1253 -81 787 320 
Q 322 722 231 1491 
z
" transform="scale(0.015625)"/>
      <path id="Arial-BoldMT-79" d="M 44 3319 
L 978 3319 
L 1772 963 
L 2547 3319 
L 3456 3319 
L 2284 125 
L 2075 -453 
Q 1959 -744 1854 -897 
Q 1750 -1050 1614 -1145 
Q 1478 -1241 1279 -1294 
Q 1081 -1347 831 -1347 
Q 578 -1347 334 -1294 
L 256 -606 
Q 463 -647 628 -647 
Q 934 -647 1081 -467 
Q 1228 -288 1306 -9 
L 44 3319 
z
" transform="scale(0.015625)"/>
      <path id="Arial-BoldMT-6e" d="M 3478 0 
L 2600 0 
L 2600 1694 
Q 2600 2231 2544 2389 
Q 2488 2547 2361 2634 
Q 2234 2722 2056 2722 
Q 1828 2722 1647 2597 
Q 1466 2472 1398 2265 
Q 1331 2059 1331 1503 
L 1331 0 
L 453 0 
L 453 3319 
L 1269 3319 
L 1269 2831 
Q 1703 3394 2363 3394 
Q 2653 3394 2893 3289 
Q 3134 3184 3257 3021 
Q 3381 2859 3429 2653 
Q 3478 2447 3478 2063 
L 3478 0 
z
" transform="scale(0.015625)"/>
      <path id="Arial-BoldMT-65" d="M 2381 1056 
L 3256 909 
Q 3088 428 2723 176 
Q 2359 -75 1813 -75 
Q 947 -75 531 491 
Q 203 944 203 1634 
Q 203 2459 634 2926 
Q 1066 3394 1725 3394 
Q 2466 3394 2894 2905 
Q 3322 2416 3303 1406 
L 1103 1406 
Q 1113 1016 1316 798 
Q 1519 581 1822 581 
Q 2028 581 2168 693 
Q 2309 806 2381 1056 
z
M 2431 1944 
Q 2422 2325 2234 2523 
Q 2047 2722 1778 2722 
Q 1491 2722 1303 2513 
Q 1116 2303 1119 1944 
L 2431 1944 
z
" transform="scale(0.015625)"/>
      <path id="Arial-BoldMT-72" d="M 1300 0 
L 422 0 
L 422 3319 
L 1238 3319 
L 1238 2847 
Q 1447 3181 1614 3287 
Q 1781 3394 1994 3394 
Q 2294 3394 2572 3228 
L 2300 2463 
Q 2078 2606 1888 2606 
Q 1703 2606 1575 2504 
Q 1447 2403 1373 2137 
Q 1300 1872 1300 1025 
L 1300 0 
z
" transform="scale(0.015625)"/>
      <path id="Arial-BoldMT-67" d="M 378 -219 
L 1381 -341 
Q 1406 -516 1497 -581 
Q 1622 -675 1891 -675 
Q 2234 -675 2406 -572 
Q 2522 -503 2581 -350 
Q 2622 -241 2622 53 
L 2622 538 
Q 2228 0 1628 0 
Q 959 0 569 566 
Q 263 1013 263 1678 
Q 263 2513 664 2953 
Q 1066 3394 1663 3394 
Q 2278 3394 2678 2853 
L 2678 3319 
L 3500 3319 
L 3500 341 
Q 3500 -247 3403 -537 
Q 3306 -828 3131 -993 
Q 2956 -1159 2664 -1253 
Q 2372 -1347 1925 -1347 
Q 1081 -1347 728 -1058 
Q 375 -769 375 -325 
Q 375 -281 378 -219 
z
M 1163 1728 
Q 1163 1200 1367 954 
Q 1572 709 1872 709 
Q 2194 709 2416 961 
Q 2638 1213 2638 1706 
Q 2638 2222 2425 2472 
Q 2213 2722 1888 2722 
Q 1572 2722 1367 2476 
Q 1163 2231 1163 1728 
z
" transform="scale(0.015625)"/>
     </defs>
     <use xlink:href="#Arial-BoldMT-5b"/>
     <use xlink:href="#Arial-BoldMT-2b" transform="translate(33.300781 0)"/>
     <use xlink:href="#Arial-BoldMT-5d" transform="translate(91.699219 0)"/>
     <use xlink:href="#Arial-BoldMT-20" transform="translate(125 0)"/>
     <use xlink:href="#Arial-BoldMT-53" transform="translate(152.783203 0)"/>
     <use xlink:href="#Arial-BoldMT-79" transform="translate(219.482422 0)"/>
     <use xlink:href="#Arial-BoldMT-6e" transform="translate(275.097656 0)"/>
     <use xlink:href="#Arial-BoldMT-65" transform="translate(336.181641 0)"/>
     <use xlink:href="#Arial-BoldMT-72" transform="translate(391.796875 0)"/>
     <use xlink:href="#Arial-BoldMT-67" transform="translate(430.712891 0)"/>
     <use xlink:href="#Arial-BoldMT-79" transform="translate(491.796875 0)"/>
    </g>
   </g>
   <g id="text_2">
    <!-- ΔR² = 7.2% -->
    <g style="fill: #4dac26" transform="translate(187.83 131.924156) scale(0.12 -0.12)">
     <defs>
      <path id="Arial-ItalicMT-394" d="M -63 0 
L 2534 4581 
L 3256 4581 
L 4013 0 
L -63 0 
z
M 900 519 
L 3331 519 
L 2944 2941 
Q 2841 3588 2816 4081 
Q 2659 3684 2359 3147 
L 900 519 
z
" transform="scale(0.015625)"/>
      <path id="Arial-ItalicMT-52" d="M 300 0 
L 1259 4581 
L 3181 4581 
Q 3750 4581 4044 4486 
Q 4338 4391 4505 4128 
Q 4672 3866 4672 3466 
Q 4672 2906 4306 2537 
Q 3941 2169 3125 2059 
Q 3375 1875 3503 1697 
Q 3791 1294 3966 863 
L 4316 0 
L 3631 0 
L 3303 853 
Q 3125 1316 2897 1653 
Q 2741 1888 2578 1961 
Q 2416 2034 2050 2034 
L 1338 2034 
L 913 0 
L 300 0 
z
M 1441 2531 
L 2288 2531 
Q 2875 2531 3053 2547 
Q 3400 2581 3622 2703 
Q 3844 2825 3966 3031 
Q 4088 3238 4088 3475 
Q 4088 3675 3997 3823 
Q 3906 3972 3759 4025 
Q 3613 4078 3259 4078 
L 1766 4078 
L 1441 2531 
z
" transform="scale(0.015625)"/>
      <path id="Arial-ItalicMT-b2" d="M 475 2291 
Q 572 2616 809 2886 
Q 1047 3156 1594 3466 
Q 1909 3644 1984 3722 
Q 2094 3838 2094 3969 
Q 2094 4088 1995 4173 
Q 1897 4259 1706 4259 
Q 1481 4259 1359 4171 
Q 1238 4084 1178 3903 
L 700 3950 
Q 794 4284 1041 4461 
Q 1288 4638 1700 4638 
Q 2131 4638 2348 4448 
Q 2566 4259 2566 3981 
Q 2566 3728 2378 3516 
Q 2238 3363 1772 3081 
Q 1494 2916 1389 2834 
Q 1284 2753 1219 2669 
L 2403 2669 
L 2325 2291 
L 475 2291 
z
" transform="scale(0.015625)"/>
      <path id="Arial-ItalicMT-20" transform="scale(0.015625)"/>
      <path id="Arial-ItalicMT-3d" d="M 3600 2694 
L 575 2694 
L 575 3219 
L 3600 3219 
L 3600 2694 
z
M 3600 1303 
L 575 1303 
L 575 1828 
L 3600 1828 
L 3600 1303 
z
" transform="scale(0.015625)"/>
      <path id="Arial-ItalicMT-37" d="M 928 0 
Q 1003 463 1247 1113 
Q 1538 1897 2009 2670 
Q 2481 3444 3059 4000 
L 775 4000 
L 884 4519 
L 3809 4519 
L 3703 4000 
Q 2959 3347 2403 2316 
Q 1756 1125 1519 0 
L 928 0 
z
" transform="scale(0.015625)"/>
      <path id="Arial-ItalicMT-2e" d="M 369 0 
L 503 641 
L 1144 641 
L 1006 0 
L 369 0 
z
" transform="scale(0.015625)"/>
      <path id="Arial-ItalicMT-32" d="M 375 0 
Q 463 409 617 686 
Q 772 963 1028 1211 
Q 1284 1459 2016 2044 
Q 2459 2397 2622 2566 
Q 2856 2809 2963 3044 
Q 3034 3203 3034 3391 
Q 3034 3706 2811 3926 
Q 2588 4147 2263 4147 
Q 1941 4147 1700 3923 
Q 1459 3700 1356 3206 
L 803 3288 
Q 884 3897 1276 4248 
Q 1669 4600 2253 4600 
Q 2644 4600 2961 4437 
Q 3278 4275 3437 3981 
Q 3597 3688 3597 3375 
Q 3597 2919 3272 2497 
Q 3072 2234 2097 1463 
Q 1678 1131 1473 918 
Q 1269 706 1166 519 
L 3216 519 
L 3106 0 
L 375 0 
z
" transform="scale(0.015625)"/>
      <path id="Arial-ItalicMT-25" d="M 894 -169 
L 4678 4659 
L 5191 4659 
L 1422 -169 
L 894 -169 
z
M 622 3172 
Q 622 3300 680 3565 
Q 738 3831 850 4040 
Q 963 4250 1100 4375 
Q 1238 4500 1400 4559 
Q 1563 4619 1769 4619 
Q 2209 4619 2436 4395 
Q 2663 4172 2663 3741 
Q 2663 3381 2511 2981 
Q 2359 2581 2095 2395 
Q 1831 2209 1463 2209 
Q 1053 2209 837 2442 
Q 622 2675 622 3172 
z
M 1103 3069 
Q 1103 2806 1201 2697 
Q 1300 2588 1466 2588 
Q 1663 2588 1823 2739 
Q 1984 2891 2076 3228 
Q 2169 3566 2169 3806 
Q 2169 4016 2062 4128 
Q 1956 4241 1784 4241 
Q 1603 4241 1450 4095 
Q 1297 3950 1200 3634 
Q 1103 3319 1103 3069 
z
M 3416 794 
Q 3416 922 3473 1187 
Q 3531 1453 3643 1662 
Q 3756 1872 3893 1997 
Q 4031 2122 4193 2181 
Q 4356 2241 4563 2241 
Q 5003 2241 5229 2017 
Q 5456 1794 5456 1363 
Q 5456 1003 5304 603 
Q 5153 203 4889 17 
Q 4625 -169 4256 -169 
Q 3847 -169 3631 62 
Q 3416 294 3416 794 
z
M 3897 688 
Q 3897 428 3995 317 
Q 4094 206 4259 206 
Q 4456 206 4615 357 
Q 4775 509 4869 845 
Q 4963 1181 4963 1425 
Q 4963 1638 4856 1750 
Q 4750 1863 4578 1863 
Q 4397 1863 4244 1717 
Q 4091 1572 3994 1256 
Q 3897 941 3897 688 
z
" transform="scale(0.015625)"/>
     </defs>
     <use xlink:href="#Arial-ItalicMT-394"/>
     <use xlink:href="#Arial-ItalicMT-52" transform="translate(67.089844 0)"/>
     <use xlink:href="#Arial-ItalicMT-b2" transform="translate(139.306641 0)"/>
     <use xlink:href="#Arial-ItalicMT-20" transform="translate(172.607422 0)"/>
     <use xlink:href="#Arial-ItalicMT-3d" transform="translate(200.390625 0)"/>
     <use xlink:href="#Arial-ItalicMT-20" transform="translate(258.789062 0)"/>
     <use xlink:href="#Arial-ItalicMT-37" transform="translate(286.572266 0)"/>
     <use xlink:href="#Arial-ItalicMT-2e" transform="translate(342.1875 0)"/>
     <use xlink:href="#Arial-ItalicMT-32" transform="translate(369.970703 0)"/>
     <use xlink:href="#Arial-ItalicMT-25" transform="translate(425.585938 0)"/>
    </g>
   </g>
   <g id="text_3">
    <!-- Hong Kong: Synergistic Interaction -->
    <g transform="translate(118.034063 68.7675) scale(0.12 -0.12)">
     <defs>
      <path id="Arial-BoldMT-48" d="M 469 0 
L 469 4581 
L 1394 4581 
L 1394 2778 
L 3206 2778 
L 3206 4581 
L 4131 4581 
L 4131 0 
L 3206 0 
L 3206 2003 
L 1394 2003 
L 1394 0 
L 469 0 
z
" transform="scale(0.015625)"/>
      <path id="Arial-BoldMT-6f" d="M 256 1706 
Q 256 2144 472 2553 
Q 688 2963 1083 3178 
Q 1478 3394 1966 3394 
Q 2719 3394 3200 2905 
Q 3681 2416 3681 1669 
Q 3681 916 3195 420 
Q 2709 -75 1972 -75 
Q 1516 -75 1102 131 
Q 688 338 472 736 
Q 256 1134 256 1706 
z
M 1156 1659 
Q 1156 1166 1390 903 
Q 1625 641 1969 641 
Q 2313 641 2545 903 
Q 2778 1166 2778 1666 
Q 2778 2153 2545 2415 
Q 2313 2678 1969 2678 
Q 1625 2678 1390 2415 
Q 1156 2153 1156 1659 
z
" transform="scale(0.015625)"/>
      <path id="Arial-BoldMT-4b" d="M 478 0 
L 478 4581 
L 1403 4581 
L 1403 2547 
L 3272 4581 
L 4516 4581 
L 2791 2797 
L 4609 0 
L 3413 0 
L 2153 2150 
L 1403 1384 
L 1403 0 
L 478 0 
z
" transform="scale(0.015625)"/>
      <path id="Arial-BoldMT-3a" d="M 628 2441 
L 628 3319 
L 1506 3319 
L 1506 2441 
L 628 2441 
z
M 628 0 
L 628 878 
L 1506 878 
L 1506 0 
L 628 0 
z
" transform="scale(0.015625)"/>
      <path id="Arial-BoldMT-69" d="M 459 3769 
L 459 4581 
L 1338 4581 
L 1338 3769 
L 459 3769 
z
M 459 0 
L 459 3319 
L 1338 3319 
L 1338 0 
L 459 0 
z
" transform="scale(0.015625)"/>
      <path id="Arial-BoldMT-73" d="M 150 947 
L 1031 1081 
Q 1088 825 1259 692 
Q 1431 559 1741 559 
Q 2081 559 2253 684 
Q 2369 772 2369 919 
Q 2369 1019 2306 1084 
Q 2241 1147 2013 1200 
Q 950 1434 666 1628 
Q 272 1897 272 2375 
Q 272 2806 612 3100 
Q 953 3394 1669 3394 
Q 2350 3394 2681 3172 
Q 3013 2950 3138 2516 
L 2309 2363 
Q 2256 2556 2107 2659 
Q 1959 2763 1684 2763 
Q 1338 2763 1188 2666 
Q 1088 2597 1088 2488 
Q 1088 2394 1175 2328 
Q 1294 2241 1995 2081 
Q 2697 1922 2975 1691 
Q 3250 1456 3250 1038 
Q 3250 581 2869 253 
Q 2488 -75 1741 -75 
Q 1063 -75 667 200 
Q 272 475 150 947 
z
" transform="scale(0.015625)"/>
      <path id="Arial-BoldMT-74" d="M 1981 3319 
L 1981 2619 
L 1381 2619 
L 1381 1281 
Q 1381 875 1398 808 
Q 1416 741 1477 697 
Q 1538 653 1625 653 
Q 1747 653 1978 738 
L 2053 56 
Q 1747 -75 1359 -75 
Q 1122 -75 931 4 
Q 741 84 652 211 
Q 563 338 528 553 
Q 500 706 500 1172 
L 500 2619 
L 97 2619 
L 97 3319 
L 500 3319 
L 500 3978 
L 1381 4491 
L 1381 3319 
L 1981 3319 
z
" transform="scale(0.015625)"/>
      <path id="Arial-BoldMT-63" d="M 3353 2338 
L 2488 2181 
Q 2444 2441 2289 2572 
Q 2134 2703 1888 2703 
Q 1559 2703 1364 2476 
Q 1169 2250 1169 1719 
Q 1169 1128 1367 884 
Q 1566 641 1900 641 
Q 2150 641 2309 783 
Q 2469 925 2534 1272 
L 3397 1125 
Q 3263 531 2881 228 
Q 2500 -75 1859 -75 
Q 1131 -75 698 384 
Q 266 844 266 1656 
Q 266 2478 700 2936 
Q 1134 3394 1875 3394 
Q 2481 3394 2839 3133 
Q 3197 2872 3353 2338 
z
" transform="scale(0.015625)"/>
      <path id="Arial-BoldMT-49" d="M 438 0 
L 438 4581 
L 1363 4581 
L 1363 0 
L 438 0 
z
" transform="scale(0.015625)"/>
      <path id="Arial-BoldMT-61" d="M 1116 2306 
L 319 2450 
Q 453 2931 781 3162 
Q 1109 3394 1756 3394 
Q 2344 3394 2631 3255 
Q 2919 3116 3036 2902 
Q 3153 2688 3153 2116 
L 3144 1091 
Q 3144 653 3186 445 
Q 3228 238 3344 0 
L 2475 0 
Q 2441 88 2391 259 
Q 2369 338 2359 363 
Q 2134 144 1878 34 
Q 1622 -75 1331 -75 
Q 819 -75 523 203 
Q 228 481 228 906 
Q 228 1188 362 1408 
Q 497 1628 739 1745 
Q 981 1863 1438 1950 
Q 2053 2066 2291 2166 
L 2291 2253 
Q 2291 2506 2166 2614 
Q 2041 2722 1694 2722 
Q 1459 2722 1328 2630 
Q 1197 2538 1116 2306 
z
M 2291 1594 
Q 2122 1538 1756 1459 
Q 1391 1381 1278 1306 
Q 1106 1184 1106 997 
Q 1106 813 1243 678 
Q 1381 544 1594 544 
Q 1831 544 2047 700 
Q 2206 819 2256 991 
Q 2291 1103 2291 1419 
L 2291 1594 
z
" transform="scale(0.015625)"/>
     </defs>
     <use xlink:href="#Arial-BoldMT-48"/>
     <use xlink:href="#Arial-BoldMT-6f" transform="translate(72.216797 0)"/>
     <use xlink:href="#Arial-BoldMT-6e" transform="translate(133.300781 0)"/>
     <use xlink:href="#Arial-BoldMT-67" transform="translate(194.384766 0)"/>
     <use xlink:href="#Arial-BoldMT-20" transform="translate(255.46875 0)"/>
     <use xlink:href="#Arial-BoldMT-4b" transform="translate(283.251953 0)"/>
     <use xlink:href="#Arial-BoldMT-6f" transform="translate(355.46875 0)"/>
     <use xlink:href="#Arial-BoldMT-6e" transform="translate(416.552734 0)"/>
     <use xlink:href="#Arial-BoldMT-67" transform="translate(477.636719 0)"/>
     <use xlink:href="#Arial-BoldMT-3a" transform="translate(538.720703 0)"/>
     <use xlink:href="#Arial-BoldMT-20" transform="translate(572.021484 0)"/>
     <use xlink:href="#Arial-BoldMT-53" transform="translate(599.804688 0)"/>
     <use xlink:href="#Arial-BoldMT-79" transform="translate(666.503906 0)"/>
     <use xlink:href="#Arial-BoldMT-6e" transform="translate(722.119141 0)"/>
     <use xlink:href="#Arial-BoldMT-65" transform="translate(783.203125 0)"/>
     <use xlink:href="#Arial-BoldMT-72" transform="translate(838.818359 0)"/>
     <use xlink:href="#Arial-BoldMT-67" transform="translate(877.734375 0)"/>
     <use xlink:href="#Arial-BoldMT-69" transform="translate(938.818359 0)"/>
     <use xlink:href="#Arial-BoldMT-73" transform="translate(966.601562 0)"/>
     <use xlink:href="#Arial-BoldMT-74" transform="translate(1022.216797 0)"/>
     <use xlink:href="#Arial-BoldMT-69" transform="translate(1055.517578 0)"/>
     <use xlink:href="#Arial-BoldMT-63" transform="translate(1083.300781 0)"/>
     <use xlink:href="#Arial-BoldMT-20" transform="translate(1138.916016 0)"/>
     <use xlink:href="#Arial-BoldMT-49" transform="translate(1166.699219 0)"/>
     <use xlink:href="#Arial-BoldMT-6e" transform="translate(1194.482422 0)"/>
     <use xlink:href="#Arial-BoldMT-74" transform="translate(1255.566406 0)"/>
     <use xlink:href="#Arial-BoldMT-65" transform="translate(1288.867188 0)"/>
     <use xlink:href="#Arial-BoldMT-72" transform="translate(1344.482422 0)"/>
     <use xlink:href="#Arial-BoldMT-61" transform="translate(1383.398438 0)"/>
     <use xlink:href="#Arial-BoldMT-63" transform="translate(1439.013672 0)"/>
     <use xlink:href="#Arial-BoldMT-74" transform="translate(1494.628906 0)"/>
     <use xlink:href="#Arial-BoldMT-69" transform="translate(1527.929688 0)"/>
     <use xlink:href="#Arial-BoldMT-6f" transform="translate(1555.712891 0)"/>
     <use xlink:href="#Arial-BoldMT-6e" transform="translate(1616.796875 0)"/>
    </g>
   </g>
   <g id="patch_5">
    <path d="M 218.7 331.770087 
C 231.794735 331.770087 244.354906 328.126195 253.614281 321.640936 
C 262.873657 315.155676 268.07625 306.358542 268.07625 297.187 
C 268.07625 288.015458 262.873657 279.218324 253.614281 272.733064 
C 244.354906 266.247805 231.794735 262.603912 218.7 262.603912 
C 205.605265 262.603912 193.045094 266.247805 183.785719 272.733064 
C 174.526343 279.218324 169.32375 288.015458 169.32375 297.187 
C 169.32375 306.358542 174.526343 315.155676 183.785719 321.640936 
C 193.045094 328.126195 205.605265 331.770087 218.7 331.770087 
z
" clip-path="url(#pe9aa366b75)" style="fill: #f7f7f7; stroke: #333333; stroke-width: 2; stroke-linejoin: miter"/>
   </g>
   <g id="patch_6">
    <path d="M 218.7 226.200662 
C 229.727145 226.200662 240.304131 223.132122 248.1015 217.67085 
C 255.898869 212.209579 260.28 204.801466 260.28 197.078062 
C 260.28 189.354659 255.898869 181.946546 248.1015 176.485275 
C 240.304131 171.024003 229.727145 167.955462 218.7 167.955462 
C 207.672855 167.955462 197.095869 171.024003 189.2985 176.485275 
C 181.501131 181.946546 177.12 189.354659 177.12 197.078062 
C 177.12 204.801466 181.501131 212.209579 189.2985 217.67085 
C 197.095869 223.132122 207.672855 226.200662 218.7 226.200662 
z
" clip-path="url(#pe9aa366b75)" style="fill: #d1e5f0; stroke: #4dac26; stroke-width: 1.5; stroke-linejoin: miter"/>
   </g>
   <g id="patch_7">
    <path d="M 94.917907 376.364069 
C 105.945051 376.364069 116.522038 373.295528 124.319406 367.834257 
C 132.116775 362.372985 136.497907 354.964873 136.497907 347.241469 
C 136.497907 339.518065 132.116775 332.109952 124.319406 326.648681 
C 116.522038 321.18741 105.945051 318.118869 94.917907 318.118869 
C 83.890762 318.118869 73.313775 321.18741 65.516407 326.648681 
C 57.719038 332.109952 53.337907 339.518065 53.337907 347.241469 
C 53.337907 354.964873 57.719038 362.372985 65.516407 367.834257 
C 73.313775 373.295528 83.890762 376.364069 94.917907 376.364069 
z
" clip-path="url(#pe9aa366b75)" style="fill: #d1e5f0; stroke: #4dac26; stroke-width: 1.5; stroke-linejoin: miter"/>
   </g>
   <g id="patch_8">
    <path d="M 342.482093 376.364069 
C 353.509238 376.364069 364.086225 373.295528 371.883593 367.834257 
C 379.680962 362.372985 384.062093 354.964873 384.062093 347.241469 
C 384.062093 339.518065 379.680962 332.109952 371.883593 326.648681 
C 364.086225 321.18741 353.509238 318.118869 342.482093 318.118869 
C 331.454949 318.118869 320.877962 321.18741 313.080594 326.648681 
C 305.283225 332.109952 300.902093 339.518065 300.902093 347.241469 
C 300.902093 354.964873 305.283225 362.372985 313.080594 367.834257 
C 320.877962 373.295528 331.454949 376.364069 342.482093 376.364069 
z
" clip-path="url(#pe9aa366b75)" style="fill: #d1e5f0; stroke: #4dac26; stroke-width: 1.5; stroke-linejoin: miter"/>
   </g>
   <g id="text_4">
    <!-- Cross-Cultural -->
    <g transform="translate(183.975 294.3187) scale(0.1 -0.1)">
     <defs>
      <path id="Arial-BoldMT-43" d="M 3397 1684 
L 4294 1400 
Q 4088 650 3608 286 
Q 3128 -78 2391 -78 
Q 1478 -78 890 545 
Q 303 1169 303 2250 
Q 303 3394 893 4026 
Q 1484 4659 2447 4659 
Q 3288 4659 3813 4163 
Q 4125 3869 4281 3319 
L 3366 3100 
Q 3284 3456 3026 3662 
Q 2769 3869 2400 3869 
Q 1891 3869 1573 3503 
Q 1256 3138 1256 2319 
Q 1256 1450 1568 1081 
Q 1881 713 2381 713 
Q 2750 713 3015 947 
Q 3281 1181 3397 1684 
z
" transform="scale(0.015625)"/>
      <path id="Arial-BoldMT-2d" d="M 359 1222 
L 359 2100 
L 2084 2100 
L 2084 1222 
L 359 1222 
z
" transform="scale(0.015625)"/>
      <path id="Arial-BoldMT-75" d="M 2644 0 
L 2644 497 
Q 2463 231 2167 78 
Q 1872 -75 1544 -75 
Q 1209 -75 943 72 
Q 678 219 559 484 
Q 441 750 441 1219 
L 441 3319 
L 1319 3319 
L 1319 1794 
Q 1319 1094 1367 936 
Q 1416 778 1544 686 
Q 1672 594 1869 594 
Q 2094 594 2272 717 
Q 2450 841 2515 1023 
Q 2581 1206 2581 1919 
L 2581 3319 
L 3459 3319 
L 3459 0 
L 2644 0 
z
" transform="scale(0.015625)"/>
      <path id="Arial-BoldMT-6c" d="M 459 0 
L 459 4581 
L 1338 4581 
L 1338 0 
L 459 0 
z
" transform="scale(0.015625)"/>
     </defs>
     <use xlink:href="#Arial-BoldMT-43"/>
     <use xlink:href="#Arial-BoldMT-72" transform="translate(72.216797 0)"/>
     <use xlink:href="#Arial-BoldMT-6f" transform="translate(111.132812 0)"/>
     <use xlink:href="#Arial-BoldMT-73" transform="translate(172.216797 0)"/>
     <use xlink:href="#Arial-BoldMT-73" transform="translate(227.832031 0)"/>
     <use xlink:href="#Arial-BoldMT-2d" transform="translate(283.447266 0)"/>
     <use xlink:href="#Arial-BoldMT-43" transform="translate(316.748047 0)"/>
     <use xlink:href="#Arial-BoldMT-75" transform="translate(388.964844 0)"/>
     <use xlink:href="#Arial-BoldMT-6c" transform="translate(450.048828 0)"/>
     <use xlink:href="#Arial-BoldMT-74" transform="translate(477.832031 0)"/>
     <use xlink:href="#Arial-BoldMT-75" transform="translate(511.132812 0)"/>
     <use xlink:href="#Arial-BoldMT-72" transform="translate(572.216797 0)"/>
     <use xlink:href="#Arial-BoldMT-61" transform="translate(611.132812 0)"/>
     <use xlink:href="#Arial-BoldMT-6c" transform="translate(666.748047 0)"/>
    </g>
   </g>
   <g id="text_5">
    <!-- Adaptation -->
    <g transform="translate(192.59375 310.700162) scale(0.1 -0.1)">
     <defs>
      <path id="Arial-BoldMT-41" d="M 4597 0 
L 3591 0 
L 3191 1041 
L 1359 1041 
L 981 0 
L 0 0 
L 1784 4581 
L 2763 4581 
L 4597 0 
z
M 2894 1813 
L 2263 3513 
L 1644 1813 
L 2894 1813 
z
" transform="scale(0.015625)"/>
      <path id="Arial-BoldMT-64" d="M 3503 0 
L 2688 0 
L 2688 488 
Q 2484 203 2207 64 
Q 1931 -75 1650 -75 
Q 1078 -75 670 386 
Q 263 847 263 1672 
Q 263 2516 659 2955 
Q 1056 3394 1663 3394 
Q 2219 3394 2625 2931 
L 2625 4581 
L 3503 4581 
L 3503 0 
z
M 1159 1731 
Q 1159 1200 1306 963 
Q 1519 619 1900 619 
Q 2203 619 2415 876 
Q 2628 1134 2628 1647 
Q 2628 2219 2422 2470 
Q 2216 2722 1894 2722 
Q 1581 2722 1370 2473 
Q 1159 2225 1159 1731 
z
" transform="scale(0.015625)"/>
      <path id="Arial-BoldMT-70" d="M 434 3319 
L 1253 3319 
L 1253 2831 
Q 1413 3081 1684 3237 
Q 1956 3394 2288 3394 
Q 2866 3394 3269 2941 
Q 3672 2488 3672 1678 
Q 3672 847 3265 386 
Q 2859 -75 2281 -75 
Q 2006 -75 1782 34 
Q 1559 144 1313 409 
L 1313 -1263 
L 434 -1263 
L 434 3319 
z
M 1303 1716 
Q 1303 1156 1525 889 
Q 1747 622 2066 622 
Q 2372 622 2575 867 
Q 2778 1113 2778 1672 
Q 2778 2194 2568 2447 
Q 2359 2700 2050 2700 
Q 1728 2700 1515 2451 
Q 1303 2203 1303 1716 
z
" transform="scale(0.015625)"/>
     </defs>
     <use xlink:href="#Arial-BoldMT-41"/>
     <use xlink:href="#Arial-BoldMT-64" transform="translate(72.216797 0)"/>
     <use xlink:href="#Arial-BoldMT-61" transform="translate(133.300781 0)"/>
     <use xlink:href="#Arial-BoldMT-70" transform="translate(188.916016 0)"/>
     <use xlink:href="#Arial-BoldMT-74" transform="translate(250 0)"/>
     <use xlink:href="#Arial-BoldMT-61" transform="translate(283.300781 0)"/>
     <use xlink:href="#Arial-BoldMT-74" transform="translate(338.916016 0)"/>
     <use xlink:href="#Arial-BoldMT-69" transform="translate(372.216797 0)"/>
     <use xlink:href="#Arial-BoldMT-6f" transform="translate(400 0)"/>
     <use xlink:href="#Arial-BoldMT-6e" transform="translate(461.083984 0)"/>
    </g>
   </g>
   <g id="text_6">
    <!-- Social -->
    <g transform="translate(205.76293 194.509945) scale(0.095 -0.095)">
     <defs>
      <path id="ArialMT-53" d="M 288 1472 
L 859 1522 
Q 900 1178 1048 958 
Q 1197 738 1509 602 
Q 1822 466 2213 466 
Q 2559 466 2825 569 
Q 3091 672 3220 851 
Q 3350 1031 3350 1244 
Q 3350 1459 3225 1620 
Q 3100 1781 2813 1891 
Q 2628 1963 1997 2114 
Q 1366 2266 1113 2400 
Q 784 2572 623 2826 
Q 463 3081 463 3397 
Q 463 3744 659 4045 
Q 856 4347 1234 4503 
Q 1613 4659 2075 4659 
Q 2584 4659 2973 4495 
Q 3363 4331 3572 4012 
Q 3781 3694 3797 3291 
L 3216 3247 
Q 3169 3681 2898 3903 
Q 2628 4125 2100 4125 
Q 1550 4125 1298 3923 
Q 1047 3722 1047 3438 
Q 1047 3191 1225 3031 
Q 1400 2872 2139 2705 
Q 2878 2538 3153 2413 
Q 3553 2228 3743 1945 
Q 3934 1663 3934 1294 
Q 3934 928 3725 604 
Q 3516 281 3123 101 
Q 2731 -78 2241 -78 
Q 1619 -78 1198 103 
Q 778 284 539 648 
Q 300 1013 288 1472 
z
" transform="scale(0.015625)"/>
      <path id="ArialMT-6f" d="M 213 1659 
Q 213 2581 725 3025 
Q 1153 3394 1769 3394 
Q 2453 3394 2887 2945 
Q 3322 2497 3322 1706 
Q 3322 1066 3130 698 
Q 2938 331 2570 128 
Q 2203 -75 1769 -75 
Q 1072 -75 642 372 
Q 213 819 213 1659 
z
M 791 1659 
Q 791 1022 1069 705 
Q 1347 388 1769 388 
Q 2188 388 2466 706 
Q 2744 1025 2744 1678 
Q 2744 2294 2464 2611 
Q 2184 2928 1769 2928 
Q 1347 2928 1069 2612 
Q 791 2297 791 1659 
z
" transform="scale(0.015625)"/>
      <path id="ArialMT-63" d="M 2588 1216 
L 3141 1144 
Q 3050 572 2676 248 
Q 2303 -75 1759 -75 
Q 1078 -75 664 370 
Q 250 816 250 1647 
Q 250 2184 428 2587 
Q 606 2991 970 3192 
Q 1334 3394 1763 3394 
Q 2303 3394 2647 3120 
Q 2991 2847 3088 2344 
L 2541 2259 
Q 2463 2594 2264 2762 
Q 2066 2931 1784 2931 
Q 1359 2931 1093 2626 
Q 828 2322 828 1663 
Q 828 994 1084 691 
Q 1341 388 1753 388 
Q 2084 388 2306 591 
Q 2528 794 2588 1216 
z
" transform="scale(0.015625)"/>
      <path id="ArialMT-69" d="M 425 3934 
L 425 4581 
L 988 4581 
L 988 3934 
L 425 3934 
z
M 425 0 
L 425 3319 
L 988 3319 
L 988 0 
L 425 0 
z
" transform="scale(0.015625)"/>
      <path id="ArialMT-61" d="M 2588 409 
Q 2275 144 1986 34 
Q 1697 -75 1366 -75 
Q 819 -75 525 192 
Q 231 459 231 875 
Q 231 1119 342 1320 
Q 453 1522 633 1644 
Q 813 1766 1038 1828 
Q 1203 1872 1538 1913 
Q 2219 1994 2541 2106 
Q 2544 2222 2544 2253 
Q 2544 2597 2384 2738 
Q 2169 2928 1744 2928 
Q 1347 2928 1158 2789 
Q 969 2650 878 2297 
L 328 2372 
Q 403 2725 575 2942 
Q 747 3159 1072 3276 
Q 1397 3394 1825 3394 
Q 2250 3394 2515 3294 
Q 2781 3194 2906 3042 
Q 3031 2891 3081 2659 
Q 3109 2516 3109 2141 
L 3109 1391 
Q 3109 606 3145 398 
Q 3181 191 3288 0 
L 2700 0 
Q 2613 175 2588 409 
z
M 2541 1666 
Q 2234 1541 1622 1453 
Q 1275 1403 1131 1340 
Q 988 1278 909 1158 
Q 831 1038 831 891 
Q 831 666 1001 516 
Q 1172 366 1500 366 
Q 1825 366 2078 508 
Q 2331 650 2450 897 
Q 2541 1088 2541 1459 
L 2541 1666 
z
" transform="scale(0.015625)"/>
      <path id="ArialMT-6c" d="M 409 0 
L 409 4581 
L 972 4581 
L 972 0 
L 409 0 
z
" transform="scale(0.015625)"/>
     </defs>
     <use xlink:href="#ArialMT-53"/>
     <use xlink:href="#ArialMT-6f" transform="translate(66.699219 0)"/>
     <use xlink:href="#ArialMT-63" transform="translate(122.314453 0)"/>
     <use xlink:href="#ArialMT-69" transform="translate(172.314453 0)"/>
     <use xlink:href="#ArialMT-61" transform="translate(194.53125 0)"/>
     <use xlink:href="#ArialMT-6c" transform="translate(250.146484 0)"/>
    </g>
    <!-- Contact -->
    <g transform="translate(202.331055 204.557977) scale(0.095 -0.095)">
     <defs>
      <path id="ArialMT-43" d="M 3763 1606 
L 4369 1453 
Q 4178 706 3683 314 
Q 3188 -78 2472 -78 
Q 1731 -78 1267 223 
Q 803 525 561 1097 
Q 319 1669 319 2325 
Q 319 3041 592 3573 
Q 866 4106 1370 4382 
Q 1875 4659 2481 4659 
Q 3169 4659 3637 4309 
Q 4106 3959 4291 3325 
L 3694 3184 
Q 3534 3684 3231 3912 
Q 2928 4141 2469 4141 
Q 1941 4141 1586 3887 
Q 1231 3634 1087 3207 
Q 944 2781 944 2328 
Q 944 1744 1114 1308 
Q 1284 872 1643 656 
Q 2003 441 2422 441 
Q 2931 441 3284 734 
Q 3638 1028 3763 1606 
z
" transform="scale(0.015625)"/>
      <path id="ArialMT-6e" d="M 422 0 
L 422 3319 
L 928 3319 
L 928 2847 
Q 1294 3394 1984 3394 
Q 2284 3394 2536 3286 
Q 2788 3178 2913 3003 
Q 3038 2828 3088 2588 
Q 3119 2431 3119 2041 
L 3119 0 
L 2556 0 
L 2556 2019 
Q 2556 2363 2490 2533 
Q 2425 2703 2258 2804 
Q 2091 2906 1866 2906 
Q 1506 2906 1245 2678 
Q 984 2450 984 1813 
L 984 0 
L 422 0 
z
" transform="scale(0.015625)"/>
      <path id="ArialMT-74" d="M 1650 503 
L 1731 6 
Q 1494 -44 1306 -44 
Q 1000 -44 831 53 
Q 663 150 594 308 
Q 525 466 525 972 
L 525 2881 
L 113 2881 
L 113 3319 
L 525 3319 
L 525 4141 
L 1084 4478 
L 1084 3319 
L 1650 3319 
L 1650 2881 
L 1084 2881 
L 1084 941 
Q 1084 700 1114 631 
Q 1144 563 1211 522 
Q 1278 481 1403 481 
Q 1497 481 1650 503 
z
" transform="scale(0.015625)"/>
     </defs>
     <use xlink:href="#ArialMT-43"/>
     <use xlink:href="#ArialMT-6f" transform="translate(72.216797 0)"/>
     <use xlink:href="#ArialMT-6e" transform="translate(127.832031 0)"/>
     <use xlink:href="#ArialMT-74" transform="translate(183.447266 0)"/>
     <use xlink:href="#ArialMT-61" transform="translate(211.230469 0)"/>
     <use xlink:href="#ArialMT-63" transform="translate(266.845703 0)"/>
     <use xlink:href="#ArialMT-74" transform="translate(316.845703 0)"/>
    </g>
   </g>
   <g id="text_7">
    <!-- Comm. -->
    <g transform="translate(79.613258 344.60032) scale(0.095 -0.095)">
     <defs>
      <path id="ArialMT-6d" d="M 422 0 
L 422 3319 
L 925 3319 
L 925 2853 
Q 1081 3097 1340 3245 
Q 1600 3394 1931 3394 
Q 2300 3394 2536 3241 
Q 2772 3088 2869 2813 
Q 3263 3394 3894 3394 
Q 4388 3394 4653 3120 
Q 4919 2847 4919 2278 
L 4919 0 
L 4359 0 
L 4359 2091 
Q 4359 2428 4304 2576 
Q 4250 2725 4106 2815 
Q 3963 2906 3769 2906 
Q 3419 2906 3187 2673 
Q 2956 2441 2956 1928 
L 2956 0 
L 2394 0 
L 2394 2156 
Q 2394 2531 2256 2718 
Q 2119 2906 1806 2906 
Q 1569 2906 1367 2781 
Q 1166 2656 1075 2415 
Q 984 2175 984 1722 
L 984 0 
L 422 0 
z
" transform="scale(0.015625)"/>
      <path id="ArialMT-2e" d="M 581 0 
L 581 641 
L 1222 641 
L 1222 0 
L 581 0 
z
" transform="scale(0.015625)"/>
     </defs>
     <use xlink:href="#ArialMT-43"/>
     <use xlink:href="#ArialMT-6f" transform="translate(72.216797 0)"/>
     <use xlink:href="#ArialMT-6d" transform="translate(127.832031 0)"/>
     <use xlink:href="#ArialMT-6d" transform="translate(211.132812 0)"/>
     <use xlink:href="#ArialMT-2e" transform="translate(294.433594 0)"/>
    </g>
    <!-- Openness -->
    <g transform="translate(73.266071 354.794414) scale(0.095 -0.095)">
     <defs>
      <path id="ArialMT-4f" d="M 309 2231 
Q 309 3372 921 4017 
Q 1534 4663 2503 4663 
Q 3138 4663 3647 4359 
Q 4156 4056 4423 3514 
Q 4691 2972 4691 2284 
Q 4691 1588 4409 1038 
Q 4128 488 3612 205 
Q 3097 -78 2500 -78 
Q 1853 -78 1343 234 
Q 834 547 571 1087 
Q 309 1628 309 2231 
z
M 934 2222 
Q 934 1394 1379 917 
Q 1825 441 2497 441 
Q 3181 441 3623 922 
Q 4066 1403 4066 2288 
Q 4066 2847 3877 3264 
Q 3688 3681 3323 3911 
Q 2959 4141 2506 4141 
Q 1863 4141 1398 3698 
Q 934 3256 934 2222 
z
" transform="scale(0.015625)"/>
      <path id="ArialMT-70" d="M 422 -1272 
L 422 3319 
L 934 3319 
L 934 2888 
Q 1116 3141 1344 3267 
Q 1572 3394 1897 3394 
Q 2322 3394 2647 3175 
Q 2972 2956 3137 2557 
Q 3303 2159 3303 1684 
Q 3303 1175 3120 767 
Q 2938 359 2589 142 
Q 2241 -75 1856 -75 
Q 1575 -75 1351 44 
Q 1128 163 984 344 
L 984 -1272 
L 422 -1272 
z
M 931 1641 
Q 931 1000 1190 694 
Q 1450 388 1819 388 
Q 2194 388 2461 705 
Q 2728 1022 2728 1688 
Q 2728 2322 2467 2637 
Q 2206 2953 1844 2953 
Q 1484 2953 1207 2617 
Q 931 2281 931 1641 
z
" transform="scale(0.015625)"/>
      <path id="ArialMT-65" d="M 2694 1069 
L 3275 997 
Q 3138 488 2766 206 
Q 2394 -75 1816 -75 
Q 1088 -75 661 373 
Q 234 822 234 1631 
Q 234 2469 665 2931 
Q 1097 3394 1784 3394 
Q 2450 3394 2872 2941 
Q 3294 2488 3294 1666 
Q 3294 1616 3291 1516 
L 816 1516 
Q 847 969 1125 678 
Q 1403 388 1819 388 
Q 2128 388 2347 550 
Q 2566 713 2694 1069 
z
M 847 1978 
L 2700 1978 
Q 2663 2397 2488 2606 
Q 2219 2931 1791 2931 
Q 1403 2931 1139 2672 
Q 875 2413 847 1978 
z
" transform="scale(0.015625)"/>
      <path id="ArialMT-73" d="M 197 991 
L 753 1078 
Q 800 744 1014 566 
Q 1228 388 1613 388 
Q 2000 388 2187 545 
Q 2375 703 2375 916 
Q 2375 1106 2209 1216 
Q 2094 1291 1634 1406 
Q 1016 1563 777 1677 
Q 538 1791 414 1992 
Q 291 2194 291 2438 
Q 291 2659 392 2848 
Q 494 3038 669 3163 
Q 800 3259 1026 3326 
Q 1253 3394 1513 3394 
Q 1903 3394 2198 3281 
Q 2494 3169 2634 2976 
Q 2775 2784 2828 2463 
L 2278 2388 
Q 2241 2644 2061 2787 
Q 1881 2931 1553 2931 
Q 1166 2931 1000 2803 
Q 834 2675 834 2503 
Q 834 2394 903 2306 
Q 972 2216 1119 2156 
Q 1203 2125 1616 2013 
Q 2213 1853 2448 1751 
Q 2684 1650 2818 1456 
Q 2953 1263 2953 975 
Q 2953 694 2789 445 
Q 2625 197 2315 61 
Q 2006 -75 1616 -75 
Q 969 -75 630 194 
Q 291 463 197 991 
z
" transform="scale(0.015625)"/>
     </defs>
     <use xlink:href="#ArialMT-4f"/>
     <use xlink:href="#ArialMT-70" transform="translate(77.783203 0)"/>
     <use xlink:href="#ArialMT-65" transform="translate(133.398438 0)"/>
     <use xlink:href="#ArialMT-6e" transform="translate(189.013672 0)"/>
     <use xlink:href="#ArialMT-6e" transform="translate(244.628906 0)"/>
     <use xlink:href="#ArialMT-65" transform="translate(300.244141 0)"/>
     <use xlink:href="#ArialMT-73" transform="translate(355.859375 0)"/>
     <use xlink:href="#ArialMT-73" transform="translate(405.859375 0)"/>
    </g>
   </g>
   <g id="text_8">
    <!-- Sense of -->
    <g transform="translate(323.733695 344.673352) scale(0.095 -0.095)">
     <defs>
      <path id="ArialMT-20" transform="scale(0.015625)"/>
      <path id="ArialMT-66" d="M 556 0 
L 556 2881 
L 59 2881 
L 59 3319 
L 556 3319 
L 556 3672 
Q 556 4006 616 4169 
Q 697 4388 901 4523 
Q 1106 4659 1475 4659 
Q 1713 4659 2000 4603 
L 1916 4113 
Q 1741 4144 1584 4144 
Q 1328 4144 1222 4034 
Q 1116 3925 1116 3625 
L 1116 3319 
L 1763 3319 
L 1763 2881 
L 1116 2881 
L 1116 0 
L 556 0 
z
" transform="scale(0.015625)"/>
     </defs>
     <use xlink:href="#ArialMT-53"/>
     <use xlink:href="#ArialMT-65" transform="translate(66.699219 0)"/>
     <use xlink:href="#ArialMT-6e" transform="translate(122.314453 0)"/>
     <use xlink:href="#ArialMT-73" transform="translate(177.929688 0)"/>
     <use xlink:href="#ArialMT-65" transform="translate(227.929688 0)"/>
     <use xlink:href="#ArialMT-20" transform="translate(283.544922 0)"/>
     <use xlink:href="#ArialMT-6f" transform="translate(311.328125 0)"/>
     <use xlink:href="#ArialMT-66" transform="translate(366.943359 0)"/>
    </g>
    <!-- Connectedness -->
    <g transform="translate(309.475531 354.721383) scale(0.095 -0.095)">
     <defs>
      <path id="ArialMT-64" d="M 2575 0 
L 2575 419 
Q 2259 -75 1647 -75 
Q 1250 -75 917 144 
Q 584 363 401 755 
Q 219 1147 219 1656 
Q 219 2153 384 2558 
Q 550 2963 881 3178 
Q 1213 3394 1622 3394 
Q 1922 3394 2156 3267 
Q 2391 3141 2538 2938 
L 2538 4581 
L 3097 4581 
L 3097 0 
L 2575 0 
z
M 797 1656 
Q 797 1019 1065 703 
Q 1334 388 1700 388 
Q 2069 388 2326 689 
Q 2584 991 2584 1609 
Q 2584 2291 2321 2609 
Q 2059 2928 1675 2928 
Q 1300 2928 1048 2622 
Q 797 2316 797 1656 
z
" transform="scale(0.015625)"/>
     </defs>
     <use xlink:href="#ArialMT-43"/>
     <use xlink:href="#ArialMT-6f" transform="translate(72.216797 0)"/>
     <use xlink:href="#ArialMT-6e" transform="translate(127.832031 0)"/>
     <use xlink:href="#ArialMT-6e" transform="translate(183.447266 0)"/>
     <use xlink:href="#ArialMT-65" transform="translate(239.0625 0)"/>
     <use xlink:href="#ArialMT-63" transform="translate(294.677734 0)"/>
     <use xlink:href="#ArialMT-74" transform="translate(344.677734 0)"/>
     <use xlink:href="#ArialMT-65" transform="translate(372.460938 0)"/>
     <use xlink:href="#ArialMT-64" transform="translate(428.076172 0)"/>
     <use xlink:href="#ArialMT-6e" transform="translate(483.691406 0)"/>
     <use xlink:href="#ArialMT-65" transform="translate(539.306641 0)"/>
     <use xlink:href="#ArialMT-73" transform="translate(594.921875 0)"/>
     <use xlink:href="#ArialMT-73" transform="translate(644.921875 0)"/>
    </g>
   </g>
  </g>
  <g id="axes_2">
   <g id="patch_9">
    <path d="M 645.3 228.204797 
Q 645.3 244.402867 645.3 258.588475 
" style="fill: none; stroke: #d6604d; stroke-width: 1.8; stroke-linecap: round"/>
    <path d="M 648.1 252.988475 
L 645.3 258.588475 
L 642.5 252.988475 
" style="fill: none; stroke: #d6604d; stroke-width: 1.8; stroke-linecap: round"/>
   </g>
   <g id="patch_10">
    <path d="M 559.381666 331.930285 
Q 580.0344 323.578821 598.821439 315.9818 
" style="fill: none; stroke: #d6604d; stroke-width: 1.8; stroke-linecap: round"/>
    <path d="M 592.580162 315.485357 
L 598.821439 315.9818 
L 594.679518 320.676956 
" style="fill: none; stroke: #d6604d; stroke-width: 1.8; stroke-linecap: round"/>
   </g>
   <g id="patch_11">
    <path d="M 731.218334 331.930285 
Q 710.5656 323.578821 691.778561 315.9818 
" style="fill: none; stroke: #d6604d; stroke-width: 1.8; stroke-linecap: round"/>
    <path d="M 695.920482 320.676956 
L 691.778561 315.9818 
L 698.019838 315.485357 
" style="fill: none; stroke: #d6604d; stroke-width: 1.8; stroke-linecap: round"/>
   </g>
   <g id="text_9">
    <!-- [-] Conflict -->
    <g style="fill: #d6604d" transform="translate(607.814063 110.016812) scale(0.15 -0.15)">
     <defs>
      <path id="Arial-BoldMT-66" d="M 75 3319 
L 563 3319 
L 563 3569 
Q 563 3988 652 4194 
Q 741 4400 980 4529 
Q 1219 4659 1584 4659 
Q 1959 4659 2319 4547 
L 2200 3934 
Q 1991 3984 1797 3984 
Q 1606 3984 1523 3895 
Q 1441 3806 1441 3553 
L 1441 3319 
L 2097 3319 
L 2097 2628 
L 1441 2628 
L 1441 0 
L 563 0 
L 563 2628 
L 75 2628 
L 75 3319 
z
" transform="scale(0.015625)"/>
     </defs>
     <use xlink:href="#Arial-BoldMT-5b"/>
     <use xlink:href="#Arial-BoldMT-2d" transform="translate(33.300781 0)"/>
     <use xlink:href="#Arial-BoldMT-5d" transform="translate(66.601562 0)"/>
     <use xlink:href="#Arial-BoldMT-20" transform="translate(99.902344 0)"/>
     <use xlink:href="#Arial-BoldMT-43" transform="translate(127.685547 0)"/>
     <use xlink:href="#Arial-BoldMT-6f" transform="translate(199.902344 0)"/>
     <use xlink:href="#Arial-BoldMT-6e" transform="translate(260.986328 0)"/>
     <use xlink:href="#Arial-BoldMT-66" transform="translate(322.070312 0)"/>
     <use xlink:href="#Arial-BoldMT-6c" transform="translate(355.371094 0)"/>
     <use xlink:href="#Arial-BoldMT-69" transform="translate(383.154297 0)"/>
     <use xlink:href="#Arial-BoldMT-63" transform="translate(410.9375 0)"/>
     <use xlink:href="#Arial-BoldMT-74" transform="translate(466.552734 0)"/>
    </g>
   </g>
   <g id="text_10">
    <!-- ΔR² = 2.3% -->
    <g style="fill: #d6604d" transform="translate(614.43 131.924156) scale(0.12 -0.12)">
     <defs>
      <path id="Arial-ItalicMT-33" d="M 350 1200 
L 900 1269 
Q 963 788 1177 580 
Q 1391 372 1738 372 
Q 2156 372 2461 672 
Q 2766 972 2766 1359 
Q 2766 1697 2537 1917 
Q 2309 2138 1925 2138 
Q 1881 2138 1744 2125 
L 1841 2597 
Q 1922 2584 1997 2584 
Q 2481 2584 2742 2820 
Q 3003 3056 3003 3400 
Q 3003 3716 2789 3931 
Q 2575 4147 2266 4147 
Q 1963 4147 1720 3926 
Q 1478 3706 1409 3303 
L 853 3416 
Q 991 3981 1381 4290 
Q 1772 4600 2306 4600 
Q 2869 4600 3217 4259 
Q 3566 3919 3566 3422 
Q 3566 3059 3377 2789 
Q 3188 2519 2809 2341 
Q 3078 2181 3211 1956 
Q 3344 1731 3344 1441 
Q 3344 825 2883 373 
Q 2422 -78 1781 -78 
Q 1159 -78 776 270 
Q 394 619 350 1200 
z
" transform="scale(0.015625)"/>
     </defs>
     <use xlink:href="#Arial-ItalicMT-394"/>
     <use xlink:href="#Arial-ItalicMT-52" transform="translate(67.089844 0)"/>
     <use xlink:href="#Arial-ItalicMT-b2" transform="translate(139.306641 0)"/>
     <use xlink:href="#Arial-ItalicMT-20" transform="translate(172.607422 0)"/>
     <use xlink:href="#Arial-ItalicMT-3d" transform="translate(200.390625 0)"/>
     <use xlink:href="#Arial-ItalicMT-20" transform="translate(258.789062 0)"/>
     <use xlink:href="#Arial-ItalicMT-32" transform="translate(286.572266 0)"/>
     <use xlink:href="#Arial-ItalicMT-2e" transform="translate(342.1875 0)"/>
     <use xlink:href="#Arial-ItalicMT-33" transform="translate(369.970703 0)"/>
     <use xlink:href="#Arial-ItalicMT-25" transform="translate(425.585938 0)"/>
    </g>
   </g>
   <g id="text_11">
    <!-- France: Conflicting Interaction -->
    <g transform="translate(558.300938 68.7675) scale(0.12 -0.12)">
     <defs>
      <path id="Arial-BoldMT-46" d="M 472 0 
L 472 4581 
L 3613 4581 
L 3613 3806 
L 1397 3806 
L 1397 2722 
L 3309 2722 
L 3309 1947 
L 1397 1947 
L 1397 0 
L 472 0 
z
" transform="scale(0.015625)"/>
     </defs>
     <use xlink:href="#Arial-BoldMT-46"/>
     <use xlink:href="#Arial-BoldMT-72" transform="translate(61.083984 0)"/>
     <use xlink:href="#Arial-BoldMT-61" transform="translate(100 0)"/>
     <use xlink:href="#Arial-BoldMT-6e" transform="translate(155.615234 0)"/>
     <use xlink:href="#Arial-BoldMT-63" transform="translate(216.699219 0)"/>
     <use xlink:href="#Arial-BoldMT-65" transform="translate(272.314453 0)"/>
     <use xlink:href="#Arial-BoldMT-3a" transform="translate(327.929688 0)"/>
     <use xlink:href="#Arial-BoldMT-20" transform="translate(361.230469 0)"/>
     <use xlink:href="#Arial-BoldMT-43" transform="translate(389.013672 0)"/>
     <use xlink:href="#Arial-BoldMT-6f" transform="translate(461.230469 0)"/>
     <use xlink:href="#Arial-BoldMT-6e" transform="translate(522.314453 0)"/>
     <use xlink:href="#Arial-BoldMT-66" transform="translate(583.398438 0)"/>
     <use xlink:href="#Arial-BoldMT-6c" transform="translate(616.699219 0)"/>
     <use xlink:href="#Arial-BoldMT-69" transform="translate(644.482422 0)"/>
     <use xlink:href="#Arial-BoldMT-63" transform="translate(672.265625 0)"/>
     <use xlink:href="#Arial-BoldMT-74" transform="translate(727.880859 0)"/>
     <use xlink:href="#Arial-BoldMT-69" transform="translate(761.181641 0)"/>
     <use xlink:href="#Arial-BoldMT-6e" transform="translate(788.964844 0)"/>
     <use xlink:href="#Arial-BoldMT-67" transform="translate(850.048828 0)"/>
     <use xlink:href="#Arial-BoldMT-20" transform="translate(911.132812 0)"/>
     <use xlink:href="#Arial-BoldMT-49" transform="translate(938.916016 0)"/>
     <use xlink:href="#Arial-BoldMT-6e" transform="translate(966.699219 0)"/>
     <use xlink:href="#Arial-BoldMT-74" transform="translate(1027.783203 0)"/>
     <use xlink:href="#Arial-BoldMT-65" transform="translate(1061.083984 0)"/>
     <use xlink:href="#Arial-BoldMT-72" transform="translate(1116.699219 0)"/>
     <use xlink:href="#Arial-BoldMT-61" transform="translate(1155.615234 0)"/>
     <use xlink:href="#Arial-BoldMT-63" transform="translate(1211.230469 0)"/>
     <use xlink:href="#Arial-BoldMT-74" transform="translate(1266.845703 0)"/>
     <use xlink:href="#Arial-BoldMT-69" transform="translate(1300.146484 0)"/>
     <use xlink:href="#Arial-BoldMT-6f" transform="translate(1327.929688 0)"/>
     <use xlink:href="#Arial-BoldMT-6e" transform="translate(1389.013672 0)"/>
    </g>
   </g>
   <g id="patch_12">
    <path d="M 645.3 331.770087 
C 658.394735 331.770087 670.954906 328.126195 680.214281 321.640936 
C 689.473657 315.155676 694.67625 306.358542 694.67625 297.187 
C 694.67625 288.015458 689.473657 279.218324 680.214281 272.733064 
C 670.954906 266.247805 658.394735 262.603912 645.3 262.603912 
C 632.205265 262.603912 619.645094 266.247805 610.385719 272.733064 
C 601.126343 279.218324 595.92375 288.015458 595.92375 297.187 
C 595.92375 306.358542 601.126343 315.155676 610.385719 321.640936 
C 619.645094 328.126195 632.205265 331.770087 645.3 331.770087 
z
" clip-path="url(#pe01899c5dd)" style="fill: #f7f7f7; stroke: #333333; stroke-width: 2; stroke-linejoin: miter"/>
   </g>
   <g id="patch_13">
    <path d="M 645.3 226.200662 
C 656.327145 226.200662 666.904131 223.132122 674.7015 217.67085 
C 682.498869 212.209579 686.88 204.801466 686.88 197.078062 
C 686.88 189.354659 682.498869 181.946546 674.7015 176.485275 
C 666.904131 171.024003 656.327145 167.955462 645.3 167.955462 
C 634.272855 167.955462 623.695869 171.024003 615.8985 176.485275 
C 608.101131 181.946546 603.72 189.354659 603.72 197.078062 
C 603.72 204.801466 608.101131 212.209579 615.8985 217.67085 
C 623.695869 223.132122 634.272855 226.200662 645.3 226.200662 
z
" clip-path="url(#pe01899c5dd)" style="fill: #fddbc7; stroke: #d6604d; stroke-width: 1.5; stroke-linejoin: miter"/>
   </g>
   <g id="patch_14">
    <path d="M 521.517907 376.364069 
C 532.545051 376.364069 543.122038 373.295528 550.919406 367.834257 
C 558.716775 362.372985 563.097907 354.964873 563.097907 347.241469 
C 563.097907 339.518065 558.716775 332.109952 550.919406 326.648681 
C 543.122038 321.18741 532.545051 318.118869 521.517907 318.118869 
C 510.490762 318.118869 499.913775 321.18741 492.116407 326.648681 
C 484.319038 332.109952 479.937907 339.518065 479.937907 347.241469 
C 479.937907 354.964873 484.319038 362.372985 492.116407 367.834257 
C 499.913775 373.295528 510.490762 376.364069 521.517907 376.364069 
z
" clip-path="url(#pe01899c5dd)" style="fill: #fddbc7; stroke: #d6604d; stroke-width: 1.5; stroke-linejoin: miter"/>
   </g>
   <g id="patch_15">
    <path d="M 769.082093 376.364069 
C 780.109238 376.364069 790.686225 373.295528 798.483593 367.834257 
C 806.280962 362.372985 810.662093 354.964873 810.662093 347.241469 
C 810.662093 339.518065 806.280962 332.109952 798.483593 326.648681 
C 790.686225 321.18741 780.109238 318.118869 769.082093 318.118869 
C 758.054949 318.118869 747.477962 321.18741 739.680594 326.648681 
C 731.883225 332.109952 727.502093 339.518065 727.502093 347.241469 
C 727.502093 354.964873 731.883225 362.372985 739.680594 367.834257 
C 747.477962 373.295528 758.054949 376.364069 769.082093 376.364069 
z
" clip-path="url(#pe01899c5dd)" style="fill: #fddbc7; stroke: #d6604d; stroke-width: 1.5; stroke-linejoin: miter"/>
   </g>
   <g id="text_12">
    <!-- Cross-Cultural -->
    <g transform="translate(610.575 294.3187) scale(0.1 -0.1)">
     <use xlink:href="#Arial-BoldMT-43"/>
     <use xlink:href="#Arial-BoldMT-72" transform="translate(72.216797 0)"/>
     <use xlink:href="#Arial-BoldMT-6f" transform="translate(111.132812 0)"/>
     <use xlink:href="#Arial-BoldMT-73" transform="translate(172.216797 0)"/>
     <use xlink:href="#Arial-BoldMT-73" transform="translate(227.832031 0)"/>
     <use xlink:href="#Arial-BoldMT-2d" transform="translate(283.447266 0)"/>
     <use xlink:href="#Arial-BoldMT-43" transform="translate(316.748047 0)"/>
     <use xlink:href="#Arial-BoldMT-75" transform="translate(388.964844 0)"/>
     <use xlink:href="#Arial-BoldMT-6c" transform="translate(450.048828 0)"/>
     <use xlink:href="#Arial-BoldMT-74" transform="translate(477.832031 0)"/>
     <use xlink:href="#Arial-BoldMT-75" transform="translate(511.132812 0)"/>
     <use xlink:href="#Arial-BoldMT-72" transform="translate(572.216797 0)"/>
     <use xlink:href="#Arial-BoldMT-61" transform="translate(611.132812 0)"/>
     <use xlink:href="#Arial-BoldMT-6c" transform="translate(666.748047 0)"/>
    </g>
   </g>
   <g id="text_13">
    <!-- Adaptation -->
    <g transform="translate(619.19375 310.700162) scale(0.1 -0.1)">
     <use xlink:href="#Arial-BoldMT-41"/>
     <use xlink:href="#Arial-BoldMT-64" transform="translate(72.216797 0)"/>
     <use xlink:href="#Arial-BoldMT-61" transform="translate(133.300781 0)"/>
     <use xlink:href="#Arial-BoldMT-70" transform="translate(188.916016 0)"/>
     <use xlink:href="#Arial-BoldMT-74" transform="translate(250 0)"/>
     <use xlink:href="#Arial-BoldMT-61" transform="translate(283.300781 0)"/>
     <use xlink:href="#Arial-BoldMT-74" transform="translate(338.916016 0)"/>
     <use xlink:href="#Arial-BoldMT-69" transform="translate(372.216797 0)"/>
     <use xlink:href="#Arial-BoldMT-6f" transform="translate(400 0)"/>
     <use xlink:href="#Arial-BoldMT-6e" transform="translate(461.083984 0)"/>
    </g>
   </g>
   <g id="text_14">
    <!-- Family -->
    <g transform="translate(631.314961 194.384812) scale(0.095 -0.095)">
     <defs>
      <path id="ArialMT-46" d="M 525 0 
L 525 4581 
L 3616 4581 
L 3616 4041 
L 1131 4041 
L 1131 2622 
L 3281 2622 
L 3281 2081 
L 1131 2081 
L 1131 0 
L 525 0 
z
" transform="scale(0.015625)"/>
      <path id="ArialMT-79" d="M 397 -1278 
L 334 -750 
Q 519 -800 656 -800 
Q 844 -800 956 -737 
Q 1069 -675 1141 -563 
Q 1194 -478 1313 -144 
Q 1328 -97 1363 -6 
L 103 3319 
L 709 3319 
L 1400 1397 
Q 1534 1031 1641 628 
Q 1738 1016 1872 1384 
L 2581 3319 
L 3144 3319 
L 1881 -56 
Q 1678 -603 1566 -809 
Q 1416 -1088 1222 -1217 
Q 1028 -1347 759 -1347 
Q 597 -1347 397 -1278 
z
" transform="scale(0.015625)"/>
     </defs>
     <use xlink:href="#ArialMT-46"/>
     <use xlink:href="#ArialMT-61" transform="translate(61.083984 0)"/>
     <use xlink:href="#ArialMT-6d" transform="translate(116.699219 0)"/>
     <use xlink:href="#ArialMT-69" transform="translate(200 0)"/>
     <use xlink:href="#ArialMT-6c" transform="translate(222.216797 0)"/>
     <use xlink:href="#ArialMT-79" transform="translate(244.433594 0)"/>
    </g>
    <!-- Support -->
    <g transform="translate(628.664609 204.683109) scale(0.095 -0.095)">
     <defs>
      <path id="ArialMT-75" d="M 2597 0 
L 2597 488 
Q 2209 -75 1544 -75 
Q 1250 -75 995 37 
Q 741 150 617 320 
Q 494 491 444 738 
Q 409 903 409 1263 
L 409 3319 
L 972 3319 
L 972 1478 
Q 972 1038 1006 884 
Q 1059 663 1231 536 
Q 1403 409 1656 409 
Q 1909 409 2131 539 
Q 2353 669 2445 892 
Q 2538 1116 2538 1541 
L 2538 3319 
L 3100 3319 
L 3100 0 
L 2597 0 
z
" transform="scale(0.015625)"/>
      <path id="ArialMT-72" d="M 416 0 
L 416 3319 
L 922 3319 
L 922 2816 
Q 1116 3169 1280 3281 
Q 1444 3394 1641 3394 
Q 1925 3394 2219 3213 
L 2025 2691 
Q 1819 2813 1613 2813 
Q 1428 2813 1281 2702 
Q 1134 2591 1072 2394 
Q 978 2094 978 1738 
L 978 0 
L 416 0 
z
" transform="scale(0.015625)"/>
     </defs>
     <use xlink:href="#ArialMT-53"/>
     <use xlink:href="#ArialMT-75" transform="translate(66.699219 0)"/>
     <use xlink:href="#ArialMT-70" transform="translate(122.314453 0)"/>
     <use xlink:href="#ArialMT-70" transform="translate(177.929688 0)"/>
     <use xlink:href="#ArialMT-6f" transform="translate(233.544922 0)"/>
     <use xlink:href="#ArialMT-72" transform="translate(289.160156 0)"/>
     <use xlink:href="#ArialMT-74" transform="translate(322.460938 0)"/>
    </g>
   </g>
   <g id="text_15">
    <!-- Sense of -->
    <g transform="translate(502.769508 344.673352) scale(0.095 -0.095)">
     <use xlink:href="#ArialMT-53"/>
     <use xlink:href="#ArialMT-65" transform="translate(66.699219 0)"/>
     <use xlink:href="#ArialMT-6e" transform="translate(122.314453 0)"/>
     <use xlink:href="#ArialMT-73" transform="translate(177.929688 0)"/>
     <use xlink:href="#ArialMT-65" transform="translate(227.929688 0)"/>
     <use xlink:href="#ArialMT-20" transform="translate(283.544922 0)"/>
     <use xlink:href="#ArialMT-6f" transform="translate(311.328125 0)"/>
     <use xlink:href="#ArialMT-66" transform="translate(366.943359 0)"/>
    </g>
    <!-- Connectedness -->
    <g transform="translate(488.511344 354.721383) scale(0.095 -0.095)">
     <use xlink:href="#ArialMT-43"/>
     <use xlink:href="#ArialMT-6f" transform="translate(72.216797 0)"/>
     <use xlink:href="#ArialMT-6e" transform="translate(127.832031 0)"/>
     <use xlink:href="#ArialMT-6e" transform="translate(183.447266 0)"/>
     <use xlink:href="#ArialMT-65" transform="translate(239.0625 0)"/>
     <use xlink:href="#ArialMT-63" transform="translate(294.677734 0)"/>
     <use xlink:href="#ArialMT-74" transform="translate(344.677734 0)"/>
     <use xlink:href="#ArialMT-65" transform="translate(372.460938 0)"/>
     <use xlink:href="#ArialMT-64" transform="translate(428.076172 0)"/>
     <use xlink:href="#ArialMT-6e" transform="translate(483.691406 0)"/>
     <use xlink:href="#ArialMT-65" transform="translate(539.306641 0)"/>
     <use xlink:href="#ArialMT-73" transform="translate(594.921875 0)"/>
     <use xlink:href="#ArialMT-73" transform="translate(644.921875 0)"/>
    </g>
   </g>
   <g id="text_16">
    <!-- Openness -->
    <g transform="translate(747.430258 344.734211) scale(0.095 -0.095)">
     <use xlink:href="#ArialMT-4f"/>
     <use xlink:href="#ArialMT-70" transform="translate(77.783203 0)"/>
     <use xlink:href="#ArialMT-65" transform="translate(133.398438 0)"/>
     <use xlink:href="#ArialMT-6e" transform="translate(189.013672 0)"/>
     <use xlink:href="#ArialMT-6e" transform="translate(244.628906 0)"/>
     <use xlink:href="#ArialMT-65" transform="translate(300.244141 0)"/>
     <use xlink:href="#ArialMT-73" transform="translate(355.859375 0)"/>
     <use xlink:href="#ArialMT-73" transform="translate(405.859375 0)"/>
    </g>
    <!-- to Exp. -->
    <g transform="translate(754.296976 354.782242) scale(0.095 -0.095)">
     <defs>
      <path id="ArialMT-45" d="M 506 0 
L 506 4581 
L 3819 4581 
L 3819 4041 
L 1113 4041 
L 1113 2638 
L 3647 2638 
L 3647 2100 
L 1113 2100 
L 1113 541 
L 3925 541 
L 3925 0 
L 506 0 
z
" transform="scale(0.015625)"/>
      <path id="ArialMT-78" d="M 47 0 
L 1259 1725 
L 138 3319 
L 841 3319 
L 1350 2541 
Q 1494 2319 1581 2169 
Q 1719 2375 1834 2534 
L 2394 3319 
L 3066 3319 
L 1919 1756 
L 3153 0 
L 2463 0 
L 1781 1031 
L 1600 1309 
L 728 0 
L 47 0 
z
" transform="scale(0.015625)"/>
     </defs>
     <use xlink:href="#ArialMT-74"/>
     <use xlink:href="#ArialMT-6f" transform="translate(27.783203 0)"/>
     <use xlink:href="#ArialMT-20" transform="translate(83.398438 0)"/>
     <use xlink:href="#ArialMT-45" transform="translate(111.181641 0)"/>
     <use xlink:href="#ArialMT-78" transform="translate(177.880859 0)"/>
     <use xlink:href="#ArialMT-70" transform="translate(227.880859 0)"/>
     <use xlink:href="#ArialMT-2e" transform="translate(283.496094 0)"/>
    </g>
   </g>
  </g>
  <g id="text_17">
   <!-- Figure 24  Interaction Patterns: Synergy vs. Conflict -->
   <g transform="translate(259.691719 20.271562) scale(0.14 -0.14)">
    <defs>
     <path id="Arial-BoldMT-32" d="M 3238 816 
L 3238 0 
L 159 0 
Q 209 463 459 877 
Q 709 1291 1447 1975 
Q 2041 2528 2175 2725 
Q 2356 2997 2356 3263 
Q 2356 3556 2198 3714 
Q 2041 3872 1763 3872 
Q 1488 3872 1325 3706 
Q 1163 3541 1138 3156 
L 263 3244 
Q 341 3969 753 4284 
Q 1166 4600 1784 4600 
Q 2463 4600 2850 4234 
Q 3238 3869 3238 3325 
Q 3238 3016 3127 2736 
Q 3016 2456 2775 2150 
Q 2616 1947 2200 1565 
Q 1784 1184 1673 1059 
Q 1563 934 1494 816 
L 3238 816 
z
" transform="scale(0.015625)"/>
     <path id="Arial-BoldMT-34" d="M 1994 0 
L 1994 922 
L 119 922 
L 119 1691 
L 2106 4600 
L 2844 4600 
L 2844 1694 
L 3413 1694 
L 3413 922 
L 2844 922 
L 2844 0 
L 1994 0 
z
M 1994 1694 
L 1994 3259 
L 941 1694 
L 1994 1694 
z
" transform="scale(0.015625)"/>
     <path id="Arial-BoldMT-50" d="M 466 0 
L 466 4581 
L 1950 4581 
Q 2794 4581 3050 4513 
Q 3444 4409 3709 4064 
Q 3975 3719 3975 3172 
Q 3975 2750 3822 2462 
Q 3669 2175 3433 2011 
Q 3197 1847 2953 1794 
Q 2622 1728 1994 1728 
L 1391 1728 
L 1391 0 
L 466 0 
z
M 1391 3806 
L 1391 2506 
L 1897 2506 
Q 2444 2506 2628 2578 
Q 2813 2650 2917 2803 
Q 3022 2956 3022 3159 
Q 3022 3409 2875 3571 
Q 2728 3734 2503 3775 
Q 2338 3806 1838 3806 
L 1391 3806 
z
" transform="scale(0.015625)"/>
     <path id="Arial-BoldMT-76" d="M 1372 0 
L 34 3319 
L 956 3319 
L 1581 1625 
L 1763 1059 
Q 1834 1275 1853 1344 
Q 1897 1484 1947 1625 
L 2578 3319 
L 3481 3319 
L 2163 0 
L 1372 0 
z
" transform="scale(0.015625)"/>
     <path id="Arial-BoldMT-2e" d="M 459 0 
L 459 878 
L 1338 878 
L 1338 0 
L 459 0 
z
" transform="scale(0.015625)"/>
    </defs>
    <use xlink:href="#Arial-BoldMT-46"/>
    <use xlink:href="#Arial-BoldMT-69" transform="translate(61.083984 0)"/>
    <use xlink:href="#Arial-BoldMT-67" transform="translate(88.867188 0)"/>
    <use xlink:href="#Arial-BoldMT-75" transform="translate(149.951172 0)"/>
    <use xlink:href="#Arial-BoldMT-72" transform="translate(211.035156 0)"/>
    <use xlink:href="#Arial-BoldMT-65" transform="translate(249.951172 0)"/>
    <use xlink:href="#Arial-BoldMT-20" transform="translate(305.566406 0)"/>
    <use xlink:href="#Arial-BoldMT-32" transform="translate(333.349609 0)"/>
    <use xlink:href="#Arial-BoldMT-34" transform="translate(388.964844 0)"/>
    <use xlink:href="#Arial-BoldMT-20" transform="translate(444.580078 0)"/>
    <use xlink:href="#Arial-BoldMT-20" transform="translate(472.363281 0)"/>
    <use xlink:href="#Arial-BoldMT-49" transform="translate(500.146484 0)"/>
    <use xlink:href="#Arial-BoldMT-6e" transform="translate(527.929688 0)"/>
    <use xlink:href="#Arial-BoldMT-74" transform="translate(589.013672 0)"/>
    <use xlink:href="#Arial-BoldMT-65" transform="translate(622.314453 0)"/>
    <use xlink:href="#Arial-BoldMT-72" transform="translate(677.929688 0)"/>
    <use xlink:href="#Arial-BoldMT-61" transform="translate(716.845703 0)"/>
    <use xlink:href="#Arial-BoldMT-63" transform="translate(772.460938 0)"/>
    <use xlink:href="#Arial-BoldMT-74" transform="translate(828.076172 0)"/>
    <use xlink:href="#Arial-BoldMT-69" transform="translate(861.376953 0)"/>
    <use xlink:href="#Arial-BoldMT-6f" transform="translate(889.160156 0)"/>
    <use xlink:href="#Arial-BoldMT-6e" transform="translate(950.244141 0)"/>
    <use xlink:href="#Arial-BoldMT-20" transform="translate(1011.328125 0)"/>
    <use xlink:href="#Arial-BoldMT-50" transform="translate(1039.111328 0)"/>
    <use xlink:href="#Arial-BoldMT-61" transform="translate(1105.810547 0)"/>
    <use xlink:href="#Arial-BoldMT-74" transform="translate(1161.425781 0)"/>
    <use xlink:href="#Arial-BoldMT-74" transform="translate(1194.726562 0)"/>
    <use xlink:href="#Arial-BoldMT-65" transform="translate(1228.027344 0)"/>
    <use xlink:href="#Arial-BoldMT-72" transform="translate(1283.642578 0)"/>
    <use xlink:href="#Arial-BoldMT-6e" transform="translate(1322.558594 0)"/>
    <use xlink:href="#Arial-BoldMT-73" transform="translate(1383.642578 0)"/>
    <use xlink:href="#Arial-BoldMT-3a" transform="translate(1439.257812 0)"/>
    <use xlink:href="#Arial-BoldMT-20" transform="translate(1472.558594 0)"/>
    <use xlink:href="#Arial-BoldMT-53" transform="translate(1500.341797 0)"/>
    <use xlink:href="#Arial-BoldMT-79" transform="translate(1567.041016 0)"/>
    <use xlink:href="#Arial-BoldMT-6e" transform="translate(1622.65625 0)"/>
    <use xlink:href="#Arial-BoldMT-65" transform="translate(1683.740234 0)"/>
    <use xlink:href="#Arial-BoldMT-72" transform="translate(1739.355469 0)"/>
    <use xlink:href="#Arial-BoldMT-67" transform="translate(1778.271484 0)"/>
    <use xlink:href="#Arial-BoldMT-79" transform="translate(1839.355469 0)"/>
    <use xlink:href="#Arial-BoldMT-20" transform="translate(1894.970703 0)"/>
    <use xlink:href="#Arial-BoldMT-76" transform="translate(1922.753906 0)"/>
    <use xlink:href="#Arial-BoldMT-73" transform="translate(1978.369141 0)"/>
    <use xlink:href="#Arial-BoldMT-2e" transform="translate(2033.984375 0)"/>
    <use xlink:href="#Arial-BoldMT-20" transform="translate(2061.767578 0)"/>
    <use xlink:href="#Arial-BoldMT-43" transform="translate(2089.550781 0)"/>
    <use xlink:href="#Arial-BoldMT-6f" transform="translate(2161.767578 0)"/>
    <use xlink:href="#Arial-BoldMT-6e" transform="translate(2222.851562 0)"/>
    <use xlink:href="#Arial-BoldMT-66" transform="translate(2283.935547 0)"/>
    <use xlink:href="#Arial-BoldMT-6c" transform="translate(2317.236328 0)"/>
    <use xlink:href="#Arial-BoldMT-69" transform="translate(2345.019531 0)"/>
    <use xlink:href="#Arial-BoldMT-63" transform="translate(2372.802734 0)"/>
    <use xlink:href="#Arial-BoldMT-74" transform="translate(2428.417969 0)"/>
   </g>
  </g>
  <g id="text_18">
   <!-- Figure 24. Interaction network diagrams for Hong Kong (left) and France (right). -->
   <g style="fill: #333333" transform="translate(256.376562 475.174688) scale(0.1 -0.1)">
    <defs>
     <path id="Arial-ItalicMT-46" d="M 291 0 
L 1247 4581 
L 4225 4581 
L 4116 4059 
L 1750 4059 
L 1447 2600 
L 3856 2600 
L 3747 2078 
L 1338 2078 
L 903 0 
L 291 0 
z
" transform="scale(0.015625)"/>
     <path id="Arial-ItalicMT-69" d="M 1016 3941 
L 1150 4581 
L 1713 4581 
L 1578 3941 
L 1016 3941 
z
M 191 0 
L 884 3319 
L 1450 3319 
L 756 0 
L 191 0 
z
" transform="scale(0.015625)"/>
     <path id="Arial-ItalicMT-67" d="M 181 -300 
L 753 -353 
Q 747 -547 800 -644 
Q 853 -741 969 -794 
Q 1122 -863 1366 -863 
Q 1878 -863 2103 -597 
Q 2250 -419 2375 178 
L 2431 447 
Q 1991 0 1494 0 
Q 991 0 652 370 
Q 313 741 313 1419 
Q 313 1978 580 2447 
Q 847 2916 1215 3155 
Q 1584 3394 1975 3394 
Q 2628 3394 2981 2775 
L 3094 3319 
L 3613 3319 
L 2944 116 
Q 2834 -413 2656 -708 
Q 2478 -1003 2161 -1165 
Q 1844 -1328 1428 -1328 
Q 1028 -1328 739 -1225 
Q 450 -1122 308 -923 
Q 166 -725 166 -469 
Q 166 -391 181 -300 
z
M 888 1469 
Q 888 1128 953 956 
Q 1047 716 1220 589 
Q 1394 463 1606 463 
Q 1884 463 2159 658 
Q 2434 853 2604 1262 
Q 2775 1672 2775 2044 
Q 2775 2453 2548 2695 
Q 2322 2938 1988 2938 
Q 1781 2938 1587 2827 
Q 1394 2716 1226 2489 
Q 1059 2263 973 1947 
Q 888 1631 888 1469 
z
" transform="scale(0.015625)"/>
     <path id="Arial-ItalicMT-75" d="M 2478 600 
Q 1881 -75 1256 -75 
Q 872 -75 636 145 
Q 400 366 400 684 
Q 400 894 506 1403 
L 906 3319 
L 1472 3319 
L 1028 1197 
Q 972 931 972 784 
Q 972 597 1086 492 
Q 1200 388 1422 388 
Q 1659 388 1886 503 
Q 2113 619 2277 816 
Q 2441 1013 2544 1281 
Q 2613 1453 2703 1884 
L 3003 3319 
L 3569 3319 
L 2875 0 
L 2353 0 
L 2478 600 
z
" transform="scale(0.015625)"/>
     <path id="Arial-ItalicMT-72" d="M 213 0 
L 906 3319 
L 1406 3319 
L 1266 2641 
Q 1522 3025 1767 3209 
Q 2013 3394 2269 3394 
Q 2438 3394 2684 3272 
L 2453 2747 
Q 2306 2853 2131 2853 
Q 1834 2853 1521 2522 
Q 1209 2191 1031 1331 
L 750 0 
L 213 0 
z
" transform="scale(0.015625)"/>
     <path id="Arial-ItalicMT-65" d="M 2650 1128 
L 3200 1072 
Q 3081 663 2654 294 
Q 2228 -75 1638 -75 
Q 1269 -75 961 95 
Q 653 266 492 591 
Q 331 916 331 1331 
Q 331 1875 582 2386 
Q 834 2897 1234 3145 
Q 1634 3394 2100 3394 
Q 2694 3394 3048 3025 
Q 3403 2656 3403 2019 
Q 3403 1775 3359 1519 
L 916 1519 
Q 903 1422 903 1344 
Q 903 878 1117 633 
Q 1331 388 1641 388 
Q 1931 388 2212 578 
Q 2494 769 2650 1128 
z
M 1006 1950 
L 2869 1950 
Q 2872 2038 2872 2075 
Q 2872 2500 2659 2726 
Q 2447 2953 2113 2953 
Q 1750 2953 1451 2703 
Q 1153 2453 1006 1950 
z
" transform="scale(0.015625)"/>
     <path id="Arial-ItalicMT-34" d="M 1913 0 
L 2159 1169 
L 291 1169 
L 409 1728 
L 2975 4581 
L 3438 4581 
L 2828 1669 
L 3472 1669 
L 3369 1169 
L 2725 1169 
L 2478 0 
L 1913 0 
z
M 2263 1669 
L 2663 3581 
L 956 1669 
L 2263 1669 
z
" transform="scale(0.015625)"/>
     <path id="Arial-ItalicMT-49" d="M 366 0 
L 1325 4581 
L 1934 4581 
L 978 0 
L 366 0 
z
" transform="scale(0.015625)"/>
     <path id="Arial-ItalicMT-6e" d="M 213 0 
L 906 3319 
L 1419 3319 
L 1297 2741 
Q 1631 3081 1922 3237 
Q 2213 3394 2516 3394 
Q 2919 3394 3148 3175 
Q 3378 2956 3378 2591 
Q 3378 2406 3297 2009 
L 2875 0 
L 2309 0 
L 2750 2103 
Q 2816 2409 2816 2556 
Q 2816 2722 2702 2825 
Q 2588 2928 2372 2928 
Q 1938 2928 1598 2615 
Q 1259 2303 1100 1544 
L 778 0 
L 213 0 
z
" transform="scale(0.015625)"/>
     <path id="Arial-ItalicMT-74" d="M 1534 459 
L 1441 -3 
Q 1238 -56 1047 -56 
Q 709 -56 509 109 
Q 359 234 359 450 
Q 359 559 441 953 
L 844 2881 
L 397 2881 
L 488 3319 
L 934 3319 
L 1106 4134 
L 1753 4525 
L 1500 3319 
L 2056 3319 
L 1963 2881 
L 1409 2881 
L 1025 1047 
Q 953 697 953 628 
Q 953 528 1011 475 
Q 1069 422 1200 422 
Q 1388 422 1534 459 
z
" transform="scale(0.015625)"/>
     <path id="Arial-ItalicMT-61" d="M 2450 413 
Q 2156 159 1884 42 
Q 1613 -75 1303 -75 
Q 844 -75 562 195 
Q 281 466 281 888 
Q 281 1166 407 1380 
Q 534 1594 743 1723 
Q 953 1853 1256 1909 
Q 1447 1947 1980 1969 
Q 2513 1991 2744 2081 
Q 2809 2313 2809 2466 
Q 2809 2663 2666 2775 
Q 2469 2931 2091 2931 
Q 1734 2931 1507 2773 
Q 1281 2616 1178 2325 
L 606 2375 
Q 781 2869 1161 3131 
Q 1541 3394 2119 3394 
Q 2734 3394 3094 3100 
Q 3369 2881 3369 2531 
Q 3369 2266 3291 1916 
L 3106 1091 
Q 3019 697 3019 450 
Q 3019 294 3088 0 
L 2516 0 
Q 2469 163 2450 413 
z
M 2659 1681 
Q 2541 1634 2405 1609 
Q 2269 1584 1950 1556 
Q 1456 1513 1253 1445 
Q 1050 1378 947 1231 
Q 844 1084 844 906 
Q 844 669 1008 516 
Q 1172 363 1475 363 
Q 1756 363 2015 511 
Q 2275 659 2425 925 
Q 2575 1191 2659 1681 
z
" transform="scale(0.015625)"/>
     <path id="Arial-ItalicMT-63" d="M 2503 1209 
L 3069 1150 
Q 2856 528 2464 226 
Q 2072 -75 1572 -75 
Q 1031 -75 695 275 
Q 359 625 359 1253 
Q 359 1797 575 2322 
Q 791 2847 1192 3120 
Q 1594 3394 2109 3394 
Q 2644 3394 2956 3092 
Q 3269 2791 3269 2294 
L 2713 2256 
Q 2709 2572 2529 2750 
Q 2350 2928 2056 2928 
Q 1716 2928 1466 2712 
Q 1216 2497 1073 2058 
Q 931 1619 931 1213 
Q 931 788 1118 575 
Q 1306 363 1581 363 
Q 1856 363 2107 572 
Q 2359 781 2503 1209 
z
" transform="scale(0.015625)"/>
     <path id="Arial-ItalicMT-6f" d="M 313 1259 
Q 313 2231 884 2869 
Q 1356 3394 2122 3394 
Q 2722 3394 3089 3019 
Q 3456 2644 3456 2006 
Q 3456 1434 3225 942 
Q 2994 450 2567 187 
Q 2141 -75 1669 -75 
Q 1281 -75 964 90 
Q 647 256 480 559 
Q 313 863 313 1259 
z
M 878 1316 
Q 878 847 1103 605 
Q 1328 363 1675 363 
Q 1856 363 2034 436 
Q 2213 509 2366 659 
Q 2519 809 2626 1001 
Q 2734 1194 2800 1416 
Q 2897 1725 2897 2009 
Q 2897 2459 2670 2707 
Q 2444 2956 2100 2956 
Q 1834 2956 1615 2829 
Q 1397 2703 1220 2459 
Q 1044 2216 961 1892 
Q 878 1569 878 1316 
z
" transform="scale(0.015625)"/>
     <path id="Arial-ItalicMT-77" d="M 844 0 
L 497 3319 
L 1041 3319 
L 1191 1828 
L 1250 991 
Q 1256 897 1269 613 
Q 1363 931 1428 1101 
Q 1494 1272 1638 1588 
L 2428 3319 
L 3044 3319 
L 3153 1659 
Q 3178 1281 3184 650 
Q 3341 1069 3694 1813 
L 4406 3319 
L 4972 3319 
L 3350 0 
L 2763 0 
L 2638 1947 
Q 2625 2128 2619 2653 
Q 2491 2319 2316 1931 
L 1438 0 
L 844 0 
z
" transform="scale(0.015625)"/>
     <path id="Arial-ItalicMT-6b" d="M 219 0 
L 1178 4581 
L 1741 4581 
L 1147 1741 
L 2797 3319 
L 3544 3319 
L 2128 2081 
L 2984 0 
L 2366 0 
L 1703 1703 
L 1016 1109 
L 784 0 
L 219 0 
z
" transform="scale(0.015625)"/>
     <path id="Arial-ItalicMT-64" d="M 2450 481 
Q 1966 -75 1438 -75 
Q 966 -75 652 273 
Q 338 622 338 1284 
Q 338 1891 586 2392 
Q 834 2894 1207 3144 
Q 1581 3394 1956 3394 
Q 2575 3394 2891 2797 
L 3266 4581 
L 3828 4581 
L 2872 0 
L 2350 0 
L 2450 481 
z
M 900 1391 
Q 900 1044 969 844 
Q 1038 644 1203 511 
Q 1369 378 1600 378 
Q 1984 378 2297 778 
Q 2716 1309 2716 2091 
Q 2716 2484 2509 2706 
Q 2303 2928 1991 2928 
Q 1788 2928 1620 2837 
Q 1453 2747 1289 2530 
Q 1125 2313 1012 1978 
Q 900 1644 900 1391 
z
" transform="scale(0.015625)"/>
     <path id="Arial-ItalicMT-6d" d="M 209 0 
L 903 3319 
L 1469 3319 
L 1353 2772 
Q 1669 3125 1917 3259 
Q 2166 3394 2456 3394 
Q 2766 3394 2973 3230 
Q 3181 3066 3247 2772 
Q 3500 3084 3779 3239 
Q 4059 3394 4369 3394 
Q 4784 3394 4992 3197 
Q 5200 3000 5200 2644 
Q 5200 2491 5128 2138 
L 4681 0 
L 4116 0 
L 4572 2194 
Q 4631 2463 4631 2578 
Q 4631 2741 4528 2834 
Q 4425 2928 4238 2928 
Q 3984 2928 3721 2775 
Q 3459 2622 3314 2373 
Q 3169 2125 3059 1609 
L 2722 0 
L 2156 0 
L 2625 2241 
Q 2675 2469 2675 2566 
Q 2675 2728 2573 2828 
Q 2472 2928 2309 2928 
Q 2069 2928 1805 2775 
Q 1541 2622 1375 2348 
Q 1209 2075 1103 1569 
L 775 0 
L 209 0 
z
" transform="scale(0.015625)"/>
     <path id="Arial-ItalicMT-73" d="M 266 1134 
L 831 1169 
Q 831 925 906 753 
Q 981 581 1182 472 
Q 1384 363 1653 363 
Q 2028 363 2215 513 
Q 2403 663 2403 866 
Q 2403 1013 2291 1144 
Q 2175 1275 1726 1467 
Q 1278 1659 1153 1738 
Q 944 1866 837 2039 
Q 731 2213 731 2438 
Q 731 2831 1043 3112 
Q 1356 3394 1919 3394 
Q 2544 3394 2870 3105 
Q 3197 2816 3209 2344 
L 2656 2306 
Q 2644 2606 2444 2781 
Q 2244 2956 1878 2956 
Q 1584 2956 1421 2822 
Q 1259 2688 1259 2531 
Q 1259 2375 1400 2256 
Q 1494 2175 1884 2006 
Q 2534 1725 2703 1563 
Q 2972 1303 2972 931 
Q 2972 684 2820 446 
Q 2669 209 2358 67 
Q 2047 -75 1625 -75 
Q 1050 -75 647 209 
Q 244 494 266 1134 
z
" transform="scale(0.015625)"/>
     <path id="Arial-ItalicMT-66" d="M 291 0 
L 894 2881 
L 388 2881 
L 478 3319 
L 984 3319 
L 1081 3791 
Q 1156 4144 1236 4300 
Q 1316 4456 1495 4557 
Q 1675 4659 1984 4659 
Q 2200 4659 2609 4569 
L 2506 4075 
Q 2219 4150 2025 4150 
Q 1859 4150 1773 4067 
Q 1688 3984 1625 3675 
L 1550 3319 
L 2181 3319 
L 2091 2881 
L 1459 2881 
L 856 0 
L 291 0 
z
" transform="scale(0.015625)"/>
     <path id="Arial-ItalicMT-48" d="M 269 0 
L 1228 4581 
L 1838 4581 
L 1441 2678 
L 3816 2678 
L 4213 4581 
L 4825 4581 
L 3869 0 
L 3256 0 
L 3706 2159 
L 1334 2159 
L 881 0 
L 269 0 
z
" transform="scale(0.015625)"/>
     <path id="Arial-ItalicMT-4b" d="M 284 0 
L 1241 4581 
L 1853 4581 
L 1394 2375 
L 3881 4581 
L 4744 4581 
L 2616 2716 
L 4175 0 
L 3491 0 
L 2169 2322 
L 1209 1488 
L 897 0 
L 284 0 
z
" transform="scale(0.015625)"/>
     <path id="Arial-ItalicMT-28" d="M 1031 -1347 
Q 541 -272 541 863 
Q 541 1619 739 2270 
Q 938 2922 1344 3559 
Q 1613 3984 2203 4659 
L 2644 4659 
Q 2278 4269 1870 3559 
Q 1463 2850 1278 2165 
Q 1094 1481 1094 791 
Q 1094 -241 1453 -1347 
L 1031 -1347 
z
" transform="scale(0.015625)"/>
     <path id="Arial-ItalicMT-6c" d="M 169 0 
L 1125 4581 
L 1691 4581 
L 734 0 
L 169 0 
z
" transform="scale(0.015625)"/>
     <path id="Arial-ItalicMT-29" d="M 1269 4659 
Q 1763 3584 1763 2453 
Q 1763 1694 1564 1044 
Q 1366 394 959 -247 
Q 688 -672 100 -1347 
L -341 -1347 
Q 22 -953 431 -243 
Q 841 466 1023 1148 
Q 1206 1831 1206 2525 
Q 1206 3556 847 4659 
L 1269 4659 
z
" transform="scale(0.015625)"/>
     <path id="Arial-ItalicMT-68" d="M 213 0 
L 1169 4581 
L 1734 4581 
L 1369 2822 
Q 1684 3128 1956 3261 
Q 2228 3394 2516 3394 
Q 2928 3394 3156 3176 
Q 3384 2959 3384 2603 
Q 3384 2428 3284 1959 
L 2875 0 
L 2309 0 
L 2731 2009 
Q 2822 2447 2822 2559 
Q 2822 2722 2709 2825 
Q 2597 2928 2384 2928 
Q 2078 2928 1800 2767 
Q 1522 2606 1364 2326 
Q 1206 2047 1075 1425 
L 778 0 
L 213 0 
z
" transform="scale(0.015625)"/>
    </defs>
    <use xlink:href="#Arial-ItalicMT-46"/>
    <use xlink:href="#Arial-ItalicMT-69" transform="translate(61.083984 0)"/>
    <use xlink:href="#Arial-ItalicMT-67" transform="translate(83.300781 0)"/>
    <use xlink:href="#Arial-ItalicMT-75" transform="translate(138.916016 0)"/>
    <use xlink:href="#Arial-ItalicMT-72" transform="translate(194.53125 0)"/>
    <use xlink:href="#Arial-ItalicMT-65" transform="translate(227.832031 0)"/>
    <use xlink:href="#Arial-ItalicMT-20" transform="translate(283.447266 0)"/>
    <use xlink:href="#Arial-ItalicMT-32" transform="translate(311.230469 0)"/>
    <use xlink:href="#Arial-ItalicMT-34" transform="translate(366.845703 0)"/>
    <use xlink:href="#Arial-ItalicMT-2e" transform="translate(422.460938 0)"/>
    <use xlink:href="#Arial-ItalicMT-20" transform="translate(450.244141 0)"/>
    <use xlink:href="#Arial-ItalicMT-49" transform="translate(478.027344 0)"/>
    <use xlink:href="#Arial-ItalicMT-6e" transform="translate(505.810547 0)"/>
    <use xlink:href="#Arial-ItalicMT-74" transform="translate(561.425781 0)"/>
    <use xlink:href="#Arial-ItalicMT-65" transform="translate(589.208984 0)"/>
    <use xlink:href="#Arial-ItalicMT-72" transform="translate(644.824219 0)"/>
    <use xlink:href="#Arial-ItalicMT-61" transform="translate(678.125 0)"/>
    <use xlink:href="#Arial-ItalicMT-63" transform="translate(733.740234 0)"/>
    <use xlink:href="#Arial-ItalicMT-74" transform="translate(783.740234 0)"/>
    <use xlink:href="#Arial-ItalicMT-69" transform="translate(811.523438 0)"/>
    <use xlink:href="#Arial-ItalicMT-6f" transform="translate(833.740234 0)"/>
    <use xlink:href="#Arial-ItalicMT-6e" transform="translate(889.355469 0)"/>
    <use xlink:href="#Arial-ItalicMT-20" transform="translate(944.970703 0)"/>
    <use xlink:href="#Arial-ItalicMT-6e" transform="translate(972.753906 0)"/>
    <use xlink:href="#Arial-ItalicMT-65" transform="translate(1028.369141 0)"/>
    <use xlink:href="#Arial-ItalicMT-74" transform="translate(1083.984375 0)"/>
    <use xlink:href="#Arial-ItalicMT-77" transform="translate(1111.767578 0)"/>
    <use xlink:href="#Arial-ItalicMT-6f" transform="translate(1183.984375 0)"/>
    <use xlink:href="#Arial-ItalicMT-72" transform="translate(1239.599609 0)"/>
    <use xlink:href="#Arial-ItalicMT-6b" transform="translate(1272.900391 0)"/>
    <use xlink:href="#Arial-ItalicMT-20" transform="translate(1322.900391 0)"/>
    <use xlink:href="#Arial-ItalicMT-64" transform="translate(1350.683594 0)"/>
    <use xlink:href="#Arial-ItalicMT-69" transform="translate(1406.298828 0)"/>
    <use xlink:href="#Arial-ItalicMT-61" transform="translate(1428.515625 0)"/>
    <use xlink:href="#Arial-ItalicMT-67" transform="translate(1484.130859 0)"/>
    <use xlink:href="#Arial-ItalicMT-72" transform="translate(1539.746094 0)"/>
    <use xlink:href="#Arial-ItalicMT-61" transform="translate(1573.046875 0)"/>
    <use xlink:href="#Arial-ItalicMT-6d" transform="translate(1628.662109 0)"/>
    <use xlink:href="#Arial-ItalicMT-73" transform="translate(1711.962891 0)"/>
    <use xlink:href="#Arial-ItalicMT-20" transform="translate(1761.962891 0)"/>
    <use xlink:href="#Arial-ItalicMT-66" transform="translate(1789.746094 0)"/>
    <use xlink:href="#Arial-ItalicMT-6f" transform="translate(1817.529297 0)"/>
    <use xlink:href="#Arial-ItalicMT-72" transform="translate(1873.144531 0)"/>
    <use xlink:href="#Arial-ItalicMT-20" transform="translate(1906.445312 0)"/>
    <use xlink:href="#Arial-ItalicMT-48" transform="translate(1934.228516 0)"/>
    <use xlink:href="#Arial-ItalicMT-6f" transform="translate(2006.445312 0)"/>
    <use xlink:href="#Arial-ItalicMT-6e" transform="translate(2062.060547 0)"/>
    <use xlink:href="#Arial-ItalicMT-67" transform="translate(2117.675781 0)"/>
    <use xlink:href="#Arial-ItalicMT-20" transform="translate(2173.291016 0)"/>
    <use xlink:href="#Arial-ItalicMT-4b" transform="translate(2201.074219 0)"/>
    <use xlink:href="#Arial-ItalicMT-6f" transform="translate(2267.773438 0)"/>
    <use xlink:href="#Arial-ItalicMT-6e" transform="translate(2323.388672 0)"/>
    <use xlink:href="#Arial-ItalicMT-67" transform="translate(2379.003906 0)"/>
    <use xlink:href="#Arial-ItalicMT-20" transform="translate(2434.619141 0)"/>
    <use xlink:href="#Arial-ItalicMT-28" transform="translate(2462.402344 0)"/>
    <use xlink:href="#Arial-ItalicMT-6c" transform="translate(2495.703125 0)"/>
    <use xlink:href="#Arial-ItalicMT-65" transform="translate(2517.919922 0)"/>
    <use xlink:href="#Arial-ItalicMT-66" transform="translate(2573.535156 0)"/>
    <use xlink:href="#Arial-ItalicMT-74" transform="translate(2601.318359 0)"/>
    <use xlink:href="#Arial-ItalicMT-29" transform="translate(2629.101562 0)"/>
    <use xlink:href="#Arial-ItalicMT-20" transform="translate(2662.402344 0)"/>
    <use xlink:href="#Arial-ItalicMT-61" transform="translate(2690.185547 0)"/>
    <use xlink:href="#Arial-ItalicMT-6e" transform="translate(2745.800781 0)"/>
    <use xlink:href="#Arial-ItalicMT-64" transform="translate(2801.416016 0)"/>
    <use xlink:href="#Arial-ItalicMT-20" transform="translate(2857.03125 0)"/>
    <use xlink:href="#Arial-ItalicMT-46" transform="translate(2884.814453 0)"/>
    <use xlink:href="#Arial-ItalicMT-72" transform="translate(2945.898438 0)"/>
    <use xlink:href="#Arial-ItalicMT-61" transform="translate(2979.199219 0)"/>
    <use xlink:href="#Arial-ItalicMT-6e" transform="translate(3034.814453 0)"/>
    <use xlink:href="#Arial-ItalicMT-63" transform="translate(3090.429688 0)"/>
    <use xlink:href="#Arial-ItalicMT-65" transform="translate(3140.429688 0)"/>
    <use xlink:href="#Arial-ItalicMT-20" transform="translate(3196.044922 0)"/>
    <use xlink:href="#Arial-ItalicMT-28" transform="translate(3223.828125 0)"/>
    <use xlink:href="#Arial-ItalicMT-72" transform="translate(3257.128906 0)"/>
    <use xlink:href="#Arial-ItalicMT-69" transform="translate(3290.429688 0)"/>
    <use xlink:href="#Arial-ItalicMT-67" transform="translate(3312.646484 0)"/>
    <use xlink:href="#Arial-ItalicMT-68" transform="translate(3368.261719 0)"/>
    <use xlink:href="#Arial-ItalicMT-74" transform="translate(3423.876953 0)"/>
    <use xlink:href="#Arial-ItalicMT-29" transform="translate(3451.660156 0)"/>
    <use xlink:href="#Arial-ItalicMT-2e" transform="translate(3484.960938 0)"/>
   </g>
   <!-- In Hong Kong, social contact, communication openness, and sense of connectedness interact synergistically (ΔR² = 7.2%). -->
   <g style="fill: #333333" transform="translate(160.324219 486.015) scale(0.1 -0.1)">
    <defs>
     <path id="Arial-ItalicMT-2c" d="M 347 0 
L 481 641 
L 1125 641 
L 1009 81 
Q 903 -422 679 -656 
Q 456 -891 153 -925 
L 206 -678 
Q 578 -575 697 0 
L 347 0 
z
" transform="scale(0.015625)"/>
     <path id="Arial-ItalicMT-70" d="M -66 -1272 
L 894 3319 
L 1416 3319 
L 1319 2856 
Q 1609 3159 1839 3276 
Q 2069 3394 2325 3394 
Q 2800 3394 3112 3048 
Q 3425 2703 3425 2059 
Q 3425 1541 3253 1114 
Q 3081 688 2831 428 
Q 2581 169 2325 47 
Q 2069 -75 1800 -75 
Q 1203 -75 875 531 
L 500 -1272 
L -66 -1272 
z
M 1053 1356 
Q 1053 984 1106 841 
Q 1184 638 1362 513 
Q 1541 388 1775 388 
Q 2263 388 2563 936 
Q 2863 1484 2863 2056 
Q 2863 2478 2661 2708 
Q 2459 2938 2159 2938 
Q 1944 2938 1759 2823 
Q 1575 2709 1417 2482 
Q 1259 2256 1156 1928 
Q 1053 1600 1053 1356 
z
" transform="scale(0.015625)"/>
     <path id="Arial-ItalicMT-79" d="M 0 -1281 
L 34 -750 
Q 209 -800 375 -800 
Q 547 -800 653 -722 
Q 791 -619 953 -334 
L 1134 -9 
L 581 3319 
L 1138 3319 
L 1388 1641 
Q 1463 1144 1516 647 
L 3000 3319 
L 3591 3319 
L 1475 -441 
Q 1169 -991 931 -1169 
Q 694 -1347 384 -1347 
Q 188 -1347 0 -1281 
z
" transform="scale(0.015625)"/>
    </defs>
    <use xlink:href="#Arial-ItalicMT-49"/>
    <use xlink:href="#Arial-ItalicMT-6e" transform="translate(27.783203 0)"/>
    <use xlink:href="#Arial-ItalicMT-20" transform="translate(83.398438 0)"/>
    <use xlink:href="#Arial-ItalicMT-48" transform="translate(111.181641 0)"/>
    <use xlink:href="#Arial-ItalicMT-6f" transform="translate(183.398438 0)"/>
    <use xlink:href="#Arial-ItalicMT-6e" transform="translate(239.013672 0)"/>
    <use xlink:href="#Arial-ItalicMT-67" transform="translate(294.628906 0)"/>
    <use xlink:href="#Arial-ItalicMT-20" transform="translate(350.244141 0)"/>
    <use xlink:href="#Arial-ItalicMT-4b" transform="translate(378.027344 0)"/>
    <use xlink:href="#Arial-ItalicMT-6f" transform="translate(444.726562 0)"/>
    <use xlink:href="#Arial-ItalicMT-6e" transform="translate(500.341797 0)"/>
    <use xlink:href="#Arial-ItalicMT-67" transform="translate(555.957031 0)"/>
    <use xlink:href="#Arial-ItalicMT-2c" transform="translate(611.572266 0)"/>
    <use xlink:href="#Arial-ItalicMT-20" transform="translate(639.355469 0)"/>
    <use xlink:href="#Arial-ItalicMT-73" transform="translate(667.138672 0)"/>
    <use xlink:href="#Arial-ItalicMT-6f" transform="translate(717.138672 0)"/>
    <use xlink:href="#Arial-ItalicMT-63" transform="translate(772.753906 0)"/>
    <use xlink:href="#Arial-ItalicMT-69" transform="translate(822.753906 0)"/>
    <use xlink:href="#Arial-ItalicMT-61" transform="translate(844.970703 0)"/>
    <use xlink:href="#Arial-ItalicMT-6c" transform="translate(900.585938 0)"/>
    <use xlink:href="#Arial-ItalicMT-20" transform="translate(922.802734 0)"/>
    <use xlink:href="#Arial-ItalicMT-63" transform="translate(950.585938 0)"/>
    <use xlink:href="#Arial-ItalicMT-6f" transform="translate(1000.585938 0)"/>
    <use xlink:href="#Arial-ItalicMT-6e" transform="translate(1056.201172 0)"/>
    <use xlink:href="#Arial-ItalicMT-74" transform="translate(1111.816406 0)"/>
    <use xlink:href="#Arial-ItalicMT-61" transform="translate(1139.599609 0)"/>
    <use xlink:href="#Arial-ItalicMT-63" transform="translate(1195.214844 0)"/>
    <use xlink:href="#Arial-ItalicMT-74" transform="translate(1245.214844 0)"/>
    <use xlink:href="#Arial-ItalicMT-2c" transform="translate(1272.998047 0)"/>
    <use xlink:href="#Arial-ItalicMT-20" transform="translate(1300.78125 0)"/>
    <use xlink:href="#Arial-ItalicMT-63" transform="translate(1328.564453 0)"/>
    <use xlink:href="#Arial-ItalicMT-6f" transform="translate(1378.564453 0)"/>
    <use xlink:href="#Arial-ItalicMT-6d" transform="translate(1434.179688 0)"/>
    <use xlink:href="#Arial-ItalicMT-6d" transform="translate(1517.480469 0)"/>
    <use xlink:href="#Arial-ItalicMT-75" transform="translate(1600.78125 0)"/>
    <use xlink:href="#Arial-ItalicMT-6e" transform="translate(1656.396484 0)"/>
    <use xlink:href="#Arial-ItalicMT-69" transform="translate(1712.011719 0)"/>
    <use xlink:href="#Arial-ItalicMT-63" transform="translate(1734.228516 0)"/>
    <use xlink:href="#Arial-ItalicMT-61" transform="translate(1784.228516 0)"/>
    <use xlink:href="#Arial-ItalicMT-74" transform="translate(1839.84375 0)"/>
    <use xlink:href="#Arial-ItalicMT-69" transform="translate(1867.626953 0)"/>
    <use xlink:href="#Arial-ItalicMT-6f" transform="translate(1889.84375 0)"/>
    <use xlink:href="#Arial-ItalicMT-6e" transform="translate(1945.458984 0)"/>
    <use xlink:href="#Arial-ItalicMT-20" transform="translate(2001.074219 0)"/>
    <use xlink:href="#Arial-ItalicMT-6f" transform="translate(2028.857422 0)"/>
    <use xlink:href="#Arial-ItalicMT-70" transform="translate(2084.472656 0)"/>
    <use xlink:href="#Arial-ItalicMT-65" transform="translate(2140.087891 0)"/>
    <use xlink:href="#Arial-ItalicMT-6e" transform="translate(2195.703125 0)"/>
    <use xlink:href="#Arial-ItalicMT-6e" transform="translate(2251.318359 0)"/>
    <use xlink:href="#Arial-ItalicMT-65" transform="translate(2306.933594 0)"/>
    <use xlink:href="#Arial-ItalicMT-73" transform="translate(2362.548828 0)"/>
    <use xlink:href="#Arial-ItalicMT-73" transform="translate(2412.548828 0)"/>
    <use xlink:href="#Arial-ItalicMT-2c" transform="translate(2462.548828 0)"/>
    <use xlink:href="#Arial-ItalicMT-20" transform="translate(2490.332031 0)"/>
    <use xlink:href="#Arial-ItalicMT-61" transform="translate(2518.115234 0)"/>
    <use xlink:href="#Arial-ItalicMT-6e" transform="translate(2573.730469 0)"/>
    <use xlink:href="#Arial-ItalicMT-64" transform="translate(2629.345703 0)"/>
    <use xlink:href="#Arial-ItalicMT-20" transform="translate(2684.960938 0)"/>
    <use xlink:href="#Arial-ItalicMT-73" transform="translate(2712.744141 0)"/>
    <use xlink:href="#Arial-ItalicMT-65" transform="translate(2762.744141 0)"/>
    <use xlink:href="#Arial-ItalicMT-6e" transform="translate(2818.359375 0)"/>
    <use xlink:href="#Arial-ItalicMT-73" transform="translate(2873.974609 0)"/>
    <use xlink:href="#Arial-ItalicMT-65" transform="translate(2923.974609 0)"/>
    <use xlink:href="#Arial-ItalicMT-20" transform="translate(2979.589844 0)"/>
    <use xlink:href="#Arial-ItalicMT-6f" transform="translate(3007.373047 0)"/>
    <use xlink:href="#Arial-ItalicMT-66" transform="translate(3062.988281 0)"/>
    <use xlink:href="#Arial-ItalicMT-20" transform="translate(3090.771484 0)"/>
    <use xlink:href="#Arial-ItalicMT-63" transform="translate(3118.554688 0)"/>
    <use xlink:href="#Arial-ItalicMT-6f" transform="translate(3168.554688 0)"/>
    <use xlink:href="#Arial-ItalicMT-6e" transform="translate(3224.169922 0)"/>
    <use xlink:href="#Arial-ItalicMT-6e" transform="translate(3279.785156 0)"/>
    <use xlink:href="#Arial-ItalicMT-65" transform="translate(3335.400391 0)"/>
    <use xlink:href="#Arial-ItalicMT-63" transform="translate(3391.015625 0)"/>
    <use xlink:href="#Arial-ItalicMT-74" transform="translate(3441.015625 0)"/>
    <use xlink:href="#Arial-ItalicMT-65" transform="translate(3468.798828 0)"/>
    <use xlink:href="#Arial-ItalicMT-64" transform="translate(3524.414062 0)"/>
    <use xlink:href="#Arial-ItalicMT-6e" transform="translate(3580.029297 0)"/>
    <use xlink:href="#Arial-ItalicMT-65" transform="translate(3635.644531 0)"/>
    <use xlink:href="#Arial-ItalicMT-73" transform="translate(3691.259766 0)"/>
    <use xlink:href="#Arial-ItalicMT-73" transform="translate(3741.259766 0)"/>
    <use xlink:href="#Arial-ItalicMT-20" transform="translate(3791.259766 0)"/>
    <use xlink:href="#Arial-ItalicMT-69" transform="translate(3819.042969 0)"/>
    <use xlink:href="#Arial-ItalicMT-6e" transform="translate(3841.259766 0)"/>
    <use xlink:href="#Arial-ItalicMT-74" transform="translate(3896.875 0)"/>
    <use xlink:href="#Arial-ItalicMT-65" transform="translate(3924.658203 0)"/>
    <use xlink:href="#Arial-ItalicMT-72" transform="translate(3980.273438 0)"/>
    <use xlink:href="#Arial-ItalicMT-61" transform="translate(4013.574219 0)"/>
    <use xlink:href="#Arial-ItalicMT-63" transform="translate(4069.189453 0)"/>
    <use xlink:href="#Arial-ItalicMT-74" transform="translate(4119.189453 0)"/>
    <use xlink:href="#Arial-ItalicMT-20" transform="translate(4146.972656 0)"/>
    <use xlink:href="#Arial-ItalicMT-73" transform="translate(4174.755859 0)"/>
    <use xlink:href="#Arial-ItalicMT-79" transform="translate(4224.755859 0)"/>
    <use xlink:href="#Arial-ItalicMT-6e" transform="translate(4274.755859 0)"/>
    <use xlink:href="#Arial-ItalicMT-65" transform="translate(4330.371094 0)"/>
    <use xlink:href="#Arial-ItalicMT-72" transform="translate(4385.986328 0)"/>
    <use xlink:href="#Arial-ItalicMT-67" transform="translate(4419.287109 0)"/>
    <use xlink:href="#Arial-ItalicMT-69" transform="translate(4474.902344 0)"/>
    <use xlink:href="#Arial-ItalicMT-73" transform="translate(4497.119141 0)"/>
    <use xlink:href="#Arial-ItalicMT-74" transform="translate(4547.119141 0)"/>
    <use xlink:href="#Arial-ItalicMT-69" transform="translate(4574.902344 0)"/>
    <use xlink:href="#Arial-ItalicMT-63" transform="translate(4597.119141 0)"/>
    <use xlink:href="#Arial-ItalicMT-61" transform="translate(4647.119141 0)"/>
    <use xlink:href="#Arial-ItalicMT-6c" transform="translate(4702.734375 0)"/>
    <use xlink:href="#Arial-ItalicMT-6c" transform="translate(4724.951172 0)"/>
    <use xlink:href="#Arial-ItalicMT-79" transform="translate(4747.167969 0)"/>
    <use xlink:href="#Arial-ItalicMT-20" transform="translate(4797.167969 0)"/>
    <use xlink:href="#Arial-ItalicMT-28" transform="translate(4824.951172 0)"/>
    <use xlink:href="#Arial-ItalicMT-394" transform="translate(4858.251953 0)"/>
    <use xlink:href="#Arial-ItalicMT-52" transform="translate(4925.341797 0)"/>
    <use xlink:href="#Arial-ItalicMT-b2" transform="translate(4997.558594 0)"/>
    <use xlink:href="#Arial-ItalicMT-20" transform="translate(5030.859375 0)"/>
    <use xlink:href="#Arial-ItalicMT-3d" transform="translate(5058.642578 0)"/>
    <use xlink:href="#Arial-ItalicMT-20" transform="translate(5117.041016 0)"/>
    <use xlink:href="#Arial-ItalicMT-37" transform="translate(5144.824219 0)"/>
    <use xlink:href="#Arial-ItalicMT-2e" transform="translate(5200.439453 0)"/>
    <use xlink:href="#Arial-ItalicMT-32" transform="translate(5228.222656 0)"/>
    <use xlink:href="#Arial-ItalicMT-25" transform="translate(5283.837891 0)"/>
    <use xlink:href="#Arial-ItalicMT-29" transform="translate(5372.753906 0)"/>
    <use xlink:href="#Arial-ItalicMT-2e" transform="translate(5406.054688 0)"/>
   </g>
   <!-- In France, family support, sense of connectedness, and openness to experience show a conflicting pattern (ΔR² = 2.3%). -->
   <g style="fill: #333333" transform="translate(165.045312 496.855313) scale(0.1 -0.1)">
    <defs>
     <path id="Arial-ItalicMT-78" d="M -9 0 
L 1434 1684 
L 606 3319 
L 1231 3319 
L 1513 2728 
Q 1669 2397 1794 2094 
L 2750 3319 
L 3441 3319 
L 2047 1641 
L 2884 0 
L 2259 0 
L 1928 675 
Q 1822 891 1688 1209 
L 700 0 
L -9 0 
z
" transform="scale(0.015625)"/>
    </defs>
    <use xlink:href="#Arial-ItalicMT-49"/>
    <use xlink:href="#Arial-ItalicMT-6e" transform="translate(27.783203 0)"/>
    <use xlink:href="#Arial-ItalicMT-20" transform="translate(83.398438 0)"/>
    <use xlink:href="#Arial-ItalicMT-46" transform="translate(111.181641 0)"/>
    <use xlink:href="#Arial-ItalicMT-72" transform="translate(172.265625 0)"/>
    <use xlink:href="#Arial-ItalicMT-61" transform="translate(205.566406 0)"/>
    <use xlink:href="#Arial-ItalicMT-6e" transform="translate(261.181641 0)"/>
    <use xlink:href="#Arial-ItalicMT-63" transform="translate(316.796875 0)"/>
    <use xlink:href="#Arial-ItalicMT-65" transform="translate(366.796875 0)"/>
    <use xlink:href="#Arial-ItalicMT-2c" transform="translate(422.412109 0)"/>
    <use xlink:href="#Arial-ItalicMT-20" transform="translate(450.195312 0)"/>
    <use xlink:href="#Arial-ItalicMT-66" transform="translate(477.978516 0)"/>
    <use xlink:href="#Arial-ItalicMT-61" transform="translate(505.761719 0)"/>
    <use xlink:href="#Arial-ItalicMT-6d" transform="translate(561.376953 0)"/>
    <use xlink:href="#Arial-ItalicMT-69" transform="translate(644.677734 0)"/>
    <use xlink:href="#Arial-ItalicMT-6c" transform="translate(666.894531 0)"/>
    <use xlink:href="#Arial-ItalicMT-79" transform="translate(689.111328 0)"/>
    <use xlink:href="#Arial-ItalicMT-20" transform="translate(739.111328 0)"/>
    <use xlink:href="#Arial-ItalicMT-73" transform="translate(766.894531 0)"/>
    <use xlink:href="#Arial-ItalicMT-75" transform="translate(816.894531 0)"/>
    <use xlink:href="#Arial-ItalicMT-70" transform="translate(872.509766 0)"/>
    <use xlink:href="#Arial-ItalicMT-70" transform="translate(928.125 0)"/>
    <use xlink:href="#Arial-ItalicMT-6f" transform="translate(983.740234 0)"/>
    <use xlink:href="#Arial-ItalicMT-72" transform="translate(1039.355469 0)"/>
    <use xlink:href="#Arial-ItalicMT-74" transform="translate(1072.65625 0)"/>
    <use xlink:href="#Arial-ItalicMT-2c" transform="translate(1100.439453 0)"/>
    <use xlink:href="#Arial-ItalicMT-20" transform="translate(1128.222656 0)"/>
    <use xlink:href="#Arial-ItalicMT-73" transform="translate(1156.005859 0)"/>
    <use xlink:href="#Arial-ItalicMT-65" transform="translate(1206.005859 0)"/>
    <use xlink:href="#Arial-ItalicMT-6e" transform="translate(1261.621094 0)"/>
    <use xlink:href="#Arial-ItalicMT-73" transform="translate(1317.236328 0)"/>
    <use xlink:href="#Arial-ItalicMT-65" transform="translate(1367.236328 0)"/>
    <use xlink:href="#Arial-ItalicMT-20" transform="translate(1422.851562 0)"/>
    <use xlink:href="#Arial-ItalicMT-6f" transform="translate(1450.634766 0)"/>
    <use xlink:href="#Arial-ItalicMT-66" transform="translate(1506.25 0)"/>
    <use xlink:href="#Arial-ItalicMT-20" transform="translate(1534.033203 0)"/>
    <use xlink:href="#Arial-ItalicMT-63" transform="translate(1561.816406 0)"/>
    <use xlink:href="#Arial-ItalicMT-6f" transform="translate(1611.816406 0)"/>
    <use xlink:href="#Arial-ItalicMT-6e" transform="translate(1667.431641 0)"/>
    <use xlink:href="#Arial-ItalicMT-6e" transform="translate(1723.046875 0)"/>
    <use xlink:href="#Arial-ItalicMT-65" transform="translate(1778.662109 0)"/>
    <use xlink:href="#Arial-ItalicMT-63" transform="translate(1834.277344 0)"/>
    <use xlink:href="#Arial-ItalicMT-74" transform="translate(1884.277344 0)"/>
    <use xlink:href="#Arial-ItalicMT-65" transform="translate(1912.060547 0)"/>
    <use xlink:href="#Arial-ItalicMT-64" transform="translate(1967.675781 0)"/>
    <use xlink:href="#Arial-ItalicMT-6e" transform="translate(2023.291016 0)"/>
    <use xlink:href="#Arial-ItalicMT-65" transform="translate(2078.90625 0)"/>
    <use xlink:href="#Arial-ItalicMT-73" transform="translate(2134.521484 0)"/>
    <use xlink:href="#Arial-ItalicMT-73" transform="translate(2184.521484 0)"/>
    <use xlink:href="#Arial-ItalicMT-2c" transform="translate(2234.521484 0)"/>
    <use xlink:href="#Arial-ItalicMT-20" transform="translate(2262.304688 0)"/>
    <use xlink:href="#Arial-ItalicMT-61" transform="translate(2290.087891 0)"/>
    <use xlink:href="#Arial-ItalicMT-6e" transform="translate(2345.703125 0)"/>
    <use xlink:href="#Arial-ItalicMT-64" transform="translate(2401.318359 0)"/>
    <use xlink:href="#Arial-ItalicMT-20" transform="translate(2456.933594 0)"/>
    <use xlink:href="#Arial-ItalicMT-6f" transform="translate(2484.716797 0)"/>
    <use xlink:href="#Arial-ItalicMT-70" transform="translate(2540.332031 0)"/>
    <use xlink:href="#Arial-ItalicMT-65" transform="translate(2595.947266 0)"/>
    <use xlink:href="#Arial-ItalicMT-6e" transform="translate(2651.5625 0)"/>
    <use xlink:href="#Arial-ItalicMT-6e" transform="translate(2707.177734 0)"/>
    <use xlink:href="#Arial-ItalicMT-65" transform="translate(2762.792969 0)"/>
    <use xlink:href="#Arial-ItalicMT-73" transform="translate(2818.408203 0)"/>
    <use xlink:href="#Arial-ItalicMT-73" transform="translate(2868.408203 0)"/>
    <use xlink:href="#Arial-ItalicMT-20" transform="translate(2918.408203 0)"/>
    <use xlink:href="#Arial-ItalicMT-74" transform="translate(2946.191406 0)"/>
    <use xlink:href="#Arial-ItalicMT-6f" transform="translate(2973.974609 0)"/>
    <use xlink:href="#Arial-ItalicMT-20" transform="translate(3029.589844 0)"/>
    <use xlink:href="#Arial-ItalicMT-65" transform="translate(3057.373047 0)"/>
    <use xlink:href="#Arial-ItalicMT-78" transform="translate(3112.988281 0)"/>
    <use xlink:href="#Arial-ItalicMT-70" transform="translate(3162.988281 0)"/>
    <use xlink:href="#Arial-ItalicMT-65" transform="translate(3218.603516 0)"/>
    <use xlink:href="#Arial-ItalicMT-72" transform="translate(3274.21875 0)"/>
    <use xlink:href="#Arial-ItalicMT-69" transform="translate(3307.519531 0)"/>
    <use xlink:href="#Arial-ItalicMT-65" transform="translate(3329.736328 0)"/>
    <use xlink:href="#Arial-ItalicMT-6e" transform="translate(3385.351562 0)"/>
    <use xlink:href="#Arial-ItalicMT-63" transform="translate(3440.966797 0)"/>
    <use xlink:href="#Arial-ItalicMT-65" transform="translate(3490.966797 0)"/>
    <use xlink:href="#Arial-ItalicMT-20" transform="translate(3546.582031 0)"/>
    <use xlink:href="#Arial-ItalicMT-73" transform="translate(3574.365234 0)"/>
    <use xlink:href="#Arial-ItalicMT-68" transform="translate(3624.365234 0)"/>
    <use xlink:href="#Arial-ItalicMT-6f" transform="translate(3679.980469 0)"/>
    <use xlink:href="#Arial-ItalicMT-77" transform="translate(3735.595703 0)"/>
    <use xlink:href="#Arial-ItalicMT-20" transform="translate(3807.8125 0)"/>
    <use xlink:href="#Arial-ItalicMT-61" transform="translate(3835.595703 0)"/>
    <use xlink:href="#Arial-ItalicMT-20" transform="translate(3891.210938 0)"/>
    <use xlink:href="#Arial-ItalicMT-63" transform="translate(3918.994141 0)"/>
    <use xlink:href="#Arial-ItalicMT-6f" transform="translate(3968.994141 0)"/>
    <use xlink:href="#Arial-ItalicMT-6e" transform="translate(4024.609375 0)"/>
    <use xlink:href="#Arial-ItalicMT-66" transform="translate(4080.224609 0)"/>
    <use xlink:href="#Arial-ItalicMT-6c" transform="translate(4108.007812 0)"/>
    <use xlink:href="#Arial-ItalicMT-69" transform="translate(4130.224609 0)"/>
    <use xlink:href="#Arial-ItalicMT-63" transform="translate(4152.441406 0)"/>
    <use xlink:href="#Arial-ItalicMT-74" transform="translate(4202.441406 0)"/>
    <use xlink:href="#Arial-ItalicMT-69" transform="translate(4230.224609 0)"/>
    <use xlink:href="#Arial-ItalicMT-6e" transform="translate(4252.441406 0)"/>
    <use xlink:href="#Arial-ItalicMT-67" transform="translate(4308.056641 0)"/>
    <use xlink:href="#Arial-ItalicMT-20" transform="translate(4363.671875 0)"/>
    <use xlink:href="#Arial-ItalicMT-70" transform="translate(4391.455078 0)"/>
    <use xlink:href="#Arial-ItalicMT-61" transform="translate(4447.070312 0)"/>
    <use xlink:href="#Arial-ItalicMT-74" transform="translate(4502.685547 0)"/>
    <use xlink:href="#Arial-ItalicMT-74" transform="translate(4530.46875 0)"/>
    <use xlink:href="#Arial-ItalicMT-65" transform="translate(4558.251953 0)"/>
    <use xlink:href="#Arial-ItalicMT-72" transform="translate(4613.867188 0)"/>
    <use xlink:href="#Arial-ItalicMT-6e" transform="translate(4647.167969 0)"/>
    <use xlink:href="#Arial-ItalicMT-20" transform="translate(4702.783203 0)"/>
    <use xlink:href="#Arial-ItalicMT-28" transform="translate(4730.566406 0)"/>
    <use xlink:href="#Arial-ItalicMT-394" transform="translate(4763.867188 0)"/>
    <use xlink:href="#Arial-ItalicMT-52" transform="translate(4830.957031 0)"/>
    <use xlink:href="#Arial-ItalicMT-b2" transform="translate(4903.173828 0)"/>
    <use xlink:href="#Arial-ItalicMT-20" transform="translate(4936.474609 0)"/>
    <use xlink:href="#Arial-ItalicMT-3d" transform="translate(4964.257812 0)"/>
    <use xlink:href="#Arial-ItalicMT-20" transform="translate(5022.65625 0)"/>
    <use xlink:href="#Arial-ItalicMT-32" transform="translate(5050.439453 0)"/>
    <use xlink:href="#Arial-ItalicMT-2e" transform="translate(5106.054688 0)"/>
    <use xlink:href="#Arial-ItalicMT-33" transform="translate(5133.837891 0)"/>
    <use xlink:href="#Arial-ItalicMT-25" transform="translate(5189.453125 0)"/>
    <use xlink:href="#Arial-ItalicMT-29" transform="translate(5278.369141 0)"/>
    <use xlink:href="#Arial-ItalicMT-2e" transform="translate(5311.669922 0)"/>
   </g>
  </g>
 </g>
 <defs>
  <clipPath id="pe9aa366b75">
   <rect x="10.8" y="78.7675" width="415.8" height="364.0325"/>
  </clipPath>
  <clipPath id="pe01899c5dd">
   <rect x="437.4" y="78.7675" width="415.8" height="364.0325"/>
  </clipPath>
 </defs>
</svg>
