<?xml version="1.0" encoding="utf-8" standalone="no"?>
<!DOCTYPE svg PUBLIC "-//W3C//DTD SVG 1.1//EN"
  "http://www.w3.org/Graphics/SVG/1.1/DTD/svg11.dtd">
<svg xmlns:xlink="http://www.w3.org/1999/xlink" width="854.859062pt" height="493.502344pt" viewBox="0 0 854.859062 493.502344" xmlns="http://www.w3.org/2000/svg" version="1.1">
 <metadata>
  <rdf:RDF xmlns:dc="http://purl.org/dc/elements/1.1/" xmlns:cc="http://creativecommons.org/ns#" xmlns:rdf="http://www.w3.org/1999/02/22-rdf-syntax-ns#">
   <cc:Work>
    <dc:type rdf:resource="http://purl.org/dc/dcmitype/StillImage"/>
    <dc:date>2026-03-29T23:43:38.819227</dc:date>
    <dc:format>image/svg+xml</dc:format>
    <dc:creator>
     <cc:Agent>
      <dc:title>Matplotlib v3.10.8, https://matplotlib.org/</dc:title>
     </cc:Agent>
    </dc:creator>
   </cc:Work>
  </rdf:RDF>
 </metadata>
 <defs>
  <style type="text/css">*{stroke-linejoin: round; stroke-linecap: butt}</style>
 </defs>
 <g id="figure_1">
  <g id="patch_1">
   <path d="M 0 493.502344 
L 854.859062 493.502344 
L 854.859062 0 
L 0 0 
z
" style="fill: #ffffff"/>
  </g>
  <g id="axes_1">
   <g id="patch_2">
    <path d="M 41.537813 453.98125 
L 847.659063 453.98125 
L 847.659063 45.756 
L 41.537813 45.756 
z
" style="fill: #ffffff"/>
   </g>
   <g id="matplotlib.axis_1">
    <g id="xtick_1">
     <g id="line2d_1">
      <path d="M 41.537813 453.98125 
L 41.537813 45.756 
" clip-path="url(#p81beae35f0)" style="fill: none; stroke: #cccccc; stroke-opacity: 0.3; stroke-width: 0.8; stroke-linecap: round"/>
     </g>
     <g id="text_1">
      <!-- 0 -->
      <g style="fill: #262626" transform="translate(38.479297 468.854844) scale(0.11 -0.11)">
       <defs>
        <path id="ArialMT-30" d="M 266 2259 
Q 266 3072 433 3567 
Q 600 4063 929 4331 
Q 1259 4600 1759 4600 
Q 2128 4600 2406 4451 
Q 2684 4303 2865 4023 
Q 3047 3744 3150 3342 
Q 3253 2941 3253 2259 
Q 3253 1453 3087 958 
Q 2922 463 2592 192 
Q 2263 -78 1759 -78 
Q 1097 -78 719 397 
Q 266 969 266 2259 
z
M 844 2259 
Q 844 1131 1108 757 
Q 1372 384 1759 384 
Q 2147 384 2411 759 
Q 2675 1134 2675 2259 
Q 2675 3391 2411 3762 
Q 2147 4134 1753 4134 
Q 1366 4134 1134 3806 
Q 844 3388 844 2259 
z
" transform="scale(0.015625)"/>
       </defs>
       <use xlink:href="#ArialMT-30"/>
      </g>
     </g>
    </g>
    <g id="xtick_2">
     <g id="line2d_2">
      <path d="M 209.47974 453.98125 
L 209.47974 45.756 
" clip-path="url(#p81beae35f0)" style="fill: none; stroke: #cccccc; stroke-opacity: 0.3; stroke-width: 0.8; stroke-linecap: round"/>
     </g>
     <g id="text_2">
      <!-- 10 -->
      <g style="fill: #262626" transform="translate(203.362708 468.854844) scale(0.11 -0.11)">
       <defs>
        <path id="ArialMT-31" d="M 2384 0 
L 1822 0 
L 1822 3584 
Q 1619 3391 1289 3197 
Q 959 3003 697 2906 
L 697 3450 
Q 1169 3672 1522 3987 
Q 1875 4303 2022 4600 
L 2384 4600 
L 2384 0 
z
" transform="scale(0.015625)"/>
       </defs>
       <use xlink:href="#ArialMT-31"/>
       <use xlink:href="#ArialMT-30" transform="translate(55.615234 0)"/>
      </g>
     </g>
    </g>
    <g id="xtick_3">
     <g id="line2d_3">
      <path d="M 377.421667 453.98125 
L 377.421667 45.756 
" clip-path="url(#p81beae35f0)" style="fill: none; stroke: #cccccc; stroke-opacity: 0.3; stroke-width: 0.8; stroke-linecap: round"/>
     </g>
     <g id="text_3">
      <!-- 20 -->
      <g style="fill: #262626" transform="translate(371.304635 468.854844) scale(0.11 -0.11)">
       <defs>
        <path id="ArialMT-32" d="M 3222 541 
L 3222 0 
L 194 0 
Q 188 203 259 391 
Q 375 700 629 1000 
Q 884 1300 1366 1694 
Q 2113 2306 2375 2664 
Q 2638 3022 2638 3341 
Q 2638 3675 2398 3904 
Q 2159 4134 1775 4134 
Q 1369 4134 1125 3890 
Q 881 3647 878 3216 
L 300 3275 
Q 359 3922 746 4261 
Q 1134 4600 1788 4600 
Q 2447 4600 2831 4234 
Q 3216 3869 3216 3328 
Q 3216 3053 3103 2787 
Q 2991 2522 2730 2228 
Q 2469 1934 1863 1422 
Q 1356 997 1212 845 
Q 1069 694 975 541 
L 3222 541 
z
" transform="scale(0.015625)"/>
       </defs>
       <use xlink:href="#ArialMT-32"/>
       <use xlink:href="#ArialMT-30" transform="translate(55.615234 0)"/>
      </g>
     </g>
    </g>
    <g id="xtick_4">
     <g id="line2d_4">
      <path d="M 545.363594 453.98125 
L 545.363594 45.756 
" clip-path="url(#p81beae35f0)" style="fill: none; stroke: #cccccc; stroke-opacity: 0.3; stroke-width: 0.8; stroke-linecap: round"/>
     </g>
     <g id="text_4">
      <!-- 30 -->
      <g style="fill: #262626" transform="translate(539.246563 468.854844) scale(0.11 -0.11)">
       <defs>
        <path id="ArialMT-33" d="M 269 1209 
L 831 1284 
Q 928 806 1161 595 
Q 1394 384 1728 384 
Q 2125 384 2398 659 
Q 2672 934 2672 1341 
Q 2672 1728 2419 1979 
Q 2166 2231 1775 2231 
Q 1616 2231 1378 2169 
L 1441 2663 
Q 1497 2656 1531 2656 
Q 1891 2656 2178 2843 
Q 2466 3031 2466 3422 
Q 2466 3731 2256 3934 
Q 2047 4138 1716 4138 
Q 1388 4138 1169 3931 
Q 950 3725 888 3313 
L 325 3413 
Q 428 3978 793 4289 
Q 1159 4600 1703 4600 
Q 2078 4600 2393 4439 
Q 2709 4278 2876 4000 
Q 3044 3722 3044 3409 
Q 3044 3113 2884 2869 
Q 2725 2625 2413 2481 
Q 2819 2388 3044 2092 
Q 3269 1797 3269 1353 
Q 3269 753 2831 336 
Q 2394 -81 1725 -81 
Q 1122 -81 723 278 
Q 325 638 269 1209 
z
" transform="scale(0.015625)"/>
       </defs>
       <use xlink:href="#ArialMT-33"/>
       <use xlink:href="#ArialMT-30" transform="translate(55.615234 0)"/>
      </g>
     </g>
    </g>
    <g id="xtick_5">
     <g id="line2d_5">
      <path d="M 713.305521 453.98125 
L 713.305521 45.756 
" clip-path="url(#p81beae35f0)" style="fill: none; stroke: #cccccc; stroke-opacity: 0.3; stroke-width: 0.8; stroke-linecap: round"/>
     </g>
     <g id="text_5">
      <!-- 40 -->
      <g style="fill: #262626" transform="translate(707.18849 468.854844) scale(0.11 -0.11)">
       <defs>
        <path id="ArialMT-34" d="M 2069 0 
L 2069 1097 
L 81 1097 
L 81 1613 
L 2172 4581 
L 2631 4581 
L 2631 1613 
L 3250 1613 
L 3250 1097 
L 2631 1097 
L 2631 0 
L 2069 0 
z
M 2069 1613 
L 2069 3678 
L 634 1613 
L 2069 1613 
z
" transform="scale(0.015625)"/>
       </defs>
       <use xlink:href="#ArialMT-34"/>
       <use xlink:href="#ArialMT-30" transform="translate(55.615234 0)"/>
      </g>
     </g>
    </g>
    <g id="text_6">
     <!-- Months in Host Country -->
     <g style="fill: #262626" transform="translate(376.610938 483.776719) scale(0.12 -0.12)">
      <defs>
       <path id="Arial-BoldMT-4d" d="M 453 0 
L 453 4581 
L 1838 4581 
L 2669 1456 
L 3491 4581 
L 4878 4581 
L 4878 0 
L 4019 0 
L 4019 3606 
L 3109 0 
L 2219 0 
L 1313 3606 
L 1313 0 
L 453 0 
z
" transform="scale(0.015625)"/>
       <path id="Arial-BoldMT-6f" d="M 256 1706 
Q 256 2144 472 2553 
Q 688 2963 1083 3178 
Q 1478 3394 1966 3394 
Q 2719 3394 3200 2905 
Q 3681 2416 3681 1669 
Q 3681 916 3195 420 
Q 2709 -75 1972 -75 
Q 1516 -75 1102 131 
Q 688 338 472 736 
Q 256 1134 256 1706 
z
M 1156 1659 
Q 1156 1166 1390 903 
Q 1625 641 1969 641 
Q 2313 641 2545 903 
Q 2778 1166 2778 1666 
Q 2778 2153 2545 2415 
Q 2313 2678 1969 2678 
Q 1625 2678 1390 2415 
Q 1156 2153 1156 1659 
z
" transform="scale(0.015625)"/>
       <path id="Arial-BoldMT-6e" d="M 3478 0 
L 2600 0 
L 2600 1694 
Q 2600 2231 2544 2389 
Q 2488 2547 2361 2634 
Q 2234 2722 2056 2722 
Q 1828 2722 1647 2597 
Q 1466 2472 1398 2265 
Q 1331 2059 1331 1503 
L 1331 0 
L 453 0 
L 453 3319 
L 1269 3319 
L 1269 2831 
Q 1703 3394 2363 3394 
Q 2653 3394 2893 3289 
Q 3134 3184 3257 3021 
Q 3381 2859 3429 2653 
Q 3478 2447 3478 2063 
L 3478 0 
z
" transform="scale(0.015625)"/>
       <path id="Arial-BoldMT-74" d="M 1981 3319 
L 1981 2619 
L 1381 2619 
L 1381 1281 
Q 1381 875 1398 808 
Q 1416 741 1477 697 
Q 1538 653 1625 653 
Q 1747 653 1978 738 
L 2053 56 
Q 1747 -75 1359 -75 
Q 1122 -75 931 4 
Q 741 84 652 211 
Q 563 338 528 553 
Q 500 706 500 1172 
L 500 2619 
L 97 2619 
L 97 3319 
L 500 3319 
L 500 3978 
L 1381 4491 
L 1381 3319 
L 1981 3319 
z
" transform="scale(0.015625)"/>
       <path id="Arial-BoldMT-68" d="M 1334 4581 
L 1334 2897 
Q 1759 3394 2350 3394 
Q 2653 3394 2897 3281 
Q 3141 3169 3264 2994 
Q 3388 2819 3433 2606 
Q 3478 2394 3478 1947 
L 3478 0 
L 2600 0 
L 2600 1753 
Q 2600 2275 2550 2415 
Q 2500 2556 2373 2639 
Q 2247 2722 2056 2722 
Q 1838 2722 1666 2615 
Q 1494 2509 1414 2295 
Q 1334 2081 1334 1663 
L 1334 0 
L 456 0 
L 456 4581 
L 1334 4581 
z
" transform="scale(0.015625)"/>
       <path id="Arial-BoldMT-73" d="M 150 947 
L 1031 1081 
Q 1088 825 1259 692 
Q 1431 559 1741 559 
Q 2081 559 2253 684 
Q 2369 772 2369 919 
Q 2369 1019 2306 1084 
Q 2241 1147 2013 1200 
Q 950 1434 666 1628 
Q 272 1897 272 2375 
Q 272 2806 612 3100 
Q 953 3394 1669 3394 
Q 2350 3394 2681 3172 
Q 3013 2950 3138 2516 
L 2309 2363 
Q 2256 2556 2107 2659 
Q 1959 2763 1684 2763 
Q 1338 2763 1188 2666 
Q 1088 2597 1088 2488 
Q 1088 2394 1175 2328 
Q 1294 2241 1995 2081 
Q 2697 1922 2975 1691 
Q 3250 1456 3250 1038 
Q 3250 581 2869 253 
Q 2488 -75 1741 -75 
Q 1063 -75 667 200 
Q 272 475 150 947 
z
" transform="scale(0.015625)"/>
       <path id="Arial-BoldMT-20" transform="scale(0.015625)"/>
       <path id="Arial-BoldMT-69" d="M 459 3769 
L 459 4581 
L 1338 4581 
L 1338 3769 
L 459 3769 
z
M 459 0 
L 459 3319 
L 1338 3319 
L 1338 0 
L 459 0 
z
" transform="scale(0.015625)"/>
       <path id="Arial-BoldMT-48" d="M 469 0 
L 469 4581 
L 1394 4581 
L 1394 2778 
L 3206 2778 
L 3206 4581 
L 4131 4581 
L 4131 0 
L 3206 0 
L 3206 2003 
L 1394 2003 
L 1394 0 
L 469 0 
z
" transform="scale(0.015625)"/>
       <path id="Arial-BoldMT-43" d="M 3397 1684 
L 4294 1400 
Q 4088 650 3608 286 
Q 3128 -78 2391 -78 
Q 1478 -78 890 545 
Q 303 1169 303 2250 
Q 303 3394 893 4026 
Q 1484 4659 2447 4659 
Q 3288 4659 3813 4163 
Q 4125 3869 4281 3319 
L 3366 3100 
Q 3284 3456 3026 3662 
Q 2769 3869 2400 3869 
Q 1891 3869 1573 3503 
Q 1256 3138 1256 2319 
Q 1256 1450 1568 1081 
Q 1881 713 2381 713 
Q 2750 713 3015 947 
Q 3281 1181 3397 1684 
z
" transform="scale(0.015625)"/>
       <path id="Arial-BoldMT-75" d="M 2644 0 
L 2644 497 
Q 2463 231 2167 78 
Q 1872 -75 1544 -75 
Q 1209 -75 943 72 
Q 678 219 559 484 
Q 441 750 441 1219 
L 441 3319 
L 1319 3319 
L 1319 1794 
Q 1319 1094 1367 936 
Q 1416 778 1544 686 
Q 1672 594 1869 594 
Q 2094 594 2272 717 
Q 2450 841 2515 1023 
Q 2581 1206 2581 1919 
L 2581 3319 
L 3459 3319 
L 3459 0 
L 2644 0 
z
" transform="scale(0.015625)"/>
       <path id="Arial-BoldMT-72" d="M 1300 0 
L 422 0 
L 422 3319 
L 1238 3319 
L 1238 2847 
Q 1447 3181 1614 3287 
Q 1781 3394 1994 3394 
Q 2294 3394 2572 3228 
L 2300 2463 
Q 2078 2606 1888 2606 
Q 1703 2606 1575 2504 
Q 1447 2403 1373 2137 
Q 1300 1872 1300 1025 
L 1300 0 
z
" transform="scale(0.015625)"/>
       <path id="Arial-BoldMT-79" d="M 44 3319 
L 978 3319 
L 1772 963 
L 2547 3319 
L 3456 3319 
L 2284 125 
L 2075 -453 
Q 1959 -744 1854 -897 
Q 1750 -1050 1614 -1145 
Q 1478 -1241 1279 -1294 
Q 1081 -1347 831 -1347 
Q 578 -1347 334 -1294 
L 256 -606 
Q 463 -647 628 -647 
Q 934 -647 1081 -467 
Q 1228 -288 1306 -9 
L 44 3319 
z
" transform="scale(0.015625)"/>
      </defs>
      <use xlink:href="#Arial-BoldMT-4d"/>
      <use xlink:href="#Arial-BoldMT-6f" transform="translate(83.300781 0)"/>
      <use xlink:href="#Arial-BoldMT-6e" transform="translate(144.384766 0)"/>
      <use xlink:href="#Arial-BoldMT-74" transform="translate(205.46875 0)"/>
      <use xlink:href="#Arial-BoldMT-68" transform="translate(238.769531 0)"/>
      <use xlink:href="#Arial-BoldMT-73" transform="translate(299.853516 0)"/>
      <use xlink:href="#Arial-BoldMT-20" transform="translate(355.46875 0)"/>
      <use xlink:href="#Arial-BoldMT-69" transform="translate(383.251953 0)"/>
      <use xlink:href="#Arial-BoldMT-6e" transform="translate(411.035156 0)"/>
      <use xlink:href="#Arial-BoldMT-20" transform="translate(472.119141 0)"/>
      <use xlink:href="#Arial-BoldMT-48" transform="translate(499.902344 0)"/>
      <use xlink:href="#Arial-BoldMT-6f" transform="translate(572.119141 0)"/>
      <use xlink:href="#Arial-BoldMT-73" transform="translate(633.203125 0)"/>
      <use xlink:href="#Arial-BoldMT-74" transform="translate(688.818359 0)"/>
      <use xlink:href="#Arial-BoldMT-20" transform="translate(722.119141 0)"/>
      <use xlink:href="#Arial-BoldMT-43" transform="translate(749.902344 0)"/>
      <use xlink:href="#Arial-BoldMT-6f" transform="translate(822.119141 0)"/>
      <use xlink:href="#Arial-BoldMT-75" transform="translate(883.203125 0)"/>
      <use xlink:href="#Arial-BoldMT-6e" transform="translate(944.287109 0)"/>
      <use xlink:href="#Arial-BoldMT-74" transform="translate(1005.371094 0)"/>
      <use xlink:href="#Arial-BoldMT-72" transform="translate(1038.671875 0)"/>
      <use xlink:href="#Arial-BoldMT-79" transform="translate(1077.587891 0)"/>
     </g>
    </g>
   </g>
   <g id="matplotlib.axis_2">
    <g id="ytick_1">
     <g id="line2d_6">
      <path d="M 41.537813 419.962479 
L 847.659063 419.962479 
" clip-path="url(#p81beae35f0)" style="fill: none; stroke: #cccccc; stroke-opacity: 0.3; stroke-width: 0.8; stroke-linecap: round"/>
     </g>
     <g id="text_7">
      <!-- 10 -->
      <g style="fill: #262626" transform="translate(22.30375 423.899276) scale(0.11 -0.11)">
       <use xlink:href="#ArialMT-31"/>
       <use xlink:href="#ArialMT-30" transform="translate(55.615234 0)"/>
      </g>
     </g>
    </g>
    <g id="ytick_2">
     <g id="line2d_7">
      <path d="M 41.537813 334.915552 
L 847.659063 334.915552 
" clip-path="url(#p81beae35f0)" style="fill: none; stroke: #cccccc; stroke-opacity: 0.3; stroke-width: 0.8; stroke-linecap: round"/>
     </g>
     <g id="text_8">
      <!-- 15 -->
      <g style="fill: #262626" transform="translate(22.30375 338.852349) scale(0.11 -0.11)">
       <defs>
        <path id="ArialMT-35" d="M 266 1200 
L 856 1250 
Q 922 819 1161 601 
Q 1400 384 1738 384 
Q 2144 384 2425 690 
Q 2706 997 2706 1503 
Q 2706 1984 2436 2262 
Q 2166 2541 1728 2541 
Q 1456 2541 1237 2417 
Q 1019 2294 894 2097 
L 366 2166 
L 809 4519 
L 3088 4519 
L 3088 3981 
L 1259 3981 
L 1013 2750 
Q 1425 3038 1878 3038 
Q 2478 3038 2890 2622 
Q 3303 2206 3303 1553 
Q 3303 931 2941 478 
Q 2500 -78 1738 -78 
Q 1113 -78 717 272 
Q 322 622 266 1200 
z
" transform="scale(0.015625)"/>
       </defs>
       <use xlink:href="#ArialMT-31"/>
       <use xlink:href="#ArialMT-35" transform="translate(55.615234 0)"/>
      </g>
     </g>
    </g>
    <g id="ytick_3">
     <g id="line2d_8">
      <path d="M 41.537813 249.868625 
L 847.659063 249.868625 
" clip-path="url(#p81beae35f0)" style="fill: none; stroke: #cccccc; stroke-opacity: 0.3; stroke-width: 0.8; stroke-linecap: round"/>
     </g>
     <g id="text_9">
      <!-- 20 -->
      <g style="fill: #262626" transform="translate(22.30375 253.805422) scale(0.11 -0.11)">
       <use xlink:href="#ArialMT-32"/>
       <use xlink:href="#ArialMT-30" transform="translate(55.615234 0)"/>
      </g>
     </g>
    </g>
    <g id="ytick_4">
     <g id="line2d_9">
      <path d="M 41.537813 164.821698 
L 847.659063 164.821698 
" clip-path="url(#p81beae35f0)" style="fill: none; stroke: #cccccc; stroke-opacity: 0.3; stroke-width: 0.8; stroke-linecap: round"/>
     </g>
     <g id="text_10">
      <!-- 25 -->
      <g style="fill: #262626" transform="translate(22.30375 168.758495) scale(0.11 -0.11)">
       <use xlink:href="#ArialMT-32"/>
       <use xlink:href="#ArialMT-35" transform="translate(55.615234 0)"/>
      </g>
     </g>
    </g>
    <g id="ytick_5">
     <g id="line2d_10">
      <path d="M 41.537813 79.774771 
L 847.659063 79.774771 
" clip-path="url(#p81beae35f0)" style="fill: none; stroke: #cccccc; stroke-opacity: 0.3; stroke-width: 0.8; stroke-linecap: round"/>
     </g>
     <g id="text_11">
      <!-- 30 -->
      <g style="fill: #262626" transform="translate(22.30375 83.711568) scale(0.11 -0.11)">
       <use xlink:href="#ArialMT-33"/>
       <use xlink:href="#ArialMT-30" transform="translate(55.615234 0)"/>
      </g>
     </g>
    </g>
    <g id="text_12">
     <!-- Cross-Cultural Adaptation Score -->
     <g style="fill: #262626" transform="translate(15.935625 342.650187) rotate(-90) scale(0.12 -0.12)">
      <defs>
       <path id="Arial-BoldMT-2d" d="M 359 1222 
L 359 2100 
L 2084 2100 
L 2084 1222 
L 359 1222 
z
" transform="scale(0.015625)"/>
       <path id="Arial-BoldMT-6c" d="M 459 0 
L 459 4581 
L 1338 4581 
L 1338 0 
L 459 0 
z
" transform="scale(0.015625)"/>
       <path id="Arial-BoldMT-61" d="M 1116 2306 
L 319 2450 
Q 453 2931 781 3162 
Q 1109 3394 1756 3394 
Q 2344 3394 2631 3255 
Q 2919 3116 3036 2902 
Q 3153 2688 3153 2116 
L 3144 1091 
Q 3144 653 3186 445 
Q 3228 238 3344 0 
L 2475 0 
Q 2441 88 2391 259 
Q 2369 338 2359 363 
Q 2134 144 1878 34 
Q 1622 -75 1331 -75 
Q 819 -75 523 203 
Q 228 481 228 906 
Q 228 1188 362 1408 
Q 497 1628 739 1745 
Q 981 1863 1438 1950 
Q 2053 2066 2291 2166 
L 2291 2253 
Q 2291 2506 2166 2614 
Q 2041 2722 1694 2722 
Q 1459 2722 1328 2630 
Q 1197 2538 1116 2306 
z
M 2291 1594 
Q 2122 1538 1756 1459 
Q 1391 1381 1278 1306 
Q 1106 1184 1106 997 
Q 1106 813 1243 678 
Q 1381 544 1594 544 
Q 1831 544 2047 700 
Q 2206 819 2256 991 
Q 2291 1103 2291 1419 
L 2291 1594 
z
" transform="scale(0.015625)"/>
       <path id="Arial-BoldMT-41" d="M 4597 0 
L 3591 0 
L 3191 1041 
L 1359 1041 
L 981 0 
L 0 0 
L 1784 4581 
L 2763 4581 
L 4597 0 
z
M 2894 1813 
L 2263 3513 
L 1644 1813 
L 2894 1813 
z
" transform="scale(0.015625)"/>
       <path id="Arial-BoldMT-64" d="M 3503 0 
L 2688 0 
L 2688 488 
Q 2484 203 2207 64 
Q 1931 -75 1650 -75 
Q 1078 -75 670 386 
Q 263 847 263 1672 
Q 263 2516 659 2955 
Q 1056 3394 1663 3394 
Q 2219 3394 2625 2931 
L 2625 4581 
L 3503 4581 
L 3503 0 
z
M 1159 1731 
Q 1159 1200 1306 963 
Q 1519 619 1900 619 
Q 2203 619 2415 876 
Q 2628 1134 2628 1647 
Q 2628 2219 2422 2470 
Q 2216 2722 1894 2722 
Q 1581 2722 1370 2473 
Q 1159 2225 1159 1731 
z
" transform="scale(0.015625)"/>
       <path id="Arial-BoldMT-70" d="M 434 3319 
L 1253 3319 
L 1253 2831 
Q 1413 3081 1684 3237 
Q 1956 3394 2288 3394 
Q 2866 3394 3269 2941 
Q 3672 2488 3672 1678 
Q 3672 847 3265 386 
Q 2859 -75 2281 -75 
Q 2006 -75 1782 34 
Q 1559 144 1313 409 
L 1313 -1263 
L 434 -1263 
L 434 3319 
z
M 1303 1716 
Q 1303 1156 1525 889 
Q 1747 622 2066 622 
Q 2372 622 2575 867 
Q 2778 1113 2778 1672 
Q 2778 2194 2568 2447 
Q 2359 2700 2050 2700 
Q 1728 2700 1515 2451 
Q 1303 2203 1303 1716 
z
" transform="scale(0.015625)"/>
       <path id="Arial-BoldMT-53" d="M 231 1491 
L 1131 1578 
Q 1213 1125 1461 912 
Q 1709 700 2131 700 
Q 2578 700 2804 889 
Q 3031 1078 3031 1331 
Q 3031 1494 2936 1608 
Q 2841 1722 2603 1806 
Q 2441 1863 1863 2006 
Q 1119 2191 819 2459 
Q 397 2838 397 3381 
Q 397 3731 595 4036 
Q 794 4341 1167 4500 
Q 1541 4659 2069 4659 
Q 2931 4659 3367 4281 
Q 3803 3903 3825 3272 
L 2900 3231 
Q 2841 3584 2645 3739 
Q 2450 3894 2059 3894 
Q 1656 3894 1428 3728 
Q 1281 3622 1281 3444 
Q 1281 3281 1419 3166 
Q 1594 3019 2269 2859 
Q 2944 2700 3267 2529 
Q 3591 2359 3773 2064 
Q 3956 1769 3956 1334 
Q 3956 941 3737 597 
Q 3519 253 3119 86 
Q 2719 -81 2122 -81 
Q 1253 -81 787 320 
Q 322 722 231 1491 
z
" transform="scale(0.015625)"/>
       <path id="Arial-BoldMT-63" d="M 3353 2338 
L 2488 2181 
Q 2444 2441 2289 2572 
Q 2134 2703 1888 2703 
Q 1559 2703 1364 2476 
Q 1169 2250 1169 1719 
Q 1169 1128 1367 884 
Q 1566 641 1900 641 
Q 2150 641 2309 783 
Q 2469 925 2534 1272 
L 3397 1125 
Q 3263 531 2881 228 
Q 2500 -75 1859 -75 
Q 1131 -75 698 384 
Q 266 844 266 1656 
Q 266 2478 700 2936 
Q 1134 3394 1875 3394 
Q 2481 3394 2839 3133 
Q 3197 2872 3353 2338 
z
" transform="scale(0.015625)"/>
       <path id="Arial-BoldMT-65" d="M 2381 1056 
L 3256 909 
Q 3088 428 2723 176 
Q 2359 -75 1813 -75 
Q 947 -75 531 491 
Q 203 944 203 1634 
Q 203 2459 634 2926 
Q 1066 3394 1725 3394 
Q 2466 3394 2894 2905 
Q 3322 2416 3303 1406 
L 1103 1406 
Q 1113 1016 1316 798 
Q 1519 581 1822 581 
Q 2028 581 2168 693 
Q 2309 806 2381 1056 
z
M 2431 1944 
Q 2422 2325 2234 2523 
Q 2047 2722 1778 2722 
Q 1491 2722 1303 2513 
Q 1116 2303 1119 1944 
L 2431 1944 
z
" transform="scale(0.015625)"/>
      </defs>
      <use xlink:href="#Arial-BoldMT-43"/>
      <use xlink:href="#Arial-BoldMT-72" transform="translate(72.216797 0)"/>
      <use xlink:href="#Arial-BoldMT-6f" transform="translate(111.132812 0)"/>
      <use xlink:href="#Arial-BoldMT-73" transform="translate(172.216797 0)"/>
      <use xlink:href="#Arial-BoldMT-73" transform="translate(227.832031 0)"/>
      <use xlink:href="#Arial-BoldMT-2d" transform="translate(283.447266 0)"/>
      <use xlink:href="#Arial-BoldMT-43" transform="translate(316.748047 0)"/>
      <use xlink:href="#Arial-BoldMT-75" transform="translate(388.964844 0)"/>
      <use xlink:href="#Arial-BoldMT-6c" transform="translate(450.048828 0)"/>
      <use xlink:href="#Arial-BoldMT-74" transform="translate(477.832031 0)"/>
      <use xlink:href="#Arial-BoldMT-75" transform="translate(511.132812 0)"/>
      <use xlink:href="#Arial-BoldMT-72" transform="translate(572.216797 0)"/>
      <use xlink:href="#Arial-BoldMT-61" transform="translate(611.132812 0)"/>
      <use xlink:href="#Arial-BoldMT-6c" transform="translate(666.748047 0)"/>
      <use xlink:href="#Arial-BoldMT-20" transform="translate(694.53125 0)"/>
      <use xlink:href="#Arial-BoldMT-41" transform="translate(718.564453 0)"/>
      <use xlink:href="#Arial-BoldMT-64" transform="translate(790.78125 0)"/>
      <use xlink:href="#Arial-BoldMT-61" transform="translate(851.865234 0)"/>
      <use xlink:href="#Arial-BoldMT-70" transform="translate(907.480469 0)"/>
      <use xlink:href="#Arial-BoldMT-74" transform="translate(968.564453 0)"/>
      <use xlink:href="#Arial-BoldMT-61" transform="translate(1001.865234 0)"/>
      <use xlink:href="#Arial-BoldMT-74" transform="translate(1057.480469 0)"/>
      <use xlink:href="#Arial-BoldMT-69" transform="translate(1090.78125 0)"/>
      <use xlink:href="#Arial-BoldMT-6f" transform="translate(1118.564453 0)"/>
      <use xlink:href="#Arial-BoldMT-6e" transform="translate(1179.648438 0)"/>
      <use xlink:href="#Arial-BoldMT-20" transform="translate(1240.732422 0)"/>
      <use xlink:href="#Arial-BoldMT-53" transform="translate(1268.515625 0)"/>
      <use xlink:href="#Arial-BoldMT-63" transform="translate(1335.214844 0)"/>
      <use xlink:href="#Arial-BoldMT-6f" transform="translate(1390.830078 0)"/>
      <use xlink:href="#Arial-BoldMT-72" transform="translate(1451.914062 0)"/>
      <use xlink:href="#Arial-BoldMT-65" transform="translate(1490.830078 0)"/>
     </g>
    </g>
   </g>
   <g id="PathCollection_1">
    <defs>
     <path id="m0d2166a1df" d="M 0 3.535534 
C 0.937635 3.535534 1.836992 3.163008 2.5 2.5 
C 3.163008 1.836992 3.535534 0.937635 3.535534 0 
C 3.535534 -0.937635 3.163008 -1.836992 2.5 -2.5 
C 1.836992 -3.163008 0.937635 -3.535534 0 -3.535534 
C -0.937635 -3.535534 -1.836992 -3.163008 -2.5 -2.5 
C -3.163008 -1.836992 -3.535534 -0.937635 -3.535534 0 
C -3.535534 0.937635 -3.163008 1.836992 -2.5 2.5 
C -1.836992 3.163008 -0.937635 3.535534 0 3.535534 
z
" style="stroke: #000000; stroke-opacity: 0.5; stroke-width: 0.5"/>
    </defs>
    <g clip-path="url(#p81beae35f0)">
     <use xlink:href="#m0d2166a1df" x="677.032088" y="185.759108" style="fill: #4682b4; fill-opacity: 0.5; stroke: #000000; stroke-opacity: 0.5; stroke-width: 0.5"/>
     <use xlink:href="#m0d2166a1df" x="559.423426" y="349.878093" style="fill: #4682b4; fill-opacity: 0.5; stroke: #000000; stroke-opacity: 0.5; stroke-width: 0.5"/>
     <use xlink:href="#m0d2166a1df" x="254.908456" y="61.093388" style="fill: #4682b4; fill-opacity: 0.5; stroke: #000000; stroke-opacity: 0.5; stroke-width: 0.5"/>
     <use xlink:href="#m0d2166a1df" x="656.701797" y="316.075514" style="fill: #4682b4; fill-opacity: 0.5; stroke: #000000; stroke-opacity: 0.5; stroke-width: 0.5"/>
     <use xlink:href="#m0d2166a1df" x="305.452102" y="170.204168" style="fill: #4682b4; fill-opacity: 0.5; stroke: #000000; stroke-opacity: 0.5; stroke-width: 0.5"/>
     <use xlink:href="#m0d2166a1df" x="798.118811" y="171.909701" style="fill: #4682b4; fill-opacity: 0.5; stroke: #000000; stroke-opacity: 0.5; stroke-width: 0.5"/>
     <use xlink:href="#m0d2166a1df" x="92.166863" y="45.756" style="fill: #4682b4; fill-opacity: 0.5; stroke: #000000; stroke-opacity: 0.5; stroke-width: 0.5"/>
     <use xlink:href="#m0d2166a1df" x="406.320418" y="243.939645" style="fill: #4682b4; fill-opacity: 0.5; stroke: #000000; stroke-opacity: 0.5; stroke-width: 0.5"/>
     <use xlink:href="#m0d2166a1df" x="778.768404" y="92.938788" style="fill: #4682b4; fill-opacity: 0.5; stroke: #000000; stroke-opacity: 0.5; stroke-width: 0.5"/>
     <use xlink:href="#m0d2166a1df" x="417.47891" y="282.023612" style="fill: #4682b4; fill-opacity: 0.5; stroke: #000000; stroke-opacity: 0.5; stroke-width: 0.5"/>
     <use xlink:href="#m0d2166a1df" x="459.258324" y="348.511065" style="fill: #4682b4; fill-opacity: 0.5; stroke: #000000; stroke-opacity: 0.5; stroke-width: 0.5"/>
     <use xlink:href="#m0d2166a1df" x="125.352151" y="45.756" style="fill: #4682b4; fill-opacity: 0.5; stroke: #000000; stroke-opacity: 0.5; stroke-width: 0.5"/>
     <use xlink:href="#m0d2166a1df" x="394.861431" y="270.246108" style="fill: #4682b4; fill-opacity: 0.5; stroke: #000000; stroke-opacity: 0.5; stroke-width: 0.5"/>
     <use xlink:href="#m0d2166a1df" x="646.946579" y="298.628234" style="fill: #4682b4; fill-opacity: 0.5; stroke: #000000; stroke-opacity: 0.5; stroke-width: 0.5"/>
     <use xlink:href="#m0d2166a1df" x="742.742812" y="189.823301" style="fill: #4682b4; fill-opacity: 0.5; stroke: #000000; stroke-opacity: 0.5; stroke-width: 0.5"/>
     <use xlink:href="#m0d2166a1df" x="313.8102" y="207.03232" style="fill: #4682b4; fill-opacity: 0.5; stroke: #000000; stroke-opacity: 0.5; stroke-width: 0.5"/>
     <use xlink:href="#m0d2166a1df" x="140.480743" y="45.756" style="fill: #4682b4; fill-opacity: 0.5; stroke: #000000; stroke-opacity: 0.5; stroke-width: 0.5"/>
     <use xlink:href="#m0d2166a1df" x="691.457589" y="217.183727" style="fill: #4682b4; fill-opacity: 0.5; stroke: #000000; stroke-opacity: 0.5; stroke-width: 0.5"/>
     <use xlink:href="#m0d2166a1df" x="369.983546" y="154.391712" style="fill: #4682b4; fill-opacity: 0.5; stroke: #000000; stroke-opacity: 0.5; stroke-width: 0.5"/>
     <use xlink:href="#m0d2166a1df" x="553.846343" y="293.592834" style="fill: #4682b4; fill-opacity: 0.5; stroke: #000000; stroke-opacity: 0.5; stroke-width: 0.5"/>
     <use xlink:href="#m0d2166a1df" x="86.738736" y="45.756" style="fill: #4682b4; fill-opacity: 0.5; stroke: #000000; stroke-opacity: 0.5; stroke-width: 0.5"/>
     <use xlink:href="#m0d2166a1df" x="295.057386" y="157.619256" style="fill: #4682b4; fill-opacity: 0.5; stroke: #000000; stroke-opacity: 0.5; stroke-width: 0.5"/>
     <use xlink:href="#m0d2166a1df" x="95.945981" y="45.756" style="fill: #4682b4; fill-opacity: 0.5; stroke: #000000; stroke-opacity: 0.5; stroke-width: 0.5"/>
     <use xlink:href="#m0d2166a1df" x="352.12828" y="178.223695" style="fill: #4682b4; fill-opacity: 0.5; stroke: #000000; stroke-opacity: 0.5; stroke-width: 0.5"/>
     <use xlink:href="#m0d2166a1df" x="265.46342" y="176.629646" style="fill: #4682b4; fill-opacity: 0.5; stroke: #000000; stroke-opacity: 0.5; stroke-width: 0.5"/>
     <use xlink:href="#m0d2166a1df" x="840.181141" y="109.510219" style="fill: #4682b4; fill-opacity: 0.5; stroke: #000000; stroke-opacity: 0.5; stroke-width: 0.5"/>
     <use xlink:href="#m0d2166a1df" x="370.23092" y="235.226718" style="fill: #4682b4; fill-opacity: 0.5; stroke: #000000; stroke-opacity: 0.5; stroke-width: 0.5"/>
     <use xlink:href="#m0d2166a1df" x="301.081066" y="157.174942" style="fill: #4682b4; fill-opacity: 0.5; stroke: #000000; stroke-opacity: 0.5; stroke-width: 0.5"/>
     <use xlink:href="#m0d2166a1df" x="232.853115" y="120.571504" style="fill: #4682b4; fill-opacity: 0.5; stroke: #000000; stroke-opacity: 0.5; stroke-width: 0.5"/>
     <use xlink:href="#m0d2166a1df" x="448.279324" y="342.085758" style="fill: #4682b4; fill-opacity: 0.5; stroke: #000000; stroke-opacity: 0.5; stroke-width: 0.5"/>
     <use xlink:href="#m0d2166a1df" x="104.014458" y="45.756" style="fill: #4682b4; fill-opacity: 0.5; stroke: #000000; stroke-opacity: 0.5; stroke-width: 0.5"/>
     <use xlink:href="#m0d2166a1df" x="287.000086" y="114.435816" style="fill: #4682b4; fill-opacity: 0.5; stroke: #000000; stroke-opacity: 0.5; stroke-width: 0.5"/>
     <use xlink:href="#m0d2166a1df" x="243.784706" y="66.177501" style="fill: #4682b4; fill-opacity: 0.5; stroke: #000000; stroke-opacity: 0.5; stroke-width: 0.5"/>
     <use xlink:href="#m0d2166a1df" x="818.7937" y="126.208643" style="fill: #4682b4; fill-opacity: 0.5; stroke: #000000; stroke-opacity: 0.5; stroke-width: 0.5"/>
     <use xlink:href="#m0d2166a1df" x="544.300052" y="359.393595" style="fill: #4682b4; fill-opacity: 0.5; stroke: #000000; stroke-opacity: 0.5; stroke-width: 0.5"/>
     <use xlink:href="#m0d2166a1df" x="739.192871" y="172.722613" style="fill: #4682b4; fill-opacity: 0.5; stroke: #000000; stroke-opacity: 0.5; stroke-width: 0.5"/>
     <use xlink:href="#m0d2166a1df" x="129.438735" y="45.756" style="fill: #4682b4; fill-opacity: 0.5; stroke: #000000; stroke-opacity: 0.5; stroke-width: 0.5"/>
     <use xlink:href="#m0d2166a1df" x="175.932976" y="45.756" style="fill: #4682b4; fill-opacity: 0.5; stroke: #000000; stroke-opacity: 0.5; stroke-width: 0.5"/>
     <use xlink:href="#m0d2166a1df" x="589.213622" y="339.517298" style="fill: #4682b4; fill-opacity: 0.5; stroke: #000000; stroke-opacity: 0.5; stroke-width: 0.5"/>
     <use xlink:href="#m0d2166a1df" x="831.07682" y="142.081682" style="fill: #4682b4; fill-opacity: 0.5; stroke: #000000; stroke-opacity: 0.5; stroke-width: 0.5"/>
     <use xlink:href="#m0d2166a1df" x="76.662946" y="45.756" style="fill: #4682b4; fill-opacity: 0.5; stroke: #000000; stroke-opacity: 0.5; stroke-width: 0.5"/>
     <use xlink:href="#m0d2166a1df" x="774.816561" y="165.026786" style="fill: #4682b4; fill-opacity: 0.5; stroke: #000000; stroke-opacity: 0.5; stroke-width: 0.5"/>
     <use xlink:href="#m0d2166a1df" x="104.15348" y="45.756" style="fill: #4682b4; fill-opacity: 0.5; stroke: #000000; stroke-opacity: 0.5; stroke-width: 0.5"/>
     <use xlink:href="#m0d2166a1df" x="654.799179" y="244.788345" style="fill: #4682b4; fill-opacity: 0.5; stroke: #000000; stroke-opacity: 0.5; stroke-width: 0.5"/>
     <use xlink:href="#m0d2166a1df" x="109.324805" y="45.756" style="fill: #4682b4; fill-opacity: 0.5; stroke: #000000; stroke-opacity: 0.5; stroke-width: 0.5"/>
     <use xlink:href="#m0d2166a1df" x="260.189316" y="116.616592" style="fill: #4682b4; fill-opacity: 0.5; stroke: #000000; stroke-opacity: 0.5; stroke-width: 0.5"/>
     <use xlink:href="#m0d2166a1df" x="192.208003" y="45.756" style="fill: #4682b4; fill-opacity: 0.5; stroke: #000000; stroke-opacity: 0.5; stroke-width: 0.5"/>
     <use xlink:href="#m0d2166a1df" x="212.35126" y="45.756" style="fill: #4682b4; fill-opacity: 0.5; stroke: #000000; stroke-opacity: 0.5; stroke-width: 0.5"/>
     <use xlink:href="#m0d2166a1df" x="142.440211" y="45.756" style="fill: #4682b4; fill-opacity: 0.5; stroke: #000000; stroke-opacity: 0.5; stroke-width: 0.5"/>
     <use xlink:href="#m0d2166a1df" x="469.405328" y="248.514238" style="fill: #4682b4; fill-opacity: 0.5; stroke: #000000; stroke-opacity: 0.5; stroke-width: 0.5"/>
     <use xlink:href="#m0d2166a1df" x="63.26236" y="45.756" style="fill: #4682b4; fill-opacity: 0.5; stroke: #000000; stroke-opacity: 0.5; stroke-width: 0.5"/>
     <use xlink:href="#m0d2166a1df" x="682.377999" y="253.852039" style="fill: #4682b4; fill-opacity: 0.5; stroke: #000000; stroke-opacity: 0.5; stroke-width: 0.5"/>
     <use xlink:href="#m0d2166a1df" x="167.820291" y="45.756" style="fill: #4682b4; fill-opacity: 0.5; stroke: #000000; stroke-opacity: 0.5; stroke-width: 0.5"/>
     <use xlink:href="#m0d2166a1df" x="142.904607" y="45.756" style="fill: #4682b4; fill-opacity: 0.5; stroke: #000000; stroke-opacity: 0.5; stroke-width: 0.5"/>
     <use xlink:href="#m0d2166a1df" x="397.427827" y="209.809672" style="fill: #4682b4; fill-opacity: 0.5; stroke: #000000; stroke-opacity: 0.5; stroke-width: 0.5"/>
     <use xlink:href="#m0d2166a1df" x="231.173222" y="45.756" style="fill: #4682b4; fill-opacity: 0.5; stroke: #000000; stroke-opacity: 0.5; stroke-width: 0.5"/>
     <use xlink:href="#m0d2166a1df" x="718.092391" y="250.614403" style="fill: #4682b4; fill-opacity: 0.5; stroke: #000000; stroke-opacity: 0.5; stroke-width: 0.5"/>
     <use xlink:href="#m0d2166a1df" x="62.969081" y="45.756" style="fill: #4682b4; fill-opacity: 0.5; stroke: #000000; stroke-opacity: 0.5; stroke-width: 0.5"/>
     <use xlink:href="#m0d2166a1df" x="175.40728" y="45.756" style="fill: #4682b4; fill-opacity: 0.5; stroke: #000000; stroke-opacity: 0.5; stroke-width: 0.5"/>
     <use xlink:href="#m0d2166a1df" x="609.553695" y="284.932268" style="fill: #4682b4; fill-opacity: 0.5; stroke: #000000; stroke-opacity: 0.5; stroke-width: 0.5"/>
     <use xlink:href="#m0d2166a1df" x="174.844497" y="45.756" style="fill: #4682b4; fill-opacity: 0.5; stroke: #000000; stroke-opacity: 0.5; stroke-width: 0.5"/>
     <use xlink:href="#m0d2166a1df" x="745.665801" y="164.265172" style="fill: #4682b4; fill-opacity: 0.5; stroke: #000000; stroke-opacity: 0.5; stroke-width: 0.5"/>
     <use xlink:href="#m0d2166a1df" x="464.035233" y="273.949263" style="fill: #4682b4; fill-opacity: 0.5; stroke: #000000; stroke-opacity: 0.5; stroke-width: 0.5"/>
     <use xlink:href="#m0d2166a1df" x="393.638341" y="203.868863" style="fill: #4682b4; fill-opacity: 0.5; stroke: #000000; stroke-opacity: 0.5; stroke-width: 0.5"/>
     <use xlink:href="#m0d2166a1df" x="73.304259" y="45.756" style="fill: #4682b4; fill-opacity: 0.5; stroke: #000000; stroke-opacity: 0.5; stroke-width: 0.5"/>
     <use xlink:href="#m0d2166a1df" x="448.516834" y="281.021785" style="fill: #4682b4; fill-opacity: 0.5; stroke: #000000; stroke-opacity: 0.5; stroke-width: 0.5"/>
     <use xlink:href="#m0d2166a1df" x="805.528043" y="148.736798" style="fill: #4682b4; fill-opacity: 0.5; stroke: #000000; stroke-opacity: 0.5; stroke-width: 0.5"/>
     <use xlink:href="#m0d2166a1df" x="331.284007" y="137.148318" style="fill: #4682b4; fill-opacity: 0.5; stroke: #000000; stroke-opacity: 0.5; stroke-width: 0.5"/>
     <use xlink:href="#m0d2166a1df" x="379.847722" y="182.669438" style="fill: #4682b4; fill-opacity: 0.5; stroke: #000000; stroke-opacity: 0.5; stroke-width: 0.5"/>
     <use xlink:href="#m0d2166a1df" x="712.626066" y="183.689812" style="fill: #4682b4; fill-opacity: 0.5; stroke: #000000; stroke-opacity: 0.5; stroke-width: 0.5"/>
     <use xlink:href="#m0d2166a1df" x="621.923677" y="310.327722" style="fill: #4682b4; fill-opacity: 0.5; stroke: #000000; stroke-opacity: 0.5; stroke-width: 0.5"/>
     <use xlink:href="#m0d2166a1df" x="442.39627" y="253.165238" style="fill: #4682b4; fill-opacity: 0.5; stroke: #000000; stroke-opacity: 0.5; stroke-width: 0.5"/>
     <use xlink:href="#m0d2166a1df" x="242.043459" y="62.223828" style="fill: #4682b4; fill-opacity: 0.5; stroke: #000000; stroke-opacity: 0.5; stroke-width: 0.5"/>
     <use xlink:href="#m0d2166a1df" x="588.757016" y="321.711649" style="fill: #4682b4; fill-opacity: 0.5; stroke: #000000; stroke-opacity: 0.5; stroke-width: 0.5"/>
     <use xlink:href="#m0d2166a1df" x="515.079803" y="323.204266" style="fill: #4682b4; fill-opacity: 0.5; stroke: #000000; stroke-opacity: 0.5; stroke-width: 0.5"/>
    </g>
   </g>
   <g id="FillBetweenPolyCollection_1">
    <defs>
     <path id="m997e217b37" d="M 58.332005 -481.765115 
L 58.332005 -413.727573 
L 66.305006 -413.727573 
L 74.278006 -413.727573 
L 82.251007 -413.727573 
L 90.224008 -413.727573 
L 98.197008 -413.727573 
L 106.170009 -413.727573 
L 114.143009 -413.727573 
L 122.11601 -413.727573 
L 130.08901 -413.727573 
L 138.062011 -407.009179 
L 146.035012 -398.80864 
L 154.008012 -390.772917 
L 161.981013 -382.902012 
L 169.954013 -375.195923 
L 177.927014 -367.654652 
L 185.900014 -360.278197 
L 193.873015 -353.066558 
L 201.846016 -346.019737 
L 209.819016 -339.137732 
L 217.792017 -332.420545 
L 225.765017 -325.868174 
L 233.738018 -319.48062 
L 241.711019 -313.257882 
L 249.684019 -307.199962 
L 257.65702 -301.306858 
L 265.63002 -295.578571 
L 273.603021 -290.015101 
L 281.576021 -284.616448 
L 289.549022 -279.382612 
L 297.522023 -274.313592 
L 305.495023 -269.409389 
L 313.468024 -264.670003 
L 321.441024 -260.095434 
L 329.414025 -255.685682 
L 337.387025 -251.440747 
L 345.360026 -247.360628 
L 353.333027 -243.445326 
L 361.306027 -239.694841 
L 369.279028 -236.109173 
L 377.252028 -232.688321 
L 385.225029 -229.432287 
L 393.19803 -226.341069 
L 401.17103 -223.414668 
L 409.144031 -220.653084 
L 417.117031 -218.056317 
L 425.090032 -215.624366 
L 433.063032 -213.357233 
L 441.036033 -211.254916 
L 449.009034 -209.317416 
L 456.982034 -207.544732 
L 464.955035 -205.936866 
L 472.928035 -204.493816 
L 480.901036 -203.215584 
L 488.874036 -202.102168 
L 496.847037 -201.153569 
L 504.820038 -200.369786 
L 512.793038 -199.750821 
L 520.766039 -199.296672 
L 528.739039 -199.00734 
L 536.71204 -198.882825 
L 544.685041 -198.923127 
L 552.658041 -199.128246 
L 560.631042 -199.498181 
L 568.604042 -200.032933 
L 576.577043 -200.732502 
L 584.550043 -201.596888 
L 592.523044 -202.626091 
L 600.496045 -203.82011 
L 608.469045 -205.178947 
L 616.442046 -206.7026 
L 624.415046 -208.39107 
L 632.388047 -210.244357 
L 640.361047 -212.26246 
L 648.334048 -214.445381 
L 656.307049 -216.793118 
L 664.280049 -219.305672 
L 672.25305 -221.983043 
L 680.22605 -224.82523 
L 688.199051 -227.832235 
L 696.172052 -231.004056 
L 704.145052 -234.340694 
L 712.118053 -237.842149 
L 720.091053 -241.508421 
L 728.064054 -245.33951 
L 736.037054 -249.335415 
L 744.010055 -253.496137 
L 751.983056 -257.821676 
L 759.956056 -262.312032 
L 767.929057 -266.967205 
L 775.902057 -271.787194 
L 783.875058 -276.772 
L 791.848058 -281.921624 
L 799.821059 -287.236064 
L 807.79406 -292.71532 
L 815.76706 -298.359394 
L 823.740061 -304.168284 
L 831.713061 -310.141991 
L 839.686062 -316.280515 
L 847.659063 -322.583856 
L 847.659063 -390.621398 
L 847.659063 -390.621398 
L 839.686062 -384.318057 
L 831.713061 -378.179533 
L 823.740061 -372.205826 
L 815.76706 -366.396936 
L 807.79406 -360.752862 
L 799.821059 -355.273605 
L 791.848058 -349.959165 
L 783.875058 -344.809542 
L 775.902057 -339.824736 
L 767.929057 -335.004746 
L 759.956056 -330.349574 
L 751.983056 -325.859218 
L 744.010055 -321.533679 
L 736.037054 -317.372957 
L 728.064054 -313.377051 
L 720.091053 -309.545963 
L 712.118053 -305.879691 
L 704.145052 -302.378236 
L 696.172052 -299.041598 
L 688.199051 -295.869776 
L 680.22605 -292.862772 
L 672.25305 -290.020584 
L 664.280049 -287.343213 
L 656.307049 -284.830659 
L 648.334048 -282.482922 
L 640.361047 -280.300002 
L 632.388047 -278.281898 
L 624.415046 -276.428611 
L 616.442046 -274.740141 
L 608.469045 -273.216488 
L 600.496045 -271.857652 
L 592.523044 -270.663633 
L 584.550043 -269.63443 
L 576.577043 -268.770044 
L 568.604042 -268.070475 
L 560.631042 -267.535723 
L 552.658041 -267.165787 
L 544.685041 -266.960669 
L 536.71204 -266.920367 
L 528.739039 -267.044882 
L 520.766039 -267.334214 
L 512.793038 -267.788362 
L 504.820038 -268.407328 
L 496.847037 -269.19111 
L 488.874036 -270.139709 
L 480.901036 -271.253125 
L 472.928035 -272.531358 
L 464.955035 -273.974408 
L 456.982034 -275.582274 
L 449.009034 -277.354957 
L 441.036033 -279.292457 
L 433.063032 -281.394774 
L 425.090032 -283.661908 
L 417.117031 -286.093858 
L 409.144031 -288.690626 
L 401.17103 -291.45221 
L 393.19803 -294.378611 
L 385.225029 -297.469829 
L 377.252028 -300.725863 
L 369.279028 -304.146714 
L 361.306027 -307.732383 
L 353.333027 -311.482868 
L 345.360026 -315.39817 
L 337.387025 -319.478288 
L 329.414025 -323.723224 
L 321.441024 -328.132976 
L 313.468024 -332.707545 
L 305.495023 -337.446931 
L 297.522023 -342.351134 
L 289.549022 -347.420153 
L 281.576021 -352.65399 
L 273.603021 -358.052643 
L 265.63002 -363.616113 
L 257.65702 -369.3444 
L 249.684019 -375.237503 
L 241.711019 -381.295424 
L 233.738018 -387.518161 
L 225.765017 -393.905715 
L 217.792017 -400.458086 
L 209.819016 -407.175274 
L 201.846016 -414.057279 
L 193.873015 -421.1041 
L 185.900014 -428.315738 
L 177.927014 -435.692193 
L 169.954013 -443.233465 
L 161.981013 -450.939554 
L 154.008012 -458.810459 
L 146.035012 -466.846181 
L 138.062011 -475.046721 
L 130.08901 -481.765115 
L 122.11601 -481.765115 
L 114.143009 -481.765115 
L 106.170009 -481.765115 
L 98.197008 -481.765115 
L 90.224008 -481.765115 
L 82.251007 -481.765115 
L 74.278006 -481.765115 
L 66.305006 -481.765115 
L 58.332005 -481.765115 
z
" style="stroke: #ff0000; stroke-opacity: 0.15"/>
    </defs>
    <g clip-path="url(#p81beae35f0)">
     <use xlink:href="#m997e217b37" x="0" y="493.502344" style="fill: #ff0000; fill-opacity: 0.15; stroke: #ff0000; stroke-opacity: 0.15"/>
    </g>
   </g>
   <g id="patch_3">
    <path d="M 41.537813 453.98125 
L 243.068125 453.98125 
L 243.068125 45.756 
L 41.537813 45.756 
z
" clip-path="url(#p81beae35f0)" style="fill: #008000; opacity: 0.1; stroke: #008000; stroke-linejoin: miter"/>
   </g>
   <g id="patch_4">
    <path d="M 243.068125 453.98125 
L 444.598438 453.98125 
L 444.598438 45.756 
L 243.068125 45.756 
z
" clip-path="url(#p81beae35f0)" style="fill: #ffa500; opacity: 0.1; stroke: #ffa500; stroke-linejoin: miter"/>
   </g>
   <g id="patch_5">
    <path d="M 444.598438 453.98125 
L 847.659063 453.98125 
L 847.659063 45.756 
L 444.598438 45.756 
z
" clip-path="url(#p81beae35f0)" style="fill: #0000ff; opacity: 0.1; stroke: #0000ff; stroke-linejoin: miter"/>
   </g>
   <g id="line2d_11">
    <path d="M 58.332005 45.756 
L 66.305006 45.756 
L 74.278006 45.756 
L 82.251007 45.756 
L 90.224008 45.756 
L 98.197008 45.756 
L 106.170009 45.756 
L 114.143009 45.756 
L 122.11601 45.756 
L 130.08901 45.756 
L 138.062011 52.474394 
L 146.035012 60.674933 
L 154.008012 68.710655 
L 161.981013 76.581561 
L 169.954013 84.28765 
L 177.927014 91.828921 
L 185.900014 99.205376 
L 193.873015 106.417015 
L 201.846016 113.463836 
L 209.819016 120.345841 
L 217.792017 127.063028 
L 225.765017 133.615399 
L 233.738018 140.002953 
L 241.711019 146.225691 
L 249.684019 152.283611 
L 257.65702 158.176715 
L 265.63002 163.905002 
L 273.603021 169.468472 
L 281.576021 174.867125 
L 289.549022 180.100961 
L 297.522023 185.169981 
L 305.495023 190.074184 
L 313.468024 194.813569 
L 321.441024 199.388139 
L 329.414025 203.797891 
L 337.387025 208.042826 
L 345.360026 212.122945 
L 353.333027 216.038247 
L 361.306027 219.788732 
L 369.279028 223.3744 
L 377.252028 226.795251 
L 385.225029 230.051286 
L 393.19803 233.142504 
L 401.17103 236.068905 
L 409.144031 238.830489 
L 417.117031 241.427256 
L 425.090032 243.859207 
L 433.063032 246.12634 
L 441.036033 248.228657 
L 449.009034 250.166157 
L 456.982034 251.93884 
L 464.955035 253.546707 
L 472.928035 254.989756 
L 480.901036 256.267989 
L 488.874036 257.381405 
L 496.847037 258.330004 
L 504.820038 259.113787 
L 512.793038 259.732752 
L 520.766039 260.186901 
L 528.739039 260.476233 
L 536.71204 260.600748 
L 544.685041 260.560446 
L 552.658041 260.355327 
L 560.631042 259.985392 
L 568.604042 259.45064 
L 576.577043 258.751071 
L 584.550043 257.886685 
L 592.523044 256.857482 
L 600.496045 255.663463 
L 608.469045 254.304626 
L 616.442046 252.780973 
L 624.415046 251.092503 
L 632.388047 249.239216 
L 640.361047 247.221113 
L 648.334048 245.038192 
L 656.307049 242.690455 
L 664.280049 240.177901 
L 672.25305 237.50053 
L 680.22605 234.658343 
L 688.199051 231.651338 
L 696.172052 228.479517 
L 704.145052 225.142879 
L 712.118053 221.641424 
L 720.091053 217.975152 
L 728.064054 214.144063 
L 736.037054 210.148158 
L 744.010055 205.987436 
L 751.983056 201.661897 
L 759.956056 197.171541 
L 767.929057 192.516368 
L 775.902057 187.696379 
L 783.875058 182.711572 
L 791.848058 177.561949 
L 799.821059 172.247509 
L 807.79406 166.768253 
L 815.76706 161.124179 
L 823.740061 155.315289 
L 831.713061 149.341581 
L 839.686062 143.203057 
L 847.659063 136.899717 
" clip-path="url(#p81beae35f0)" style="fill: none; stroke: #ff0000; stroke-width: 2.5; stroke-linecap: round"/>
   </g>
   <g id="line2d_12">
    <defs>
     <path id="ma4630ce9f4" d="M 0 -10 
L -2.24514 -3.09017 
L -9.510565 -3.09017 
L -3.632713 1.18034 
L -5.877853 8.09017 
L -0 3.81966 
L 5.877853 8.09017 
L 3.632713 1.18034 
L 9.510565 -3.09017 
L 2.24514 -3.09017 
z
" style="stroke: #ff0000; stroke-linejoin: bevel"/>
    </defs>
    <g clip-path="url(#p81beae35f0)">
     <use xlink:href="#ma4630ce9f4" x="538.748945" y="260.606126" style="fill: #ff0000; stroke: #ff0000; stroke-linejoin: bevel"/>
    </g>
   </g>
   <g id="patch_6">
    <path d="M 41.537813 453.98125 
L 41.537813 45.756 
" style="fill: none; stroke: #cccccc; stroke-width: 0.8; stroke-linejoin: miter; stroke-linecap: square"/>
   </g>
   <g id="patch_7">
    <path d="M 847.659063 453.98125 
L 847.659063 45.756 
" style="fill: none; stroke: #cccccc; stroke-width: 0.8; stroke-linejoin: miter; stroke-linecap: square"/>
   </g>
   <g id="patch_8">
    <path d="M 41.537813 453.98125 
L 847.659063 453.98125 
" style="fill: none; stroke: #cccccc; stroke-width: 0.8; stroke-linejoin: miter; stroke-linecap: square"/>
   </g>
   <g id="patch_9">
    <path d="M 41.537813 45.756 
L 847.659063 45.756 
" style="fill: none; stroke: #cccccc; stroke-width: 0.8; stroke-linejoin: miter; stroke-linecap: square"/>
   </g>
   <g id="patch_10">
    <path d="M 712.26132 323.704861 
Q 626.443703 292.49681 542.202157 261.861906 
" style="fill: none; stroke: #000000; stroke-width: 1.5; stroke-linecap: round"/>
    <path d="M 545.27779 265.108517 
L 542.202157 261.861906 
L 546.644826 261.349367 
" style="fill: none; stroke: #000000; stroke-width: 1.5; stroke-linecap: round"/>
   </g>
   <g id="text_13">
    <g id="patch_11">
     <path d="M 706.690872 350.757741 
L 795.15806 350.757741 
Q 798.15806 350.757741 798.15806 347.757741 
L 798.15806 327.889303 
Q 798.15806 324.889303 795.15806 324.889303 
L 706.690872 324.889303 
Q 703.690872 324.889303 703.690872 327.889303 
L 703.690872 347.757741 
Q 703.690872 350.757741 706.690872 350.757741 
z
" style="fill: #ffffe0; opacity: 0.9; stroke: #ffffff; stroke-linejoin: miter"/>
    </g>
    <!-- Culture Shock -->
    <g style="fill: #262626" transform="translate(706.690872 334.929928) scale(0.1 -0.1)">
     <defs>
      <path id="ArialMT-43" d="M 3763 1606 
L 4369 1453 
Q 4178 706 3683 314 
Q 3188 -78 2472 -78 
Q 1731 -78 1267 223 
Q 803 525 561 1097 
Q 319 1669 319 2325 
Q 319 3041 592 3573 
Q 866 4106 1370 4382 
Q 1875 4659 2481 4659 
Q 3169 4659 3637 4309 
Q 4106 3959 4291 3325 
L 3694 3184 
Q 3534 3684 3231 3912 
Q 2928 4141 2469 4141 
Q 1941 4141 1586 3887 
Q 1231 3634 1087 3207 
Q 944 2781 944 2328 
Q 944 1744 1114 1308 
Q 1284 872 1643 656 
Q 2003 441 2422 441 
Q 2931 441 3284 734 
Q 3638 1028 3763 1606 
z
" transform="scale(0.015625)"/>
      <path id="ArialMT-75" d="M 2597 0 
L 2597 488 
Q 2209 -75 1544 -75 
Q 1250 -75 995 37 
Q 741 150 617 320 
Q 494 491 444 738 
Q 409 903 409 1263 
L 409 3319 
L 972 3319 
L 972 1478 
Q 972 1038 1006 884 
Q 1059 663 1231 536 
Q 1403 409 1656 409 
Q 1909 409 2131 539 
Q 2353 669 2445 892 
Q 2538 1116 2538 1541 
L 2538 3319 
L 3100 3319 
L 3100 0 
L 2597 0 
z
" transform="scale(0.015625)"/>
      <path id="ArialMT-6c" d="M 409 0 
L 409 4581 
L 972 4581 
L 972 0 
L 409 0 
z
" transform="scale(0.015625)"/>
      <path id="ArialMT-74" d="M 1650 503 
L 1731 6 
Q 1494 -44 1306 -44 
Q 1000 -44 831 53 
Q 663 150 594 308 
Q 525 466 525 972 
L 525 2881 
L 113 2881 
L 113 3319 
L 525 3319 
L 525 4141 
L 1084 4478 
L 1084 3319 
L 1650 3319 
L 1650 2881 
L 1084 2881 
L 1084 941 
Q 1084 700 1114 631 
Q 1144 563 1211 522 
Q 1278 481 1403 481 
Q 1497 481 1650 503 
z
" transform="scale(0.015625)"/>
      <path id="ArialMT-72" d="M 416 0 
L 416 3319 
L 922 3319 
L 922 2816 
Q 1116 3169 1280 3281 
Q 1444 3394 1641 3394 
Q 1925 3394 2219 3213 
L 2025 2691 
Q 1819 2813 1613 2813 
Q 1428 2813 1281 2702 
Q 1134 2591 1072 2394 
Q 978 2094 978 1738 
L 978 0 
L 416 0 
z
" transform="scale(0.015625)"/>
      <path id="ArialMT-65" d="M 2694 1069 
L 3275 997 
Q 3138 488 2766 206 
Q 2394 -75 1816 -75 
Q 1088 -75 661 373 
Q 234 822 234 1631 
Q 234 2469 665 2931 
Q 1097 3394 1784 3394 
Q 2450 3394 2872 2941 
Q 3294 2488 3294 1666 
Q 3294 1616 3291 1516 
L 816 1516 
Q 847 969 1125 678 
Q 1403 388 1819 388 
Q 2128 388 2347 550 
Q 2566 713 2694 1069 
z
M 847 1978 
L 2700 1978 
Q 2663 2397 2488 2606 
Q 2219 2931 1791 2931 
Q 1403 2931 1139 2672 
Q 875 2413 847 1978 
z
" transform="scale(0.015625)"/>
      <path id="ArialMT-20" transform="scale(0.015625)"/>
      <path id="ArialMT-53" d="M 288 1472 
L 859 1522 
Q 900 1178 1048 958 
Q 1197 738 1509 602 
Q 1822 466 2213 466 
Q 2559 466 2825 569 
Q 3091 672 3220 851 
Q 3350 1031 3350 1244 
Q 3350 1459 3225 1620 
Q 3100 1781 2813 1891 
Q 2628 1963 1997 2114 
Q 1366 2266 1113 2400 
Q 784 2572 623 2826 
Q 463 3081 463 3397 
Q 463 3744 659 4045 
Q 856 4347 1234 4503 
Q 1613 4659 2075 4659 
Q 2584 4659 2973 4495 
Q 3363 4331 3572 4012 
Q 3781 3694 3797 3291 
L 3216 3247 
Q 3169 3681 2898 3903 
Q 2628 4125 2100 4125 
Q 1550 4125 1298 3923 
Q 1047 3722 1047 3438 
Q 1047 3191 1225 3031 
Q 1400 2872 2139 2705 
Q 2878 2538 3153 2413 
Q 3553 2228 3743 1945 
Q 3934 1663 3934 1294 
Q 3934 928 3725 604 
Q 3516 281 3123 101 
Q 2731 -78 2241 -78 
Q 1619 -78 1198 103 
Q 778 284 539 648 
Q 300 1013 288 1472 
z
" transform="scale(0.015625)"/>
      <path id="ArialMT-68" d="M 422 0 
L 422 4581 
L 984 4581 
L 984 2938 
Q 1378 3394 1978 3394 
Q 2347 3394 2619 3248 
Q 2891 3103 3008 2847 
Q 3125 2591 3125 2103 
L 3125 0 
L 2563 0 
L 2563 2103 
Q 2563 2525 2380 2717 
Q 2197 2909 1863 2909 
Q 1613 2909 1392 2779 
Q 1172 2650 1078 2428 
Q 984 2206 984 1816 
L 984 0 
L 422 0 
z
" transform="scale(0.015625)"/>
      <path id="ArialMT-6f" d="M 213 1659 
Q 213 2581 725 3025 
Q 1153 3394 1769 3394 
Q 2453 3394 2887 2945 
Q 3322 2497 3322 1706 
Q 3322 1066 3130 698 
Q 2938 331 2570 128 
Q 2203 -75 1769 -75 
Q 1072 -75 642 372 
Q 213 819 213 1659 
z
M 791 1659 
Q 791 1022 1069 705 
Q 1347 388 1769 388 
Q 2188 388 2466 706 
Q 2744 1025 2744 1678 
Q 2744 2294 2464 2611 
Q 2184 2928 1769 2928 
Q 1347 2928 1069 2612 
Q 791 2297 791 1659 
z
" transform="scale(0.015625)"/>
      <path id="ArialMT-63" d="M 2588 1216 
L 3141 1144 
Q 3050 572 2676 248 
Q 2303 -75 1759 -75 
Q 1078 -75 664 370 
Q 250 816 250 1647 
Q 250 2184 428 2587 
Q 606 2991 970 3192 
Q 1334 3394 1763 3394 
Q 2303 3394 2647 3120 
Q 2991 2847 3088 2344 
L 2541 2259 
Q 2463 2594 2264 2762 
Q 2066 2931 1784 2931 
Q 1359 2931 1093 2626 
Q 828 2322 828 1663 
Q 828 994 1084 691 
Q 1341 388 1753 388 
Q 2084 388 2306 591 
Q 2528 794 2588 1216 
z
" transform="scale(0.015625)"/>
      <path id="ArialMT-6b" d="M 425 0 
L 425 4581 
L 988 4581 
L 988 1969 
L 2319 3319 
L 3047 3319 
L 1778 2088 
L 3175 0 
L 2481 0 
L 1384 1697 
L 988 1316 
L 988 0 
L 425 0 
z
" transform="scale(0.015625)"/>
     </defs>
     <use xlink:href="#ArialMT-43"/>
     <use xlink:href="#ArialMT-75" transform="translate(72.216797 0)"/>
     <use xlink:href="#ArialMT-6c" transform="translate(127.832031 0)"/>
     <use xlink:href="#ArialMT-74" transform="translate(150.048828 0)"/>
     <use xlink:href="#ArialMT-75" transform="translate(177.832031 0)"/>
     <use xlink:href="#ArialMT-72" transform="translate(233.447266 0)"/>
     <use xlink:href="#ArialMT-65" transform="translate(266.748047 0)"/>
     <use xlink:href="#ArialMT-20" transform="translate(322.363281 0)"/>
     <use xlink:href="#ArialMT-53" transform="translate(350.146484 0)"/>
     <use xlink:href="#ArialMT-68" transform="translate(416.845703 0)"/>
     <use xlink:href="#ArialMT-6f" transform="translate(472.460938 0)"/>
     <use xlink:href="#ArialMT-63" transform="translate(528.076172 0)"/>
     <use xlink:href="#ArialMT-6b" transform="translate(578.076172 0)"/>
    </g>
    <!-- Valley (~30 months) -->
    <g style="fill: #262626" transform="translate(706.690872 345.653053) scale(0.1 -0.1)">
     <defs>
      <path id="ArialMT-56" d="M 1803 0 
L 28 4581 
L 684 4581 
L 1875 1253 
Q 2019 853 2116 503 
Q 2222 878 2363 1253 
L 3600 4581 
L 4219 4581 
L 2425 0 
L 1803 0 
z
" transform="scale(0.015625)"/>
      <path id="ArialMT-61" d="M 2588 409 
Q 2275 144 1986 34 
Q 1697 -75 1366 -75 
Q 819 -75 525 192 
Q 231 459 231 875 
Q 231 1119 342 1320 
Q 453 1522 633 1644 
Q 813 1766 1038 1828 
Q 1203 1872 1538 1913 
Q 2219 1994 2541 2106 
Q 2544 2222 2544 2253 
Q 2544 2597 2384 2738 
Q 2169 2928 1744 2928 
Q 1347 2928 1158 2789 
Q 969 2650 878 2297 
L 328 2372 
Q 403 2725 575 2942 
Q 747 3159 1072 3276 
Q 1397 3394 1825 3394 
Q 2250 3394 2515 3294 
Q 2781 3194 2906 3042 
Q 3031 2891 3081 2659 
Q 3109 2516 3109 2141 
L 3109 1391 
Q 3109 606 3145 398 
Q 3181 191 3288 0 
L 2700 0 
Q 2613 175 2588 409 
z
M 2541 1666 
Q 2234 1541 1622 1453 
Q 1275 1403 1131 1340 
Q 988 1278 909 1158 
Q 831 1038 831 891 
Q 831 666 1001 516 
Q 1172 366 1500 366 
Q 1825 366 2078 508 
Q 2331 650 2450 897 
Q 2541 1088 2541 1459 
L 2541 1666 
z
" transform="scale(0.015625)"/>
      <path id="ArialMT-79" d="M 397 -1278 
L 334 -750 
Q 519 -800 656 -800 
Q 844 -800 956 -737 
Q 1069 -675 1141 -563 
Q 1194 -478 1313 -144 
Q 1328 -97 1363 -6 
L 103 3319 
L 709 3319 
L 1400 1397 
Q 1534 1031 1641 628 
Q 1738 1016 1872 1384 
L 2581 3319 
L 3144 3319 
L 1881 -56 
Q 1678 -603 1566 -809 
Q 1416 -1088 1222 -1217 
Q 1028 -1347 759 -1347 
Q 597 -1347 397 -1278 
z
" transform="scale(0.015625)"/>
      <path id="ArialMT-28" d="M 1497 -1347 
Q 1031 -759 709 28 
Q 388 816 388 1659 
Q 388 2403 628 3084 
Q 909 3875 1497 4659 
L 1900 4659 
Q 1522 4009 1400 3731 
Q 1209 3300 1100 2831 
Q 966 2247 966 1656 
Q 966 153 1900 -1347 
L 1497 -1347 
z
" transform="scale(0.015625)"/>
      <path id="ArialMT-7e" d="M 272 1741 
L 272 2381 
Q 603 2756 1141 2756 
Q 1328 2756 1534 2701 
Q 1741 2647 2122 2484 
Q 2338 2394 2445 2366 
Q 2553 2338 2663 2338 
Q 2866 2338 3083 2459 
Q 3300 2581 3469 2766 
L 3469 2103 
Q 3269 1916 3064 1831 
Q 2859 1747 2603 1747 
Q 2416 1747 2245 1790 
Q 2075 1834 1704 2000 
Q 1334 2166 1088 2166 
Q 888 2166 711 2080 
Q 534 1994 272 1741 
z
" transform="scale(0.015625)"/>
      <path id="ArialMT-6d" d="M 422 0 
L 422 3319 
L 925 3319 
L 925 2853 
Q 1081 3097 1340 3245 
Q 1600 3394 1931 3394 
Q 2300 3394 2536 3241 
Q 2772 3088 2869 2813 
Q 3263 3394 3894 3394 
Q 4388 3394 4653 3120 
Q 4919 2847 4919 2278 
L 4919 0 
L 4359 0 
L 4359 2091 
Q 4359 2428 4304 2576 
Q 4250 2725 4106 2815 
Q 3963 2906 3769 2906 
Q 3419 2906 3187 2673 
Q 2956 2441 2956 1928 
L 2956 0 
L 2394 0 
L 2394 2156 
Q 2394 2531 2256 2718 
Q 2119 2906 1806 2906 
Q 1569 2906 1367 2781 
Q 1166 2656 1075 2415 
Q 984 2175 984 1722 
L 984 0 
L 422 0 
z
" transform="scale(0.015625)"/>
      <path id="ArialMT-6e" d="M 422 0 
L 422 3319 
L 928 3319 
L 928 2847 
Q 1294 3394 1984 3394 
Q 2284 3394 2536 3286 
Q 2788 3178 2913 3003 
Q 3038 2828 3088 2588 
Q 3119 2431 3119 2041 
L 3119 0 
L 2556 0 
L 2556 2019 
Q 2556 2363 2490 2533 
Q 2425 2703 2258 2804 
Q 2091 2906 1866 2906 
Q 1506 2906 1245 2678 
Q 984 2450 984 1813 
L 984 0 
L 422 0 
z
" transform="scale(0.015625)"/>
      <path id="ArialMT-73" d="M 197 991 
L 753 1078 
Q 800 744 1014 566 
Q 1228 388 1613 388 
Q 2000 388 2187 545 
Q 2375 703 2375 916 
Q 2375 1106 2209 1216 
Q 2094 1291 1634 1406 
Q 1016 1563 777 1677 
Q 538 1791 414 1992 
Q 291 2194 291 2438 
Q 291 2659 392 2848 
Q 494 3038 669 3163 
Q 800 3259 1026 3326 
Q 1253 3394 1513 3394 
Q 1903 3394 2198 3281 
Q 2494 3169 2634 2976 
Q 2775 2784 2828 2463 
L 2278 2388 
Q 2241 2644 2061 2787 
Q 1881 2931 1553 2931 
Q 1166 2931 1000 2803 
Q 834 2675 834 2503 
Q 834 2394 903 2306 
Q 972 2216 1119 2156 
Q 1203 2125 1616 2013 
Q 2213 1853 2448 1751 
Q 2684 1650 2818 1456 
Q 2953 1263 2953 975 
Q 2953 694 2789 445 
Q 2625 197 2315 61 
Q 2006 -75 1616 -75 
Q 969 -75 630 194 
Q 291 463 197 991 
z
" transform="scale(0.015625)"/>
      <path id="ArialMT-29" d="M 791 -1347 
L 388 -1347 
Q 1322 153 1322 1656 
Q 1322 2244 1188 2822 
Q 1081 3291 891 3722 
Q 769 4003 388 4659 
L 791 4659 
Q 1378 3875 1659 3084 
Q 1900 2403 1900 1659 
Q 1900 816 1576 28 
Q 1253 -759 791 -1347 
z
" transform="scale(0.015625)"/>
     </defs>
     <use xlink:href="#ArialMT-56"/>
     <use xlink:href="#ArialMT-61" transform="translate(59.324219 0)"/>
     <use xlink:href="#ArialMT-6c" transform="translate(114.939453 0)"/>
     <use xlink:href="#ArialMT-6c" transform="translate(137.15625 0)"/>
     <use xlink:href="#ArialMT-65" transform="translate(159.373047 0)"/>
     <use xlink:href="#ArialMT-79" transform="translate(214.988281 0)"/>
     <use xlink:href="#ArialMT-20" transform="translate(264.988281 0)"/>
     <use xlink:href="#ArialMT-28" transform="translate(292.771484 0)"/>
     <use xlink:href="#ArialMT-7e" transform="translate(326.072266 0)"/>
     <use xlink:href="#ArialMT-33" transform="translate(384.470703 0)"/>
     <use xlink:href="#ArialMT-30" transform="translate(440.085938 0)"/>
     <use xlink:href="#ArialMT-20" transform="translate(495.701172 0)"/>
     <use xlink:href="#ArialMT-6d" transform="translate(523.484375 0)"/>
     <use xlink:href="#ArialMT-6f" transform="translate(606.785156 0)"/>
     <use xlink:href="#ArialMT-6e" transform="translate(662.400391 0)"/>
     <use xlink:href="#ArialMT-74" transform="translate(718.015625 0)"/>
     <use xlink:href="#ArialMT-68" transform="translate(745.798828 0)"/>
     <use xlink:href="#ArialMT-73" transform="translate(801.414062 0)"/>
     <use xlink:href="#ArialMT-29" transform="translate(851.414062 0)"/>
    </g>
   </g>
   <g id="text_14">
    <!-- Figure 17 U-Shaped Relationship: Duration and Adaptation (Culture Shock Curve) -->
    <g style="fill: #262626" transform="translate(192.784375 16.663594) scale(0.13 -0.13)">
     <defs>
      <path id="Arial-BoldMT-46" d="M 472 0 
L 472 4581 
L 3613 4581 
L 3613 3806 
L 1397 3806 
L 1397 2722 
L 3309 2722 
L 3309 1947 
L 1397 1947 
L 1397 0 
L 472 0 
z
" transform="scale(0.015625)"/>
      <path id="Arial-BoldMT-67" d="M 378 -219 
L 1381 -341 
Q 1406 -516 1497 -581 
Q 1622 -675 1891 -675 
Q 2234 -675 2406 -572 
Q 2522 -503 2581 -350 
Q 2622 -241 2622 53 
L 2622 538 
Q 2228 0 1628 0 
Q 959 0 569 566 
Q 263 1013 263 1678 
Q 263 2513 664 2953 
Q 1066 3394 1663 3394 
Q 2278 3394 2678 2853 
L 2678 3319 
L 3500 3319 
L 3500 341 
Q 3500 -247 3403 -537 
Q 3306 -828 3131 -993 
Q 2956 -1159 2664 -1253 
Q 2372 -1347 1925 -1347 
Q 1081 -1347 728 -1058 
Q 375 -769 375 -325 
Q 375 -281 378 -219 
z
M 1163 1728 
Q 1163 1200 1367 954 
Q 1572 709 1872 709 
Q 2194 709 2416 961 
Q 2638 1213 2638 1706 
Q 2638 2222 2425 2472 
Q 2213 2722 1888 2722 
Q 1572 2722 1367 2476 
Q 1163 2231 1163 1728 
z
" transform="scale(0.015625)"/>
      <path id="Arial-BoldMT-31" d="M 2519 0 
L 1641 0 
L 1641 3309 
Q 1159 2859 506 2644 
L 506 3441 
Q 850 3553 1253 3867 
Q 1656 4181 1806 4600 
L 2519 4600 
L 2519 0 
z
" transform="scale(0.015625)"/>
      <path id="Arial-BoldMT-37" d="M 272 3703 
L 272 4519 
L 3275 4519 
L 3275 3881 
Q 2903 3516 2518 2831 
Q 2134 2147 1932 1376 
Q 1731 606 1734 0 
L 888 0 
Q 909 950 1279 1937 
Q 1650 2925 2269 3703 
L 272 3703 
z
" transform="scale(0.015625)"/>
      <path id="Arial-BoldMT-55" d="M 459 4581 
L 1384 4581 
L 1384 2100 
Q 1384 1509 1419 1334 
Q 1478 1053 1701 883 
Q 1925 713 2313 713 
Q 2706 713 2906 873 
Q 3106 1034 3147 1268 
Q 3188 1503 3188 2047 
L 3188 4581 
L 4113 4581 
L 4113 2175 
Q 4113 1350 4038 1009 
Q 3963 669 3761 434 
Q 3559 200 3221 61 
Q 2884 -78 2341 -78 
Q 1684 -78 1345 73 
Q 1006 225 809 467 
Q 613 709 550 975 
Q 459 1369 459 2138 
L 459 4581 
z
" transform="scale(0.015625)"/>
      <path id="Arial-BoldMT-52" d="M 469 0 
L 469 4581 
L 2416 4581 
Q 3150 4581 3483 4457 
Q 3816 4334 4016 4018 
Q 4216 3703 4216 3297 
Q 4216 2781 3912 2445 
Q 3609 2109 3006 2022 
Q 3306 1847 3501 1637 
Q 3697 1428 4028 894 
L 4588 0 
L 3481 0 
L 2813 997 
Q 2456 1531 2325 1670 
Q 2194 1809 2047 1861 
Q 1900 1913 1581 1913 
L 1394 1913 
L 1394 0 
L 469 0 
z
M 1394 2644 
L 2078 2644 
Q 2744 2644 2909 2700 
Q 3075 2756 3169 2893 
Q 3263 3031 3263 3238 
Q 3263 3469 3139 3611 
Q 3016 3753 2791 3791 
Q 2678 3806 2116 3806 
L 1394 3806 
L 1394 2644 
z
" transform="scale(0.015625)"/>
      <path id="Arial-BoldMT-3a" d="M 628 2441 
L 628 3319 
L 1506 3319 
L 1506 2441 
L 628 2441 
z
M 628 0 
L 628 878 
L 1506 878 
L 1506 0 
L 628 0 
z
" transform="scale(0.015625)"/>
      <path id="Arial-BoldMT-44" d="M 463 4581 
L 2153 4581 
Q 2725 4581 3025 4494 
Q 3428 4375 3715 4072 
Q 4003 3769 4153 3330 
Q 4303 2891 4303 2247 
Q 4303 1681 4163 1272 
Q 3991 772 3672 463 
Q 3431 228 3022 97 
Q 2716 0 2203 0 
L 463 0 
L 463 4581 
z
M 1388 3806 
L 1388 772 
L 2078 772 
Q 2466 772 2638 816 
Q 2863 872 3011 1006 
Q 3159 1141 3253 1448 
Q 3347 1756 3347 2288 
Q 3347 2819 3253 3103 
Q 3159 3388 2990 3547 
Q 2822 3706 2563 3763 
Q 2369 3806 1803 3806 
L 1388 3806 
z
" transform="scale(0.015625)"/>
      <path id="Arial-BoldMT-28" d="M 1916 -1347 
L 1313 -1347 
Q 834 -625 584 153 
Q 334 931 334 1659 
Q 334 2563 644 3369 
Q 913 4069 1325 4659 
L 1925 4659 
Q 1497 3713 1336 3048 
Q 1175 2384 1175 1641 
Q 1175 1128 1270 590 
Q 1366 53 1531 -431 
Q 1641 -750 1916 -1347 
z
" transform="scale(0.015625)"/>
      <path id="Arial-BoldMT-6b" d="M 428 0 
L 428 4581 
L 1306 4581 
L 1306 2150 
L 2334 3319 
L 3416 3319 
L 2281 2106 
L 3497 0 
L 2550 0 
L 1716 1491 
L 1306 1063 
L 1306 0 
L 428 0 
z
" transform="scale(0.015625)"/>
      <path id="Arial-BoldMT-76" d="M 1372 0 
L 34 3319 
L 956 3319 
L 1581 1625 
L 1763 1059 
Q 1834 1275 1853 1344 
Q 1897 1484 1947 1625 
L 2578 3319 
L 3481 3319 
L 2163 0 
L 1372 0 
z
" transform="scale(0.015625)"/>
      <path id="Arial-BoldMT-29" d="M 216 -1347 
Q 475 -791 581 -494 
Q 688 -197 778 190 
Q 869 578 912 926 
Q 956 1275 956 1641 
Q 956 2384 797 3048 
Q 638 3713 209 4659 
L 806 4659 
Q 1278 3988 1539 3234 
Q 1800 2481 1800 1706 
Q 1800 1053 1594 306 
Q 1359 -531 822 -1347 
L 216 -1347 
z
" transform="scale(0.015625)"/>
     </defs>
     <use xlink:href="#Arial-BoldMT-46"/>
     <use xlink:href="#Arial-BoldMT-69" transform="translate(61.083984 0)"/>
     <use xlink:href="#Arial-BoldMT-67" transform="translate(88.867188 0)"/>
     <use xlink:href="#Arial-BoldMT-75" transform="translate(149.951172 0)"/>
     <use xlink:href="#Arial-BoldMT-72" transform="translate(211.035156 0)"/>
     <use xlink:href="#Arial-BoldMT-65" transform="translate(249.951172 0)"/>
     <use xlink:href="#Arial-BoldMT-20" transform="translate(305.566406 0)"/>
     <use xlink:href="#Arial-BoldMT-31" transform="translate(333.349609 0)"/>
     <use xlink:href="#Arial-BoldMT-37" transform="translate(388.964844 0)"/>
     <use xlink:href="#Arial-BoldMT-20" transform="translate(444.580078 0)"/>
     <use xlink:href="#Arial-BoldMT-55" transform="translate(472.363281 0)"/>
     <use xlink:href="#Arial-BoldMT-2d" transform="translate(544.580078 0)"/>
     <use xlink:href="#Arial-BoldMT-53" transform="translate(577.880859 0)"/>
     <use xlink:href="#Arial-BoldMT-68" transform="translate(644.580078 0)"/>
     <use xlink:href="#Arial-BoldMT-61" transform="translate(705.664062 0)"/>
     <use xlink:href="#Arial-BoldMT-70" transform="translate(761.279297 0)"/>
     <use xlink:href="#Arial-BoldMT-65" transform="translate(822.363281 0)"/>
     <use xlink:href="#Arial-BoldMT-64" transform="translate(877.978516 0)"/>
     <use xlink:href="#Arial-BoldMT-20" transform="translate(939.0625 0)"/>
     <use xlink:href="#Arial-BoldMT-52" transform="translate(966.845703 0)"/>
     <use xlink:href="#Arial-BoldMT-65" transform="translate(1039.0625 0)"/>
     <use xlink:href="#Arial-BoldMT-6c" transform="translate(1094.677734 0)"/>
     <use xlink:href="#Arial-BoldMT-61" transform="translate(1122.460938 0)"/>
     <use xlink:href="#Arial-BoldMT-74" transform="translate(1178.076172 0)"/>
     <use xlink:href="#Arial-BoldMT-69" transform="translate(1211.376953 0)"/>
     <use xlink:href="#Arial-BoldMT-6f" transform="translate(1239.160156 0)"/>
     <use xlink:href="#Arial-BoldMT-6e" transform="translate(1300.244141 0)"/>
     <use xlink:href="#Arial-BoldMT-73" transform="translate(1361.328125 0)"/>
     <use xlink:href="#Arial-BoldMT-68" transform="translate(1416.943359 0)"/>
     <use xlink:href="#Arial-BoldMT-69" transform="translate(1478.027344 0)"/>
     <use xlink:href="#Arial-BoldMT-70" transform="translate(1505.810547 0)"/>
     <use xlink:href="#Arial-BoldMT-3a" transform="translate(1566.894531 0)"/>
     <use xlink:href="#Arial-BoldMT-20" transform="translate(1600.195312 0)"/>
     <use xlink:href="#Arial-BoldMT-44" transform="translate(1627.978516 0)"/>
     <use xlink:href="#Arial-BoldMT-75" transform="translate(1700.195312 0)"/>
     <use xlink:href="#Arial-BoldMT-72" transform="translate(1761.279297 0)"/>
     <use xlink:href="#Arial-BoldMT-61" transform="translate(1800.195312 0)"/>
     <use xlink:href="#Arial-BoldMT-74" transform="translate(1855.810547 0)"/>
     <use xlink:href="#Arial-BoldMT-69" transform="translate(1889.111328 0)"/>
     <use xlink:href="#Arial-BoldMT-6f" transform="translate(1916.894531 0)"/>
     <use xlink:href="#Arial-BoldMT-6e" transform="translate(1977.978516 0)"/>
     <use xlink:href="#Arial-BoldMT-20" transform="translate(2039.0625 0)"/>
     <use xlink:href="#Arial-BoldMT-61" transform="translate(2066.845703 0)"/>
     <use xlink:href="#Arial-BoldMT-6e" transform="translate(2122.460938 0)"/>
     <use xlink:href="#Arial-BoldMT-64" transform="translate(2183.544922 0)"/>
     <use xlink:href="#Arial-BoldMT-20" transform="translate(2244.628906 0)"/>
     <use xlink:href="#Arial-BoldMT-41" transform="translate(2268.662109 0)"/>
     <use xlink:href="#Arial-BoldMT-64" transform="translate(2340.878906 0)"/>
     <use xlink:href="#Arial-BoldMT-61" transform="translate(2401.962891 0)"/>
     <use xlink:href="#Arial-BoldMT-70" transform="translate(2457.578125 0)"/>
     <use xlink:href="#Arial-BoldMT-74" transform="translate(2518.662109 0)"/>
     <use xlink:href="#Arial-BoldMT-61" transform="translate(2551.962891 0)"/>
     <use xlink:href="#Arial-BoldMT-74" transform="translate(2607.578125 0)"/>
     <use xlink:href="#Arial-BoldMT-69" transform="translate(2640.878906 0)"/>
     <use xlink:href="#Arial-BoldMT-6f" transform="translate(2668.662109 0)"/>
     <use xlink:href="#Arial-BoldMT-6e" transform="translate(2729.746094 0)"/>
     <use xlink:href="#Arial-BoldMT-20" transform="translate(2790.830078 0)"/>
     <use xlink:href="#Arial-BoldMT-28" transform="translate(2818.613281 0)"/>
     <use xlink:href="#Arial-BoldMT-43" transform="translate(2851.914062 0)"/>
     <use xlink:href="#Arial-BoldMT-75" transform="translate(2924.130859 0)"/>
     <use xlink:href="#Arial-BoldMT-6c" transform="translate(2985.214844 0)"/>
     <use xlink:href="#Arial-BoldMT-74" transform="translate(3012.998047 0)"/>
     <use xlink:href="#Arial-BoldMT-75" transform="translate(3046.298828 0)"/>
     <use xlink:href="#Arial-BoldMT-72" transform="translate(3107.382812 0)"/>
     <use xlink:href="#Arial-BoldMT-65" transform="translate(3146.298828 0)"/>
     <use xlink:href="#Arial-BoldMT-20" transform="translate(3201.914062 0)"/>
     <use xlink:href="#Arial-BoldMT-53" transform="translate(3229.697266 0)"/>
     <use xlink:href="#Arial-BoldMT-68" transform="translate(3296.396484 0)"/>
     <use xlink:href="#Arial-BoldMT-6f" transform="translate(3357.480469 0)"/>
     <use xlink:href="#Arial-BoldMT-63" transform="translate(3418.564453 0)"/>
     <use xlink:href="#Arial-BoldMT-6b" transform="translate(3474.179688 0)"/>
     <use xlink:href="#Arial-BoldMT-20" transform="translate(3529.794922 0)"/>
     <use xlink:href="#Arial-BoldMT-43" transform="translate(3557.578125 0)"/>
     <use xlink:href="#Arial-BoldMT-75" transform="translate(3629.794922 0)"/>
     <use xlink:href="#Arial-BoldMT-72" transform="translate(3690.878906 0)"/>
     <use xlink:href="#Arial-BoldMT-76" transform="translate(3729.794922 0)"/>
     <use xlink:href="#Arial-BoldMT-65" transform="translate(3785.410156 0)"/>
     <use xlink:href="#Arial-BoldMT-29" transform="translate(3841.025391 0)"/>
    </g>
    <!-- (Hong Kong Sample, N=75) -->
    <g style="fill: #262626" transform="translate(360.997266 30.756) scale(0.13 -0.13)">
     <defs>
      <path id="Arial-BoldMT-4b" d="M 478 0 
L 478 4581 
L 1403 4581 
L 1403 2547 
L 3272 4581 
L 4516 4581 
L 2791 2797 
L 4609 0 
L 3413 0 
L 2153 2150 
L 1403 1384 
L 1403 0 
L 478 0 
z
" transform="scale(0.015625)"/>
      <path id="Arial-BoldMT-6d" d="M 394 3319 
L 1203 3319 
L 1203 2866 
Q 1638 3394 2238 3394 
Q 2556 3394 2790 3262 
Q 3025 3131 3175 2866 
Q 3394 3131 3647 3262 
Q 3900 3394 4188 3394 
Q 4553 3394 4806 3245 
Q 5059 3097 5184 2809 
Q 5275 2597 5275 2122 
L 5275 0 
L 4397 0 
L 4397 1897 
Q 4397 2391 4306 2534 
Q 4184 2722 3931 2722 
Q 3747 2722 3584 2609 
Q 3422 2497 3350 2280 
Q 3278 2063 3278 1594 
L 3278 0 
L 2400 0 
L 2400 1819 
Q 2400 2303 2353 2443 
Q 2306 2584 2207 2653 
Q 2109 2722 1941 2722 
Q 1738 2722 1575 2612 
Q 1413 2503 1342 2297 
Q 1272 2091 1272 1613 
L 1272 0 
L 394 0 
L 394 3319 
z
" transform="scale(0.015625)"/>
      <path id="Arial-BoldMT-2c" d="M 438 878 
L 1316 878 
L 1316 250 
Q 1316 -131 1250 -351 
Q 1184 -572 1001 -747 
Q 819 -922 538 -1022 
L 366 -659 
Q 631 -572 743 -419 
Q 856 -266 863 0 
L 438 0 
L 438 878 
z
" transform="scale(0.015625)"/>
      <path id="Arial-BoldMT-4e" d="M 475 0 
L 475 4581 
L 1375 4581 
L 3250 1522 
L 3250 4581 
L 4109 4581 
L 4109 0 
L 3181 0 
L 1334 2988 
L 1334 0 
L 475 0 
z
" transform="scale(0.015625)"/>
      <path id="Arial-BoldMT-3d" d="M 266 2550 
L 266 3356 
L 3469 3356 
L 3469 2550 
L 266 2550 
z
M 266 1163 
L 266 1972 
L 3469 1972 
L 3469 1163 
L 266 1163 
z
" transform="scale(0.015625)"/>
      <path id="Arial-BoldMT-35" d="M 284 1178 
L 1159 1269 
Q 1197 972 1381 798 
Q 1566 625 1806 625 
Q 2081 625 2272 848 
Q 2463 1072 2463 1522 
Q 2463 1944 2273 2155 
Q 2084 2366 1781 2366 
Q 1403 2366 1103 2031 
L 391 2134 
L 841 4519 
L 3163 4519 
L 3163 3697 
L 1506 3697 
L 1369 2919 
Q 1663 3066 1969 3066 
Q 2553 3066 2959 2641 
Q 3366 2216 3366 1538 
Q 3366 972 3038 528 
Q 2591 -78 1797 -78 
Q 1163 -78 763 262 
Q 363 603 284 1178 
z
" transform="scale(0.015625)"/>
     </defs>
     <use xlink:href="#Arial-BoldMT-28"/>
     <use xlink:href="#Arial-BoldMT-48" transform="translate(33.300781 0)"/>
     <use xlink:href="#Arial-BoldMT-6f" transform="translate(105.517578 0)"/>
     <use xlink:href="#Arial-BoldMT-6e" transform="translate(166.601562 0)"/>
     <use xlink:href="#Arial-BoldMT-67" transform="translate(227.685547 0)"/>
     <use xlink:href="#Arial-BoldMT-20" transform="translate(288.769531 0)"/>
     <use xlink:href="#Arial-BoldMT-4b" transform="translate(316.552734 0)"/>
     <use xlink:href="#Arial-BoldMT-6f" transform="translate(388.769531 0)"/>
     <use xlink:href="#Arial-BoldMT-6e" transform="translate(449.853516 0)"/>
     <use xlink:href="#Arial-BoldMT-67" transform="translate(510.9375 0)"/>
     <use xlink:href="#Arial-BoldMT-20" transform="translate(572.021484 0)"/>
     <use xlink:href="#Arial-BoldMT-53" transform="translate(599.804688 0)"/>
     <use xlink:href="#Arial-BoldMT-61" transform="translate(666.503906 0)"/>
     <use xlink:href="#Arial-BoldMT-6d" transform="translate(722.119141 0)"/>
     <use xlink:href="#Arial-BoldMT-70" transform="translate(811.035156 0)"/>
     <use xlink:href="#Arial-BoldMT-6c" transform="translate(872.119141 0)"/>
     <use xlink:href="#Arial-BoldMT-65" transform="translate(899.902344 0)"/>
     <use xlink:href="#Arial-BoldMT-2c" transform="translate(955.517578 0)"/>
     <use xlink:href="#Arial-BoldMT-20" transform="translate(983.300781 0)"/>
     <use xlink:href="#Arial-BoldMT-4e" transform="translate(1011.083984 0)"/>
     <use xlink:href="#Arial-BoldMT-3d" transform="translate(1083.300781 0)"/>
     <use xlink:href="#Arial-BoldMT-37" transform="translate(1141.699219 0)"/>
     <use xlink:href="#Arial-BoldMT-35" transform="translate(1197.314453 0)"/>
     <use xlink:href="#Arial-BoldMT-29" transform="translate(1252.929688 0)"/>
    </g>
   </g>
   <g id="legend_1">
    <g id="patch_12">
     <path d="M 714.723125 448.98125 
L 840.659063 448.98125 
Q 842.659063 448.98125 842.659063 446.98125 
L 842.659063 377.020312 
Q 842.659063 375.020312 840.659063 375.020312 
L 714.723125 375.020312 
Q 712.723125 375.020312 712.723125 377.020312 
L 712.723125 446.98125 
Q 712.723125 448.98125 714.723125 448.98125 
z
" style="fill: #ffffff; opacity: 0.8; stroke: #cccccc; stroke-linejoin: miter"/>
    </g>
    <g id="line2d_13">
     <path d="M 716.723125 382.678125 
L 726.723125 382.678125 
L 736.723125 382.678125 
" style="fill: none; stroke: #ff0000; stroke-width: 2.5; stroke-linecap: round"/>
    </g>
    <g id="text_15">
     <!-- Quadratic Fit -->
     <g style="fill: #262626" transform="translate(744.723125 386.178125) scale(0.1 -0.1)">
      <defs>
       <path id="ArialMT-51" d="M 3966 491 
Q 4388 200 4744 66 
L 4566 -356 
Q 4072 -178 3581 206 
Q 3072 -78 2456 -78 
Q 1834 -78 1328 222 
Q 822 522 548 1065 
Q 275 1609 275 2291 
Q 275 2969 550 3525 
Q 825 4081 1333 4372 
Q 1841 4663 2469 4663 
Q 3103 4663 3612 4361 
Q 4122 4059 4389 3517 
Q 4656 2975 4656 2294 
Q 4656 1728 4484 1276 
Q 4313 825 3966 491 
z
M 2631 1266 
Q 3156 1119 3497 828 
Q 4031 1316 4031 2294 
Q 4031 2850 3842 3265 
Q 3653 3681 3289 3911 
Q 2925 4141 2472 4141 
Q 1794 4141 1347 3677 
Q 900 3213 900 2291 
Q 900 1397 1342 919 
Q 1784 441 2472 441 
Q 2797 441 3084 563 
Q 2800 747 2484 825 
L 2631 1266 
z
" transform="scale(0.015625)"/>
       <path id="ArialMT-64" d="M 2575 0 
L 2575 419 
Q 2259 -75 1647 -75 
Q 1250 -75 917 144 
Q 584 363 401 755 
Q 219 1147 219 1656 
Q 219 2153 384 2558 
Q 550 2963 881 3178 
Q 1213 3394 1622 3394 
Q 1922 3394 2156 3267 
Q 2391 3141 2538 2938 
L 2538 4581 
L 3097 4581 
L 3097 0 
L 2575 0 
z
M 797 1656 
Q 797 1019 1065 703 
Q 1334 388 1700 388 
Q 2069 388 2326 689 
Q 2584 991 2584 1609 
Q 2584 2291 2321 2609 
Q 2059 2928 1675 2928 
Q 1300 2928 1048 2622 
Q 797 2316 797 1656 
z
" transform="scale(0.015625)"/>
       <path id="ArialMT-69" d="M 425 3934 
L 425 4581 
L 988 4581 
L 988 3934 
L 425 3934 
z
M 425 0 
L 425 3319 
L 988 3319 
L 988 0 
L 425 0 
z
" transform="scale(0.015625)"/>
       <path id="ArialMT-46" d="M 525 0 
L 525 4581 
L 3616 4581 
L 3616 4041 
L 1131 4041 
L 1131 2622 
L 3281 2622 
L 3281 2081 
L 1131 2081 
L 1131 0 
L 525 0 
z
" transform="scale(0.015625)"/>
      </defs>
      <use xlink:href="#ArialMT-51"/>
      <use xlink:href="#ArialMT-75" transform="translate(77.783203 0)"/>
      <use xlink:href="#ArialMT-61" transform="translate(133.398438 0)"/>
      <use xlink:href="#ArialMT-64" transform="translate(189.013672 0)"/>
      <use xlink:href="#ArialMT-72" transform="translate(244.628906 0)"/>
      <use xlink:href="#ArialMT-61" transform="translate(277.929688 0)"/>
      <use xlink:href="#ArialMT-74" transform="translate(333.544922 0)"/>
      <use xlink:href="#ArialMT-69" transform="translate(361.328125 0)"/>
      <use xlink:href="#ArialMT-63" transform="translate(383.544922 0)"/>
      <use xlink:href="#ArialMT-20" transform="translate(433.544922 0)"/>
      <use xlink:href="#ArialMT-46" transform="translate(461.328125 0)"/>
      <use xlink:href="#ArialMT-69" transform="translate(522.412109 0)"/>
      <use xlink:href="#ArialMT-74" transform="translate(544.628906 0)"/>
     </g>
    </g>
    <g id="patch_13">
     <path d="M 716.723125 400.323437 
L 736.723125 400.323437 
L 736.723125 393.323437 
L 716.723125 393.323437 
z
" style="fill: #ff0000; fill-opacity: 0.15; stroke: #ff0000; stroke-opacity: 0.15; stroke-linejoin: miter"/>
    </g>
    <g id="text_16">
     <!-- 95% CI -->
     <g style="fill: #262626" transform="translate(744.723125 400.323437) scale(0.1 -0.1)">
      <defs>
       <path id="ArialMT-39" d="M 350 1059 
L 891 1109 
Q 959 728 1153 556 
Q 1347 384 1650 384 
Q 1909 384 2104 503 
Q 2300 622 2425 820 
Q 2550 1019 2634 1356 
Q 2719 1694 2719 2044 
Q 2719 2081 2716 2156 
Q 2547 1888 2255 1720 
Q 1963 1553 1622 1553 
Q 1053 1553 659 1965 
Q 266 2378 266 3053 
Q 266 3750 677 4175 
Q 1088 4600 1706 4600 
Q 2153 4600 2523 4359 
Q 2894 4119 3086 3673 
Q 3278 3228 3278 2384 
Q 3278 1506 3087 986 
Q 2897 466 2520 194 
Q 2144 -78 1638 -78 
Q 1100 -78 759 220 
Q 419 519 350 1059 
z
M 2653 3081 
Q 2653 3566 2395 3850 
Q 2138 4134 1775 4134 
Q 1400 4134 1122 3828 
Q 844 3522 844 3034 
Q 844 2597 1108 2323 
Q 1372 2050 1759 2050 
Q 2150 2050 2401 2323 
Q 2653 2597 2653 3081 
z
" transform="scale(0.015625)"/>
       <path id="ArialMT-25" d="M 372 3481 
Q 372 3972 619 4315 
Q 866 4659 1334 4659 
Q 1766 4659 2048 4351 
Q 2331 4044 2331 3447 
Q 2331 2866 2045 2552 
Q 1759 2238 1341 2238 
Q 925 2238 648 2547 
Q 372 2856 372 3481 
z
M 1350 4272 
Q 1141 4272 1002 4090 
Q 863 3909 863 3425 
Q 863 2984 1003 2804 
Q 1144 2625 1350 2625 
Q 1563 2625 1702 2806 
Q 1841 2988 1841 3469 
Q 1841 3913 1700 4092 
Q 1559 4272 1350 4272 
z
M 1353 -169 
L 3859 4659 
L 4316 4659 
L 1819 -169 
L 1353 -169 
z
M 3334 1075 
Q 3334 1569 3581 1911 
Q 3828 2253 4300 2253 
Q 4731 2253 5014 1945 
Q 5297 1638 5297 1041 
Q 5297 459 5011 145 
Q 4725 -169 4303 -169 
Q 3888 -169 3611 142 
Q 3334 453 3334 1075 
z
M 4316 1866 
Q 4103 1866 3964 1684 
Q 3825 1503 3825 1019 
Q 3825 581 3965 400 
Q 4106 219 4313 219 
Q 4528 219 4667 400 
Q 4806 581 4806 1063 
Q 4806 1506 4665 1686 
Q 4525 1866 4316 1866 
z
" transform="scale(0.015625)"/>
       <path id="ArialMT-49" d="M 597 0 
L 597 4581 
L 1203 4581 
L 1203 0 
L 597 0 
z
" transform="scale(0.015625)"/>
      </defs>
      <use xlink:href="#ArialMT-39"/>
      <use xlink:href="#ArialMT-35" transform="translate(55.615234 0)"/>
      <use xlink:href="#ArialMT-25" transform="translate(111.230469 0)"/>
      <use xlink:href="#ArialMT-20" transform="translate(200.146484 0)"/>
      <use xlink:href="#ArialMT-43" transform="translate(227.929688 0)"/>
      <use xlink:href="#ArialMT-49" transform="translate(300.146484 0)"/>
     </g>
    </g>
    <g id="patch_14">
     <path d="M 716.723125 414.46875 
L 736.723125 414.46875 
L 736.723125 407.46875 
L 716.723125 407.46875 
z
" style="fill: #008000; opacity: 0.1; stroke: #008000; stroke-linejoin: miter"/>
    </g>
    <g id="text_17">
     <!-- Honeymoon Phase -->
     <g style="fill: #262626" transform="translate(744.723125 414.46875) scale(0.1 -0.1)">
      <defs>
       <path id="ArialMT-48" d="M 513 0 
L 513 4581 
L 1119 4581 
L 1119 2700 
L 3500 2700 
L 3500 4581 
L 4106 4581 
L 4106 0 
L 3500 0 
L 3500 2159 
L 1119 2159 
L 1119 0 
L 513 0 
z
" transform="scale(0.015625)"/>
       <path id="ArialMT-50" d="M 494 0 
L 494 4581 
L 2222 4581 
Q 2678 4581 2919 4538 
Q 3256 4481 3484 4323 
Q 3713 4166 3852 3881 
Q 3991 3597 3991 3256 
Q 3991 2672 3619 2267 
Q 3247 1863 2275 1863 
L 1100 1863 
L 1100 0 
L 494 0 
z
M 1100 2403 
L 2284 2403 
Q 2872 2403 3119 2622 
Q 3366 2841 3366 3238 
Q 3366 3525 3220 3729 
Q 3075 3934 2838 4000 
Q 2684 4041 2272 4041 
L 1100 4041 
L 1100 2403 
z
" transform="scale(0.015625)"/>
      </defs>
      <use xlink:href="#ArialMT-48"/>
      <use xlink:href="#ArialMT-6f" transform="translate(72.216797 0)"/>
      <use xlink:href="#ArialMT-6e" transform="translate(127.832031 0)"/>
      <use xlink:href="#ArialMT-65" transform="translate(183.447266 0)"/>
      <use xlink:href="#ArialMT-79" transform="translate(239.0625 0)"/>
      <use xlink:href="#ArialMT-6d" transform="translate(289.0625 0)"/>
      <use xlink:href="#ArialMT-6f" transform="translate(372.363281 0)"/>
      <use xlink:href="#ArialMT-6f" transform="translate(427.978516 0)"/>
      <use xlink:href="#ArialMT-6e" transform="translate(483.59375 0)"/>
      <use xlink:href="#ArialMT-20" transform="translate(539.208984 0)"/>
      <use xlink:href="#ArialMT-50" transform="translate(566.992188 0)"/>
      <use xlink:href="#ArialMT-68" transform="translate(633.691406 0)"/>
      <use xlink:href="#ArialMT-61" transform="translate(689.306641 0)"/>
      <use xlink:href="#ArialMT-73" transform="translate(744.921875 0)"/>
      <use xlink:href="#ArialMT-65" transform="translate(794.921875 0)"/>
     </g>
    </g>
    <g id="patch_15">
     <path d="M 716.723125 428.73125 
L 736.723125 428.73125 
L 736.723125 421.73125 
L 716.723125 421.73125 
z
" style="fill: #ffa500; opacity: 0.1; stroke: #ffa500; stroke-linejoin: miter"/>
    </g>
    <g id="text_18">
     <!-- Culture Shock Phase -->
     <g style="fill: #262626" transform="translate(744.723125 428.73125) scale(0.1 -0.1)">
      <use xlink:href="#ArialMT-43"/>
      <use xlink:href="#ArialMT-75" transform="translate(72.216797 0)"/>
      <use xlink:href="#ArialMT-6c" transform="translate(127.832031 0)"/>
      <use xlink:href="#ArialMT-74" transform="translate(150.048828 0)"/>
      <use xlink:href="#ArialMT-75" transform="translate(177.832031 0)"/>
      <use xlink:href="#ArialMT-72" transform="translate(233.447266 0)"/>
      <use xlink:href="#ArialMT-65" transform="translate(266.748047 0)"/>
      <use xlink:href="#ArialMT-20" transform="translate(322.363281 0)"/>
      <use xlink:href="#ArialMT-53" transform="translate(350.146484 0)"/>
      <use xlink:href="#ArialMT-68" transform="translate(416.845703 0)"/>
      <use xlink:href="#ArialMT-6f" transform="translate(472.460938 0)"/>
      <use xlink:href="#ArialMT-63" transform="translate(528.076172 0)"/>
      <use xlink:href="#ArialMT-6b" transform="translate(578.076172 0)"/>
      <use xlink:href="#ArialMT-20" transform="translate(628.076172 0)"/>
      <use xlink:href="#ArialMT-50" transform="translate(655.859375 0)"/>
      <use xlink:href="#ArialMT-68" transform="translate(722.558594 0)"/>
      <use xlink:href="#ArialMT-61" transform="translate(778.173828 0)"/>
      <use xlink:href="#ArialMT-73" transform="translate(833.789062 0)"/>
      <use xlink:href="#ArialMT-65" transform="translate(883.789062 0)"/>
     </g>
    </g>
    <g id="patch_16">
     <path d="M 716.723125 442.876562 
L 736.723125 442.876562 
L 736.723125 435.876562 
L 716.723125 435.876562 
z
" style="fill: #0000ff; opacity: 0.1; stroke: #0000ff; stroke-linejoin: miter"/>
    </g>
    <g id="text_19">
     <!-- Recovery Phase -->
     <g style="fill: #262626" transform="translate(744.723125 442.876562) scale(0.1 -0.1)">
      <defs>
       <path id="ArialMT-52" d="M 503 0 
L 503 4581 
L 2534 4581 
Q 3147 4581 3465 4457 
Q 3784 4334 3975 4021 
Q 4166 3709 4166 3331 
Q 4166 2844 3850 2509 
Q 3534 2175 2875 2084 
Q 3116 1969 3241 1856 
Q 3506 1613 3744 1247 
L 4541 0 
L 3778 0 
L 3172 953 
Q 2906 1366 2734 1584 
Q 2563 1803 2427 1890 
Q 2291 1978 2150 2013 
Q 2047 2034 1813 2034 
L 1109 2034 
L 1109 0 
L 503 0 
z
M 1109 2559 
L 2413 2559 
Q 2828 2559 3062 2645 
Q 3297 2731 3419 2920 
Q 3541 3109 3541 3331 
Q 3541 3656 3305 3865 
Q 3069 4075 2559 4075 
L 1109 4075 
L 1109 2559 
z
" transform="scale(0.015625)"/>
       <path id="ArialMT-76" d="M 1344 0 
L 81 3319 
L 675 3319 
L 1388 1331 
Q 1503 1009 1600 663 
Q 1675 925 1809 1294 
L 2547 3319 
L 3125 3319 
L 1869 0 
L 1344 0 
z
" transform="scale(0.015625)"/>
      </defs>
      <use xlink:href="#ArialMT-52"/>
      <use xlink:href="#ArialMT-65" transform="translate(72.216797 0)"/>
      <use xlink:href="#ArialMT-63" transform="translate(127.832031 0)"/>
      <use xlink:href="#ArialMT-6f" transform="translate(177.832031 0)"/>
      <use xlink:href="#ArialMT-76" transform="translate(233.447266 0)"/>
      <use xlink:href="#ArialMT-65" transform="translate(283.447266 0)"/>
      <use xlink:href="#ArialMT-72" transform="translate(339.0625 0)"/>
      <use xlink:href="#ArialMT-79" transform="translate(372.363281 0)"/>
      <use xlink:href="#ArialMT-20" transform="translate(422.363281 0)"/>
      <use xlink:href="#ArialMT-50" transform="translate(450.146484 0)"/>
      <use xlink:href="#ArialMT-68" transform="translate(516.845703 0)"/>
      <use xlink:href="#ArialMT-61" transform="translate(572.460938 0)"/>
      <use xlink:href="#ArialMT-73" transform="translate(628.076172 0)"/>
      <use xlink:href="#ArialMT-65" transform="translate(678.076172 0)"/>
     </g>
    </g>
   </g>
  </g>
 </g>
 <defs>
  <clipPath id="p81beae35f0">
   <rect x="41.537813" y="45.756" width="806.12125" height="408.22525"/>
  </clipPath>
 </defs>
</svg>
