<?xml version="1.0" encoding="utf-8" standalone="no"?>
<!DOCTYPE svg PUBLIC "-//W3C//DTD SVG 1.1//EN"
  "http://www.w3.org/Graphics/SVG/1.1/DTD/svg11.dtd">
<svg xmlns:xlink="http://www.w3.org/1999/xlink" width="846.124302pt" height="711.536438pt" viewBox="0 0 846.124302 711.536438" xmlns="http://www.w3.org/2000/svg" version="1.1">
 <metadata>
  <rdf:RDF xmlns:dc="http://purl.org/dc/elements/1.1/" xmlns:cc="http://creativecommons.org/ns#" xmlns:rdf="http://www.w3.org/1999/02/22-rdf-syntax-ns#">
   <cc:Work>
    <dc:type rdf:resource="http://purl.org/dc/dcmitype/StillImage"/>
    <dc:date>2026-03-30T08:05:11.033175</dc:date>
    <dc:format>image/svg+xml</dc:format>
    <dc:creator>
     <cc:Agent>
      <dc:title>Matplotlib v3.10.8, https://matplotlib.org/</dc:title>
     </cc:Agent>
    </dc:creator>
   </cc:Work>
  </rdf:RDF>
 </metadata>
 <defs>
  <style type="text/css">*{stroke-linejoin: round; stroke-linecap: butt}</style>
 </defs>
 <g id="figure_1">
  <g id="patch_1">
   <path d="M 0 711.536438 
L 846.124302 711.536438 
L 846.124302 0 
L 0 0 
z
" style="fill: #ffffff"/>
  </g>
  <g id="axes_1">
   <g id="patch_2">
    <path d="M 658.692096 373.164413 
C 658.692096 332.514197 650.684889 292.259252 635.128725 254.703349 
C 619.572561 217.147446 596.769966 183.020952 568.025923 154.276909 
C 539.281879 125.532865 505.155385 102.730271 467.599482 87.174106 
C 430.043579 71.617942 389.788634 63.610736 349.138418 63.610736 
C 308.488201 63.610736 268.233257 71.617942 230.677354 87.174106 
C 193.121451 102.730271 158.994957 125.532865 130.250913 154.276909 
C 101.506869 183.020952 78.704275 217.147446 63.148111 254.703349 
C 47.591946 292.259252 39.58474 332.514197 39.58474 373.164413 
C 39.58474 413.81463 47.591946 454.069574 63.148111 491.625477 
C 78.704275 529.18138 101.506869 563.307874 130.250913 592.051918 
C 158.994957 620.795962 193.121451 643.598556 230.677354 659.154721 
C 268.233257 674.710885 308.488201 682.718091 349.138418 682.718091 
C 389.788634 682.718091 430.043579 674.710885 467.599482 659.154721 
C 505.155385 643.598556 539.281879 620.795962 568.025923 592.051918 
C 596.769966 563.307874 619.572561 529.18138 635.128725 491.625477 
C 650.684889 454.069574 658.692096 413.81463 658.692096 373.164413 
M 349.138418 373.164413 
C 349.138418 373.164413 349.138418 373.164413 349.138418 373.164413 
C 349.138418 373.164413 349.138418 373.164413 349.138418 373.164413 
C 349.138418 373.164413 349.138418 373.164413 349.138418 373.164413 
C 349.138418 373.164413 349.138418 373.164413 349.138418 373.164413 
C 349.138418 373.164413 349.138418 373.164413 349.138418 373.164413 
C 349.138418 373.164413 349.138418 373.164413 349.138418 373.164413 
C 349.138418 373.164413 349.138418 373.164413 349.138418 373.164413 
C 349.138418 373.164413 349.138418 373.164413 349.138418 373.164413 
C 349.138418 373.164413 349.138418 373.164413 349.138418 373.164413 
C 349.138418 373.164413 349.138418 373.164413 349.138418 373.164413 
C 349.138418 373.164413 349.138418 373.164413 349.138418 373.164413 
C 349.138418 373.164413 349.138418 373.164413 349.138418 373.164413 
C 349.138418 373.164413 349.138418 373.164413 349.138418 373.164413 
C 349.138418 373.164413 349.138418 373.164413 349.138418 373.164413 
C 349.138418 373.164413 349.138418 373.164413 349.138418 373.164413 
C 349.138418 373.164413 349.138418 373.164413 349.138418 373.164413 
z
" style="fill: #ffffff"/>
   </g>
   <g id="patch_3">
    <path d="M 612.259044 373.164413 
L 562.67718 235.931384 
L 462.300474 125.374075 
L 314.776234 134.170177 
L 197.102506 197.705618 
L 185.7804 325.198171 
L 156.078942 429.85179 
L 203.183943 541.604857 
L 319.181642 581.518363 
L 423.7225 536.480773 
L 484.553243 460.190237 
z
" clip-path="url(#p75d85adea9)" style="fill: #ff0000; opacity: 0.2; stroke: #ff0000; stroke-linejoin: miter"/>
   </g>
   <g id="patch_4">
    <path d="M 559.634919 373.164413 
L 518.406949 264.382134 
L 439.15369 176.058463 
L 321.824887 183.194635 
L 231.56398 237.476278 
L 206.57142 331.302966 
L 185.7804 421.130655 
L 231.56398 508.852548 
L 324.908673 541.685991 
L 413.43504 513.954378 
L 466.324324 448.475222 
z
" clip-path="url(#p75d85adea9)" style="fill: #ffa500; opacity: 0.2; stroke: #ffa500; stroke-linejoin: miter"/>
   </g>
   <g id="patch_5">
    <path d="M 497.724183 373.164413 
L 466.324324 297.853604 
L 413.43504 232.374449 
L 329.314081 235.283123 
L 263.998308 274.907488 
L 194.690837 327.814512 
L 206.57142 415.025861 
L 263.998308 471.421339 
L 331.516785 495.72556 
L 410.863176 508.32278 
L 479.34498 456.84309 
z
" clip-path="url(#p75d85adea9)" style="fill: #0000ff; opacity: 0.2; stroke: #0000ff; stroke-linejoin: miter"/>
   </g>
   <g id="patch_6">
    <path d="M 448.195595 373.164413 
L 422.054093 326.304354 
L 387.716391 288.690434 
L 335.922193 281.243553 
L 292.378344 307.659797 
L 176.869962 322.581831 
L 224.392295 409.79318 
L 292.378344 438.66903 
L 338.124898 449.76513 
L 416.006905 519.585977 
L 492.365637 465.210958 
z
" clip-path="url(#p75d85adea9)" style="fill: #808080; opacity: 0.2; stroke: #808080; stroke-linejoin: miter"/>
   </g>
   <g id="matplotlib.axis_1">
    <g id="xtick_1">
     <g id="line2d_1">
      <path d="M 349.138418 373.164413 
L 658.692096 373.164413 
" clip-path="url(#p75d85adea9)" style="fill: none; stroke-dasharray: 2.96,1.28; stroke-dashoffset: 0; stroke: #b0b0b0; stroke-opacity: 0.7; stroke-width: 0.8"/>
     </g>
     <g id="text_1">
      <text style="font-size: 11px; font-family: 'Arial'" transform="translate(653.741158 370.190804)">Cultural</text>
      <text style="font-size: 11px; font-family: 'Arial'" transform="translate(653.73858 381.825367)">Contact</text>
     </g>
    </g>
    <g id="xtick_2">
     <g id="line2d_2">
      <path d="M 349.138418 373.164413 
L 609.551543 205.80706 
" clip-path="url(#p75d85adea9)" style="fill: none; stroke-dasharray: 2.96,1.28; stroke-dashoffset: 0; stroke: #b0b0b0; stroke-opacity: 0.7; stroke-width: 0.8"/>
     </g>
     <g id="text_2">
      <text style="font-size: 11px; font-family: 'Arial'" transform="translate(606.349327 195.264479)">Social</text>
      <text style="font-size: 11px; font-family: 'Arial'" transform="translate(602.375577 206.899042)">Contact</text>
     </g>
    </g>
    <g id="xtick_3">
     <g id="line2d_3">
      <path d="M 349.138418 373.164413 
L 477.731663 91.584484 
" clip-path="url(#p75d85adea9)" style="fill: none; stroke-dasharray: 2.96,1.28; stroke-dashoffset: 0; stroke: #b0b0b0; stroke-opacity: 0.7; stroke-width: 0.8"/>
     </g>
     <g id="text_3">
      <text style="font-size: 11px; font-family: 'Arial'" transform="translate(468.567708 75.876026)">Social</text>
      <text style="font-size: 11px; font-family: 'Arial'" transform="translate(445.329348 87.510589)">Connectedness</text>
     </g>
    </g>
    <g id="xtick_4">
     <g id="line2d_4">
      <path d="M 349.138418 373.164413 
L 305.084336 66.761546 
" clip-path="url(#p75d85adea9)" style="fill: none; stroke-dasharray: 2.96,1.28; stroke-dashoffset: 0; stroke: #b0b0b0; stroke-opacity: 0.7; stroke-width: 0.8"/>
     </g>
     <g id="text_4">
      <text style="font-size: 11px; font-family: 'Arial'" transform="translate(286.898725 49.785545)">Family</text>
      <text style="font-size: 11px; font-family: 'Arial'" transform="translate(283.829897 61.709889)">Support</text>
     </g>
    </g>
    <g id="xtick_5">
     <g id="line2d_5">
      <path d="M 349.138418 373.164413 
L 146.423869 139.219353 
" clip-path="url(#p75d85adea9)" style="fill: none; stroke-dasharray: 2.96,1.28; stroke-dashoffset: 0; stroke: #b0b0b0; stroke-opacity: 0.7; stroke-width: 0.8"/>
     </g>
     <g id="text_5">
      <text style="font-size: 11px; font-family: 'Arial'; text-anchor: middle" x="137.255819" y="131.553" transform="rotate(-0 137.255819 131.553)">Openness</text>
     </g>
    </g>
    <g id="xtick_6">
     <g id="line2d_6">
      <path d="M 349.138418 373.164413 
L 52.123839 285.953064 
" clip-path="url(#p75d85adea9)" style="fill: none; stroke-dasharray: 2.96,1.28; stroke-dashoffset: 0; stroke: #b0b0b0; stroke-opacity: 0.7; stroke-width: 0.8"/>
     </g>
     <g id="text_6">
      <text style="font-size: 11px; font-family: 'Arial'" transform="translate(19.74 279.035199)">Cultural</text>
      <text style="font-size: 11px; font-family: 'Arial'" transform="translate(7.2 290.669762)">Maintenance</text>
     </g>
    </g>
    <g id="xtick_7">
     <g id="line2d_7">
      <path d="M 349.138418 373.164413 
L 52.123839 460.375763 
" clip-path="url(#p75d85adea9)" style="fill: none; stroke-dasharray: 2.96,1.28; stroke-dashoffset: 0; stroke: #b0b0b0; stroke-opacity: 0.7; stroke-width: 0.8"/>
     </g>
     <g id="text_7">
      <text style="font-size: 11px; font-family: 'Arial'; text-anchor: middle" x="38.690937" y="467.16369" transform="rotate(-0 38.690937 467.16369)">Months</text>
     </g>
    </g>
    <g id="xtick_8">
     <g id="line2d_8">
      <path d="M 349.138418 373.164413 
L 146.423869 607.109474 
" clip-path="url(#p75d85adea9)" style="fill: none; stroke-dasharray: 2.96,1.28; stroke-dashoffset: 0; stroke: #b0b0b0; stroke-opacity: 0.7; stroke-width: 0.8"/>
     </g>
     <g id="text_8">
      <text style="font-size: 11px; font-family: 'Arial'" transform="translate(119.534647 614.651905)">Comm.</text>
      <text style="font-size: 11px; font-family: 'Arial'" transform="translate(111.272616 626.286468)">Frequency</text>
     </g>
    </g>
    <g id="xtick_9">
     <g id="line2d_9">
      <path d="M 349.138418 373.164413 
L 305.084336 679.567281 
" clip-path="url(#p75d85adea9)" style="fill: none; stroke-dasharray: 2.96,1.28; stroke-dashoffset: 0; stroke: #b0b0b0; stroke-opacity: 0.7; stroke-width: 0.8"/>
     </g>
     <g id="text_9">
      <text style="font-size: 11px; font-family: 'Arial'" transform="translate(285.370757 690.386719)">Comm.</text>
      <text style="font-size: 11px; font-family: 'Arial'" transform="translate(282.916382 702.021281)">Honesty</text>
     </g>
    </g>
    <g id="xtick_10">
     <g id="line2d_10">
      <path d="M 349.138418 373.164413 
L 477.731663 654.744343 
" clip-path="url(#p75d85adea9)" style="fill: none; stroke-dasharray: 2.96,1.28; stroke-dashoffset: 0; stroke: #b0b0b0; stroke-opacity: 0.7; stroke-width: 0.8"/>
     </g>
     <g id="text_10">
      <text style="font-size: 11px; font-family: 'Arial'; text-anchor: middle" x="483.547473" y="670.25841" transform="rotate(-0 483.547473 670.25841)">Autonomy</text>
     </g>
    </g>
    <g id="xtick_11">
     <g id="line2d_11">
      <path d="M 349.138418 373.164413 
L 609.551543 540.521767 
" clip-path="url(#p75d85adea9)" style="fill: none; stroke-dasharray: 2.96,1.28; stroke-dashoffset: 0; stroke: #b0b0b0; stroke-opacity: 0.7; stroke-width: 0.8"/>
     </g>
     <g id="text_11">
      <text style="font-size: 11px; font-family: 'Arial'" transform="translate(606.349327 545.117129)">Social</text>
      <text style="font-size: 11px; font-family: 'Arial'" transform="translate(589.838155 556.751691)">Maintenance</text>
     </g>
    </g>
   </g>
   <g id="matplotlib.axis_2">
    <g id="ytick_1">
     <g id="line2d_12">
      <path d="M 411.049154 373.164413 
C 411.049154 365.03437 409.447712 356.983381 406.336479 349.472201 
C 403.225247 341.96102 398.664728 335.135721 392.915919 329.386912 
C 387.16711 323.638104 380.341811 319.077585 372.830631 315.966352 
C 365.31945 312.855119 357.268461 311.253678 349.138418 311.253678 
C 341.008375 311.253678 332.957386 312.855119 325.446205 315.966352 
C 317.935025 319.077585 311.109726 323.638104 305.360917 329.386912 
C 299.612108 335.135721 295.051589 341.96102 291.940357 349.472201 
C 288.829124 356.983381 287.227682 365.03437 287.227682 373.164413 
C 287.227682 381.294457 288.829124 389.345446 291.940357 396.856626 
C 295.051589 404.367807 299.612108 411.193106 305.360917 416.941914 
C 311.109726 422.690723 317.935025 427.251242 325.446205 430.362475 
C 332.957386 433.473708 341.008375 435.075149 349.138418 435.075149 
C 357.268461 435.075149 365.31945 433.473708 372.830631 430.362475 
C 380.341811 427.251242 387.16711 422.690723 392.915919 416.941914 
C 398.664728 411.193106 403.225247 404.367807 406.336479 396.856626 
C 409.447712 389.345446 411.049154 381.294457 411.049154 373.164413 
" clip-path="url(#p75d85adea9)" style="fill: none; stroke-dasharray: 2.96,1.28; stroke-dashoffset: 0; stroke: #b0b0b0; stroke-opacity: 0.7; stroke-width: 0.8"/>
     </g>
     <g id="text_12">
      <text style="font-size: 10px; font-family: 'Arial'; text-anchor: start" x="406.336479" y="347.484701" transform="rotate(-0 406.336479 347.484701)">0.2</text>
     </g>
    </g>
    <g id="ytick_2">
     <g id="line2d_13">
      <path d="M 472.959889 373.164413 
C 472.959889 356.904327 469.757007 340.802349 463.534541 325.779988 
C 457.312075 310.757627 448.191037 297.107029 436.69342 285.609411 
C 425.195802 274.111794 411.545205 264.990756 396.522844 258.768291 
C 381.500482 252.545825 365.398505 249.342942 349.138418 249.342942 
C 332.878331 249.342942 316.776354 252.545825 301.753992 258.768291 
C 286.731631 264.990756 273.081034 274.111794 261.583416 285.609411 
C 250.085799 297.107029 240.964761 310.757627 234.742295 325.779988 
C 228.519829 340.802349 225.316947 356.904327 225.316947 373.164413 
C 225.316947 389.4245 228.519829 405.526478 234.742295 420.548839 
C 240.964761 435.5712 250.085799 449.221798 261.583416 460.719415 
C 273.081034 472.217033 286.731631 481.33807 301.753992 487.560536 
C 316.776354 493.783002 332.878331 496.985885 349.138418 496.985885 
C 365.398505 496.985885 381.500482 493.783002 396.522844 487.560536 
C 411.545205 481.33807 425.195802 472.217033 436.69342 460.719415 
C 448.191037 449.221798 457.312075 435.5712 463.534541 420.548839 
C 469.757007 405.526478 472.959889 389.4245 472.959889 373.164413 
" clip-path="url(#p75d85adea9)" style="fill: none; stroke-dasharray: 2.96,1.28; stroke-dashoffset: 0; stroke: #b0b0b0; stroke-opacity: 0.7; stroke-width: 0.8"/>
     </g>
     <g id="text_13">
      <text style="font-size: 10px; font-family: 'Arial'; text-anchor: start" x="463.534541" y="323.792488" transform="rotate(-0 463.534541 323.792488)">0.4</text>
     </g>
    </g>
    <g id="ytick_3">
     <g id="line2d_14">
      <path d="M 534.870625 373.164413 
C 534.870625 348.774283 530.066301 324.621317 520.732602 302.087775 
C 511.398904 279.554233 497.717347 259.078337 480.470921 241.831911 
C 463.224495 224.585484 442.748598 210.903928 420.215056 201.570229 
C 397.681514 192.23653 373.528548 187.432207 349.138418 187.432207 
C 324.748288 187.432207 300.595321 192.23653 278.06178 201.570229 
C 255.528238 210.903928 235.052341 224.585484 217.805915 241.831911 
C 200.559489 259.078337 186.877932 279.554233 177.544234 302.087775 
C 168.210535 324.621317 163.406211 348.774283 163.406211 373.164413 
C 163.406211 397.554543 168.210535 421.70751 177.544234 444.241052 
C 186.877932 466.774594 200.559489 487.25049 217.805915 504.496916 
C 235.052341 521.743342 255.528238 535.424899 278.06178 544.758598 
C 300.595321 554.092296 324.748288 558.89662 349.138418 558.89662 
C 373.528548 558.89662 397.681514 554.092296 420.215056 544.758598 
C 442.748598 535.424899 463.224495 521.743342 480.470921 504.496916 
C 497.717347 487.25049 511.398904 466.774594 520.732602 444.241052 
C 530.066301 421.70751 534.870625 397.554543 534.870625 373.164413 
" clip-path="url(#p75d85adea9)" style="fill: none; stroke-dasharray: 2.96,1.28; stroke-dashoffset: 0; stroke: #b0b0b0; stroke-opacity: 0.7; stroke-width: 0.8"/>
     </g>
     <g id="text_14">
      <text style="font-size: 10px; font-family: 'Arial'; text-anchor: start" x="520.732602" y="300.100275" transform="rotate(-0 520.732602 300.100275)">0.6</text>
     </g>
    </g>
    <g id="ytick_4">
     <g id="line2d_15">
      <path d="M 596.78136 373.164413 
C 596.78136 340.64424 590.375595 308.440285 577.930664 278.395562 
C 565.485732 248.35084 547.243657 221.049645 524.248422 198.05441 
C 501.253187 175.059175 473.951992 156.817099 443.907269 144.372168 
C 413.862547 131.927236 381.658591 125.521471 349.138418 125.521471 
C 316.618245 125.521471 284.414289 131.927236 254.369567 144.372168 
C 224.324844 156.817099 197.023649 175.059175 174.028414 198.05441 
C 151.033179 221.049645 132.791104 248.35084 120.346172 278.395562 
C 107.901241 308.440285 101.495476 340.64424 101.495476 373.164413 
C 101.495476 405.684587 107.901241 437.888542 120.346172 467.933265 
C 132.791104 497.977987 151.033179 525.279182 174.028414 548.274417 
C 197.023649 571.269652 224.324844 589.511728 254.369567 601.956659 
C 284.414289 614.401591 316.618245 620.807356 349.138418 620.807356 
C 381.658591 620.807356 413.862547 614.401591 443.907269 601.956659 
C 473.951992 589.511728 501.253187 571.269652 524.248422 548.274417 
C 547.243657 525.279182 565.485732 497.977987 577.930664 467.933265 
C 590.375595 437.888542 596.78136 405.684587 596.78136 373.164413 
" clip-path="url(#p75d85adea9)" style="fill: none; stroke-dasharray: 2.96,1.28; stroke-dashoffset: 0; stroke: #b0b0b0; stroke-opacity: 0.7; stroke-width: 0.8"/>
     </g>
     <g id="text_15">
      <text style="font-size: 10px; font-family: 'Arial'; text-anchor: start" x="577.930664" y="276.408062" transform="rotate(-0 577.930664 276.408062)">0.8</text>
     </g>
    </g>
    <g id="ytick_5">
     <g id="line2d_16">
      <path d="M 658.692096 373.164413 
C 658.692096 332.514197 650.684889 292.259252 635.128725 254.703349 
C 619.572561 217.147446 596.769966 183.020952 568.025923 154.276909 
C 539.281879 125.532865 505.155385 102.730271 467.599482 87.174106 
C 430.043579 71.617942 389.788634 63.610736 349.138418 63.610736 
C 308.488201 63.610736 268.233257 71.617942 230.677354 87.174106 
C 193.121451 102.730271 158.994957 125.532865 130.250913 154.276909 
C 101.506869 183.020952 78.704275 217.147446 63.148111 254.703349 
C 47.591946 292.259252 39.58474 332.514197 39.58474 373.164413 
C 39.58474 413.81463 47.591946 454.069574 63.148111 491.625477 
C 78.704275 529.18138 101.506869 563.307874 130.250913 592.051918 
C 158.994957 620.795962 193.121451 643.598556 230.677354 659.154721 
C 268.233257 674.710885 308.488201 682.718091 349.138418 682.718091 
C 389.788634 682.718091 430.043579 674.710885 467.599482 659.154721 
C 505.155385 643.598556 539.281879 620.795962 568.025923 592.051918 
C 596.769966 563.307874 619.572561 529.18138 635.128725 491.625477 
C 650.684889 454.069574 658.692096 413.81463 658.692096 373.164413 
" clip-path="url(#p75d85adea9)" style="fill: none; stroke-dasharray: 2.96,1.28; stroke-dashoffset: 0; stroke: #b0b0b0; stroke-opacity: 0.7; stroke-width: 0.8"/>
     </g>
     <g id="text_16">
      <text style="font-size: 10px; font-family: 'Arial'; text-anchor: start" x="635.128725" y="252.715849" transform="rotate(-0 635.128725 252.715849)">1.0</text>
     </g>
    </g>
   </g>
   <g id="line2d_17">
    <path d="M 612.259044 373.164413 
L 562.67718 235.931384 
L 462.300474 125.374075 
L 314.776234 134.170177 
L 197.102506 197.705618 
L 185.7804 325.198171 
L 156.078942 429.85179 
L 203.183943 541.604857 
L 319.181642 581.518363 
L 423.7225 536.480773 
L 484.553243 460.190237 
L 612.259044 373.164413 
" clip-path="url(#p75d85adea9)" style="fill: none; stroke: #ff0000; stroke-width: 2.5; stroke-linecap: square"/>
    <defs>
     <path id="mdd657084ae" d="M 0 4 
C 1.060812 4 2.078319 3.578535 2.828427 2.828427 
C 3.578535 2.078319 4 1.060812 4 0 
C 4 -1.060812 3.578535 -2.078319 2.828427 -2.828427 
C 2.078319 -3.578535 1.060812 -4 0 -4 
C -1.060812 -4 -2.078319 -3.578535 -2.828427 -2.828427 
C -3.578535 -2.078319 -4 -1.060812 -4 0 
C -4 1.060812 -3.578535 2.078319 -2.828427 2.828427 
C -2.078319 3.578535 -1.060812 4 0 4 
z
" style="stroke: #ff0000"/>
    </defs>
    <g clip-path="url(#p75d85adea9)">
     <use xlink:href="#mdd657084ae" x="612.259044" y="373.164413" style="fill: #ff0000; stroke: #ff0000"/>
     <use xlink:href="#mdd657084ae" x="562.67718" y="235.931384" style="fill: #ff0000; stroke: #ff0000"/>
     <use xlink:href="#mdd657084ae" x="462.300474" y="125.374075" style="fill: #ff0000; stroke: #ff0000"/>
     <use xlink:href="#mdd657084ae" x="314.776234" y="134.170177" style="fill: #ff0000; stroke: #ff0000"/>
     <use xlink:href="#mdd657084ae" x="197.102506" y="197.705618" style="fill: #ff0000; stroke: #ff0000"/>
     <use xlink:href="#mdd657084ae" x="185.7804" y="325.198171" style="fill: #ff0000; stroke: #ff0000"/>
     <use xlink:href="#mdd657084ae" x="156.078942" y="429.85179" style="fill: #ff0000; stroke: #ff0000"/>
     <use xlink:href="#mdd657084ae" x="203.183943" y="541.604857" style="fill: #ff0000; stroke: #ff0000"/>
     <use xlink:href="#mdd657084ae" x="319.181642" y="581.518363" style="fill: #ff0000; stroke: #ff0000"/>
     <use xlink:href="#mdd657084ae" x="423.7225" y="536.480773" style="fill: #ff0000; stroke: #ff0000"/>
     <use xlink:href="#mdd657084ae" x="484.553243" y="460.190237" style="fill: #ff0000; stroke: #ff0000"/>
     <use xlink:href="#mdd657084ae" x="612.259044" y="373.164413" style="fill: #ff0000; stroke: #ff0000"/>
    </g>
   </g>
   <g id="line2d_18">
    <path d="M 559.634919 373.164413 
L 518.406949 264.382134 
L 439.15369 176.058463 
L 321.824887 183.194635 
L 231.56398 237.476278 
L 206.57142 331.302966 
L 185.7804 421.130655 
L 231.56398 508.852548 
L 324.908673 541.685991 
L 413.43504 513.954378 
L 466.324324 448.475222 
L 559.634919 373.164413 
" clip-path="url(#p75d85adea9)" style="fill: none; stroke: #ffa500; stroke-width: 2.5; stroke-linecap: square"/>
    <defs>
     <path id="m896a879cde" d="M -4 4 
L 4 4 
L 4 -4 
L -4 -4 
z
" style="stroke: #ffa500; stroke-linejoin: miter"/>
    </defs>
    <g clip-path="url(#p75d85adea9)">
     <use xlink:href="#m896a879cde" x="559.634919" y="373.164413" style="fill: #ffa500; stroke: #ffa500; stroke-linejoin: miter"/>
     <use xlink:href="#m896a879cde" x="518.406949" y="264.382134" style="fill: #ffa500; stroke: #ffa500; stroke-linejoin: miter"/>
     <use xlink:href="#m896a879cde" x="439.15369" y="176.058463" style="fill: #ffa500; stroke: #ffa500; stroke-linejoin: miter"/>
     <use xlink:href="#m896a879cde" x="321.824887" y="183.194635" style="fill: #ffa500; stroke: #ffa500; stroke-linejoin: miter"/>
     <use xlink:href="#m896a879cde" x="231.56398" y="237.476278" style="fill: #ffa500; stroke: #ffa500; stroke-linejoin: miter"/>
     <use xlink:href="#m896a879cde" x="206.57142" y="331.302966" style="fill: #ffa500; stroke: #ffa500; stroke-linejoin: miter"/>
     <use xlink:href="#m896a879cde" x="185.7804" y="421.130655" style="fill: #ffa500; stroke: #ffa500; stroke-linejoin: miter"/>
     <use xlink:href="#m896a879cde" x="231.56398" y="508.852548" style="fill: #ffa500; stroke: #ffa500; stroke-linejoin: miter"/>
     <use xlink:href="#m896a879cde" x="324.908673" y="541.685991" style="fill: #ffa500; stroke: #ffa500; stroke-linejoin: miter"/>
     <use xlink:href="#m896a879cde" x="413.43504" y="513.954378" style="fill: #ffa500; stroke: #ffa500; stroke-linejoin: miter"/>
     <use xlink:href="#m896a879cde" x="466.324324" y="448.475222" style="fill: #ffa500; stroke: #ffa500; stroke-linejoin: miter"/>
     <use xlink:href="#m896a879cde" x="559.634919" y="373.164413" style="fill: #ffa500; stroke: #ffa500; stroke-linejoin: miter"/>
    </g>
   </g>
   <g id="line2d_19">
    <path d="M 497.724183 373.164413 
L 466.324324 297.853604 
L 413.43504 232.374449 
L 329.314081 235.283123 
L 263.998308 274.907488 
L 194.690837 327.814512 
L 206.57142 415.025861 
L 263.998308 471.421339 
L 331.516785 495.72556 
L 410.863176 508.32278 
L 479.34498 456.84309 
L 497.724183 373.164413 
" clip-path="url(#p75d85adea9)" style="fill: none; stroke: #0000ff; stroke-width: 2.5; stroke-linecap: square"/>
    <defs>
     <path id="m3701e1d3b9" d="M 0 -4 
L -4 4 
L 4 4 
z
" style="stroke: #0000ff; stroke-linejoin: miter"/>
    </defs>
    <g clip-path="url(#p75d85adea9)">
     <use xlink:href="#m3701e1d3b9" x="497.724183" y="373.164413" style="fill: #0000ff; stroke: #0000ff; stroke-linejoin: miter"/>
     <use xlink:href="#m3701e1d3b9" x="466.324324" y="297.853604" style="fill: #0000ff; stroke: #0000ff; stroke-linejoin: miter"/>
     <use xlink:href="#m3701e1d3b9" x="413.43504" y="232.374449" style="fill: #0000ff; stroke: #0000ff; stroke-linejoin: miter"/>
     <use xlink:href="#m3701e1d3b9" x="329.314081" y="235.283123" style="fill: #0000ff; stroke: #0000ff; stroke-linejoin: miter"/>
     <use xlink:href="#m3701e1d3b9" x="263.998308" y="274.907488" style="fill: #0000ff; stroke: #0000ff; stroke-linejoin: miter"/>
     <use xlink:href="#m3701e1d3b9" x="194.690837" y="327.814512" style="fill: #0000ff; stroke: #0000ff; stroke-linejoin: miter"/>
     <use xlink:href="#m3701e1d3b9" x="206.57142" y="415.025861" style="fill: #0000ff; stroke: #0000ff; stroke-linejoin: miter"/>
     <use xlink:href="#m3701e1d3b9" x="263.998308" y="471.421339" style="fill: #0000ff; stroke: #0000ff; stroke-linejoin: miter"/>
     <use xlink:href="#m3701e1d3b9" x="331.516785" y="495.72556" style="fill: #0000ff; stroke: #0000ff; stroke-linejoin: miter"/>
     <use xlink:href="#m3701e1d3b9" x="410.863176" y="508.32278" style="fill: #0000ff; stroke: #0000ff; stroke-linejoin: miter"/>
     <use xlink:href="#m3701e1d3b9" x="479.34498" y="456.84309" style="fill: #0000ff; stroke: #0000ff; stroke-linejoin: miter"/>
     <use xlink:href="#m3701e1d3b9" x="497.724183" y="373.164413" style="fill: #0000ff; stroke: #0000ff; stroke-linejoin: miter"/>
    </g>
   </g>
   <g id="line2d_20">
    <path d="M 448.195595 373.164413 
L 422.054093 326.304354 
L 387.716391 288.690434 
L 335.922193 281.243553 
L 292.378344 307.659797 
L 176.869962 322.581831 
L 224.392295 409.79318 
L 292.378344 438.66903 
L 338.124898 449.76513 
L 416.006905 519.585977 
L 492.365637 465.210958 
L 448.195595 373.164413 
" clip-path="url(#p75d85adea9)" style="fill: none; stroke: #808080; stroke-width: 2.5; stroke-linecap: square"/>
    <defs>
     <path id="m2c1b90f0a9" d="M 0 5.656854 
L 3.394113 0 
L 0 -5.656854 
L -3.394113 0 
z
" style="stroke: #808080; stroke-linejoin: miter"/>
    </defs>
    <g clip-path="url(#p75d85adea9)">
     <use xlink:href="#m2c1b90f0a9" x="448.195595" y="373.164413" style="fill: #808080; stroke: #808080; stroke-linejoin: miter"/>
     <use xlink:href="#m2c1b90f0a9" x="422.054093" y="326.304354" style="fill: #808080; stroke: #808080; stroke-linejoin: miter"/>
     <use xlink:href="#m2c1b90f0a9" x="387.716391" y="288.690434" style="fill: #808080; stroke: #808080; stroke-linejoin: miter"/>
     <use xlink:href="#m2c1b90f0a9" x="335.922193" y="281.243553" style="fill: #808080; stroke: #808080; stroke-linejoin: miter"/>
     <use xlink:href="#m2c1b90f0a9" x="292.378344" y="307.659797" style="fill: #808080; stroke: #808080; stroke-linejoin: miter"/>
     <use xlink:href="#m2c1b90f0a9" x="176.869962" y="322.581831" style="fill: #808080; stroke: #808080; stroke-linejoin: miter"/>
     <use xlink:href="#m2c1b90f0a9" x="224.392295" y="409.79318" style="fill: #808080; stroke: #808080; stroke-linejoin: miter"/>
     <use xlink:href="#m2c1b90f0a9" x="292.378344" y="438.66903" style="fill: #808080; stroke: #808080; stroke-linejoin: miter"/>
     <use xlink:href="#m2c1b90f0a9" x="338.124898" y="449.76513" style="fill: #808080; stroke: #808080; stroke-linejoin: miter"/>
     <use xlink:href="#m2c1b90f0a9" x="416.006905" y="519.585977" style="fill: #808080; stroke: #808080; stroke-linejoin: miter"/>
     <use xlink:href="#m2c1b90f0a9" x="492.365637" y="465.210958" style="fill: #808080; stroke: #808080; stroke-linejoin: miter"/>
     <use xlink:href="#m2c1b90f0a9" x="448.195595" y="373.164413" style="fill: #808080; stroke: #808080; stroke-linejoin: miter"/>
    </g>
   </g>
   <g id="patch_7">
    <path d="M 658.692096 373.164413 
C 658.692096 332.514197 650.684889 292.259252 635.128725 254.703349 
C 619.572561 217.147446 596.769966 183.020952 568.025923 154.276909 
C 539.281879 125.532865 505.155385 102.730271 467.599482 87.174106 
C 430.043579 71.617942 389.788634 63.610736 349.138418 63.610736 
C 308.488201 63.610736 268.233257 71.617942 230.677354 87.174106 
C 193.121451 102.730271 158.994957 125.532865 130.250913 154.276909 
C 101.506869 183.020952 78.704275 217.147446 63.148111 254.703349 
C 47.591946 292.259252 39.58474 332.514197 39.58474 373.164413 
C 39.58474 413.81463 47.591946 454.069574 63.148111 491.625477 
C 78.704275 529.18138 101.506869 563.307874 130.250913 592.051918 
C 158.994957 620.795962 193.121451 643.598556 230.677354 659.154721 
C 268.233257 674.710885 308.488201 682.718091 349.138418 682.718091 
C 389.788634 682.718091 430.043579 674.710885 467.599482 659.154721 
C 505.155385 643.598556 539.281879 620.795962 568.025923 592.051918 
C 596.769966 563.307874 619.572561 529.18138 635.128725 491.625477 
C 650.684889 454.069574 658.692096 413.81463 658.692096 373.164413 
" style="fill: none; stroke: #000000; stroke-width: 0.8; stroke-linejoin: miter; stroke-linecap: square"/>
   </g>
   <g id="text_17">
    <text style="font-weight: 700; font-size: 14px; font-family: 'Arial'; text-anchor: middle" x="349.138418" y="33.610736" transform="rotate(-0 349.138418 33.610736)">Figure 20 Radar Chart of Four Adaptation Types</text>
   </g>
   <g id="legend_1">
    <g id="patch_8">
     <path d="M 667.312271 73.79125 
L 836.724302 73.79125 
Q 838.924302 73.79125 838.924302 71.59125 
L 838.924302 9.4 
Q 838.924302 7.2 836.724302 7.2 
L 667.312271 7.2 
Q 665.112271 7.2 665.112271 9.4 
L 665.112271 71.59125 
Q 665.112271 73.79125 667.312271 73.79125 
z
" style="fill: #ffffff; opacity: 0.95; stroke: #cccccc; stroke-linejoin: miter"/>
    </g>
    <g id="line2d_21">
     <path d="M 669.512271 15.757656 
L 680.512271 15.757656 
L 691.512271 15.757656 
" style="fill: none; stroke: #ff0000; stroke-width: 2.5; stroke-linecap: square"/>
     <g>
      <use xlink:href="#mdd657084ae" x="680.512271" y="15.757656" style="fill: #ff0000; stroke: #ff0000"/>
     </g>
    </g>
    <g id="text_18">
     <text style="font-size: 11px; font-family: 'Arial'; text-anchor: start" x="700.312271" y="19.607656" transform="rotate(-0 700.312271 19.607656)">High Adaptation (n=25)</text>
    </g>
    <g id="line2d_22">
     <path d="M 669.512271 31.580469 
L 680.512271 31.580469 
L 691.512271 31.580469 
" style="fill: none; stroke: #ffa500; stroke-width: 2.5; stroke-linecap: square"/>
     <g>
      <use xlink:href="#m896a879cde" x="680.512271" y="31.580469" style="fill: #ffa500; stroke: #ffa500; stroke-linejoin: miter"/>
     </g>
    </g>
    <g id="text_19">
     <text style="font-size: 11px; font-family: 'Arial'; text-anchor: start" x="700.312271" y="35.430469" transform="rotate(-0 700.312271 35.430469)">Mid-High Adaptation (n=28)</text>
    </g>
    <g id="line2d_23">
     <path d="M 669.512271 47.403281 
L 680.512271 47.403281 
L 691.512271 47.403281 
" style="fill: none; stroke: #0000ff; stroke-width: 2.5; stroke-linecap: square"/>
     <g>
      <use xlink:href="#m3701e1d3b9" x="680.512271" y="47.403281" style="fill: #0000ff; stroke: #0000ff; stroke-linejoin: miter"/>
     </g>
    </g>
    <g id="text_20">
     <text style="font-size: 11px; font-family: 'Arial'; text-anchor: start" x="700.312271" y="51.253281" transform="rotate(-0 700.312271 51.253281)">Mid-Low Adaptation (n=15)</text>
    </g>
    <g id="line2d_24">
     <path d="M 669.512271 63.226094 
L 680.512271 63.226094 
L 691.512271 63.226094 
" style="fill: none; stroke: #808080; stroke-width: 2.5; stroke-linecap: square"/>
     <g>
      <use xlink:href="#m2c1b90f0a9" x="680.512271" y="63.226094" style="fill: #808080; stroke: #808080; stroke-linejoin: miter"/>
     </g>
    </g>
    <g id="text_21">
     <text style="font-size: 11px; font-family: 'Arial'; text-anchor: start" x="700.312271" y="67.076094" transform="rotate(-0 700.312271 67.076094)">Low Adaptation (n=7)</text>
    </g>
   </g>
  </g>
 </g>
 <defs>
  <clipPath id="p75d85adea9">
   <path d="M 658.692096 373.164413 
C 658.692096 332.514197 650.684889 292.259252 635.128725 254.703349 
C 619.572561 217.147446 596.769966 183.020952 568.025923 154.276909 
C 539.281879 125.532865 505.155385 102.730271 467.599482 87.174106 
C 430.043579 71.617942 389.788634 63.610736 349.138418 63.610736 
C 308.488201 63.610736 268.233257 71.617942 230.677354 87.174106 
C 193.121451 102.730271 158.994957 125.532865 130.250913 154.276909 
C 101.506869 183.020952 78.704275 217.147446 63.148111 254.703349 
C 47.591946 292.259252 39.58474 332.514197 39.58474 373.164413 
C 39.58474 413.81463 47.591946 454.069574 63.148111 491.625477 
C 78.704275 529.18138 101.506869 563.307874 130.250913 592.051918 
C 158.994957 620.795962 193.121451 643.598556 230.677354 659.154721 
C 268.233257 674.710885 308.488201 682.718091 349.138418 682.718091 
C 389.788634 682.718091 430.043579 674.710885 467.599482 659.154721 
C 505.155385 643.598556 539.281879 620.795962 568.025923 592.051918 
C 596.769966 563.307874 619.572561 529.18138 635.128725 491.625477 
C 650.684889 454.069574 658.692096 413.81463 658.692096 373.164413 
M 349.138418 373.164413 
C 349.138418 373.164413 349.138418 373.164413 349.138418 373.164413 
C 349.138418 373.164413 349.138418 373.164413 349.138418 373.164413 
C 349.138418 373.164413 349.138418 373.164413 349.138418 373.164413 
C 349.138418 373.164413 349.138418 373.164413 349.138418 373.164413 
C 349.138418 373.164413 349.138418 373.164413 349.138418 373.164413 
C 349.138418 373.164413 349.138418 373.164413 349.138418 373.164413 
C 349.138418 373.164413 349.138418 373.164413 349.138418 373.164413 
C 349.138418 373.164413 349.138418 373.164413 349.138418 373.164413 
C 349.138418 373.164413 349.138418 373.164413 349.138418 373.164413 
C 349.138418 373.164413 349.138418 373.164413 349.138418 373.164413 
C 349.138418 373.164413 349.138418 373.164413 349.138418 373.164413 
C 349.138418 373.164413 349.138418 373.164413 349.138418 373.164413 
C 349.138418 373.164413 349.138418 373.164413 349.138418 373.164413 
C 349.138418 373.164413 349.138418 373.164413 349.138418 373.164413 
C 349.138418 373.164413 349.138418 373.164413 349.138418 373.164413 
C 349.138418 373.164413 349.138418 373.164413 349.138418 373.164413 
z
"/>
  </clipPath>
 </defs>
</svg>
