<?xml version="1.0" encoding="utf-8" standalone="no"?>
<!DOCTYPE svg PUBLIC "-//W3C//DTD SVG 1.1//EN"
  "http://www.w3.org/Graphics/SVG/1.1/DTD/svg11.dtd">
<svg xmlns:xlink="http://www.w3.org/1999/xlink" width="855.100469pt" height="638.385937pt" viewBox="0 0 855.100469 638.385937" xmlns="http://www.w3.org/2000/svg" version="1.1">
 <metadata>
  <rdf:RDF xmlns:dc="http://purl.org/dc/elements/1.1/" xmlns:cc="http://creativecommons.org/ns#" xmlns:rdf="http://www.w3.org/1999/02/22-rdf-syntax-ns#">
   <cc:Work>
    <dc:type rdf:resource="http://purl.org/dc/dcmitype/StillImage"/>
    <dc:date>2026-03-23T17:50:09.436719</dc:date>
    <dc:format>image/svg+xml</dc:format>
    <dc:creator>
     <cc:Agent>
      <dc:title>Matplotlib v3.10.8, https://matplotlib.org/</dc:title>
     </cc:Agent>
    </dc:creator>
   </cc:Work>
  </rdf:RDF>
 </metadata>
 <defs>
  <style type="text/css">*{stroke-linejoin: round; stroke-linecap: butt}</style>
 </defs>
 <g id="figure_1">
  <g id="patch_1">
   <path d="M 0 638.385937 
L 855.100469 638.385937 
L 855.100469 0 
L 0 0 
z
" style="fill: #ffffff"/>
  </g>
  <g id="axes_1">
   <g id="patch_2">
    <path d="M 160.595469 598.864844 
L 840.255469 598.864844 
L 840.255469 31.663594 
L 160.595469 31.663594 
z
" style="fill: #ffffff"/>
   </g>
   <g id="matplotlib.axis_1">
    <g id="xtick_1">
     <g id="line2d_1">
      <path d="M 160.595469 598.864844 
L 160.595469 31.663594 
" clip-path="url(#pf6a25b85c8)" style="fill: none; stroke-dasharray: 1.85,0.8; stroke-dashoffset: 0; stroke: #cccccc; stroke-opacity: 0.3; stroke-width: 0.5"/>
     </g>
     <g id="text_1">
      <!-- 0.0 -->
      <g style="fill: #262626" transform="translate(152.950469 613.738437) scale(0.11 -0.11)">
       <defs>
        <path id="ArialMT-30" d="M 266 2259 
Q 266 3072 433 3567 
Q 600 4063 929 4331 
Q 1259 4600 1759 4600 
Q 2128 4600 2406 4451 
Q 2684 4303 2865 4023 
Q 3047 3744 3150 3342 
Q 3253 2941 3253 2259 
Q 3253 1453 3087 958 
Q 2922 463 2592 192 
Q 2263 -78 1759 -78 
Q 1097 -78 719 397 
Q 266 969 266 2259 
z
M 844 2259 
Q 844 1131 1108 757 
Q 1372 384 1759 384 
Q 2147 384 2411 759 
Q 2675 1134 2675 2259 
Q 2675 3391 2411 3762 
Q 2147 4134 1753 4134 
Q 1366 4134 1134 3806 
Q 844 3388 844 2259 
z
" transform="scale(0.015625)"/>
        <path id="ArialMT-2e" d="M 581 0 
L 581 641 
L 1222 641 
L 1222 0 
L 581 0 
z
" transform="scale(0.015625)"/>
       </defs>
       <use xlink:href="#ArialMT-30"/>
       <use xlink:href="#ArialMT-2e" transform="translate(55.615234 0)"/>
       <use xlink:href="#ArialMT-30" transform="translate(83.398438 0)"/>
      </g>
     </g>
    </g>
    <g id="xtick_2">
     <g id="line2d_2">
      <path d="M 296.527469 598.864844 
L 296.527469 31.663594 
" clip-path="url(#pf6a25b85c8)" style="fill: none; stroke-dasharray: 1.85,0.8; stroke-dashoffset: 0; stroke: #cccccc; stroke-opacity: 0.3; stroke-width: 0.5"/>
     </g>
     <g id="text_2">
      <!-- 0.2 -->
      <g style="fill: #262626" transform="translate(288.882469 613.738437) scale(0.11 -0.11)">
       <defs>
        <path id="ArialMT-32" d="M 3222 541 
L 3222 0 
L 194 0 
Q 188 203 259 391 
Q 375 700 629 1000 
Q 884 1300 1366 1694 
Q 2113 2306 2375 2664 
Q 2638 3022 2638 3341 
Q 2638 3675 2398 3904 
Q 2159 4134 1775 4134 
Q 1369 4134 1125 3890 
Q 881 3647 878 3216 
L 300 3275 
Q 359 3922 746 4261 
Q 1134 4600 1788 4600 
Q 2447 4600 2831 4234 
Q 3216 3869 3216 3328 
Q 3216 3053 3103 2787 
Q 2991 2522 2730 2228 
Q 2469 1934 1863 1422 
Q 1356 997 1212 845 
Q 1069 694 975 541 
L 3222 541 
z
" transform="scale(0.015625)"/>
       </defs>
       <use xlink:href="#ArialMT-30"/>
       <use xlink:href="#ArialMT-2e" transform="translate(55.615234 0)"/>
       <use xlink:href="#ArialMT-32" transform="translate(83.398438 0)"/>
      </g>
     </g>
    </g>
    <g id="xtick_3">
     <g id="line2d_3">
      <path d="M 432.459469 598.864844 
L 432.459469 31.663594 
" clip-path="url(#pf6a25b85c8)" style="fill: none; stroke-dasharray: 1.85,0.8; stroke-dashoffset: 0; stroke: #cccccc; stroke-opacity: 0.3; stroke-width: 0.5"/>
     </g>
     <g id="text_3">
      <!-- 0.4 -->
      <g style="fill: #262626" transform="translate(424.814469 613.738437) scale(0.11 -0.11)">
       <defs>
        <path id="ArialMT-34" d="M 2069 0 
L 2069 1097 
L 81 1097 
L 81 1613 
L 2172 4581 
L 2631 4581 
L 2631 1613 
L 3250 1613 
L 3250 1097 
L 2631 1097 
L 2631 0 
L 2069 0 
z
M 2069 1613 
L 2069 3678 
L 634 1613 
L 2069 1613 
z
" transform="scale(0.015625)"/>
       </defs>
       <use xlink:href="#ArialMT-30"/>
       <use xlink:href="#ArialMT-2e" transform="translate(55.615234 0)"/>
       <use xlink:href="#ArialMT-34" transform="translate(83.398438 0)"/>
      </g>
     </g>
    </g>
    <g id="xtick_4">
     <g id="line2d_4">
      <path d="M 568.391469 598.864844 
L 568.391469 31.663594 
" clip-path="url(#pf6a25b85c8)" style="fill: none; stroke-dasharray: 1.85,0.8; stroke-dashoffset: 0; stroke: #cccccc; stroke-opacity: 0.3; stroke-width: 0.5"/>
     </g>
     <g id="text_4">
      <!-- 0.6 -->
      <g style="fill: #262626" transform="translate(560.746469 613.738437) scale(0.11 -0.11)">
       <defs>
        <path id="ArialMT-36" d="M 3184 3459 
L 2625 3416 
Q 2550 3747 2413 3897 
Q 2184 4138 1850 4138 
Q 1581 4138 1378 3988 
Q 1113 3794 959 3422 
Q 806 3050 800 2363 
Q 1003 2672 1297 2822 
Q 1591 2972 1913 2972 
Q 2475 2972 2870 2558 
Q 3266 2144 3266 1488 
Q 3266 1056 3080 686 
Q 2894 316 2569 119 
Q 2244 -78 1831 -78 
Q 1128 -78 684 439 
Q 241 956 241 2144 
Q 241 3472 731 4075 
Q 1159 4600 1884 4600 
Q 2425 4600 2770 4297 
Q 3116 3994 3184 3459 
z
M 888 1484 
Q 888 1194 1011 928 
Q 1134 663 1356 523 
Q 1578 384 1822 384 
Q 2178 384 2434 671 
Q 2691 959 2691 1453 
Q 2691 1928 2437 2201 
Q 2184 2475 1800 2475 
Q 1419 2475 1153 2201 
Q 888 1928 888 1484 
z
" transform="scale(0.015625)"/>
       </defs>
       <use xlink:href="#ArialMT-30"/>
       <use xlink:href="#ArialMT-2e" transform="translate(55.615234 0)"/>
       <use xlink:href="#ArialMT-36" transform="translate(83.398438 0)"/>
      </g>
     </g>
    </g>
    <g id="xtick_5">
     <g id="line2d_5">
      <path d="M 704.323469 598.864844 
L 704.323469 31.663594 
" clip-path="url(#pf6a25b85c8)" style="fill: none; stroke-dasharray: 1.85,0.8; stroke-dashoffset: 0; stroke: #cccccc; stroke-opacity: 0.3; stroke-width: 0.5"/>
     </g>
     <g id="text_5">
      <!-- 0.8 -->
      <g style="fill: #262626" transform="translate(696.678469 613.738437) scale(0.11 -0.11)">
       <defs>
        <path id="ArialMT-38" d="M 1131 2484 
Q 781 2613 612 2850 
Q 444 3088 444 3419 
Q 444 3919 803 4259 
Q 1163 4600 1759 4600 
Q 2359 4600 2725 4251 
Q 3091 3903 3091 3403 
Q 3091 3084 2923 2848 
Q 2756 2613 2416 2484 
Q 2838 2347 3058 2040 
Q 3278 1734 3278 1309 
Q 3278 722 2862 322 
Q 2447 -78 1769 -78 
Q 1091 -78 675 323 
Q 259 725 259 1325 
Q 259 1772 486 2073 
Q 713 2375 1131 2484 
z
M 1019 3438 
Q 1019 3113 1228 2906 
Q 1438 2700 1772 2700 
Q 2097 2700 2305 2904 
Q 2513 3109 2513 3406 
Q 2513 3716 2298 3927 
Q 2084 4138 1766 4138 
Q 1444 4138 1231 3931 
Q 1019 3725 1019 3438 
z
M 838 1322 
Q 838 1081 952 856 
Q 1066 631 1291 507 
Q 1516 384 1775 384 
Q 2178 384 2440 643 
Q 2703 903 2703 1303 
Q 2703 1709 2433 1975 
Q 2163 2241 1756 2241 
Q 1359 2241 1098 1978 
Q 838 1716 838 1322 
z
" transform="scale(0.015625)"/>
       </defs>
       <use xlink:href="#ArialMT-30"/>
       <use xlink:href="#ArialMT-2e" transform="translate(55.615234 0)"/>
       <use xlink:href="#ArialMT-38" transform="translate(83.398438 0)"/>
      </g>
     </g>
    </g>
    <g id="xtick_6">
     <g id="line2d_6">
      <path d="M 840.255469 598.864844 
L 840.255469 31.663594 
" clip-path="url(#pf6a25b85c8)" style="fill: none; stroke-dasharray: 1.85,0.8; stroke-dashoffset: 0; stroke: #cccccc; stroke-opacity: 0.3; stroke-width: 0.5"/>
     </g>
     <g id="text_6">
      <!-- 1.0 -->
      <g style="fill: #262626" transform="translate(832.610469 613.738437) scale(0.11 -0.11)">
       <defs>
        <path id="ArialMT-31" d="M 2384 0 
L 1822 0 
L 1822 3584 
Q 1619 3391 1289 3197 
Q 959 3003 697 2906 
L 697 3450 
Q 1169 3672 1522 3987 
Q 1875 4303 2022 4600 
L 2384 4600 
L 2384 0 
z
" transform="scale(0.015625)"/>
       </defs>
       <use xlink:href="#ArialMT-31"/>
       <use xlink:href="#ArialMT-2e" transform="translate(55.615234 0)"/>
       <use xlink:href="#ArialMT-30" transform="translate(83.398438 0)"/>
      </g>
     </g>
    </g>
    <g id="text_7">
     <!-- Importance (SHAP Value / Importance Value) -->
     <g style="fill: #262626" transform="translate(373.831094 628.660312) scale(0.12 -0.12)">
      <defs>
       <path id="Arial-BoldMT-49" d="M 438 0 
L 438 4581 
L 1363 4581 
L 1363 0 
L 438 0 
z
" transform="scale(0.015625)"/>
       <path id="Arial-BoldMT-6d" d="M 394 3319 
L 1203 3319 
L 1203 2866 
Q 1638 3394 2238 3394 
Q 2556 3394 2790 3262 
Q 3025 3131 3175 2866 
Q 3394 3131 3647 3262 
Q 3900 3394 4188 3394 
Q 4553 3394 4806 3245 
Q 5059 3097 5184 2809 
Q 5275 2597 5275 2122 
L 5275 0 
L 4397 0 
L 4397 1897 
Q 4397 2391 4306 2534 
Q 4184 2722 3931 2722 
Q 3747 2722 3584 2609 
Q 3422 2497 3350 2280 
Q 3278 2063 3278 1594 
L 3278 0 
L 2400 0 
L 2400 1819 
Q 2400 2303 2353 2443 
Q 2306 2584 2207 2653 
Q 2109 2722 1941 2722 
Q 1738 2722 1575 2612 
Q 1413 2503 1342 2297 
Q 1272 2091 1272 1613 
L 1272 0 
L 394 0 
L 394 3319 
z
" transform="scale(0.015625)"/>
       <path id="Arial-BoldMT-70" d="M 434 3319 
L 1253 3319 
L 1253 2831 
Q 1413 3081 1684 3237 
Q 1956 3394 2288 3394 
Q 2866 3394 3269 2941 
Q 3672 2488 3672 1678 
Q 3672 847 3265 386 
Q 2859 -75 2281 -75 
Q 2006 -75 1782 34 
Q 1559 144 1313 409 
L 1313 -1263 
L 434 -1263 
L 434 3319 
z
M 1303 1716 
Q 1303 1156 1525 889 
Q 1747 622 2066 622 
Q 2372 622 2575 867 
Q 2778 1113 2778 1672 
Q 2778 2194 2568 2447 
Q 2359 2700 2050 2700 
Q 1728 2700 1515 2451 
Q 1303 2203 1303 1716 
z
" transform="scale(0.015625)"/>
       <path id="Arial-BoldMT-6f" d="M 256 1706 
Q 256 2144 472 2553 
Q 688 2963 1083 3178 
Q 1478 3394 1966 3394 
Q 2719 3394 3200 2905 
Q 3681 2416 3681 1669 
Q 3681 916 3195 420 
Q 2709 -75 1972 -75 
Q 1516 -75 1102 131 
Q 688 338 472 736 
Q 256 1134 256 1706 
z
M 1156 1659 
Q 1156 1166 1390 903 
Q 1625 641 1969 641 
Q 2313 641 2545 903 
Q 2778 1166 2778 1666 
Q 2778 2153 2545 2415 
Q 2313 2678 1969 2678 
Q 1625 2678 1390 2415 
Q 1156 2153 1156 1659 
z
" transform="scale(0.015625)"/>
       <path id="Arial-BoldMT-72" d="M 1300 0 
L 422 0 
L 422 3319 
L 1238 3319 
L 1238 2847 
Q 1447 3181 1614 3287 
Q 1781 3394 1994 3394 
Q 2294 3394 2572 3228 
L 2300 2463 
Q 2078 2606 1888 2606 
Q 1703 2606 1575 2504 
Q 1447 2403 1373 2137 
Q 1300 1872 1300 1025 
L 1300 0 
z
" transform="scale(0.015625)"/>
       <path id="Arial-BoldMT-74" d="M 1981 3319 
L 1981 2619 
L 1381 2619 
L 1381 1281 
Q 1381 875 1398 808 
Q 1416 741 1477 697 
Q 1538 653 1625 653 
Q 1747 653 1978 738 
L 2053 56 
Q 1747 -75 1359 -75 
Q 1122 -75 931 4 
Q 741 84 652 211 
Q 563 338 528 553 
Q 500 706 500 1172 
L 500 2619 
L 97 2619 
L 97 3319 
L 500 3319 
L 500 3978 
L 1381 4491 
L 1381 3319 
L 1981 3319 
z
" transform="scale(0.015625)"/>
       <path id="Arial-BoldMT-61" d="M 1116 2306 
L 319 2450 
Q 453 2931 781 3162 
Q 1109 3394 1756 3394 
Q 2344 3394 2631 3255 
Q 2919 3116 3036 2902 
Q 3153 2688 3153 2116 
L 3144 1091 
Q 3144 653 3186 445 
Q 3228 238 3344 0 
L 2475 0 
Q 2441 88 2391 259 
Q 2369 338 2359 363 
Q 2134 144 1878 34 
Q 1622 -75 1331 -75 
Q 819 -75 523 203 
Q 228 481 228 906 
Q 228 1188 362 1408 
Q 497 1628 739 1745 
Q 981 1863 1438 1950 
Q 2053 2066 2291 2166 
L 2291 2253 
Q 2291 2506 2166 2614 
Q 2041 2722 1694 2722 
Q 1459 2722 1328 2630 
Q 1197 2538 1116 2306 
z
M 2291 1594 
Q 2122 1538 1756 1459 
Q 1391 1381 1278 1306 
Q 1106 1184 1106 997 
Q 1106 813 1243 678 
Q 1381 544 1594 544 
Q 1831 544 2047 700 
Q 2206 819 2256 991 
Q 2291 1103 2291 1419 
L 2291 1594 
z
" transform="scale(0.015625)"/>
       <path id="Arial-BoldMT-6e" d="M 3478 0 
L 2600 0 
L 2600 1694 
Q 2600 2231 2544 2389 
Q 2488 2547 2361 2634 
Q 2234 2722 2056 2722 
Q 1828 2722 1647 2597 
Q 1466 2472 1398 2265 
Q 1331 2059 1331 1503 
L 1331 0 
L 453 0 
L 453 3319 
L 1269 3319 
L 1269 2831 
Q 1703 3394 2363 3394 
Q 2653 3394 2893 3289 
Q 3134 3184 3257 3021 
Q 3381 2859 3429 2653 
Q 3478 2447 3478 2063 
L 3478 0 
z
" transform="scale(0.015625)"/>
       <path id="Arial-BoldMT-63" d="M 3353 2338 
L 2488 2181 
Q 2444 2441 2289 2572 
Q 2134 2703 1888 2703 
Q 1559 2703 1364 2476 
Q 1169 2250 1169 1719 
Q 1169 1128 1367 884 
Q 1566 641 1900 641 
Q 2150 641 2309 783 
Q 2469 925 2534 1272 
L 3397 1125 
Q 3263 531 2881 228 
Q 2500 -75 1859 -75 
Q 1131 -75 698 384 
Q 266 844 266 1656 
Q 266 2478 700 2936 
Q 1134 3394 1875 3394 
Q 2481 3394 2839 3133 
Q 3197 2872 3353 2338 
z
" transform="scale(0.015625)"/>
       <path id="Arial-BoldMT-65" d="M 2381 1056 
L 3256 909 
Q 3088 428 2723 176 
Q 2359 -75 1813 -75 
Q 947 -75 531 491 
Q 203 944 203 1634 
Q 203 2459 634 2926 
Q 1066 3394 1725 3394 
Q 2466 3394 2894 2905 
Q 3322 2416 3303 1406 
L 1103 1406 
Q 1113 1016 1316 798 
Q 1519 581 1822 581 
Q 2028 581 2168 693 
Q 2309 806 2381 1056 
z
M 2431 1944 
Q 2422 2325 2234 2523 
Q 2047 2722 1778 2722 
Q 1491 2722 1303 2513 
Q 1116 2303 1119 1944 
L 2431 1944 
z
" transform="scale(0.015625)"/>
       <path id="Arial-BoldMT-20" transform="scale(0.015625)"/>
       <path id="Arial-BoldMT-28" d="M 1916 -1347 
L 1313 -1347 
Q 834 -625 584 153 
Q 334 931 334 1659 
Q 334 2563 644 3369 
Q 913 4069 1325 4659 
L 1925 4659 
Q 1497 3713 1336 3048 
Q 1175 2384 1175 1641 
Q 1175 1128 1270 590 
Q 1366 53 1531 -431 
Q 1641 -750 1916 -1347 
z
" transform="scale(0.015625)"/>
       <path id="Arial-BoldMT-53" d="M 231 1491 
L 1131 1578 
Q 1213 1125 1461 912 
Q 1709 700 2131 700 
Q 2578 700 2804 889 
Q 3031 1078 3031 1331 
Q 3031 1494 2936 1608 
Q 2841 1722 2603 1806 
Q 2441 1863 1863 2006 
Q 1119 2191 819 2459 
Q 397 2838 397 3381 
Q 397 3731 595 4036 
Q 794 4341 1167 4500 
Q 1541 4659 2069 4659 
Q 2931 4659 3367 4281 
Q 3803 3903 3825 3272 
L 2900 3231 
Q 2841 3584 2645 3739 
Q 2450 3894 2059 3894 
Q 1656 3894 1428 3728 
Q 1281 3622 1281 3444 
Q 1281 3281 1419 3166 
Q 1594 3019 2269 2859 
Q 2944 2700 3267 2529 
Q 3591 2359 3773 2064 
Q 3956 1769 3956 1334 
Q 3956 941 3737 597 
Q 3519 253 3119 86 
Q 2719 -81 2122 -81 
Q 1253 -81 787 320 
Q 322 722 231 1491 
z
" transform="scale(0.015625)"/>
       <path id="Arial-BoldMT-48" d="M 469 0 
L 469 4581 
L 1394 4581 
L 1394 2778 
L 3206 2778 
L 3206 4581 
L 4131 4581 
L 4131 0 
L 3206 0 
L 3206 2003 
L 1394 2003 
L 1394 0 
L 469 0 
z
" transform="scale(0.015625)"/>
       <path id="Arial-BoldMT-41" d="M 4597 0 
L 3591 0 
L 3191 1041 
L 1359 1041 
L 981 0 
L 0 0 
L 1784 4581 
L 2763 4581 
L 4597 0 
z
M 2894 1813 
L 2263 3513 
L 1644 1813 
L 2894 1813 
z
" transform="scale(0.015625)"/>
       <path id="Arial-BoldMT-50" d="M 466 0 
L 466 4581 
L 1950 4581 
Q 2794 4581 3050 4513 
Q 3444 4409 3709 4064 
Q 3975 3719 3975 3172 
Q 3975 2750 3822 2462 
Q 3669 2175 3433 2011 
Q 3197 1847 2953 1794 
Q 2622 1728 1994 1728 
L 1391 1728 
L 1391 0 
L 466 0 
z
M 1391 3806 
L 1391 2506 
L 1897 2506 
Q 2444 2506 2628 2578 
Q 2813 2650 2917 2803 
Q 3022 2956 3022 3159 
Q 3022 3409 2875 3571 
Q 2728 3734 2503 3775 
Q 2338 3806 1838 3806 
L 1391 3806 
z
" transform="scale(0.015625)"/>
       <path id="Arial-BoldMT-56" d="M 1634 0 
L -3 4581 
L 1000 4581 
L 2159 1191 
L 3281 4581 
L 4263 4581 
L 2622 0 
L 1634 0 
z
" transform="scale(0.015625)"/>
       <path id="Arial-BoldMT-6c" d="M 459 0 
L 459 4581 
L 1338 4581 
L 1338 0 
L 459 0 
z
" transform="scale(0.015625)"/>
       <path id="Arial-BoldMT-75" d="M 2644 0 
L 2644 497 
Q 2463 231 2167 78 
Q 1872 -75 1544 -75 
Q 1209 -75 943 72 
Q 678 219 559 484 
Q 441 750 441 1219 
L 441 3319 
L 1319 3319 
L 1319 1794 
Q 1319 1094 1367 936 
Q 1416 778 1544 686 
Q 1672 594 1869 594 
Q 2094 594 2272 717 
Q 2450 841 2515 1023 
Q 2581 1206 2581 1919 
L 2581 3319 
L 3459 3319 
L 3459 0 
L 2644 0 
z
" transform="scale(0.015625)"/>
       <path id="Arial-BoldMT-2f" d="M -9 -78 
L 1125 4659 
L 1784 4659 
L 638 -78 
L -9 -78 
z
" transform="scale(0.015625)"/>
       <path id="Arial-BoldMT-29" d="M 216 -1347 
Q 475 -791 581 -494 
Q 688 -197 778 190 
Q 869 578 912 926 
Q 956 1275 956 1641 
Q 956 2384 797 3048 
Q 638 3713 209 4659 
L 806 4659 
Q 1278 3988 1539 3234 
Q 1800 2481 1800 1706 
Q 1800 1053 1594 306 
Q 1359 -531 822 -1347 
L 216 -1347 
z
" transform="scale(0.015625)"/>
      </defs>
      <use xlink:href="#Arial-BoldMT-49"/>
      <use xlink:href="#Arial-BoldMT-6d" transform="translate(27.783203 0)"/>
      <use xlink:href="#Arial-BoldMT-70" transform="translate(116.699219 0)"/>
      <use xlink:href="#Arial-BoldMT-6f" transform="translate(177.783203 0)"/>
      <use xlink:href="#Arial-BoldMT-72" transform="translate(238.867188 0)"/>
      <use xlink:href="#Arial-BoldMT-74" transform="translate(277.783203 0)"/>
      <use xlink:href="#Arial-BoldMT-61" transform="translate(311.083984 0)"/>
      <use xlink:href="#Arial-BoldMT-6e" transform="translate(366.699219 0)"/>
      <use xlink:href="#Arial-BoldMT-63" transform="translate(427.783203 0)"/>
      <use xlink:href="#Arial-BoldMT-65" transform="translate(483.398438 0)"/>
      <use xlink:href="#Arial-BoldMT-20" transform="translate(539.013672 0)"/>
      <use xlink:href="#Arial-BoldMT-28" transform="translate(566.796875 0)"/>
      <use xlink:href="#Arial-BoldMT-53" transform="translate(600.097656 0)"/>
      <use xlink:href="#Arial-BoldMT-48" transform="translate(666.796875 0)"/>
      <use xlink:href="#Arial-BoldMT-41" transform="translate(739.013672 0)"/>
      <use xlink:href="#Arial-BoldMT-50" transform="translate(811.230469 0)"/>
      <use xlink:href="#Arial-BoldMT-20" transform="translate(876.179688 0)"/>
      <use xlink:href="#Arial-BoldMT-56" transform="translate(903.962891 0)"/>
      <use xlink:href="#Arial-BoldMT-61" transform="translate(965.162109 0)"/>
      <use xlink:href="#Arial-BoldMT-6c" transform="translate(1020.777344 0)"/>
      <use xlink:href="#Arial-BoldMT-75" transform="translate(1048.560547 0)"/>
      <use xlink:href="#Arial-BoldMT-65" transform="translate(1109.644531 0)"/>
      <use xlink:href="#Arial-BoldMT-20" transform="translate(1165.259766 0)"/>
      <use xlink:href="#Arial-BoldMT-2f" transform="translate(1193.042969 0)"/>
      <use xlink:href="#Arial-BoldMT-20" transform="translate(1220.826172 0)"/>
      <use xlink:href="#Arial-BoldMT-49" transform="translate(1248.609375 0)"/>
      <use xlink:href="#Arial-BoldMT-6d" transform="translate(1276.392578 0)"/>
      <use xlink:href="#Arial-BoldMT-70" transform="translate(1365.308594 0)"/>
      <use xlink:href="#Arial-BoldMT-6f" transform="translate(1426.392578 0)"/>
      <use xlink:href="#Arial-BoldMT-72" transform="translate(1487.476562 0)"/>
      <use xlink:href="#Arial-BoldMT-74" transform="translate(1526.392578 0)"/>
      <use xlink:href="#Arial-BoldMT-61" transform="translate(1559.693359 0)"/>
      <use xlink:href="#Arial-BoldMT-6e" transform="translate(1615.308594 0)"/>
      <use xlink:href="#Arial-BoldMT-63" transform="translate(1676.392578 0)"/>
      <use xlink:href="#Arial-BoldMT-65" transform="translate(1732.007812 0)"/>
      <use xlink:href="#Arial-BoldMT-20" transform="translate(1787.623047 0)"/>
      <use xlink:href="#Arial-BoldMT-56" transform="translate(1815.40625 0)"/>
      <use xlink:href="#Arial-BoldMT-61" transform="translate(1876.605469 0)"/>
      <use xlink:href="#Arial-BoldMT-6c" transform="translate(1932.220703 0)"/>
      <use xlink:href="#Arial-BoldMT-75" transform="translate(1960.003906 0)"/>
      <use xlink:href="#Arial-BoldMT-65" transform="translate(2021.087891 0)"/>
      <use xlink:href="#Arial-BoldMT-29" transform="translate(2076.703125 0)"/>
     </g>
    </g>
   </g>
   <g id="matplotlib.axis_2">
    <g id="ytick_1">
     <g id="line2d_7">
      <path d="M 160.595469 557.657915 
L 840.255469 557.657915 
" clip-path="url(#pf6a25b85c8)" style="fill: none; stroke: #cccccc; stroke-width: 0.8; stroke-linecap: round"/>
     </g>
     <g id="text_8">
      <!-- Months in France -->
      <g style="fill: #262626" transform="translate(68.620469 561.594712) scale(0.11 -0.11)">
       <defs>
        <path id="ArialMT-4d" d="M 475 0 
L 475 4581 
L 1388 4581 
L 2472 1338 
Q 2622 884 2691 659 
Q 2769 909 2934 1394 
L 4031 4581 
L 4847 4581 
L 4847 0 
L 4263 0 
L 4263 3834 
L 2931 0 
L 2384 0 
L 1059 3900 
L 1059 0 
L 475 0 
z
" transform="scale(0.015625)"/>
        <path id="ArialMT-6f" d="M 213 1659 
Q 213 2581 725 3025 
Q 1153 3394 1769 3394 
Q 2453 3394 2887 2945 
Q 3322 2497 3322 1706 
Q 3322 1066 3130 698 
Q 2938 331 2570 128 
Q 2203 -75 1769 -75 
Q 1072 -75 642 372 
Q 213 819 213 1659 
z
M 791 1659 
Q 791 1022 1069 705 
Q 1347 388 1769 388 
Q 2188 388 2466 706 
Q 2744 1025 2744 1678 
Q 2744 2294 2464 2611 
Q 2184 2928 1769 2928 
Q 1347 2928 1069 2612 
Q 791 2297 791 1659 
z
" transform="scale(0.015625)"/>
        <path id="ArialMT-6e" d="M 422 0 
L 422 3319 
L 928 3319 
L 928 2847 
Q 1294 3394 1984 3394 
Q 2284 3394 2536 3286 
Q 2788 3178 2913 3003 
Q 3038 2828 3088 2588 
Q 3119 2431 3119 2041 
L 3119 0 
L 2556 0 
L 2556 2019 
Q 2556 2363 2490 2533 
Q 2425 2703 2258 2804 
Q 2091 2906 1866 2906 
Q 1506 2906 1245 2678 
Q 984 2450 984 1813 
L 984 0 
L 422 0 
z
" transform="scale(0.015625)"/>
        <path id="ArialMT-74" d="M 1650 503 
L 1731 6 
Q 1494 -44 1306 -44 
Q 1000 -44 831 53 
Q 663 150 594 308 
Q 525 466 525 972 
L 525 2881 
L 113 2881 
L 113 3319 
L 525 3319 
L 525 4141 
L 1084 4478 
L 1084 3319 
L 1650 3319 
L 1650 2881 
L 1084 2881 
L 1084 941 
Q 1084 700 1114 631 
Q 1144 563 1211 522 
Q 1278 481 1403 481 
Q 1497 481 1650 503 
z
" transform="scale(0.015625)"/>
        <path id="ArialMT-68" d="M 422 0 
L 422 4581 
L 984 4581 
L 984 2938 
Q 1378 3394 1978 3394 
Q 2347 3394 2619 3248 
Q 2891 3103 3008 2847 
Q 3125 2591 3125 2103 
L 3125 0 
L 2563 0 
L 2563 2103 
Q 2563 2525 2380 2717 
Q 2197 2909 1863 2909 
Q 1613 2909 1392 2779 
Q 1172 2650 1078 2428 
Q 984 2206 984 1816 
L 984 0 
L 422 0 
z
" transform="scale(0.015625)"/>
        <path id="ArialMT-73" d="M 197 991 
L 753 1078 
Q 800 744 1014 566 
Q 1228 388 1613 388 
Q 2000 388 2187 545 
Q 2375 703 2375 916 
Q 2375 1106 2209 1216 
Q 2094 1291 1634 1406 
Q 1016 1563 777 1677 
Q 538 1791 414 1992 
Q 291 2194 291 2438 
Q 291 2659 392 2848 
Q 494 3038 669 3163 
Q 800 3259 1026 3326 
Q 1253 3394 1513 3394 
Q 1903 3394 2198 3281 
Q 2494 3169 2634 2976 
Q 2775 2784 2828 2463 
L 2278 2388 
Q 2241 2644 2061 2787 
Q 1881 2931 1553 2931 
Q 1166 2931 1000 2803 
Q 834 2675 834 2503 
Q 834 2394 903 2306 
Q 972 2216 1119 2156 
Q 1203 2125 1616 2013 
Q 2213 1853 2448 1751 
Q 2684 1650 2818 1456 
Q 2953 1263 2953 975 
Q 2953 694 2789 445 
Q 2625 197 2315 61 
Q 2006 -75 1616 -75 
Q 969 -75 630 194 
Q 291 463 197 991 
z
" transform="scale(0.015625)"/>
        <path id="ArialMT-20" transform="scale(0.015625)"/>
        <path id="ArialMT-69" d="M 425 3934 
L 425 4581 
L 988 4581 
L 988 3934 
L 425 3934 
z
M 425 0 
L 425 3319 
L 988 3319 
L 988 0 
L 425 0 
z
" transform="scale(0.015625)"/>
        <path id="ArialMT-46" d="M 525 0 
L 525 4581 
L 3616 4581 
L 3616 4041 
L 1131 4041 
L 1131 2622 
L 3281 2622 
L 3281 2081 
L 1131 2081 
L 1131 0 
L 525 0 
z
" transform="scale(0.015625)"/>
        <path id="ArialMT-72" d="M 416 0 
L 416 3319 
L 922 3319 
L 922 2816 
Q 1116 3169 1280 3281 
Q 1444 3394 1641 3394 
Q 1925 3394 2219 3213 
L 2025 2691 
Q 1819 2813 1613 2813 
Q 1428 2813 1281 2702 
Q 1134 2591 1072 2394 
Q 978 2094 978 1738 
L 978 0 
L 416 0 
z
" transform="scale(0.015625)"/>
        <path id="ArialMT-61" d="M 2588 409 
Q 2275 144 1986 34 
Q 1697 -75 1366 -75 
Q 819 -75 525 192 
Q 231 459 231 875 
Q 231 1119 342 1320 
Q 453 1522 633 1644 
Q 813 1766 1038 1828 
Q 1203 1872 1538 1913 
Q 2219 1994 2541 2106 
Q 2544 2222 2544 2253 
Q 2544 2597 2384 2738 
Q 2169 2928 1744 2928 
Q 1347 2928 1158 2789 
Q 969 2650 878 2297 
L 328 2372 
Q 403 2725 575 2942 
Q 747 3159 1072 3276 
Q 1397 3394 1825 3394 
Q 2250 3394 2515 3294 
Q 2781 3194 2906 3042 
Q 3031 2891 3081 2659 
Q 3109 2516 3109 2141 
L 3109 1391 
Q 3109 606 3145 398 
Q 3181 191 3288 0 
L 2700 0 
Q 2613 175 2588 409 
z
M 2541 1666 
Q 2234 1541 1622 1453 
Q 1275 1403 1131 1340 
Q 988 1278 909 1158 
Q 831 1038 831 891 
Q 831 666 1001 516 
Q 1172 366 1500 366 
Q 1825 366 2078 508 
Q 2331 650 2450 897 
Q 2541 1088 2541 1459 
L 2541 1666 
z
" transform="scale(0.015625)"/>
        <path id="ArialMT-63" d="M 2588 1216 
L 3141 1144 
Q 3050 572 2676 248 
Q 2303 -75 1759 -75 
Q 1078 -75 664 370 
Q 250 816 250 1647 
Q 250 2184 428 2587 
Q 606 2991 970 3192 
Q 1334 3394 1763 3394 
Q 2303 3394 2647 3120 
Q 2991 2847 3088 2344 
L 2541 2259 
Q 2463 2594 2264 2762 
Q 2066 2931 1784 2931 
Q 1359 2931 1093 2626 
Q 828 2322 828 1663 
Q 828 994 1084 691 
Q 1341 388 1753 388 
Q 2084 388 2306 591 
Q 2528 794 2588 1216 
z
" transform="scale(0.015625)"/>
        <path id="ArialMT-65" d="M 2694 1069 
L 3275 997 
Q 3138 488 2766 206 
Q 2394 -75 1816 -75 
Q 1088 -75 661 373 
Q 234 822 234 1631 
Q 234 2469 665 2931 
Q 1097 3394 1784 3394 
Q 2450 3394 2872 2941 
Q 3294 2488 3294 1666 
Q 3294 1616 3291 1516 
L 816 1516 
Q 847 969 1125 678 
Q 1403 388 1819 388 
Q 2128 388 2347 550 
Q 2566 713 2694 1069 
z
M 847 1978 
L 2700 1978 
Q 2663 2397 2488 2606 
Q 2219 2931 1791 2931 
Q 1403 2931 1139 2672 
Q 875 2413 847 1978 
z
" transform="scale(0.015625)"/>
       </defs>
       <use xlink:href="#ArialMT-4d"/>
       <use xlink:href="#ArialMT-6f" transform="translate(83.300781 0)"/>
       <use xlink:href="#ArialMT-6e" transform="translate(138.916016 0)"/>
       <use xlink:href="#ArialMT-74" transform="translate(194.53125 0)"/>
       <use xlink:href="#ArialMT-68" transform="translate(222.314453 0)"/>
       <use xlink:href="#ArialMT-73" transform="translate(277.929688 0)"/>
       <use xlink:href="#ArialMT-20" transform="translate(327.929688 0)"/>
       <use xlink:href="#ArialMT-69" transform="translate(355.712891 0)"/>
       <use xlink:href="#ArialMT-6e" transform="translate(377.929688 0)"/>
       <use xlink:href="#ArialMT-20" transform="translate(433.544922 0)"/>
       <use xlink:href="#ArialMT-46" transform="translate(461.328125 0)"/>
       <use xlink:href="#ArialMT-72" transform="translate(522.412109 0)"/>
       <use xlink:href="#ArialMT-61" transform="translate(555.712891 0)"/>
       <use xlink:href="#ArialMT-6e" transform="translate(611.328125 0)"/>
       <use xlink:href="#ArialMT-63" transform="translate(666.943359 0)"/>
       <use xlink:href="#ArialMT-65" transform="translate(716.943359 0)"/>
      </g>
     </g>
    </g>
    <g id="ytick_2">
     <g id="line2d_8">
      <path d="M 160.595469 513.586334 
L 840.255469 513.586334 
" clip-path="url(#pf6a25b85c8)" style="fill: none; stroke: #cccccc; stroke-width: 0.8; stroke-linecap: round"/>
     </g>
     <g id="text_9">
      <!-- Autonomy -->
      <g style="fill: #262626" transform="translate(104.071406 517.523131) scale(0.11 -0.11)">
       <defs>
        <path id="ArialMT-41" d="M -9 0 
L 1750 4581 
L 2403 4581 
L 4278 0 
L 3588 0 
L 3053 1388 
L 1138 1388 
L 634 0 
L -9 0 
z
M 1313 1881 
L 2866 1881 
L 2388 3150 
Q 2169 3728 2063 4100 
Q 1975 3659 1816 3225 
L 1313 1881 
z
" transform="scale(0.015625)"/>
        <path id="ArialMT-75" d="M 2597 0 
L 2597 488 
Q 2209 -75 1544 -75 
Q 1250 -75 995 37 
Q 741 150 617 320 
Q 494 491 444 738 
Q 409 903 409 1263 
L 409 3319 
L 972 3319 
L 972 1478 
Q 972 1038 1006 884 
Q 1059 663 1231 536 
Q 1403 409 1656 409 
Q 1909 409 2131 539 
Q 2353 669 2445 892 
Q 2538 1116 2538 1541 
L 2538 3319 
L 3100 3319 
L 3100 0 
L 2597 0 
z
" transform="scale(0.015625)"/>
        <path id="ArialMT-6d" d="M 422 0 
L 422 3319 
L 925 3319 
L 925 2853 
Q 1081 3097 1340 3245 
Q 1600 3394 1931 3394 
Q 2300 3394 2536 3241 
Q 2772 3088 2869 2813 
Q 3263 3394 3894 3394 
Q 4388 3394 4653 3120 
Q 4919 2847 4919 2278 
L 4919 0 
L 4359 0 
L 4359 2091 
Q 4359 2428 4304 2576 
Q 4250 2725 4106 2815 
Q 3963 2906 3769 2906 
Q 3419 2906 3187 2673 
Q 2956 2441 2956 1928 
L 2956 0 
L 2394 0 
L 2394 2156 
Q 2394 2531 2256 2718 
Q 2119 2906 1806 2906 
Q 1569 2906 1367 2781 
Q 1166 2656 1075 2415 
Q 984 2175 984 1722 
L 984 0 
L 422 0 
z
" transform="scale(0.015625)"/>
        <path id="ArialMT-79" d="M 397 -1278 
L 334 -750 
Q 519 -800 656 -800 
Q 844 -800 956 -737 
Q 1069 -675 1141 -563 
Q 1194 -478 1313 -144 
Q 1328 -97 1363 -6 
L 103 3319 
L 709 3319 
L 1400 1397 
Q 1534 1031 1641 628 
Q 1738 1016 1872 1384 
L 2581 3319 
L 3144 3319 
L 1881 -56 
Q 1678 -603 1566 -809 
Q 1416 -1088 1222 -1217 
Q 1028 -1347 759 -1347 
Q 597 -1347 397 -1278 
z
" transform="scale(0.015625)"/>
       </defs>
       <use xlink:href="#ArialMT-41"/>
       <use xlink:href="#ArialMT-75" transform="translate(66.699219 0)"/>
       <use xlink:href="#ArialMT-74" transform="translate(122.314453 0)"/>
       <use xlink:href="#ArialMT-6f" transform="translate(150.097656 0)"/>
       <use xlink:href="#ArialMT-6e" transform="translate(205.712891 0)"/>
       <use xlink:href="#ArialMT-6f" transform="translate(261.328125 0)"/>
       <use xlink:href="#ArialMT-6d" transform="translate(316.943359 0)"/>
       <use xlink:href="#ArialMT-79" transform="translate(400.244141 0)"/>
      </g>
     </g>
    </g>
    <g id="ytick_3">
     <g id="line2d_9">
      <path d="M 160.595469 469.514753 
L 840.255469 469.514753 
" clip-path="url(#pf6a25b85c8)" style="fill: none; stroke: #cccccc; stroke-width: 0.8; stroke-linecap: round"/>
     </g>
     <g id="text_10">
      <!-- Social Maintenance -->
      <g style="fill: #262626" transform="translate(57.598125 473.45155) scale(0.11 -0.11)">
       <defs>
        <path id="ArialMT-53" d="M 288 1472 
L 859 1522 
Q 900 1178 1048 958 
Q 1197 738 1509 602 
Q 1822 466 2213 466 
Q 2559 466 2825 569 
Q 3091 672 3220 851 
Q 3350 1031 3350 1244 
Q 3350 1459 3225 1620 
Q 3100 1781 2813 1891 
Q 2628 1963 1997 2114 
Q 1366 2266 1113 2400 
Q 784 2572 623 2826 
Q 463 3081 463 3397 
Q 463 3744 659 4045 
Q 856 4347 1234 4503 
Q 1613 4659 2075 4659 
Q 2584 4659 2973 4495 
Q 3363 4331 3572 4012 
Q 3781 3694 3797 3291 
L 3216 3247 
Q 3169 3681 2898 3903 
Q 2628 4125 2100 4125 
Q 1550 4125 1298 3923 
Q 1047 3722 1047 3438 
Q 1047 3191 1225 3031 
Q 1400 2872 2139 2705 
Q 2878 2538 3153 2413 
Q 3553 2228 3743 1945 
Q 3934 1663 3934 1294 
Q 3934 928 3725 604 
Q 3516 281 3123 101 
Q 2731 -78 2241 -78 
Q 1619 -78 1198 103 
Q 778 284 539 648 
Q 300 1013 288 1472 
z
" transform="scale(0.015625)"/>
        <path id="ArialMT-6c" d="M 409 0 
L 409 4581 
L 972 4581 
L 972 0 
L 409 0 
z
" transform="scale(0.015625)"/>
       </defs>
       <use xlink:href="#ArialMT-53"/>
       <use xlink:href="#ArialMT-6f" transform="translate(66.699219 0)"/>
       <use xlink:href="#ArialMT-63" transform="translate(122.314453 0)"/>
       <use xlink:href="#ArialMT-69" transform="translate(172.314453 0)"/>
       <use xlink:href="#ArialMT-61" transform="translate(194.53125 0)"/>
       <use xlink:href="#ArialMT-6c" transform="translate(250.146484 0)"/>
       <use xlink:href="#ArialMT-20" transform="translate(272.363281 0)"/>
       <use xlink:href="#ArialMT-4d" transform="translate(300.146484 0)"/>
       <use xlink:href="#ArialMT-61" transform="translate(383.447266 0)"/>
       <use xlink:href="#ArialMT-69" transform="translate(439.0625 0)"/>
       <use xlink:href="#ArialMT-6e" transform="translate(461.279297 0)"/>
       <use xlink:href="#ArialMT-74" transform="translate(516.894531 0)"/>
       <use xlink:href="#ArialMT-65" transform="translate(544.677734 0)"/>
       <use xlink:href="#ArialMT-6e" transform="translate(600.292969 0)"/>
       <use xlink:href="#ArialMT-61" transform="translate(655.908203 0)"/>
       <use xlink:href="#ArialMT-6e" transform="translate(711.523438 0)"/>
       <use xlink:href="#ArialMT-63" transform="translate(767.138672 0)"/>
       <use xlink:href="#ArialMT-65" transform="translate(817.138672 0)"/>
      </g>
     </g>
    </g>
    <g id="ytick_4">
     <g id="line2d_10">
      <path d="M 160.595469 425.443172 
L 840.255469 425.443172 
" clip-path="url(#pf6a25b85c8)" style="fill: none; stroke: #cccccc; stroke-width: 0.8; stroke-linecap: round"/>
     </g>
     <g id="text_11">
      <!-- Communication Honesty -->
      <g style="fill: #262626" transform="translate(33.772813 429.447) scale(0.11 -0.11)">
       <defs>
        <path id="ArialMT-43" d="M 3763 1606 
L 4369 1453 
Q 4178 706 3683 314 
Q 3188 -78 2472 -78 
Q 1731 -78 1267 223 
Q 803 525 561 1097 
Q 319 1669 319 2325 
Q 319 3041 592 3573 
Q 866 4106 1370 4382 
Q 1875 4659 2481 4659 
Q 3169 4659 3637 4309 
Q 4106 3959 4291 3325 
L 3694 3184 
Q 3534 3684 3231 3912 
Q 2928 4141 2469 4141 
Q 1941 4141 1586 3887 
Q 1231 3634 1087 3207 
Q 944 2781 944 2328 
Q 944 1744 1114 1308 
Q 1284 872 1643 656 
Q 2003 441 2422 441 
Q 2931 441 3284 734 
Q 3638 1028 3763 1606 
z
" transform="scale(0.015625)"/>
        <path id="ArialMT-48" d="M 513 0 
L 513 4581 
L 1119 4581 
L 1119 2700 
L 3500 2700 
L 3500 4581 
L 4106 4581 
L 4106 0 
L 3500 0 
L 3500 2159 
L 1119 2159 
L 1119 0 
L 513 0 
z
" transform="scale(0.015625)"/>
       </defs>
       <use xlink:href="#ArialMT-43"/>
       <use xlink:href="#ArialMT-6f" transform="translate(72.216797 0)"/>
       <use xlink:href="#ArialMT-6d" transform="translate(127.832031 0)"/>
       <use xlink:href="#ArialMT-6d" transform="translate(211.132812 0)"/>
       <use xlink:href="#ArialMT-75" transform="translate(294.433594 0)"/>
       <use xlink:href="#ArialMT-6e" transform="translate(350.048828 0)"/>
       <use xlink:href="#ArialMT-69" transform="translate(405.664062 0)"/>
       <use xlink:href="#ArialMT-63" transform="translate(427.880859 0)"/>
       <use xlink:href="#ArialMT-61" transform="translate(477.880859 0)"/>
       <use xlink:href="#ArialMT-74" transform="translate(533.496094 0)"/>
       <use xlink:href="#ArialMT-69" transform="translate(561.279297 0)"/>
       <use xlink:href="#ArialMT-6f" transform="translate(583.496094 0)"/>
       <use xlink:href="#ArialMT-6e" transform="translate(639.111328 0)"/>
       <use xlink:href="#ArialMT-20" transform="translate(694.726562 0)"/>
       <use xlink:href="#ArialMT-48" transform="translate(722.509766 0)"/>
       <use xlink:href="#ArialMT-6f" transform="translate(794.726562 0)"/>
       <use xlink:href="#ArialMT-6e" transform="translate(850.341797 0)"/>
       <use xlink:href="#ArialMT-65" transform="translate(905.957031 0)"/>
       <use xlink:href="#ArialMT-73" transform="translate(961.572266 0)"/>
       <use xlink:href="#ArialMT-74" transform="translate(1011.572266 0)"/>
       <use xlink:href="#ArialMT-79" transform="translate(1039.355469 0)"/>
      </g>
     </g>
    </g>
    <g id="ytick_5">
     <g id="line2d_11">
      <path d="M 160.595469 381.371591 
L 840.255469 381.371591 
" clip-path="url(#pf6a25b85c8)" style="fill: none; stroke: #cccccc; stroke-width: 0.8; stroke-linecap: round"/>
     </g>
     <g id="text_12">
      <!-- Communication Frequency -->
      <g style="fill: #262626" transform="translate(22.1575 385.375419) scale(0.11 -0.11)">
       <defs>
        <path id="ArialMT-71" d="M 2538 -1272 
L 2538 353 
Q 2406 169 2170 47 
Q 1934 -75 1669 -75 
Q 1078 -75 651 397 
Q 225 869 225 1691 
Q 225 2191 398 2587 
Q 572 2984 901 3189 
Q 1231 3394 1625 3394 
Q 2241 3394 2594 2875 
L 2594 3319 
L 3100 3319 
L 3100 -1272 
L 2538 -1272 
z
M 803 1669 
Q 803 1028 1072 708 
Q 1341 388 1716 388 
Q 2075 388 2334 692 
Q 2594 997 2594 1619 
Q 2594 2281 2320 2615 
Q 2047 2950 1678 2950 
Q 1313 2950 1058 2639 
Q 803 2328 803 1669 
z
" transform="scale(0.015625)"/>
       </defs>
       <use xlink:href="#ArialMT-43"/>
       <use xlink:href="#ArialMT-6f" transform="translate(72.216797 0)"/>
       <use xlink:href="#ArialMT-6d" transform="translate(127.832031 0)"/>
       <use xlink:href="#ArialMT-6d" transform="translate(211.132812 0)"/>
       <use xlink:href="#ArialMT-75" transform="translate(294.433594 0)"/>
       <use xlink:href="#ArialMT-6e" transform="translate(350.048828 0)"/>
       <use xlink:href="#ArialMT-69" transform="translate(405.664062 0)"/>
       <use xlink:href="#ArialMT-63" transform="translate(427.880859 0)"/>
       <use xlink:href="#ArialMT-61" transform="translate(477.880859 0)"/>
       <use xlink:href="#ArialMT-74" transform="translate(533.496094 0)"/>
       <use xlink:href="#ArialMT-69" transform="translate(561.279297 0)"/>
       <use xlink:href="#ArialMT-6f" transform="translate(583.496094 0)"/>
       <use xlink:href="#ArialMT-6e" transform="translate(639.111328 0)"/>
       <use xlink:href="#ArialMT-20" transform="translate(694.726562 0)"/>
       <use xlink:href="#ArialMT-46" transform="translate(722.509766 0)"/>
       <use xlink:href="#ArialMT-72" transform="translate(783.59375 0)"/>
       <use xlink:href="#ArialMT-65" transform="translate(816.894531 0)"/>
       <use xlink:href="#ArialMT-71" transform="translate(872.509766 0)"/>
       <use xlink:href="#ArialMT-75" transform="translate(928.125 0)"/>
       <use xlink:href="#ArialMT-65" transform="translate(983.740234 0)"/>
       <use xlink:href="#ArialMT-6e" transform="translate(1039.355469 0)"/>
       <use xlink:href="#ArialMT-63" transform="translate(1094.970703 0)"/>
       <use xlink:href="#ArialMT-79" transform="translate(1144.970703 0)"/>
      </g>
     </g>
    </g>
    <g id="ytick_6">
     <g id="line2d_12">
      <path d="M 160.595469 337.300009 
L 840.255469 337.300009 
" clip-path="url(#pf6a25b85c8)" style="fill: none; stroke: #cccccc; stroke-width: 0.8; stroke-linecap: round"/>
     </g>
     <g id="text_13">
      <!-- Months in HK -->
      <g style="fill: #262626" transform="translate(87.571406 341.236806) scale(0.11 -0.11)">
       <defs>
        <path id="ArialMT-4b" d="M 469 0 
L 469 4581 
L 1075 4581 
L 1075 2309 
L 3350 4581 
L 4172 4581 
L 2250 2725 
L 4256 0 
L 3456 0 
L 1825 2319 
L 1075 1588 
L 1075 0 
L 469 0 
z
" transform="scale(0.015625)"/>
       </defs>
       <use xlink:href="#ArialMT-4d"/>
       <use xlink:href="#ArialMT-6f" transform="translate(83.300781 0)"/>
       <use xlink:href="#ArialMT-6e" transform="translate(138.916016 0)"/>
       <use xlink:href="#ArialMT-74" transform="translate(194.53125 0)"/>
       <use xlink:href="#ArialMT-68" transform="translate(222.314453 0)"/>
       <use xlink:href="#ArialMT-73" transform="translate(277.929688 0)"/>
       <use xlink:href="#ArialMT-20" transform="translate(327.929688 0)"/>
       <use xlink:href="#ArialMT-69" transform="translate(355.712891 0)"/>
       <use xlink:href="#ArialMT-6e" transform="translate(377.929688 0)"/>
       <use xlink:href="#ArialMT-20" transform="translate(433.544922 0)"/>
       <use xlink:href="#ArialMT-48" transform="translate(461.328125 0)"/>
       <use xlink:href="#ArialMT-4b" transform="translate(533.544922 0)"/>
      </g>
     </g>
    </g>
    <g id="ytick_7">
     <g id="line2d_13">
      <path d="M 160.595469 293.228428 
L 840.255469 293.228428 
" clip-path="url(#pf6a25b85c8)" style="fill: none; stroke: #cccccc; stroke-width: 0.8; stroke-linecap: round"/>
     </g>
     <g id="text_14">
      <!-- Cultural Maintenance -->
      <g style="fill: #262626" transform="translate(49.655781 297.165225) scale(0.11 -0.11)">
       <use xlink:href="#ArialMT-43"/>
       <use xlink:href="#ArialMT-75" transform="translate(72.216797 0)"/>
       <use xlink:href="#ArialMT-6c" transform="translate(127.832031 0)"/>
       <use xlink:href="#ArialMT-74" transform="translate(150.048828 0)"/>
       <use xlink:href="#ArialMT-75" transform="translate(177.832031 0)"/>
       <use xlink:href="#ArialMT-72" transform="translate(233.447266 0)"/>
       <use xlink:href="#ArialMT-61" transform="translate(266.748047 0)"/>
       <use xlink:href="#ArialMT-6c" transform="translate(322.363281 0)"/>
       <use xlink:href="#ArialMT-20" transform="translate(344.580078 0)"/>
       <use xlink:href="#ArialMT-4d" transform="translate(372.363281 0)"/>
       <use xlink:href="#ArialMT-61" transform="translate(455.664062 0)"/>
       <use xlink:href="#ArialMT-69" transform="translate(511.279297 0)"/>
       <use xlink:href="#ArialMT-6e" transform="translate(533.496094 0)"/>
       <use xlink:href="#ArialMT-74" transform="translate(589.111328 0)"/>
       <use xlink:href="#ArialMT-65" transform="translate(616.894531 0)"/>
       <use xlink:href="#ArialMT-6e" transform="translate(672.509766 0)"/>
       <use xlink:href="#ArialMT-61" transform="translate(728.125 0)"/>
       <use xlink:href="#ArialMT-6e" transform="translate(783.740234 0)"/>
       <use xlink:href="#ArialMT-63" transform="translate(839.355469 0)"/>
       <use xlink:href="#ArialMT-65" transform="translate(889.355469 0)"/>
      </g>
     </g>
    </g>
    <g id="ytick_8">
     <g id="line2d_14">
      <path d="M 160.595469 249.156847 
L 840.255469 249.156847 
" clip-path="url(#pf6a25b85c8)" style="fill: none; stroke: #cccccc; stroke-width: 0.8; stroke-linecap: round"/>
     </g>
     <g id="text_15">
      <!-- Family Support -->
      <g style="fill: #262626" transform="translate(79.629063 253.160675) scale(0.11 -0.11)">
       <defs>
        <path id="ArialMT-70" d="M 422 -1272 
L 422 3319 
L 934 3319 
L 934 2888 
Q 1116 3141 1344 3267 
Q 1572 3394 1897 3394 
Q 2322 3394 2647 3175 
Q 2972 2956 3137 2557 
Q 3303 2159 3303 1684 
Q 3303 1175 3120 767 
Q 2938 359 2589 142 
Q 2241 -75 1856 -75 
Q 1575 -75 1351 44 
Q 1128 163 984 344 
L 984 -1272 
L 422 -1272 
z
M 931 1641 
Q 931 1000 1190 694 
Q 1450 388 1819 388 
Q 2194 388 2461 705 
Q 2728 1022 2728 1688 
Q 2728 2322 2467 2637 
Q 2206 2953 1844 2953 
Q 1484 2953 1207 2617 
Q 931 2281 931 1641 
z
" transform="scale(0.015625)"/>
       </defs>
       <use xlink:href="#ArialMT-46"/>
       <use xlink:href="#ArialMT-61" transform="translate(61.083984 0)"/>
       <use xlink:href="#ArialMT-6d" transform="translate(116.699219 0)"/>
       <use xlink:href="#ArialMT-69" transform="translate(200 0)"/>
       <use xlink:href="#ArialMT-6c" transform="translate(222.216797 0)"/>
       <use xlink:href="#ArialMT-79" transform="translate(244.433594 0)"/>
       <use xlink:href="#ArialMT-20" transform="translate(294.433594 0)"/>
       <use xlink:href="#ArialMT-53" transform="translate(322.216797 0)"/>
       <use xlink:href="#ArialMT-75" transform="translate(388.916016 0)"/>
       <use xlink:href="#ArialMT-70" transform="translate(444.53125 0)"/>
       <use xlink:href="#ArialMT-70" transform="translate(500.146484 0)"/>
       <use xlink:href="#ArialMT-6f" transform="translate(555.761719 0)"/>
       <use xlink:href="#ArialMT-72" transform="translate(611.376953 0)"/>
       <use xlink:href="#ArialMT-74" transform="translate(644.677734 0)"/>
      </g>
     </g>
    </g>
    <g id="ytick_9">
     <g id="line2d_15">
      <path d="M 160.595469 205.085266 
L 840.255469 205.085266 
" clip-path="url(#pf6a25b85c8)" style="fill: none; stroke: #cccccc; stroke-width: 0.8; stroke-linecap: round"/>
     </g>
     <g id="text_16">
      <!-- Openness -->
      <g style="fill: #262626" transform="translate(103.454375 209.092531) scale(0.11 -0.11)">
       <defs>
        <path id="ArialMT-4f" d="M 309 2231 
Q 309 3372 921 4017 
Q 1534 4663 2503 4663 
Q 3138 4663 3647 4359 
Q 4156 4056 4423 3514 
Q 4691 2972 4691 2284 
Q 4691 1588 4409 1038 
Q 4128 488 3612 205 
Q 3097 -78 2500 -78 
Q 1853 -78 1343 234 
Q 834 547 571 1087 
Q 309 1628 309 2231 
z
M 934 2222 
Q 934 1394 1379 917 
Q 1825 441 2497 441 
Q 3181 441 3623 922 
Q 4066 1403 4066 2288 
Q 4066 2847 3877 3264 
Q 3688 3681 3323 3911 
Q 2959 4141 2506 4141 
Q 1863 4141 1398 3698 
Q 934 3256 934 2222 
z
" transform="scale(0.015625)"/>
       </defs>
       <use xlink:href="#ArialMT-4f"/>
       <use xlink:href="#ArialMT-70" transform="translate(77.783203 0)"/>
       <use xlink:href="#ArialMT-65" transform="translate(133.398438 0)"/>
       <use xlink:href="#ArialMT-6e" transform="translate(189.013672 0)"/>
       <use xlink:href="#ArialMT-6e" transform="translate(244.628906 0)"/>
       <use xlink:href="#ArialMT-65" transform="translate(300.244141 0)"/>
       <use xlink:href="#ArialMT-73" transform="translate(355.859375 0)"/>
       <use xlink:href="#ArialMT-73" transform="translate(405.859375 0)"/>
      </g>
     </g>
    </g>
    <g id="ytick_10">
     <g id="line2d_16">
      <path d="M 160.595469 161.013685 
L 840.255469 161.013685 
" clip-path="url(#pf6a25b85c8)" style="fill: none; stroke: #cccccc; stroke-width: 0.8; stroke-linecap: round"/>
     </g>
     <g id="text_17">
      <!-- Cultural Contact -->
      <g style="fill: #262626" transform="translate(74.730625 164.950481) scale(0.11 -0.11)">
       <use xlink:href="#ArialMT-43"/>
       <use xlink:href="#ArialMT-75" transform="translate(72.216797 0)"/>
       <use xlink:href="#ArialMT-6c" transform="translate(127.832031 0)"/>
       <use xlink:href="#ArialMT-74" transform="translate(150.048828 0)"/>
       <use xlink:href="#ArialMT-75" transform="translate(177.832031 0)"/>
       <use xlink:href="#ArialMT-72" transform="translate(233.447266 0)"/>
       <use xlink:href="#ArialMT-61" transform="translate(266.748047 0)"/>
       <use xlink:href="#ArialMT-6c" transform="translate(322.363281 0)"/>
       <use xlink:href="#ArialMT-20" transform="translate(344.580078 0)"/>
       <use xlink:href="#ArialMT-43" transform="translate(372.363281 0)"/>
       <use xlink:href="#ArialMT-6f" transform="translate(444.580078 0)"/>
       <use xlink:href="#ArialMT-6e" transform="translate(500.195312 0)"/>
       <use xlink:href="#ArialMT-74" transform="translate(555.810547 0)"/>
       <use xlink:href="#ArialMT-61" transform="translate(583.59375 0)"/>
       <use xlink:href="#ArialMT-63" transform="translate(639.208984 0)"/>
       <use xlink:href="#ArialMT-74" transform="translate(689.208984 0)"/>
      </g>
     </g>
    </g>
    <g id="ytick_11">
     <g id="line2d_17">
      <path d="M 160.595469 116.942103 
L 840.255469 116.942103 
" clip-path="url(#pf6a25b85c8)" style="fill: none; stroke: #cccccc; stroke-width: 0.8; stroke-linecap: round"/>
     </g>
     <g id="text_18">
      <!-- Social Contact -->
      <g style="fill: #262626" transform="translate(82.672969 120.8789) scale(0.11 -0.11)">
       <use xlink:href="#ArialMT-53"/>
       <use xlink:href="#ArialMT-6f" transform="translate(66.699219 0)"/>
       <use xlink:href="#ArialMT-63" transform="translate(122.314453 0)"/>
       <use xlink:href="#ArialMT-69" transform="translate(172.314453 0)"/>
       <use xlink:href="#ArialMT-61" transform="translate(194.53125 0)"/>
       <use xlink:href="#ArialMT-6c" transform="translate(250.146484 0)"/>
       <use xlink:href="#ArialMT-20" transform="translate(272.363281 0)"/>
       <use xlink:href="#ArialMT-43" transform="translate(300.146484 0)"/>
       <use xlink:href="#ArialMT-6f" transform="translate(372.363281 0)"/>
       <use xlink:href="#ArialMT-6e" transform="translate(427.978516 0)"/>
       <use xlink:href="#ArialMT-74" transform="translate(483.59375 0)"/>
       <use xlink:href="#ArialMT-61" transform="translate(511.376953 0)"/>
       <use xlink:href="#ArialMT-63" transform="translate(566.992188 0)"/>
       <use xlink:href="#ArialMT-74" transform="translate(616.992188 0)"/>
      </g>
     </g>
    </g>
    <g id="ytick_12">
     <g id="line2d_18">
      <path d="M 160.595469 72.870522 
L 840.255469 72.870522 
" clip-path="url(#pf6a25b85c8)" style="fill: none; stroke: #cccccc; stroke-width: 0.8; stroke-linecap: round"/>
     </g>
     <g id="text_19">
      <!-- Social Connectedness -->
      <g style="fill: #262626" transform="translate(44.14375 76.807319) scale(0.11 -0.11)">
       <defs>
        <path id="ArialMT-64" d="M 2575 0 
L 2575 419 
Q 2259 -75 1647 -75 
Q 1250 -75 917 144 
Q 584 363 401 755 
Q 219 1147 219 1656 
Q 219 2153 384 2558 
Q 550 2963 881 3178 
Q 1213 3394 1622 3394 
Q 1922 3394 2156 3267 
Q 2391 3141 2538 2938 
L 2538 4581 
L 3097 4581 
L 3097 0 
L 2575 0 
z
M 797 1656 
Q 797 1019 1065 703 
Q 1334 388 1700 388 
Q 2069 388 2326 689 
Q 2584 991 2584 1609 
Q 2584 2291 2321 2609 
Q 2059 2928 1675 2928 
Q 1300 2928 1048 2622 
Q 797 2316 797 1656 
z
" transform="scale(0.015625)"/>
       </defs>
       <use xlink:href="#ArialMT-53"/>
       <use xlink:href="#ArialMT-6f" transform="translate(66.699219 0)"/>
       <use xlink:href="#ArialMT-63" transform="translate(122.314453 0)"/>
       <use xlink:href="#ArialMT-69" transform="translate(172.314453 0)"/>
       <use xlink:href="#ArialMT-61" transform="translate(194.53125 0)"/>
       <use xlink:href="#ArialMT-6c" transform="translate(250.146484 0)"/>
       <use xlink:href="#ArialMT-20" transform="translate(272.363281 0)"/>
       <use xlink:href="#ArialMT-43" transform="translate(300.146484 0)"/>
       <use xlink:href="#ArialMT-6f" transform="translate(372.363281 0)"/>
       <use xlink:href="#ArialMT-6e" transform="translate(427.978516 0)"/>
       <use xlink:href="#ArialMT-6e" transform="translate(483.59375 0)"/>
       <use xlink:href="#ArialMT-65" transform="translate(539.208984 0)"/>
       <use xlink:href="#ArialMT-63" transform="translate(594.824219 0)"/>
       <use xlink:href="#ArialMT-74" transform="translate(644.824219 0)"/>
       <use xlink:href="#ArialMT-65" transform="translate(672.607422 0)"/>
       <use xlink:href="#ArialMT-64" transform="translate(728.222656 0)"/>
       <use xlink:href="#ArialMT-6e" transform="translate(783.837891 0)"/>
       <use xlink:href="#ArialMT-65" transform="translate(839.453125 0)"/>
       <use xlink:href="#ArialMT-73" transform="translate(895.068359 0)"/>
       <use xlink:href="#ArialMT-73" transform="translate(945.068359 0)"/>
      </g>
     </g>
    </g>
    <g id="text_20">
     <!-- Features -->
     <g style="fill: #262626" transform="translate(15.789375 340.272969) rotate(-90) scale(0.12 -0.12)">
      <defs>
       <path id="Arial-BoldMT-46" d="M 472 0 
L 472 4581 
L 3613 4581 
L 3613 3806 
L 1397 3806 
L 1397 2722 
L 3309 2722 
L 3309 1947 
L 1397 1947 
L 1397 0 
L 472 0 
z
" transform="scale(0.015625)"/>
       <path id="Arial-BoldMT-73" d="M 150 947 
L 1031 1081 
Q 1088 825 1259 692 
Q 1431 559 1741 559 
Q 2081 559 2253 684 
Q 2369 772 2369 919 
Q 2369 1019 2306 1084 
Q 2241 1147 2013 1200 
Q 950 1434 666 1628 
Q 272 1897 272 2375 
Q 272 2806 612 3100 
Q 953 3394 1669 3394 
Q 2350 3394 2681 3172 
Q 3013 2950 3138 2516 
L 2309 2363 
Q 2256 2556 2107 2659 
Q 1959 2763 1684 2763 
Q 1338 2763 1188 2666 
Q 1088 2597 1088 2488 
Q 1088 2394 1175 2328 
Q 1294 2241 1995 2081 
Q 2697 1922 2975 1691 
Q 3250 1456 3250 1038 
Q 3250 581 2869 253 
Q 2488 -75 1741 -75 
Q 1063 -75 667 200 
Q 272 475 150 947 
z
" transform="scale(0.015625)"/>
      </defs>
      <use xlink:href="#Arial-BoldMT-46"/>
      <use xlink:href="#Arial-BoldMT-65" transform="translate(61.083984 0)"/>
      <use xlink:href="#Arial-BoldMT-61" transform="translate(116.699219 0)"/>
      <use xlink:href="#Arial-BoldMT-74" transform="translate(172.314453 0)"/>
      <use xlink:href="#Arial-BoldMT-75" transform="translate(205.615234 0)"/>
      <use xlink:href="#Arial-BoldMT-72" transform="translate(266.699219 0)"/>
      <use xlink:href="#Arial-BoldMT-65" transform="translate(305.615234 0)"/>
      <use xlink:href="#Arial-BoldMT-73" transform="translate(361.230469 0)"/>
     </g>
    </g>
   </g>
   <g id="patch_3">
    <path d="M 160.595469 573.082969 
L 160.595469 573.082969 
L 160.595469 557.657915 
L 160.595469 557.657915 
z
" clip-path="url(#pf6a25b85c8)" style="fill: #87ceeb; stroke: #000000; stroke-width: 0.8; stroke-linejoin: miter"/>
   </g>
   <g id="patch_4">
    <path d="M 160.595469 529.011388 
L 168.482185 529.011388 
L 168.482185 513.586334 
L 160.595469 513.586334 
z
" clip-path="url(#pf6a25b85c8)" style="fill: #87ceeb; stroke: #000000; stroke-width: 0.8; stroke-linejoin: miter"/>
   </g>
   <g id="patch_5">
    <path d="M 160.595469 484.939806 
L 179.137312 484.939806 
L 179.137312 469.514753 
L 160.595469 469.514753 
z
" clip-path="url(#pf6a25b85c8)" style="fill: #87ceeb; stroke: #000000; stroke-width: 0.8; stroke-linejoin: miter"/>
   </g>
   <g id="patch_6">
    <path d="M 160.595469 440.868225 
L 185.220529 440.868225 
L 185.220529 425.443172 
L 160.595469 425.443172 
z
" clip-path="url(#pf6a25b85c8)" style="fill: #87ceeb; stroke: #000000; stroke-width: 0.8; stroke-linejoin: miter"/>
   </g>
   <g id="patch_7">
    <path d="M 160.595469 396.796644 
L 234.069282 396.796644 
L 234.069282 381.371591 
L 160.595469 381.371591 
z
" clip-path="url(#pf6a25b85c8)" style="fill: #87ceeb; stroke: #000000; stroke-width: 0.8; stroke-linejoin: miter"/>
   </g>
   <g id="patch_8">
    <path d="M 160.595469 352.725063 
L 248.514481 352.725063 
L 248.514481 337.300009 
L 160.595469 337.300009 
z
" clip-path="url(#pf6a25b85c8)" style="fill: #87ceeb; stroke: #000000; stroke-width: 0.8; stroke-linejoin: miter"/>
   </g>
   <g id="patch_9">
    <path d="M 160.595469 308.653482 
L 258.378155 308.653482 
L 258.378155 293.228428 
L 160.595469 293.228428 
z
" clip-path="url(#pf6a25b85c8)" style="fill: #87ceeb; stroke: #000000; stroke-width: 0.8; stroke-linejoin: miter"/>
   </g>
   <g id="patch_10">
    <path d="M 160.595469 264.5819 
L 388.824246 264.5819 
L 388.824246 249.156847 
L 160.595469 249.156847 
z
" clip-path="url(#pf6a25b85c8)" style="fill: #87ceeb; stroke: #000000; stroke-width: 0.8; stroke-linejoin: miter"/>
   </g>
   <g id="patch_11">
    <path d="M 160.595469 220.510319 
L 396.730135 220.510319 
L 396.730135 205.085266 
L 160.595469 205.085266 
z
" clip-path="url(#pf6a25b85c8)" style="fill: #87ceeb; stroke: #000000; stroke-width: 0.8; stroke-linejoin: miter"/>
   </g>
   <g id="patch_12">
    <path d="M 160.595469 176.438738 
L 594.539327 176.438738 
L 594.539327 161.013685 
L 160.595469 161.013685 
z
" clip-path="url(#pf6a25b85c8)" style="fill: #87ceeb; stroke: #000000; stroke-width: 0.8; stroke-linejoin: miter"/>
   </g>
   <g id="patch_13">
    <path d="M 160.595469 132.367157 
L 619.554822 132.367157 
L 619.554822 116.942103 
L 160.595469 116.942103 
z
" clip-path="url(#pf6a25b85c8)" style="fill: #87ceeb; stroke: #000000; stroke-width: 0.8; stroke-linejoin: miter"/>
   </g>
   <g id="patch_14">
    <path d="M 160.595469 88.295576 
L 658.471189 88.295576 
L 658.471189 72.870522 
L 160.595469 72.870522 
z
" clip-path="url(#pf6a25b85c8)" style="fill: #87ceeb; stroke: #000000; stroke-width: 0.8; stroke-linejoin: miter"/>
   </g>
   <g id="patch_15">
    <path d="M 160.595469 557.657915 
L 580.134323 557.657915 
L 580.134323 542.232862 
L 160.595469 542.232862 
z
" clip-path="url(#pf6a25b85c8)" style="fill: #90ee90; stroke: #000000; stroke-width: 0.8; stroke-linejoin: miter"/>
   </g>
   <g id="patch_16">
    <path d="M 160.595469 513.586334 
L 390.419711 513.586334 
L 390.419711 498.161281 
L 160.595469 498.161281 
z
" clip-path="url(#pf6a25b85c8)" style="fill: #90ee90; stroke: #000000; stroke-width: 0.8; stroke-linejoin: miter"/>
   </g>
   <g id="patch_17">
    <path d="M 160.595469 469.514753 
L 266.711903 469.514753 
L 266.711903 454.0897 
L 160.595469 454.0897 
z
" clip-path="url(#pf6a25b85c8)" style="fill: #90ee90; stroke: #000000; stroke-width: 0.8; stroke-linejoin: miter"/>
   </g>
   <g id="patch_18">
    <path d="M 160.595469 425.443172 
L 526.964423 425.443172 
L 526.964423 410.018118 
L 160.595469 410.018118 
z
" clip-path="url(#pf6a25b85c8)" style="fill: #90ee90; stroke: #000000; stroke-width: 0.8; stroke-linejoin: miter"/>
   </g>
   <g id="patch_19">
    <path d="M 160.595469 381.371591 
L 366.053765 381.371591 
L 366.053765 365.946537 
L 160.595469 365.946537 
z
" clip-path="url(#pf6a25b85c8)" style="fill: #90ee90; stroke: #000000; stroke-width: 0.8; stroke-linejoin: miter"/>
   </g>
   <g id="patch_20">
    <path d="M 160.595469 337.300009 
L 160.595469 337.300009 
L 160.595469 321.874956 
L 160.595469 321.874956 
z
" clip-path="url(#pf6a25b85c8)" style="fill: #90ee90; stroke: #000000; stroke-width: 0.8; stroke-linejoin: miter"/>
   </g>
   <g id="patch_21">
    <path d="M 160.595469 293.228428 
L 390.608799 293.228428 
L 390.608799 277.803375 
L 160.595469 277.803375 
z
" clip-path="url(#pf6a25b85c8)" style="fill: #90ee90; stroke: #000000; stroke-width: 0.8; stroke-linejoin: miter"/>
   </g>
   <g id="patch_22">
    <path d="M 160.595469 249.156847 
L 669.169539 249.156847 
L 669.169539 233.731794 
L 160.595469 233.731794 
z
" clip-path="url(#pf6a25b85c8)" style="fill: #90ee90; stroke: #000000; stroke-width: 0.8; stroke-linejoin: miter"/>
   </g>
   <g id="patch_23">
    <path d="M 160.595469 205.085266 
L 411.937105 205.085266 
L 411.937105 189.660212 
L 160.595469 189.660212 
z
" clip-path="url(#pf6a25b85c8)" style="fill: #90ee90; stroke: #000000; stroke-width: 0.8; stroke-linejoin: miter"/>
   </g>
   <g id="patch_24">
    <path d="M 160.595469 161.013685 
L 802.248106 161.013685 
L 802.248106 145.588631 
L 160.595469 145.588631 
z
" clip-path="url(#pf6a25b85c8)" style="fill: #90ee90; stroke: #000000; stroke-width: 0.8; stroke-linejoin: miter"/>
   </g>
   <g id="patch_25">
    <path d="M 160.595469 116.942103 
L 616.285091 116.942103 
L 616.285091 101.51705 
L 160.595469 101.51705 
z
" clip-path="url(#pf6a25b85c8)" style="fill: #90ee90; stroke: #000000; stroke-width: 0.8; stroke-linejoin: miter"/>
   </g>
   <g id="patch_26">
    <path d="M 160.595469 72.870522 
L 652.164787 72.870522 
L 652.164787 57.445469 
L 160.595469 57.445469 
z
" clip-path="url(#pf6a25b85c8)" style="fill: #90ee90; stroke: #000000; stroke-width: 0.8; stroke-linejoin: miter"/>
   </g>
   <g id="patch_27">
    <path d="M 160.595469 598.864844 
L 160.595469 31.663594 
" style="fill: none; stroke: #cccccc; stroke-width: 0.8; stroke-linejoin: miter; stroke-linecap: square"/>
   </g>
   <g id="patch_28">
    <path d="M 840.255469 598.864844 
L 840.255469 31.663594 
" style="fill: none; stroke: #cccccc; stroke-width: 0.8; stroke-linejoin: miter; stroke-linecap: square"/>
   </g>
   <g id="patch_29">
    <path d="M 160.595469 598.864844 
L 840.255469 598.864844 
" style="fill: none; stroke: #cccccc; stroke-width: 0.8; stroke-linejoin: miter; stroke-linecap: square"/>
   </g>
   <g id="patch_30">
    <path d="M 160.595469 31.663594 
L 840.255469 31.663594 
" style="fill: none; stroke: #cccccc; stroke-width: 0.8; stroke-linejoin: miter; stroke-linecap: square"/>
   </g>
   <g id="text_21">
    <!-- Note: Importance calculation methods differ slightly between samples but both reflect relative importance. -->
    <g style="fill: #262626" transform="translate(174.188669 579.693706) scale(0.09 -0.09)">
     <defs>
      <path id="Arial-ItalicMT-4e" d="M 313 0 
L 1272 4581 
L 1866 4581 
L 2638 2863 
Q 2991 2075 3197 1538 
Q 3316 1225 3472 694 
Q 3556 1272 3684 1888 
L 4247 4581 
L 4844 4581 
L 3888 0 
L 3281 0 
L 2144 2647 
Q 1841 3347 1672 3881 
Q 1625 3434 1491 2784 
L 909 0 
L 313 0 
z
" transform="scale(0.015625)"/>
      <path id="Arial-ItalicMT-6f" d="M 313 1259 
Q 313 2231 884 2869 
Q 1356 3394 2122 3394 
Q 2722 3394 3089 3019 
Q 3456 2644 3456 2006 
Q 3456 1434 3225 942 
Q 2994 450 2567 187 
Q 2141 -75 1669 -75 
Q 1281 -75 964 90 
Q 647 256 480 559 
Q 313 863 313 1259 
z
M 878 1316 
Q 878 847 1103 605 
Q 1328 363 1675 363 
Q 1856 363 2034 436 
Q 2213 509 2366 659 
Q 2519 809 2626 1001 
Q 2734 1194 2800 1416 
Q 2897 1725 2897 2009 
Q 2897 2459 2670 2707 
Q 2444 2956 2100 2956 
Q 1834 2956 1615 2829 
Q 1397 2703 1220 2459 
Q 1044 2216 961 1892 
Q 878 1569 878 1316 
z
" transform="scale(0.015625)"/>
      <path id="Arial-ItalicMT-74" d="M 1534 459 
L 1441 -3 
Q 1238 -56 1047 -56 
Q 709 -56 509 109 
Q 359 234 359 450 
Q 359 559 441 953 
L 844 2881 
L 397 2881 
L 488 3319 
L 934 3319 
L 1106 4134 
L 1753 4525 
L 1500 3319 
L 2056 3319 
L 1963 2881 
L 1409 2881 
L 1025 1047 
Q 953 697 953 628 
Q 953 528 1011 475 
Q 1069 422 1200 422 
Q 1388 422 1534 459 
z
" transform="scale(0.015625)"/>
      <path id="Arial-ItalicMT-65" d="M 2650 1128 
L 3200 1072 
Q 3081 663 2654 294 
Q 2228 -75 1638 -75 
Q 1269 -75 961 95 
Q 653 266 492 591 
Q 331 916 331 1331 
Q 331 1875 582 2386 
Q 834 2897 1234 3145 
Q 1634 3394 2100 3394 
Q 2694 3394 3048 3025 
Q 3403 2656 3403 2019 
Q 3403 1775 3359 1519 
L 916 1519 
Q 903 1422 903 1344 
Q 903 878 1117 633 
Q 1331 388 1641 388 
Q 1931 388 2212 578 
Q 2494 769 2650 1128 
z
M 1006 1950 
L 2869 1950 
Q 2872 2038 2872 2075 
Q 2872 2500 2659 2726 
Q 2447 2953 2113 2953 
Q 1750 2953 1451 2703 
Q 1153 2453 1006 1950 
z
" transform="scale(0.015625)"/>
      <path id="Arial-ItalicMT-3a" d="M 925 2678 
L 1059 3319 
L 1697 3319 
L 1566 2678 
L 925 2678 
z
M 366 0 
L 500 641 
L 1141 641 
L 1003 0 
L 366 0 
z
" transform="scale(0.015625)"/>
      <path id="Arial-ItalicMT-20" transform="scale(0.015625)"/>
      <path id="Arial-ItalicMT-49" d="M 366 0 
L 1325 4581 
L 1934 4581 
L 978 0 
L 366 0 
z
" transform="scale(0.015625)"/>
      <path id="Arial-ItalicMT-6d" d="M 209 0 
L 903 3319 
L 1469 3319 
L 1353 2772 
Q 1669 3125 1917 3259 
Q 2166 3394 2456 3394 
Q 2766 3394 2973 3230 
Q 3181 3066 3247 2772 
Q 3500 3084 3779 3239 
Q 4059 3394 4369 3394 
Q 4784 3394 4992 3197 
Q 5200 3000 5200 2644 
Q 5200 2491 5128 2138 
L 4681 0 
L 4116 0 
L 4572 2194 
Q 4631 2463 4631 2578 
Q 4631 2741 4528 2834 
Q 4425 2928 4238 2928 
Q 3984 2928 3721 2775 
Q 3459 2622 3314 2373 
Q 3169 2125 3059 1609 
L 2722 0 
L 2156 0 
L 2625 2241 
Q 2675 2469 2675 2566 
Q 2675 2728 2573 2828 
Q 2472 2928 2309 2928 
Q 2069 2928 1805 2775 
Q 1541 2622 1375 2348 
Q 1209 2075 1103 1569 
L 775 0 
L 209 0 
z
" transform="scale(0.015625)"/>
      <path id="Arial-ItalicMT-70" d="M -66 -1272 
L 894 3319 
L 1416 3319 
L 1319 2856 
Q 1609 3159 1839 3276 
Q 2069 3394 2325 3394 
Q 2800 3394 3112 3048 
Q 3425 2703 3425 2059 
Q 3425 1541 3253 1114 
Q 3081 688 2831 428 
Q 2581 169 2325 47 
Q 2069 -75 1800 -75 
Q 1203 -75 875 531 
L 500 -1272 
L -66 -1272 
z
M 1053 1356 
Q 1053 984 1106 841 
Q 1184 638 1362 513 
Q 1541 388 1775 388 
Q 2263 388 2563 936 
Q 2863 1484 2863 2056 
Q 2863 2478 2661 2708 
Q 2459 2938 2159 2938 
Q 1944 2938 1759 2823 
Q 1575 2709 1417 2482 
Q 1259 2256 1156 1928 
Q 1053 1600 1053 1356 
z
" transform="scale(0.015625)"/>
      <path id="Arial-ItalicMT-72" d="M 213 0 
L 906 3319 
L 1406 3319 
L 1266 2641 
Q 1522 3025 1767 3209 
Q 2013 3394 2269 3394 
Q 2438 3394 2684 3272 
L 2453 2747 
Q 2306 2853 2131 2853 
Q 1834 2853 1521 2522 
Q 1209 2191 1031 1331 
L 750 0 
L 213 0 
z
" transform="scale(0.015625)"/>
      <path id="Arial-ItalicMT-61" d="M 2450 413 
Q 2156 159 1884 42 
Q 1613 -75 1303 -75 
Q 844 -75 562 195 
Q 281 466 281 888 
Q 281 1166 407 1380 
Q 534 1594 743 1723 
Q 953 1853 1256 1909 
Q 1447 1947 1980 1969 
Q 2513 1991 2744 2081 
Q 2809 2313 2809 2466 
Q 2809 2663 2666 2775 
Q 2469 2931 2091 2931 
Q 1734 2931 1507 2773 
Q 1281 2616 1178 2325 
L 606 2375 
Q 781 2869 1161 3131 
Q 1541 3394 2119 3394 
Q 2734 3394 3094 3100 
Q 3369 2881 3369 2531 
Q 3369 2266 3291 1916 
L 3106 1091 
Q 3019 697 3019 450 
Q 3019 294 3088 0 
L 2516 0 
Q 2469 163 2450 413 
z
M 2659 1681 
Q 2541 1634 2405 1609 
Q 2269 1584 1950 1556 
Q 1456 1513 1253 1445 
Q 1050 1378 947 1231 
Q 844 1084 844 906 
Q 844 669 1008 516 
Q 1172 363 1475 363 
Q 1756 363 2015 511 
Q 2275 659 2425 925 
Q 2575 1191 2659 1681 
z
" transform="scale(0.015625)"/>
      <path id="Arial-ItalicMT-6e" d="M 213 0 
L 906 3319 
L 1419 3319 
L 1297 2741 
Q 1631 3081 1922 3237 
Q 2213 3394 2516 3394 
Q 2919 3394 3148 3175 
Q 3378 2956 3378 2591 
Q 3378 2406 3297 2009 
L 2875 0 
L 2309 0 
L 2750 2103 
Q 2816 2409 2816 2556 
Q 2816 2722 2702 2825 
Q 2588 2928 2372 2928 
Q 1938 2928 1598 2615 
Q 1259 2303 1100 1544 
L 778 0 
L 213 0 
z
" transform="scale(0.015625)"/>
      <path id="Arial-ItalicMT-63" d="M 2503 1209 
L 3069 1150 
Q 2856 528 2464 226 
Q 2072 -75 1572 -75 
Q 1031 -75 695 275 
Q 359 625 359 1253 
Q 359 1797 575 2322 
Q 791 2847 1192 3120 
Q 1594 3394 2109 3394 
Q 2644 3394 2956 3092 
Q 3269 2791 3269 2294 
L 2713 2256 
Q 2709 2572 2529 2750 
Q 2350 2928 2056 2928 
Q 1716 2928 1466 2712 
Q 1216 2497 1073 2058 
Q 931 1619 931 1213 
Q 931 788 1118 575 
Q 1306 363 1581 363 
Q 1856 363 2107 572 
Q 2359 781 2503 1209 
z
" transform="scale(0.015625)"/>
      <path id="Arial-ItalicMT-6c" d="M 169 0 
L 1125 4581 
L 1691 4581 
L 734 0 
L 169 0 
z
" transform="scale(0.015625)"/>
      <path id="Arial-ItalicMT-75" d="M 2478 600 
Q 1881 -75 1256 -75 
Q 872 -75 636 145 
Q 400 366 400 684 
Q 400 894 506 1403 
L 906 3319 
L 1472 3319 
L 1028 1197 
Q 972 931 972 784 
Q 972 597 1086 492 
Q 1200 388 1422 388 
Q 1659 388 1886 503 
Q 2113 619 2277 816 
Q 2441 1013 2544 1281 
Q 2613 1453 2703 1884 
L 3003 3319 
L 3569 3319 
L 2875 0 
L 2353 0 
L 2478 600 
z
" transform="scale(0.015625)"/>
      <path id="Arial-ItalicMT-69" d="M 1016 3941 
L 1150 4581 
L 1713 4581 
L 1578 3941 
L 1016 3941 
z
M 191 0 
L 884 3319 
L 1450 3319 
L 756 0 
L 191 0 
z
" transform="scale(0.015625)"/>
      <path id="Arial-ItalicMT-68" d="M 213 0 
L 1169 4581 
L 1734 4581 
L 1369 2822 
Q 1684 3128 1956 3261 
Q 2228 3394 2516 3394 
Q 2928 3394 3156 3176 
Q 3384 2959 3384 2603 
Q 3384 2428 3284 1959 
L 2875 0 
L 2309 0 
L 2731 2009 
Q 2822 2447 2822 2559 
Q 2822 2722 2709 2825 
Q 2597 2928 2384 2928 
Q 2078 2928 1800 2767 
Q 1522 2606 1364 2326 
Q 1206 2047 1075 1425 
L 778 0 
L 213 0 
z
" transform="scale(0.015625)"/>
      <path id="Arial-ItalicMT-64" d="M 2450 481 
Q 1966 -75 1438 -75 
Q 966 -75 652 273 
Q 338 622 338 1284 
Q 338 1891 586 2392 
Q 834 2894 1207 3144 
Q 1581 3394 1956 3394 
Q 2575 3394 2891 2797 
L 3266 4581 
L 3828 4581 
L 2872 0 
L 2350 0 
L 2450 481 
z
M 900 1391 
Q 900 1044 969 844 
Q 1038 644 1203 511 
Q 1369 378 1600 378 
Q 1984 378 2297 778 
Q 2716 1309 2716 2091 
Q 2716 2484 2509 2706 
Q 2303 2928 1991 2928 
Q 1788 2928 1620 2837 
Q 1453 2747 1289 2530 
Q 1125 2313 1012 1978 
Q 900 1644 900 1391 
z
" transform="scale(0.015625)"/>
      <path id="Arial-ItalicMT-73" d="M 266 1134 
L 831 1169 
Q 831 925 906 753 
Q 981 581 1182 472 
Q 1384 363 1653 363 
Q 2028 363 2215 513 
Q 2403 663 2403 866 
Q 2403 1013 2291 1144 
Q 2175 1275 1726 1467 
Q 1278 1659 1153 1738 
Q 944 1866 837 2039 
Q 731 2213 731 2438 
Q 731 2831 1043 3112 
Q 1356 3394 1919 3394 
Q 2544 3394 2870 3105 
Q 3197 2816 3209 2344 
L 2656 2306 
Q 2644 2606 2444 2781 
Q 2244 2956 1878 2956 
Q 1584 2956 1421 2822 
Q 1259 2688 1259 2531 
Q 1259 2375 1400 2256 
Q 1494 2175 1884 2006 
Q 2534 1725 2703 1563 
Q 2972 1303 2972 931 
Q 2972 684 2820 446 
Q 2669 209 2358 67 
Q 2047 -75 1625 -75 
Q 1050 -75 647 209 
Q 244 494 266 1134 
z
" transform="scale(0.015625)"/>
      <path id="Arial-ItalicMT-66" d="M 291 0 
L 894 2881 
L 388 2881 
L 478 3319 
L 984 3319 
L 1081 3791 
Q 1156 4144 1236 4300 
Q 1316 4456 1495 4557 
Q 1675 4659 1984 4659 
Q 2200 4659 2609 4569 
L 2506 4075 
Q 2219 4150 2025 4150 
Q 1859 4150 1773 4067 
Q 1688 3984 1625 3675 
L 1550 3319 
L 2181 3319 
L 2091 2881 
L 1459 2881 
L 856 0 
L 291 0 
z
" transform="scale(0.015625)"/>
      <path id="Arial-ItalicMT-67" d="M 181 -300 
L 753 -353 
Q 747 -547 800 -644 
Q 853 -741 969 -794 
Q 1122 -863 1366 -863 
Q 1878 -863 2103 -597 
Q 2250 -419 2375 178 
L 2431 447 
Q 1991 0 1494 0 
Q 991 0 652 370 
Q 313 741 313 1419 
Q 313 1978 580 2447 
Q 847 2916 1215 3155 
Q 1584 3394 1975 3394 
Q 2628 3394 2981 2775 
L 3094 3319 
L 3613 3319 
L 2944 116 
Q 2834 -413 2656 -708 
Q 2478 -1003 2161 -1165 
Q 1844 -1328 1428 -1328 
Q 1028 -1328 739 -1225 
Q 450 -1122 308 -923 
Q 166 -725 166 -469 
Q 166 -391 181 -300 
z
M 888 1469 
Q 888 1128 953 956 
Q 1047 716 1220 589 
Q 1394 463 1606 463 
Q 1884 463 2159 658 
Q 2434 853 2604 1262 
Q 2775 1672 2775 2044 
Q 2775 2453 2548 2695 
Q 2322 2938 1988 2938 
Q 1781 2938 1587 2827 
Q 1394 2716 1226 2489 
Q 1059 2263 973 1947 
Q 888 1631 888 1469 
z
" transform="scale(0.015625)"/>
      <path id="Arial-ItalicMT-79" d="M 0 -1281 
L 34 -750 
Q 209 -800 375 -800 
Q 547 -800 653 -722 
Q 791 -619 953 -334 
L 1134 -9 
L 581 3319 
L 1138 3319 
L 1388 1641 
Q 1463 1144 1516 647 
L 3000 3319 
L 3591 3319 
L 1475 -441 
Q 1169 -991 931 -1169 
Q 694 -1347 384 -1347 
Q 188 -1347 0 -1281 
z
" transform="scale(0.015625)"/>
      <path id="Arial-ItalicMT-62" d="M 213 0 
L 1169 4581 
L 1734 4581 
L 1394 2944 
Q 1663 3191 1881 3292 
Q 2100 3394 2338 3394 
Q 2803 3394 3114 3047 
Q 3425 2700 3425 2038 
Q 3425 1597 3300 1231 
Q 3175 866 2990 617 
Q 2806 369 2609 220 
Q 2413 72 2206 -1 
Q 2000 -75 1809 -75 
Q 1481 -75 1231 98 
Q 981 272 841 628 
L 709 0 
L 213 0 
z
M 1050 1363 
L 1047 1256 
Q 1047 831 1250 609 
Q 1453 388 1756 388 
Q 2053 388 2301 595 
Q 2550 803 2709 1243 
Q 2869 1684 2869 2056 
Q 2869 2475 2667 2706 
Q 2466 2938 2169 2938 
Q 1863 2938 1606 2702 
Q 1350 2466 1178 1975 
Q 1050 1609 1050 1363 
z
" transform="scale(0.015625)"/>
      <path id="Arial-ItalicMT-77" d="M 844 0 
L 497 3319 
L 1041 3319 
L 1191 1828 
L 1250 991 
Q 1256 897 1269 613 
Q 1363 931 1428 1101 
Q 1494 1272 1638 1588 
L 2428 3319 
L 3044 3319 
L 3153 1659 
Q 3178 1281 3184 650 
Q 3341 1069 3694 1813 
L 4406 3319 
L 4972 3319 
L 3350 0 
L 2763 0 
L 2638 1947 
Q 2625 2128 2619 2653 
Q 2491 2319 2316 1931 
L 1438 0 
L 844 0 
z
" transform="scale(0.015625)"/>
      <path id="Arial-ItalicMT-76" d="M 1050 0 
L 506 3319 
L 1056 3319 
L 1341 1491 
Q 1388 1191 1456 513 
Q 1619 866 1872 1322 
L 2981 3319 
L 3578 3319 
L 1678 0 
L 1050 0 
z
" transform="scale(0.015625)"/>
      <path id="Arial-ItalicMT-2e" d="M 369 0 
L 503 641 
L 1144 641 
L 1006 0 
L 369 0 
z
" transform="scale(0.015625)"/>
     </defs>
     <use xlink:href="#Arial-ItalicMT-4e"/>
     <use xlink:href="#Arial-ItalicMT-6f" transform="translate(72.216797 0)"/>
     <use xlink:href="#Arial-ItalicMT-74" transform="translate(127.832031 0)"/>
     <use xlink:href="#Arial-ItalicMT-65" transform="translate(155.615234 0)"/>
     <use xlink:href="#Arial-ItalicMT-3a" transform="translate(211.230469 0)"/>
     <use xlink:href="#Arial-ItalicMT-20" transform="translate(239.013672 0)"/>
     <use xlink:href="#Arial-ItalicMT-49" transform="translate(266.796875 0)"/>
     <use xlink:href="#Arial-ItalicMT-6d" transform="translate(294.580078 0)"/>
     <use xlink:href="#Arial-ItalicMT-70" transform="translate(377.880859 0)"/>
     <use xlink:href="#Arial-ItalicMT-6f" transform="translate(433.496094 0)"/>
     <use xlink:href="#Arial-ItalicMT-72" transform="translate(489.111328 0)"/>
     <use xlink:href="#Arial-ItalicMT-74" transform="translate(522.412109 0)"/>
     <use xlink:href="#Arial-ItalicMT-61" transform="translate(550.195312 0)"/>
     <use xlink:href="#Arial-ItalicMT-6e" transform="translate(605.810547 0)"/>
     <use xlink:href="#Arial-ItalicMT-63" transform="translate(661.425781 0)"/>
     <use xlink:href="#Arial-ItalicMT-65" transform="translate(711.425781 0)"/>
     <use xlink:href="#Arial-ItalicMT-20" transform="translate(767.041016 0)"/>
     <use xlink:href="#Arial-ItalicMT-63" transform="translate(794.824219 0)"/>
     <use xlink:href="#Arial-ItalicMT-61" transform="translate(844.824219 0)"/>
     <use xlink:href="#Arial-ItalicMT-6c" transform="translate(900.439453 0)"/>
     <use xlink:href="#Arial-ItalicMT-63" transform="translate(922.65625 0)"/>
     <use xlink:href="#Arial-ItalicMT-75" transform="translate(972.65625 0)"/>
     <use xlink:href="#Arial-ItalicMT-6c" transform="translate(1028.271484 0)"/>
     <use xlink:href="#Arial-ItalicMT-61" transform="translate(1050.488281 0)"/>
     <use xlink:href="#Arial-ItalicMT-74" transform="translate(1106.103516 0)"/>
     <use xlink:href="#Arial-ItalicMT-69" transform="translate(1133.886719 0)"/>
     <use xlink:href="#Arial-ItalicMT-6f" transform="translate(1156.103516 0)"/>
     <use xlink:href="#Arial-ItalicMT-6e" transform="translate(1211.71875 0)"/>
     <use xlink:href="#Arial-ItalicMT-20" transform="translate(1267.333984 0)"/>
     <use xlink:href="#Arial-ItalicMT-6d" transform="translate(1295.117188 0)"/>
     <use xlink:href="#Arial-ItalicMT-65" transform="translate(1378.417969 0)"/>
     <use xlink:href="#Arial-ItalicMT-74" transform="translate(1434.033203 0)"/>
     <use xlink:href="#Arial-ItalicMT-68" transform="translate(1461.816406 0)"/>
     <use xlink:href="#Arial-ItalicMT-6f" transform="translate(1517.431641 0)"/>
     <use xlink:href="#Arial-ItalicMT-64" transform="translate(1573.046875 0)"/>
     <use xlink:href="#Arial-ItalicMT-73" transform="translate(1628.662109 0)"/>
     <use xlink:href="#Arial-ItalicMT-20" transform="translate(1678.662109 0)"/>
     <use xlink:href="#Arial-ItalicMT-64" transform="translate(1706.445312 0)"/>
     <use xlink:href="#Arial-ItalicMT-69" transform="translate(1762.060547 0)"/>
     <use xlink:href="#Arial-ItalicMT-66" transform="translate(1784.277344 0)"/>
     <use xlink:href="#Arial-ItalicMT-66" transform="translate(1812.060547 0)"/>
     <use xlink:href="#Arial-ItalicMT-65" transform="translate(1839.84375 0)"/>
     <use xlink:href="#Arial-ItalicMT-72" transform="translate(1895.458984 0)"/>
     <use xlink:href="#Arial-ItalicMT-20" transform="translate(1928.759766 0)"/>
     <use xlink:href="#Arial-ItalicMT-73" transform="translate(1956.542969 0)"/>
     <use xlink:href="#Arial-ItalicMT-6c" transform="translate(2006.542969 0)"/>
     <use xlink:href="#Arial-ItalicMT-69" transform="translate(2028.759766 0)"/>
     <use xlink:href="#Arial-ItalicMT-67" transform="translate(2050.976562 0)"/>
     <use xlink:href="#Arial-ItalicMT-68" transform="translate(2106.591797 0)"/>
     <use xlink:href="#Arial-ItalicMT-74" transform="translate(2162.207031 0)"/>
     <use xlink:href="#Arial-ItalicMT-6c" transform="translate(2189.990234 0)"/>
     <use xlink:href="#Arial-ItalicMT-79" transform="translate(2212.207031 0)"/>
     <use xlink:href="#Arial-ItalicMT-20" transform="translate(2262.207031 0)"/>
     <use xlink:href="#Arial-ItalicMT-62" transform="translate(2289.990234 0)"/>
     <use xlink:href="#Arial-ItalicMT-65" transform="translate(2345.605469 0)"/>
     <use xlink:href="#Arial-ItalicMT-74" transform="translate(2401.220703 0)"/>
     <use xlink:href="#Arial-ItalicMT-77" transform="translate(2429.003906 0)"/>
     <use xlink:href="#Arial-ItalicMT-65" transform="translate(2501.220703 0)"/>
     <use xlink:href="#Arial-ItalicMT-65" transform="translate(2556.835938 0)"/>
     <use xlink:href="#Arial-ItalicMT-6e" transform="translate(2612.451172 0)"/>
     <use xlink:href="#Arial-ItalicMT-20" transform="translate(2668.066406 0)"/>
     <use xlink:href="#Arial-ItalicMT-73" transform="translate(2695.849609 0)"/>
     <use xlink:href="#Arial-ItalicMT-61" transform="translate(2745.849609 0)"/>
     <use xlink:href="#Arial-ItalicMT-6d" transform="translate(2801.464844 0)"/>
     <use xlink:href="#Arial-ItalicMT-70" transform="translate(2884.765625 0)"/>
     <use xlink:href="#Arial-ItalicMT-6c" transform="translate(2940.380859 0)"/>
     <use xlink:href="#Arial-ItalicMT-65" transform="translate(2962.597656 0)"/>
     <use xlink:href="#Arial-ItalicMT-73" transform="translate(3018.212891 0)"/>
     <use xlink:href="#Arial-ItalicMT-20" transform="translate(3068.212891 0)"/>
     <use xlink:href="#Arial-ItalicMT-62" transform="translate(3095.996094 0)"/>
     <use xlink:href="#Arial-ItalicMT-75" transform="translate(3151.611328 0)"/>
     <use xlink:href="#Arial-ItalicMT-74" transform="translate(3207.226562 0)"/>
     <use xlink:href="#Arial-ItalicMT-20" transform="translate(3235.009766 0)"/>
     <use xlink:href="#Arial-ItalicMT-62" transform="translate(3262.792969 0)"/>
     <use xlink:href="#Arial-ItalicMT-6f" transform="translate(3318.408203 0)"/>
     <use xlink:href="#Arial-ItalicMT-74" transform="translate(3374.023438 0)"/>
     <use xlink:href="#Arial-ItalicMT-68" transform="translate(3401.806641 0)"/>
     <use xlink:href="#Arial-ItalicMT-20" transform="translate(3457.421875 0)"/>
     <use xlink:href="#Arial-ItalicMT-72" transform="translate(3485.205078 0)"/>
     <use xlink:href="#Arial-ItalicMT-65" transform="translate(3518.505859 0)"/>
     <use xlink:href="#Arial-ItalicMT-66" transform="translate(3574.121094 0)"/>
     <use xlink:href="#Arial-ItalicMT-6c" transform="translate(3601.904297 0)"/>
     <use xlink:href="#Arial-ItalicMT-65" transform="translate(3624.121094 0)"/>
     <use xlink:href="#Arial-ItalicMT-63" transform="translate(3679.736328 0)"/>
     <use xlink:href="#Arial-ItalicMT-74" transform="translate(3729.736328 0)"/>
     <use xlink:href="#Arial-ItalicMT-20" transform="translate(3757.519531 0)"/>
     <use xlink:href="#Arial-ItalicMT-72" transform="translate(3785.302734 0)"/>
     <use xlink:href="#Arial-ItalicMT-65" transform="translate(3818.603516 0)"/>
     <use xlink:href="#Arial-ItalicMT-6c" transform="translate(3874.21875 0)"/>
     <use xlink:href="#Arial-ItalicMT-61" transform="translate(3896.435547 0)"/>
     <use xlink:href="#Arial-ItalicMT-74" transform="translate(3952.050781 0)"/>
     <use xlink:href="#Arial-ItalicMT-69" transform="translate(3979.833984 0)"/>
     <use xlink:href="#Arial-ItalicMT-76" transform="translate(4002.050781 0)"/>
     <use xlink:href="#Arial-ItalicMT-65" transform="translate(4052.050781 0)"/>
     <use xlink:href="#Arial-ItalicMT-20" transform="translate(4107.666016 0)"/>
     <use xlink:href="#Arial-ItalicMT-69" transform="translate(4135.449219 0)"/>
     <use xlink:href="#Arial-ItalicMT-6d" transform="translate(4157.666016 0)"/>
     <use xlink:href="#Arial-ItalicMT-70" transform="translate(4240.966797 0)"/>
     <use xlink:href="#Arial-ItalicMT-6f" transform="translate(4296.582031 0)"/>
     <use xlink:href="#Arial-ItalicMT-72" transform="translate(4352.197266 0)"/>
     <use xlink:href="#Arial-ItalicMT-74" transform="translate(4385.498047 0)"/>
     <use xlink:href="#Arial-ItalicMT-61" transform="translate(4413.28125 0)"/>
     <use xlink:href="#Arial-ItalicMT-6e" transform="translate(4468.896484 0)"/>
     <use xlink:href="#Arial-ItalicMT-63" transform="translate(4524.511719 0)"/>
     <use xlink:href="#Arial-ItalicMT-65" transform="translate(4574.511719 0)"/>
     <use xlink:href="#Arial-ItalicMT-2e" transform="translate(4630.126953 0)"/>
    </g>
   </g>
   <g id="text_22">
    <!-- Figure 4.6 Cross-Cultural Comparison of Feature Importance -->
    <g style="fill: #262626" transform="translate(312.986797 16.663594) scale(0.13 -0.13)">
     <defs>
      <path id="Arial-BoldMT-69" d="M 459 3769 
L 459 4581 
L 1338 4581 
L 1338 3769 
L 459 3769 
z
M 459 0 
L 459 3319 
L 1338 3319 
L 1338 0 
L 459 0 
z
" transform="scale(0.015625)"/>
      <path id="Arial-BoldMT-67" d="M 378 -219 
L 1381 -341 
Q 1406 -516 1497 -581 
Q 1622 -675 1891 -675 
Q 2234 -675 2406 -572 
Q 2522 -503 2581 -350 
Q 2622 -241 2622 53 
L 2622 538 
Q 2228 0 1628 0 
Q 959 0 569 566 
Q 263 1013 263 1678 
Q 263 2513 664 2953 
Q 1066 3394 1663 3394 
Q 2278 3394 2678 2853 
L 2678 3319 
L 3500 3319 
L 3500 341 
Q 3500 -247 3403 -537 
Q 3306 -828 3131 -993 
Q 2956 -1159 2664 -1253 
Q 2372 -1347 1925 -1347 
Q 1081 -1347 728 -1058 
Q 375 -769 375 -325 
Q 375 -281 378 -219 
z
M 1163 1728 
Q 1163 1200 1367 954 
Q 1572 709 1872 709 
Q 2194 709 2416 961 
Q 2638 1213 2638 1706 
Q 2638 2222 2425 2472 
Q 2213 2722 1888 2722 
Q 1572 2722 1367 2476 
Q 1163 2231 1163 1728 
z
" transform="scale(0.015625)"/>
      <path id="Arial-BoldMT-34" d="M 1994 0 
L 1994 922 
L 119 922 
L 119 1691 
L 2106 4600 
L 2844 4600 
L 2844 1694 
L 3413 1694 
L 3413 922 
L 2844 922 
L 2844 0 
L 1994 0 
z
M 1994 1694 
L 1994 3259 
L 941 1694 
L 1994 1694 
z
" transform="scale(0.015625)"/>
      <path id="Arial-BoldMT-2e" d="M 459 0 
L 459 878 
L 1338 878 
L 1338 0 
L 459 0 
z
" transform="scale(0.015625)"/>
      <path id="Arial-BoldMT-36" d="M 3247 3459 
L 2397 3366 
Q 2366 3628 2234 3753 
Q 2103 3878 1894 3878 
Q 1616 3878 1423 3628 
Q 1231 3378 1181 2588 
Q 1509 2975 1997 2975 
Q 2547 2975 2939 2556 
Q 3331 2138 3331 1475 
Q 3331 772 2918 347 
Q 2506 -78 1859 -78 
Q 1166 -78 719 461 
Q 272 1000 272 2228 
Q 272 3488 737 4044 
Q 1203 4600 1947 4600 
Q 2469 4600 2811 4308 
Q 3153 4016 3247 3459 
z
M 1256 1544 
Q 1256 1116 1453 883 
Q 1650 650 1903 650 
Q 2147 650 2309 840 
Q 2472 1031 2472 1466 
Q 2472 1913 2297 2120 
Q 2122 2328 1859 2328 
Q 1606 2328 1431 2129 
Q 1256 1931 1256 1544 
z
" transform="scale(0.015625)"/>
      <path id="Arial-BoldMT-43" d="M 3397 1684 
L 4294 1400 
Q 4088 650 3608 286 
Q 3128 -78 2391 -78 
Q 1478 -78 890 545 
Q 303 1169 303 2250 
Q 303 3394 893 4026 
Q 1484 4659 2447 4659 
Q 3288 4659 3813 4163 
Q 4125 3869 4281 3319 
L 3366 3100 
Q 3284 3456 3026 3662 
Q 2769 3869 2400 3869 
Q 1891 3869 1573 3503 
Q 1256 3138 1256 2319 
Q 1256 1450 1568 1081 
Q 1881 713 2381 713 
Q 2750 713 3015 947 
Q 3281 1181 3397 1684 
z
" transform="scale(0.015625)"/>
      <path id="Arial-BoldMT-2d" d="M 359 1222 
L 359 2100 
L 2084 2100 
L 2084 1222 
L 359 1222 
z
" transform="scale(0.015625)"/>
      <path id="Arial-BoldMT-66" d="M 75 3319 
L 563 3319 
L 563 3569 
Q 563 3988 652 4194 
Q 741 4400 980 4529 
Q 1219 4659 1584 4659 
Q 1959 4659 2319 4547 
L 2200 3934 
Q 1991 3984 1797 3984 
Q 1606 3984 1523 3895 
Q 1441 3806 1441 3553 
L 1441 3319 
L 2097 3319 
L 2097 2628 
L 1441 2628 
L 1441 0 
L 563 0 
L 563 2628 
L 75 2628 
L 75 3319 
z
" transform="scale(0.015625)"/>
     </defs>
     <use xlink:href="#Arial-BoldMT-46"/>
     <use xlink:href="#Arial-BoldMT-69" transform="translate(61.083984 0)"/>
     <use xlink:href="#Arial-BoldMT-67" transform="translate(88.867188 0)"/>
     <use xlink:href="#Arial-BoldMT-75" transform="translate(149.951172 0)"/>
     <use xlink:href="#Arial-BoldMT-72" transform="translate(211.035156 0)"/>
     <use xlink:href="#Arial-BoldMT-65" transform="translate(249.951172 0)"/>
     <use xlink:href="#Arial-BoldMT-20" transform="translate(305.566406 0)"/>
     <use xlink:href="#Arial-BoldMT-34" transform="translate(333.349609 0)"/>
     <use xlink:href="#Arial-BoldMT-2e" transform="translate(388.964844 0)"/>
     <use xlink:href="#Arial-BoldMT-36" transform="translate(416.748047 0)"/>
     <use xlink:href="#Arial-BoldMT-20" transform="translate(472.363281 0)"/>
     <use xlink:href="#Arial-BoldMT-43" transform="translate(500.146484 0)"/>
     <use xlink:href="#Arial-BoldMT-72" transform="translate(572.363281 0)"/>
     <use xlink:href="#Arial-BoldMT-6f" transform="translate(611.279297 0)"/>
     <use xlink:href="#Arial-BoldMT-73" transform="translate(672.363281 0)"/>
     <use xlink:href="#Arial-BoldMT-73" transform="translate(727.978516 0)"/>
     <use xlink:href="#Arial-BoldMT-2d" transform="translate(783.59375 0)"/>
     <use xlink:href="#Arial-BoldMT-43" transform="translate(816.894531 0)"/>
     <use xlink:href="#Arial-BoldMT-75" transform="translate(889.111328 0)"/>
     <use xlink:href="#Arial-BoldMT-6c" transform="translate(950.195312 0)"/>
     <use xlink:href="#Arial-BoldMT-74" transform="translate(977.978516 0)"/>
     <use xlink:href="#Arial-BoldMT-75" transform="translate(1011.279297 0)"/>
     <use xlink:href="#Arial-BoldMT-72" transform="translate(1072.363281 0)"/>
     <use xlink:href="#Arial-BoldMT-61" transform="translate(1111.279297 0)"/>
     <use xlink:href="#Arial-BoldMT-6c" transform="translate(1166.894531 0)"/>
     <use xlink:href="#Arial-BoldMT-20" transform="translate(1194.677734 0)"/>
     <use xlink:href="#Arial-BoldMT-43" transform="translate(1222.460938 0)"/>
     <use xlink:href="#Arial-BoldMT-6f" transform="translate(1294.677734 0)"/>
     <use xlink:href="#Arial-BoldMT-6d" transform="translate(1355.761719 0)"/>
     <use xlink:href="#Arial-BoldMT-70" transform="translate(1444.677734 0)"/>
     <use xlink:href="#Arial-BoldMT-61" transform="translate(1505.761719 0)"/>
     <use xlink:href="#Arial-BoldMT-72" transform="translate(1561.376953 0)"/>
     <use xlink:href="#Arial-BoldMT-69" transform="translate(1600.292969 0)"/>
     <use xlink:href="#Arial-BoldMT-73" transform="translate(1628.076172 0)"/>
     <use xlink:href="#Arial-BoldMT-6f" transform="translate(1683.691406 0)"/>
     <use xlink:href="#Arial-BoldMT-6e" transform="translate(1744.775391 0)"/>
     <use xlink:href="#Arial-BoldMT-20" transform="translate(1805.859375 0)"/>
     <use xlink:href="#Arial-BoldMT-6f" transform="translate(1833.642578 0)"/>
     <use xlink:href="#Arial-BoldMT-66" transform="translate(1894.726562 0)"/>
     <use xlink:href="#Arial-BoldMT-20" transform="translate(1928.027344 0)"/>
     <use xlink:href="#Arial-BoldMT-46" transform="translate(1955.810547 0)"/>
     <use xlink:href="#Arial-BoldMT-65" transform="translate(2016.894531 0)"/>
     <use xlink:href="#Arial-BoldMT-61" transform="translate(2072.509766 0)"/>
     <use xlink:href="#Arial-BoldMT-74" transform="translate(2128.125 0)"/>
     <use xlink:href="#Arial-BoldMT-75" transform="translate(2161.425781 0)"/>
     <use xlink:href="#Arial-BoldMT-72" transform="translate(2222.509766 0)"/>
     <use xlink:href="#Arial-BoldMT-65" transform="translate(2261.425781 0)"/>
     <use xlink:href="#Arial-BoldMT-20" transform="translate(2317.041016 0)"/>
     <use xlink:href="#Arial-BoldMT-49" transform="translate(2344.824219 0)"/>
     <use xlink:href="#Arial-BoldMT-6d" transform="translate(2372.607422 0)"/>
     <use xlink:href="#Arial-BoldMT-70" transform="translate(2461.523438 0)"/>
     <use xlink:href="#Arial-BoldMT-6f" transform="translate(2522.607422 0)"/>
     <use xlink:href="#Arial-BoldMT-72" transform="translate(2583.691406 0)"/>
     <use xlink:href="#Arial-BoldMT-74" transform="translate(2622.607422 0)"/>
     <use xlink:href="#Arial-BoldMT-61" transform="translate(2655.908203 0)"/>
     <use xlink:href="#Arial-BoldMT-6e" transform="translate(2711.523438 0)"/>
     <use xlink:href="#Arial-BoldMT-63" transform="translate(2772.607422 0)"/>
     <use xlink:href="#Arial-BoldMT-65" transform="translate(2828.222656 0)"/>
    </g>
   </g>
   <g id="legend_1">
    <g id="patch_31">
     <path d="M 705.331875 593.364844 
L 832.555469 593.364844 
Q 834.755469 593.364844 834.755469 591.164844 
L 834.755469 560.619219 
Q 834.755469 558.419219 832.555469 558.419219 
L 705.331875 558.419219 
Q 703.131875 558.419219 703.131875 560.619219 
L 703.131875 591.164844 
Q 703.131875 593.364844 705.331875 593.364844 
z
" style="fill: #ffffff; opacity: 0.95; stroke: #cccccc; stroke-linejoin: miter"/>
    </g>
    <g id="patch_32">
     <path d="M 707.531875 570.826875 
L 729.531875 570.826875 
L 729.531875 563.126875 
L 707.531875 563.126875 
z
" style="fill: #87ceeb; stroke: #000000; stroke-width: 0.8; stroke-linejoin: miter"/>
    </g>
    <g id="text_23">
     <!-- Hong Kong (N=75) -->
     <g style="fill: #262626" transform="translate(738.331875 570.826875) scale(0.11 -0.11)">
      <defs>
       <path id="ArialMT-67" d="M 319 -275 
L 866 -356 
Q 900 -609 1056 -725 
Q 1266 -881 1628 -881 
Q 2019 -881 2231 -725 
Q 2444 -569 2519 -288 
Q 2563 -116 2559 434 
Q 2191 0 1641 0 
Q 956 0 581 494 
Q 206 988 206 1678 
Q 206 2153 378 2554 
Q 550 2956 876 3175 
Q 1203 3394 1644 3394 
Q 2231 3394 2613 2919 
L 2613 3319 
L 3131 3319 
L 3131 450 
Q 3131 -325 2973 -648 
Q 2816 -972 2473 -1159 
Q 2131 -1347 1631 -1347 
Q 1038 -1347 672 -1080 
Q 306 -813 319 -275 
z
M 784 1719 
Q 784 1066 1043 766 
Q 1303 466 1694 466 
Q 2081 466 2343 764 
Q 2606 1063 2606 1700 
Q 2606 2309 2336 2618 
Q 2066 2928 1684 2928 
Q 1309 2928 1046 2623 
Q 784 2319 784 1719 
z
" transform="scale(0.015625)"/>
       <path id="ArialMT-28" d="M 1497 -1347 
Q 1031 -759 709 28 
Q 388 816 388 1659 
Q 388 2403 628 3084 
Q 909 3875 1497 4659 
L 1900 4659 
Q 1522 4009 1400 3731 
Q 1209 3300 1100 2831 
Q 966 2247 966 1656 
Q 966 153 1900 -1347 
L 1497 -1347 
z
" transform="scale(0.015625)"/>
       <path id="ArialMT-4e" d="M 488 0 
L 488 4581 
L 1109 4581 
L 3516 984 
L 3516 4581 
L 4097 4581 
L 4097 0 
L 3475 0 
L 1069 3600 
L 1069 0 
L 488 0 
z
" transform="scale(0.015625)"/>
       <path id="ArialMT-3d" d="M 3381 2694 
L 356 2694 
L 356 3219 
L 3381 3219 
L 3381 2694 
z
M 3381 1303 
L 356 1303 
L 356 1828 
L 3381 1828 
L 3381 1303 
z
" transform="scale(0.015625)"/>
       <path id="ArialMT-37" d="M 303 3981 
L 303 4522 
L 3269 4522 
L 3269 4084 
Q 2831 3619 2401 2847 
Q 1972 2075 1738 1259 
Q 1569 684 1522 0 
L 944 0 
Q 953 541 1156 1306 
Q 1359 2072 1739 2783 
Q 2119 3494 2547 3981 
L 303 3981 
z
" transform="scale(0.015625)"/>
       <path id="ArialMT-35" d="M 266 1200 
L 856 1250 
Q 922 819 1161 601 
Q 1400 384 1738 384 
Q 2144 384 2425 690 
Q 2706 997 2706 1503 
Q 2706 1984 2436 2262 
Q 2166 2541 1728 2541 
Q 1456 2541 1237 2417 
Q 1019 2294 894 2097 
L 366 2166 
L 809 4519 
L 3088 4519 
L 3088 3981 
L 1259 3981 
L 1013 2750 
Q 1425 3038 1878 3038 
Q 2478 3038 2890 2622 
Q 3303 2206 3303 1553 
Q 3303 931 2941 478 
Q 2500 -78 1738 -78 
Q 1113 -78 717 272 
Q 322 622 266 1200 
z
" transform="scale(0.015625)"/>
       <path id="ArialMT-29" d="M 791 -1347 
L 388 -1347 
Q 1322 153 1322 1656 
Q 1322 2244 1188 2822 
Q 1081 3291 891 3722 
Q 769 4003 388 4659 
L 791 4659 
Q 1378 3875 1659 3084 
Q 1900 2403 1900 1659 
Q 1900 816 1576 28 
Q 1253 -759 791 -1347 
z
" transform="scale(0.015625)"/>
      </defs>
      <use xlink:href="#ArialMT-48"/>
      <use xlink:href="#ArialMT-6f" transform="translate(72.216797 0)"/>
      <use xlink:href="#ArialMT-6e" transform="translate(127.832031 0)"/>
      <use xlink:href="#ArialMT-67" transform="translate(183.447266 0)"/>
      <use xlink:href="#ArialMT-20" transform="translate(239.0625 0)"/>
      <use xlink:href="#ArialMT-4b" transform="translate(266.845703 0)"/>
      <use xlink:href="#ArialMT-6f" transform="translate(333.544922 0)"/>
      <use xlink:href="#ArialMT-6e" transform="translate(389.160156 0)"/>
      <use xlink:href="#ArialMT-67" transform="translate(444.775391 0)"/>
      <use xlink:href="#ArialMT-20" transform="translate(500.390625 0)"/>
      <use xlink:href="#ArialMT-28" transform="translate(528.173828 0)"/>
      <use xlink:href="#ArialMT-4e" transform="translate(561.474609 0)"/>
      <use xlink:href="#ArialMT-3d" transform="translate(633.691406 0)"/>
      <use xlink:href="#ArialMT-37" transform="translate(692.089844 0)"/>
      <use xlink:href="#ArialMT-35" transform="translate(747.705078 0)"/>
      <use xlink:href="#ArialMT-29" transform="translate(803.320312 0)"/>
     </g>
    </g>
    <g id="patch_33">
     <path d="M 707.531875 586.649687 
L 729.531875 586.649687 
L 729.531875 578.949687 
L 707.531875 578.949687 
z
" style="fill: #90ee90; stroke: #000000; stroke-width: 0.8; stroke-linejoin: miter"/>
    </g>
    <g id="text_24">
     <!-- France (N=249) -->
     <g style="fill: #262626" transform="translate(738.331875 586.649687) scale(0.11 -0.11)">
      <defs>
       <path id="ArialMT-39" d="M 350 1059 
L 891 1109 
Q 959 728 1153 556 
Q 1347 384 1650 384 
Q 1909 384 2104 503 
Q 2300 622 2425 820 
Q 2550 1019 2634 1356 
Q 2719 1694 2719 2044 
Q 2719 2081 2716 2156 
Q 2547 1888 2255 1720 
Q 1963 1553 1622 1553 
Q 1053 1553 659 1965 
Q 266 2378 266 3053 
Q 266 3750 677 4175 
Q 1088 4600 1706 4600 
Q 2153 4600 2523 4359 
Q 2894 4119 3086 3673 
Q 3278 3228 3278 2384 
Q 3278 1506 3087 986 
Q 2897 466 2520 194 
Q 2144 -78 1638 -78 
Q 1100 -78 759 220 
Q 419 519 350 1059 
z
M 2653 3081 
Q 2653 3566 2395 3850 
Q 2138 4134 1775 4134 
Q 1400 4134 1122 3828 
Q 844 3522 844 3034 
Q 844 2597 1108 2323 
Q 1372 2050 1759 2050 
Q 2150 2050 2401 2323 
Q 2653 2597 2653 3081 
z
" transform="scale(0.015625)"/>
      </defs>
      <use xlink:href="#ArialMT-46"/>
      <use xlink:href="#ArialMT-72" transform="translate(61.083984 0)"/>
      <use xlink:href="#ArialMT-61" transform="translate(94.384766 0)"/>
      <use xlink:href="#ArialMT-6e" transform="translate(150 0)"/>
      <use xlink:href="#ArialMT-63" transform="translate(205.615234 0)"/>
      <use xlink:href="#ArialMT-65" transform="translate(255.615234 0)"/>
      <use xlink:href="#ArialMT-20" transform="translate(311.230469 0)"/>
      <use xlink:href="#ArialMT-28" transform="translate(339.013672 0)"/>
      <use xlink:href="#ArialMT-4e" transform="translate(372.314453 0)"/>
      <use xlink:href="#ArialMT-3d" transform="translate(444.53125 0)"/>
      <use xlink:href="#ArialMT-32" transform="translate(502.929688 0)"/>
      <use xlink:href="#ArialMT-34" transform="translate(558.544922 0)"/>
      <use xlink:href="#ArialMT-39" transform="translate(614.160156 0)"/>
      <use xlink:href="#ArialMT-29" transform="translate(669.775391 0)"/>
     </g>
    </g>
   </g>
  </g>
 </g>
 <defs>
  <clipPath id="pf6a25b85c8">
   <rect x="160.595469" y="31.663594" width="679.66" height="567.20125"/>
  </clipPath>
 </defs>
</svg>
