<?xml version="1.0" encoding="utf-8" standalone="no"?>
<!DOCTYPE svg PUBLIC "-//W3C//DTD SVG 1.1//EN"
  "http://www.w3.org/Graphics/SVG/1.1/DTD/svg11.dtd">
<svg xmlns:xlink="http://www.w3.org/1999/xlink" width="710.812578pt" height="494.385937pt" viewBox="0 0 710.812578 494.385937" xmlns="http://www.w3.org/2000/svg" version="1.1">
 <metadata>
  <rdf:RDF xmlns:dc="http://purl.org/dc/elements/1.1/" xmlns:cc="http://creativecommons.org/ns#" xmlns:rdf="http://www.w3.org/1999/02/22-rdf-syntax-ns#">
   <cc:Work>
    <dc:type rdf:resource="http://purl.org/dc/dcmitype/StillImage"/>
    <dc:date>2026-03-29T23:37:51.147409</dc:date>
    <dc:format>image/svg+xml</dc:format>
    <dc:creator>
     <cc:Agent>
      <dc:title>Matplotlib v3.10.8, https://matplotlib.org/</dc:title>
     </cc:Agent>
    </dc:creator>
   </cc:Work>
  </rdf:RDF>
 </metadata>
 <defs>
  <style type="text/css">*{stroke-linejoin: round; stroke-linecap: butt}</style>
 </defs>
 <g id="figure_1">
  <g id="patch_1">
   <path d="M 0 494.385937 
L 710.812578 494.385937 
L 710.812578 0 
L 0 0 
z
" style="fill: #ffffff"/>
  </g>
  <g id="axes_1">
   <g id="patch_2">
    <path d="M 41.537813 454.864844 
L 700.554063 454.864844 
L 700.554063 31.663594 
L 41.537813 31.663594 
z
" style="fill: #ffffff"/>
   </g>
   <g id="FillBetweenPolyCollection_1">
    <defs>
     <path id="ma16ff24fc1" d="M 41.537813 -198.221563 
L 41.537813 -145.321406 
L 54.987124 -148.560191 
L 68.436435 -151.798976 
L 81.885746 -155.037761 
L 95.335057 -158.276547 
L 108.784369 -161.515332 
L 122.23368 -164.754117 
L 135.682991 -167.992902 
L 149.132302 -171.231687 
L 162.581614 -174.470472 
L 176.030925 -177.709257 
L 189.480236 -180.948042 
L 202.929547 -184.186827 
L 216.378858 -187.425612 
L 229.82817 -190.664397 
L 243.277481 -193.903182 
L 256.726792 -197.141967 
L 270.176103 -200.380753 
L 283.625415 -203.619538 
L 297.074726 -206.858323 
L 310.524037 -210.097108 
L 323.973348 -213.335893 
L 337.422659 -216.574678 
L 350.871971 -219.813463 
L 364.321282 -223.052248 
L 377.770593 -226.291033 
L 391.219904 -229.529818 
L 404.669216 -232.768603 
L 418.118527 -236.007388 
L 431.567838 -239.246173 
L 445.017149 -242.484959 
L 458.46646 -245.723744 
L 471.915772 -248.962529 
L 485.365083 -252.201314 
L 498.814394 -255.440099 
L 512.263705 -258.678884 
L 525.713017 -261.917669 
L 539.162328 -265.156454 
L 552.611639 -268.395239 
L 566.06095 -271.634024 
L 579.510261 -274.872809 
L 592.959573 -278.111594 
L 606.408884 -281.350379 
L 619.858195 -284.589165 
L 633.307506 -287.82795 
L 646.756818 -291.066735 
L 660.206129 -294.30552 
L 673.65544 -297.544305 
L 687.104751 -300.78309 
L 700.554063 -304.021875 
L 700.554063 -356.922031 
L 700.554063 -356.922031 
L 687.104751 -353.683246 
L 673.65544 -350.444461 
L 660.206129 -347.205676 
L 646.756818 -343.966891 
L 633.307506 -340.728106 
L 619.858195 -337.489321 
L 606.408884 -334.250536 
L 592.959573 -331.011751 
L 579.510261 -327.772966 
L 566.06095 -324.53418 
L 552.611639 -321.295395 
L 539.162328 -318.05661 
L 525.713017 -314.817825 
L 512.263705 -311.57904 
L 498.814394 -308.340255 
L 485.365083 -305.10147 
L 471.915772 -301.862685 
L 458.46646 -298.6239 
L 445.017149 -295.385115 
L 431.567838 -292.14633 
L 418.118527 -288.907545 
L 404.669216 -285.66876 
L 391.219904 -282.429974 
L 377.770593 -279.191189 
L 364.321282 -275.952404 
L 350.871971 -272.713619 
L 337.422659 -269.474834 
L 323.973348 -266.236049 
L 310.524037 -262.997264 
L 297.074726 -259.758479 
L 283.625415 -256.519694 
L 270.176103 -253.280909 
L 256.726792 -250.042124 
L 243.277481 -246.803339 
L 229.82817 -243.564554 
L 216.378858 -240.325768 
L 202.929547 -237.086983 
L 189.480236 -233.848198 
L 176.030925 -230.609413 
L 162.581614 -227.370628 
L 149.132302 -224.131843 
L 135.682991 -220.893058 
L 122.23368 -217.654273 
L 108.784369 -214.415488 
L 95.335057 -211.176703 
L 81.885746 -207.937918 
L 68.436435 -204.699133 
L 54.987124 -201.460348 
L 41.537813 -198.221563 
z
" style="stroke: #0000ff; stroke-opacity: 0.15"/>
    </defs>
    <g clip-path="url(#p06a184f2a3)">
     <use xlink:href="#ma16ff24fc1" x="0" y="494.385937" style="fill: #0000ff; fill-opacity: 0.15; stroke: #0000ff; stroke-opacity: 0.15"/>
    </g>
   </g>
   <g id="FillBetweenPolyCollection_2">
    <defs>
     <path id="mbd7f88427b" d="M 41.537813 -171.771484 
L 41.537813 -118.871328 
L 54.987124 -125.348898 
L 68.436435 -131.826468 
L 81.885746 -138.304039 
L 95.335057 -144.781609 
L 108.784369 -151.259179 
L 122.23368 -157.736749 
L 135.682991 -164.214319 
L 149.132302 -170.691889 
L 162.581614 -177.16946 
L 176.030925 -183.64703 
L 189.480236 -190.1246 
L 202.929547 -196.60217 
L 216.378858 -203.07974 
L 229.82817 -209.55731 
L 243.277481 -216.03488 
L 256.726792 -222.512451 
L 270.176103 -228.990021 
L 283.625415 -235.467591 
L 297.074726 -241.945161 
L 310.524037 -248.422731 
L 323.973348 -254.900301 
L 337.422659 -261.377871 
L 350.871971 -267.855442 
L 364.321282 -274.333012 
L 377.770593 -280.810582 
L 391.219904 -287.288152 
L 404.669216 -293.765722 
L 418.118527 -300.243292 
L 431.567838 -306.720863 
L 445.017149 -313.198433 
L 458.46646 -319.676003 
L 471.915772 -326.153573 
L 485.365083 -332.631143 
L 498.814394 -339.108713 
L 512.263705 -345.586283 
L 525.713017 -352.063854 
L 539.162328 -358.541424 
L 552.611639 -365.018994 
L 566.06095 -371.496564 
L 579.510261 -377.974134 
L 592.959573 -384.451704 
L 606.408884 -390.929275 
L 619.858195 -397.406845 
L 633.307506 -403.884415 
L 646.756818 -410.361985 
L 660.206129 -416.839555 
L 673.65544 -423.317125 
L 687.104751 -429.794695 
L 700.554063 -436.272266 
L 700.554063 -489.172422 
L 700.554063 -489.172422 
L 687.104751 -482.694852 
L 673.65544 -476.217282 
L 660.206129 -469.739711 
L 646.756818 -463.262141 
L 633.307506 -456.784571 
L 619.858195 -450.307001 
L 606.408884 -443.829431 
L 592.959573 -437.351861 
L 579.510261 -430.87429 
L 566.06095 -424.39672 
L 552.611639 -417.91915 
L 539.162328 -411.44158 
L 525.713017 -404.96401 
L 512.263705 -398.48644 
L 498.814394 -392.00887 
L 485.365083 -385.531299 
L 471.915772 -379.053729 
L 458.46646 -372.576159 
L 445.017149 -366.098589 
L 431.567838 -359.621019 
L 418.118527 -353.143449 
L 404.669216 -346.665879 
L 391.219904 -340.188308 
L 377.770593 -333.710738 
L 364.321282 -327.233168 
L 350.871971 -320.755598 
L 337.422659 -314.278028 
L 323.973348 -307.800458 
L 310.524037 -301.322887 
L 297.074726 -294.845317 
L 283.625415 -288.367747 
L 270.176103 -281.890177 
L 256.726792 -275.412607 
L 243.277481 -268.935037 
L 229.82817 -262.457467 
L 216.378858 -255.979896 
L 202.929547 -249.502326 
L 189.480236 -243.024756 
L 176.030925 -236.547186 
L 162.581614 -230.069616 
L 149.132302 -223.592046 
L 135.682991 -217.114475 
L 122.23368 -210.636905 
L 108.784369 -204.159335 
L 95.335057 -197.681765 
L 81.885746 -191.204195 
L 68.436435 -184.726625 
L 54.987124 -178.249055 
L 41.537813 -171.771484 
z
" style="stroke: #ff0000; stroke-opacity: 0.15"/>
    </defs>
    <g clip-path="url(#p06a184f2a3)">
     <use xlink:href="#mbd7f88427b" x="0" y="494.385937" style="fill: #ff0000; fill-opacity: 0.15; stroke: #ff0000; stroke-opacity: 0.15"/>
    </g>
   </g>
   <g id="matplotlib.axis_1">
    <g id="xtick_1">
     <g id="line2d_1">
      <path d="M 41.537813 454.864844 
L 41.537813 31.663594 
" clip-path="url(#p06a184f2a3)" style="fill: none; stroke-dasharray: 1.85,0.8; stroke-dashoffset: 0; stroke: #b0b0b0; stroke-opacity: 0.3; stroke-width: 0.5"/>
     </g>
     <g id="line2d_2">
      <defs>
       <path id="mcc0c5e94c9" d="M 0 0 
L 0 3.5 
" style="stroke: #000000; stroke-width: 0.8"/>
      </defs>
      <g>
       <use xlink:href="#mcc0c5e94c9" x="41.537813" y="454.864844" style="stroke: #000000; stroke-width: 0.8"/>
      </g>
     </g>
     <g id="text_1">
      <!-- 1 -->
      <g transform="translate(38.479297 469.738437) scale(0.11 -0.11)">
       <defs>
        <path id="ArialMT-31" d="M 2384 0 
L 1822 0 
L 1822 3584 
Q 1619 3391 1289 3197 
Q 959 3003 697 2906 
L 697 3450 
Q 1169 3672 1522 3987 
Q 1875 4303 2022 4600 
L 2384 4600 
L 2384 0 
z
" transform="scale(0.015625)"/>
       </defs>
       <use xlink:href="#ArialMT-31"/>
      </g>
     </g>
    </g>
    <g id="xtick_2">
     <g id="line2d_3">
      <path d="M 151.373854 454.864844 
L 151.373854 31.663594 
" clip-path="url(#p06a184f2a3)" style="fill: none; stroke-dasharray: 1.85,0.8; stroke-dashoffset: 0; stroke: #b0b0b0; stroke-opacity: 0.3; stroke-width: 0.5"/>
     </g>
     <g id="line2d_4">
      <g>
       <use xlink:href="#mcc0c5e94c9" x="151.373854" y="454.864844" style="stroke: #000000; stroke-width: 0.8"/>
      </g>
     </g>
     <g id="text_2">
      <!-- 2 -->
      <g transform="translate(148.315339 469.738437) scale(0.11 -0.11)">
       <defs>
        <path id="ArialMT-32" d="M 3222 541 
L 3222 0 
L 194 0 
Q 188 203 259 391 
Q 375 700 629 1000 
Q 884 1300 1366 1694 
Q 2113 2306 2375 2664 
Q 2638 3022 2638 3341 
Q 2638 3675 2398 3904 
Q 2159 4134 1775 4134 
Q 1369 4134 1125 3890 
Q 881 3647 878 3216 
L 300 3275 
Q 359 3922 746 4261 
Q 1134 4600 1788 4600 
Q 2447 4600 2831 4234 
Q 3216 3869 3216 3328 
Q 3216 3053 3103 2787 
Q 2991 2522 2730 2228 
Q 2469 1934 1863 1422 
Q 1356 997 1212 845 
Q 1069 694 975 541 
L 3222 541 
z
" transform="scale(0.015625)"/>
       </defs>
       <use xlink:href="#ArialMT-32"/>
      </g>
     </g>
    </g>
    <g id="xtick_3">
     <g id="line2d_5">
      <path d="M 261.209896 454.864844 
L 261.209896 31.663594 
" clip-path="url(#p06a184f2a3)" style="fill: none; stroke-dasharray: 1.85,0.8; stroke-dashoffset: 0; stroke: #b0b0b0; stroke-opacity: 0.3; stroke-width: 0.5"/>
     </g>
     <g id="line2d_6">
      <g>
       <use xlink:href="#mcc0c5e94c9" x="261.209896" y="454.864844" style="stroke: #000000; stroke-width: 0.8"/>
      </g>
     </g>
     <g id="text_3">
      <!-- 3 -->
      <g transform="translate(258.15138 469.738437) scale(0.11 -0.11)">
       <defs>
        <path id="ArialMT-33" d="M 269 1209 
L 831 1284 
Q 928 806 1161 595 
Q 1394 384 1728 384 
Q 2125 384 2398 659 
Q 2672 934 2672 1341 
Q 2672 1728 2419 1979 
Q 2166 2231 1775 2231 
Q 1616 2231 1378 2169 
L 1441 2663 
Q 1497 2656 1531 2656 
Q 1891 2656 2178 2843 
Q 2466 3031 2466 3422 
Q 2466 3731 2256 3934 
Q 2047 4138 1716 4138 
Q 1388 4138 1169 3931 
Q 950 3725 888 3313 
L 325 3413 
Q 428 3978 793 4289 
Q 1159 4600 1703 4600 
Q 2078 4600 2393 4439 
Q 2709 4278 2876 4000 
Q 3044 3722 3044 3409 
Q 3044 3113 2884 2869 
Q 2725 2625 2413 2481 
Q 2819 2388 3044 2092 
Q 3269 1797 3269 1353 
Q 3269 753 2831 336 
Q 2394 -81 1725 -81 
Q 1122 -81 723 278 
Q 325 638 269 1209 
z
" transform="scale(0.015625)"/>
       </defs>
       <use xlink:href="#ArialMT-33"/>
      </g>
     </g>
    </g>
    <g id="xtick_4">
     <g id="line2d_7">
      <path d="M 371.045938 454.864844 
L 371.045938 31.663594 
" clip-path="url(#p06a184f2a3)" style="fill: none; stroke-dasharray: 1.85,0.8; stroke-dashoffset: 0; stroke: #b0b0b0; stroke-opacity: 0.3; stroke-width: 0.5"/>
     </g>
     <g id="line2d_8">
      <g>
       <use xlink:href="#mcc0c5e94c9" x="371.045938" y="454.864844" style="stroke: #000000; stroke-width: 0.8"/>
      </g>
     </g>
     <g id="text_4">
      <!-- 4 -->
      <g transform="translate(367.987422 469.738437) scale(0.11 -0.11)">
       <defs>
        <path id="ArialMT-34" d="M 2069 0 
L 2069 1097 
L 81 1097 
L 81 1613 
L 2172 4581 
L 2631 4581 
L 2631 1613 
L 3250 1613 
L 3250 1097 
L 2631 1097 
L 2631 0 
L 2069 0 
z
M 2069 1613 
L 2069 3678 
L 634 1613 
L 2069 1613 
z
" transform="scale(0.015625)"/>
       </defs>
       <use xlink:href="#ArialMT-34"/>
      </g>
     </g>
    </g>
    <g id="xtick_5">
     <g id="line2d_9">
      <path d="M 480.881979 454.864844 
L 480.881979 31.663594 
" clip-path="url(#p06a184f2a3)" style="fill: none; stroke-dasharray: 1.85,0.8; stroke-dashoffset: 0; stroke: #b0b0b0; stroke-opacity: 0.3; stroke-width: 0.5"/>
     </g>
     <g id="line2d_10">
      <g>
       <use xlink:href="#mcc0c5e94c9" x="480.881979" y="454.864844" style="stroke: #000000; stroke-width: 0.8"/>
      </g>
     </g>
     <g id="text_5">
      <!-- 5 -->
      <g transform="translate(477.823464 469.738437) scale(0.11 -0.11)">
       <defs>
        <path id="ArialMT-35" d="M 266 1200 
L 856 1250 
Q 922 819 1161 601 
Q 1400 384 1738 384 
Q 2144 384 2425 690 
Q 2706 997 2706 1503 
Q 2706 1984 2436 2262 
Q 2166 2541 1728 2541 
Q 1456 2541 1237 2417 
Q 1019 2294 894 2097 
L 366 2166 
L 809 4519 
L 3088 4519 
L 3088 3981 
L 1259 3981 
L 1013 2750 
Q 1425 3038 1878 3038 
Q 2478 3038 2890 2622 
Q 3303 2206 3303 1553 
Q 3303 931 2941 478 
Q 2500 -78 1738 -78 
Q 1113 -78 717 272 
Q 322 622 266 1200 
z
" transform="scale(0.015625)"/>
       </defs>
       <use xlink:href="#ArialMT-35"/>
      </g>
     </g>
    </g>
    <g id="xtick_6">
     <g id="line2d_11">
      <path d="M 590.718021 454.864844 
L 590.718021 31.663594 
" clip-path="url(#p06a184f2a3)" style="fill: none; stroke-dasharray: 1.85,0.8; stroke-dashoffset: 0; stroke: #b0b0b0; stroke-opacity: 0.3; stroke-width: 0.5"/>
     </g>
     <g id="line2d_12">
      <g>
       <use xlink:href="#mcc0c5e94c9" x="590.718021" y="454.864844" style="stroke: #000000; stroke-width: 0.8"/>
      </g>
     </g>
     <g id="text_6">
      <!-- 6 -->
      <g transform="translate(587.659505 469.738437) scale(0.11 -0.11)">
       <defs>
        <path id="ArialMT-36" d="M 3184 3459 
L 2625 3416 
Q 2550 3747 2413 3897 
Q 2184 4138 1850 4138 
Q 1581 4138 1378 3988 
Q 1113 3794 959 3422 
Q 806 3050 800 2363 
Q 1003 2672 1297 2822 
Q 1591 2972 1913 2972 
Q 2475 2972 2870 2558 
Q 3266 2144 3266 1488 
Q 3266 1056 3080 686 
Q 2894 316 2569 119 
Q 2244 -78 1831 -78 
Q 1128 -78 684 439 
Q 241 956 241 2144 
Q 241 3472 731 4075 
Q 1159 4600 1884 4600 
Q 2425 4600 2770 4297 
Q 3116 3994 3184 3459 
z
M 888 1484 
Q 888 1194 1011 928 
Q 1134 663 1356 523 
Q 1578 384 1822 384 
Q 2178 384 2434 671 
Q 2691 959 2691 1453 
Q 2691 1928 2437 2201 
Q 2184 2475 1800 2475 
Q 1419 2475 1153 2201 
Q 888 1928 888 1484 
z
" transform="scale(0.015625)"/>
       </defs>
       <use xlink:href="#ArialMT-36"/>
      </g>
     </g>
    </g>
    <g id="xtick_7">
     <g id="line2d_13">
      <path d="M 700.554063 454.864844 
L 700.554063 31.663594 
" clip-path="url(#p06a184f2a3)" style="fill: none; stroke-dasharray: 1.85,0.8; stroke-dashoffset: 0; stroke: #b0b0b0; stroke-opacity: 0.3; stroke-width: 0.5"/>
     </g>
     <g id="line2d_14">
      <g>
       <use xlink:href="#mcc0c5e94c9" x="700.554063" y="454.864844" style="stroke: #000000; stroke-width: 0.8"/>
      </g>
     </g>
     <g id="text_7">
      <!-- 7 -->
      <g transform="translate(697.495547 469.738437) scale(0.11 -0.11)">
       <defs>
        <path id="ArialMT-37" d="M 303 3981 
L 303 4522 
L 3269 4522 
L 3269 4084 
Q 2831 3619 2401 2847 
Q 1972 2075 1738 1259 
Q 1569 684 1522 0 
L 944 0 
Q 953 541 1156 1306 
Q 1359 2072 1739 2783 
Q 2119 3494 2547 3981 
L 303 3981 
z
" transform="scale(0.015625)"/>
       </defs>
       <use xlink:href="#ArialMT-37"/>
      </g>
     </g>
    </g>
    <g id="text_8">
     <!-- Cultural Contact (1-7 scale) -->
     <g transform="translate(293.368438 484.660312) scale(0.12 -0.12)">
      <defs>
       <path id="Arial-BoldMT-43" d="M 3397 1684 
L 4294 1400 
Q 4088 650 3608 286 
Q 3128 -78 2391 -78 
Q 1478 -78 890 545 
Q 303 1169 303 2250 
Q 303 3394 893 4026 
Q 1484 4659 2447 4659 
Q 3288 4659 3813 4163 
Q 4125 3869 4281 3319 
L 3366 3100 
Q 3284 3456 3026 3662 
Q 2769 3869 2400 3869 
Q 1891 3869 1573 3503 
Q 1256 3138 1256 2319 
Q 1256 1450 1568 1081 
Q 1881 713 2381 713 
Q 2750 713 3015 947 
Q 3281 1181 3397 1684 
z
" transform="scale(0.015625)"/>
       <path id="Arial-BoldMT-75" d="M 2644 0 
L 2644 497 
Q 2463 231 2167 78 
Q 1872 -75 1544 -75 
Q 1209 -75 943 72 
Q 678 219 559 484 
Q 441 750 441 1219 
L 441 3319 
L 1319 3319 
L 1319 1794 
Q 1319 1094 1367 936 
Q 1416 778 1544 686 
Q 1672 594 1869 594 
Q 2094 594 2272 717 
Q 2450 841 2515 1023 
Q 2581 1206 2581 1919 
L 2581 3319 
L 3459 3319 
L 3459 0 
L 2644 0 
z
" transform="scale(0.015625)"/>
       <path id="Arial-BoldMT-6c" d="M 459 0 
L 459 4581 
L 1338 4581 
L 1338 0 
L 459 0 
z
" transform="scale(0.015625)"/>
       <path id="Arial-BoldMT-74" d="M 1981 3319 
L 1981 2619 
L 1381 2619 
L 1381 1281 
Q 1381 875 1398 808 
Q 1416 741 1477 697 
Q 1538 653 1625 653 
Q 1747 653 1978 738 
L 2053 56 
Q 1747 -75 1359 -75 
Q 1122 -75 931 4 
Q 741 84 652 211 
Q 563 338 528 553 
Q 500 706 500 1172 
L 500 2619 
L 97 2619 
L 97 3319 
L 500 3319 
L 500 3978 
L 1381 4491 
L 1381 3319 
L 1981 3319 
z
" transform="scale(0.015625)"/>
       <path id="Arial-BoldMT-72" d="M 1300 0 
L 422 0 
L 422 3319 
L 1238 3319 
L 1238 2847 
Q 1447 3181 1614 3287 
Q 1781 3394 1994 3394 
Q 2294 3394 2572 3228 
L 2300 2463 
Q 2078 2606 1888 2606 
Q 1703 2606 1575 2504 
Q 1447 2403 1373 2137 
Q 1300 1872 1300 1025 
L 1300 0 
z
" transform="scale(0.015625)"/>
       <path id="Arial-BoldMT-61" d="M 1116 2306 
L 319 2450 
Q 453 2931 781 3162 
Q 1109 3394 1756 3394 
Q 2344 3394 2631 3255 
Q 2919 3116 3036 2902 
Q 3153 2688 3153 2116 
L 3144 1091 
Q 3144 653 3186 445 
Q 3228 238 3344 0 
L 2475 0 
Q 2441 88 2391 259 
Q 2369 338 2359 363 
Q 2134 144 1878 34 
Q 1622 -75 1331 -75 
Q 819 -75 523 203 
Q 228 481 228 906 
Q 228 1188 362 1408 
Q 497 1628 739 1745 
Q 981 1863 1438 1950 
Q 2053 2066 2291 2166 
L 2291 2253 
Q 2291 2506 2166 2614 
Q 2041 2722 1694 2722 
Q 1459 2722 1328 2630 
Q 1197 2538 1116 2306 
z
M 2291 1594 
Q 2122 1538 1756 1459 
Q 1391 1381 1278 1306 
Q 1106 1184 1106 997 
Q 1106 813 1243 678 
Q 1381 544 1594 544 
Q 1831 544 2047 700 
Q 2206 819 2256 991 
Q 2291 1103 2291 1419 
L 2291 1594 
z
" transform="scale(0.015625)"/>
       <path id="Arial-BoldMT-20" transform="scale(0.015625)"/>
       <path id="Arial-BoldMT-6f" d="M 256 1706 
Q 256 2144 472 2553 
Q 688 2963 1083 3178 
Q 1478 3394 1966 3394 
Q 2719 3394 3200 2905 
Q 3681 2416 3681 1669 
Q 3681 916 3195 420 
Q 2709 -75 1972 -75 
Q 1516 -75 1102 131 
Q 688 338 472 736 
Q 256 1134 256 1706 
z
M 1156 1659 
Q 1156 1166 1390 903 
Q 1625 641 1969 641 
Q 2313 641 2545 903 
Q 2778 1166 2778 1666 
Q 2778 2153 2545 2415 
Q 2313 2678 1969 2678 
Q 1625 2678 1390 2415 
Q 1156 2153 1156 1659 
z
" transform="scale(0.015625)"/>
       <path id="Arial-BoldMT-6e" d="M 3478 0 
L 2600 0 
L 2600 1694 
Q 2600 2231 2544 2389 
Q 2488 2547 2361 2634 
Q 2234 2722 2056 2722 
Q 1828 2722 1647 2597 
Q 1466 2472 1398 2265 
Q 1331 2059 1331 1503 
L 1331 0 
L 453 0 
L 453 3319 
L 1269 3319 
L 1269 2831 
Q 1703 3394 2363 3394 
Q 2653 3394 2893 3289 
Q 3134 3184 3257 3021 
Q 3381 2859 3429 2653 
Q 3478 2447 3478 2063 
L 3478 0 
z
" transform="scale(0.015625)"/>
       <path id="Arial-BoldMT-63" d="M 3353 2338 
L 2488 2181 
Q 2444 2441 2289 2572 
Q 2134 2703 1888 2703 
Q 1559 2703 1364 2476 
Q 1169 2250 1169 1719 
Q 1169 1128 1367 884 
Q 1566 641 1900 641 
Q 2150 641 2309 783 
Q 2469 925 2534 1272 
L 3397 1125 
Q 3263 531 2881 228 
Q 2500 -75 1859 -75 
Q 1131 -75 698 384 
Q 266 844 266 1656 
Q 266 2478 700 2936 
Q 1134 3394 1875 3394 
Q 2481 3394 2839 3133 
Q 3197 2872 3353 2338 
z
" transform="scale(0.015625)"/>
       <path id="Arial-BoldMT-28" d="M 1916 -1347 
L 1313 -1347 
Q 834 -625 584 153 
Q 334 931 334 1659 
Q 334 2563 644 3369 
Q 913 4069 1325 4659 
L 1925 4659 
Q 1497 3713 1336 3048 
Q 1175 2384 1175 1641 
Q 1175 1128 1270 590 
Q 1366 53 1531 -431 
Q 1641 -750 1916 -1347 
z
" transform="scale(0.015625)"/>
       <path id="Arial-BoldMT-31" d="M 2519 0 
L 1641 0 
L 1641 3309 
Q 1159 2859 506 2644 
L 506 3441 
Q 850 3553 1253 3867 
Q 1656 4181 1806 4600 
L 2519 4600 
L 2519 0 
z
" transform="scale(0.015625)"/>
       <path id="Arial-BoldMT-2d" d="M 359 1222 
L 359 2100 
L 2084 2100 
L 2084 1222 
L 359 1222 
z
" transform="scale(0.015625)"/>
       <path id="Arial-BoldMT-37" d="M 272 3703 
L 272 4519 
L 3275 4519 
L 3275 3881 
Q 2903 3516 2518 2831 
Q 2134 2147 1932 1376 
Q 1731 606 1734 0 
L 888 0 
Q 909 950 1279 1937 
Q 1650 2925 2269 3703 
L 272 3703 
z
" transform="scale(0.015625)"/>
       <path id="Arial-BoldMT-73" d="M 150 947 
L 1031 1081 
Q 1088 825 1259 692 
Q 1431 559 1741 559 
Q 2081 559 2253 684 
Q 2369 772 2369 919 
Q 2369 1019 2306 1084 
Q 2241 1147 2013 1200 
Q 950 1434 666 1628 
Q 272 1897 272 2375 
Q 272 2806 612 3100 
Q 953 3394 1669 3394 
Q 2350 3394 2681 3172 
Q 3013 2950 3138 2516 
L 2309 2363 
Q 2256 2556 2107 2659 
Q 1959 2763 1684 2763 
Q 1338 2763 1188 2666 
Q 1088 2597 1088 2488 
Q 1088 2394 1175 2328 
Q 1294 2241 1995 2081 
Q 2697 1922 2975 1691 
Q 3250 1456 3250 1038 
Q 3250 581 2869 253 
Q 2488 -75 1741 -75 
Q 1063 -75 667 200 
Q 272 475 150 947 
z
" transform="scale(0.015625)"/>
       <path id="Arial-BoldMT-65" d="M 2381 1056 
L 3256 909 
Q 3088 428 2723 176 
Q 2359 -75 1813 -75 
Q 947 -75 531 491 
Q 203 944 203 1634 
Q 203 2459 634 2926 
Q 1066 3394 1725 3394 
Q 2466 3394 2894 2905 
Q 3322 2416 3303 1406 
L 1103 1406 
Q 1113 1016 1316 798 
Q 1519 581 1822 581 
Q 2028 581 2168 693 
Q 2309 806 2381 1056 
z
M 2431 1944 
Q 2422 2325 2234 2523 
Q 2047 2722 1778 2722 
Q 1491 2722 1303 2513 
Q 1116 2303 1119 1944 
L 2431 1944 
z
" transform="scale(0.015625)"/>
       <path id="Arial-BoldMT-29" d="M 216 -1347 
Q 475 -791 581 -494 
Q 688 -197 778 190 
Q 869 578 912 926 
Q 956 1275 956 1641 
Q 956 2384 797 3048 
Q 638 3713 209 4659 
L 806 4659 
Q 1278 3988 1539 3234 
Q 1800 2481 1800 1706 
Q 1800 1053 1594 306 
Q 1359 -531 822 -1347 
L 216 -1347 
z
" transform="scale(0.015625)"/>
      </defs>
      <use xlink:href="#Arial-BoldMT-43"/>
      <use xlink:href="#Arial-BoldMT-75" transform="translate(72.216797 0)"/>
      <use xlink:href="#Arial-BoldMT-6c" transform="translate(133.300781 0)"/>
      <use xlink:href="#Arial-BoldMT-74" transform="translate(161.083984 0)"/>
      <use xlink:href="#Arial-BoldMT-75" transform="translate(194.384766 0)"/>
      <use xlink:href="#Arial-BoldMT-72" transform="translate(255.46875 0)"/>
      <use xlink:href="#Arial-BoldMT-61" transform="translate(294.384766 0)"/>
      <use xlink:href="#Arial-BoldMT-6c" transform="translate(350 0)"/>
      <use xlink:href="#Arial-BoldMT-20" transform="translate(377.783203 0)"/>
      <use xlink:href="#Arial-BoldMT-43" transform="translate(405.566406 0)"/>
      <use xlink:href="#Arial-BoldMT-6f" transform="translate(477.783203 0)"/>
      <use xlink:href="#Arial-BoldMT-6e" transform="translate(538.867188 0)"/>
      <use xlink:href="#Arial-BoldMT-74" transform="translate(599.951172 0)"/>
      <use xlink:href="#Arial-BoldMT-61" transform="translate(633.251953 0)"/>
      <use xlink:href="#Arial-BoldMT-63" transform="translate(688.867188 0)"/>
      <use xlink:href="#Arial-BoldMT-74" transform="translate(744.482422 0)"/>
      <use xlink:href="#Arial-BoldMT-20" transform="translate(777.783203 0)"/>
      <use xlink:href="#Arial-BoldMT-28" transform="translate(805.566406 0)"/>
      <use xlink:href="#Arial-BoldMT-31" transform="translate(838.867188 0)"/>
      <use xlink:href="#Arial-BoldMT-2d" transform="translate(894.482422 0)"/>
      <use xlink:href="#Arial-BoldMT-37" transform="translate(927.783203 0)"/>
      <use xlink:href="#Arial-BoldMT-20" transform="translate(983.398438 0)"/>
      <use xlink:href="#Arial-BoldMT-73" transform="translate(1011.181641 0)"/>
      <use xlink:href="#Arial-BoldMT-63" transform="translate(1066.796875 0)"/>
      <use xlink:href="#Arial-BoldMT-61" transform="translate(1122.412109 0)"/>
      <use xlink:href="#Arial-BoldMT-6c" transform="translate(1178.027344 0)"/>
      <use xlink:href="#Arial-BoldMT-65" transform="translate(1205.810547 0)"/>
      <use xlink:href="#Arial-BoldMT-29" transform="translate(1261.425781 0)"/>
     </g>
    </g>
   </g>
   <g id="matplotlib.axis_2">
    <g id="ytick_1">
     <g id="line2d_15">
      <path d="M 41.537813 419.598073 
L 700.554063 419.598073 
" clip-path="url(#p06a184f2a3)" style="fill: none; stroke-dasharray: 1.85,0.8; stroke-dashoffset: 0; stroke: #b0b0b0; stroke-opacity: 0.3; stroke-width: 0.5"/>
     </g>
     <g id="line2d_16">
      <defs>
       <path id="m86911f92b5" d="M 0 0 
L -3.5 0 
" style="stroke: #000000; stroke-width: 0.8"/>
      </defs>
      <g>
       <use xlink:href="#m86911f92b5" x="41.537813" y="419.598073" style="stroke: #000000; stroke-width: 0.8"/>
      </g>
     </g>
     <g id="text_9">
      <!-- 10 -->
      <g transform="translate(22.30375 423.53487) scale(0.11 -0.11)">
       <defs>
        <path id="ArialMT-30" d="M 266 2259 
Q 266 3072 433 3567 
Q 600 4063 929 4331 
Q 1259 4600 1759 4600 
Q 2128 4600 2406 4451 
Q 2684 4303 2865 4023 
Q 3047 3744 3150 3342 
Q 3253 2941 3253 2259 
Q 3253 1453 3087 958 
Q 2922 463 2592 192 
Q 2263 -78 1759 -78 
Q 1097 -78 719 397 
Q 266 969 266 2259 
z
M 844 2259 
Q 844 1131 1108 757 
Q 1372 384 1759 384 
Q 2147 384 2411 759 
Q 2675 1134 2675 2259 
Q 2675 3391 2411 3762 
Q 2147 4134 1753 4134 
Q 1366 4134 1134 3806 
Q 844 3388 844 2259 
z
" transform="scale(0.015625)"/>
       </defs>
       <use xlink:href="#ArialMT-31"/>
       <use xlink:href="#ArialMT-30" transform="translate(55.615234 0)"/>
      </g>
     </g>
    </g>
    <g id="ytick_2">
     <g id="line2d_17">
      <path d="M 41.537813 331.431146 
L 700.554063 331.431146 
" clip-path="url(#p06a184f2a3)" style="fill: none; stroke-dasharray: 1.85,0.8; stroke-dashoffset: 0; stroke: #b0b0b0; stroke-opacity: 0.3; stroke-width: 0.5"/>
     </g>
     <g id="line2d_18">
      <g>
       <use xlink:href="#m86911f92b5" x="41.537813" y="331.431146" style="stroke: #000000; stroke-width: 0.8"/>
      </g>
     </g>
     <g id="text_10">
      <!-- 15 -->
      <g transform="translate(22.30375 335.367943) scale(0.11 -0.11)">
       <use xlink:href="#ArialMT-31"/>
       <use xlink:href="#ArialMT-35" transform="translate(55.615234 0)"/>
      </g>
     </g>
    </g>
    <g id="ytick_3">
     <g id="line2d_19">
      <path d="M 41.537813 243.264219 
L 700.554063 243.264219 
" clip-path="url(#p06a184f2a3)" style="fill: none; stroke-dasharray: 1.85,0.8; stroke-dashoffset: 0; stroke: #b0b0b0; stroke-opacity: 0.3; stroke-width: 0.5"/>
     </g>
     <g id="line2d_20">
      <g>
       <use xlink:href="#m86911f92b5" x="41.537813" y="243.264219" style="stroke: #000000; stroke-width: 0.8"/>
      </g>
     </g>
     <g id="text_11">
      <!-- 20 -->
      <g transform="translate(22.30375 247.201016) scale(0.11 -0.11)">
       <use xlink:href="#ArialMT-32"/>
       <use xlink:href="#ArialMT-30" transform="translate(55.615234 0)"/>
      </g>
     </g>
    </g>
    <g id="ytick_4">
     <g id="line2d_21">
      <path d="M 41.537813 155.097292 
L 700.554063 155.097292 
" clip-path="url(#p06a184f2a3)" style="fill: none; stroke-dasharray: 1.85,0.8; stroke-dashoffset: 0; stroke: #b0b0b0; stroke-opacity: 0.3; stroke-width: 0.5"/>
     </g>
     <g id="line2d_22">
      <g>
       <use xlink:href="#m86911f92b5" x="41.537813" y="155.097292" style="stroke: #000000; stroke-width: 0.8"/>
      </g>
     </g>
     <g id="text_12">
      <!-- 25 -->
      <g transform="translate(22.30375 159.034089) scale(0.11 -0.11)">
       <use xlink:href="#ArialMT-32"/>
       <use xlink:href="#ArialMT-35" transform="translate(55.615234 0)"/>
      </g>
     </g>
    </g>
    <g id="ytick_5">
     <g id="line2d_23">
      <path d="M 41.537813 66.930365 
L 700.554063 66.930365 
" clip-path="url(#p06a184f2a3)" style="fill: none; stroke-dasharray: 1.85,0.8; stroke-dashoffset: 0; stroke: #b0b0b0; stroke-opacity: 0.3; stroke-width: 0.5"/>
     </g>
     <g id="line2d_24">
      <g>
       <use xlink:href="#m86911f92b5" x="41.537813" y="66.930365" style="stroke: #000000; stroke-width: 0.8"/>
      </g>
     </g>
     <g id="text_13">
      <!-- 30 -->
      <g transform="translate(22.30375 70.867161) scale(0.11 -0.11)">
       <use xlink:href="#ArialMT-33"/>
       <use xlink:href="#ArialMT-30" transform="translate(55.615234 0)"/>
      </g>
     </g>
    </g>
    <g id="text_14">
     <!-- Predicted Cross-Cultural Adaptation Score -->
     <g transform="translate(15.935625 365.053906) rotate(-90) scale(0.12 -0.12)">
      <defs>
       <path id="Arial-BoldMT-50" d="M 466 0 
L 466 4581 
L 1950 4581 
Q 2794 4581 3050 4513 
Q 3444 4409 3709 4064 
Q 3975 3719 3975 3172 
Q 3975 2750 3822 2462 
Q 3669 2175 3433 2011 
Q 3197 1847 2953 1794 
Q 2622 1728 1994 1728 
L 1391 1728 
L 1391 0 
L 466 0 
z
M 1391 3806 
L 1391 2506 
L 1897 2506 
Q 2444 2506 2628 2578 
Q 2813 2650 2917 2803 
Q 3022 2956 3022 3159 
Q 3022 3409 2875 3571 
Q 2728 3734 2503 3775 
Q 2338 3806 1838 3806 
L 1391 3806 
z
" transform="scale(0.015625)"/>
       <path id="Arial-BoldMT-64" d="M 3503 0 
L 2688 0 
L 2688 488 
Q 2484 203 2207 64 
Q 1931 -75 1650 -75 
Q 1078 -75 670 386 
Q 263 847 263 1672 
Q 263 2516 659 2955 
Q 1056 3394 1663 3394 
Q 2219 3394 2625 2931 
L 2625 4581 
L 3503 4581 
L 3503 0 
z
M 1159 1731 
Q 1159 1200 1306 963 
Q 1519 619 1900 619 
Q 2203 619 2415 876 
Q 2628 1134 2628 1647 
Q 2628 2219 2422 2470 
Q 2216 2722 1894 2722 
Q 1581 2722 1370 2473 
Q 1159 2225 1159 1731 
z
" transform="scale(0.015625)"/>
       <path id="Arial-BoldMT-69" d="M 459 3769 
L 459 4581 
L 1338 4581 
L 1338 3769 
L 459 3769 
z
M 459 0 
L 459 3319 
L 1338 3319 
L 1338 0 
L 459 0 
z
" transform="scale(0.015625)"/>
       <path id="Arial-BoldMT-41" d="M 4597 0 
L 3591 0 
L 3191 1041 
L 1359 1041 
L 981 0 
L 0 0 
L 1784 4581 
L 2763 4581 
L 4597 0 
z
M 2894 1813 
L 2263 3513 
L 1644 1813 
L 2894 1813 
z
" transform="scale(0.015625)"/>
       <path id="Arial-BoldMT-70" d="M 434 3319 
L 1253 3319 
L 1253 2831 
Q 1413 3081 1684 3237 
Q 1956 3394 2288 3394 
Q 2866 3394 3269 2941 
Q 3672 2488 3672 1678 
Q 3672 847 3265 386 
Q 2859 -75 2281 -75 
Q 2006 -75 1782 34 
Q 1559 144 1313 409 
L 1313 -1263 
L 434 -1263 
L 434 3319 
z
M 1303 1716 
Q 1303 1156 1525 889 
Q 1747 622 2066 622 
Q 2372 622 2575 867 
Q 2778 1113 2778 1672 
Q 2778 2194 2568 2447 
Q 2359 2700 2050 2700 
Q 1728 2700 1515 2451 
Q 1303 2203 1303 1716 
z
" transform="scale(0.015625)"/>
       <path id="Arial-BoldMT-53" d="M 231 1491 
L 1131 1578 
Q 1213 1125 1461 912 
Q 1709 700 2131 700 
Q 2578 700 2804 889 
Q 3031 1078 3031 1331 
Q 3031 1494 2936 1608 
Q 2841 1722 2603 1806 
Q 2441 1863 1863 2006 
Q 1119 2191 819 2459 
Q 397 2838 397 3381 
Q 397 3731 595 4036 
Q 794 4341 1167 4500 
Q 1541 4659 2069 4659 
Q 2931 4659 3367 4281 
Q 3803 3903 3825 3272 
L 2900 3231 
Q 2841 3584 2645 3739 
Q 2450 3894 2059 3894 
Q 1656 3894 1428 3728 
Q 1281 3622 1281 3444 
Q 1281 3281 1419 3166 
Q 1594 3019 2269 2859 
Q 2944 2700 3267 2529 
Q 3591 2359 3773 2064 
Q 3956 1769 3956 1334 
Q 3956 941 3737 597 
Q 3519 253 3119 86 
Q 2719 -81 2122 -81 
Q 1253 -81 787 320 
Q 322 722 231 1491 
z
" transform="scale(0.015625)"/>
      </defs>
      <use xlink:href="#Arial-BoldMT-50"/>
      <use xlink:href="#Arial-BoldMT-72" transform="translate(66.699219 0)"/>
      <use xlink:href="#Arial-BoldMT-65" transform="translate(105.615234 0)"/>
      <use xlink:href="#Arial-BoldMT-64" transform="translate(161.230469 0)"/>
      <use xlink:href="#Arial-BoldMT-69" transform="translate(222.314453 0)"/>
      <use xlink:href="#Arial-BoldMT-63" transform="translate(250.097656 0)"/>
      <use xlink:href="#Arial-BoldMT-74" transform="translate(305.712891 0)"/>
      <use xlink:href="#Arial-BoldMT-65" transform="translate(339.013672 0)"/>
      <use xlink:href="#Arial-BoldMT-64" transform="translate(394.628906 0)"/>
      <use xlink:href="#Arial-BoldMT-20" transform="translate(455.712891 0)"/>
      <use xlink:href="#Arial-BoldMT-43" transform="translate(483.496094 0)"/>
      <use xlink:href="#Arial-BoldMT-72" transform="translate(555.712891 0)"/>
      <use xlink:href="#Arial-BoldMT-6f" transform="translate(594.628906 0)"/>
      <use xlink:href="#Arial-BoldMT-73" transform="translate(655.712891 0)"/>
      <use xlink:href="#Arial-BoldMT-73" transform="translate(711.328125 0)"/>
      <use xlink:href="#Arial-BoldMT-2d" transform="translate(766.943359 0)"/>
      <use xlink:href="#Arial-BoldMT-43" transform="translate(800.244141 0)"/>
      <use xlink:href="#Arial-BoldMT-75" transform="translate(872.460938 0)"/>
      <use xlink:href="#Arial-BoldMT-6c" transform="translate(933.544922 0)"/>
      <use xlink:href="#Arial-BoldMT-74" transform="translate(961.328125 0)"/>
      <use xlink:href="#Arial-BoldMT-75" transform="translate(994.628906 0)"/>
      <use xlink:href="#Arial-BoldMT-72" transform="translate(1055.712891 0)"/>
      <use xlink:href="#Arial-BoldMT-61" transform="translate(1094.628906 0)"/>
      <use xlink:href="#Arial-BoldMT-6c" transform="translate(1150.244141 0)"/>
      <use xlink:href="#Arial-BoldMT-20" transform="translate(1178.027344 0)"/>
      <use xlink:href="#Arial-BoldMT-41" transform="translate(1202.060547 0)"/>
      <use xlink:href="#Arial-BoldMT-64" transform="translate(1274.277344 0)"/>
      <use xlink:href="#Arial-BoldMT-61" transform="translate(1335.361328 0)"/>
      <use xlink:href="#Arial-BoldMT-70" transform="translate(1390.976562 0)"/>
      <use xlink:href="#Arial-BoldMT-74" transform="translate(1452.060547 0)"/>
      <use xlink:href="#Arial-BoldMT-61" transform="translate(1485.361328 0)"/>
      <use xlink:href="#Arial-BoldMT-74" transform="translate(1540.976562 0)"/>
      <use xlink:href="#Arial-BoldMT-69" transform="translate(1574.277344 0)"/>
      <use xlink:href="#Arial-BoldMT-6f" transform="translate(1602.060547 0)"/>
      <use xlink:href="#Arial-BoldMT-6e" transform="translate(1663.144531 0)"/>
      <use xlink:href="#Arial-BoldMT-20" transform="translate(1724.228516 0)"/>
      <use xlink:href="#Arial-BoldMT-53" transform="translate(1752.011719 0)"/>
      <use xlink:href="#Arial-BoldMT-63" transform="translate(1818.710938 0)"/>
      <use xlink:href="#Arial-BoldMT-6f" transform="translate(1874.326172 0)"/>
      <use xlink:href="#Arial-BoldMT-72" transform="translate(1935.410156 0)"/>
      <use xlink:href="#Arial-BoldMT-65" transform="translate(1974.326172 0)"/>
     </g>
    </g>
   </g>
   <g id="line2d_25">
    <path d="M 41.537813 322.614453 
L 54.987124 319.375668 
L 68.436435 316.136883 
L 81.885746 312.898098 
L 95.335057 309.659313 
L 108.784369 306.420528 
L 122.23368 303.181743 
L 135.682991 299.942958 
L 149.132302 296.704173 
L 162.581614 293.465387 
L 176.030925 290.226602 
L 189.480236 286.987817 
L 202.929547 283.749032 
L 216.378858 280.510247 
L 229.82817 277.271462 
L 243.277481 274.032677 
L 256.726792 270.793892 
L 270.176103 267.555107 
L 283.625415 264.316322 
L 297.074726 261.077537 
L 310.524037 257.838752 
L 323.973348 254.599967 
L 337.422659 251.361181 
L 350.871971 248.122396 
L 364.321282 244.883611 
L 377.770593 241.644826 
L 391.219904 238.406041 
L 404.669216 235.167256 
L 418.118527 231.928471 
L 431.567838 228.689686 
L 445.017149 225.450901 
L 458.46646 222.212116 
L 471.915772 218.973331 
L 485.365083 215.734546 
L 498.814394 212.495761 
L 512.263705 209.256975 
L 525.713017 206.01819 
L 539.162328 202.779405 
L 552.611639 199.54062 
L 566.06095 196.301835 
L 579.510261 193.06305 
L 592.959573 189.824265 
L 606.408884 186.58548 
L 619.858195 183.346695 
L 633.307506 180.10791 
L 646.756818 176.869125 
L 660.206129 173.63034 
L 673.65544 170.391555 
L 687.104751 167.152769 
L 700.554063 163.913984 
" clip-path="url(#p06a184f2a3)" style="fill: none; stroke-dasharray: 9.25,4; stroke-dashoffset: 0; stroke: #0000ff; stroke-width: 2.5"/>
    <defs>
     <path id="m99c4f39176" d="M 0 3 
C 0.795609 3 1.55874 2.683901 2.12132 2.12132 
C 2.683901 1.55874 3 0.795609 3 0 
C 3 -0.795609 2.683901 -1.55874 2.12132 -2.12132 
C 1.55874 -2.683901 0.795609 -3 0 -3 
C -0.795609 -3 -1.55874 -2.683901 -2.12132 -2.12132 
C -2.683901 -1.55874 -3 -0.795609 -3 0 
C -3 0.795609 -2.683901 1.55874 -2.12132 2.12132 
C -1.55874 2.683901 -0.795609 3 0 3 
z
" style="stroke: #0000ff"/>
    </defs>
    <g clip-path="url(#p06a184f2a3)">
     <use xlink:href="#m99c4f39176" x="41.537813" y="322.614453" style="fill: #0000ff; stroke: #0000ff"/>
     <use xlink:href="#m99c4f39176" x="176.030925" y="290.226602" style="fill: #0000ff; stroke: #0000ff"/>
     <use xlink:href="#m99c4f39176" x="310.524037" y="257.838752" style="fill: #0000ff; stroke: #0000ff"/>
     <use xlink:href="#m99c4f39176" x="445.017149" y="225.450901" style="fill: #0000ff; stroke: #0000ff"/>
     <use xlink:href="#m99c4f39176" x="579.510261" y="193.06305" style="fill: #0000ff; stroke: #0000ff"/>
    </g>
   </g>
   <g id="line2d_26">
    <path d="M 41.537813 349.064531 
L 54.987124 342.586961 
L 68.436435 336.109391 
L 81.885746 329.631821 
L 95.335057 323.154251 
L 108.784369 316.67668 
L 122.23368 310.19911 
L 135.682991 303.72154 
L 149.132302 297.24397 
L 162.581614 290.7664 
L 176.030925 284.28883 
L 189.480236 277.81126 
L 202.929547 271.333689 
L 216.378858 264.856119 
L 229.82817 258.378549 
L 243.277481 251.900979 
L 256.726792 245.423409 
L 270.176103 238.945839 
L 283.625415 232.468268 
L 297.074726 225.990698 
L 310.524037 219.513128 
L 323.973348 213.035558 
L 337.422659 206.557988 
L 350.871971 200.080418 
L 364.321282 193.602848 
L 377.770593 187.125277 
L 391.219904 180.647707 
L 404.669216 174.170137 
L 418.118527 167.692567 
L 431.567838 161.214997 
L 445.017149 154.737427 
L 458.46646 148.259857 
L 471.915772 141.782286 
L 485.365083 135.304716 
L 498.814394 128.827146 
L 512.263705 122.349576 
L 525.713017 115.872006 
L 539.162328 109.394436 
L 552.611639 102.916865 
L 566.06095 96.439295 
L 579.510261 89.961725 
L 592.959573 83.484155 
L 606.408884 77.006585 
L 619.858195 70.529015 
L 633.307506 64.051445 
L 646.756818 57.573874 
L 660.206129 51.096304 
L 673.65544 44.618734 
L 687.104751 38.141164 
L 700.554063 31.663594 
" clip-path="url(#p06a184f2a3)" style="fill: none; stroke: #ff0000; stroke-width: 2.5; stroke-linecap: square"/>
    <defs>
     <path id="mbbc48cc5e6" d="M -3 3 
L 3 3 
L 3 -3 
L -3 -3 
z
" style="stroke: #ff0000; stroke-linejoin: miter"/>
    </defs>
    <g clip-path="url(#p06a184f2a3)">
     <use xlink:href="#mbbc48cc5e6" x="41.537813" y="349.064531" style="fill: #ff0000; stroke: #ff0000; stroke-linejoin: miter"/>
     <use xlink:href="#mbbc48cc5e6" x="176.030925" y="284.28883" style="fill: #ff0000; stroke: #ff0000; stroke-linejoin: miter"/>
     <use xlink:href="#mbbc48cc5e6" x="310.524037" y="219.513128" style="fill: #ff0000; stroke: #ff0000; stroke-linejoin: miter"/>
     <use xlink:href="#mbbc48cc5e6" x="445.017149" y="154.737427" style="fill: #ff0000; stroke: #ff0000; stroke-linejoin: miter"/>
     <use xlink:href="#mbbc48cc5e6" x="579.510261" y="89.961725" style="fill: #ff0000; stroke: #ff0000; stroke-linejoin: miter"/>
    </g>
   </g>
   <g id="patch_3">
    <path d="M 41.537813 454.864844 
L 41.537813 31.663594 
" style="fill: none; stroke: #000000; stroke-width: 0.8; stroke-linejoin: miter; stroke-linecap: square"/>
   </g>
   <g id="patch_4">
    <path d="M 700.554063 454.864844 
L 700.554063 31.663594 
" style="fill: none; stroke: #000000; stroke-width: 0.8; stroke-linejoin: miter; stroke-linecap: square"/>
   </g>
   <g id="patch_5">
    <path d="M 41.537813 454.864844 
L 700.554063 454.864844 
" style="fill: none; stroke: #000000; stroke-width: 0.8; stroke-linejoin: miter; stroke-linecap: square"/>
   </g>
   <g id="patch_6">
    <path d="M 41.537813 31.663594 
L 700.554063 31.663594 
" style="fill: none; stroke: #000000; stroke-width: 0.8; stroke-linejoin: miter; stroke-linecap: square"/>
   </g>
   <g id="patch_7">
    <path d="M 421.785704 90.808319 
Q 477.869061 113.758089 532.400292 136.072718 
" style="fill: none; stroke: #000000; stroke-width: 1.5; stroke-linecap: round"/>
    <path d="M 529.455708 132.706796 
L 532.400292 136.072718 
L 527.940804 136.408832 
" style="fill: none; stroke: #000000; stroke-width: 1.5; stroke-linecap: round"/>
   </g>
   <g id="text_15">
    <g id="patch_8">
     <path d="M 316.127917 89.55125 
L 432.307604 89.55125 
Q 435.307604 89.55125 435.307604 86.55125 
L 435.307604 56.017812 
Q 435.307604 53.017812 432.307604 53.017812 
L 316.127917 53.017812 
Q 313.127917 53.017812 313.127917 56.017812 
L 313.127917 86.55125 
Q 313.127917 89.55125 316.127917 89.55125 
z
" style="fill: #ffffe0; opacity: 0.9; stroke: #000000; stroke-linejoin: miter"/>
    </g>
    <!-- High openness individuals -->
    <g transform="translate(316.127917 63.292812) scale(0.1 -0.1)">
     <defs>
      <path id="ArialMT-48" d="M 513 0 
L 513 4581 
L 1119 4581 
L 1119 2700 
L 3500 2700 
L 3500 4581 
L 4106 4581 
L 4106 0 
L 3500 0 
L 3500 2159 
L 1119 2159 
L 1119 0 
L 513 0 
z
" transform="scale(0.015625)"/>
      <path id="ArialMT-69" d="M 425 3934 
L 425 4581 
L 988 4581 
L 988 3934 
L 425 3934 
z
M 425 0 
L 425 3319 
L 988 3319 
L 988 0 
L 425 0 
z
" transform="scale(0.015625)"/>
      <path id="ArialMT-67" d="M 319 -275 
L 866 -356 
Q 900 -609 1056 -725 
Q 1266 -881 1628 -881 
Q 2019 -881 2231 -725 
Q 2444 -569 2519 -288 
Q 2563 -116 2559 434 
Q 2191 0 1641 0 
Q 956 0 581 494 
Q 206 988 206 1678 
Q 206 2153 378 2554 
Q 550 2956 876 3175 
Q 1203 3394 1644 3394 
Q 2231 3394 2613 2919 
L 2613 3319 
L 3131 3319 
L 3131 450 
Q 3131 -325 2973 -648 
Q 2816 -972 2473 -1159 
Q 2131 -1347 1631 -1347 
Q 1038 -1347 672 -1080 
Q 306 -813 319 -275 
z
M 784 1719 
Q 784 1066 1043 766 
Q 1303 466 1694 466 
Q 2081 466 2343 764 
Q 2606 1063 2606 1700 
Q 2606 2309 2336 2618 
Q 2066 2928 1684 2928 
Q 1309 2928 1046 2623 
Q 784 2319 784 1719 
z
" transform="scale(0.015625)"/>
      <path id="ArialMT-68" d="M 422 0 
L 422 4581 
L 984 4581 
L 984 2938 
Q 1378 3394 1978 3394 
Q 2347 3394 2619 3248 
Q 2891 3103 3008 2847 
Q 3125 2591 3125 2103 
L 3125 0 
L 2563 0 
L 2563 2103 
Q 2563 2525 2380 2717 
Q 2197 2909 1863 2909 
Q 1613 2909 1392 2779 
Q 1172 2650 1078 2428 
Q 984 2206 984 1816 
L 984 0 
L 422 0 
z
" transform="scale(0.015625)"/>
      <path id="ArialMT-20" transform="scale(0.015625)"/>
      <path id="ArialMT-6f" d="M 213 1659 
Q 213 2581 725 3025 
Q 1153 3394 1769 3394 
Q 2453 3394 2887 2945 
Q 3322 2497 3322 1706 
Q 3322 1066 3130 698 
Q 2938 331 2570 128 
Q 2203 -75 1769 -75 
Q 1072 -75 642 372 
Q 213 819 213 1659 
z
M 791 1659 
Q 791 1022 1069 705 
Q 1347 388 1769 388 
Q 2188 388 2466 706 
Q 2744 1025 2744 1678 
Q 2744 2294 2464 2611 
Q 2184 2928 1769 2928 
Q 1347 2928 1069 2612 
Q 791 2297 791 1659 
z
" transform="scale(0.015625)"/>
      <path id="ArialMT-70" d="M 422 -1272 
L 422 3319 
L 934 3319 
L 934 2888 
Q 1116 3141 1344 3267 
Q 1572 3394 1897 3394 
Q 2322 3394 2647 3175 
Q 2972 2956 3137 2557 
Q 3303 2159 3303 1684 
Q 3303 1175 3120 767 
Q 2938 359 2589 142 
Q 2241 -75 1856 -75 
Q 1575 -75 1351 44 
Q 1128 163 984 344 
L 984 -1272 
L 422 -1272 
z
M 931 1641 
Q 931 1000 1190 694 
Q 1450 388 1819 388 
Q 2194 388 2461 705 
Q 2728 1022 2728 1688 
Q 2728 2322 2467 2637 
Q 2206 2953 1844 2953 
Q 1484 2953 1207 2617 
Q 931 2281 931 1641 
z
" transform="scale(0.015625)"/>
      <path id="ArialMT-65" d="M 2694 1069 
L 3275 997 
Q 3138 488 2766 206 
Q 2394 -75 1816 -75 
Q 1088 -75 661 373 
Q 234 822 234 1631 
Q 234 2469 665 2931 
Q 1097 3394 1784 3394 
Q 2450 3394 2872 2941 
Q 3294 2488 3294 1666 
Q 3294 1616 3291 1516 
L 816 1516 
Q 847 969 1125 678 
Q 1403 388 1819 388 
Q 2128 388 2347 550 
Q 2566 713 2694 1069 
z
M 847 1978 
L 2700 1978 
Q 2663 2397 2488 2606 
Q 2219 2931 1791 2931 
Q 1403 2931 1139 2672 
Q 875 2413 847 1978 
z
" transform="scale(0.015625)"/>
      <path id="ArialMT-6e" d="M 422 0 
L 422 3319 
L 928 3319 
L 928 2847 
Q 1294 3394 1984 3394 
Q 2284 3394 2536 3286 
Q 2788 3178 2913 3003 
Q 3038 2828 3088 2588 
Q 3119 2431 3119 2041 
L 3119 0 
L 2556 0 
L 2556 2019 
Q 2556 2363 2490 2533 
Q 2425 2703 2258 2804 
Q 2091 2906 1866 2906 
Q 1506 2906 1245 2678 
Q 984 2450 984 1813 
L 984 0 
L 422 0 
z
" transform="scale(0.015625)"/>
      <path id="ArialMT-73" d="M 197 991 
L 753 1078 
Q 800 744 1014 566 
Q 1228 388 1613 388 
Q 2000 388 2187 545 
Q 2375 703 2375 916 
Q 2375 1106 2209 1216 
Q 2094 1291 1634 1406 
Q 1016 1563 777 1677 
Q 538 1791 414 1992 
Q 291 2194 291 2438 
Q 291 2659 392 2848 
Q 494 3038 669 3163 
Q 800 3259 1026 3326 
Q 1253 3394 1513 3394 
Q 1903 3394 2198 3281 
Q 2494 3169 2634 2976 
Q 2775 2784 2828 2463 
L 2278 2388 
Q 2241 2644 2061 2787 
Q 1881 2931 1553 2931 
Q 1166 2931 1000 2803 
Q 834 2675 834 2503 
Q 834 2394 903 2306 
Q 972 2216 1119 2156 
Q 1203 2125 1616 2013 
Q 2213 1853 2448 1751 
Q 2684 1650 2818 1456 
Q 2953 1263 2953 975 
Q 2953 694 2789 445 
Q 2625 197 2315 61 
Q 2006 -75 1616 -75 
Q 969 -75 630 194 
Q 291 463 197 991 
z
" transform="scale(0.015625)"/>
      <path id="ArialMT-64" d="M 2575 0 
L 2575 419 
Q 2259 -75 1647 -75 
Q 1250 -75 917 144 
Q 584 363 401 755 
Q 219 1147 219 1656 
Q 219 2153 384 2558 
Q 550 2963 881 3178 
Q 1213 3394 1622 3394 
Q 1922 3394 2156 3267 
Q 2391 3141 2538 2938 
L 2538 4581 
L 3097 4581 
L 3097 0 
L 2575 0 
z
M 797 1656 
Q 797 1019 1065 703 
Q 1334 388 1700 388 
Q 2069 388 2326 689 
Q 2584 991 2584 1609 
Q 2584 2291 2321 2609 
Q 2059 2928 1675 2928 
Q 1300 2928 1048 2622 
Q 797 2316 797 1656 
z
" transform="scale(0.015625)"/>
      <path id="ArialMT-76" d="M 1344 0 
L 81 3319 
L 675 3319 
L 1388 1331 
Q 1503 1009 1600 663 
Q 1675 925 1809 1294 
L 2547 3319 
L 3125 3319 
L 1869 0 
L 1344 0 
z
" transform="scale(0.015625)"/>
      <path id="ArialMT-75" d="M 2597 0 
L 2597 488 
Q 2209 -75 1544 -75 
Q 1250 -75 995 37 
Q 741 150 617 320 
Q 494 491 444 738 
Q 409 903 409 1263 
L 409 3319 
L 972 3319 
L 972 1478 
Q 972 1038 1006 884 
Q 1059 663 1231 536 
Q 1403 409 1656 409 
Q 1909 409 2131 539 
Q 2353 669 2445 892 
Q 2538 1116 2538 1541 
L 2538 3319 
L 3100 3319 
L 3100 0 
L 2597 0 
z
" transform="scale(0.015625)"/>
      <path id="ArialMT-61" d="M 2588 409 
Q 2275 144 1986 34 
Q 1697 -75 1366 -75 
Q 819 -75 525 192 
Q 231 459 231 875 
Q 231 1119 342 1320 
Q 453 1522 633 1644 
Q 813 1766 1038 1828 
Q 1203 1872 1538 1913 
Q 2219 1994 2541 2106 
Q 2544 2222 2544 2253 
Q 2544 2597 2384 2738 
Q 2169 2928 1744 2928 
Q 1347 2928 1158 2789 
Q 969 2650 878 2297 
L 328 2372 
Q 403 2725 575 2942 
Q 747 3159 1072 3276 
Q 1397 3394 1825 3394 
Q 2250 3394 2515 3294 
Q 2781 3194 2906 3042 
Q 3031 2891 3081 2659 
Q 3109 2516 3109 2141 
L 3109 1391 
Q 3109 606 3145 398 
Q 3181 191 3288 0 
L 2700 0 
Q 2613 175 2588 409 
z
M 2541 1666 
Q 2234 1541 1622 1453 
Q 1275 1403 1131 1340 
Q 988 1278 909 1158 
Q 831 1038 831 891 
Q 831 666 1001 516 
Q 1172 366 1500 366 
Q 1825 366 2078 508 
Q 2331 650 2450 897 
Q 2541 1088 2541 1459 
L 2541 1666 
z
" transform="scale(0.015625)"/>
      <path id="ArialMT-6c" d="M 409 0 
L 409 4581 
L 972 4581 
L 972 0 
L 409 0 
z
" transform="scale(0.015625)"/>
     </defs>
     <use xlink:href="#ArialMT-48"/>
     <use xlink:href="#ArialMT-69" transform="translate(72.216797 0)"/>
     <use xlink:href="#ArialMT-67" transform="translate(94.433594 0)"/>
     <use xlink:href="#ArialMT-68" transform="translate(150.048828 0)"/>
     <use xlink:href="#ArialMT-20" transform="translate(205.664062 0)"/>
     <use xlink:href="#ArialMT-6f" transform="translate(233.447266 0)"/>
     <use xlink:href="#ArialMT-70" transform="translate(289.0625 0)"/>
     <use xlink:href="#ArialMT-65" transform="translate(344.677734 0)"/>
     <use xlink:href="#ArialMT-6e" transform="translate(400.292969 0)"/>
     <use xlink:href="#ArialMT-6e" transform="translate(455.908203 0)"/>
     <use xlink:href="#ArialMT-65" transform="translate(511.523438 0)"/>
     <use xlink:href="#ArialMT-73" transform="translate(567.138672 0)"/>
     <use xlink:href="#ArialMT-73" transform="translate(617.138672 0)"/>
     <use xlink:href="#ArialMT-20" transform="translate(667.138672 0)"/>
     <use xlink:href="#ArialMT-69" transform="translate(694.921875 0)"/>
     <use xlink:href="#ArialMT-6e" transform="translate(717.138672 0)"/>
     <use xlink:href="#ArialMT-64" transform="translate(772.753906 0)"/>
     <use xlink:href="#ArialMT-69" transform="translate(828.369141 0)"/>
     <use xlink:href="#ArialMT-76" transform="translate(850.585938 0)"/>
     <use xlink:href="#ArialMT-69" transform="translate(900.585938 0)"/>
     <use xlink:href="#ArialMT-64" transform="translate(922.802734 0)"/>
     <use xlink:href="#ArialMT-75" transform="translate(978.417969 0)"/>
     <use xlink:href="#ArialMT-61" transform="translate(1034.033203 0)"/>
     <use xlink:href="#ArialMT-6c" transform="translate(1089.648438 0)"/>
     <use xlink:href="#ArialMT-73" transform="translate(1111.865234 0)"/>
    </g>
    <!-- benefit 2.9× more from -->
    <g transform="translate(316.127917 73.986875) scale(0.1 -0.1)">
     <defs>
      <path id="ArialMT-62" d="M 941 0 
L 419 0 
L 419 4581 
L 981 4581 
L 981 2947 
Q 1338 3394 1891 3394 
Q 2197 3394 2470 3270 
Q 2744 3147 2920 2923 
Q 3097 2700 3197 2384 
Q 3297 2069 3297 1709 
Q 3297 856 2875 390 
Q 2453 -75 1863 -75 
Q 1275 -75 941 416 
L 941 0 
z
M 934 1684 
Q 934 1088 1097 822 
Q 1363 388 1816 388 
Q 2184 388 2453 708 
Q 2722 1028 2722 1663 
Q 2722 2313 2464 2622 
Q 2206 2931 1841 2931 
Q 1472 2931 1203 2611 
Q 934 2291 934 1684 
z
" transform="scale(0.015625)"/>
      <path id="ArialMT-66" d="M 556 0 
L 556 2881 
L 59 2881 
L 59 3319 
L 556 3319 
L 556 3672 
Q 556 4006 616 4169 
Q 697 4388 901 4523 
Q 1106 4659 1475 4659 
Q 1713 4659 2000 4603 
L 1916 4113 
Q 1741 4144 1584 4144 
Q 1328 4144 1222 4034 
Q 1116 3925 1116 3625 
L 1116 3319 
L 1763 3319 
L 1763 2881 
L 1116 2881 
L 1116 0 
L 556 0 
z
" transform="scale(0.015625)"/>
      <path id="ArialMT-74" d="M 1650 503 
L 1731 6 
Q 1494 -44 1306 -44 
Q 1000 -44 831 53 
Q 663 150 594 308 
Q 525 466 525 972 
L 525 2881 
L 113 2881 
L 113 3319 
L 525 3319 
L 525 4141 
L 1084 4478 
L 1084 3319 
L 1650 3319 
L 1650 2881 
L 1084 2881 
L 1084 941 
Q 1084 700 1114 631 
Q 1144 563 1211 522 
Q 1278 481 1403 481 
Q 1497 481 1650 503 
z
" transform="scale(0.015625)"/>
      <path id="ArialMT-2e" d="M 581 0 
L 581 641 
L 1222 641 
L 1222 0 
L 581 0 
z
" transform="scale(0.015625)"/>
      <path id="ArialMT-39" d="M 350 1059 
L 891 1109 
Q 959 728 1153 556 
Q 1347 384 1650 384 
Q 1909 384 2104 503 
Q 2300 622 2425 820 
Q 2550 1019 2634 1356 
Q 2719 1694 2719 2044 
Q 2719 2081 2716 2156 
Q 2547 1888 2255 1720 
Q 1963 1553 1622 1553 
Q 1053 1553 659 1965 
Q 266 2378 266 3053 
Q 266 3750 677 4175 
Q 1088 4600 1706 4600 
Q 2153 4600 2523 4359 
Q 2894 4119 3086 3673 
Q 3278 3228 3278 2384 
Q 3278 1506 3087 986 
Q 2897 466 2520 194 
Q 2144 -78 1638 -78 
Q 1100 -78 759 220 
Q 419 519 350 1059 
z
M 2653 3081 
Q 2653 3566 2395 3850 
Q 2138 4134 1775 4134 
Q 1400 4134 1122 3828 
Q 844 3522 844 3034 
Q 844 2597 1108 2323 
Q 1372 2050 1759 2050 
Q 2150 2050 2401 2323 
Q 2653 2597 2653 3081 
z
" transform="scale(0.015625)"/>
      <path id="ArialMT-d7" d="M 503 1278 
L 1488 2263 
L 506 3244 
L 888 3625 
L 1869 2644 
L 2847 3622 
L 3222 3244 
L 2247 2266 
L 3228 1284 
L 2847 903 
L 1866 1884 
L 881 900 
L 503 1278 
z
" transform="scale(0.015625)"/>
      <path id="ArialMT-6d" d="M 422 0 
L 422 3319 
L 925 3319 
L 925 2853 
Q 1081 3097 1340 3245 
Q 1600 3394 1931 3394 
Q 2300 3394 2536 3241 
Q 2772 3088 2869 2813 
Q 3263 3394 3894 3394 
Q 4388 3394 4653 3120 
Q 4919 2847 4919 2278 
L 4919 0 
L 4359 0 
L 4359 2091 
Q 4359 2428 4304 2576 
Q 4250 2725 4106 2815 
Q 3963 2906 3769 2906 
Q 3419 2906 3187 2673 
Q 2956 2441 2956 1928 
L 2956 0 
L 2394 0 
L 2394 2156 
Q 2394 2531 2256 2718 
Q 2119 2906 1806 2906 
Q 1569 2906 1367 2781 
Q 1166 2656 1075 2415 
Q 984 2175 984 1722 
L 984 0 
L 422 0 
z
" transform="scale(0.015625)"/>
      <path id="ArialMT-72" d="M 416 0 
L 416 3319 
L 922 3319 
L 922 2816 
Q 1116 3169 1280 3281 
Q 1444 3394 1641 3394 
Q 1925 3394 2219 3213 
L 2025 2691 
Q 1819 2813 1613 2813 
Q 1428 2813 1281 2702 
Q 1134 2591 1072 2394 
Q 978 2094 978 1738 
L 978 0 
L 416 0 
z
" transform="scale(0.015625)"/>
     </defs>
     <use xlink:href="#ArialMT-62"/>
     <use xlink:href="#ArialMT-65" transform="translate(55.615234 0)"/>
     <use xlink:href="#ArialMT-6e" transform="translate(111.230469 0)"/>
     <use xlink:href="#ArialMT-65" transform="translate(166.845703 0)"/>
     <use xlink:href="#ArialMT-66" transform="translate(222.460938 0)"/>
     <use xlink:href="#ArialMT-69" transform="translate(250.244141 0)"/>
     <use xlink:href="#ArialMT-74" transform="translate(272.460938 0)"/>
     <use xlink:href="#ArialMT-20" transform="translate(300.244141 0)"/>
     <use xlink:href="#ArialMT-32" transform="translate(328.027344 0)"/>
     <use xlink:href="#ArialMT-2e" transform="translate(383.642578 0)"/>
     <use xlink:href="#ArialMT-39" transform="translate(411.425781 0)"/>
     <use xlink:href="#ArialMT-d7" transform="translate(467.041016 0)"/>
     <use xlink:href="#ArialMT-20" transform="translate(525.439453 0)"/>
     <use xlink:href="#ArialMT-6d" transform="translate(553.222656 0)"/>
     <use xlink:href="#ArialMT-6f" transform="translate(636.523438 0)"/>
     <use xlink:href="#ArialMT-72" transform="translate(692.138672 0)"/>
     <use xlink:href="#ArialMT-65" transform="translate(725.439453 0)"/>
     <use xlink:href="#ArialMT-20" transform="translate(781.054688 0)"/>
     <use xlink:href="#ArialMT-66" transform="translate(808.837891 0)"/>
     <use xlink:href="#ArialMT-72" transform="translate(836.621094 0)"/>
     <use xlink:href="#ArialMT-6f" transform="translate(869.921875 0)"/>
     <use xlink:href="#ArialMT-6d" transform="translate(925.537109 0)"/>
    </g>
    <!-- cultural contact -->
    <g transform="translate(316.127917 84.56375) scale(0.1 -0.1)">
     <defs>
      <path id="ArialMT-63" d="M 2588 1216 
L 3141 1144 
Q 3050 572 2676 248 
Q 2303 -75 1759 -75 
Q 1078 -75 664 370 
Q 250 816 250 1647 
Q 250 2184 428 2587 
Q 606 2991 970 3192 
Q 1334 3394 1763 3394 
Q 2303 3394 2647 3120 
Q 2991 2847 3088 2344 
L 2541 2259 
Q 2463 2594 2264 2762 
Q 2066 2931 1784 2931 
Q 1359 2931 1093 2626 
Q 828 2322 828 1663 
Q 828 994 1084 691 
Q 1341 388 1753 388 
Q 2084 388 2306 591 
Q 2528 794 2588 1216 
z
" transform="scale(0.015625)"/>
     </defs>
     <use xlink:href="#ArialMT-63"/>
     <use xlink:href="#ArialMT-75" transform="translate(50 0)"/>
     <use xlink:href="#ArialMT-6c" transform="translate(105.615234 0)"/>
     <use xlink:href="#ArialMT-74" transform="translate(127.832031 0)"/>
     <use xlink:href="#ArialMT-75" transform="translate(155.615234 0)"/>
     <use xlink:href="#ArialMT-72" transform="translate(211.230469 0)"/>
     <use xlink:href="#ArialMT-61" transform="translate(244.53125 0)"/>
     <use xlink:href="#ArialMT-6c" transform="translate(300.146484 0)"/>
     <use xlink:href="#ArialMT-20" transform="translate(322.363281 0)"/>
     <use xlink:href="#ArialMT-63" transform="translate(350.146484 0)"/>
     <use xlink:href="#ArialMT-6f" transform="translate(400.146484 0)"/>
     <use xlink:href="#ArialMT-6e" transform="translate(455.761719 0)"/>
     <use xlink:href="#ArialMT-74" transform="translate(511.376953 0)"/>
     <use xlink:href="#ArialMT-61" transform="translate(539.160156 0)"/>
     <use xlink:href="#ArialMT-63" transform="translate(594.775391 0)"/>
     <use xlink:href="#ArialMT-74" transform="translate(644.775391 0)"/>
    </g>
   </g>
   <g id="text_16">
    <!-- Figure 10 Cultural Contact × Openness Interaction Effect (Hong Kong Sample, N=75) -->
    <g transform="translate(110.658984 16.663594) scale(0.13 -0.13)">
     <defs>
      <path id="Arial-BoldMT-46" d="M 472 0 
L 472 4581 
L 3613 4581 
L 3613 3806 
L 1397 3806 
L 1397 2722 
L 3309 2722 
L 3309 1947 
L 1397 1947 
L 1397 0 
L 472 0 
z
" transform="scale(0.015625)"/>
      <path id="Arial-BoldMT-67" d="M 378 -219 
L 1381 -341 
Q 1406 -516 1497 -581 
Q 1622 -675 1891 -675 
Q 2234 -675 2406 -572 
Q 2522 -503 2581 -350 
Q 2622 -241 2622 53 
L 2622 538 
Q 2228 0 1628 0 
Q 959 0 569 566 
Q 263 1013 263 1678 
Q 263 2513 664 2953 
Q 1066 3394 1663 3394 
Q 2278 3394 2678 2853 
L 2678 3319 
L 3500 3319 
L 3500 341 
Q 3500 -247 3403 -537 
Q 3306 -828 3131 -993 
Q 2956 -1159 2664 -1253 
Q 2372 -1347 1925 -1347 
Q 1081 -1347 728 -1058 
Q 375 -769 375 -325 
Q 375 -281 378 -219 
z
M 1163 1728 
Q 1163 1200 1367 954 
Q 1572 709 1872 709 
Q 2194 709 2416 961 
Q 2638 1213 2638 1706 
Q 2638 2222 2425 2472 
Q 2213 2722 1888 2722 
Q 1572 2722 1367 2476 
Q 1163 2231 1163 1728 
z
" transform="scale(0.015625)"/>
      <path id="Arial-BoldMT-30" d="M 1756 4600 
Q 2422 4600 2797 4125 
Q 3244 3563 3244 2259 
Q 3244 959 2794 391 
Q 2422 -78 1756 -78 
Q 1088 -78 678 436 
Q 269 950 269 2269 
Q 269 3563 719 4131 
Q 1091 4600 1756 4600 
z
M 1756 3872 
Q 1597 3872 1472 3770 
Q 1347 3669 1278 3406 
Q 1188 3066 1188 2259 
Q 1188 1453 1269 1151 
Q 1350 850 1473 750 
Q 1597 650 1756 650 
Q 1916 650 2041 751 
Q 2166 853 2234 1116 
Q 2325 1453 2325 2259 
Q 2325 3066 2244 3367 
Q 2163 3669 2039 3770 
Q 1916 3872 1756 3872 
z
" transform="scale(0.015625)"/>
      <path id="Arial-BoldMT-d7" d="M 347 1313 
L 1291 2256 
L 341 3203 
L 922 3784 
L 1872 2838 
L 2816 3781 
L 3381 3213 
L 2438 2269 
L 3391 1316 
L 2809 734 
L 1856 1688 
L 913 744 
L 347 1313 
z
" transform="scale(0.015625)"/>
      <path id="Arial-BoldMT-4f" d="M 278 2263 
Q 278 2963 488 3438 
Q 644 3788 914 4066 
Q 1184 4344 1506 4478 
Q 1934 4659 2494 4659 
Q 3506 4659 4114 4031 
Q 4722 3403 4722 2284 
Q 4722 1175 4119 548 
Q 3516 -78 2506 -78 
Q 1484 -78 881 545 
Q 278 1169 278 2263 
z
M 1231 2294 
Q 1231 1516 1590 1114 
Q 1950 713 2503 713 
Q 3056 713 3411 1111 
Q 3766 1509 3766 2306 
Q 3766 3094 3420 3481 
Q 3075 3869 2503 3869 
Q 1931 3869 1581 3476 
Q 1231 3084 1231 2294 
z
" transform="scale(0.015625)"/>
      <path id="Arial-BoldMT-49" d="M 438 0 
L 438 4581 
L 1363 4581 
L 1363 0 
L 438 0 
z
" transform="scale(0.015625)"/>
      <path id="Arial-BoldMT-45" d="M 466 0 
L 466 4581 
L 3863 4581 
L 3863 3806 
L 1391 3806 
L 1391 2791 
L 3691 2791 
L 3691 2019 
L 1391 2019 
L 1391 772 
L 3950 772 
L 3950 0 
L 466 0 
z
" transform="scale(0.015625)"/>
      <path id="Arial-BoldMT-66" d="M 75 3319 
L 563 3319 
L 563 3569 
Q 563 3988 652 4194 
Q 741 4400 980 4529 
Q 1219 4659 1584 4659 
Q 1959 4659 2319 4547 
L 2200 3934 
Q 1991 3984 1797 3984 
Q 1606 3984 1523 3895 
Q 1441 3806 1441 3553 
L 1441 3319 
L 2097 3319 
L 2097 2628 
L 1441 2628 
L 1441 0 
L 563 0 
L 563 2628 
L 75 2628 
L 75 3319 
z
" transform="scale(0.015625)"/>
      <path id="Arial-BoldMT-48" d="M 469 0 
L 469 4581 
L 1394 4581 
L 1394 2778 
L 3206 2778 
L 3206 4581 
L 4131 4581 
L 4131 0 
L 3206 0 
L 3206 2003 
L 1394 2003 
L 1394 0 
L 469 0 
z
" transform="scale(0.015625)"/>
      <path id="Arial-BoldMT-4b" d="M 478 0 
L 478 4581 
L 1403 4581 
L 1403 2547 
L 3272 4581 
L 4516 4581 
L 2791 2797 
L 4609 0 
L 3413 0 
L 2153 2150 
L 1403 1384 
L 1403 0 
L 478 0 
z
" transform="scale(0.015625)"/>
      <path id="Arial-BoldMT-6d" d="M 394 3319 
L 1203 3319 
L 1203 2866 
Q 1638 3394 2238 3394 
Q 2556 3394 2790 3262 
Q 3025 3131 3175 2866 
Q 3394 3131 3647 3262 
Q 3900 3394 4188 3394 
Q 4553 3394 4806 3245 
Q 5059 3097 5184 2809 
Q 5275 2597 5275 2122 
L 5275 0 
L 4397 0 
L 4397 1897 
Q 4397 2391 4306 2534 
Q 4184 2722 3931 2722 
Q 3747 2722 3584 2609 
Q 3422 2497 3350 2280 
Q 3278 2063 3278 1594 
L 3278 0 
L 2400 0 
L 2400 1819 
Q 2400 2303 2353 2443 
Q 2306 2584 2207 2653 
Q 2109 2722 1941 2722 
Q 1738 2722 1575 2612 
Q 1413 2503 1342 2297 
Q 1272 2091 1272 1613 
L 1272 0 
L 394 0 
L 394 3319 
z
" transform="scale(0.015625)"/>
      <path id="Arial-BoldMT-2c" d="M 438 878 
L 1316 878 
L 1316 250 
Q 1316 -131 1250 -351 
Q 1184 -572 1001 -747 
Q 819 -922 538 -1022 
L 366 -659 
Q 631 -572 743 -419 
Q 856 -266 863 0 
L 438 0 
L 438 878 
z
" transform="scale(0.015625)"/>
      <path id="Arial-BoldMT-4e" d="M 475 0 
L 475 4581 
L 1375 4581 
L 3250 1522 
L 3250 4581 
L 4109 4581 
L 4109 0 
L 3181 0 
L 1334 2988 
L 1334 0 
L 475 0 
z
" transform="scale(0.015625)"/>
      <path id="Arial-BoldMT-3d" d="M 266 2550 
L 266 3356 
L 3469 3356 
L 3469 2550 
L 266 2550 
z
M 266 1163 
L 266 1972 
L 3469 1972 
L 3469 1163 
L 266 1163 
z
" transform="scale(0.015625)"/>
      <path id="Arial-BoldMT-35" d="M 284 1178 
L 1159 1269 
Q 1197 972 1381 798 
Q 1566 625 1806 625 
Q 2081 625 2272 848 
Q 2463 1072 2463 1522 
Q 2463 1944 2273 2155 
Q 2084 2366 1781 2366 
Q 1403 2366 1103 2031 
L 391 2134 
L 841 4519 
L 3163 4519 
L 3163 3697 
L 1506 3697 
L 1369 2919 
Q 1663 3066 1969 3066 
Q 2553 3066 2959 2641 
Q 3366 2216 3366 1538 
Q 3366 972 3038 528 
Q 2591 -78 1797 -78 
Q 1163 -78 763 262 
Q 363 603 284 1178 
z
" transform="scale(0.015625)"/>
     </defs>
     <use xlink:href="#Arial-BoldMT-46"/>
     <use xlink:href="#Arial-BoldMT-69" transform="translate(61.083984 0)"/>
     <use xlink:href="#Arial-BoldMT-67" transform="translate(88.867188 0)"/>
     <use xlink:href="#Arial-BoldMT-75" transform="translate(149.951172 0)"/>
     <use xlink:href="#Arial-BoldMT-72" transform="translate(211.035156 0)"/>
     <use xlink:href="#Arial-BoldMT-65" transform="translate(249.951172 0)"/>
     <use xlink:href="#Arial-BoldMT-20" transform="translate(305.566406 0)"/>
     <use xlink:href="#Arial-BoldMT-31" transform="translate(333.349609 0)"/>
     <use xlink:href="#Arial-BoldMT-30" transform="translate(388.964844 0)"/>
     <use xlink:href="#Arial-BoldMT-20" transform="translate(444.580078 0)"/>
     <use xlink:href="#Arial-BoldMT-43" transform="translate(472.363281 0)"/>
     <use xlink:href="#Arial-BoldMT-75" transform="translate(544.580078 0)"/>
     <use xlink:href="#Arial-BoldMT-6c" transform="translate(605.664062 0)"/>
     <use xlink:href="#Arial-BoldMT-74" transform="translate(633.447266 0)"/>
     <use xlink:href="#Arial-BoldMT-75" transform="translate(666.748047 0)"/>
     <use xlink:href="#Arial-BoldMT-72" transform="translate(727.832031 0)"/>
     <use xlink:href="#Arial-BoldMT-61" transform="translate(766.748047 0)"/>
     <use xlink:href="#Arial-BoldMT-6c" transform="translate(822.363281 0)"/>
     <use xlink:href="#Arial-BoldMT-20" transform="translate(850.146484 0)"/>
     <use xlink:href="#Arial-BoldMT-43" transform="translate(877.929688 0)"/>
     <use xlink:href="#Arial-BoldMT-6f" transform="translate(950.146484 0)"/>
     <use xlink:href="#Arial-BoldMT-6e" transform="translate(1011.230469 0)"/>
     <use xlink:href="#Arial-BoldMT-74" transform="translate(1072.314453 0)"/>
     <use xlink:href="#Arial-BoldMT-61" transform="translate(1105.615234 0)"/>
     <use xlink:href="#Arial-BoldMT-63" transform="translate(1161.230469 0)"/>
     <use xlink:href="#Arial-BoldMT-74" transform="translate(1216.845703 0)"/>
     <use xlink:href="#Arial-BoldMT-20" transform="translate(1250.146484 0)"/>
     <use xlink:href="#Arial-BoldMT-d7" transform="translate(1277.929688 0)"/>
     <use xlink:href="#Arial-BoldMT-20" transform="translate(1336.328125 0)"/>
     <use xlink:href="#Arial-BoldMT-4f" transform="translate(1364.111328 0)"/>
     <use xlink:href="#Arial-BoldMT-70" transform="translate(1441.894531 0)"/>
     <use xlink:href="#Arial-BoldMT-65" transform="translate(1502.978516 0)"/>
     <use xlink:href="#Arial-BoldMT-6e" transform="translate(1558.59375 0)"/>
     <use xlink:href="#Arial-BoldMT-6e" transform="translate(1619.677734 0)"/>
     <use xlink:href="#Arial-BoldMT-65" transform="translate(1680.761719 0)"/>
     <use xlink:href="#Arial-BoldMT-73" transform="translate(1736.376953 0)"/>
     <use xlink:href="#Arial-BoldMT-73" transform="translate(1791.992188 0)"/>
     <use xlink:href="#Arial-BoldMT-20" transform="translate(1847.607422 0)"/>
     <use xlink:href="#Arial-BoldMT-49" transform="translate(1875.390625 0)"/>
     <use xlink:href="#Arial-BoldMT-6e" transform="translate(1903.173828 0)"/>
     <use xlink:href="#Arial-BoldMT-74" transform="translate(1964.257812 0)"/>
     <use xlink:href="#Arial-BoldMT-65" transform="translate(1997.558594 0)"/>
     <use xlink:href="#Arial-BoldMT-72" transform="translate(2053.173828 0)"/>
     <use xlink:href="#Arial-BoldMT-61" transform="translate(2092.089844 0)"/>
     <use xlink:href="#Arial-BoldMT-63" transform="translate(2147.705078 0)"/>
     <use xlink:href="#Arial-BoldMT-74" transform="translate(2203.320312 0)"/>
     <use xlink:href="#Arial-BoldMT-69" transform="translate(2236.621094 0)"/>
     <use xlink:href="#Arial-BoldMT-6f" transform="translate(2264.404297 0)"/>
     <use xlink:href="#Arial-BoldMT-6e" transform="translate(2325.488281 0)"/>
     <use xlink:href="#Arial-BoldMT-20" transform="translate(2386.572266 0)"/>
     <use xlink:href="#Arial-BoldMT-45" transform="translate(2414.355469 0)"/>
     <use xlink:href="#Arial-BoldMT-66" transform="translate(2481.054688 0)"/>
     <use xlink:href="#Arial-BoldMT-66" transform="translate(2514.355469 0)"/>
     <use xlink:href="#Arial-BoldMT-65" transform="translate(2547.65625 0)"/>
     <use xlink:href="#Arial-BoldMT-63" transform="translate(2603.271484 0)"/>
     <use xlink:href="#Arial-BoldMT-74" transform="translate(2658.886719 0)"/>
     <use xlink:href="#Arial-BoldMT-20" transform="translate(2692.1875 0)"/>
     <use xlink:href="#Arial-BoldMT-28" transform="translate(2719.970703 0)"/>
     <use xlink:href="#Arial-BoldMT-48" transform="translate(2753.271484 0)"/>
     <use xlink:href="#Arial-BoldMT-6f" transform="translate(2825.488281 0)"/>
     <use xlink:href="#Arial-BoldMT-6e" transform="translate(2886.572266 0)"/>
     <use xlink:href="#Arial-BoldMT-67" transform="translate(2947.65625 0)"/>
     <use xlink:href="#Arial-BoldMT-20" transform="translate(3008.740234 0)"/>
     <use xlink:href="#Arial-BoldMT-4b" transform="translate(3036.523438 0)"/>
     <use xlink:href="#Arial-BoldMT-6f" transform="translate(3108.740234 0)"/>
     <use xlink:href="#Arial-BoldMT-6e" transform="translate(3169.824219 0)"/>
     <use xlink:href="#Arial-BoldMT-67" transform="translate(3230.908203 0)"/>
     <use xlink:href="#Arial-BoldMT-20" transform="translate(3291.992188 0)"/>
     <use xlink:href="#Arial-BoldMT-53" transform="translate(3319.775391 0)"/>
     <use xlink:href="#Arial-BoldMT-61" transform="translate(3386.474609 0)"/>
     <use xlink:href="#Arial-BoldMT-6d" transform="translate(3442.089844 0)"/>
     <use xlink:href="#Arial-BoldMT-70" transform="translate(3531.005859 0)"/>
     <use xlink:href="#Arial-BoldMT-6c" transform="translate(3592.089844 0)"/>
     <use xlink:href="#Arial-BoldMT-65" transform="translate(3619.873047 0)"/>
     <use xlink:href="#Arial-BoldMT-2c" transform="translate(3675.488281 0)"/>
     <use xlink:href="#Arial-BoldMT-20" transform="translate(3703.271484 0)"/>
     <use xlink:href="#Arial-BoldMT-4e" transform="translate(3731.054688 0)"/>
     <use xlink:href="#Arial-BoldMT-3d" transform="translate(3803.271484 0)"/>
     <use xlink:href="#Arial-BoldMT-37" transform="translate(3861.669922 0)"/>
     <use xlink:href="#Arial-BoldMT-35" transform="translate(3917.285156 0)"/>
     <use xlink:href="#Arial-BoldMT-29" transform="translate(3972.900391 0)"/>
    </g>
   </g>
   <g id="legend_1">
    <g id="patch_9">
     <path d="M 49.237813 72.122969 
L 198.461406 72.122969 
Q 200.661406 72.122969 200.661406 69.922969 
L 200.661406 39.363594 
Q 200.661406 37.163594 198.461406 37.163594 
L 49.237813 37.163594 
Q 47.037813 37.163594 47.037813 39.363594 
L 47.037813 69.922969 
Q 47.037813 72.122969 49.237813 72.122969 
z
" style="fill: #ffffff; opacity: 0.95; stroke: #cccccc; stroke-linejoin: miter"/>
    </g>
    <g id="line2d_27">
     <path d="M 51.437813 45.728125 
L 62.437813 45.728125 
L 73.437813 45.728125 
" style="fill: none; stroke-dasharray: 9.25,4; stroke-dashoffset: 0; stroke: #0000ff; stroke-width: 2.5"/>
     <g>
      <use xlink:href="#m99c4f39176" x="62.437813" y="45.728125" style="fill: #0000ff; stroke: #0000ff"/>
     </g>
    </g>
    <g id="text_17">
     <!-- Low Openness (-1SD) -->
     <g transform="translate(82.237813 49.578125) scale(0.11 -0.11)">
      <defs>
       <path id="ArialMT-4c" d="M 469 0 
L 469 4581 
L 1075 4581 
L 1075 541 
L 3331 541 
L 3331 0 
L 469 0 
z
" transform="scale(0.015625)"/>
       <path id="ArialMT-77" d="M 1034 0 
L 19 3319 
L 600 3319 
L 1128 1403 
L 1325 691 
Q 1338 744 1497 1375 
L 2025 3319 
L 2603 3319 
L 3100 1394 
L 3266 759 
L 3456 1400 
L 4025 3319 
L 4572 3319 
L 3534 0 
L 2950 0 
L 2422 1988 
L 2294 2553 
L 1622 0 
L 1034 0 
z
" transform="scale(0.015625)"/>
       <path id="ArialMT-4f" d="M 309 2231 
Q 309 3372 921 4017 
Q 1534 4663 2503 4663 
Q 3138 4663 3647 4359 
Q 4156 4056 4423 3514 
Q 4691 2972 4691 2284 
Q 4691 1588 4409 1038 
Q 4128 488 3612 205 
Q 3097 -78 2500 -78 
Q 1853 -78 1343 234 
Q 834 547 571 1087 
Q 309 1628 309 2231 
z
M 934 2222 
Q 934 1394 1379 917 
Q 1825 441 2497 441 
Q 3181 441 3623 922 
Q 4066 1403 4066 2288 
Q 4066 2847 3877 3264 
Q 3688 3681 3323 3911 
Q 2959 4141 2506 4141 
Q 1863 4141 1398 3698 
Q 934 3256 934 2222 
z
" transform="scale(0.015625)"/>
       <path id="ArialMT-28" d="M 1497 -1347 
Q 1031 -759 709 28 
Q 388 816 388 1659 
Q 388 2403 628 3084 
Q 909 3875 1497 4659 
L 1900 4659 
Q 1522 4009 1400 3731 
Q 1209 3300 1100 2831 
Q 966 2247 966 1656 
Q 966 153 1900 -1347 
L 1497 -1347 
z
" transform="scale(0.015625)"/>
       <path id="ArialMT-2d" d="M 203 1375 
L 203 1941 
L 1931 1941 
L 1931 1375 
L 203 1375 
z
" transform="scale(0.015625)"/>
       <path id="ArialMT-53" d="M 288 1472 
L 859 1522 
Q 900 1178 1048 958 
Q 1197 738 1509 602 
Q 1822 466 2213 466 
Q 2559 466 2825 569 
Q 3091 672 3220 851 
Q 3350 1031 3350 1244 
Q 3350 1459 3225 1620 
Q 3100 1781 2813 1891 
Q 2628 1963 1997 2114 
Q 1366 2266 1113 2400 
Q 784 2572 623 2826 
Q 463 3081 463 3397 
Q 463 3744 659 4045 
Q 856 4347 1234 4503 
Q 1613 4659 2075 4659 
Q 2584 4659 2973 4495 
Q 3363 4331 3572 4012 
Q 3781 3694 3797 3291 
L 3216 3247 
Q 3169 3681 2898 3903 
Q 2628 4125 2100 4125 
Q 1550 4125 1298 3923 
Q 1047 3722 1047 3438 
Q 1047 3191 1225 3031 
Q 1400 2872 2139 2705 
Q 2878 2538 3153 2413 
Q 3553 2228 3743 1945 
Q 3934 1663 3934 1294 
Q 3934 928 3725 604 
Q 3516 281 3123 101 
Q 2731 -78 2241 -78 
Q 1619 -78 1198 103 
Q 778 284 539 648 
Q 300 1013 288 1472 
z
" transform="scale(0.015625)"/>
       <path id="ArialMT-44" d="M 494 0 
L 494 4581 
L 2072 4581 
Q 2606 4581 2888 4516 
Q 3281 4425 3559 4188 
Q 3922 3881 4101 3404 
Q 4281 2928 4281 2316 
Q 4281 1794 4159 1391 
Q 4038 988 3847 723 
Q 3656 459 3429 307 
Q 3203 156 2883 78 
Q 2563 0 2147 0 
L 494 0 
z
M 1100 541 
L 2078 541 
Q 2531 541 2789 625 
Q 3047 709 3200 863 
Q 3416 1078 3536 1442 
Q 3656 1806 3656 2325 
Q 3656 3044 3420 3430 
Q 3184 3816 2847 3947 
Q 2603 4041 2063 4041 
L 1100 4041 
L 1100 541 
z
" transform="scale(0.015625)"/>
       <path id="ArialMT-29" d="M 791 -1347 
L 388 -1347 
Q 1322 153 1322 1656 
Q 1322 2244 1188 2822 
Q 1081 3291 891 3722 
Q 769 4003 388 4659 
L 791 4659 
Q 1378 3875 1659 3084 
Q 1900 2403 1900 1659 
Q 1900 816 1576 28 
Q 1253 -759 791 -1347 
z
" transform="scale(0.015625)"/>
      </defs>
      <use xlink:href="#ArialMT-4c"/>
      <use xlink:href="#ArialMT-6f" transform="translate(55.615234 0)"/>
      <use xlink:href="#ArialMT-77" transform="translate(111.230469 0)"/>
      <use xlink:href="#ArialMT-20" transform="translate(183.447266 0)"/>
      <use xlink:href="#ArialMT-4f" transform="translate(211.230469 0)"/>
      <use xlink:href="#ArialMT-70" transform="translate(289.013672 0)"/>
      <use xlink:href="#ArialMT-65" transform="translate(344.628906 0)"/>
      <use xlink:href="#ArialMT-6e" transform="translate(400.244141 0)"/>
      <use xlink:href="#ArialMT-6e" transform="translate(455.859375 0)"/>
      <use xlink:href="#ArialMT-65" transform="translate(511.474609 0)"/>
      <use xlink:href="#ArialMT-73" transform="translate(567.089844 0)"/>
      <use xlink:href="#ArialMT-73" transform="translate(617.089844 0)"/>
      <use xlink:href="#ArialMT-20" transform="translate(667.089844 0)"/>
      <use xlink:href="#ArialMT-28" transform="translate(694.873047 0)"/>
      <use xlink:href="#ArialMT-2d" transform="translate(728.173828 0)"/>
      <use xlink:href="#ArialMT-31" transform="translate(761.474609 0)"/>
      <use xlink:href="#ArialMT-53" transform="translate(817.089844 0)"/>
      <use xlink:href="#ArialMT-44" transform="translate(883.789062 0)"/>
      <use xlink:href="#ArialMT-29" transform="translate(956.005859 0)"/>
     </g>
    </g>
    <g id="line2d_28">
     <path d="M 51.437813 61.557812 
L 62.437813 61.557812 
L 73.437813 61.557812 
" style="fill: none; stroke: #ff0000; stroke-width: 2.5; stroke-linecap: square"/>
     <g>
      <use xlink:href="#mbbc48cc5e6" x="62.437813" y="61.557812" style="fill: #ff0000; stroke: #ff0000; stroke-linejoin: miter"/>
     </g>
    </g>
    <g id="text_18">
     <!-- High Openness (+1SD) -->
     <g transform="translate(82.237813 65.407812) scale(0.11 -0.11)">
      <defs>
       <path id="ArialMT-2b" d="M 1603 741 
L 1603 1997 
L 356 1997 
L 356 2522 
L 1603 2522 
L 1603 3769 
L 2134 3769 
L 2134 2522 
L 3381 2522 
L 3381 1997 
L 2134 1997 
L 2134 741 
L 1603 741 
z
" transform="scale(0.015625)"/>
      </defs>
      <use xlink:href="#ArialMT-48"/>
      <use xlink:href="#ArialMT-69" transform="translate(72.216797 0)"/>
      <use xlink:href="#ArialMT-67" transform="translate(94.433594 0)"/>
      <use xlink:href="#ArialMT-68" transform="translate(150.048828 0)"/>
      <use xlink:href="#ArialMT-20" transform="translate(205.664062 0)"/>
      <use xlink:href="#ArialMT-4f" transform="translate(233.447266 0)"/>
      <use xlink:href="#ArialMT-70" transform="translate(311.230469 0)"/>
      <use xlink:href="#ArialMT-65" transform="translate(366.845703 0)"/>
      <use xlink:href="#ArialMT-6e" transform="translate(422.460938 0)"/>
      <use xlink:href="#ArialMT-6e" transform="translate(478.076172 0)"/>
      <use xlink:href="#ArialMT-65" transform="translate(533.691406 0)"/>
      <use xlink:href="#ArialMT-73" transform="translate(589.306641 0)"/>
      <use xlink:href="#ArialMT-73" transform="translate(639.306641 0)"/>
      <use xlink:href="#ArialMT-20" transform="translate(689.306641 0)"/>
      <use xlink:href="#ArialMT-28" transform="translate(717.089844 0)"/>
      <use xlink:href="#ArialMT-2b" transform="translate(750.390625 0)"/>
      <use xlink:href="#ArialMT-31" transform="translate(808.789062 0)"/>
      <use xlink:href="#ArialMT-53" transform="translate(864.404297 0)"/>
      <use xlink:href="#ArialMT-44" transform="translate(931.103516 0)"/>
      <use xlink:href="#ArialMT-29" transform="translate(1003.320312 0)"/>
     </g>
    </g>
   </g>
  </g>
 </g>
 <defs>
  <clipPath id="p06a184f2a3">
   <rect x="41.537813" y="31.663594" width="659.01625" height="423.20125"/>
  </clipPath>
 </defs>
</svg>
