<?xml version="1.0" encoding="utf-8" standalone="no"?>
<!DOCTYPE svg PUBLIC "-//W3C//DTD SVG 1.1//EN"
  "http://www.w3.org/Graphics/SVG/1.1/DTD/svg11.dtd">
<svg xmlns:xlink="http://www.w3.org/1999/xlink" width="826.096125pt" height="711.515641pt" viewBox="0 0 826.096125 711.515641" xmlns="http://www.w3.org/2000/svg" version="1.1">
 <metadata>
  <rdf:RDF xmlns:dc="http://purl.org/dc/elements/1.1/" xmlns:cc="http://creativecommons.org/ns#" xmlns:rdf="http://www.w3.org/1999/02/22-rdf-syntax-ns#">
   <cc:Work>
    <dc:type rdf:resource="http://purl.org/dc/dcmitype/StillImage"/>
    <dc:date>2026-03-30T08:05:30.362020</dc:date>
    <dc:format>image/svg+xml</dc:format>
    <dc:creator>
     <cc:Agent>
      <dc:title>Matplotlib v3.10.8, https://matplotlib.org/</dc:title>
     </cc:Agent>
    </dc:creator>
   </cc:Work>
  </rdf:RDF>
 </metadata>
 <defs>
  <style type="text/css">*{stroke-linejoin: round; stroke-linecap: butt}</style>
 </defs>
 <g id="figure_1">
  <g id="patch_1">
   <path d="M 0 711.515641 
L 826.096125 711.515641 
L 826.096125 0 
L 0 0 
z
" style="fill: #ffffff"/>
  </g>
  <g id="axes_1">
   <g id="patch_2">
    <path d="M 646.669326 393.394478 
C 646.669326 354.605794 639.028801 316.194282 624.185015 280.358212 
C 609.341228 244.522141 587.582854 211.958433 560.155113 184.530692 
C 532.727372 157.102951 500.163665 135.344577 464.327594 120.500791 
C 428.491523 105.657005 390.080011 98.01648 351.291328 98.01648 
C 312.502645 98.01648 274.091132 105.657005 238.255062 120.500791 
C 202.418991 135.344577 169.855283 157.102951 142.427542 184.530692 
C 114.999801 211.958433 93.241428 244.522141 78.397641 280.358212 
C 63.553855 316.194282 55.91333 354.605794 55.91333 393.394478 
C 55.91333 432.183161 63.553855 470.594673 78.397641 506.430744 
C 93.241428 542.266814 114.999801 574.830522 142.427542 602.258263 
C 169.855283 629.686004 202.418991 651.444378 238.255062 666.288165 
C 274.091132 681.131951 312.502645 688.772476 351.291328 688.772476 
C 390.080011 688.772476 428.491523 681.131951 464.327594 666.288165 
C 500.163665 651.444378 532.727372 629.686004 560.155113 602.258263 
C 587.582854 574.830522 609.341228 542.266814 624.185015 506.430744 
C 639.028801 470.594673 646.669326 432.183161 646.669326 393.394478 
M 351.291328 393.394478 
C 351.291328 393.394478 351.291328 393.394478 351.291328 393.394478 
C 351.291328 393.394478 351.291328 393.394478 351.291328 393.394478 
C 351.291328 393.394478 351.291328 393.394478 351.291328 393.394478 
C 351.291328 393.394478 351.291328 393.394478 351.291328 393.394478 
C 351.291328 393.394478 351.291328 393.394478 351.291328 393.394478 
C 351.291328 393.394478 351.291328 393.394478 351.291328 393.394478 
C 351.291328 393.394478 351.291328 393.394478 351.291328 393.394478 
C 351.291328 393.394478 351.291328 393.394478 351.291328 393.394478 
C 351.291328 393.394478 351.291328 393.394478 351.291328 393.394478 
C 351.291328 393.394478 351.291328 393.394478 351.291328 393.394478 
C 351.291328 393.394478 351.291328 393.394478 351.291328 393.394478 
C 351.291328 393.394478 351.291328 393.394478 351.291328 393.394478 
C 351.291328 393.394478 351.291328 393.394478 351.291328 393.394478 
C 351.291328 393.394478 351.291328 393.394478 351.291328 393.394478 
C 351.291328 393.394478 351.291328 393.394478 351.291328 393.394478 
C 351.291328 393.394478 351.291328 393.394478 351.291328 393.394478 
z
" style="fill: #ffffff"/>
   </g>
   <g id="matplotlib.axis_1">
    <g id="xtick_1">
     <g id="line2d_1">
      <path d="M 351.291328 393.394478 
L 646.669326 393.394478 
" clip-path="url(#pd4fe84297b)" style="fill: none; stroke-dasharray: 2.96,1.28; stroke-dashoffset: 0; stroke: #cccccc; stroke-opacity: 0.7; stroke-width: 0.8"/>
     </g>
     <g id="text_1">
      <!-- Cultural Contact -->
      <g style="fill: #262626" transform="translate(624.82167 395.979634) scale(0.1 -0.1)">
       <defs>
        <path id="ArialMT-43" d="M 3763 1606 
L 4369 1453 
Q 4178 706 3683 314 
Q 3188 -78 2472 -78 
Q 1731 -78 1267 223 
Q 803 525 561 1097 
Q 319 1669 319 2325 
Q 319 3041 592 3573 
Q 866 4106 1370 4382 
Q 1875 4659 2481 4659 
Q 3169 4659 3637 4309 
Q 4106 3959 4291 3325 
L 3694 3184 
Q 3534 3684 3231 3912 
Q 2928 4141 2469 4141 
Q 1941 4141 1586 3887 
Q 1231 3634 1087 3207 
Q 944 2781 944 2328 
Q 944 1744 1114 1308 
Q 1284 872 1643 656 
Q 2003 441 2422 441 
Q 2931 441 3284 734 
Q 3638 1028 3763 1606 
z
" transform="scale(0.015625)"/>
        <path id="ArialMT-75" d="M 2597 0 
L 2597 488 
Q 2209 -75 1544 -75 
Q 1250 -75 995 37 
Q 741 150 617 320 
Q 494 491 444 738 
Q 409 903 409 1263 
L 409 3319 
L 972 3319 
L 972 1478 
Q 972 1038 1006 884 
Q 1059 663 1231 536 
Q 1403 409 1656 409 
Q 1909 409 2131 539 
Q 2353 669 2445 892 
Q 2538 1116 2538 1541 
L 2538 3319 
L 3100 3319 
L 3100 0 
L 2597 0 
z
" transform="scale(0.015625)"/>
        <path id="ArialMT-6c" d="M 409 0 
L 409 4581 
L 972 4581 
L 972 0 
L 409 0 
z
" transform="scale(0.015625)"/>
        <path id="ArialMT-74" d="M 1650 503 
L 1731 6 
Q 1494 -44 1306 -44 
Q 1000 -44 831 53 
Q 663 150 594 308 
Q 525 466 525 972 
L 525 2881 
L 113 2881 
L 113 3319 
L 525 3319 
L 525 4141 
L 1084 4478 
L 1084 3319 
L 1650 3319 
L 1650 2881 
L 1084 2881 
L 1084 941 
Q 1084 700 1114 631 
Q 1144 563 1211 522 
Q 1278 481 1403 481 
Q 1497 481 1650 503 
z
" transform="scale(0.015625)"/>
        <path id="ArialMT-72" d="M 416 0 
L 416 3319 
L 922 3319 
L 922 2816 
Q 1116 3169 1280 3281 
Q 1444 3394 1641 3394 
Q 1925 3394 2219 3213 
L 2025 2691 
Q 1819 2813 1613 2813 
Q 1428 2813 1281 2702 
Q 1134 2591 1072 2394 
Q 978 2094 978 1738 
L 978 0 
L 416 0 
z
" transform="scale(0.015625)"/>
        <path id="ArialMT-61" d="M 2588 409 
Q 2275 144 1986 34 
Q 1697 -75 1366 -75 
Q 819 -75 525 192 
Q 231 459 231 875 
Q 231 1119 342 1320 
Q 453 1522 633 1644 
Q 813 1766 1038 1828 
Q 1203 1872 1538 1913 
Q 2219 1994 2541 2106 
Q 2544 2222 2544 2253 
Q 2544 2597 2384 2738 
Q 2169 2928 1744 2928 
Q 1347 2928 1158 2789 
Q 969 2650 878 2297 
L 328 2372 
Q 403 2725 575 2942 
Q 747 3159 1072 3276 
Q 1397 3394 1825 3394 
Q 2250 3394 2515 3294 
Q 2781 3194 2906 3042 
Q 3031 2891 3081 2659 
Q 3109 2516 3109 2141 
L 3109 1391 
Q 3109 606 3145 398 
Q 3181 191 3288 0 
L 2700 0 
Q 2613 175 2588 409 
z
M 2541 1666 
Q 2234 1541 1622 1453 
Q 1275 1403 1131 1340 
Q 988 1278 909 1158 
Q 831 1038 831 891 
Q 831 666 1001 516 
Q 1172 366 1500 366 
Q 1825 366 2078 508 
Q 2331 650 2450 897 
Q 2541 1088 2541 1459 
L 2541 1666 
z
" transform="scale(0.015625)"/>
        <path id="ArialMT-20" transform="scale(0.015625)"/>
        <path id="ArialMT-6f" d="M 213 1659 
Q 213 2581 725 3025 
Q 1153 3394 1769 3394 
Q 2453 3394 2887 2945 
Q 3322 2497 3322 1706 
Q 3322 1066 3130 698 
Q 2938 331 2570 128 
Q 2203 -75 1769 -75 
Q 1072 -75 642 372 
Q 213 819 213 1659 
z
M 791 1659 
Q 791 1022 1069 705 
Q 1347 388 1769 388 
Q 2188 388 2466 706 
Q 2744 1025 2744 1678 
Q 2744 2294 2464 2611 
Q 2184 2928 1769 2928 
Q 1347 2928 1069 2612 
Q 791 2297 791 1659 
z
" transform="scale(0.015625)"/>
        <path id="ArialMT-6e" d="M 422 0 
L 422 3319 
L 928 3319 
L 928 2847 
Q 1294 3394 1984 3394 
Q 2284 3394 2536 3286 
Q 2788 3178 2913 3003 
Q 3038 2828 3088 2588 
Q 3119 2431 3119 2041 
L 3119 0 
L 2556 0 
L 2556 2019 
Q 2556 2363 2490 2533 
Q 2425 2703 2258 2804 
Q 2091 2906 1866 2906 
Q 1506 2906 1245 2678 
Q 984 2450 984 1813 
L 984 0 
L 422 0 
z
" transform="scale(0.015625)"/>
        <path id="ArialMT-63" d="M 2588 1216 
L 3141 1144 
Q 3050 572 2676 248 
Q 2303 -75 1759 -75 
Q 1078 -75 664 370 
Q 250 816 250 1647 
Q 250 2184 428 2587 
Q 606 2991 970 3192 
Q 1334 3394 1763 3394 
Q 2303 3394 2647 3120 
Q 2991 2847 3088 2344 
L 2541 2259 
Q 2463 2594 2264 2762 
Q 2066 2931 1784 2931 
Q 1359 2931 1093 2626 
Q 828 2322 828 1663 
Q 828 994 1084 691 
Q 1341 388 1753 388 
Q 2084 388 2306 591 
Q 2528 794 2588 1216 
z
" transform="scale(0.015625)"/>
       </defs>
       <use xlink:href="#ArialMT-43"/>
       <use xlink:href="#ArialMT-75" transform="translate(72.216797 0)"/>
       <use xlink:href="#ArialMT-6c" transform="translate(127.832031 0)"/>
       <use xlink:href="#ArialMT-74" transform="translate(150.048828 0)"/>
       <use xlink:href="#ArialMT-75" transform="translate(177.832031 0)"/>
       <use xlink:href="#ArialMT-72" transform="translate(233.447266 0)"/>
       <use xlink:href="#ArialMT-61" transform="translate(266.748047 0)"/>
       <use xlink:href="#ArialMT-6c" transform="translate(322.363281 0)"/>
       <use xlink:href="#ArialMT-20" transform="translate(344.580078 0)"/>
       <use xlink:href="#ArialMT-43" transform="translate(372.363281 0)"/>
       <use xlink:href="#ArialMT-6f" transform="translate(444.580078 0)"/>
       <use xlink:href="#ArialMT-6e" transform="translate(500.195312 0)"/>
       <use xlink:href="#ArialMT-74" transform="translate(555.810547 0)"/>
       <use xlink:href="#ArialMT-61" transform="translate(583.59375 0)"/>
       <use xlink:href="#ArialMT-63" transform="translate(639.208984 0)"/>
       <use xlink:href="#ArialMT-74" transform="translate(689.208984 0)"/>
      </g>
     </g>
    </g>
    <g id="xtick_2">
     <g id="line2d_2">
      <path d="M 351.291328 393.394478 
L 599.779112 233.701075 
" clip-path="url(#pd4fe84297b)" style="fill: none; stroke-dasharray: 2.96,1.28; stroke-dashoffset: 0; stroke: #cccccc; stroke-opacity: 0.7; stroke-width: 0.8"/>
     </g>
     <g id="text_2">
      <!-- Social Contact -->
      <g style="fill: #262626" transform="translate(579.319162 228.71726) scale(0.1 -0.1)">
       <defs>
        <path id="ArialMT-53" d="M 288 1472 
L 859 1522 
Q 900 1178 1048 958 
Q 1197 738 1509 602 
Q 1822 466 2213 466 
Q 2559 466 2825 569 
Q 3091 672 3220 851 
Q 3350 1031 3350 1244 
Q 3350 1459 3225 1620 
Q 3100 1781 2813 1891 
Q 2628 1963 1997 2114 
Q 1366 2266 1113 2400 
Q 784 2572 623 2826 
Q 463 3081 463 3397 
Q 463 3744 659 4045 
Q 856 4347 1234 4503 
Q 1613 4659 2075 4659 
Q 2584 4659 2973 4495 
Q 3363 4331 3572 4012 
Q 3781 3694 3797 3291 
L 3216 3247 
Q 3169 3681 2898 3903 
Q 2628 4125 2100 4125 
Q 1550 4125 1298 3923 
Q 1047 3722 1047 3438 
Q 1047 3191 1225 3031 
Q 1400 2872 2139 2705 
Q 2878 2538 3153 2413 
Q 3553 2228 3743 1945 
Q 3934 1663 3934 1294 
Q 3934 928 3725 604 
Q 3516 281 3123 101 
Q 2731 -78 2241 -78 
Q 1619 -78 1198 103 
Q 778 284 539 648 
Q 300 1013 288 1472 
z
" transform="scale(0.015625)"/>
        <path id="ArialMT-69" d="M 425 3934 
L 425 4581 
L 988 4581 
L 988 3934 
L 425 3934 
z
M 425 0 
L 425 3319 
L 988 3319 
L 988 0 
L 425 0 
z
" transform="scale(0.015625)"/>
       </defs>
       <use xlink:href="#ArialMT-53"/>
       <use xlink:href="#ArialMT-6f" transform="translate(66.699219 0)"/>
       <use xlink:href="#ArialMT-63" transform="translate(122.314453 0)"/>
       <use xlink:href="#ArialMT-69" transform="translate(172.314453 0)"/>
       <use xlink:href="#ArialMT-61" transform="translate(194.53125 0)"/>
       <use xlink:href="#ArialMT-6c" transform="translate(250.146484 0)"/>
       <use xlink:href="#ArialMT-20" transform="translate(272.363281 0)"/>
       <use xlink:href="#ArialMT-43" transform="translate(300.146484 0)"/>
       <use xlink:href="#ArialMT-6f" transform="translate(372.363281 0)"/>
       <use xlink:href="#ArialMT-6e" transform="translate(427.978516 0)"/>
       <use xlink:href="#ArialMT-74" transform="translate(483.59375 0)"/>
       <use xlink:href="#ArialMT-61" transform="translate(511.376953 0)"/>
       <use xlink:href="#ArialMT-63" transform="translate(566.992188 0)"/>
       <use xlink:href="#ArialMT-74" transform="translate(616.992188 0)"/>
      </g>
     </g>
    </g>
    <g id="xtick_3">
     <g id="line2d_3">
      <path d="M 351.291328 393.394478 
L 473.995783 124.7092 
" clip-path="url(#pd4fe84297b)" style="fill: none; stroke-dasharray: 2.96,1.28; stroke-dashoffset: 0; stroke: #cccccc; stroke-opacity: 0.7; stroke-width: 0.8"/>
     </g>
     <g id="text_3">
      <!-- Social Connectedness -->
      <g style="fill: #262626" transform="translate(430.060812 114.559508) scale(0.1 -0.1)">
       <defs>
        <path id="ArialMT-65" d="M 2694 1069 
L 3275 997 
Q 3138 488 2766 206 
Q 2394 -75 1816 -75 
Q 1088 -75 661 373 
Q 234 822 234 1631 
Q 234 2469 665 2931 
Q 1097 3394 1784 3394 
Q 2450 3394 2872 2941 
Q 3294 2488 3294 1666 
Q 3294 1616 3291 1516 
L 816 1516 
Q 847 969 1125 678 
Q 1403 388 1819 388 
Q 2128 388 2347 550 
Q 2566 713 2694 1069 
z
M 847 1978 
L 2700 1978 
Q 2663 2397 2488 2606 
Q 2219 2931 1791 2931 
Q 1403 2931 1139 2672 
Q 875 2413 847 1978 
z
" transform="scale(0.015625)"/>
        <path id="ArialMT-64" d="M 2575 0 
L 2575 419 
Q 2259 -75 1647 -75 
Q 1250 -75 917 144 
Q 584 363 401 755 
Q 219 1147 219 1656 
Q 219 2153 384 2558 
Q 550 2963 881 3178 
Q 1213 3394 1622 3394 
Q 1922 3394 2156 3267 
Q 2391 3141 2538 2938 
L 2538 4581 
L 3097 4581 
L 3097 0 
L 2575 0 
z
M 797 1656 
Q 797 1019 1065 703 
Q 1334 388 1700 388 
Q 2069 388 2326 689 
Q 2584 991 2584 1609 
Q 2584 2291 2321 2609 
Q 2059 2928 1675 2928 
Q 1300 2928 1048 2622 
Q 797 2316 797 1656 
z
" transform="scale(0.015625)"/>
        <path id="ArialMT-73" d="M 197 991 
L 753 1078 
Q 800 744 1014 566 
Q 1228 388 1613 388 
Q 2000 388 2187 545 
Q 2375 703 2375 916 
Q 2375 1106 2209 1216 
Q 2094 1291 1634 1406 
Q 1016 1563 777 1677 
Q 538 1791 414 1992 
Q 291 2194 291 2438 
Q 291 2659 392 2848 
Q 494 3038 669 3163 
Q 800 3259 1026 3326 
Q 1253 3394 1513 3394 
Q 1903 3394 2198 3281 
Q 2494 3169 2634 2976 
Q 2775 2784 2828 2463 
L 2278 2388 
Q 2241 2644 2061 2787 
Q 1881 2931 1553 2931 
Q 1166 2931 1000 2803 
Q 834 2675 834 2503 
Q 834 2394 903 2306 
Q 972 2216 1119 2156 
Q 1203 2125 1616 2013 
Q 2213 1853 2448 1751 
Q 2684 1650 2818 1456 
Q 2953 1263 2953 975 
Q 2953 694 2789 445 
Q 2625 197 2315 61 
Q 2006 -75 1616 -75 
Q 969 -75 630 194 
Q 291 463 197 991 
z
" transform="scale(0.015625)"/>
       </defs>
       <use xlink:href="#ArialMT-53"/>
       <use xlink:href="#ArialMT-6f" transform="translate(66.699219 0)"/>
       <use xlink:href="#ArialMT-63" transform="translate(122.314453 0)"/>
       <use xlink:href="#ArialMT-69" transform="translate(172.314453 0)"/>
       <use xlink:href="#ArialMT-61" transform="translate(194.53125 0)"/>
       <use xlink:href="#ArialMT-6c" transform="translate(250.146484 0)"/>
       <use xlink:href="#ArialMT-20" transform="translate(272.363281 0)"/>
       <use xlink:href="#ArialMT-43" transform="translate(300.146484 0)"/>
       <use xlink:href="#ArialMT-6f" transform="translate(372.363281 0)"/>
       <use xlink:href="#ArialMT-6e" transform="translate(427.978516 0)"/>
       <use xlink:href="#ArialMT-6e" transform="translate(483.59375 0)"/>
       <use xlink:href="#ArialMT-65" transform="translate(539.208984 0)"/>
       <use xlink:href="#ArialMT-63" transform="translate(594.824219 0)"/>
       <use xlink:href="#ArialMT-74" transform="translate(644.824219 0)"/>
       <use xlink:href="#ArialMT-65" transform="translate(672.607422 0)"/>
       <use xlink:href="#ArialMT-64" transform="translate(728.222656 0)"/>
       <use xlink:href="#ArialMT-6e" transform="translate(783.837891 0)"/>
       <use xlink:href="#ArialMT-65" transform="translate(839.453125 0)"/>
       <use xlink:href="#ArialMT-73" transform="translate(895.068359 0)"/>
       <use xlink:href="#ArialMT-73" transform="translate(945.068359 0)"/>
      </g>
     </g>
    </g>
    <g id="xtick_4">
     <g id="line2d_4">
      <path d="M 351.291328 393.394478 
L 309.254656 101.023002 
" clip-path="url(#pd4fe84297b)" style="fill: none; stroke-dasharray: 2.96,1.28; stroke-dashoffset: 0; stroke: #cccccc; stroke-opacity: 0.7; stroke-width: 0.8"/>
     </g>
     <g id="text_4">
      <!-- Family Support -->
      <g style="fill: #262626" transform="translate(273.641154 89.753002) scale(0.1 -0.1)">
       <defs>
        <path id="ArialMT-46" d="M 525 0 
L 525 4581 
L 3616 4581 
L 3616 4041 
L 1131 4041 
L 1131 2622 
L 3281 2622 
L 3281 2081 
L 1131 2081 
L 1131 0 
L 525 0 
z
" transform="scale(0.015625)"/>
        <path id="ArialMT-6d" d="M 422 0 
L 422 3319 
L 925 3319 
L 925 2853 
Q 1081 3097 1340 3245 
Q 1600 3394 1931 3394 
Q 2300 3394 2536 3241 
Q 2772 3088 2869 2813 
Q 3263 3394 3894 3394 
Q 4388 3394 4653 3120 
Q 4919 2847 4919 2278 
L 4919 0 
L 4359 0 
L 4359 2091 
Q 4359 2428 4304 2576 
Q 4250 2725 4106 2815 
Q 3963 2906 3769 2906 
Q 3419 2906 3187 2673 
Q 2956 2441 2956 1928 
L 2956 0 
L 2394 0 
L 2394 2156 
Q 2394 2531 2256 2718 
Q 2119 2906 1806 2906 
Q 1569 2906 1367 2781 
Q 1166 2656 1075 2415 
Q 984 2175 984 1722 
L 984 0 
L 422 0 
z
" transform="scale(0.015625)"/>
        <path id="ArialMT-79" d="M 397 -1278 
L 334 -750 
Q 519 -800 656 -800 
Q 844 -800 956 -737 
Q 1069 -675 1141 -563 
Q 1194 -478 1313 -144 
Q 1328 -97 1363 -6 
L 103 3319 
L 709 3319 
L 1400 1397 
Q 1534 1031 1641 628 
Q 1738 1016 1872 1384 
L 2581 3319 
L 3144 3319 
L 1881 -56 
Q 1678 -603 1566 -809 
Q 1416 -1088 1222 -1217 
Q 1028 -1347 759 -1347 
Q 597 -1347 397 -1278 
z
" transform="scale(0.015625)"/>
        <path id="ArialMT-70" d="M 422 -1272 
L 422 3319 
L 934 3319 
L 934 2888 
Q 1116 3141 1344 3267 
Q 1572 3394 1897 3394 
Q 2322 3394 2647 3175 
Q 2972 2956 3137 2557 
Q 3303 2159 3303 1684 
Q 3303 1175 3120 767 
Q 2938 359 2589 142 
Q 2241 -75 1856 -75 
Q 1575 -75 1351 44 
Q 1128 163 984 344 
L 984 -1272 
L 422 -1272 
z
M 931 1641 
Q 931 1000 1190 694 
Q 1450 388 1819 388 
Q 2194 388 2461 705 
Q 2728 1022 2728 1688 
Q 2728 2322 2467 2637 
Q 2206 2953 1844 2953 
Q 1484 2953 1207 2617 
Q 931 2281 931 1641 
z
" transform="scale(0.015625)"/>
       </defs>
       <use xlink:href="#ArialMT-46"/>
       <use xlink:href="#ArialMT-61" transform="translate(61.083984 0)"/>
       <use xlink:href="#ArialMT-6d" transform="translate(116.699219 0)"/>
       <use xlink:href="#ArialMT-69" transform="translate(200 0)"/>
       <use xlink:href="#ArialMT-6c" transform="translate(222.216797 0)"/>
       <use xlink:href="#ArialMT-79" transform="translate(244.433594 0)"/>
       <use xlink:href="#ArialMT-20" transform="translate(294.433594 0)"/>
       <use xlink:href="#ArialMT-53" transform="translate(322.216797 0)"/>
       <use xlink:href="#ArialMT-75" transform="translate(388.916016 0)"/>
       <use xlink:href="#ArialMT-70" transform="translate(444.53125 0)"/>
       <use xlink:href="#ArialMT-70" transform="translate(500.146484 0)"/>
       <use xlink:href="#ArialMT-6f" transform="translate(555.761719 0)"/>
       <use xlink:href="#ArialMT-72" transform="translate(611.376953 0)"/>
       <use xlink:href="#ArialMT-74" transform="translate(644.677734 0)"/>
      </g>
     </g>
    </g>
    <g id="xtick_5">
     <g id="line2d_5">
      <path d="M 351.291328 393.394478 
L 157.859875 170.162681 
" clip-path="url(#pd4fe84297b)" style="fill: none; stroke-dasharray: 2.96,1.28; stroke-dashoffset: 0; stroke: #cccccc; stroke-opacity: 0.7; stroke-width: 0.8"/>
     </g>
     <g id="text_5">
      <!-- Openness -->
      <g style="fill: #262626" transform="translate(125.900419 162.231406) scale(0.1 -0.1)">
       <defs>
        <path id="ArialMT-4f" d="M 309 2231 
Q 309 3372 921 4017 
Q 1534 4663 2503 4663 
Q 3138 4663 3647 4359 
Q 4156 4056 4423 3514 
Q 4691 2972 4691 2284 
Q 4691 1588 4409 1038 
Q 4128 488 3612 205 
Q 3097 -78 2500 -78 
Q 1853 -78 1343 234 
Q 834 547 571 1087 
Q 309 1628 309 2231 
z
M 934 2222 
Q 934 1394 1379 917 
Q 1825 441 2497 441 
Q 3181 441 3623 922 
Q 4066 1403 4066 2288 
Q 4066 2847 3877 3264 
Q 3688 3681 3323 3911 
Q 2959 4141 2506 4141 
Q 1863 4141 1398 3698 
Q 934 3256 934 2222 
z
" transform="scale(0.015625)"/>
       </defs>
       <use xlink:href="#ArialMT-4f"/>
       <use xlink:href="#ArialMT-70" transform="translate(77.783203 0)"/>
       <use xlink:href="#ArialMT-65" transform="translate(133.398438 0)"/>
       <use xlink:href="#ArialMT-6e" transform="translate(189.013672 0)"/>
       <use xlink:href="#ArialMT-6e" transform="translate(244.628906 0)"/>
       <use xlink:href="#ArialMT-65" transform="translate(300.244141 0)"/>
       <use xlink:href="#ArialMT-73" transform="translate(355.859375 0)"/>
       <use xlink:href="#ArialMT-73" transform="translate(405.859375 0)"/>
      </g>
     </g>
    </g>
    <g id="xtick_6">
     <g id="line2d_6">
      <path d="M 351.291328 393.394478 
L 67.878214 310.176879 
" clip-path="url(#pd4fe84297b)" style="fill: none; stroke-dasharray: 2.96,1.28; stroke-dashoffset: 0; stroke: #cccccc; stroke-opacity: 0.7; stroke-width: 0.8"/>
     </g>
     <g id="text_6">
      <!-- Cultural Maintenance -->
      <g style="fill: #262626" transform="translate(7.2 308.81778) scale(0.1 -0.1)">
       <defs>
        <path id="ArialMT-4d" d="M 475 0 
L 475 4581 
L 1388 4581 
L 2472 1338 
Q 2622 884 2691 659 
Q 2769 909 2934 1394 
L 4031 4581 
L 4847 4581 
L 4847 0 
L 4263 0 
L 4263 3834 
L 2931 0 
L 2384 0 
L 1059 3900 
L 1059 0 
L 475 0 
z
" transform="scale(0.015625)"/>
       </defs>
       <use xlink:href="#ArialMT-43"/>
       <use xlink:href="#ArialMT-75" transform="translate(72.216797 0)"/>
       <use xlink:href="#ArialMT-6c" transform="translate(127.832031 0)"/>
       <use xlink:href="#ArialMT-74" transform="translate(150.048828 0)"/>
       <use xlink:href="#ArialMT-75" transform="translate(177.832031 0)"/>
       <use xlink:href="#ArialMT-72" transform="translate(233.447266 0)"/>
       <use xlink:href="#ArialMT-61" transform="translate(266.748047 0)"/>
       <use xlink:href="#ArialMT-6c" transform="translate(322.363281 0)"/>
       <use xlink:href="#ArialMT-20" transform="translate(344.580078 0)"/>
       <use xlink:href="#ArialMT-4d" transform="translate(372.363281 0)"/>
       <use xlink:href="#ArialMT-61" transform="translate(455.664062 0)"/>
       <use xlink:href="#ArialMT-69" transform="translate(511.279297 0)"/>
       <use xlink:href="#ArialMT-6e" transform="translate(533.496094 0)"/>
       <use xlink:href="#ArialMT-74" transform="translate(589.111328 0)"/>
       <use xlink:href="#ArialMT-65" transform="translate(616.894531 0)"/>
       <use xlink:href="#ArialMT-6e" transform="translate(672.509766 0)"/>
       <use xlink:href="#ArialMT-61" transform="translate(728.125 0)"/>
       <use xlink:href="#ArialMT-6e" transform="translate(783.740234 0)"/>
       <use xlink:href="#ArialMT-63" transform="translate(839.355469 0)"/>
       <use xlink:href="#ArialMT-65" transform="translate(889.355469 0)"/>
      </g>
     </g>
    </g>
    <g id="xtick_7">
     <g id="line2d_7">
      <path d="M 351.291328 393.394478 
L 67.878214 476.612076 
" clip-path="url(#pd4fe84297b)" style="fill: none; stroke-dasharray: 2.96,1.28; stroke-dashoffset: 0; stroke: #cccccc; stroke-opacity: 0.7; stroke-width: 0.8"/>
     </g>
     <g id="text_7">
      <!-- Months in HK -->
      <g style="fill: #262626" transform="translate(24.434375 483.141488) scale(0.1 -0.1)">
       <defs>
        <path id="ArialMT-68" d="M 422 0 
L 422 4581 
L 984 4581 
L 984 2938 
Q 1378 3394 1978 3394 
Q 2347 3394 2619 3248 
Q 2891 3103 3008 2847 
Q 3125 2591 3125 2103 
L 3125 0 
L 2563 0 
L 2563 2103 
Q 2563 2525 2380 2717 
Q 2197 2909 1863 2909 
Q 1613 2909 1392 2779 
Q 1172 2650 1078 2428 
Q 984 2206 984 1816 
L 984 0 
L 422 0 
z
" transform="scale(0.015625)"/>
        <path id="ArialMT-48" d="M 513 0 
L 513 4581 
L 1119 4581 
L 1119 2700 
L 3500 2700 
L 3500 4581 
L 4106 4581 
L 4106 0 
L 3500 0 
L 3500 2159 
L 1119 2159 
L 1119 0 
L 513 0 
z
" transform="scale(0.015625)"/>
        <path id="ArialMT-4b" d="M 469 0 
L 469 4581 
L 1075 4581 
L 1075 2309 
L 3350 4581 
L 4172 4581 
L 2250 2725 
L 4256 0 
L 3456 0 
L 1825 2319 
L 1075 1588 
L 1075 0 
L 469 0 
z
" transform="scale(0.015625)"/>
       </defs>
       <use xlink:href="#ArialMT-4d"/>
       <use xlink:href="#ArialMT-6f" transform="translate(83.300781 0)"/>
       <use xlink:href="#ArialMT-6e" transform="translate(138.916016 0)"/>
       <use xlink:href="#ArialMT-74" transform="translate(194.53125 0)"/>
       <use xlink:href="#ArialMT-68" transform="translate(222.314453 0)"/>
       <use xlink:href="#ArialMT-73" transform="translate(277.929688 0)"/>
       <use xlink:href="#ArialMT-20" transform="translate(327.929688 0)"/>
       <use xlink:href="#ArialMT-69" transform="translate(355.712891 0)"/>
       <use xlink:href="#ArialMT-6e" transform="translate(377.929688 0)"/>
       <use xlink:href="#ArialMT-20" transform="translate(433.544922 0)"/>
       <use xlink:href="#ArialMT-48" transform="translate(461.328125 0)"/>
       <use xlink:href="#ArialMT-4b" transform="translate(533.544922 0)"/>
      </g>
     </g>
    </g>
    <g id="xtick_8">
     <g id="line2d_8">
      <path d="M 351.291328 393.394478 
L 157.859875 616.626274 
" clip-path="url(#pd4fe84297b)" style="fill: none; stroke-dasharray: 2.96,1.28; stroke-dashoffset: 0; stroke: #cccccc; stroke-opacity: 0.7; stroke-width: 0.8"/>
     </g>
     <g id="text_8">
      <!-- Communication Frequency -->
      <g style="fill: #262626" transform="translate(88.947294 629.794268) scale(0.1 -0.1)">
       <defs>
        <path id="ArialMT-71" d="M 2538 -1272 
L 2538 353 
Q 2406 169 2170 47 
Q 1934 -75 1669 -75 
Q 1078 -75 651 397 
Q 225 869 225 1691 
Q 225 2191 398 2587 
Q 572 2984 901 3189 
Q 1231 3394 1625 3394 
Q 2241 3394 2594 2875 
L 2594 3319 
L 3100 3319 
L 3100 -1272 
L 2538 -1272 
z
M 803 1669 
Q 803 1028 1072 708 
Q 1341 388 1716 388 
Q 2075 388 2334 692 
Q 2594 997 2594 1619 
Q 2594 2281 2320 2615 
Q 2047 2950 1678 2950 
Q 1313 2950 1058 2639 
Q 803 2328 803 1669 
z
" transform="scale(0.015625)"/>
       </defs>
       <use xlink:href="#ArialMT-43"/>
       <use xlink:href="#ArialMT-6f" transform="translate(72.216797 0)"/>
       <use xlink:href="#ArialMT-6d" transform="translate(127.832031 0)"/>
       <use xlink:href="#ArialMT-6d" transform="translate(211.132812 0)"/>
       <use xlink:href="#ArialMT-75" transform="translate(294.433594 0)"/>
       <use xlink:href="#ArialMT-6e" transform="translate(350.048828 0)"/>
       <use xlink:href="#ArialMT-69" transform="translate(405.664062 0)"/>
       <use xlink:href="#ArialMT-63" transform="translate(427.880859 0)"/>
       <use xlink:href="#ArialMT-61" transform="translate(477.880859 0)"/>
       <use xlink:href="#ArialMT-74" transform="translate(533.496094 0)"/>
       <use xlink:href="#ArialMT-69" transform="translate(561.279297 0)"/>
       <use xlink:href="#ArialMT-6f" transform="translate(583.496094 0)"/>
       <use xlink:href="#ArialMT-6e" transform="translate(639.111328 0)"/>
       <use xlink:href="#ArialMT-20" transform="translate(694.726562 0)"/>
       <use xlink:href="#ArialMT-46" transform="translate(722.509766 0)"/>
       <use xlink:href="#ArialMT-72" transform="translate(783.59375 0)"/>
       <use xlink:href="#ArialMT-65" transform="translate(816.894531 0)"/>
       <use xlink:href="#ArialMT-71" transform="translate(872.509766 0)"/>
       <use xlink:href="#ArialMT-75" transform="translate(928.125 0)"/>
       <use xlink:href="#ArialMT-65" transform="translate(983.740234 0)"/>
       <use xlink:href="#ArialMT-6e" transform="translate(1039.355469 0)"/>
       <use xlink:href="#ArialMT-63" transform="translate(1094.970703 0)"/>
       <use xlink:href="#ArialMT-79" transform="translate(1144.970703 0)"/>
      </g>
     </g>
    </g>
    <g id="xtick_9">
     <g id="line2d_9">
      <path d="M 351.291328 393.394478 
L 309.254656 685.765954 
" clip-path="url(#pd4fe84297b)" style="fill: none; stroke-dasharray: 2.96,1.28; stroke-dashoffset: 0; stroke: #cccccc; stroke-opacity: 0.7; stroke-width: 0.8"/>
     </g>
     <g id="text_9">
      <!-- Communication Honesty -->
      <g style="fill: #262626" transform="translate(252.797404 702.210954) scale(0.1 -0.1)">
       <use xlink:href="#ArialMT-43"/>
       <use xlink:href="#ArialMT-6f" transform="translate(72.216797 0)"/>
       <use xlink:href="#ArialMT-6d" transform="translate(127.832031 0)"/>
       <use xlink:href="#ArialMT-6d" transform="translate(211.132812 0)"/>
       <use xlink:href="#ArialMT-75" transform="translate(294.433594 0)"/>
       <use xlink:href="#ArialMT-6e" transform="translate(350.048828 0)"/>
       <use xlink:href="#ArialMT-69" transform="translate(405.664062 0)"/>
       <use xlink:href="#ArialMT-63" transform="translate(427.880859 0)"/>
       <use xlink:href="#ArialMT-61" transform="translate(477.880859 0)"/>
       <use xlink:href="#ArialMT-74" transform="translate(533.496094 0)"/>
       <use xlink:href="#ArialMT-69" transform="translate(561.279297 0)"/>
       <use xlink:href="#ArialMT-6f" transform="translate(583.496094 0)"/>
       <use xlink:href="#ArialMT-6e" transform="translate(639.111328 0)"/>
       <use xlink:href="#ArialMT-20" transform="translate(694.726562 0)"/>
       <use xlink:href="#ArialMT-48" transform="translate(722.509766 0)"/>
       <use xlink:href="#ArialMT-6f" transform="translate(794.726562 0)"/>
       <use xlink:href="#ArialMT-6e" transform="translate(850.341797 0)"/>
       <use xlink:href="#ArialMT-65" transform="translate(905.957031 0)"/>
       <use xlink:href="#ArialMT-73" transform="translate(961.572266 0)"/>
       <use xlink:href="#ArialMT-74" transform="translate(1011.572266 0)"/>
       <use xlink:href="#ArialMT-79" transform="translate(1039.355469 0)"/>
      </g>
     </g>
    </g>
    <g id="xtick_10">
     <g id="line2d_10">
      <path d="M 351.291328 393.394478 
L 473.995783 662.079756 
" clip-path="url(#pd4fe84297b)" style="fill: none; stroke-dasharray: 2.96,1.28; stroke-dashoffset: 0; stroke: #cccccc; stroke-opacity: 0.7; stroke-width: 0.8"/>
     </g>
     <g id="text_10">
      <!-- Autonomy -->
      <g style="fill: #262626" transform="translate(457.300655 677.341166) scale(0.1 -0.1)">
       <defs>
        <path id="ArialMT-41" d="M -9 0 
L 1750 4581 
L 2403 4581 
L 4278 0 
L 3588 0 
L 3053 1388 
L 1138 1388 
L 634 0 
L -9 0 
z
M 1313 1881 
L 2866 1881 
L 2388 3150 
Q 2169 3728 2063 4100 
Q 1975 3659 1816 3225 
L 1313 1881 
z
" transform="scale(0.015625)"/>
       </defs>
       <use xlink:href="#ArialMT-41"/>
       <use xlink:href="#ArialMT-75" transform="translate(66.699219 0)"/>
       <use xlink:href="#ArialMT-74" transform="translate(122.314453 0)"/>
       <use xlink:href="#ArialMT-6f" transform="translate(150.097656 0)"/>
       <use xlink:href="#ArialMT-6e" transform="translate(205.712891 0)"/>
       <use xlink:href="#ArialMT-6f" transform="translate(261.328125 0)"/>
       <use xlink:href="#ArialMT-6d" transform="translate(316.943359 0)"/>
       <use xlink:href="#ArialMT-79" transform="translate(400.244141 0)"/>
      </g>
     </g>
    </g>
    <g id="xtick_11">
     <g id="line2d_11">
      <path d="M 351.291328 393.394478 
L 599.779112 553.08788 
" clip-path="url(#pd4fe84297b)" style="fill: none; stroke-dasharray: 2.96,1.28; stroke-dashoffset: 0; stroke: #cccccc; stroke-opacity: 0.7; stroke-width: 0.8"/>
     </g>
     <g id="text_11">
      <!-- Social Maintenance -->
      <g style="fill: #262626" transform="translate(567.921505 563.242008) scale(0.1 -0.1)">
       <use xlink:href="#ArialMT-53"/>
       <use xlink:href="#ArialMT-6f" transform="translate(66.699219 0)"/>
       <use xlink:href="#ArialMT-63" transform="translate(122.314453 0)"/>
       <use xlink:href="#ArialMT-69" transform="translate(172.314453 0)"/>
       <use xlink:href="#ArialMT-61" transform="translate(194.53125 0)"/>
       <use xlink:href="#ArialMT-6c" transform="translate(250.146484 0)"/>
       <use xlink:href="#ArialMT-20" transform="translate(272.363281 0)"/>
       <use xlink:href="#ArialMT-4d" transform="translate(300.146484 0)"/>
       <use xlink:href="#ArialMT-61" transform="translate(383.447266 0)"/>
       <use xlink:href="#ArialMT-69" transform="translate(439.0625 0)"/>
       <use xlink:href="#ArialMT-6e" transform="translate(461.279297 0)"/>
       <use xlink:href="#ArialMT-74" transform="translate(516.894531 0)"/>
       <use xlink:href="#ArialMT-65" transform="translate(544.677734 0)"/>
       <use xlink:href="#ArialMT-6e" transform="translate(600.292969 0)"/>
       <use xlink:href="#ArialMT-61" transform="translate(655.908203 0)"/>
       <use xlink:href="#ArialMT-6e" transform="translate(711.523438 0)"/>
       <use xlink:href="#ArialMT-63" transform="translate(767.138672 0)"/>
       <use xlink:href="#ArialMT-65" transform="translate(817.138672 0)"/>
      </g>
     </g>
    </g>
   </g>
   <g id="matplotlib.axis_2">
    <g id="ytick_1">
     <g id="line2d_12">
      <path d="M 410.366927 393.394478 
C 410.366927 385.636741 408.838822 377.954439 405.870065 370.787225 
C 402.901308 363.62001 398.549633 357.107269 393.064085 351.621721 
C 387.578537 346.136172 381.065795 341.784498 373.898581 338.81574 
C 366.731367 335.846983 359.049064 334.318878 351.291328 334.318878 
C 343.533591 334.318878 335.851289 335.846983 328.684075 338.81574 
C 321.51686 341.784498 315.004119 346.136172 309.518571 351.621721 
C 304.033023 357.107269 299.681348 363.62001 296.71259 370.787225 
C 293.743833 377.954439 292.215728 385.636741 292.215728 393.394478 
C 292.215728 401.152214 293.743833 408.834517 296.71259 416.001731 
C 299.681348 423.168945 304.033023 429.681687 309.518571 435.167235 
C 315.004119 440.652783 321.51686 445.004458 328.684075 447.973215 
C 335.851289 450.941972 343.533591 452.470077 351.291328 452.470077 
C 359.049064 452.470077 366.731367 450.941972 373.898581 447.973215 
C 381.065795 445.004458 387.578537 440.652783 393.064085 435.167235 
C 398.549633 429.681687 402.901308 423.168945 405.870065 416.001731 
C 408.838822 408.834517 410.366927 401.152214 410.366927 393.394478 
" clip-path="url(#pd4fe84297b)" style="fill: none; stroke-dasharray: 2.96,1.28; stroke-dashoffset: 0; stroke: #cccccc; stroke-opacity: 0.7; stroke-width: 0.8"/>
     </g>
     <g id="text_12">
      <!-- 0.2 -->
      <g style="fill: #262626" transform="translate(405.870065 368.998475) scale(0.09 -0.09)">
       <defs>
        <path id="ArialMT-30" d="M 266 2259 
Q 266 3072 433 3567 
Q 600 4063 929 4331 
Q 1259 4600 1759 4600 
Q 2128 4600 2406 4451 
Q 2684 4303 2865 4023 
Q 3047 3744 3150 3342 
Q 3253 2941 3253 2259 
Q 3253 1453 3087 958 
Q 2922 463 2592 192 
Q 2263 -78 1759 -78 
Q 1097 -78 719 397 
Q 266 969 266 2259 
z
M 844 2259 
Q 844 1131 1108 757 
Q 1372 384 1759 384 
Q 2147 384 2411 759 
Q 2675 1134 2675 2259 
Q 2675 3391 2411 3762 
Q 2147 4134 1753 4134 
Q 1366 4134 1134 3806 
Q 844 3388 844 2259 
z
" transform="scale(0.015625)"/>
        <path id="ArialMT-2e" d="M 581 0 
L 581 641 
L 1222 641 
L 1222 0 
L 581 0 
z
" transform="scale(0.015625)"/>
        <path id="ArialMT-32" d="M 3222 541 
L 3222 0 
L 194 0 
Q 188 203 259 391 
Q 375 700 629 1000 
Q 884 1300 1366 1694 
Q 2113 2306 2375 2664 
Q 2638 3022 2638 3341 
Q 2638 3675 2398 3904 
Q 2159 4134 1775 4134 
Q 1369 4134 1125 3890 
Q 881 3647 878 3216 
L 300 3275 
Q 359 3922 746 4261 
Q 1134 4600 1788 4600 
Q 2447 4600 2831 4234 
Q 3216 3869 3216 3328 
Q 3216 3053 3103 2787 
Q 2991 2522 2730 2228 
Q 2469 1934 1863 1422 
Q 1356 997 1212 845 
Q 1069 694 975 541 
L 3222 541 
z
" transform="scale(0.015625)"/>
       </defs>
       <use xlink:href="#ArialMT-30"/>
       <use xlink:href="#ArialMT-2e" transform="translate(55.615234 0)"/>
       <use xlink:href="#ArialMT-32" transform="translate(83.398438 0)"/>
      </g>
     </g>
    </g>
    <g id="ytick_2">
     <g id="line2d_13">
      <path d="M 469.442527 393.394478 
C 469.442527 377.879004 466.386317 362.5144 460.448803 348.179971 
C 454.511288 333.845543 445.807938 320.82006 434.836842 309.848964 
C 423.865746 298.877867 410.840263 290.174518 396.505834 284.237003 
C 382.171406 278.299488 366.806801 275.243279 351.291328 275.243279 
C 335.775855 275.243279 320.41125 278.299488 306.076821 284.237003 
C 291.742393 290.174518 278.71691 298.877867 267.745814 309.848964 
C 256.774717 320.82006 248.071368 333.845543 242.133853 348.179971 
C 236.196339 362.5144 233.140129 377.879004 233.140129 393.394478 
C 233.140129 408.909951 236.196339 424.274556 242.133853 438.608984 
C 248.071368 452.943412 256.774717 465.968896 267.745814 476.939992 
C 278.71691 487.911088 291.742393 496.614438 306.076821 502.551952 
C 320.41125 508.489467 335.775855 511.545677 351.291328 511.545677 
C 366.806801 511.545677 382.171406 508.489467 396.505834 502.551952 
C 410.840263 496.614438 423.865746 487.911088 434.836842 476.939992 
C 445.807938 465.968896 454.511288 452.943412 460.448803 438.608984 
C 466.386317 424.274556 469.442527 408.909951 469.442527 393.394478 
" clip-path="url(#pd4fe84297b)" style="fill: none; stroke-dasharray: 2.96,1.28; stroke-dashoffset: 0; stroke: #cccccc; stroke-opacity: 0.7; stroke-width: 0.8"/>
     </g>
     <g id="text_13">
      <!-- 0.4 -->
      <g style="fill: #262626" transform="translate(460.448803 346.391221) scale(0.09 -0.09)">
       <defs>
        <path id="ArialMT-34" d="M 2069 0 
L 2069 1097 
L 81 1097 
L 81 1613 
L 2172 4581 
L 2631 4581 
L 2631 1613 
L 3250 1613 
L 3250 1097 
L 2631 1097 
L 2631 0 
L 2069 0 
z
M 2069 1613 
L 2069 3678 
L 634 1613 
L 2069 1613 
z
" transform="scale(0.015625)"/>
       </defs>
       <use xlink:href="#ArialMT-30"/>
       <use xlink:href="#ArialMT-2e" transform="translate(55.615234 0)"/>
       <use xlink:href="#ArialMT-34" transform="translate(83.398438 0)"/>
      </g>
     </g>
    </g>
    <g id="ytick_3">
     <g id="line2d_14">
      <path d="M 528.518127 393.394478 
C 528.518127 370.121268 523.933812 347.07436 515.02754 325.572718 
C 506.121268 304.071076 493.066244 284.532851 476.609599 268.076206 
C 460.152954 251.619562 440.61473 238.564538 419.113088 229.658266 
C 397.611445 220.751994 374.564538 216.167679 351.291328 216.167679 
C 328.018118 216.167679 304.971211 220.751994 283.469568 229.658266 
C 261.967926 238.564538 242.429701 251.619562 225.973057 268.076206 
C 209.516412 284.532851 196.461388 304.071076 187.555116 325.572718 
C 178.648844 347.07436 174.064529 370.121268 174.064529 393.394478 
C 174.064529 416.667688 178.648844 439.714595 187.555116 461.216237 
C 196.461388 482.71788 209.516412 502.256104 225.973057 518.712749 
C 242.429701 535.169394 261.967926 548.224418 283.469568 557.13069 
C 304.971211 566.036962 328.018118 570.621277 351.291328 570.621277 
C 374.564538 570.621277 397.611445 566.036962 419.113088 557.13069 
C 440.61473 548.224418 460.152954 535.169394 476.609599 518.712749 
C 493.066244 502.256104 506.121268 482.71788 515.02754 461.216237 
C 523.933812 439.714595 528.518127 416.667688 528.518127 393.394478 
" clip-path="url(#pd4fe84297b)" style="fill: none; stroke-dasharray: 2.96,1.28; stroke-dashoffset: 0; stroke: #cccccc; stroke-opacity: 0.7; stroke-width: 0.8"/>
     </g>
     <g id="text_14">
      <!-- 0.6 -->
      <g style="fill: #262626" transform="translate(515.02754 323.783968) scale(0.09 -0.09)">
       <defs>
        <path id="ArialMT-36" d="M 3184 3459 
L 2625 3416 
Q 2550 3747 2413 3897 
Q 2184 4138 1850 4138 
Q 1581 4138 1378 3988 
Q 1113 3794 959 3422 
Q 806 3050 800 2363 
Q 1003 2672 1297 2822 
Q 1591 2972 1913 2972 
Q 2475 2972 2870 2558 
Q 3266 2144 3266 1488 
Q 3266 1056 3080 686 
Q 2894 316 2569 119 
Q 2244 -78 1831 -78 
Q 1128 -78 684 439 
Q 241 956 241 2144 
Q 241 3472 731 4075 
Q 1159 4600 1884 4600 
Q 2425 4600 2770 4297 
Q 3116 3994 3184 3459 
z
M 888 1484 
Q 888 1194 1011 928 
Q 1134 663 1356 523 
Q 1578 384 1822 384 
Q 2178 384 2434 671 
Q 2691 959 2691 1453 
Q 2691 1928 2437 2201 
Q 2184 2475 1800 2475 
Q 1419 2475 1153 2201 
Q 888 1928 888 1484 
z
" transform="scale(0.015625)"/>
       </defs>
       <use xlink:href="#ArialMT-30"/>
       <use xlink:href="#ArialMT-2e" transform="translate(55.615234 0)"/>
       <use xlink:href="#ArialMT-36" transform="translate(83.398438 0)"/>
      </g>
     </g>
    </g>
    <g id="ytick_4">
     <g id="line2d_15">
      <path d="M 587.593726 393.394478 
C 587.593726 362.363531 581.481306 331.634321 569.606277 302.965465 
C 557.731248 274.296608 540.324549 248.245642 518.382356 226.303449 
C 496.440163 204.361257 470.389197 186.954558 441.720341 175.079528 
C 413.051484 163.204499 382.322274 157.092079 351.291328 157.092079 
C 320.260381 157.092079 289.531171 163.204499 260.862315 175.079528 
C 232.193458 186.954558 206.142492 204.361257 184.200299 226.303449 
C 162.258107 248.245642 144.851408 274.296608 132.976378 302.965465 
C 121.101349 331.634321 114.988929 362.363531 114.988929 393.394478 
C 114.988929 424.425424 121.101349 455.154634 132.976378 483.823491 
C 144.851408 512.492347 162.258107 538.543313 184.200299 560.485506 
C 206.142492 582.427699 232.193458 599.834398 260.862315 611.709427 
C 289.531171 623.584456 320.260381 629.696876 351.291328 629.696876 
C 382.322274 629.696876 413.051484 623.584456 441.720341 611.709427 
C 470.389197 599.834398 496.440163 582.427699 518.382356 560.485506 
C 540.324549 538.543313 557.731248 512.492347 569.606277 483.823491 
C 581.481306 455.154634 587.593726 424.425424 587.593726 393.394478 
" clip-path="url(#pd4fe84297b)" style="fill: none; stroke-dasharray: 2.96,1.28; stroke-dashoffset: 0; stroke: #cccccc; stroke-opacity: 0.7; stroke-width: 0.8"/>
     </g>
     <g id="text_15">
      <!-- 0.8 -->
      <g style="fill: #262626" transform="translate(569.606277 301.176715) scale(0.09 -0.09)">
       <defs>
        <path id="ArialMT-38" d="M 1131 2484 
Q 781 2613 612 2850 
Q 444 3088 444 3419 
Q 444 3919 803 4259 
Q 1163 4600 1759 4600 
Q 2359 4600 2725 4251 
Q 3091 3903 3091 3403 
Q 3091 3084 2923 2848 
Q 2756 2613 2416 2484 
Q 2838 2347 3058 2040 
Q 3278 1734 3278 1309 
Q 3278 722 2862 322 
Q 2447 -78 1769 -78 
Q 1091 -78 675 323 
Q 259 725 259 1325 
Q 259 1772 486 2073 
Q 713 2375 1131 2484 
z
M 1019 3438 
Q 1019 3113 1228 2906 
Q 1438 2700 1772 2700 
Q 2097 2700 2305 2904 
Q 2513 3109 2513 3406 
Q 2513 3716 2298 3927 
Q 2084 4138 1766 4138 
Q 1444 4138 1231 3931 
Q 1019 3725 1019 3438 
z
M 838 1322 
Q 838 1081 952 856 
Q 1066 631 1291 507 
Q 1516 384 1775 384 
Q 2178 384 2440 643 
Q 2703 903 2703 1303 
Q 2703 1709 2433 1975 
Q 2163 2241 1756 2241 
Q 1359 2241 1098 1978 
Q 838 1716 838 1322 
z
" transform="scale(0.015625)"/>
       </defs>
       <use xlink:href="#ArialMT-30"/>
       <use xlink:href="#ArialMT-2e" transform="translate(55.615234 0)"/>
       <use xlink:href="#ArialMT-38" transform="translate(83.398438 0)"/>
      </g>
     </g>
    </g>
    <g id="ytick_5">
     <g id="line2d_16">
      <path d="M 646.669326 393.394478 
C 646.669326 354.605794 639.028801 316.194282 624.185015 280.358212 
C 609.341228 244.522141 587.582854 211.958433 560.155113 184.530692 
C 532.727372 157.102951 500.163665 135.344577 464.327594 120.500791 
C 428.491523 105.657005 390.080011 98.01648 351.291328 98.01648 
C 312.502645 98.01648 274.091132 105.657005 238.255062 120.500791 
C 202.418991 135.344577 169.855283 157.102951 142.427542 184.530692 
C 114.999801 211.958433 93.241428 244.522141 78.397641 280.358212 
C 63.553855 316.194282 55.91333 354.605794 55.91333 393.394478 
C 55.91333 432.183161 63.553855 470.594673 78.397641 506.430744 
C 93.241428 542.266814 114.999801 574.830522 142.427542 602.258263 
C 169.855283 629.686004 202.418991 651.444378 238.255062 666.288165 
C 274.091132 681.131951 312.502645 688.772476 351.291328 688.772476 
C 390.080011 688.772476 428.491523 681.131951 464.327594 666.288165 
C 500.163665 651.444378 532.727372 629.686004 560.155113 602.258263 
C 587.582854 574.830522 609.341228 542.266814 624.185015 506.430744 
C 639.028801 470.594673 646.669326 432.183161 646.669326 393.394478 
" clip-path="url(#pd4fe84297b)" style="fill: none; stroke-dasharray: 2.96,1.28; stroke-dashoffset: 0; stroke: #cccccc; stroke-opacity: 0.7; stroke-width: 0.8"/>
     </g>
     <g id="text_16">
      <!-- 1.0 -->
      <g style="fill: #262626" transform="translate(624.185015 278.569462) scale(0.09 -0.09)">
       <defs>
        <path id="ArialMT-31" d="M 2384 0 
L 1822 0 
L 1822 3584 
Q 1619 3391 1289 3197 
Q 959 3003 697 2906 
L 697 3450 
Q 1169 3672 1522 3987 
Q 1875 4303 2022 4600 
L 2384 4600 
L 2384 0 
z
" transform="scale(0.015625)"/>
       </defs>
       <use xlink:href="#ArialMT-31"/>
       <use xlink:href="#ArialMT-2e" transform="translate(55.615234 0)"/>
       <use xlink:href="#ArialMT-30" transform="translate(83.398438 0)"/>
      </g>
     </g>
    </g>
   </g>
   <g id="patch_3">
    <path d="M 602.362626 393.394478 
L 555.051311 262.445888 
L 459.271248 156.951433 
L 317.66199 159.497297 
L 206.217738 225.970631 
L 167.072804 339.303039 
L 152.902148 451.646797 
L 212.020682 554.121371 
L 322.706391 592.207081 
L 437.184446 581.474172 
L 500.383998 489.210519 
z
" clip-path="url(#pd4fe84297b)" style="fill: #ff0000; opacity: 0.25; stroke: #ff0000; stroke-linejoin: miter"/>
   </g>
   <g id="patch_4">
    <path d="M 558.055926 393.394478 
L 520.263021 284.802964 
L 439.638535 199.941078 
L 323.967491 203.353018 
L 231.363827 254.990764 
L 186.911722 345.128271 
L 195.414115 439.164157 
L 235.232456 527.333556 
L 326.910058 562.969934 
L 424.914001 554.605644 
L 480.504976 476.435047 
z
" clip-path="url(#pd4fe84297b)" style="fill: #ffa500; opacity: 0.25; stroke: #ffa500; stroke-linejoin: miter"/>
   </g>
   <g id="patch_5">
    <path d="M 498.980327 393.394478 
L 470.565464 316.741645 
L 415.097644 253.678133 
L 332.374825 261.827314 
L 258.444231 286.243216 
L 209.584771 351.785678 
L 237.926082 426.681517 
L 264.247174 493.848786 
L 333.635926 516.190498 
L 410.189466 522.363411 
L 463.110831 465.256509 
z
" clip-path="url(#pd4fe84297b)" style="fill: #4682b4; opacity: 0.25; stroke: #4682b4; stroke-linejoin: miter"/>
   </g>
   <g id="patch_6">
    <path d="M 439.904727 393.394478 
L 430.807419 342.292589 
L 385.648575 318.1626 
L 338.680326 305.683035 
L 283.590319 315.263349 
L 232.25782 358.443086 
L 280.438049 414.198877 
L 293.261892 460.364017 
L 339.52106 475.258491 
L 394.237887 487.434325 
L 445.716686 454.077971 
z
" clip-path="url(#pd4fe84297b)" style="fill: #808080; opacity: 0.25; stroke: #808080; stroke-linejoin: miter"/>
   </g>
   <g id="line2d_17">
    <path d="M 602.362626 393.394478 
L 555.051311 262.445888 
L 459.271248 156.951433 
L 317.66199 159.497297 
L 206.217738 225.970631 
L 167.072804 339.303039 
L 152.902148 451.646797 
L 212.020682 554.121371 
L 322.706391 592.207081 
L 437.184446 581.474172 
L 500.383998 489.210519 
L 602.362626 393.394478 
" clip-path="url(#pd4fe84297b)" style="fill: none; stroke: #ff0000; stroke-width: 2.5; stroke-linecap: round"/>
    <defs>
     <path id="medf5a2f854" d="M 0 3 
C 0.795609 3 1.55874 2.683901 2.12132 2.12132 
C 2.683901 1.55874 3 0.795609 3 0 
C 3 -0.795609 2.683901 -1.55874 2.12132 -2.12132 
C 1.55874 -2.683901 0.795609 -3 0 -3 
C -0.795609 -3 -1.55874 -2.683901 -2.12132 -2.12132 
C -2.683901 -1.55874 -3 -0.795609 -3 0 
C -3 0.795609 -2.683901 1.55874 -2.12132 2.12132 
C -1.55874 2.683901 -0.795609 3 0 3 
z
" style="stroke: #ff0000"/>
    </defs>
    <g clip-path="url(#pd4fe84297b)">
     <use xlink:href="#medf5a2f854" x="602.362626" y="393.394478" style="fill: #ff0000; stroke: #ff0000"/>
     <use xlink:href="#medf5a2f854" x="555.051311" y="262.445888" style="fill: #ff0000; stroke: #ff0000"/>
     <use xlink:href="#medf5a2f854" x="459.271248" y="156.951433" style="fill: #ff0000; stroke: #ff0000"/>
     <use xlink:href="#medf5a2f854" x="317.66199" y="159.497297" style="fill: #ff0000; stroke: #ff0000"/>
     <use xlink:href="#medf5a2f854" x="206.217738" y="225.970631" style="fill: #ff0000; stroke: #ff0000"/>
     <use xlink:href="#medf5a2f854" x="167.072804" y="339.303039" style="fill: #ff0000; stroke: #ff0000"/>
     <use xlink:href="#medf5a2f854" x="152.902148" y="451.646797" style="fill: #ff0000; stroke: #ff0000"/>
     <use xlink:href="#medf5a2f854" x="212.020682" y="554.121371" style="fill: #ff0000; stroke: #ff0000"/>
     <use xlink:href="#medf5a2f854" x="322.706391" y="592.207081" style="fill: #ff0000; stroke: #ff0000"/>
     <use xlink:href="#medf5a2f854" x="437.184446" y="581.474172" style="fill: #ff0000; stroke: #ff0000"/>
     <use xlink:href="#medf5a2f854" x="500.383998" y="489.210519" style="fill: #ff0000; stroke: #ff0000"/>
     <use xlink:href="#medf5a2f854" x="602.362626" y="393.394478" style="fill: #ff0000; stroke: #ff0000"/>
    </g>
   </g>
   <g id="line2d_18">
    <path d="M 558.055926 393.394478 
L 520.263021 284.802964 
L 439.638535 199.941078 
L 323.967491 203.353018 
L 231.363827 254.990764 
L 186.911722 345.128271 
L 195.414115 439.164157 
L 235.232456 527.333556 
L 326.910058 562.969934 
L 424.914001 554.605644 
L 480.504976 476.435047 
L 558.055926 393.394478 
" clip-path="url(#pd4fe84297b)" style="fill: none; stroke: #ffa500; stroke-width: 2.5; stroke-linecap: round"/>
    <defs>
     <path id="m5852fb8392" d="M 0 3 
C 0.795609 3 1.55874 2.683901 2.12132 2.12132 
C 2.683901 1.55874 3 0.795609 3 0 
C 3 -0.795609 2.683901 -1.55874 2.12132 -2.12132 
C 1.55874 -2.683901 0.795609 -3 0 -3 
C -0.795609 -3 -1.55874 -2.683901 -2.12132 -2.12132 
C -2.683901 -1.55874 -3 -0.795609 -3 0 
C -3 0.795609 -2.683901 1.55874 -2.12132 2.12132 
C -1.55874 2.683901 -0.795609 3 0 3 
z
" style="stroke: #ffa500"/>
    </defs>
    <g clip-path="url(#pd4fe84297b)">
     <use xlink:href="#m5852fb8392" x="558.055926" y="393.394478" style="fill: #ffa500; stroke: #ffa500"/>
     <use xlink:href="#m5852fb8392" x="520.263021" y="284.802964" style="fill: #ffa500; stroke: #ffa500"/>
     <use xlink:href="#m5852fb8392" x="439.638535" y="199.941078" style="fill: #ffa500; stroke: #ffa500"/>
     <use xlink:href="#m5852fb8392" x="323.967491" y="203.353018" style="fill: #ffa500; stroke: #ffa500"/>
     <use xlink:href="#m5852fb8392" x="231.363827" y="254.990764" style="fill: #ffa500; stroke: #ffa500"/>
     <use xlink:href="#m5852fb8392" x="186.911722" y="345.128271" style="fill: #ffa500; stroke: #ffa500"/>
     <use xlink:href="#m5852fb8392" x="195.414115" y="439.164157" style="fill: #ffa500; stroke: #ffa500"/>
     <use xlink:href="#m5852fb8392" x="235.232456" y="527.333556" style="fill: #ffa500; stroke: #ffa500"/>
     <use xlink:href="#m5852fb8392" x="326.910058" y="562.969934" style="fill: #ffa500; stroke: #ffa500"/>
     <use xlink:href="#m5852fb8392" x="424.914001" y="554.605644" style="fill: #ffa500; stroke: #ffa500"/>
     <use xlink:href="#m5852fb8392" x="480.504976" y="476.435047" style="fill: #ffa500; stroke: #ffa500"/>
     <use xlink:href="#m5852fb8392" x="558.055926" y="393.394478" style="fill: #ffa500; stroke: #ffa500"/>
    </g>
   </g>
   <g id="line2d_19">
    <path d="M 498.980327 393.394478 
L 470.565464 316.741645 
L 415.097644 253.678133 
L 332.374825 261.827314 
L 258.444231 286.243216 
L 209.584771 351.785678 
L 237.926082 426.681517 
L 264.247174 493.848786 
L 333.635926 516.190498 
L 410.189466 522.363411 
L 463.110831 465.256509 
L 498.980327 393.394478 
" clip-path="url(#pd4fe84297b)" style="fill: none; stroke: #4682b4; stroke-width: 2.5; stroke-linecap: round"/>
    <defs>
     <path id="m75c15c29da" d="M 0 3 
C 0.795609 3 1.55874 2.683901 2.12132 2.12132 
C 2.683901 1.55874 3 0.795609 3 0 
C 3 -0.795609 2.683901 -1.55874 2.12132 -2.12132 
C 1.55874 -2.683901 0.795609 -3 0 -3 
C -0.795609 -3 -1.55874 -2.683901 -2.12132 -2.12132 
C -2.683901 -1.55874 -3 -0.795609 -3 0 
C -3 0.795609 -2.683901 1.55874 -2.12132 2.12132 
C -1.55874 2.683901 -0.795609 3 0 3 
z
" style="stroke: #4682b4"/>
    </defs>
    <g clip-path="url(#pd4fe84297b)">
     <use xlink:href="#m75c15c29da" x="498.980327" y="393.394478" style="fill: #4682b4; stroke: #4682b4"/>
     <use xlink:href="#m75c15c29da" x="470.565464" y="316.741645" style="fill: #4682b4; stroke: #4682b4"/>
     <use xlink:href="#m75c15c29da" x="415.097644" y="253.678133" style="fill: #4682b4; stroke: #4682b4"/>
     <use xlink:href="#m75c15c29da" x="332.374825" y="261.827314" style="fill: #4682b4; stroke: #4682b4"/>
     <use xlink:href="#m75c15c29da" x="258.444231" y="286.243216" style="fill: #4682b4; stroke: #4682b4"/>
     <use xlink:href="#m75c15c29da" x="209.584771" y="351.785678" style="fill: #4682b4; stroke: #4682b4"/>
     <use xlink:href="#m75c15c29da" x="237.926082" y="426.681517" style="fill: #4682b4; stroke: #4682b4"/>
     <use xlink:href="#m75c15c29da" x="264.247174" y="493.848786" style="fill: #4682b4; stroke: #4682b4"/>
     <use xlink:href="#m75c15c29da" x="333.635926" y="516.190498" style="fill: #4682b4; stroke: #4682b4"/>
     <use xlink:href="#m75c15c29da" x="410.189466" y="522.363411" style="fill: #4682b4; stroke: #4682b4"/>
     <use xlink:href="#m75c15c29da" x="463.110831" y="465.256509" style="fill: #4682b4; stroke: #4682b4"/>
     <use xlink:href="#m75c15c29da" x="498.980327" y="393.394478" style="fill: #4682b4; stroke: #4682b4"/>
    </g>
   </g>
   <g id="line2d_20">
    <path d="M 439.904727 393.394478 
L 430.807419 342.292589 
L 385.648575 318.1626 
L 338.680326 305.683035 
L 283.590319 315.263349 
L 232.25782 358.443086 
L 280.438049 414.198877 
L 293.261892 460.364017 
L 339.52106 475.258491 
L 394.237887 487.434325 
L 445.716686 454.077971 
L 439.904727 393.394478 
" clip-path="url(#pd4fe84297b)" style="fill: none; stroke: #808080; stroke-width: 2.5; stroke-linecap: round"/>
    <defs>
     <path id="m79dfe67015" d="M 0 3 
C 0.795609 3 1.55874 2.683901 2.12132 2.12132 
C 2.683901 1.55874 3 0.795609 3 0 
C 3 -0.795609 2.683901 -1.55874 2.12132 -2.12132 
C 1.55874 -2.683901 0.795609 -3 0 -3 
C -0.795609 -3 -1.55874 -2.683901 -2.12132 -2.12132 
C -2.683901 -1.55874 -3 -0.795609 -3 0 
C -3 0.795609 -2.683901 1.55874 -2.12132 2.12132 
C -1.55874 2.683901 -0.795609 3 0 3 
z
" style="stroke: #808080"/>
    </defs>
    <g clip-path="url(#pd4fe84297b)">
     <use xlink:href="#m79dfe67015" x="439.904727" y="393.394478" style="fill: #808080; stroke: #808080"/>
     <use xlink:href="#m79dfe67015" x="430.807419" y="342.292589" style="fill: #808080; stroke: #808080"/>
     <use xlink:href="#m79dfe67015" x="385.648575" y="318.1626" style="fill: #808080; stroke: #808080"/>
     <use xlink:href="#m79dfe67015" x="338.680326" y="305.683035" style="fill: #808080; stroke: #808080"/>
     <use xlink:href="#m79dfe67015" x="283.590319" y="315.263349" style="fill: #808080; stroke: #808080"/>
     <use xlink:href="#m79dfe67015" x="232.25782" y="358.443086" style="fill: #808080; stroke: #808080"/>
     <use xlink:href="#m79dfe67015" x="280.438049" y="414.198877" style="fill: #808080; stroke: #808080"/>
     <use xlink:href="#m79dfe67015" x="293.261892" y="460.364017" style="fill: #808080; stroke: #808080"/>
     <use xlink:href="#m79dfe67015" x="339.52106" y="475.258491" style="fill: #808080; stroke: #808080"/>
     <use xlink:href="#m79dfe67015" x="394.237887" y="487.434325" style="fill: #808080; stroke: #808080"/>
     <use xlink:href="#m79dfe67015" x="445.716686" y="454.077971" style="fill: #808080; stroke: #808080"/>
     <use xlink:href="#m79dfe67015" x="439.904727" y="393.394478" style="fill: #808080; stroke: #808080"/>
    </g>
   </g>
   <g id="patch_7">
    <path d="M 646.669326 393.394478 
C 646.669326 354.605794 639.028801 316.194282 624.185015 280.358212 
C 609.341228 244.522141 587.582854 211.958433 560.155113 184.530692 
C 532.727372 157.102951 500.163665 135.344577 464.327594 120.500791 
C 428.491523 105.657005 390.080011 98.01648 351.291328 98.01648 
C 312.502645 98.01648 274.091132 105.657005 238.255062 120.500791 
C 202.418991 135.344577 169.855283 157.102951 142.427542 184.530692 
C 114.999801 211.958433 93.241428 244.522141 78.397641 280.358212 
C 63.553855 316.194282 55.91333 354.605794 55.91333 393.394478 
C 55.91333 432.183161 63.553855 470.594673 78.397641 506.430744 
C 93.241428 542.266814 114.999801 574.830522 142.427542 602.258263 
C 169.855283 629.686004 202.418991 651.444378 238.255062 666.288165 
C 274.091132 681.131951 312.502645 688.772476 351.291328 688.772476 
C 390.080011 688.772476 428.491523 681.131951 464.327594 666.288165 
C 500.163665 651.444378 532.727372 629.686004 560.155113 602.258263 
C 587.582854 574.830522 609.341228 542.266814 624.185015 506.430744 
C 639.028801 470.594673 646.669326 432.183161 646.669326 393.394478 
" style="fill: none; stroke: #cccccc; stroke-width: 0.8; stroke-linejoin: miter; stroke-linecap: square"/>
   </g>
   <g id="text_17">
    <!-- Figure 20 Radar Chart of Four Adaptation Types -->
    <g style="fill: #262626" transform="translate(203.591015 16.663594) scale(0.13 -0.13)">
     <defs>
      <path id="Arial-BoldMT-46" d="M 472 0 
L 472 4581 
L 3613 4581 
L 3613 3806 
L 1397 3806 
L 1397 2722 
L 3309 2722 
L 3309 1947 
L 1397 1947 
L 1397 0 
L 472 0 
z
" transform="scale(0.015625)"/>
      <path id="Arial-BoldMT-69" d="M 459 3769 
L 459 4581 
L 1338 4581 
L 1338 3769 
L 459 3769 
z
M 459 0 
L 459 3319 
L 1338 3319 
L 1338 0 
L 459 0 
z
" transform="scale(0.015625)"/>
      <path id="Arial-BoldMT-67" d="M 378 -219 
L 1381 -341 
Q 1406 -516 1497 -581 
Q 1622 -675 1891 -675 
Q 2234 -675 2406 -572 
Q 2522 -503 2581 -350 
Q 2622 -241 2622 53 
L 2622 538 
Q 2228 0 1628 0 
Q 959 0 569 566 
Q 263 1013 263 1678 
Q 263 2513 664 2953 
Q 1066 3394 1663 3394 
Q 2278 3394 2678 2853 
L 2678 3319 
L 3500 3319 
L 3500 341 
Q 3500 -247 3403 -537 
Q 3306 -828 3131 -993 
Q 2956 -1159 2664 -1253 
Q 2372 -1347 1925 -1347 
Q 1081 -1347 728 -1058 
Q 375 -769 375 -325 
Q 375 -281 378 -219 
z
M 1163 1728 
Q 1163 1200 1367 954 
Q 1572 709 1872 709 
Q 2194 709 2416 961 
Q 2638 1213 2638 1706 
Q 2638 2222 2425 2472 
Q 2213 2722 1888 2722 
Q 1572 2722 1367 2476 
Q 1163 2231 1163 1728 
z
" transform="scale(0.015625)"/>
      <path id="Arial-BoldMT-75" d="M 2644 0 
L 2644 497 
Q 2463 231 2167 78 
Q 1872 -75 1544 -75 
Q 1209 -75 943 72 
Q 678 219 559 484 
Q 441 750 441 1219 
L 441 3319 
L 1319 3319 
L 1319 1794 
Q 1319 1094 1367 936 
Q 1416 778 1544 686 
Q 1672 594 1869 594 
Q 2094 594 2272 717 
Q 2450 841 2515 1023 
Q 2581 1206 2581 1919 
L 2581 3319 
L 3459 3319 
L 3459 0 
L 2644 0 
z
" transform="scale(0.015625)"/>
      <path id="Arial-BoldMT-72" d="M 1300 0 
L 422 0 
L 422 3319 
L 1238 3319 
L 1238 2847 
Q 1447 3181 1614 3287 
Q 1781 3394 1994 3394 
Q 2294 3394 2572 3228 
L 2300 2463 
Q 2078 2606 1888 2606 
Q 1703 2606 1575 2504 
Q 1447 2403 1373 2137 
Q 1300 1872 1300 1025 
L 1300 0 
z
" transform="scale(0.015625)"/>
      <path id="Arial-BoldMT-65" d="M 2381 1056 
L 3256 909 
Q 3088 428 2723 176 
Q 2359 -75 1813 -75 
Q 947 -75 531 491 
Q 203 944 203 1634 
Q 203 2459 634 2926 
Q 1066 3394 1725 3394 
Q 2466 3394 2894 2905 
Q 3322 2416 3303 1406 
L 1103 1406 
Q 1113 1016 1316 798 
Q 1519 581 1822 581 
Q 2028 581 2168 693 
Q 2309 806 2381 1056 
z
M 2431 1944 
Q 2422 2325 2234 2523 
Q 2047 2722 1778 2722 
Q 1491 2722 1303 2513 
Q 1116 2303 1119 1944 
L 2431 1944 
z
" transform="scale(0.015625)"/>
      <path id="Arial-BoldMT-20" transform="scale(0.015625)"/>
      <path id="Arial-BoldMT-32" d="M 3238 816 
L 3238 0 
L 159 0 
Q 209 463 459 877 
Q 709 1291 1447 1975 
Q 2041 2528 2175 2725 
Q 2356 2997 2356 3263 
Q 2356 3556 2198 3714 
Q 2041 3872 1763 3872 
Q 1488 3872 1325 3706 
Q 1163 3541 1138 3156 
L 263 3244 
Q 341 3969 753 4284 
Q 1166 4600 1784 4600 
Q 2463 4600 2850 4234 
Q 3238 3869 3238 3325 
Q 3238 3016 3127 2736 
Q 3016 2456 2775 2150 
Q 2616 1947 2200 1565 
Q 1784 1184 1673 1059 
Q 1563 934 1494 816 
L 3238 816 
z
" transform="scale(0.015625)"/>
      <path id="Arial-BoldMT-30" d="M 1756 4600 
Q 2422 4600 2797 4125 
Q 3244 3563 3244 2259 
Q 3244 959 2794 391 
Q 2422 -78 1756 -78 
Q 1088 -78 678 436 
Q 269 950 269 2269 
Q 269 3563 719 4131 
Q 1091 4600 1756 4600 
z
M 1756 3872 
Q 1597 3872 1472 3770 
Q 1347 3669 1278 3406 
Q 1188 3066 1188 2259 
Q 1188 1453 1269 1151 
Q 1350 850 1473 750 
Q 1597 650 1756 650 
Q 1916 650 2041 751 
Q 2166 853 2234 1116 
Q 2325 1453 2325 2259 
Q 2325 3066 2244 3367 
Q 2163 3669 2039 3770 
Q 1916 3872 1756 3872 
z
" transform="scale(0.015625)"/>
      <path id="Arial-BoldMT-52" d="M 469 0 
L 469 4581 
L 2416 4581 
Q 3150 4581 3483 4457 
Q 3816 4334 4016 4018 
Q 4216 3703 4216 3297 
Q 4216 2781 3912 2445 
Q 3609 2109 3006 2022 
Q 3306 1847 3501 1637 
Q 3697 1428 4028 894 
L 4588 0 
L 3481 0 
L 2813 997 
Q 2456 1531 2325 1670 
Q 2194 1809 2047 1861 
Q 1900 1913 1581 1913 
L 1394 1913 
L 1394 0 
L 469 0 
z
M 1394 2644 
L 2078 2644 
Q 2744 2644 2909 2700 
Q 3075 2756 3169 2893 
Q 3263 3031 3263 3238 
Q 3263 3469 3139 3611 
Q 3016 3753 2791 3791 
Q 2678 3806 2116 3806 
L 1394 3806 
L 1394 2644 
z
" transform="scale(0.015625)"/>
      <path id="Arial-BoldMT-61" d="M 1116 2306 
L 319 2450 
Q 453 2931 781 3162 
Q 1109 3394 1756 3394 
Q 2344 3394 2631 3255 
Q 2919 3116 3036 2902 
Q 3153 2688 3153 2116 
L 3144 1091 
Q 3144 653 3186 445 
Q 3228 238 3344 0 
L 2475 0 
Q 2441 88 2391 259 
Q 2369 338 2359 363 
Q 2134 144 1878 34 
Q 1622 -75 1331 -75 
Q 819 -75 523 203 
Q 228 481 228 906 
Q 228 1188 362 1408 
Q 497 1628 739 1745 
Q 981 1863 1438 1950 
Q 2053 2066 2291 2166 
L 2291 2253 
Q 2291 2506 2166 2614 
Q 2041 2722 1694 2722 
Q 1459 2722 1328 2630 
Q 1197 2538 1116 2306 
z
M 2291 1594 
Q 2122 1538 1756 1459 
Q 1391 1381 1278 1306 
Q 1106 1184 1106 997 
Q 1106 813 1243 678 
Q 1381 544 1594 544 
Q 1831 544 2047 700 
Q 2206 819 2256 991 
Q 2291 1103 2291 1419 
L 2291 1594 
z
" transform="scale(0.015625)"/>
      <path id="Arial-BoldMT-64" d="M 3503 0 
L 2688 0 
L 2688 488 
Q 2484 203 2207 64 
Q 1931 -75 1650 -75 
Q 1078 -75 670 386 
Q 263 847 263 1672 
Q 263 2516 659 2955 
Q 1056 3394 1663 3394 
Q 2219 3394 2625 2931 
L 2625 4581 
L 3503 4581 
L 3503 0 
z
M 1159 1731 
Q 1159 1200 1306 963 
Q 1519 619 1900 619 
Q 2203 619 2415 876 
Q 2628 1134 2628 1647 
Q 2628 2219 2422 2470 
Q 2216 2722 1894 2722 
Q 1581 2722 1370 2473 
Q 1159 2225 1159 1731 
z
" transform="scale(0.015625)"/>
      <path id="Arial-BoldMT-43" d="M 3397 1684 
L 4294 1400 
Q 4088 650 3608 286 
Q 3128 -78 2391 -78 
Q 1478 -78 890 545 
Q 303 1169 303 2250 
Q 303 3394 893 4026 
Q 1484 4659 2447 4659 
Q 3288 4659 3813 4163 
Q 4125 3869 4281 3319 
L 3366 3100 
Q 3284 3456 3026 3662 
Q 2769 3869 2400 3869 
Q 1891 3869 1573 3503 
Q 1256 3138 1256 2319 
Q 1256 1450 1568 1081 
Q 1881 713 2381 713 
Q 2750 713 3015 947 
Q 3281 1181 3397 1684 
z
" transform="scale(0.015625)"/>
      <path id="Arial-BoldMT-68" d="M 1334 4581 
L 1334 2897 
Q 1759 3394 2350 3394 
Q 2653 3394 2897 3281 
Q 3141 3169 3264 2994 
Q 3388 2819 3433 2606 
Q 3478 2394 3478 1947 
L 3478 0 
L 2600 0 
L 2600 1753 
Q 2600 2275 2550 2415 
Q 2500 2556 2373 2639 
Q 2247 2722 2056 2722 
Q 1838 2722 1666 2615 
Q 1494 2509 1414 2295 
Q 1334 2081 1334 1663 
L 1334 0 
L 456 0 
L 456 4581 
L 1334 4581 
z
" transform="scale(0.015625)"/>
      <path id="Arial-BoldMT-74" d="M 1981 3319 
L 1981 2619 
L 1381 2619 
L 1381 1281 
Q 1381 875 1398 808 
Q 1416 741 1477 697 
Q 1538 653 1625 653 
Q 1747 653 1978 738 
L 2053 56 
Q 1747 -75 1359 -75 
Q 1122 -75 931 4 
Q 741 84 652 211 
Q 563 338 528 553 
Q 500 706 500 1172 
L 500 2619 
L 97 2619 
L 97 3319 
L 500 3319 
L 500 3978 
L 1381 4491 
L 1381 3319 
L 1981 3319 
z
" transform="scale(0.015625)"/>
      <path id="Arial-BoldMT-6f" d="M 256 1706 
Q 256 2144 472 2553 
Q 688 2963 1083 3178 
Q 1478 3394 1966 3394 
Q 2719 3394 3200 2905 
Q 3681 2416 3681 1669 
Q 3681 916 3195 420 
Q 2709 -75 1972 -75 
Q 1516 -75 1102 131 
Q 688 338 472 736 
Q 256 1134 256 1706 
z
M 1156 1659 
Q 1156 1166 1390 903 
Q 1625 641 1969 641 
Q 2313 641 2545 903 
Q 2778 1166 2778 1666 
Q 2778 2153 2545 2415 
Q 2313 2678 1969 2678 
Q 1625 2678 1390 2415 
Q 1156 2153 1156 1659 
z
" transform="scale(0.015625)"/>
      <path id="Arial-BoldMT-66" d="M 75 3319 
L 563 3319 
L 563 3569 
Q 563 3988 652 4194 
Q 741 4400 980 4529 
Q 1219 4659 1584 4659 
Q 1959 4659 2319 4547 
L 2200 3934 
Q 1991 3984 1797 3984 
Q 1606 3984 1523 3895 
Q 1441 3806 1441 3553 
L 1441 3319 
L 2097 3319 
L 2097 2628 
L 1441 2628 
L 1441 0 
L 563 0 
L 563 2628 
L 75 2628 
L 75 3319 
z
" transform="scale(0.015625)"/>
      <path id="Arial-BoldMT-41" d="M 4597 0 
L 3591 0 
L 3191 1041 
L 1359 1041 
L 981 0 
L 0 0 
L 1784 4581 
L 2763 4581 
L 4597 0 
z
M 2894 1813 
L 2263 3513 
L 1644 1813 
L 2894 1813 
z
" transform="scale(0.015625)"/>
      <path id="Arial-BoldMT-70" d="M 434 3319 
L 1253 3319 
L 1253 2831 
Q 1413 3081 1684 3237 
Q 1956 3394 2288 3394 
Q 2866 3394 3269 2941 
Q 3672 2488 3672 1678 
Q 3672 847 3265 386 
Q 2859 -75 2281 -75 
Q 2006 -75 1782 34 
Q 1559 144 1313 409 
L 1313 -1263 
L 434 -1263 
L 434 3319 
z
M 1303 1716 
Q 1303 1156 1525 889 
Q 1747 622 2066 622 
Q 2372 622 2575 867 
Q 2778 1113 2778 1672 
Q 2778 2194 2568 2447 
Q 2359 2700 2050 2700 
Q 1728 2700 1515 2451 
Q 1303 2203 1303 1716 
z
" transform="scale(0.015625)"/>
      <path id="Arial-BoldMT-6e" d="M 3478 0 
L 2600 0 
L 2600 1694 
Q 2600 2231 2544 2389 
Q 2488 2547 2361 2634 
Q 2234 2722 2056 2722 
Q 1828 2722 1647 2597 
Q 1466 2472 1398 2265 
Q 1331 2059 1331 1503 
L 1331 0 
L 453 0 
L 453 3319 
L 1269 3319 
L 1269 2831 
Q 1703 3394 2363 3394 
Q 2653 3394 2893 3289 
Q 3134 3184 3257 3021 
Q 3381 2859 3429 2653 
Q 3478 2447 3478 2063 
L 3478 0 
z
" transform="scale(0.015625)"/>
      <path id="Arial-BoldMT-54" d="M 1497 0 
L 1497 3806 
L 138 3806 
L 138 4581 
L 3778 4581 
L 3778 3806 
L 2422 3806 
L 2422 0 
L 1497 0 
z
" transform="scale(0.015625)"/>
      <path id="Arial-BoldMT-79" d="M 44 3319 
L 978 3319 
L 1772 963 
L 2547 3319 
L 3456 3319 
L 2284 125 
L 2075 -453 
Q 1959 -744 1854 -897 
Q 1750 -1050 1614 -1145 
Q 1478 -1241 1279 -1294 
Q 1081 -1347 831 -1347 
Q 578 -1347 334 -1294 
L 256 -606 
Q 463 -647 628 -647 
Q 934 -647 1081 -467 
Q 1228 -288 1306 -9 
L 44 3319 
z
" transform="scale(0.015625)"/>
      <path id="Arial-BoldMT-73" d="M 150 947 
L 1031 1081 
Q 1088 825 1259 692 
Q 1431 559 1741 559 
Q 2081 559 2253 684 
Q 2369 772 2369 919 
Q 2369 1019 2306 1084 
Q 2241 1147 2013 1200 
Q 950 1434 666 1628 
Q 272 1897 272 2375 
Q 272 2806 612 3100 
Q 953 3394 1669 3394 
Q 2350 3394 2681 3172 
Q 3013 2950 3138 2516 
L 2309 2363 
Q 2256 2556 2107 2659 
Q 1959 2763 1684 2763 
Q 1338 2763 1188 2666 
Q 1088 2597 1088 2488 
Q 1088 2394 1175 2328 
Q 1294 2241 1995 2081 
Q 2697 1922 2975 1691 
Q 3250 1456 3250 1038 
Q 3250 581 2869 253 
Q 2488 -75 1741 -75 
Q 1063 -75 667 200 
Q 272 475 150 947 
z
" transform="scale(0.015625)"/>
     </defs>
     <use xlink:href="#Arial-BoldMT-46"/>
     <use xlink:href="#Arial-BoldMT-69" transform="translate(61.083984 0)"/>
     <use xlink:href="#Arial-BoldMT-67" transform="translate(88.867188 0)"/>
     <use xlink:href="#Arial-BoldMT-75" transform="translate(149.951172 0)"/>
     <use xlink:href="#Arial-BoldMT-72" transform="translate(211.035156 0)"/>
     <use xlink:href="#Arial-BoldMT-65" transform="translate(249.951172 0)"/>
     <use xlink:href="#Arial-BoldMT-20" transform="translate(305.566406 0)"/>
     <use xlink:href="#Arial-BoldMT-32" transform="translate(333.349609 0)"/>
     <use xlink:href="#Arial-BoldMT-30" transform="translate(388.964844 0)"/>
     <use xlink:href="#Arial-BoldMT-20" transform="translate(444.580078 0)"/>
     <use xlink:href="#Arial-BoldMT-52" transform="translate(472.363281 0)"/>
     <use xlink:href="#Arial-BoldMT-61" transform="translate(544.580078 0)"/>
     <use xlink:href="#Arial-BoldMT-64" transform="translate(600.195312 0)"/>
     <use xlink:href="#Arial-BoldMT-61" transform="translate(661.279297 0)"/>
     <use xlink:href="#Arial-BoldMT-72" transform="translate(716.894531 0)"/>
     <use xlink:href="#Arial-BoldMT-20" transform="translate(755.810547 0)"/>
     <use xlink:href="#Arial-BoldMT-43" transform="translate(783.59375 0)"/>
     <use xlink:href="#Arial-BoldMT-68" transform="translate(855.810547 0)"/>
     <use xlink:href="#Arial-BoldMT-61" transform="translate(916.894531 0)"/>
     <use xlink:href="#Arial-BoldMT-72" transform="translate(972.509766 0)"/>
     <use xlink:href="#Arial-BoldMT-74" transform="translate(1011.425781 0)"/>
     <use xlink:href="#Arial-BoldMT-20" transform="translate(1044.726562 0)"/>
     <use xlink:href="#Arial-BoldMT-6f" transform="translate(1072.509766 0)"/>
     <use xlink:href="#Arial-BoldMT-66" transform="translate(1133.59375 0)"/>
     <use xlink:href="#Arial-BoldMT-20" transform="translate(1166.894531 0)"/>
     <use xlink:href="#Arial-BoldMT-46" transform="translate(1194.677734 0)"/>
     <use xlink:href="#Arial-BoldMT-6f" transform="translate(1255.761719 0)"/>
     <use xlink:href="#Arial-BoldMT-75" transform="translate(1316.845703 0)"/>
     <use xlink:href="#Arial-BoldMT-72" transform="translate(1377.929688 0)"/>
     <use xlink:href="#Arial-BoldMT-20" transform="translate(1416.845703 0)"/>
     <use xlink:href="#Arial-BoldMT-41" transform="translate(1440.878906 0)"/>
     <use xlink:href="#Arial-BoldMT-64" transform="translate(1513.095703 0)"/>
     <use xlink:href="#Arial-BoldMT-61" transform="translate(1574.179688 0)"/>
     <use xlink:href="#Arial-BoldMT-70" transform="translate(1629.794922 0)"/>
     <use xlink:href="#Arial-BoldMT-74" transform="translate(1690.878906 0)"/>
     <use xlink:href="#Arial-BoldMT-61" transform="translate(1724.179688 0)"/>
     <use xlink:href="#Arial-BoldMT-74" transform="translate(1779.794922 0)"/>
     <use xlink:href="#Arial-BoldMT-69" transform="translate(1813.095703 0)"/>
     <use xlink:href="#Arial-BoldMT-6f" transform="translate(1840.878906 0)"/>
     <use xlink:href="#Arial-BoldMT-6e" transform="translate(1901.962891 0)"/>
     <use xlink:href="#Arial-BoldMT-20" transform="translate(1963.046875 0)"/>
     <use xlink:href="#Arial-BoldMT-54" transform="translate(1990.830078 0)"/>
     <use xlink:href="#Arial-BoldMT-79" transform="translate(2044.539062 0)"/>
     <use xlink:href="#Arial-BoldMT-70" transform="translate(2100.154297 0)"/>
     <use xlink:href="#Arial-BoldMT-65" transform="translate(2161.238281 0)"/>
     <use xlink:href="#Arial-BoldMT-73" transform="translate(2216.853516 0)"/>
    </g>
    <!-- (Hong Kong Sample, N=75) -->
    <g style="fill: #262626" transform="translate(267.690156 30.756) scale(0.13 -0.13)">
     <defs>
      <path id="Arial-BoldMT-28" d="M 1916 -1347 
L 1313 -1347 
Q 834 -625 584 153 
Q 334 931 334 1659 
Q 334 2563 644 3369 
Q 913 4069 1325 4659 
L 1925 4659 
Q 1497 3713 1336 3048 
Q 1175 2384 1175 1641 
Q 1175 1128 1270 590 
Q 1366 53 1531 -431 
Q 1641 -750 1916 -1347 
z
" transform="scale(0.015625)"/>
      <path id="Arial-BoldMT-48" d="M 469 0 
L 469 4581 
L 1394 4581 
L 1394 2778 
L 3206 2778 
L 3206 4581 
L 4131 4581 
L 4131 0 
L 3206 0 
L 3206 2003 
L 1394 2003 
L 1394 0 
L 469 0 
z
" transform="scale(0.015625)"/>
      <path id="Arial-BoldMT-4b" d="M 478 0 
L 478 4581 
L 1403 4581 
L 1403 2547 
L 3272 4581 
L 4516 4581 
L 2791 2797 
L 4609 0 
L 3413 0 
L 2153 2150 
L 1403 1384 
L 1403 0 
L 478 0 
z
" transform="scale(0.015625)"/>
      <path id="Arial-BoldMT-53" d="M 231 1491 
L 1131 1578 
Q 1213 1125 1461 912 
Q 1709 700 2131 700 
Q 2578 700 2804 889 
Q 3031 1078 3031 1331 
Q 3031 1494 2936 1608 
Q 2841 1722 2603 1806 
Q 2441 1863 1863 2006 
Q 1119 2191 819 2459 
Q 397 2838 397 3381 
Q 397 3731 595 4036 
Q 794 4341 1167 4500 
Q 1541 4659 2069 4659 
Q 2931 4659 3367 4281 
Q 3803 3903 3825 3272 
L 2900 3231 
Q 2841 3584 2645 3739 
Q 2450 3894 2059 3894 
Q 1656 3894 1428 3728 
Q 1281 3622 1281 3444 
Q 1281 3281 1419 3166 
Q 1594 3019 2269 2859 
Q 2944 2700 3267 2529 
Q 3591 2359 3773 2064 
Q 3956 1769 3956 1334 
Q 3956 941 3737 597 
Q 3519 253 3119 86 
Q 2719 -81 2122 -81 
Q 1253 -81 787 320 
Q 322 722 231 1491 
z
" transform="scale(0.015625)"/>
      <path id="Arial-BoldMT-6d" d="M 394 3319 
L 1203 3319 
L 1203 2866 
Q 1638 3394 2238 3394 
Q 2556 3394 2790 3262 
Q 3025 3131 3175 2866 
Q 3394 3131 3647 3262 
Q 3900 3394 4188 3394 
Q 4553 3394 4806 3245 
Q 5059 3097 5184 2809 
Q 5275 2597 5275 2122 
L 5275 0 
L 4397 0 
L 4397 1897 
Q 4397 2391 4306 2534 
Q 4184 2722 3931 2722 
Q 3747 2722 3584 2609 
Q 3422 2497 3350 2280 
Q 3278 2063 3278 1594 
L 3278 0 
L 2400 0 
L 2400 1819 
Q 2400 2303 2353 2443 
Q 2306 2584 2207 2653 
Q 2109 2722 1941 2722 
Q 1738 2722 1575 2612 
Q 1413 2503 1342 2297 
Q 1272 2091 1272 1613 
L 1272 0 
L 394 0 
L 394 3319 
z
" transform="scale(0.015625)"/>
      <path id="Arial-BoldMT-6c" d="M 459 0 
L 459 4581 
L 1338 4581 
L 1338 0 
L 459 0 
z
" transform="scale(0.015625)"/>
      <path id="Arial-BoldMT-2c" d="M 438 878 
L 1316 878 
L 1316 250 
Q 1316 -131 1250 -351 
Q 1184 -572 1001 -747 
Q 819 -922 538 -1022 
L 366 -659 
Q 631 -572 743 -419 
Q 856 -266 863 0 
L 438 0 
L 438 878 
z
" transform="scale(0.015625)"/>
      <path id="Arial-BoldMT-4e" d="M 475 0 
L 475 4581 
L 1375 4581 
L 3250 1522 
L 3250 4581 
L 4109 4581 
L 4109 0 
L 3181 0 
L 1334 2988 
L 1334 0 
L 475 0 
z
" transform="scale(0.015625)"/>
      <path id="Arial-BoldMT-3d" d="M 266 2550 
L 266 3356 
L 3469 3356 
L 3469 2550 
L 266 2550 
z
M 266 1163 
L 266 1972 
L 3469 1972 
L 3469 1163 
L 266 1163 
z
" transform="scale(0.015625)"/>
      <path id="Arial-BoldMT-37" d="M 272 3703 
L 272 4519 
L 3275 4519 
L 3275 3881 
Q 2903 3516 2518 2831 
Q 2134 2147 1932 1376 
Q 1731 606 1734 0 
L 888 0 
Q 909 950 1279 1937 
Q 1650 2925 2269 3703 
L 272 3703 
z
" transform="scale(0.015625)"/>
      <path id="Arial-BoldMT-35" d="M 284 1178 
L 1159 1269 
Q 1197 972 1381 798 
Q 1566 625 1806 625 
Q 2081 625 2272 848 
Q 2463 1072 2463 1522 
Q 2463 1944 2273 2155 
Q 2084 2366 1781 2366 
Q 1403 2366 1103 2031 
L 391 2134 
L 841 4519 
L 3163 4519 
L 3163 3697 
L 1506 3697 
L 1369 2919 
Q 1663 3066 1969 3066 
Q 2553 3066 2959 2641 
Q 3366 2216 3366 1538 
Q 3366 972 3038 528 
Q 2591 -78 1797 -78 
Q 1163 -78 763 262 
Q 363 603 284 1178 
z
" transform="scale(0.015625)"/>
      <path id="Arial-BoldMT-29" d="M 216 -1347 
Q 475 -791 581 -494 
Q 688 -197 778 190 
Q 869 578 912 926 
Q 956 1275 956 1641 
Q 956 2384 797 3048 
Q 638 3713 209 4659 
L 806 4659 
Q 1278 3988 1539 3234 
Q 1800 2481 1800 1706 
Q 1800 1053 1594 306 
Q 1359 -531 822 -1347 
L 216 -1347 
z
" transform="scale(0.015625)"/>
     </defs>
     <use xlink:href="#Arial-BoldMT-28"/>
     <use xlink:href="#Arial-BoldMT-48" transform="translate(33.300781 0)"/>
     <use xlink:href="#Arial-BoldMT-6f" transform="translate(105.517578 0)"/>
     <use xlink:href="#Arial-BoldMT-6e" transform="translate(166.601562 0)"/>
     <use xlink:href="#Arial-BoldMT-67" transform="translate(227.685547 0)"/>
     <use xlink:href="#Arial-BoldMT-20" transform="translate(288.769531 0)"/>
     <use xlink:href="#Arial-BoldMT-4b" transform="translate(316.552734 0)"/>
     <use xlink:href="#Arial-BoldMT-6f" transform="translate(388.769531 0)"/>
     <use xlink:href="#Arial-BoldMT-6e" transform="translate(449.853516 0)"/>
     <use xlink:href="#Arial-BoldMT-67" transform="translate(510.9375 0)"/>
     <use xlink:href="#Arial-BoldMT-20" transform="translate(572.021484 0)"/>
     <use xlink:href="#Arial-BoldMT-53" transform="translate(599.804688 0)"/>
     <use xlink:href="#Arial-BoldMT-61" transform="translate(666.503906 0)"/>
     <use xlink:href="#Arial-BoldMT-6d" transform="translate(722.119141 0)"/>
     <use xlink:href="#Arial-BoldMT-70" transform="translate(811.035156 0)"/>
     <use xlink:href="#Arial-BoldMT-6c" transform="translate(872.119141 0)"/>
     <use xlink:href="#Arial-BoldMT-65" transform="translate(899.902344 0)"/>
     <use xlink:href="#Arial-BoldMT-2c" transform="translate(955.517578 0)"/>
     <use xlink:href="#Arial-BoldMT-20" transform="translate(983.300781 0)"/>
     <use xlink:href="#Arial-BoldMT-4e" transform="translate(1011.083984 0)"/>
     <use xlink:href="#Arial-BoldMT-3d" transform="translate(1083.300781 0)"/>
     <use xlink:href="#Arial-BoldMT-37" transform="translate(1141.699219 0)"/>
     <use xlink:href="#Arial-BoldMT-35" transform="translate(1197.314453 0)"/>
     <use xlink:href="#Arial-BoldMT-29" transform="translate(1252.929688 0)"/>
    </g>
   </g>
   <g id="legend_1">
    <g id="patch_8">
     <path d="M 682.327375 104.47838 
L 816.896125 104.47838 
Q 818.896125 104.47838 818.896125 102.47838 
L 818.896125 45.94088 
Q 818.896125 43.94088 816.896125 43.94088 
L 682.327375 43.94088 
Q 680.327375 43.94088 680.327375 45.94088 
L 680.327375 102.47838 
Q 680.327375 104.47838 682.327375 104.47838 
z
" style="fill: #ffffff; opacity: 0.95; stroke: #cccccc; stroke-linejoin: miter"/>
    </g>
    <g id="line2d_21">
     <path d="M 684.327375 51.720568 
L 694.327375 51.720568 
L 704.327375 51.720568 
" style="fill: none; stroke: #ff0000; stroke-width: 2.5; stroke-linecap: round"/>
     <g>
      <use xlink:href="#medf5a2f854" x="694.327375" y="51.720568" style="fill: #ff0000; stroke: #ff0000"/>
     </g>
    </g>
    <g id="text_18">
     <!-- High Adaptation (n=20) -->
     <g style="fill: #262626" transform="translate(712.327375 55.220568) scale(0.1 -0.1)">
      <defs>
       <path id="ArialMT-67" d="M 319 -275 
L 866 -356 
Q 900 -609 1056 -725 
Q 1266 -881 1628 -881 
Q 2019 -881 2231 -725 
Q 2444 -569 2519 -288 
Q 2563 -116 2559 434 
Q 2191 0 1641 0 
Q 956 0 581 494 
Q 206 988 206 1678 
Q 206 2153 378 2554 
Q 550 2956 876 3175 
Q 1203 3394 1644 3394 
Q 2231 3394 2613 2919 
L 2613 3319 
L 3131 3319 
L 3131 450 
Q 3131 -325 2973 -648 
Q 2816 -972 2473 -1159 
Q 2131 -1347 1631 -1347 
Q 1038 -1347 672 -1080 
Q 306 -813 319 -275 
z
M 784 1719 
Q 784 1066 1043 766 
Q 1303 466 1694 466 
Q 2081 466 2343 764 
Q 2606 1063 2606 1700 
Q 2606 2309 2336 2618 
Q 2066 2928 1684 2928 
Q 1309 2928 1046 2623 
Q 784 2319 784 1719 
z
" transform="scale(0.015625)"/>
       <path id="ArialMT-28" d="M 1497 -1347 
Q 1031 -759 709 28 
Q 388 816 388 1659 
Q 388 2403 628 3084 
Q 909 3875 1497 4659 
L 1900 4659 
Q 1522 4009 1400 3731 
Q 1209 3300 1100 2831 
Q 966 2247 966 1656 
Q 966 153 1900 -1347 
L 1497 -1347 
z
" transform="scale(0.015625)"/>
       <path id="ArialMT-3d" d="M 3381 2694 
L 356 2694 
L 356 3219 
L 3381 3219 
L 3381 2694 
z
M 3381 1303 
L 356 1303 
L 356 1828 
L 3381 1828 
L 3381 1303 
z
" transform="scale(0.015625)"/>
       <path id="ArialMT-29" d="M 791 -1347 
L 388 -1347 
Q 1322 153 1322 1656 
Q 1322 2244 1188 2822 
Q 1081 3291 891 3722 
Q 769 4003 388 4659 
L 791 4659 
Q 1378 3875 1659 3084 
Q 1900 2403 1900 1659 
Q 1900 816 1576 28 
Q 1253 -759 791 -1347 
z
" transform="scale(0.015625)"/>
      </defs>
      <use xlink:href="#ArialMT-48"/>
      <use xlink:href="#ArialMT-69" transform="translate(72.216797 0)"/>
      <use xlink:href="#ArialMT-67" transform="translate(94.433594 0)"/>
      <use xlink:href="#ArialMT-68" transform="translate(150.048828 0)"/>
      <use xlink:href="#ArialMT-20" transform="translate(205.664062 0)"/>
      <use xlink:href="#ArialMT-41" transform="translate(227.947266 0)"/>
      <use xlink:href="#ArialMT-64" transform="translate(294.646484 0)"/>
      <use xlink:href="#ArialMT-61" transform="translate(350.261719 0)"/>
      <use xlink:href="#ArialMT-70" transform="translate(405.876953 0)"/>
      <use xlink:href="#ArialMT-74" transform="translate(461.492188 0)"/>
      <use xlink:href="#ArialMT-61" transform="translate(489.275391 0)"/>
      <use xlink:href="#ArialMT-74" transform="translate(544.890625 0)"/>
      <use xlink:href="#ArialMT-69" transform="translate(572.673828 0)"/>
      <use xlink:href="#ArialMT-6f" transform="translate(594.890625 0)"/>
      <use xlink:href="#ArialMT-6e" transform="translate(650.505859 0)"/>
      <use xlink:href="#ArialMT-20" transform="translate(706.121094 0)"/>
      <use xlink:href="#ArialMT-28" transform="translate(733.904297 0)"/>
      <use xlink:href="#ArialMT-6e" transform="translate(767.205078 0)"/>
      <use xlink:href="#ArialMT-3d" transform="translate(822.820312 0)"/>
      <use xlink:href="#ArialMT-32" transform="translate(881.21875 0)"/>
      <use xlink:href="#ArialMT-30" transform="translate(936.833984 0)"/>
      <use xlink:href="#ArialMT-29" transform="translate(992.449219 0)"/>
     </g>
    </g>
    <g id="line2d_22">
     <path d="M 684.327375 66.104943 
L 694.327375 66.104943 
L 704.327375 66.104943 
" style="fill: none; stroke: #ffa500; stroke-width: 2.5; stroke-linecap: round"/>
     <g>
      <use xlink:href="#m5852fb8392" x="694.327375" y="66.104943" style="fill: #ffa500; stroke: #ffa500"/>
     </g>
    </g>
    <g id="text_19">
     <!-- Medium-High (n=25) -->
     <g style="fill: #262626" transform="translate(712.327375 69.604943) scale(0.1 -0.1)">
      <defs>
       <path id="ArialMT-2d" d="M 203 1375 
L 203 1941 
L 1931 1941 
L 1931 1375 
L 203 1375 
z
" transform="scale(0.015625)"/>
       <path id="ArialMT-35" d="M 266 1200 
L 856 1250 
Q 922 819 1161 601 
Q 1400 384 1738 384 
Q 2144 384 2425 690 
Q 2706 997 2706 1503 
Q 2706 1984 2436 2262 
Q 2166 2541 1728 2541 
Q 1456 2541 1237 2417 
Q 1019 2294 894 2097 
L 366 2166 
L 809 4519 
L 3088 4519 
L 3088 3981 
L 1259 3981 
L 1013 2750 
Q 1425 3038 1878 3038 
Q 2478 3038 2890 2622 
Q 3303 2206 3303 1553 
Q 3303 931 2941 478 
Q 2500 -78 1738 -78 
Q 1113 -78 717 272 
Q 322 622 266 1200 
z
" transform="scale(0.015625)"/>
      </defs>
      <use xlink:href="#ArialMT-4d"/>
      <use xlink:href="#ArialMT-65" transform="translate(83.300781 0)"/>
      <use xlink:href="#ArialMT-64" transform="translate(138.916016 0)"/>
      <use xlink:href="#ArialMT-69" transform="translate(194.53125 0)"/>
      <use xlink:href="#ArialMT-75" transform="translate(216.748047 0)"/>
      <use xlink:href="#ArialMT-6d" transform="translate(272.363281 0)"/>
      <use xlink:href="#ArialMT-2d" transform="translate(355.664062 0)"/>
      <use xlink:href="#ArialMT-48" transform="translate(388.964844 0)"/>
      <use xlink:href="#ArialMT-69" transform="translate(461.181641 0)"/>
      <use xlink:href="#ArialMT-67" transform="translate(483.398438 0)"/>
      <use xlink:href="#ArialMT-68" transform="translate(539.013672 0)"/>
      <use xlink:href="#ArialMT-20" transform="translate(594.628906 0)"/>
      <use xlink:href="#ArialMT-28" transform="translate(622.412109 0)"/>
      <use xlink:href="#ArialMT-6e" transform="translate(655.712891 0)"/>
      <use xlink:href="#ArialMT-3d" transform="translate(711.328125 0)"/>
      <use xlink:href="#ArialMT-32" transform="translate(769.726562 0)"/>
      <use xlink:href="#ArialMT-35" transform="translate(825.341797 0)"/>
      <use xlink:href="#ArialMT-29" transform="translate(880.957031 0)"/>
     </g>
    </g>
    <g id="line2d_23">
     <path d="M 684.327375 80.489318 
L 694.327375 80.489318 
L 704.327375 80.489318 
" style="fill: none; stroke: #4682b4; stroke-width: 2.5; stroke-linecap: round"/>
     <g>
      <use xlink:href="#m75c15c29da" x="694.327375" y="80.489318" style="fill: #4682b4; stroke: #4682b4"/>
     </g>
    </g>
    <g id="text_20">
     <!-- Medium-Low (n=20) -->
     <g style="fill: #262626" transform="translate(712.327375 83.989318) scale(0.1 -0.1)">
      <defs>
       <path id="ArialMT-4c" d="M 469 0 
L 469 4581 
L 1075 4581 
L 1075 541 
L 3331 541 
L 3331 0 
L 469 0 
z
" transform="scale(0.015625)"/>
       <path id="ArialMT-77" d="M 1034 0 
L 19 3319 
L 600 3319 
L 1128 1403 
L 1325 691 
Q 1338 744 1497 1375 
L 2025 3319 
L 2603 3319 
L 3100 1394 
L 3266 759 
L 3456 1400 
L 4025 3319 
L 4572 3319 
L 3534 0 
L 2950 0 
L 2422 1988 
L 2294 2553 
L 1622 0 
L 1034 0 
z
" transform="scale(0.015625)"/>
      </defs>
      <use xlink:href="#ArialMT-4d"/>
      <use xlink:href="#ArialMT-65" transform="translate(83.300781 0)"/>
      <use xlink:href="#ArialMT-64" transform="translate(138.916016 0)"/>
      <use xlink:href="#ArialMT-69" transform="translate(194.53125 0)"/>
      <use xlink:href="#ArialMT-75" transform="translate(216.748047 0)"/>
      <use xlink:href="#ArialMT-6d" transform="translate(272.363281 0)"/>
      <use xlink:href="#ArialMT-2d" transform="translate(355.664062 0)"/>
      <use xlink:href="#ArialMT-4c" transform="translate(388.964844 0)"/>
      <use xlink:href="#ArialMT-6f" transform="translate(444.580078 0)"/>
      <use xlink:href="#ArialMT-77" transform="translate(500.195312 0)"/>
      <use xlink:href="#ArialMT-20" transform="translate(572.412109 0)"/>
      <use xlink:href="#ArialMT-28" transform="translate(600.195312 0)"/>
      <use xlink:href="#ArialMT-6e" transform="translate(633.496094 0)"/>
      <use xlink:href="#ArialMT-3d" transform="translate(689.111328 0)"/>
      <use xlink:href="#ArialMT-32" transform="translate(747.509766 0)"/>
      <use xlink:href="#ArialMT-30" transform="translate(803.125 0)"/>
      <use xlink:href="#ArialMT-29" transform="translate(858.740234 0)"/>
     </g>
    </g>
    <g id="line2d_24">
     <path d="M 684.327375 94.873693 
L 694.327375 94.873693 
L 704.327375 94.873693 
" style="fill: none; stroke: #808080; stroke-width: 2.5; stroke-linecap: round"/>
     <g>
      <use xlink:href="#m79dfe67015" x="694.327375" y="94.873693" style="fill: #808080; stroke: #808080"/>
     </g>
    </g>
    <g id="text_21">
     <!-- Low Adaptation (n=10) -->
     <g style="fill: #262626" transform="translate(712.327375 98.373693) scale(0.1 -0.1)">
      <use xlink:href="#ArialMT-4c"/>
      <use xlink:href="#ArialMT-6f" transform="translate(55.615234 0)"/>
      <use xlink:href="#ArialMT-77" transform="translate(111.230469 0)"/>
      <use xlink:href="#ArialMT-20" transform="translate(183.447266 0)"/>
      <use xlink:href="#ArialMT-41" transform="translate(205.730469 0)"/>
      <use xlink:href="#ArialMT-64" transform="translate(272.429688 0)"/>
      <use xlink:href="#ArialMT-61" transform="translate(328.044922 0)"/>
      <use xlink:href="#ArialMT-70" transform="translate(383.660156 0)"/>
      <use xlink:href="#ArialMT-74" transform="translate(439.275391 0)"/>
      <use xlink:href="#ArialMT-61" transform="translate(467.058594 0)"/>
      <use xlink:href="#ArialMT-74" transform="translate(522.673828 0)"/>
      <use xlink:href="#ArialMT-69" transform="translate(550.457031 0)"/>
      <use xlink:href="#ArialMT-6f" transform="translate(572.673828 0)"/>
      <use xlink:href="#ArialMT-6e" transform="translate(628.289062 0)"/>
      <use xlink:href="#ArialMT-20" transform="translate(683.904297 0)"/>
      <use xlink:href="#ArialMT-28" transform="translate(711.6875 0)"/>
      <use xlink:href="#ArialMT-6e" transform="translate(744.988281 0)"/>
      <use xlink:href="#ArialMT-3d" transform="translate(800.603516 0)"/>
      <use xlink:href="#ArialMT-31" transform="translate(859.001953 0)"/>
      <use xlink:href="#ArialMT-30" transform="translate(914.617188 0)"/>
      <use xlink:href="#ArialMT-29" transform="translate(970.232422 0)"/>
     </g>
    </g>
   </g>
  </g>
 </g>
 <defs>
  <clipPath id="pd4fe84297b">
   <path d="M 646.669326 393.394478 
C 646.669326 354.605794 639.028801 316.194282 624.185015 280.358212 
C 609.341228 244.522141 587.582854 211.958433 560.155113 184.530692 
C 532.727372 157.102951 500.163665 135.344577 464.327594 120.500791 
C 428.491523 105.657005 390.080011 98.01648 351.291328 98.01648 
C 312.502645 98.01648 274.091132 105.657005 238.255062 120.500791 
C 202.418991 135.344577 169.855283 157.102951 142.427542 184.530692 
C 114.999801 211.958433 93.241428 244.522141 78.397641 280.358212 
C 63.553855 316.194282 55.91333 354.605794 55.91333 393.394478 
C 55.91333 432.183161 63.553855 470.594673 78.397641 506.430744 
C 93.241428 542.266814 114.999801 574.830522 142.427542 602.258263 
C 169.855283 629.686004 202.418991 651.444378 238.255062 666.288165 
C 274.091132 681.131951 312.502645 688.772476 351.291328 688.772476 
C 390.080011 688.772476 428.491523 681.131951 464.327594 666.288165 
C 500.163665 651.444378 532.727372 629.686004 560.155113 602.258263 
C 587.582854 574.830522 609.341228 542.266814 624.185015 506.430744 
C 639.028801 470.594673 646.669326 432.183161 646.669326 393.394478 
M 351.291328 393.394478 
C 351.291328 393.394478 351.291328 393.394478 351.291328 393.394478 
C 351.291328 393.394478 351.291328 393.394478 351.291328 393.394478 
C 351.291328 393.394478 351.291328 393.394478 351.291328 393.394478 
C 351.291328 393.394478 351.291328 393.394478 351.291328 393.394478 
C 351.291328 393.394478 351.291328 393.394478 351.291328 393.394478 
C 351.291328 393.394478 351.291328 393.394478 351.291328 393.394478 
C 351.291328 393.394478 351.291328 393.394478 351.291328 393.394478 
C 351.291328 393.394478 351.291328 393.394478 351.291328 393.394478 
C 351.291328 393.394478 351.291328 393.394478 351.291328 393.394478 
C 351.291328 393.394478 351.291328 393.394478 351.291328 393.394478 
C 351.291328 393.394478 351.291328 393.394478 351.291328 393.394478 
C 351.291328 393.394478 351.291328 393.394478 351.291328 393.394478 
C 351.291328 393.394478 351.291328 393.394478 351.291328 393.394478 
C 351.291328 393.394478 351.291328 393.394478 351.291328 393.394478 
C 351.291328 393.394478 351.291328 393.394478 351.291328 393.394478 
C 351.291328 393.394478 351.291328 393.394478 351.291328 393.394478 
z
"/>
  </clipPath>
 </defs>
</svg>
