<?xml version="1.0" encoding="utf-8" standalone="no"?>
<!DOCTYPE svg PUBLIC "-//W3C//DTD SVG 1.1//EN"
  "http://www.w3.org/Graphics/SVG/1.1/DTD/svg11.dtd">
<svg xmlns:xlink="http://www.w3.org/1999/xlink" width="540pt" height="468pt" viewBox="0 0 540 468" xmlns="http://www.w3.org/2000/svg" version="1.1">
 <metadata>
  <rdf:RDF xmlns:dc="http://purl.org/dc/elements/1.1/" xmlns:cc="http://creativecommons.org/ns#" xmlns:rdf="http://www.w3.org/1999/02/22-rdf-syntax-ns#">
   <cc:Work>
    <dc:type rdf:resource="http://purl.org/dc/dcmitype/StillImage"/>
    <dc:date>2026-03-30T08:05:48.275197</dc:date>
    <dc:format>image/svg+xml</dc:format>
    <dc:creator>
     <cc:Agent>
      <dc:title>Matplotlib v3.10.8, https://matplotlib.org/</dc:title>
     </cc:Agent>
    </dc:creator>
   </cc:Work>
  </rdf:RDF>
 </metadata>
 <defs>
  <style type="text/css">*{stroke-linejoin: round; stroke-linecap: butt}</style>
 </defs>
 <g id="figure_1">
  <g id="patch_1">
   <path d="M 0 468 
L 540 468 
L 540 0 
L 0 0 
z
" style="fill: #ffffff"/>
  </g>
  <g id="axes_1">
   <g id="patch_2">
    <path d="M 270 427.711947 
C 323.617702 427.711947 375.04658 409.541469 412.960021 377.202351 
C 450.873461 344.863233 472.176 300.99582 472.176 255.2614 
C 472.176 209.52698 450.873461 165.659567 412.960021 133.320449 
C 375.04658 100.981331 323.617702 82.810853 270 82.810853 
C 216.382298 82.810853 164.95342 100.981331 127.039979 133.320449 
C 89.126539 165.659567 67.824 209.52698 67.824 255.2614 
C 67.824 300.99582 89.126539 344.863233 127.039979 377.202351 
C 164.95342 409.541469 216.382298 427.711947 270 427.711947 
z
" clip-path="url(#pdf115298e9)" style="fill: #e0e0e0; stroke: #e0e0e0; stroke-linejoin: miter"/>
   </g>
   <g id="patch_3">
    <path d="M 270 427.711947 
C 323.617702 427.711947 375.04658 409.541469 412.960021 377.202351 
C 450.873461 344.863233 472.176 300.99582 472.176 255.2614 
C 472.176 209.52698 450.873461 165.659567 412.960021 133.320449 
C 375.04658 100.981331 323.617702 82.810853 270 82.810853 
C 216.382298 82.810853 164.95342 100.981331 127.039979 133.320449 
C 89.126539 165.659567 67.824 209.52698 67.824 255.2614 
C 67.824 300.99582 89.126539 344.863233 127.039979 377.202351 
C 164.95342 409.541469 216.382298 427.711947 270 427.711947 
L 270 427.711947 
z
" clip-path="url(#pdf115298e9)" style="fill: none; stroke-dasharray: 5.55,2.4; stroke-dashoffset: 0; stroke: #878787; stroke-width: 1.5; stroke-linejoin: miter"/>
   </g>
   <g id="text_1">
    <!-- Situation -->
    <g style="fill: #878787" transform="translate(246.476328 79.029546) scale(0.11 -0.11)">
     <defs>
      <path id="Arial-BoldMT-53" d="M 231 1491 
L 1131 1578 
Q 1213 1125 1461 912 
Q 1709 700 2131 700 
Q 2578 700 2804 889 
Q 3031 1078 3031 1331 
Q 3031 1494 2936 1608 
Q 2841 1722 2603 1806 
Q 2441 1863 1863 2006 
Q 1119 2191 819 2459 
Q 397 2838 397 3381 
Q 397 3731 595 4036 
Q 794 4341 1167 4500 
Q 1541 4659 2069 4659 
Q 2931 4659 3367 4281 
Q 3803 3903 3825 3272 
L 2900 3231 
Q 2841 3584 2645 3739 
Q 2450 3894 2059 3894 
Q 1656 3894 1428 3728 
Q 1281 3622 1281 3444 
Q 1281 3281 1419 3166 
Q 1594 3019 2269 2859 
Q 2944 2700 3267 2529 
Q 3591 2359 3773 2064 
Q 3956 1769 3956 1334 
Q 3956 941 3737 597 
Q 3519 253 3119 86 
Q 2719 -81 2122 -81 
Q 1253 -81 787 320 
Q 322 722 231 1491 
z
" transform="scale(0.015625)"/>
      <path id="Arial-BoldMT-69" d="M 459 3769 
L 459 4581 
L 1338 4581 
L 1338 3769 
L 459 3769 
z
M 459 0 
L 459 3319 
L 1338 3319 
L 1338 0 
L 459 0 
z
" transform="scale(0.015625)"/>
      <path id="Arial-BoldMT-74" d="M 1981 3319 
L 1981 2619 
L 1381 2619 
L 1381 1281 
Q 1381 875 1398 808 
Q 1416 741 1477 697 
Q 1538 653 1625 653 
Q 1747 653 1978 738 
L 2053 56 
Q 1747 -75 1359 -75 
Q 1122 -75 931 4 
Q 741 84 652 211 
Q 563 338 528 553 
Q 500 706 500 1172 
L 500 2619 
L 97 2619 
L 97 3319 
L 500 3319 
L 500 3978 
L 1381 4491 
L 1381 3319 
L 1981 3319 
z
" transform="scale(0.015625)"/>
      <path id="Arial-BoldMT-75" d="M 2644 0 
L 2644 497 
Q 2463 231 2167 78 
Q 1872 -75 1544 -75 
Q 1209 -75 943 72 
Q 678 219 559 484 
Q 441 750 441 1219 
L 441 3319 
L 1319 3319 
L 1319 1794 
Q 1319 1094 1367 936 
Q 1416 778 1544 686 
Q 1672 594 1869 594 
Q 2094 594 2272 717 
Q 2450 841 2515 1023 
Q 2581 1206 2581 1919 
L 2581 3319 
L 3459 3319 
L 3459 0 
L 2644 0 
z
" transform="scale(0.015625)"/>
      <path id="Arial-BoldMT-61" d="M 1116 2306 
L 319 2450 
Q 453 2931 781 3162 
Q 1109 3394 1756 3394 
Q 2344 3394 2631 3255 
Q 2919 3116 3036 2902 
Q 3153 2688 3153 2116 
L 3144 1091 
Q 3144 653 3186 445 
Q 3228 238 3344 0 
L 2475 0 
Q 2441 88 2391 259 
Q 2369 338 2359 363 
Q 2134 144 1878 34 
Q 1622 -75 1331 -75 
Q 819 -75 523 203 
Q 228 481 228 906 
Q 228 1188 362 1408 
Q 497 1628 739 1745 
Q 981 1863 1438 1950 
Q 2053 2066 2291 2166 
L 2291 2253 
Q 2291 2506 2166 2614 
Q 2041 2722 1694 2722 
Q 1459 2722 1328 2630 
Q 1197 2538 1116 2306 
z
M 2291 1594 
Q 2122 1538 1756 1459 
Q 1391 1381 1278 1306 
Q 1106 1184 1106 997 
Q 1106 813 1243 678 
Q 1381 544 1594 544 
Q 1831 544 2047 700 
Q 2206 819 2256 991 
Q 2291 1103 2291 1419 
L 2291 1594 
z
" transform="scale(0.015625)"/>
      <path id="Arial-BoldMT-6f" d="M 256 1706 
Q 256 2144 472 2553 
Q 688 2963 1083 3178 
Q 1478 3394 1966 3394 
Q 2719 3394 3200 2905 
Q 3681 2416 3681 1669 
Q 3681 916 3195 420 
Q 2709 -75 1972 -75 
Q 1516 -75 1102 131 
Q 688 338 472 736 
Q 256 1134 256 1706 
z
M 1156 1659 
Q 1156 1166 1390 903 
Q 1625 641 1969 641 
Q 2313 641 2545 903 
Q 2778 1166 2778 1666 
Q 2778 2153 2545 2415 
Q 2313 2678 1969 2678 
Q 1625 2678 1390 2415 
Q 1156 2153 1156 1659 
z
" transform="scale(0.015625)"/>
      <path id="Arial-BoldMT-6e" d="M 3478 0 
L 2600 0 
L 2600 1694 
Q 2600 2231 2544 2389 
Q 2488 2547 2361 2634 
Q 2234 2722 2056 2722 
Q 1828 2722 1647 2597 
Q 1466 2472 1398 2265 
Q 1331 2059 1331 1503 
L 1331 0 
L 453 0 
L 453 3319 
L 1269 3319 
L 1269 2831 
Q 1703 3394 2363 3394 
Q 2653 3394 2893 3289 
Q 3134 3184 3257 3021 
Q 3381 2859 3429 2653 
Q 3478 2447 3478 2063 
L 3478 0 
z
" transform="scale(0.015625)"/>
     </defs>
     <use xlink:href="#Arial-BoldMT-53"/>
     <use xlink:href="#Arial-BoldMT-69" transform="translate(66.699219 0)"/>
     <use xlink:href="#Arial-BoldMT-74" transform="translate(94.482422 0)"/>
     <use xlink:href="#Arial-BoldMT-75" transform="translate(127.783203 0)"/>
     <use xlink:href="#Arial-BoldMT-61" transform="translate(188.867188 0)"/>
     <use xlink:href="#Arial-BoldMT-74" transform="translate(244.482422 0)"/>
     <use xlink:href="#Arial-BoldMT-69" transform="translate(277.783203 0)"/>
     <use xlink:href="#Arial-BoldMT-6f" transform="translate(305.566406 0)"/>
     <use xlink:href="#Arial-BoldMT-6e" transform="translate(366.650391 0)"/>
    </g>
   </g>
   <g id="text_2">
    <!-- (Cultural Distance) -->
    <g style="fill: #878787" transform="translate(232.740703 96.194126) scale(0.09 -0.09)">
     <defs>
      <path id="Arial-ItalicMT-28" d="M 1031 -1347 
Q 541 -272 541 863 
Q 541 1619 739 2270 
Q 938 2922 1344 3559 
Q 1613 3984 2203 4659 
L 2644 4659 
Q 2278 4269 1870 3559 
Q 1463 2850 1278 2165 
Q 1094 1481 1094 791 
Q 1094 -241 1453 -1347 
L 1031 -1347 
z
" transform="scale(0.015625)"/>
      <path id="Arial-ItalicMT-43" d="M 3859 1613 
L 4466 1528 
Q 4178 734 3628 328 
Q 3078 -78 2394 -78 
Q 1559 -78 1070 431 
Q 581 941 581 1891 
Q 581 3128 1325 3938 
Q 1988 4659 2972 4659 
Q 3700 4659 4151 4268 
Q 4603 3878 4675 3219 
L 4103 3166 
Q 4013 3663 3730 3908 
Q 3447 4153 3000 4153 
Q 2159 4153 1641 3406 
Q 1191 2763 1191 1878 
Q 1191 1172 1537 800 
Q 1884 428 2441 428 
Q 2916 428 3300 737 
Q 3684 1047 3859 1613 
z
" transform="scale(0.015625)"/>
      <path id="Arial-ItalicMT-75" d="M 2478 600 
Q 1881 -75 1256 -75 
Q 872 -75 636 145 
Q 400 366 400 684 
Q 400 894 506 1403 
L 906 3319 
L 1472 3319 
L 1028 1197 
Q 972 931 972 784 
Q 972 597 1086 492 
Q 1200 388 1422 388 
Q 1659 388 1886 503 
Q 2113 619 2277 816 
Q 2441 1013 2544 1281 
Q 2613 1453 2703 1884 
L 3003 3319 
L 3569 3319 
L 2875 0 
L 2353 0 
L 2478 600 
z
" transform="scale(0.015625)"/>
      <path id="Arial-ItalicMT-6c" d="M 169 0 
L 1125 4581 
L 1691 4581 
L 734 0 
L 169 0 
z
" transform="scale(0.015625)"/>
      <path id="Arial-ItalicMT-74" d="M 1534 459 
L 1441 -3 
Q 1238 -56 1047 -56 
Q 709 -56 509 109 
Q 359 234 359 450 
Q 359 559 441 953 
L 844 2881 
L 397 2881 
L 488 3319 
L 934 3319 
L 1106 4134 
L 1753 4525 
L 1500 3319 
L 2056 3319 
L 1963 2881 
L 1409 2881 
L 1025 1047 
Q 953 697 953 628 
Q 953 528 1011 475 
Q 1069 422 1200 422 
Q 1388 422 1534 459 
z
" transform="scale(0.015625)"/>
      <path id="Arial-ItalicMT-72" d="M 213 0 
L 906 3319 
L 1406 3319 
L 1266 2641 
Q 1522 3025 1767 3209 
Q 2013 3394 2269 3394 
Q 2438 3394 2684 3272 
L 2453 2747 
Q 2306 2853 2131 2853 
Q 1834 2853 1521 2522 
Q 1209 2191 1031 1331 
L 750 0 
L 213 0 
z
" transform="scale(0.015625)"/>
      <path id="Arial-ItalicMT-61" d="M 2450 413 
Q 2156 159 1884 42 
Q 1613 -75 1303 -75 
Q 844 -75 562 195 
Q 281 466 281 888 
Q 281 1166 407 1380 
Q 534 1594 743 1723 
Q 953 1853 1256 1909 
Q 1447 1947 1980 1969 
Q 2513 1991 2744 2081 
Q 2809 2313 2809 2466 
Q 2809 2663 2666 2775 
Q 2469 2931 2091 2931 
Q 1734 2931 1507 2773 
Q 1281 2616 1178 2325 
L 606 2375 
Q 781 2869 1161 3131 
Q 1541 3394 2119 3394 
Q 2734 3394 3094 3100 
Q 3369 2881 3369 2531 
Q 3369 2266 3291 1916 
L 3106 1091 
Q 3019 697 3019 450 
Q 3019 294 3088 0 
L 2516 0 
Q 2469 163 2450 413 
z
M 2659 1681 
Q 2541 1634 2405 1609 
Q 2269 1584 1950 1556 
Q 1456 1513 1253 1445 
Q 1050 1378 947 1231 
Q 844 1084 844 906 
Q 844 669 1008 516 
Q 1172 363 1475 363 
Q 1756 363 2015 511 
Q 2275 659 2425 925 
Q 2575 1191 2659 1681 
z
" transform="scale(0.015625)"/>
      <path id="Arial-ItalicMT-20" transform="scale(0.015625)"/>
      <path id="Arial-ItalicMT-44" d="M 284 0 
L 1241 4581 
L 2622 4581 
Q 3119 4581 3381 4509 
Q 3756 4413 4022 4164 
Q 4288 3916 4422 3544 
Q 4556 3172 4556 2709 
Q 4556 2156 4389 1701 
Q 4222 1247 3951 901 
Q 3681 556 3386 361 
Q 3091 166 2688 72 
Q 2381 0 1934 0 
L 284 0 
z
M 1006 519 
L 1731 519 
Q 2222 519 2603 609 
Q 2841 666 3009 775 
Q 3231 916 3413 1147 
Q 3650 1453 3792 1845 
Q 3934 2238 3934 2738 
Q 3934 3294 3740 3592 
Q 3547 3891 3247 3988 
Q 3025 4059 2556 4059 
L 1747 4059 
L 1006 519 
z
" transform="scale(0.015625)"/>
      <path id="Arial-ItalicMT-69" d="M 1016 3941 
L 1150 4581 
L 1713 4581 
L 1578 3941 
L 1016 3941 
z
M 191 0 
L 884 3319 
L 1450 3319 
L 756 0 
L 191 0 
z
" transform="scale(0.015625)"/>
      <path id="Arial-ItalicMT-73" d="M 266 1134 
L 831 1169 
Q 831 925 906 753 
Q 981 581 1182 472 
Q 1384 363 1653 363 
Q 2028 363 2215 513 
Q 2403 663 2403 866 
Q 2403 1013 2291 1144 
Q 2175 1275 1726 1467 
Q 1278 1659 1153 1738 
Q 944 1866 837 2039 
Q 731 2213 731 2438 
Q 731 2831 1043 3112 
Q 1356 3394 1919 3394 
Q 2544 3394 2870 3105 
Q 3197 2816 3209 2344 
L 2656 2306 
Q 2644 2606 2444 2781 
Q 2244 2956 1878 2956 
Q 1584 2956 1421 2822 
Q 1259 2688 1259 2531 
Q 1259 2375 1400 2256 
Q 1494 2175 1884 2006 
Q 2534 1725 2703 1563 
Q 2972 1303 2972 931 
Q 2972 684 2820 446 
Q 2669 209 2358 67 
Q 2047 -75 1625 -75 
Q 1050 -75 647 209 
Q 244 494 266 1134 
z
" transform="scale(0.015625)"/>
      <path id="Arial-ItalicMT-6e" d="M 213 0 
L 906 3319 
L 1419 3319 
L 1297 2741 
Q 1631 3081 1922 3237 
Q 2213 3394 2516 3394 
Q 2919 3394 3148 3175 
Q 3378 2956 3378 2591 
Q 3378 2406 3297 2009 
L 2875 0 
L 2309 0 
L 2750 2103 
Q 2816 2409 2816 2556 
Q 2816 2722 2702 2825 
Q 2588 2928 2372 2928 
Q 1938 2928 1598 2615 
Q 1259 2303 1100 1544 
L 778 0 
L 213 0 
z
" transform="scale(0.015625)"/>
      <path id="Arial-ItalicMT-63" d="M 2503 1209 
L 3069 1150 
Q 2856 528 2464 226 
Q 2072 -75 1572 -75 
Q 1031 -75 695 275 
Q 359 625 359 1253 
Q 359 1797 575 2322 
Q 791 2847 1192 3120 
Q 1594 3394 2109 3394 
Q 2644 3394 2956 3092 
Q 3269 2791 3269 2294 
L 2713 2256 
Q 2709 2572 2529 2750 
Q 2350 2928 2056 2928 
Q 1716 2928 1466 2712 
Q 1216 2497 1073 2058 
Q 931 1619 931 1213 
Q 931 788 1118 575 
Q 1306 363 1581 363 
Q 1856 363 2107 572 
Q 2359 781 2503 1209 
z
" transform="scale(0.015625)"/>
      <path id="Arial-ItalicMT-65" d="M 2650 1128 
L 3200 1072 
Q 3081 663 2654 294 
Q 2228 -75 1638 -75 
Q 1269 -75 961 95 
Q 653 266 492 591 
Q 331 916 331 1331 
Q 331 1875 582 2386 
Q 834 2897 1234 3145 
Q 1634 3394 2100 3394 
Q 2694 3394 3048 3025 
Q 3403 2656 3403 2019 
Q 3403 1775 3359 1519 
L 916 1519 
Q 903 1422 903 1344 
Q 903 878 1117 633 
Q 1331 388 1641 388 
Q 1931 388 2212 578 
Q 2494 769 2650 1128 
z
M 1006 1950 
L 2869 1950 
Q 2872 2038 2872 2075 
Q 2872 2500 2659 2726 
Q 2447 2953 2113 2953 
Q 1750 2953 1451 2703 
Q 1153 2453 1006 1950 
z
" transform="scale(0.015625)"/>
      <path id="Arial-ItalicMT-29" d="M 1269 4659 
Q 1763 3584 1763 2453 
Q 1763 1694 1564 1044 
Q 1366 394 959 -247 
Q 688 -672 100 -1347 
L -341 -1347 
Q 22 -953 431 -243 
Q 841 466 1023 1148 
Q 1206 1831 1206 2525 
Q 1206 3556 847 4659 
L 1269 4659 
z
" transform="scale(0.015625)"/>
     </defs>
     <use xlink:href="#Arial-ItalicMT-28"/>
     <use xlink:href="#Arial-ItalicMT-43" transform="translate(33.300781 0)"/>
     <use xlink:href="#Arial-ItalicMT-75" transform="translate(105.517578 0)"/>
     <use xlink:href="#Arial-ItalicMT-6c" transform="translate(161.132812 0)"/>
     <use xlink:href="#Arial-ItalicMT-74" transform="translate(183.349609 0)"/>
     <use xlink:href="#Arial-ItalicMT-75" transform="translate(211.132812 0)"/>
     <use xlink:href="#Arial-ItalicMT-72" transform="translate(266.748047 0)"/>
     <use xlink:href="#Arial-ItalicMT-61" transform="translate(300.048828 0)"/>
     <use xlink:href="#Arial-ItalicMT-6c" transform="translate(355.664062 0)"/>
     <use xlink:href="#Arial-ItalicMT-20" transform="translate(377.880859 0)"/>
     <use xlink:href="#Arial-ItalicMT-44" transform="translate(405.664062 0)"/>
     <use xlink:href="#Arial-ItalicMT-69" transform="translate(477.880859 0)"/>
     <use xlink:href="#Arial-ItalicMT-73" transform="translate(500.097656 0)"/>
     <use xlink:href="#Arial-ItalicMT-74" transform="translate(550.097656 0)"/>
     <use xlink:href="#Arial-ItalicMT-61" transform="translate(577.880859 0)"/>
     <use xlink:href="#Arial-ItalicMT-6e" transform="translate(633.496094 0)"/>
     <use xlink:href="#Arial-ItalicMT-63" transform="translate(689.111328 0)"/>
     <use xlink:href="#Arial-ItalicMT-65" transform="translate(739.111328 0)"/>
     <use xlink:href="#Arial-ItalicMT-29" transform="translate(794.726562 0)"/>
    </g>
   </g>
   <g id="patch_4">
    <path d="M 202.608 181.417192 
L 337.392 181.417192 
Q 341.5392 181.417192 341.5392 177.879744 
L 341.5392 111.552611 
Q 341.5392 108.015164 337.392 108.015164 
L 202.608 108.015164 
Q 198.4608 108.015164 198.4608 111.552611 
L 198.4608 177.879744 
Q 198.4608 181.417192 202.608 181.417192 
z
" clip-path="url(#pdf115298e9)" style="fill: #d1e5f0; stroke: #2166ac; stroke-width: 1.8; stroke-linejoin: miter"/>
   </g>
   <g id="patch_5">
    <path d="M 36.72 367.133165 
L 171.504 367.133165 
Q 175.6512 367.133165 175.6512 363.595718 
L 175.6512 297.268584 
Q 175.6512 293.731137 171.504 293.731137 
L 36.72 293.731137 
Q 32.5728 293.731137 32.5728 297.268584 
L 32.5728 363.595718 
Q 32.5728 367.133165 36.72 367.133165 
z
" clip-path="url(#pdf115298e9)" style="fill: #b8e186; stroke: #4dac26; stroke-width: 1.8; stroke-linejoin: miter"/>
   </g>
   <g id="patch_6">
    <path d="M 368.496 367.133165 
L 503.28 367.133165 
Q 507.4272 367.133165 507.4272 363.595718 
L 507.4272 297.268584 
Q 507.4272 293.731137 503.28 293.731137 
L 368.496 293.731137 
Q 364.3488 293.731137 364.3488 297.268584 
L 364.3488 363.595718 
Q 364.3488 367.133165 368.496 367.133165 
z
" clip-path="url(#pdf115298e9)" style="fill: #fddbc7; stroke: #d6604d; stroke-width: 1.8; stroke-linejoin: miter"/>
   </g>
   <g id="patch_7">
    <path d="M 270 179.877979 
Q 270 204.410823 270 227.266617 
" style="fill: none; stroke: #333333; stroke-width: 1.5; stroke-linecap: round"/>
    <path d="M 272.8 221.666617 
L 270 227.266617 
L 267.2 221.666617 
" style="fill: none; stroke: #333333; stroke-width: 1.5; stroke-linecap: round"/>
   </g>
   <g id="patch_8">
    <path d="M 157.675465 307.305367 
Q 189.649997 288.423787 220.180466 270.394955 
" style="fill: none; stroke: #333333; stroke-width: 1.5; stroke-linecap: round"/>
    <path d="M 213.934709 270.83144 
L 220.180466 270.394955 
L 216.7822 275.653452 
" style="fill: none; stroke: #333333; stroke-width: 1.5; stroke-linecap: round"/>
   </g>
   <g id="patch_9">
    <path d="M 382.324535 307.305367 
Q 350.350003 288.423787 319.819534 270.394955 
" style="fill: none; stroke: #333333; stroke-width: 1.5; stroke-linecap: round"/>
    <path d="M 323.2178 275.653452 
L 319.819534 270.394955 
L 326.065291 270.83144 
" style="fill: none; stroke: #333333; stroke-width: 1.5; stroke-linecap: round"/>
   </g>
   <g id="patch_10">
    <path d="M 270 84.814216 
Q 270 97.183008 270 108.21016 
" style="fill: none; stroke-dasharray: 4.44,1.92; stroke-dashoffset: 0; stroke: #878787; stroke-width: 1.2; stroke-linecap: round"/>
    <path d="M 272.4 103.41016 
L 270 108.21016 
L 267.6 103.41016 
" style="fill: none; stroke-dasharray: 4.44,1.92; stroke-dashoffset: 0; stroke: #878787; stroke-width: 1.2; stroke-linecap: round"/>
   </g>
   <g id="patch_11">
    <path d="M 82.646684 257.12766 
Q 70.414965 288.427616 58.671582 318.477961 
" style="fill: none; stroke-dasharray: 4.44,1.92; stroke-dashoffset: 0; stroke: #878787; stroke-width: 1.2; stroke-linecap: round"/>
    <path d="M 62.654078 314.880778 
L 58.671582 318.477961 
L 58.183333 313.133654 
" style="fill: none; stroke-dasharray: 4.44,1.92; stroke-dashoffset: 0; stroke: #878787; stroke-width: 1.2; stroke-linecap: round"/>
   </g>
   <g id="patch_12">
    <path d="M 457.353316 257.12766 
Q 469.585035 288.427616 481.328418 318.477961 
" style="fill: none; stroke-dasharray: 4.44,1.92; stroke-dashoffset: 0; stroke: #878787; stroke-width: 1.2; stroke-linecap: round"/>
    <path d="M 481.816667 313.133654 
L 481.328418 318.477961 
L 477.345922 314.880778 
" style="fill: none; stroke-dasharray: 4.44,1.92; stroke-dashoffset: 0; stroke: #878787; stroke-width: 1.2; stroke-linecap: round"/>
   </g>
   <g id="text_3">
    <!-- Resource -->
    <g style="fill: #2166ac" transform="translate(247.213281 133.158577) scale(0.1 -0.1)">
     <defs>
      <path id="Arial-BoldMT-52" d="M 469 0 
L 469 4581 
L 2416 4581 
Q 3150 4581 3483 4457 
Q 3816 4334 4016 4018 
Q 4216 3703 4216 3297 
Q 4216 2781 3912 2445 
Q 3609 2109 3006 2022 
Q 3306 1847 3501 1637 
Q 3697 1428 4028 894 
L 4588 0 
L 3481 0 
L 2813 997 
Q 2456 1531 2325 1670 
Q 2194 1809 2047 1861 
Q 1900 1913 1581 1913 
L 1394 1913 
L 1394 0 
L 469 0 
z
M 1394 2644 
L 2078 2644 
Q 2744 2644 2909 2700 
Q 3075 2756 3169 2893 
Q 3263 3031 3263 3238 
Q 3263 3469 3139 3611 
Q 3016 3753 2791 3791 
Q 2678 3806 2116 3806 
L 1394 3806 
L 1394 2644 
z
" transform="scale(0.015625)"/>
      <path id="Arial-BoldMT-65" d="M 2381 1056 
L 3256 909 
Q 3088 428 2723 176 
Q 2359 -75 1813 -75 
Q 947 -75 531 491 
Q 203 944 203 1634 
Q 203 2459 634 2926 
Q 1066 3394 1725 3394 
Q 2466 3394 2894 2905 
Q 3322 2416 3303 1406 
L 1103 1406 
Q 1113 1016 1316 798 
Q 1519 581 1822 581 
Q 2028 581 2168 693 
Q 2309 806 2381 1056 
z
M 2431 1944 
Q 2422 2325 2234 2523 
Q 2047 2722 1778 2722 
Q 1491 2722 1303 2513 
Q 1116 2303 1119 1944 
L 2431 1944 
z
" transform="scale(0.015625)"/>
      <path id="Arial-BoldMT-73" d="M 150 947 
L 1031 1081 
Q 1088 825 1259 692 
Q 1431 559 1741 559 
Q 2081 559 2253 684 
Q 2369 772 2369 919 
Q 2369 1019 2306 1084 
Q 2241 1147 2013 1200 
Q 950 1434 666 1628 
Q 272 1897 272 2375 
Q 272 2806 612 3100 
Q 953 3394 1669 3394 
Q 2350 3394 2681 3172 
Q 3013 2950 3138 2516 
L 2309 2363 
Q 2256 2556 2107 2659 
Q 1959 2763 1684 2763 
Q 1338 2763 1188 2666 
Q 1088 2597 1088 2488 
Q 1088 2394 1175 2328 
Q 1294 2241 1995 2081 
Q 2697 1922 2975 1691 
Q 3250 1456 3250 1038 
Q 3250 581 2869 253 
Q 2488 -75 1741 -75 
Q 1063 -75 667 200 
Q 272 475 150 947 
z
" transform="scale(0.015625)"/>
      <path id="Arial-BoldMT-72" d="M 1300 0 
L 422 0 
L 422 3319 
L 1238 3319 
L 1238 2847 
Q 1447 3181 1614 3287 
Q 1781 3394 1994 3394 
Q 2294 3394 2572 3228 
L 2300 2463 
Q 2078 2606 1888 2606 
Q 1703 2606 1575 2504 
Q 1447 2403 1373 2137 
Q 1300 1872 1300 1025 
L 1300 0 
z
" transform="scale(0.015625)"/>
      <path id="Arial-BoldMT-63" d="M 3353 2338 
L 2488 2181 
Q 2444 2441 2289 2572 
Q 2134 2703 1888 2703 
Q 1559 2703 1364 2476 
Q 1169 2250 1169 1719 
Q 1169 1128 1367 884 
Q 1566 641 1900 641 
Q 2150 641 2309 783 
Q 2469 925 2534 1272 
L 3397 1125 
Q 3263 531 2881 228 
Q 2500 -75 1859 -75 
Q 1131 -75 698 384 
Q 266 844 266 1656 
Q 266 2478 700 2936 
Q 1134 3394 1875 3394 
Q 2481 3394 2839 3133 
Q 3197 2872 3353 2338 
z
" transform="scale(0.015625)"/>
     </defs>
     <use xlink:href="#Arial-BoldMT-52"/>
     <use xlink:href="#Arial-BoldMT-65" transform="translate(72.216797 0)"/>
     <use xlink:href="#Arial-BoldMT-73" transform="translate(127.832031 0)"/>
     <use xlink:href="#Arial-BoldMT-6f" transform="translate(183.447266 0)"/>
     <use xlink:href="#Arial-BoldMT-75" transform="translate(244.53125 0)"/>
     <use xlink:href="#Arial-BoldMT-72" transform="translate(305.615234 0)"/>
     <use xlink:href="#Arial-BoldMT-63" transform="translate(344.53125 0)"/>
     <use xlink:href="#Arial-BoldMT-65" transform="translate(400.146484 0)"/>
    </g>
   </g>
   <g id="text_4">
    <!-- Family Support -->
    <g style="fill: #333333" transform="translate(243.103125 148.997082) scale(0.08 -0.08)">
     <defs>
      <path id="ArialMT-46" d="M 525 0 
L 525 4581 
L 3616 4581 
L 3616 4041 
L 1131 4041 
L 1131 2622 
L 3281 2622 
L 3281 2081 
L 1131 2081 
L 1131 0 
L 525 0 
z
" transform="scale(0.015625)"/>
      <path id="ArialMT-61" d="M 2588 409 
Q 2275 144 1986 34 
Q 1697 -75 1366 -75 
Q 819 -75 525 192 
Q 231 459 231 875 
Q 231 1119 342 1320 
Q 453 1522 633 1644 
Q 813 1766 1038 1828 
Q 1203 1872 1538 1913 
Q 2219 1994 2541 2106 
Q 2544 2222 2544 2253 
Q 2544 2597 2384 2738 
Q 2169 2928 1744 2928 
Q 1347 2928 1158 2789 
Q 969 2650 878 2297 
L 328 2372 
Q 403 2725 575 2942 
Q 747 3159 1072 3276 
Q 1397 3394 1825 3394 
Q 2250 3394 2515 3294 
Q 2781 3194 2906 3042 
Q 3031 2891 3081 2659 
Q 3109 2516 3109 2141 
L 3109 1391 
Q 3109 606 3145 398 
Q 3181 191 3288 0 
L 2700 0 
Q 2613 175 2588 409 
z
M 2541 1666 
Q 2234 1541 1622 1453 
Q 1275 1403 1131 1340 
Q 988 1278 909 1158 
Q 831 1038 831 891 
Q 831 666 1001 516 
Q 1172 366 1500 366 
Q 1825 366 2078 508 
Q 2331 650 2450 897 
Q 2541 1088 2541 1459 
L 2541 1666 
z
" transform="scale(0.015625)"/>
      <path id="ArialMT-6d" d="M 422 0 
L 422 3319 
L 925 3319 
L 925 2853 
Q 1081 3097 1340 3245 
Q 1600 3394 1931 3394 
Q 2300 3394 2536 3241 
Q 2772 3088 2869 2813 
Q 3263 3394 3894 3394 
Q 4388 3394 4653 3120 
Q 4919 2847 4919 2278 
L 4919 0 
L 4359 0 
L 4359 2091 
Q 4359 2428 4304 2576 
Q 4250 2725 4106 2815 
Q 3963 2906 3769 2906 
Q 3419 2906 3187 2673 
Q 2956 2441 2956 1928 
L 2956 0 
L 2394 0 
L 2394 2156 
Q 2394 2531 2256 2718 
Q 2119 2906 1806 2906 
Q 1569 2906 1367 2781 
Q 1166 2656 1075 2415 
Q 984 2175 984 1722 
L 984 0 
L 422 0 
z
" transform="scale(0.015625)"/>
      <path id="ArialMT-69" d="M 425 3934 
L 425 4581 
L 988 4581 
L 988 3934 
L 425 3934 
z
M 425 0 
L 425 3319 
L 988 3319 
L 988 0 
L 425 0 
z
" transform="scale(0.015625)"/>
      <path id="ArialMT-6c" d="M 409 0 
L 409 4581 
L 972 4581 
L 972 0 
L 409 0 
z
" transform="scale(0.015625)"/>
      <path id="ArialMT-79" d="M 397 -1278 
L 334 -750 
Q 519 -800 656 -800 
Q 844 -800 956 -737 
Q 1069 -675 1141 -563 
Q 1194 -478 1313 -144 
Q 1328 -97 1363 -6 
L 103 3319 
L 709 3319 
L 1400 1397 
Q 1534 1031 1641 628 
Q 1738 1016 1872 1384 
L 2581 3319 
L 3144 3319 
L 1881 -56 
Q 1678 -603 1566 -809 
Q 1416 -1088 1222 -1217 
Q 1028 -1347 759 -1347 
Q 597 -1347 397 -1278 
z
" transform="scale(0.015625)"/>
      <path id="ArialMT-20" transform="scale(0.015625)"/>
      <path id="ArialMT-53" d="M 288 1472 
L 859 1522 
Q 900 1178 1048 958 
Q 1197 738 1509 602 
Q 1822 466 2213 466 
Q 2559 466 2825 569 
Q 3091 672 3220 851 
Q 3350 1031 3350 1244 
Q 3350 1459 3225 1620 
Q 3100 1781 2813 1891 
Q 2628 1963 1997 2114 
Q 1366 2266 1113 2400 
Q 784 2572 623 2826 
Q 463 3081 463 3397 
Q 463 3744 659 4045 
Q 856 4347 1234 4503 
Q 1613 4659 2075 4659 
Q 2584 4659 2973 4495 
Q 3363 4331 3572 4012 
Q 3781 3694 3797 3291 
L 3216 3247 
Q 3169 3681 2898 3903 
Q 2628 4125 2100 4125 
Q 1550 4125 1298 3923 
Q 1047 3722 1047 3438 
Q 1047 3191 1225 3031 
Q 1400 2872 2139 2705 
Q 2878 2538 3153 2413 
Q 3553 2228 3743 1945 
Q 3934 1663 3934 1294 
Q 3934 928 3725 604 
Q 3516 281 3123 101 
Q 2731 -78 2241 -78 
Q 1619 -78 1198 103 
Q 778 284 539 648 
Q 300 1013 288 1472 
z
" transform="scale(0.015625)"/>
      <path id="ArialMT-75" d="M 2597 0 
L 2597 488 
Q 2209 -75 1544 -75 
Q 1250 -75 995 37 
Q 741 150 617 320 
Q 494 491 444 738 
Q 409 903 409 1263 
L 409 3319 
L 972 3319 
L 972 1478 
Q 972 1038 1006 884 
Q 1059 663 1231 536 
Q 1403 409 1656 409 
Q 1909 409 2131 539 
Q 2353 669 2445 892 
Q 2538 1116 2538 1541 
L 2538 3319 
L 3100 3319 
L 3100 0 
L 2597 0 
z
" transform="scale(0.015625)"/>
      <path id="ArialMT-70" d="M 422 -1272 
L 422 3319 
L 934 3319 
L 934 2888 
Q 1116 3141 1344 3267 
Q 1572 3394 1897 3394 
Q 2322 3394 2647 3175 
Q 2972 2956 3137 2557 
Q 3303 2159 3303 1684 
Q 3303 1175 3120 767 
Q 2938 359 2589 142 
Q 2241 -75 1856 -75 
Q 1575 -75 1351 44 
Q 1128 163 984 344 
L 984 -1272 
L 422 -1272 
z
M 931 1641 
Q 931 1000 1190 694 
Q 1450 388 1819 388 
Q 2194 388 2461 705 
Q 2728 1022 2728 1688 
Q 2728 2322 2467 2637 
Q 2206 2953 1844 2953 
Q 1484 2953 1207 2617 
Q 931 2281 931 1641 
z
" transform="scale(0.015625)"/>
      <path id="ArialMT-6f" d="M 213 1659 
Q 213 2581 725 3025 
Q 1153 3394 1769 3394 
Q 2453 3394 2887 2945 
Q 3322 2497 3322 1706 
Q 3322 1066 3130 698 
Q 2938 331 2570 128 
Q 2203 -75 1769 -75 
Q 1072 -75 642 372 
Q 213 819 213 1659 
z
M 791 1659 
Q 791 1022 1069 705 
Q 1347 388 1769 388 
Q 2188 388 2466 706 
Q 2744 1025 2744 1678 
Q 2744 2294 2464 2611 
Q 2184 2928 1769 2928 
Q 1347 2928 1069 2612 
Q 791 2297 791 1659 
z
" transform="scale(0.015625)"/>
      <path id="ArialMT-72" d="M 416 0 
L 416 3319 
L 922 3319 
L 922 2816 
Q 1116 3169 1280 3281 
Q 1444 3394 1641 3394 
Q 1925 3394 2219 3213 
L 2025 2691 
Q 1819 2813 1613 2813 
Q 1428 2813 1281 2702 
Q 1134 2591 1072 2394 
Q 978 2094 978 1738 
L 978 0 
L 416 0 
z
" transform="scale(0.015625)"/>
      <path id="ArialMT-74" d="M 1650 503 
L 1731 6 
Q 1494 -44 1306 -44 
Q 1000 -44 831 53 
Q 663 150 594 308 
Q 525 466 525 972 
L 525 2881 
L 113 2881 
L 113 3319 
L 525 3319 
L 525 4141 
L 1084 4478 
L 1084 3319 
L 1650 3319 
L 1650 2881 
L 1084 2881 
L 1084 941 
Q 1084 700 1114 631 
Q 1144 563 1211 522 
Q 1278 481 1403 481 
Q 1497 481 1650 503 
z
" transform="scale(0.015625)"/>
     </defs>
     <use xlink:href="#ArialMT-46"/>
     <use xlink:href="#ArialMT-61" transform="translate(61.083984 0)"/>
     <use xlink:href="#ArialMT-6d" transform="translate(116.699219 0)"/>
     <use xlink:href="#ArialMT-69" transform="translate(200 0)"/>
     <use xlink:href="#ArialMT-6c" transform="translate(222.216797 0)"/>
     <use xlink:href="#ArialMT-79" transform="translate(244.433594 0)"/>
     <use xlink:href="#ArialMT-20" transform="translate(294.433594 0)"/>
     <use xlink:href="#ArialMT-53" transform="translate(322.216797 0)"/>
     <use xlink:href="#ArialMT-75" transform="translate(388.916016 0)"/>
     <use xlink:href="#ArialMT-70" transform="translate(444.53125 0)"/>
     <use xlink:href="#ArialMT-70" transform="translate(500.146484 0)"/>
     <use xlink:href="#ArialMT-6f" transform="translate(555.761719 0)"/>
     <use xlink:href="#ArialMT-72" transform="translate(611.376953 0)"/>
     <use xlink:href="#ArialMT-74" transform="translate(644.677734 0)"/>
    </g>
   </g>
   <g id="text_5">
    <!-- Sense of Connectedness -->
    <g style="fill: #333333" transform="translate(225.305625 163.587177) scale(0.08 -0.08)">
     <defs>
      <path id="ArialMT-65" d="M 2694 1069 
L 3275 997 
Q 3138 488 2766 206 
Q 2394 -75 1816 -75 
Q 1088 -75 661 373 
Q 234 822 234 1631 
Q 234 2469 665 2931 
Q 1097 3394 1784 3394 
Q 2450 3394 2872 2941 
Q 3294 2488 3294 1666 
Q 3294 1616 3291 1516 
L 816 1516 
Q 847 969 1125 678 
Q 1403 388 1819 388 
Q 2128 388 2347 550 
Q 2566 713 2694 1069 
z
M 847 1978 
L 2700 1978 
Q 2663 2397 2488 2606 
Q 2219 2931 1791 2931 
Q 1403 2931 1139 2672 
Q 875 2413 847 1978 
z
" transform="scale(0.015625)"/>
      <path id="ArialMT-6e" d="M 422 0 
L 422 3319 
L 928 3319 
L 928 2847 
Q 1294 3394 1984 3394 
Q 2284 3394 2536 3286 
Q 2788 3178 2913 3003 
Q 3038 2828 3088 2588 
Q 3119 2431 3119 2041 
L 3119 0 
L 2556 0 
L 2556 2019 
Q 2556 2363 2490 2533 
Q 2425 2703 2258 2804 
Q 2091 2906 1866 2906 
Q 1506 2906 1245 2678 
Q 984 2450 984 1813 
L 984 0 
L 422 0 
z
" transform="scale(0.015625)"/>
      <path id="ArialMT-73" d="M 197 991 
L 753 1078 
Q 800 744 1014 566 
Q 1228 388 1613 388 
Q 2000 388 2187 545 
Q 2375 703 2375 916 
Q 2375 1106 2209 1216 
Q 2094 1291 1634 1406 
Q 1016 1563 777 1677 
Q 538 1791 414 1992 
Q 291 2194 291 2438 
Q 291 2659 392 2848 
Q 494 3038 669 3163 
Q 800 3259 1026 3326 
Q 1253 3394 1513 3394 
Q 1903 3394 2198 3281 
Q 2494 3169 2634 2976 
Q 2775 2784 2828 2463 
L 2278 2388 
Q 2241 2644 2061 2787 
Q 1881 2931 1553 2931 
Q 1166 2931 1000 2803 
Q 834 2675 834 2503 
Q 834 2394 903 2306 
Q 972 2216 1119 2156 
Q 1203 2125 1616 2013 
Q 2213 1853 2448 1751 
Q 2684 1650 2818 1456 
Q 2953 1263 2953 975 
Q 2953 694 2789 445 
Q 2625 197 2315 61 
Q 2006 -75 1616 -75 
Q 969 -75 630 194 
Q 291 463 197 991 
z
" transform="scale(0.015625)"/>
      <path id="ArialMT-66" d="M 556 0 
L 556 2881 
L 59 2881 
L 59 3319 
L 556 3319 
L 556 3672 
Q 556 4006 616 4169 
Q 697 4388 901 4523 
Q 1106 4659 1475 4659 
Q 1713 4659 2000 4603 
L 1916 4113 
Q 1741 4144 1584 4144 
Q 1328 4144 1222 4034 
Q 1116 3925 1116 3625 
L 1116 3319 
L 1763 3319 
L 1763 2881 
L 1116 2881 
L 1116 0 
L 556 0 
z
" transform="scale(0.015625)"/>
      <path id="ArialMT-43" d="M 3763 1606 
L 4369 1453 
Q 4178 706 3683 314 
Q 3188 -78 2472 -78 
Q 1731 -78 1267 223 
Q 803 525 561 1097 
Q 319 1669 319 2325 
Q 319 3041 592 3573 
Q 866 4106 1370 4382 
Q 1875 4659 2481 4659 
Q 3169 4659 3637 4309 
Q 4106 3959 4291 3325 
L 3694 3184 
Q 3534 3684 3231 3912 
Q 2928 4141 2469 4141 
Q 1941 4141 1586 3887 
Q 1231 3634 1087 3207 
Q 944 2781 944 2328 
Q 944 1744 1114 1308 
Q 1284 872 1643 656 
Q 2003 441 2422 441 
Q 2931 441 3284 734 
Q 3638 1028 3763 1606 
z
" transform="scale(0.015625)"/>
      <path id="ArialMT-63" d="M 2588 1216 
L 3141 1144 
Q 3050 572 2676 248 
Q 2303 -75 1759 -75 
Q 1078 -75 664 370 
Q 250 816 250 1647 
Q 250 2184 428 2587 
Q 606 2991 970 3192 
Q 1334 3394 1763 3394 
Q 2303 3394 2647 3120 
Q 2991 2847 3088 2344 
L 2541 2259 
Q 2463 2594 2264 2762 
Q 2066 2931 1784 2931 
Q 1359 2931 1093 2626 
Q 828 2322 828 1663 
Q 828 994 1084 691 
Q 1341 388 1753 388 
Q 2084 388 2306 591 
Q 2528 794 2588 1216 
z
" transform="scale(0.015625)"/>
      <path id="ArialMT-64" d="M 2575 0 
L 2575 419 
Q 2259 -75 1647 -75 
Q 1250 -75 917 144 
Q 584 363 401 755 
Q 219 1147 219 1656 
Q 219 2153 384 2558 
Q 550 2963 881 3178 
Q 1213 3394 1622 3394 
Q 1922 3394 2156 3267 
Q 2391 3141 2538 2938 
L 2538 4581 
L 3097 4581 
L 3097 0 
L 2575 0 
z
M 797 1656 
Q 797 1019 1065 703 
Q 1334 388 1700 388 
Q 2069 388 2326 689 
Q 2584 991 2584 1609 
Q 2584 2291 2321 2609 
Q 2059 2928 1675 2928 
Q 1300 2928 1048 2622 
Q 797 2316 797 1656 
z
" transform="scale(0.015625)"/>
     </defs>
     <use xlink:href="#ArialMT-53"/>
     <use xlink:href="#ArialMT-65" transform="translate(66.699219 0)"/>
     <use xlink:href="#ArialMT-6e" transform="translate(122.314453 0)"/>
     <use xlink:href="#ArialMT-73" transform="translate(177.929688 0)"/>
     <use xlink:href="#ArialMT-65" transform="translate(227.929688 0)"/>
     <use xlink:href="#ArialMT-20" transform="translate(283.544922 0)"/>
     <use xlink:href="#ArialMT-6f" transform="translate(311.328125 0)"/>
     <use xlink:href="#ArialMT-66" transform="translate(366.943359 0)"/>
     <use xlink:href="#ArialMT-20" transform="translate(394.726562 0)"/>
     <use xlink:href="#ArialMT-43" transform="translate(422.509766 0)"/>
     <use xlink:href="#ArialMT-6f" transform="translate(494.726562 0)"/>
     <use xlink:href="#ArialMT-6e" transform="translate(550.341797 0)"/>
     <use xlink:href="#ArialMT-6e" transform="translate(605.957031 0)"/>
     <use xlink:href="#ArialMT-65" transform="translate(661.572266 0)"/>
     <use xlink:href="#ArialMT-63" transform="translate(717.1875 0)"/>
     <use xlink:href="#ArialMT-74" transform="translate(767.1875 0)"/>
     <use xlink:href="#ArialMT-65" transform="translate(794.970703 0)"/>
     <use xlink:href="#ArialMT-64" transform="translate(850.585938 0)"/>
     <use xlink:href="#ArialMT-6e" transform="translate(906.201172 0)"/>
     <use xlink:href="#ArialMT-65" transform="translate(961.816406 0)"/>
     <use xlink:href="#ArialMT-73" transform="translate(1017.431641 0)"/>
     <use xlink:href="#ArialMT-73" transform="translate(1067.431641 0)"/>
    </g>
   </g>
   <g id="text_6">
    <!-- Strategy -->
    <g style="fill: #4dac26" transform="translate(84.10575 318.869863) scale(0.1 -0.1)">
     <defs>
      <path id="Arial-BoldMT-67" d="M 378 -219 
L 1381 -341 
Q 1406 -516 1497 -581 
Q 1622 -675 1891 -675 
Q 2234 -675 2406 -572 
Q 2522 -503 2581 -350 
Q 2622 -241 2622 53 
L 2622 538 
Q 2228 0 1628 0 
Q 959 0 569 566 
Q 263 1013 263 1678 
Q 263 2513 664 2953 
Q 1066 3394 1663 3394 
Q 2278 3394 2678 2853 
L 2678 3319 
L 3500 3319 
L 3500 341 
Q 3500 -247 3403 -537 
Q 3306 -828 3131 -993 
Q 2956 -1159 2664 -1253 
Q 2372 -1347 1925 -1347 
Q 1081 -1347 728 -1058 
Q 375 -769 375 -325 
Q 375 -281 378 -219 
z
M 1163 1728 
Q 1163 1200 1367 954 
Q 1572 709 1872 709 
Q 2194 709 2416 961 
Q 2638 1213 2638 1706 
Q 2638 2222 2425 2472 
Q 2213 2722 1888 2722 
Q 1572 2722 1367 2476 
Q 1163 2231 1163 1728 
z
" transform="scale(0.015625)"/>
      <path id="Arial-BoldMT-79" d="M 44 3319 
L 978 3319 
L 1772 963 
L 2547 3319 
L 3456 3319 
L 2284 125 
L 2075 -453 
Q 1959 -744 1854 -897 
Q 1750 -1050 1614 -1145 
Q 1478 -1241 1279 -1294 
Q 1081 -1347 831 -1347 
Q 578 -1347 334 -1294 
L 256 -606 
Q 463 -647 628 -647 
Q 934 -647 1081 -467 
Q 1228 -288 1306 -9 
L 44 3319 
z
" transform="scale(0.015625)"/>
     </defs>
     <use xlink:href="#Arial-BoldMT-53"/>
     <use xlink:href="#Arial-BoldMT-74" transform="translate(66.699219 0)"/>
     <use xlink:href="#Arial-BoldMT-72" transform="translate(100 0)"/>
     <use xlink:href="#Arial-BoldMT-61" transform="translate(138.916016 0)"/>
     <use xlink:href="#Arial-BoldMT-74" transform="translate(194.53125 0)"/>
     <use xlink:href="#Arial-BoldMT-65" transform="translate(227.832031 0)"/>
     <use xlink:href="#Arial-BoldMT-67" transform="translate(283.447266 0)"/>
     <use xlink:href="#Arial-BoldMT-79" transform="translate(344.53125 0)"/>
    </g>
   </g>
   <g id="text_7">
    <!-- Cultural Maintenance -->
    <g style="fill: #333333" transform="translate(66.31575 334.711181) scale(0.08 -0.08)">
     <defs>
      <path id="ArialMT-4d" d="M 475 0 
L 475 4581 
L 1388 4581 
L 2472 1338 
Q 2622 884 2691 659 
Q 2769 909 2934 1394 
L 4031 4581 
L 4847 4581 
L 4847 0 
L 4263 0 
L 4263 3834 
L 2931 0 
L 2384 0 
L 1059 3900 
L 1059 0 
L 475 0 
z
" transform="scale(0.015625)"/>
     </defs>
     <use xlink:href="#ArialMT-43"/>
     <use xlink:href="#ArialMT-75" transform="translate(72.216797 0)"/>
     <use xlink:href="#ArialMT-6c" transform="translate(127.832031 0)"/>
     <use xlink:href="#ArialMT-74" transform="translate(150.048828 0)"/>
     <use xlink:href="#ArialMT-75" transform="translate(177.832031 0)"/>
     <use xlink:href="#ArialMT-72" transform="translate(233.447266 0)"/>
     <use xlink:href="#ArialMT-61" transform="translate(266.748047 0)"/>
     <use xlink:href="#ArialMT-6c" transform="translate(322.363281 0)"/>
     <use xlink:href="#ArialMT-20" transform="translate(344.580078 0)"/>
     <use xlink:href="#ArialMT-4d" transform="translate(372.363281 0)"/>
     <use xlink:href="#ArialMT-61" transform="translate(455.664062 0)"/>
     <use xlink:href="#ArialMT-69" transform="translate(511.279297 0)"/>
     <use xlink:href="#ArialMT-6e" transform="translate(533.496094 0)"/>
     <use xlink:href="#ArialMT-74" transform="translate(589.111328 0)"/>
     <use xlink:href="#ArialMT-65" transform="translate(616.894531 0)"/>
     <use xlink:href="#ArialMT-6e" transform="translate(672.509766 0)"/>
     <use xlink:href="#ArialMT-61" transform="translate(728.125 0)"/>
     <use xlink:href="#ArialMT-6e" transform="translate(783.740234 0)"/>
     <use xlink:href="#ArialMT-63" transform="translate(839.355469 0)"/>
     <use xlink:href="#ArialMT-65" transform="translate(889.355469 0)"/>
    </g>
   </g>
   <g id="text_8">
    <!-- Cultural Contact -->
    <g style="fill: #333333" transform="translate(75.433875 349.30315) scale(0.08 -0.08)">
     <use xlink:href="#ArialMT-43"/>
     <use xlink:href="#ArialMT-75" transform="translate(72.216797 0)"/>
     <use xlink:href="#ArialMT-6c" transform="translate(127.832031 0)"/>
     <use xlink:href="#ArialMT-74" transform="translate(150.048828 0)"/>
     <use xlink:href="#ArialMT-75" transform="translate(177.832031 0)"/>
     <use xlink:href="#ArialMT-72" transform="translate(233.447266 0)"/>
     <use xlink:href="#ArialMT-61" transform="translate(266.748047 0)"/>
     <use xlink:href="#ArialMT-6c" transform="translate(322.363281 0)"/>
     <use xlink:href="#ArialMT-20" transform="translate(344.580078 0)"/>
     <use xlink:href="#ArialMT-43" transform="translate(372.363281 0)"/>
     <use xlink:href="#ArialMT-6f" transform="translate(444.580078 0)"/>
     <use xlink:href="#ArialMT-6e" transform="translate(500.195312 0)"/>
     <use xlink:href="#ArialMT-74" transform="translate(555.810547 0)"/>
     <use xlink:href="#ArialMT-61" transform="translate(583.59375 0)"/>
     <use xlink:href="#ArialMT-63" transform="translate(639.208984 0)"/>
     <use xlink:href="#ArialMT-74" transform="translate(689.208984 0)"/>
    </g>
   </g>
   <g id="text_9">
    <!-- Trait -->
    <g style="fill: #d6604d" transform="translate(425.328625 318.87455) scale(0.1 -0.1)">
     <defs>
      <path id="Arial-BoldMT-54" d="M 1497 0 
L 1497 3806 
L 138 3806 
L 138 4581 
L 3778 4581 
L 3778 3806 
L 2422 3806 
L 2422 0 
L 1497 0 
z
" transform="scale(0.015625)"/>
     </defs>
     <use xlink:href="#Arial-BoldMT-54"/>
     <use xlink:href="#Arial-BoldMT-72" transform="translate(55.583984 0)"/>
     <use xlink:href="#Arial-BoldMT-61" transform="translate(94.5 0)"/>
     <use xlink:href="#Arial-BoldMT-69" transform="translate(150.115234 0)"/>
     <use xlink:href="#Arial-BoldMT-74" transform="translate(177.898438 0)"/>
    </g>
   </g>
   <g id="text_10">
    <!-- Openness to Experience -->
    <g style="fill: #333333" transform="translate(392.086125 334.762431) scale(0.08 -0.08)">
     <defs>
      <path id="ArialMT-4f" d="M 309 2231 
Q 309 3372 921 4017 
Q 1534 4663 2503 4663 
Q 3138 4663 3647 4359 
Q 4156 4056 4423 3514 
Q 4691 2972 4691 2284 
Q 4691 1588 4409 1038 
Q 4128 488 3612 205 
Q 3097 -78 2500 -78 
Q 1853 -78 1343 234 
Q 834 547 571 1087 
Q 309 1628 309 2231 
z
M 934 2222 
Q 934 1394 1379 917 
Q 1825 441 2497 441 
Q 3181 441 3623 922 
Q 4066 1403 4066 2288 
Q 4066 2847 3877 3264 
Q 3688 3681 3323 3911 
Q 2959 4141 2506 4141 
Q 1863 4141 1398 3698 
Q 934 3256 934 2222 
z
" transform="scale(0.015625)"/>
      <path id="ArialMT-45" d="M 506 0 
L 506 4581 
L 3819 4581 
L 3819 4041 
L 1113 4041 
L 1113 2638 
L 3647 2638 
L 3647 2100 
L 1113 2100 
L 1113 541 
L 3925 541 
L 3925 0 
L 506 0 
z
" transform="scale(0.015625)"/>
      <path id="ArialMT-78" d="M 47 0 
L 1259 1725 
L 138 3319 
L 841 3319 
L 1350 2541 
Q 1494 2319 1581 2169 
Q 1719 2375 1834 2534 
L 2394 3319 
L 3066 3319 
L 1919 1756 
L 3153 0 
L 2463 0 
L 1781 1031 
L 1600 1309 
L 728 0 
L 47 0 
z
" transform="scale(0.015625)"/>
     </defs>
     <use xlink:href="#ArialMT-4f"/>
     <use xlink:href="#ArialMT-70" transform="translate(77.783203 0)"/>
     <use xlink:href="#ArialMT-65" transform="translate(133.398438 0)"/>
     <use xlink:href="#ArialMT-6e" transform="translate(189.013672 0)"/>
     <use xlink:href="#ArialMT-6e" transform="translate(244.628906 0)"/>
     <use xlink:href="#ArialMT-65" transform="translate(300.244141 0)"/>
     <use xlink:href="#ArialMT-73" transform="translate(355.859375 0)"/>
     <use xlink:href="#ArialMT-73" transform="translate(405.859375 0)"/>
     <use xlink:href="#ArialMT-20" transform="translate(455.859375 0)"/>
     <use xlink:href="#ArialMT-74" transform="translate(483.642578 0)"/>
     <use xlink:href="#ArialMT-6f" transform="translate(511.425781 0)"/>
     <use xlink:href="#ArialMT-20" transform="translate(567.041016 0)"/>
     <use xlink:href="#ArialMT-45" transform="translate(594.824219 0)"/>
     <use xlink:href="#ArialMT-78" transform="translate(661.523438 0)"/>
     <use xlink:href="#ArialMT-70" transform="translate(711.523438 0)"/>
     <use xlink:href="#ArialMT-65" transform="translate(767.138672 0)"/>
     <use xlink:href="#ArialMT-72" transform="translate(822.753906 0)"/>
     <use xlink:href="#ArialMT-69" transform="translate(856.054688 0)"/>
     <use xlink:href="#ArialMT-65" transform="translate(878.271484 0)"/>
     <use xlink:href="#ArialMT-6e" transform="translate(933.886719 0)"/>
     <use xlink:href="#ArialMT-63" transform="translate(989.501953 0)"/>
     <use xlink:href="#ArialMT-65" transform="translate(1039.501953 0)"/>
    </g>
   </g>
   <g id="text_11">
    <!-- Personal Autonomy -->
    <g style="fill: #333333" transform="translate(401.20175 349.256275) scale(0.08 -0.08)">
     <defs>
      <path id="ArialMT-50" d="M 494 0 
L 494 4581 
L 2222 4581 
Q 2678 4581 2919 4538 
Q 3256 4481 3484 4323 
Q 3713 4166 3852 3881 
Q 3991 3597 3991 3256 
Q 3991 2672 3619 2267 
Q 3247 1863 2275 1863 
L 1100 1863 
L 1100 0 
L 494 0 
z
M 1100 2403 
L 2284 2403 
Q 2872 2403 3119 2622 
Q 3366 2841 3366 3238 
Q 3366 3525 3220 3729 
Q 3075 3934 2838 4000 
Q 2684 4041 2272 4041 
L 1100 4041 
L 1100 2403 
z
" transform="scale(0.015625)"/>
      <path id="ArialMT-41" d="M -9 0 
L 1750 4581 
L 2403 4581 
L 4278 0 
L 3588 0 
L 3053 1388 
L 1138 1388 
L 634 0 
L -9 0 
z
M 1313 1881 
L 2866 1881 
L 2388 3150 
Q 2169 3728 2063 4100 
Q 1975 3659 1816 3225 
L 1313 1881 
z
" transform="scale(0.015625)"/>
     </defs>
     <use xlink:href="#ArialMT-50"/>
     <use xlink:href="#ArialMT-65" transform="translate(66.699219 0)"/>
     <use xlink:href="#ArialMT-72" transform="translate(122.314453 0)"/>
     <use xlink:href="#ArialMT-73" transform="translate(155.615234 0)"/>
     <use xlink:href="#ArialMT-6f" transform="translate(205.615234 0)"/>
     <use xlink:href="#ArialMT-6e" transform="translate(261.230469 0)"/>
     <use xlink:href="#ArialMT-61" transform="translate(316.845703 0)"/>
     <use xlink:href="#ArialMT-6c" transform="translate(372.460938 0)"/>
     <use xlink:href="#ArialMT-20" transform="translate(394.677734 0)"/>
     <use xlink:href="#ArialMT-41" transform="translate(416.960938 0)"/>
     <use xlink:href="#ArialMT-75" transform="translate(483.660156 0)"/>
     <use xlink:href="#ArialMT-74" transform="translate(539.275391 0)"/>
     <use xlink:href="#ArialMT-6f" transform="translate(567.058594 0)"/>
     <use xlink:href="#ArialMT-6e" transform="translate(622.673828 0)"/>
     <use xlink:href="#ArialMT-6f" transform="translate(678.289062 0)"/>
     <use xlink:href="#ArialMT-6d" transform="translate(733.904297 0)"/>
     <use xlink:href="#ArialMT-79" transform="translate(817.205078 0)"/>
    </g>
   </g>
   <g id="patch_13">
    <path d="M 212.976 283.118796 
L 327.024 283.118796 
Q 331.1712 283.118796 331.1712 279.581349 
L 331.1712 230.941451 
Q 331.1712 227.404004 327.024 227.404004 
L 212.976 227.404004 
Q 208.8288 227.404004 208.8288 230.941451 
L 208.8288 279.581349 
Q 208.8288 283.118796 212.976 283.118796 
z
" clip-path="url(#pdf115298e9)" style="fill: #f7f7f7; stroke: #333333; stroke-width: 2; stroke-linejoin: miter"/>
   </g>
   <g id="legend_1">
    <g id="patch_14">
     <path d="M 180.641094 457.952056 
L 359.358906 457.952056 
Q 361.058906 457.952056 361.058906 456.252056 
L 361.058906 444.875337 
Q 361.058906 443.175337 359.358906 443.175337 
L 180.641094 443.175337 
Q 178.941094 443.175337 178.941094 444.875337 
L 178.941094 456.252056 
Q 178.941094 457.952056 180.641094 457.952056 
z
" style="fill: #ffffff; opacity: 0.9; stroke: #cccccc; stroke-linejoin: miter"/>
    </g>
    <g id="line2d_1">
     <path d="M 182.341094 449.788072 
L 190.841094 449.788072 
L 199.341094 449.788072 
" style="fill: none; stroke: #333333; stroke-width: 1.5; stroke-linecap: square"/>
     <defs>
      <path id="mdfc5a550f8" d="M 3 0 
L -3 -3 
L -3 3 
z
" style="stroke: #333333; stroke-linejoin: miter"/>
     </defs>
     <g>
      <use xlink:href="#mdfc5a550f8" x="190.841094" y="449.788072" style="fill: #333333; stroke: #333333; stroke-linejoin: miter"/>
     </g>
    </g>
    <g id="text_12">
     <!-- Direct effect -->
     <g transform="translate(206.141094 452.763072) scale(0.085 -0.085)">
      <defs>
       <path id="ArialMT-44" d="M 494 0 
L 494 4581 
L 2072 4581 
Q 2606 4581 2888 4516 
Q 3281 4425 3559 4188 
Q 3922 3881 4101 3404 
Q 4281 2928 4281 2316 
Q 4281 1794 4159 1391 
Q 4038 988 3847 723 
Q 3656 459 3429 307 
Q 3203 156 2883 78 
Q 2563 0 2147 0 
L 494 0 
z
M 1100 541 
L 2078 541 
Q 2531 541 2789 625 
Q 3047 709 3200 863 
Q 3416 1078 3536 1442 
Q 3656 1806 3656 2325 
Q 3656 3044 3420 3430 
Q 3184 3816 2847 3947 
Q 2603 4041 2063 4041 
L 1100 4041 
L 1100 541 
z
" transform="scale(0.015625)"/>
      </defs>
      <use xlink:href="#ArialMT-44"/>
      <use xlink:href="#ArialMT-69" transform="translate(72.216797 0)"/>
      <use xlink:href="#ArialMT-72" transform="translate(94.433594 0)"/>
      <use xlink:href="#ArialMT-65" transform="translate(127.734375 0)"/>
      <use xlink:href="#ArialMT-63" transform="translate(183.349609 0)"/>
      <use xlink:href="#ArialMT-74" transform="translate(233.349609 0)"/>
      <use xlink:href="#ArialMT-20" transform="translate(261.132812 0)"/>
      <use xlink:href="#ArialMT-65" transform="translate(288.916016 0)"/>
      <use xlink:href="#ArialMT-66" transform="translate(344.53125 0)"/>
      <use xlink:href="#ArialMT-66" transform="translate(370.564453 0)"/>
      <use xlink:href="#ArialMT-65" transform="translate(398.347656 0)"/>
      <use xlink:href="#ArialMT-63" transform="translate(453.962891 0)"/>
      <use xlink:href="#ArialMT-74" transform="translate(503.962891 0)"/>
     </g>
    </g>
    <g id="line2d_2">
     <path d="M 268.337188 449.788072 
L 276.837188 449.788072 
L 285.337188 449.788072 
" style="fill: none; stroke-dasharray: 4.44,1.92; stroke-dashoffset: 0; stroke: #878787; stroke-width: 1.2"/>
     <defs>
      <path id="me512d77e18" d="M 3 0 
L -3 -3 
L -3 3 
z
" style="stroke: #878787; stroke-linejoin: miter"/>
     </defs>
     <g>
      <use xlink:href="#me512d77e18" x="276.837188" y="449.788072" style="fill: #878787; stroke: #878787; stroke-linejoin: miter"/>
     </g>
    </g>
    <g id="text_13">
     <!-- Moderating effect -->
     <g transform="translate(292.137188 452.763072) scale(0.085 -0.085)">
      <defs>
       <path id="ArialMT-67" d="M 319 -275 
L 866 -356 
Q 900 -609 1056 -725 
Q 1266 -881 1628 -881 
Q 2019 -881 2231 -725 
Q 2444 -569 2519 -288 
Q 2563 -116 2559 434 
Q 2191 0 1641 0 
Q 956 0 581 494 
Q 206 988 206 1678 
Q 206 2153 378 2554 
Q 550 2956 876 3175 
Q 1203 3394 1644 3394 
Q 2231 3394 2613 2919 
L 2613 3319 
L 3131 3319 
L 3131 450 
Q 3131 -325 2973 -648 
Q 2816 -972 2473 -1159 
Q 2131 -1347 1631 -1347 
Q 1038 -1347 672 -1080 
Q 306 -813 319 -275 
z
M 784 1719 
Q 784 1066 1043 766 
Q 1303 466 1694 466 
Q 2081 466 2343 764 
Q 2606 1063 2606 1700 
Q 2606 2309 2336 2618 
Q 2066 2928 1684 2928 
Q 1309 2928 1046 2623 
Q 784 2319 784 1719 
z
" transform="scale(0.015625)"/>
      </defs>
      <use xlink:href="#ArialMT-4d"/>
      <use xlink:href="#ArialMT-6f" transform="translate(83.300781 0)"/>
      <use xlink:href="#ArialMT-64" transform="translate(138.916016 0)"/>
      <use xlink:href="#ArialMT-65" transform="translate(194.53125 0)"/>
      <use xlink:href="#ArialMT-72" transform="translate(250.146484 0)"/>
      <use xlink:href="#ArialMT-61" transform="translate(283.447266 0)"/>
      <use xlink:href="#ArialMT-74" transform="translate(339.0625 0)"/>
      <use xlink:href="#ArialMT-69" transform="translate(366.845703 0)"/>
      <use xlink:href="#ArialMT-6e" transform="translate(389.0625 0)"/>
      <use xlink:href="#ArialMT-67" transform="translate(444.677734 0)"/>
      <use xlink:href="#ArialMT-20" transform="translate(500.292969 0)"/>
      <use xlink:href="#ArialMT-65" transform="translate(528.076172 0)"/>
      <use xlink:href="#ArialMT-66" transform="translate(583.691406 0)"/>
      <use xlink:href="#ArialMT-66" transform="translate(609.724609 0)"/>
      <use xlink:href="#ArialMT-65" transform="translate(637.507812 0)"/>
      <use xlink:href="#ArialMT-63" transform="translate(693.123047 0)"/>
      <use xlink:href="#ArialMT-74" transform="translate(743.123047 0)"/>
     </g>
    </g>
   </g>
   <g id="text_14">
    <!-- Cross-Cultural -->
    <g style="fill: #333333" transform="translate(235.275 252.547417) scale(0.1 -0.1)">
     <defs>
      <path id="Arial-BoldMT-43" d="M 3397 1684 
L 4294 1400 
Q 4088 650 3608 286 
Q 3128 -78 2391 -78 
Q 1478 -78 890 545 
Q 303 1169 303 2250 
Q 303 3394 893 4026 
Q 1484 4659 2447 4659 
Q 3288 4659 3813 4163 
Q 4125 3869 4281 3319 
L 3366 3100 
Q 3284 3456 3026 3662 
Q 2769 3869 2400 3869 
Q 1891 3869 1573 3503 
Q 1256 3138 1256 2319 
Q 1256 1450 1568 1081 
Q 1881 713 2381 713 
Q 2750 713 3015 947 
Q 3281 1181 3397 1684 
z
" transform="scale(0.015625)"/>
      <path id="Arial-BoldMT-2d" d="M 359 1222 
L 359 2100 
L 2084 2100 
L 2084 1222 
L 359 1222 
z
" transform="scale(0.015625)"/>
      <path id="Arial-BoldMT-6c" d="M 459 0 
L 459 4581 
L 1338 4581 
L 1338 0 
L 459 0 
z
" transform="scale(0.015625)"/>
     </defs>
     <use xlink:href="#Arial-BoldMT-43"/>
     <use xlink:href="#Arial-BoldMT-72" transform="translate(72.216797 0)"/>
     <use xlink:href="#Arial-BoldMT-6f" transform="translate(111.132812 0)"/>
     <use xlink:href="#Arial-BoldMT-73" transform="translate(172.216797 0)"/>
     <use xlink:href="#Arial-BoldMT-73" transform="translate(227.832031 0)"/>
     <use xlink:href="#Arial-BoldMT-2d" transform="translate(283.447266 0)"/>
     <use xlink:href="#Arial-BoldMT-43" transform="translate(316.748047 0)"/>
     <use xlink:href="#Arial-BoldMT-75" transform="translate(388.964844 0)"/>
     <use xlink:href="#Arial-BoldMT-6c" transform="translate(450.048828 0)"/>
     <use xlink:href="#Arial-BoldMT-74" transform="translate(477.832031 0)"/>
     <use xlink:href="#Arial-BoldMT-75" transform="translate(511.132812 0)"/>
     <use xlink:href="#Arial-BoldMT-72" transform="translate(572.216797 0)"/>
     <use xlink:href="#Arial-BoldMT-61" transform="translate(611.132812 0)"/>
     <use xlink:href="#Arial-BoldMT-6c" transform="translate(666.748047 0)"/>
    </g>
   </g>
   <g id="text_15">
    <!-- Adaptation -->
    <g style="fill: #333333" transform="translate(243.89375 267.581567) scale(0.1 -0.1)">
     <defs>
      <path id="Arial-BoldMT-41" d="M 4597 0 
L 3591 0 
L 3191 1041 
L 1359 1041 
L 981 0 
L 0 0 
L 1784 4581 
L 2763 4581 
L 4597 0 
z
M 2894 1813 
L 2263 3513 
L 1644 1813 
L 2894 1813 
z
" transform="scale(0.015625)"/>
      <path id="Arial-BoldMT-64" d="M 3503 0 
L 2688 0 
L 2688 488 
Q 2484 203 2207 64 
Q 1931 -75 1650 -75 
Q 1078 -75 670 386 
Q 263 847 263 1672 
Q 263 2516 659 2955 
Q 1056 3394 1663 3394 
Q 2219 3394 2625 2931 
L 2625 4581 
L 3503 4581 
L 3503 0 
z
M 1159 1731 
Q 1159 1200 1306 963 
Q 1519 619 1900 619 
Q 2203 619 2415 876 
Q 2628 1134 2628 1647 
Q 2628 2219 2422 2470 
Q 2216 2722 1894 2722 
Q 1581 2722 1370 2473 
Q 1159 2225 1159 1731 
z
" transform="scale(0.015625)"/>
      <path id="Arial-BoldMT-70" d="M 434 3319 
L 1253 3319 
L 1253 2831 
Q 1413 3081 1684 3237 
Q 1956 3394 2288 3394 
Q 2866 3394 3269 2941 
Q 3672 2488 3672 1678 
Q 3672 847 3265 386 
Q 2859 -75 2281 -75 
Q 2006 -75 1782 34 
Q 1559 144 1313 409 
L 1313 -1263 
L 434 -1263 
L 434 3319 
z
M 1303 1716 
Q 1303 1156 1525 889 
Q 1747 622 2066 622 
Q 2372 622 2575 867 
Q 2778 1113 2778 1672 
Q 2778 2194 2568 2447 
Q 2359 2700 2050 2700 
Q 1728 2700 1515 2451 
Q 1303 2203 1303 1716 
z
" transform="scale(0.015625)"/>
     </defs>
     <use xlink:href="#Arial-BoldMT-41"/>
     <use xlink:href="#Arial-BoldMT-64" transform="translate(72.216797 0)"/>
     <use xlink:href="#Arial-BoldMT-61" transform="translate(133.300781 0)"/>
     <use xlink:href="#Arial-BoldMT-70" transform="translate(188.916016 0)"/>
     <use xlink:href="#Arial-BoldMT-74" transform="translate(250 0)"/>
     <use xlink:href="#Arial-BoldMT-61" transform="translate(283.300781 0)"/>
     <use xlink:href="#Arial-BoldMT-74" transform="translate(338.916016 0)"/>
     <use xlink:href="#Arial-BoldMT-69" transform="translate(372.216797 0)"/>
     <use xlink:href="#Arial-BoldMT-6f" transform="translate(400 0)"/>
     <use xlink:href="#Arial-BoldMT-6e" transform="translate(461.083984 0)"/>
    </g>
   </g>
  </g>
  <g id="text_16">
   <!-- Figure 2. Quadripartite model of cross-cultural adaptation. Resource dimension includes family support and sense of connectedness; Strategy dimension -->
   <g style="fill: #333333" transform="translate(27 492.179766) scale(0.075 -0.075)">
    <defs>
     <path id="Arial-ItalicMT-46" d="M 291 0 
L 1247 4581 
L 4225 4581 
L 4116 4059 
L 1750 4059 
L 1447 2600 
L 3856 2600 
L 3747 2078 
L 1338 2078 
L 903 0 
L 291 0 
z
" transform="scale(0.015625)"/>
     <path id="Arial-ItalicMT-67" d="M 181 -300 
L 753 -353 
Q 747 -547 800 -644 
Q 853 -741 969 -794 
Q 1122 -863 1366 -863 
Q 1878 -863 2103 -597 
Q 2250 -419 2375 178 
L 2431 447 
Q 1991 0 1494 0 
Q 991 0 652 370 
Q 313 741 313 1419 
Q 313 1978 580 2447 
Q 847 2916 1215 3155 
Q 1584 3394 1975 3394 
Q 2628 3394 2981 2775 
L 3094 3319 
L 3613 3319 
L 2944 116 
Q 2834 -413 2656 -708 
Q 2478 -1003 2161 -1165 
Q 1844 -1328 1428 -1328 
Q 1028 -1328 739 -1225 
Q 450 -1122 308 -923 
Q 166 -725 166 -469 
Q 166 -391 181 -300 
z
M 888 1469 
Q 888 1128 953 956 
Q 1047 716 1220 589 
Q 1394 463 1606 463 
Q 1884 463 2159 658 
Q 2434 853 2604 1262 
Q 2775 1672 2775 2044 
Q 2775 2453 2548 2695 
Q 2322 2938 1988 2938 
Q 1781 2938 1587 2827 
Q 1394 2716 1226 2489 
Q 1059 2263 973 1947 
Q 888 1631 888 1469 
z
" transform="scale(0.015625)"/>
     <path id="Arial-ItalicMT-32" d="M 375 0 
Q 463 409 617 686 
Q 772 963 1028 1211 
Q 1284 1459 2016 2044 
Q 2459 2397 2622 2566 
Q 2856 2809 2963 3044 
Q 3034 3203 3034 3391 
Q 3034 3706 2811 3926 
Q 2588 4147 2263 4147 
Q 1941 4147 1700 3923 
Q 1459 3700 1356 3206 
L 803 3288 
Q 884 3897 1276 4248 
Q 1669 4600 2253 4600 
Q 2644 4600 2961 4437 
Q 3278 4275 3437 3981 
Q 3597 3688 3597 3375 
Q 3597 2919 3272 2497 
Q 3072 2234 2097 1463 
Q 1678 1131 1473 918 
Q 1269 706 1166 519 
L 3216 519 
L 3106 0 
L 375 0 
z
" transform="scale(0.015625)"/>
     <path id="Arial-ItalicMT-2e" d="M 369 0 
L 503 641 
L 1144 641 
L 1006 0 
L 369 0 
z
" transform="scale(0.015625)"/>
     <path id="Arial-ItalicMT-51" d="M 3869 369 
Q 4100 94 4494 -163 
L 4222 -525 
Q 3806 -253 3475 134 
Q 3009 -84 2588 -84 
Q 2250 -84 1847 44 
Q 1444 172 1172 431 
Q 900 691 745 1098 
Q 591 1506 591 2000 
Q 591 2597 819 3144 
Q 1009 3594 1314 3920 
Q 1619 4247 1981 4425 
Q 2459 4659 3016 4659 
Q 3872 4659 4411 4101 
Q 4950 3544 4950 2606 
Q 4950 1916 4662 1333 
Q 4375 750 3869 369 
z
M 3494 763 
Q 3872 1056 4106 1570 
Q 4341 2084 4341 2641 
Q 4341 3334 3959 3742 
Q 3578 4150 3025 4150 
Q 2563 4150 2134 3879 
Q 1706 3609 1450 3087 
Q 1194 2566 1194 1950 
Q 1194 1178 1675 756 
Q 2050 428 2478 428 
Q 2819 428 3091 534 
Q 2806 794 2506 950 
L 2728 1331 
Q 2931 1244 3095 1123 
Q 3259 1003 3494 763 
z
" transform="scale(0.015625)"/>
     <path id="Arial-ItalicMT-64" d="M 2450 481 
Q 1966 -75 1438 -75 
Q 966 -75 652 273 
Q 338 622 338 1284 
Q 338 1891 586 2392 
Q 834 2894 1207 3144 
Q 1581 3394 1956 3394 
Q 2575 3394 2891 2797 
L 3266 4581 
L 3828 4581 
L 2872 0 
L 2350 0 
L 2450 481 
z
M 900 1391 
Q 900 1044 969 844 
Q 1038 644 1203 511 
Q 1369 378 1600 378 
Q 1984 378 2297 778 
Q 2716 1309 2716 2091 
Q 2716 2484 2509 2706 
Q 2303 2928 1991 2928 
Q 1788 2928 1620 2837 
Q 1453 2747 1289 2530 
Q 1125 2313 1012 1978 
Q 900 1644 900 1391 
z
" transform="scale(0.015625)"/>
     <path id="Arial-ItalicMT-70" d="M -66 -1272 
L 894 3319 
L 1416 3319 
L 1319 2856 
Q 1609 3159 1839 3276 
Q 2069 3394 2325 3394 
Q 2800 3394 3112 3048 
Q 3425 2703 3425 2059 
Q 3425 1541 3253 1114 
Q 3081 688 2831 428 
Q 2581 169 2325 47 
Q 2069 -75 1800 -75 
Q 1203 -75 875 531 
L 500 -1272 
L -66 -1272 
z
M 1053 1356 
Q 1053 984 1106 841 
Q 1184 638 1362 513 
Q 1541 388 1775 388 
Q 2263 388 2563 936 
Q 2863 1484 2863 2056 
Q 2863 2478 2661 2708 
Q 2459 2938 2159 2938 
Q 1944 2938 1759 2823 
Q 1575 2709 1417 2482 
Q 1259 2256 1156 1928 
Q 1053 1600 1053 1356 
z
" transform="scale(0.015625)"/>
     <path id="Arial-ItalicMT-6d" d="M 209 0 
L 903 3319 
L 1469 3319 
L 1353 2772 
Q 1669 3125 1917 3259 
Q 2166 3394 2456 3394 
Q 2766 3394 2973 3230 
Q 3181 3066 3247 2772 
Q 3500 3084 3779 3239 
Q 4059 3394 4369 3394 
Q 4784 3394 4992 3197 
Q 5200 3000 5200 2644 
Q 5200 2491 5128 2138 
L 4681 0 
L 4116 0 
L 4572 2194 
Q 4631 2463 4631 2578 
Q 4631 2741 4528 2834 
Q 4425 2928 4238 2928 
Q 3984 2928 3721 2775 
Q 3459 2622 3314 2373 
Q 3169 2125 3059 1609 
L 2722 0 
L 2156 0 
L 2625 2241 
Q 2675 2469 2675 2566 
Q 2675 2728 2573 2828 
Q 2472 2928 2309 2928 
Q 2069 2928 1805 2775 
Q 1541 2622 1375 2348 
Q 1209 2075 1103 1569 
L 775 0 
L 209 0 
z
" transform="scale(0.015625)"/>
     <path id="Arial-ItalicMT-6f" d="M 313 1259 
Q 313 2231 884 2869 
Q 1356 3394 2122 3394 
Q 2722 3394 3089 3019 
Q 3456 2644 3456 2006 
Q 3456 1434 3225 942 
Q 2994 450 2567 187 
Q 2141 -75 1669 -75 
Q 1281 -75 964 90 
Q 647 256 480 559 
Q 313 863 313 1259 
z
M 878 1316 
Q 878 847 1103 605 
Q 1328 363 1675 363 
Q 1856 363 2034 436 
Q 2213 509 2366 659 
Q 2519 809 2626 1001 
Q 2734 1194 2800 1416 
Q 2897 1725 2897 2009 
Q 2897 2459 2670 2707 
Q 2444 2956 2100 2956 
Q 1834 2956 1615 2829 
Q 1397 2703 1220 2459 
Q 1044 2216 961 1892 
Q 878 1569 878 1316 
z
" transform="scale(0.015625)"/>
     <path id="Arial-ItalicMT-66" d="M 291 0 
L 894 2881 
L 388 2881 
L 478 3319 
L 984 3319 
L 1081 3791 
Q 1156 4144 1236 4300 
Q 1316 4456 1495 4557 
Q 1675 4659 1984 4659 
Q 2200 4659 2609 4569 
L 2506 4075 
Q 2219 4150 2025 4150 
Q 1859 4150 1773 4067 
Q 1688 3984 1625 3675 
L 1550 3319 
L 2181 3319 
L 2091 2881 
L 1459 2881 
L 856 0 
L 291 0 
z
" transform="scale(0.015625)"/>
     <path id="Arial-ItalicMT-2d" d="M 297 1375 
L 416 1941 
L 2141 1941 
L 2025 1375 
L 297 1375 
z
" transform="scale(0.015625)"/>
     <path id="Arial-ItalicMT-52" d="M 300 0 
L 1259 4581 
L 3181 4581 
Q 3750 4581 4044 4486 
Q 4338 4391 4505 4128 
Q 4672 3866 4672 3466 
Q 4672 2906 4306 2537 
Q 3941 2169 3125 2059 
Q 3375 1875 3503 1697 
Q 3791 1294 3966 863 
L 4316 0 
L 3631 0 
L 3303 853 
Q 3125 1316 2897 1653 
Q 2741 1888 2578 1961 
Q 2416 2034 2050 2034 
L 1338 2034 
L 913 0 
L 300 0 
z
M 1441 2531 
L 2288 2531 
Q 2875 2531 3053 2547 
Q 3400 2581 3622 2703 
Q 3844 2825 3966 3031 
Q 4088 3238 4088 3475 
Q 4088 3675 3997 3823 
Q 3906 3972 3759 4025 
Q 3613 4078 3259 4078 
L 1766 4078 
L 1441 2531 
z
" transform="scale(0.015625)"/>
     <path id="Arial-ItalicMT-79" d="M 0 -1281 
L 34 -750 
Q 209 -800 375 -800 
Q 547 -800 653 -722 
Q 791 -619 953 -334 
L 1134 -9 
L 581 3319 
L 1138 3319 
L 1388 1641 
Q 1463 1144 1516 647 
L 3000 3319 
L 3591 3319 
L 1475 -441 
Q 1169 -991 931 -1169 
Q 694 -1347 384 -1347 
Q 188 -1347 0 -1281 
z
" transform="scale(0.015625)"/>
     <path id="Arial-ItalicMT-3b" d="M 906 2678 
L 1041 3319 
L 1678 3319 
L 1544 2678 
L 906 2678 
z
M 347 0 
L 481 641 
L 1125 641 
L 1009 81 
Q 903 -422 679 -656 
Q 456 -891 153 -925 
L 206 -678 
Q 578 -575 697 0 
L 347 0 
z
" transform="scale(0.015625)"/>
     <path id="Arial-ItalicMT-53" d="M 450 1481 
L 1050 1538 
L 1044 1378 
Q 1044 1113 1166 892 
Q 1288 672 1569 551 
Q 1850 431 2238 431 
Q 2788 431 3077 672 
Q 3366 913 3366 1222 
Q 3366 1438 3213 1616 
Q 3056 1791 2359 2091 
Q 1819 2325 1622 2450 
Q 1313 2653 1166 2892 
Q 1019 3131 1019 3438 
Q 1019 3791 1212 4075 
Q 1406 4359 1779 4509 
Q 2153 4659 2622 4659 
Q 3181 4659 3565 4471 
Q 3950 4284 4123 3971 
Q 4297 3659 4297 3375 
Q 4297 3347 4294 3281 
L 3703 3234 
Q 3703 3428 3669 3538 
Q 3606 3728 3475 3859 
Q 3344 3991 3114 4070 
Q 2884 4150 2600 4150 
Q 2100 4150 1822 3925 
Q 1609 3753 1609 3469 
Q 1609 3300 1696 3167 
Q 1784 3034 2013 2906 
Q 2175 2816 2784 2547 
Q 3278 2328 3466 2203 
Q 3716 2038 3850 1802 
Q 3984 1566 3984 1266 
Q 3984 894 3757 580 
Q 3531 266 3131 94 
Q 2731 -78 2216 -78 
Q 1438 -78 945 261 
Q 453 600 450 1481 
z
" transform="scale(0.015625)"/>
    </defs>
    <use xlink:href="#Arial-ItalicMT-46"/>
    <use xlink:href="#Arial-ItalicMT-69" transform="translate(61.083984 0)"/>
    <use xlink:href="#Arial-ItalicMT-67" transform="translate(83.300781 0)"/>
    <use xlink:href="#Arial-ItalicMT-75" transform="translate(138.916016 0)"/>
    <use xlink:href="#Arial-ItalicMT-72" transform="translate(194.53125 0)"/>
    <use xlink:href="#Arial-ItalicMT-65" transform="translate(227.832031 0)"/>
    <use xlink:href="#Arial-ItalicMT-20" transform="translate(283.447266 0)"/>
    <use xlink:href="#Arial-ItalicMT-32" transform="translate(311.230469 0)"/>
    <use xlink:href="#Arial-ItalicMT-2e" transform="translate(366.845703 0)"/>
    <use xlink:href="#Arial-ItalicMT-20" transform="translate(394.628906 0)"/>
    <use xlink:href="#Arial-ItalicMT-51" transform="translate(422.412109 0)"/>
    <use xlink:href="#Arial-ItalicMT-75" transform="translate(500.195312 0)"/>
    <use xlink:href="#Arial-ItalicMT-61" transform="translate(555.810547 0)"/>
    <use xlink:href="#Arial-ItalicMT-64" transform="translate(611.425781 0)"/>
    <use xlink:href="#Arial-ItalicMT-72" transform="translate(667.041016 0)"/>
    <use xlink:href="#Arial-ItalicMT-69" transform="translate(700.341797 0)"/>
    <use xlink:href="#Arial-ItalicMT-70" transform="translate(722.558594 0)"/>
    <use xlink:href="#Arial-ItalicMT-61" transform="translate(778.173828 0)"/>
    <use xlink:href="#Arial-ItalicMT-72" transform="translate(833.789062 0)"/>
    <use xlink:href="#Arial-ItalicMT-74" transform="translate(867.089844 0)"/>
    <use xlink:href="#Arial-ItalicMT-69" transform="translate(894.873047 0)"/>
    <use xlink:href="#Arial-ItalicMT-74" transform="translate(917.089844 0)"/>
    <use xlink:href="#Arial-ItalicMT-65" transform="translate(944.873047 0)"/>
    <use xlink:href="#Arial-ItalicMT-20" transform="translate(1000.488281 0)"/>
    <use xlink:href="#Arial-ItalicMT-6d" transform="translate(1028.271484 0)"/>
    <use xlink:href="#Arial-ItalicMT-6f" transform="translate(1111.572266 0)"/>
    <use xlink:href="#Arial-ItalicMT-64" transform="translate(1167.1875 0)"/>
    <use xlink:href="#Arial-ItalicMT-65" transform="translate(1222.802734 0)"/>
    <use xlink:href="#Arial-ItalicMT-6c" transform="translate(1278.417969 0)"/>
    <use xlink:href="#Arial-ItalicMT-20" transform="translate(1300.634766 0)"/>
    <use xlink:href="#Arial-ItalicMT-6f" transform="translate(1328.417969 0)"/>
    <use xlink:href="#Arial-ItalicMT-66" transform="translate(1384.033203 0)"/>
    <use xlink:href="#Arial-ItalicMT-20" transform="translate(1411.816406 0)"/>
    <use xlink:href="#Arial-ItalicMT-63" transform="translate(1439.599609 0)"/>
    <use xlink:href="#Arial-ItalicMT-72" transform="translate(1489.599609 0)"/>
    <use xlink:href="#Arial-ItalicMT-6f" transform="translate(1522.900391 0)"/>
    <use xlink:href="#Arial-ItalicMT-73" transform="translate(1578.515625 0)"/>
    <use xlink:href="#Arial-ItalicMT-73" transform="translate(1628.515625 0)"/>
    <use xlink:href="#Arial-ItalicMT-2d" transform="translate(1678.515625 0)"/>
    <use xlink:href="#Arial-ItalicMT-63" transform="translate(1711.816406 0)"/>
    <use xlink:href="#Arial-ItalicMT-75" transform="translate(1761.816406 0)"/>
    <use xlink:href="#Arial-ItalicMT-6c" transform="translate(1817.431641 0)"/>
    <use xlink:href="#Arial-ItalicMT-74" transform="translate(1839.648438 0)"/>
    <use xlink:href="#Arial-ItalicMT-75" transform="translate(1867.431641 0)"/>
    <use xlink:href="#Arial-ItalicMT-72" transform="translate(1923.046875 0)"/>
    <use xlink:href="#Arial-ItalicMT-61" transform="translate(1956.347656 0)"/>
    <use xlink:href="#Arial-ItalicMT-6c" transform="translate(2011.962891 0)"/>
    <use xlink:href="#Arial-ItalicMT-20" transform="translate(2034.179688 0)"/>
    <use xlink:href="#Arial-ItalicMT-61" transform="translate(2061.962891 0)"/>
    <use xlink:href="#Arial-ItalicMT-64" transform="translate(2117.578125 0)"/>
    <use xlink:href="#Arial-ItalicMT-61" transform="translate(2173.193359 0)"/>
    <use xlink:href="#Arial-ItalicMT-70" transform="translate(2228.808594 0)"/>
    <use xlink:href="#Arial-ItalicMT-74" transform="translate(2284.423828 0)"/>
    <use xlink:href="#Arial-ItalicMT-61" transform="translate(2312.207031 0)"/>
    <use xlink:href="#Arial-ItalicMT-74" transform="translate(2367.822266 0)"/>
    <use xlink:href="#Arial-ItalicMT-69" transform="translate(2395.605469 0)"/>
    <use xlink:href="#Arial-ItalicMT-6f" transform="translate(2417.822266 0)"/>
    <use xlink:href="#Arial-ItalicMT-6e" transform="translate(2473.4375 0)"/>
    <use xlink:href="#Arial-ItalicMT-2e" transform="translate(2529.052734 0)"/>
    <use xlink:href="#Arial-ItalicMT-20" transform="translate(2556.835938 0)"/>
    <use xlink:href="#Arial-ItalicMT-52" transform="translate(2584.619141 0)"/>
    <use xlink:href="#Arial-ItalicMT-65" transform="translate(2656.835938 0)"/>
    <use xlink:href="#Arial-ItalicMT-73" transform="translate(2712.451172 0)"/>
    <use xlink:href="#Arial-ItalicMT-6f" transform="translate(2762.451172 0)"/>
    <use xlink:href="#Arial-ItalicMT-75" transform="translate(2818.066406 0)"/>
    <use xlink:href="#Arial-ItalicMT-72" transform="translate(2873.681641 0)"/>
    <use xlink:href="#Arial-ItalicMT-63" transform="translate(2906.982422 0)"/>
    <use xlink:href="#Arial-ItalicMT-65" transform="translate(2956.982422 0)"/>
    <use xlink:href="#Arial-ItalicMT-20" transform="translate(3012.597656 0)"/>
    <use xlink:href="#Arial-ItalicMT-64" transform="translate(3040.380859 0)"/>
    <use xlink:href="#Arial-ItalicMT-69" transform="translate(3095.996094 0)"/>
    <use xlink:href="#Arial-ItalicMT-6d" transform="translate(3118.212891 0)"/>
    <use xlink:href="#Arial-ItalicMT-65" transform="translate(3201.513672 0)"/>
    <use xlink:href="#Arial-ItalicMT-6e" transform="translate(3257.128906 0)"/>
    <use xlink:href="#Arial-ItalicMT-73" transform="translate(3312.744141 0)"/>
    <use xlink:href="#Arial-ItalicMT-69" transform="translate(3362.744141 0)"/>
    <use xlink:href="#Arial-ItalicMT-6f" transform="translate(3384.960938 0)"/>
    <use xlink:href="#Arial-ItalicMT-6e" transform="translate(3440.576172 0)"/>
    <use xlink:href="#Arial-ItalicMT-20" transform="translate(3496.191406 0)"/>
    <use xlink:href="#Arial-ItalicMT-69" transform="translate(3523.974609 0)"/>
    <use xlink:href="#Arial-ItalicMT-6e" transform="translate(3546.191406 0)"/>
    <use xlink:href="#Arial-ItalicMT-63" transform="translate(3601.806641 0)"/>
    <use xlink:href="#Arial-ItalicMT-6c" transform="translate(3651.806641 0)"/>
    <use xlink:href="#Arial-ItalicMT-75" transform="translate(3674.023438 0)"/>
    <use xlink:href="#Arial-ItalicMT-64" transform="translate(3729.638672 0)"/>
    <use xlink:href="#Arial-ItalicMT-65" transform="translate(3785.253906 0)"/>
    <use xlink:href="#Arial-ItalicMT-73" transform="translate(3840.869141 0)"/>
    <use xlink:href="#Arial-ItalicMT-20" transform="translate(3890.869141 0)"/>
    <use xlink:href="#Arial-ItalicMT-66" transform="translate(3918.652344 0)"/>
    <use xlink:href="#Arial-ItalicMT-61" transform="translate(3946.435547 0)"/>
    <use xlink:href="#Arial-ItalicMT-6d" transform="translate(4002.050781 0)"/>
    <use xlink:href="#Arial-ItalicMT-69" transform="translate(4085.351562 0)"/>
    <use xlink:href="#Arial-ItalicMT-6c" transform="translate(4107.568359 0)"/>
    <use xlink:href="#Arial-ItalicMT-79" transform="translate(4129.785156 0)"/>
    <use xlink:href="#Arial-ItalicMT-20" transform="translate(4179.785156 0)"/>
    <use xlink:href="#Arial-ItalicMT-73" transform="translate(4207.568359 0)"/>
    <use xlink:href="#Arial-ItalicMT-75" transform="translate(4257.568359 0)"/>
    <use xlink:href="#Arial-ItalicMT-70" transform="translate(4313.183594 0)"/>
    <use xlink:href="#Arial-ItalicMT-70" transform="translate(4368.798828 0)"/>
    <use xlink:href="#Arial-ItalicMT-6f" transform="translate(4424.414062 0)"/>
    <use xlink:href="#Arial-ItalicMT-72" transform="translate(4480.029297 0)"/>
    <use xlink:href="#Arial-ItalicMT-74" transform="translate(4513.330078 0)"/>
    <use xlink:href="#Arial-ItalicMT-20" transform="translate(4541.113281 0)"/>
    <use xlink:href="#Arial-ItalicMT-61" transform="translate(4568.896484 0)"/>
    <use xlink:href="#Arial-ItalicMT-6e" transform="translate(4624.511719 0)"/>
    <use xlink:href="#Arial-ItalicMT-64" transform="translate(4680.126953 0)"/>
    <use xlink:href="#Arial-ItalicMT-20" transform="translate(4735.742188 0)"/>
    <use xlink:href="#Arial-ItalicMT-73" transform="translate(4763.525391 0)"/>
    <use xlink:href="#Arial-ItalicMT-65" transform="translate(4813.525391 0)"/>
    <use xlink:href="#Arial-ItalicMT-6e" transform="translate(4869.140625 0)"/>
    <use xlink:href="#Arial-ItalicMT-73" transform="translate(4924.755859 0)"/>
    <use xlink:href="#Arial-ItalicMT-65" transform="translate(4974.755859 0)"/>
    <use xlink:href="#Arial-ItalicMT-20" transform="translate(5030.371094 0)"/>
    <use xlink:href="#Arial-ItalicMT-6f" transform="translate(5058.154297 0)"/>
    <use xlink:href="#Arial-ItalicMT-66" transform="translate(5113.769531 0)"/>
    <use xlink:href="#Arial-ItalicMT-20" transform="translate(5141.552734 0)"/>
    <use xlink:href="#Arial-ItalicMT-63" transform="translate(5169.335938 0)"/>
    <use xlink:href="#Arial-ItalicMT-6f" transform="translate(5219.335938 0)"/>
    <use xlink:href="#Arial-ItalicMT-6e" transform="translate(5274.951172 0)"/>
    <use xlink:href="#Arial-ItalicMT-6e" transform="translate(5330.566406 0)"/>
    <use xlink:href="#Arial-ItalicMT-65" transform="translate(5386.181641 0)"/>
    <use xlink:href="#Arial-ItalicMT-63" transform="translate(5441.796875 0)"/>
    <use xlink:href="#Arial-ItalicMT-74" transform="translate(5491.796875 0)"/>
    <use xlink:href="#Arial-ItalicMT-65" transform="translate(5519.580078 0)"/>
    <use xlink:href="#Arial-ItalicMT-64" transform="translate(5575.195312 0)"/>
    <use xlink:href="#Arial-ItalicMT-6e" transform="translate(5630.810547 0)"/>
    <use xlink:href="#Arial-ItalicMT-65" transform="translate(5686.425781 0)"/>
    <use xlink:href="#Arial-ItalicMT-73" transform="translate(5742.041016 0)"/>
    <use xlink:href="#Arial-ItalicMT-73" transform="translate(5792.041016 0)"/>
    <use xlink:href="#Arial-ItalicMT-3b" transform="translate(5842.041016 0)"/>
    <use xlink:href="#Arial-ItalicMT-20" transform="translate(5869.824219 0)"/>
    <use xlink:href="#Arial-ItalicMT-53" transform="translate(5897.607422 0)"/>
    <use xlink:href="#Arial-ItalicMT-74" transform="translate(5964.306641 0)"/>
    <use xlink:href="#Arial-ItalicMT-72" transform="translate(5992.089844 0)"/>
    <use xlink:href="#Arial-ItalicMT-61" transform="translate(6025.390625 0)"/>
    <use xlink:href="#Arial-ItalicMT-74" transform="translate(6081.005859 0)"/>
    <use xlink:href="#Arial-ItalicMT-65" transform="translate(6108.789062 0)"/>
    <use xlink:href="#Arial-ItalicMT-67" transform="translate(6164.404297 0)"/>
    <use xlink:href="#Arial-ItalicMT-79" transform="translate(6220.019531 0)"/>
    <use xlink:href="#Arial-ItalicMT-20" transform="translate(6270.019531 0)"/>
    <use xlink:href="#Arial-ItalicMT-64" transform="translate(6297.802734 0)"/>
    <use xlink:href="#Arial-ItalicMT-69" transform="translate(6353.417969 0)"/>
    <use xlink:href="#Arial-ItalicMT-6d" transform="translate(6375.634766 0)"/>
    <use xlink:href="#Arial-ItalicMT-65" transform="translate(6458.935547 0)"/>
    <use xlink:href="#Arial-ItalicMT-6e" transform="translate(6514.550781 0)"/>
    <use xlink:href="#Arial-ItalicMT-73" transform="translate(6570.166016 0)"/>
    <use xlink:href="#Arial-ItalicMT-69" transform="translate(6620.166016 0)"/>
    <use xlink:href="#Arial-ItalicMT-6f" transform="translate(6642.382812 0)"/>
    <use xlink:href="#Arial-ItalicMT-6e" transform="translate(6697.998047 0)"/>
   </g>
   <!-- includes cultural maintenance and cultural contact; Trait dimension includes openness to experience and personal autonomy; Situation dimension (cultural -->
   <g style="fill: #333333" transform="translate(27 500.31) scale(0.075 -0.075)">
    <defs>
     <path id="Arial-ItalicMT-54" d="M 1453 0 
L 2300 4059 
L 797 4059 
L 906 4581 
L 4513 4581 
L 4403 4059 
L 2913 4059 
L 2066 0 
L 1453 0 
z
" transform="scale(0.015625)"/>
     <path id="Arial-ItalicMT-78" d="M -9 0 
L 1434 1684 
L 606 3319 
L 1231 3319 
L 1513 2728 
Q 1669 2397 1794 2094 
L 2750 3319 
L 3441 3319 
L 2047 1641 
L 2884 0 
L 2259 0 
L 1928 675 
Q 1822 891 1688 1209 
L 700 0 
L -9 0 
z
" transform="scale(0.015625)"/>
    </defs>
    <use xlink:href="#Arial-ItalicMT-69"/>
    <use xlink:href="#Arial-ItalicMT-6e" transform="translate(22.216797 0)"/>
    <use xlink:href="#Arial-ItalicMT-63" transform="translate(77.832031 0)"/>
    <use xlink:href="#Arial-ItalicMT-6c" transform="translate(127.832031 0)"/>
    <use xlink:href="#Arial-ItalicMT-75" transform="translate(150.048828 0)"/>
    <use xlink:href="#Arial-ItalicMT-64" transform="translate(205.664062 0)"/>
    <use xlink:href="#Arial-ItalicMT-65" transform="translate(261.279297 0)"/>
    <use xlink:href="#Arial-ItalicMT-73" transform="translate(316.894531 0)"/>
    <use xlink:href="#Arial-ItalicMT-20" transform="translate(366.894531 0)"/>
    <use xlink:href="#Arial-ItalicMT-63" transform="translate(394.677734 0)"/>
    <use xlink:href="#Arial-ItalicMT-75" transform="translate(444.677734 0)"/>
    <use xlink:href="#Arial-ItalicMT-6c" transform="translate(500.292969 0)"/>
    <use xlink:href="#Arial-ItalicMT-74" transform="translate(522.509766 0)"/>
    <use xlink:href="#Arial-ItalicMT-75" transform="translate(550.292969 0)"/>
    <use xlink:href="#Arial-ItalicMT-72" transform="translate(605.908203 0)"/>
    <use xlink:href="#Arial-ItalicMT-61" transform="translate(639.208984 0)"/>
    <use xlink:href="#Arial-ItalicMT-6c" transform="translate(694.824219 0)"/>
    <use xlink:href="#Arial-ItalicMT-20" transform="translate(717.041016 0)"/>
    <use xlink:href="#Arial-ItalicMT-6d" transform="translate(744.824219 0)"/>
    <use xlink:href="#Arial-ItalicMT-61" transform="translate(828.125 0)"/>
    <use xlink:href="#Arial-ItalicMT-69" transform="translate(883.740234 0)"/>
    <use xlink:href="#Arial-ItalicMT-6e" transform="translate(905.957031 0)"/>
    <use xlink:href="#Arial-ItalicMT-74" transform="translate(961.572266 0)"/>
    <use xlink:href="#Arial-ItalicMT-65" transform="translate(989.355469 0)"/>
    <use xlink:href="#Arial-ItalicMT-6e" transform="translate(1044.970703 0)"/>
    <use xlink:href="#Arial-ItalicMT-61" transform="translate(1100.585938 0)"/>
    <use xlink:href="#Arial-ItalicMT-6e" transform="translate(1156.201172 0)"/>
    <use xlink:href="#Arial-ItalicMT-63" transform="translate(1211.816406 0)"/>
    <use xlink:href="#Arial-ItalicMT-65" transform="translate(1261.816406 0)"/>
    <use xlink:href="#Arial-ItalicMT-20" transform="translate(1317.431641 0)"/>
    <use xlink:href="#Arial-ItalicMT-61" transform="translate(1345.214844 0)"/>
    <use xlink:href="#Arial-ItalicMT-6e" transform="translate(1400.830078 0)"/>
    <use xlink:href="#Arial-ItalicMT-64" transform="translate(1456.445312 0)"/>
    <use xlink:href="#Arial-ItalicMT-20" transform="translate(1512.060547 0)"/>
    <use xlink:href="#Arial-ItalicMT-63" transform="translate(1539.84375 0)"/>
    <use xlink:href="#Arial-ItalicMT-75" transform="translate(1589.84375 0)"/>
    <use xlink:href="#Arial-ItalicMT-6c" transform="translate(1645.458984 0)"/>
    <use xlink:href="#Arial-ItalicMT-74" transform="translate(1667.675781 0)"/>
    <use xlink:href="#Arial-ItalicMT-75" transform="translate(1695.458984 0)"/>
    <use xlink:href="#Arial-ItalicMT-72" transform="translate(1751.074219 0)"/>
    <use xlink:href="#Arial-ItalicMT-61" transform="translate(1784.375 0)"/>
    <use xlink:href="#Arial-ItalicMT-6c" transform="translate(1839.990234 0)"/>
    <use xlink:href="#Arial-ItalicMT-20" transform="translate(1862.207031 0)"/>
    <use xlink:href="#Arial-ItalicMT-63" transform="translate(1889.990234 0)"/>
    <use xlink:href="#Arial-ItalicMT-6f" transform="translate(1939.990234 0)"/>
    <use xlink:href="#Arial-ItalicMT-6e" transform="translate(1995.605469 0)"/>
    <use xlink:href="#Arial-ItalicMT-74" transform="translate(2051.220703 0)"/>
    <use xlink:href="#Arial-ItalicMT-61" transform="translate(2079.003906 0)"/>
    <use xlink:href="#Arial-ItalicMT-63" transform="translate(2134.619141 0)"/>
    <use xlink:href="#Arial-ItalicMT-74" transform="translate(2184.619141 0)"/>
    <use xlink:href="#Arial-ItalicMT-3b" transform="translate(2212.402344 0)"/>
    <use xlink:href="#Arial-ItalicMT-20" transform="translate(2240.185547 0)"/>
    <use xlink:href="#Arial-ItalicMT-54" transform="translate(2267.96875 0)"/>
    <use xlink:href="#Arial-ItalicMT-72" transform="translate(2321.677734 0)"/>
    <use xlink:href="#Arial-ItalicMT-61" transform="translate(2354.978516 0)"/>
    <use xlink:href="#Arial-ItalicMT-69" transform="translate(2410.59375 0)"/>
    <use xlink:href="#Arial-ItalicMT-74" transform="translate(2432.810547 0)"/>
    <use xlink:href="#Arial-ItalicMT-20" transform="translate(2460.59375 0)"/>
    <use xlink:href="#Arial-ItalicMT-64" transform="translate(2488.376953 0)"/>
    <use xlink:href="#Arial-ItalicMT-69" transform="translate(2543.992188 0)"/>
    <use xlink:href="#Arial-ItalicMT-6d" transform="translate(2566.208984 0)"/>
    <use xlink:href="#Arial-ItalicMT-65" transform="translate(2649.509766 0)"/>
    <use xlink:href="#Arial-ItalicMT-6e" transform="translate(2705.125 0)"/>
    <use xlink:href="#Arial-ItalicMT-73" transform="translate(2760.740234 0)"/>
    <use xlink:href="#Arial-ItalicMT-69" transform="translate(2810.740234 0)"/>
    <use xlink:href="#Arial-ItalicMT-6f" transform="translate(2832.957031 0)"/>
    <use xlink:href="#Arial-ItalicMT-6e" transform="translate(2888.572266 0)"/>
    <use xlink:href="#Arial-ItalicMT-20" transform="translate(2944.1875 0)"/>
    <use xlink:href="#Arial-ItalicMT-69" transform="translate(2971.970703 0)"/>
    <use xlink:href="#Arial-ItalicMT-6e" transform="translate(2994.1875 0)"/>
    <use xlink:href="#Arial-ItalicMT-63" transform="translate(3049.802734 0)"/>
    <use xlink:href="#Arial-ItalicMT-6c" transform="translate(3099.802734 0)"/>
    <use xlink:href="#Arial-ItalicMT-75" transform="translate(3122.019531 0)"/>
    <use xlink:href="#Arial-ItalicMT-64" transform="translate(3177.634766 0)"/>
    <use xlink:href="#Arial-ItalicMT-65" transform="translate(3233.25 0)"/>
    <use xlink:href="#Arial-ItalicMT-73" transform="translate(3288.865234 0)"/>
    <use xlink:href="#Arial-ItalicMT-20" transform="translate(3338.865234 0)"/>
    <use xlink:href="#Arial-ItalicMT-6f" transform="translate(3366.648438 0)"/>
    <use xlink:href="#Arial-ItalicMT-70" transform="translate(3422.263672 0)"/>
    <use xlink:href="#Arial-ItalicMT-65" transform="translate(3477.878906 0)"/>
    <use xlink:href="#Arial-ItalicMT-6e" transform="translate(3533.494141 0)"/>
    <use xlink:href="#Arial-ItalicMT-6e" transform="translate(3589.109375 0)"/>
    <use xlink:href="#Arial-ItalicMT-65" transform="translate(3644.724609 0)"/>
    <use xlink:href="#Arial-ItalicMT-73" transform="translate(3700.339844 0)"/>
    <use xlink:href="#Arial-ItalicMT-73" transform="translate(3750.339844 0)"/>
    <use xlink:href="#Arial-ItalicMT-20" transform="translate(3800.339844 0)"/>
    <use xlink:href="#Arial-ItalicMT-74" transform="translate(3828.123047 0)"/>
    <use xlink:href="#Arial-ItalicMT-6f" transform="translate(3855.90625 0)"/>
    <use xlink:href="#Arial-ItalicMT-20" transform="translate(3911.521484 0)"/>
    <use xlink:href="#Arial-ItalicMT-65" transform="translate(3939.304688 0)"/>
    <use xlink:href="#Arial-ItalicMT-78" transform="translate(3994.919922 0)"/>
    <use xlink:href="#Arial-ItalicMT-70" transform="translate(4044.919922 0)"/>
    <use xlink:href="#Arial-ItalicMT-65" transform="translate(4100.535156 0)"/>
    <use xlink:href="#Arial-ItalicMT-72" transform="translate(4156.150391 0)"/>
    <use xlink:href="#Arial-ItalicMT-69" transform="translate(4189.451172 0)"/>
    <use xlink:href="#Arial-ItalicMT-65" transform="translate(4211.667969 0)"/>
    <use xlink:href="#Arial-ItalicMT-6e" transform="translate(4267.283203 0)"/>
    <use xlink:href="#Arial-ItalicMT-63" transform="translate(4322.898438 0)"/>
    <use xlink:href="#Arial-ItalicMT-65" transform="translate(4372.898438 0)"/>
    <use xlink:href="#Arial-ItalicMT-20" transform="translate(4428.513672 0)"/>
    <use xlink:href="#Arial-ItalicMT-61" transform="translate(4456.296875 0)"/>
    <use xlink:href="#Arial-ItalicMT-6e" transform="translate(4511.912109 0)"/>
    <use xlink:href="#Arial-ItalicMT-64" transform="translate(4567.527344 0)"/>
    <use xlink:href="#Arial-ItalicMT-20" transform="translate(4623.142578 0)"/>
    <use xlink:href="#Arial-ItalicMT-70" transform="translate(4650.925781 0)"/>
    <use xlink:href="#Arial-ItalicMT-65" transform="translate(4706.541016 0)"/>
    <use xlink:href="#Arial-ItalicMT-72" transform="translate(4762.15625 0)"/>
    <use xlink:href="#Arial-ItalicMT-73" transform="translate(4795.457031 0)"/>
    <use xlink:href="#Arial-ItalicMT-6f" transform="translate(4845.457031 0)"/>
    <use xlink:href="#Arial-ItalicMT-6e" transform="translate(4901.072266 0)"/>
    <use xlink:href="#Arial-ItalicMT-61" transform="translate(4956.6875 0)"/>
    <use xlink:href="#Arial-ItalicMT-6c" transform="translate(5012.302734 0)"/>
    <use xlink:href="#Arial-ItalicMT-20" transform="translate(5034.519531 0)"/>
    <use xlink:href="#Arial-ItalicMT-61" transform="translate(5062.302734 0)"/>
    <use xlink:href="#Arial-ItalicMT-75" transform="translate(5117.917969 0)"/>
    <use xlink:href="#Arial-ItalicMT-74" transform="translate(5173.533203 0)"/>
    <use xlink:href="#Arial-ItalicMT-6f" transform="translate(5201.316406 0)"/>
    <use xlink:href="#Arial-ItalicMT-6e" transform="translate(5256.931641 0)"/>
    <use xlink:href="#Arial-ItalicMT-6f" transform="translate(5312.546875 0)"/>
    <use xlink:href="#Arial-ItalicMT-6d" transform="translate(5368.162109 0)"/>
    <use xlink:href="#Arial-ItalicMT-79" transform="translate(5451.462891 0)"/>
    <use xlink:href="#Arial-ItalicMT-3b" transform="translate(5501.462891 0)"/>
    <use xlink:href="#Arial-ItalicMT-20" transform="translate(5529.246094 0)"/>
    <use xlink:href="#Arial-ItalicMT-53" transform="translate(5557.029297 0)"/>
    <use xlink:href="#Arial-ItalicMT-69" transform="translate(5623.728516 0)"/>
    <use xlink:href="#Arial-ItalicMT-74" transform="translate(5645.945312 0)"/>
    <use xlink:href="#Arial-ItalicMT-75" transform="translate(5673.728516 0)"/>
    <use xlink:href="#Arial-ItalicMT-61" transform="translate(5729.34375 0)"/>
    <use xlink:href="#Arial-ItalicMT-74" transform="translate(5784.958984 0)"/>
    <use xlink:href="#Arial-ItalicMT-69" transform="translate(5812.742188 0)"/>
    <use xlink:href="#Arial-ItalicMT-6f" transform="translate(5834.958984 0)"/>
    <use xlink:href="#Arial-ItalicMT-6e" transform="translate(5890.574219 0)"/>
    <use xlink:href="#Arial-ItalicMT-20" transform="translate(5946.189453 0)"/>
    <use xlink:href="#Arial-ItalicMT-64" transform="translate(5973.972656 0)"/>
    <use xlink:href="#Arial-ItalicMT-69" transform="translate(6029.587891 0)"/>
    <use xlink:href="#Arial-ItalicMT-6d" transform="translate(6051.804688 0)"/>
    <use xlink:href="#Arial-ItalicMT-65" transform="translate(6135.105469 0)"/>
    <use xlink:href="#Arial-ItalicMT-6e" transform="translate(6190.720703 0)"/>
    <use xlink:href="#Arial-ItalicMT-73" transform="translate(6246.335938 0)"/>
    <use xlink:href="#Arial-ItalicMT-69" transform="translate(6296.335938 0)"/>
    <use xlink:href="#Arial-ItalicMT-6f" transform="translate(6318.552734 0)"/>
    <use xlink:href="#Arial-ItalicMT-6e" transform="translate(6374.167969 0)"/>
    <use xlink:href="#Arial-ItalicMT-20" transform="translate(6429.783203 0)"/>
    <use xlink:href="#Arial-ItalicMT-28" transform="translate(6457.566406 0)"/>
    <use xlink:href="#Arial-ItalicMT-63" transform="translate(6490.867188 0)"/>
    <use xlink:href="#Arial-ItalicMT-75" transform="translate(6540.867188 0)"/>
    <use xlink:href="#Arial-ItalicMT-6c" transform="translate(6596.482422 0)"/>
    <use xlink:href="#Arial-ItalicMT-74" transform="translate(6618.699219 0)"/>
    <use xlink:href="#Arial-ItalicMT-75" transform="translate(6646.482422 0)"/>
    <use xlink:href="#Arial-ItalicMT-72" transform="translate(6702.097656 0)"/>
    <use xlink:href="#Arial-ItalicMT-61" transform="translate(6735.398438 0)"/>
    <use xlink:href="#Arial-ItalicMT-6c" transform="translate(6791.013672 0)"/>
   </g>
   <!-- distance) moderates all inner-dimension effects. -->
   <g style="fill: #333333" transform="translate(27 508.440234) scale(0.075 -0.075)">
    <use xlink:href="#Arial-ItalicMT-64"/>
    <use xlink:href="#Arial-ItalicMT-69" transform="translate(55.615234 0)"/>
    <use xlink:href="#Arial-ItalicMT-73" transform="translate(77.832031 0)"/>
    <use xlink:href="#Arial-ItalicMT-74" transform="translate(127.832031 0)"/>
    <use xlink:href="#Arial-ItalicMT-61" transform="translate(155.615234 0)"/>
    <use xlink:href="#Arial-ItalicMT-6e" transform="translate(211.230469 0)"/>
    <use xlink:href="#Arial-ItalicMT-63" transform="translate(266.845703 0)"/>
    <use xlink:href="#Arial-ItalicMT-65" transform="translate(316.845703 0)"/>
    <use xlink:href="#Arial-ItalicMT-29" transform="translate(372.460938 0)"/>
    <use xlink:href="#Arial-ItalicMT-20" transform="translate(405.761719 0)"/>
    <use xlink:href="#Arial-ItalicMT-6d" transform="translate(433.544922 0)"/>
    <use xlink:href="#Arial-ItalicMT-6f" transform="translate(516.845703 0)"/>
    <use xlink:href="#Arial-ItalicMT-64" transform="translate(572.460938 0)"/>
    <use xlink:href="#Arial-ItalicMT-65" transform="translate(628.076172 0)"/>
    <use xlink:href="#Arial-ItalicMT-72" transform="translate(683.691406 0)"/>
    <use xlink:href="#Arial-ItalicMT-61" transform="translate(716.992188 0)"/>
    <use xlink:href="#Arial-ItalicMT-74" transform="translate(772.607422 0)"/>
    <use xlink:href="#Arial-ItalicMT-65" transform="translate(800.390625 0)"/>
    <use xlink:href="#Arial-ItalicMT-73" transform="translate(856.005859 0)"/>
    <use xlink:href="#Arial-ItalicMT-20" transform="translate(906.005859 0)"/>
    <use xlink:href="#Arial-ItalicMT-61" transform="translate(933.789062 0)"/>
    <use xlink:href="#Arial-ItalicMT-6c" transform="translate(989.404297 0)"/>
    <use xlink:href="#Arial-ItalicMT-6c" transform="translate(1011.621094 0)"/>
    <use xlink:href="#Arial-ItalicMT-20" transform="translate(1033.837891 0)"/>
    <use xlink:href="#Arial-ItalicMT-69" transform="translate(1061.621094 0)"/>
    <use xlink:href="#Arial-ItalicMT-6e" transform="translate(1083.837891 0)"/>
    <use xlink:href="#Arial-ItalicMT-6e" transform="translate(1139.453125 0)"/>
    <use xlink:href="#Arial-ItalicMT-65" transform="translate(1195.068359 0)"/>
    <use xlink:href="#Arial-ItalicMT-72" transform="translate(1250.683594 0)"/>
    <use xlink:href="#Arial-ItalicMT-2d" transform="translate(1282.234375 0)"/>
    <use xlink:href="#Arial-ItalicMT-64" transform="translate(1315.535156 0)"/>
    <use xlink:href="#Arial-ItalicMT-69" transform="translate(1371.150391 0)"/>
    <use xlink:href="#Arial-ItalicMT-6d" transform="translate(1393.367188 0)"/>
    <use xlink:href="#Arial-ItalicMT-65" transform="translate(1476.667969 0)"/>
    <use xlink:href="#Arial-ItalicMT-6e" transform="translate(1532.283203 0)"/>
    <use xlink:href="#Arial-ItalicMT-73" transform="translate(1587.898438 0)"/>
    <use xlink:href="#Arial-ItalicMT-69" transform="translate(1637.898438 0)"/>
    <use xlink:href="#Arial-ItalicMT-6f" transform="translate(1660.115234 0)"/>
    <use xlink:href="#Arial-ItalicMT-6e" transform="translate(1715.730469 0)"/>
    <use xlink:href="#Arial-ItalicMT-20" transform="translate(1771.345703 0)"/>
    <use xlink:href="#Arial-ItalicMT-65" transform="translate(1799.128906 0)"/>
    <use xlink:href="#Arial-ItalicMT-66" transform="translate(1854.744141 0)"/>
    <use xlink:href="#Arial-ItalicMT-66" transform="translate(1882.527344 0)"/>
    <use xlink:href="#Arial-ItalicMT-65" transform="translate(1910.310547 0)"/>
    <use xlink:href="#Arial-ItalicMT-63" transform="translate(1965.925781 0)"/>
    <use xlink:href="#Arial-ItalicMT-74" transform="translate(2015.925781 0)"/>
    <use xlink:href="#Arial-ItalicMT-73" transform="translate(2043.708984 0)"/>
    <use xlink:href="#Arial-ItalicMT-2e" transform="translate(2093.708984 0)"/>
   </g>
  </g>
  <g id="text_17">
   <!-- Figure 2  Quadripartite Model of Cross-Cultural Adaptation -->
   <g transform="translate(103.22625 18.095625) scale(0.12 -0.12)">
    <defs>
     <path id="Arial-BoldMT-46" d="M 472 0 
L 472 4581 
L 3613 4581 
L 3613 3806 
L 1397 3806 
L 1397 2722 
L 3309 2722 
L 3309 1947 
L 1397 1947 
L 1397 0 
L 472 0 
z
" transform="scale(0.015625)"/>
     <path id="Arial-BoldMT-20" transform="scale(0.015625)"/>
     <path id="Arial-BoldMT-32" d="M 3238 816 
L 3238 0 
L 159 0 
Q 209 463 459 877 
Q 709 1291 1447 1975 
Q 2041 2528 2175 2725 
Q 2356 2997 2356 3263 
Q 2356 3556 2198 3714 
Q 2041 3872 1763 3872 
Q 1488 3872 1325 3706 
Q 1163 3541 1138 3156 
L 263 3244 
Q 341 3969 753 4284 
Q 1166 4600 1784 4600 
Q 2463 4600 2850 4234 
Q 3238 3869 3238 3325 
Q 3238 3016 3127 2736 
Q 3016 2456 2775 2150 
Q 2616 1947 2200 1565 
Q 1784 1184 1673 1059 
Q 1563 934 1494 816 
L 3238 816 
z
" transform="scale(0.015625)"/>
     <path id="Arial-BoldMT-51" d="M 4153 581 
Q 4494 338 4894 194 
L 4553 -459 
Q 4344 -397 4144 -288 
Q 4100 -266 3528 119 
Q 3078 -78 2531 -78 
Q 1475 -78 876 544 
Q 278 1166 278 2291 
Q 278 3413 878 4036 
Q 1478 4659 2506 4659 
Q 3525 4659 4122 4036 
Q 4719 3413 4719 2291 
Q 4719 1697 4553 1247 
Q 4428 903 4153 581 
z
M 3409 1103 
Q 3588 1313 3677 1609 
Q 3766 1906 3766 2291 
Q 3766 3084 3416 3476 
Q 3066 3869 2500 3869 
Q 1934 3869 1582 3475 
Q 1231 3081 1231 2291 
Q 1231 1488 1582 1089 
Q 1934 691 2472 691 
Q 2672 691 2850 756 
Q 2569 941 2278 1044 
L 2538 1572 
Q 2994 1416 3409 1103 
z
" transform="scale(0.015625)"/>
     <path id="Arial-BoldMT-4d" d="M 453 0 
L 453 4581 
L 1838 4581 
L 2669 1456 
L 3491 4581 
L 4878 4581 
L 4878 0 
L 4019 0 
L 4019 3606 
L 3109 0 
L 2219 0 
L 1313 3606 
L 1313 0 
L 453 0 
z
" transform="scale(0.015625)"/>
     <path id="Arial-BoldMT-66" d="M 75 3319 
L 563 3319 
L 563 3569 
Q 563 3988 652 4194 
Q 741 4400 980 4529 
Q 1219 4659 1584 4659 
Q 1959 4659 2319 4547 
L 2200 3934 
Q 1991 3984 1797 3984 
Q 1606 3984 1523 3895 
Q 1441 3806 1441 3553 
L 1441 3319 
L 2097 3319 
L 2097 2628 
L 1441 2628 
L 1441 0 
L 563 0 
L 563 2628 
L 75 2628 
L 75 3319 
z
" transform="scale(0.015625)"/>
    </defs>
    <use xlink:href="#Arial-BoldMT-46"/>
    <use xlink:href="#Arial-BoldMT-69" transform="translate(61.083984 0)"/>
    <use xlink:href="#Arial-BoldMT-67" transform="translate(88.867188 0)"/>
    <use xlink:href="#Arial-BoldMT-75" transform="translate(149.951172 0)"/>
    <use xlink:href="#Arial-BoldMT-72" transform="translate(211.035156 0)"/>
    <use xlink:href="#Arial-BoldMT-65" transform="translate(249.951172 0)"/>
    <use xlink:href="#Arial-BoldMT-20" transform="translate(305.566406 0)"/>
    <use xlink:href="#Arial-BoldMT-32" transform="translate(333.349609 0)"/>
    <use xlink:href="#Arial-BoldMT-20" transform="translate(388.964844 0)"/>
    <use xlink:href="#Arial-BoldMT-20" transform="translate(416.748047 0)"/>
    <use xlink:href="#Arial-BoldMT-51" transform="translate(444.53125 0)"/>
    <use xlink:href="#Arial-BoldMT-75" transform="translate(522.314453 0)"/>
    <use xlink:href="#Arial-BoldMT-61" transform="translate(583.398438 0)"/>
    <use xlink:href="#Arial-BoldMT-64" transform="translate(639.013672 0)"/>
    <use xlink:href="#Arial-BoldMT-72" transform="translate(700.097656 0)"/>
    <use xlink:href="#Arial-BoldMT-69" transform="translate(739.013672 0)"/>
    <use xlink:href="#Arial-BoldMT-70" transform="translate(766.796875 0)"/>
    <use xlink:href="#Arial-BoldMT-61" transform="translate(827.880859 0)"/>
    <use xlink:href="#Arial-BoldMT-72" transform="translate(883.496094 0)"/>
    <use xlink:href="#Arial-BoldMT-74" transform="translate(922.412109 0)"/>
    <use xlink:href="#Arial-BoldMT-69" transform="translate(955.712891 0)"/>
    <use xlink:href="#Arial-BoldMT-74" transform="translate(983.496094 0)"/>
    <use xlink:href="#Arial-BoldMT-65" transform="translate(1016.796875 0)"/>
    <use xlink:href="#Arial-BoldMT-20" transform="translate(1072.412109 0)"/>
    <use xlink:href="#Arial-BoldMT-4d" transform="translate(1100.195312 0)"/>
    <use xlink:href="#Arial-BoldMT-6f" transform="translate(1183.496094 0)"/>
    <use xlink:href="#Arial-BoldMT-64" transform="translate(1244.580078 0)"/>
    <use xlink:href="#Arial-BoldMT-65" transform="translate(1305.664062 0)"/>
    <use xlink:href="#Arial-BoldMT-6c" transform="translate(1361.279297 0)"/>
    <use xlink:href="#Arial-BoldMT-20" transform="translate(1389.0625 0)"/>
    <use xlink:href="#Arial-BoldMT-6f" transform="translate(1416.845703 0)"/>
    <use xlink:href="#Arial-BoldMT-66" transform="translate(1477.929688 0)"/>
    <use xlink:href="#Arial-BoldMT-20" transform="translate(1511.230469 0)"/>
    <use xlink:href="#Arial-BoldMT-43" transform="translate(1539.013672 0)"/>
    <use xlink:href="#Arial-BoldMT-72" transform="translate(1611.230469 0)"/>
    <use xlink:href="#Arial-BoldMT-6f" transform="translate(1650.146484 0)"/>
    <use xlink:href="#Arial-BoldMT-73" transform="translate(1711.230469 0)"/>
    <use xlink:href="#Arial-BoldMT-73" transform="translate(1766.845703 0)"/>
    <use xlink:href="#Arial-BoldMT-2d" transform="translate(1822.460938 0)"/>
    <use xlink:href="#Arial-BoldMT-43" transform="translate(1855.761719 0)"/>
    <use xlink:href="#Arial-BoldMT-75" transform="translate(1927.978516 0)"/>
    <use xlink:href="#Arial-BoldMT-6c" transform="translate(1989.0625 0)"/>
    <use xlink:href="#Arial-BoldMT-74" transform="translate(2016.845703 0)"/>
    <use xlink:href="#Arial-BoldMT-75" transform="translate(2050.146484 0)"/>
    <use xlink:href="#Arial-BoldMT-72" transform="translate(2111.230469 0)"/>
    <use xlink:href="#Arial-BoldMT-61" transform="translate(2150.146484 0)"/>
    <use xlink:href="#Arial-BoldMT-6c" transform="translate(2205.761719 0)"/>
    <use xlink:href="#Arial-BoldMT-20" transform="translate(2233.544922 0)"/>
    <use xlink:href="#Arial-BoldMT-41" transform="translate(2257.578125 0)"/>
    <use xlink:href="#Arial-BoldMT-64" transform="translate(2329.794922 0)"/>
    <use xlink:href="#Arial-BoldMT-61" transform="translate(2390.878906 0)"/>
    <use xlink:href="#Arial-BoldMT-70" transform="translate(2446.494141 0)"/>
    <use xlink:href="#Arial-BoldMT-74" transform="translate(2507.578125 0)"/>
    <use xlink:href="#Arial-BoldMT-61" transform="translate(2540.878906 0)"/>
    <use xlink:href="#Arial-BoldMT-74" transform="translate(2596.494141 0)"/>
    <use xlink:href="#Arial-BoldMT-69" transform="translate(2629.794922 0)"/>
    <use xlink:href="#Arial-BoldMT-6f" transform="translate(2657.578125 0)"/>
    <use xlink:href="#Arial-BoldMT-6e" transform="translate(2718.662109 0)"/>
   </g>
  </g>
 </g>
 <defs>
  <clipPath id="pdf115298e9">
   <rect x="10.8" y="56.28" width="518.4" height="397.9628"/>
  </clipPath>
 </defs>
</svg>
